# This file uses centimeters as units for non-parametric coordinates.

mtllib fish1.mtl
g default
v -0.292710 -0.486712 0.917406
v -0.276412 0.509884 0.998226
v 0.017751 1.086630 1.404382
v 0.264538 0.499828 1.013137
v 0.248240 -0.496768 0.932317
v -0.122357 -1.110145 1.174047
v -0.022848 0.027974 -0.851599
v -0.226179 0.459365 0.199553
v -0.233975 -0.344137 0.101680
v -0.024915 -0.762196 0.111844
v 0.199812 -0.354469 0.120343
v 0.217279 0.453408 0.225544
v 0.000830 0.875179 0.278405
v -0.022794 0.173080 1.073870
v -0.018059 -0.186188 1.086202
v 0.002947 0.606858 1.555289
v 0.021482 -0.587560 1.513989
v -0.012586 0.016418 1.041618
v -0.038264 0.004771 1.455143
v 0.256364 0.000039 0.972606
v 0.236430 0.043522 0.173699
v -0.258275 0.038538 0.146695
v -0.284758 -0.000475 0.956838
v -0.671643 0.305946 0.205262
v -0.707293 -0.062531 0.130162
v 0.568185 -0.104274 0.212632
v 0.651416 0.308010 0.281896
v -0.274879 -0.432017 0.604477
v -0.279300 0.014491 0.646050
v -0.261842 0.490504 0.691838
v 0.004411 1.005513 0.972434
v 0.241707 0.482020 0.711000
v 0.244016 0.016720 0.666129
v 0.224961 -0.442179 0.620826
v -0.100917 -0.976664 0.766564
v -0.018839 0.475373 -0.350870
v 0.099967 0.238539 -0.421526
v 0.116435 0.044678 -0.371209
v 0.092603 -0.194063 -0.345075
v -0.038331 -0.348932 -0.471630
v -0.147601 -0.171046 -0.389814
v -0.154353 0.038346 -0.422076
v -0.148167 0.221920 -0.432252
vt 0.625000 0.033494
vt 0.375000 0.033494
vt 0.250000 0.250000
vt 0.375000 0.466506
vt 0.625000 0.466506
vt 0.750000 0.250000
vt 0.250000 0.500000
vt 0.333333 0.500000
vt 0.416667 0.500000
vt 0.500000 0.500000
vt 0.583333 0.500000
vt 0.666667 0.500000
vt 0.750000 0.500000
vt 0.500000 1.000000
vt 0.355466 0.566397
vt 0.712420 0.575159
vt 0.287580 0.575159
vt 0.643937 0.568190
vt 0.571113 0.573323
vt 0.500000 0.562776
vt 0.426370 0.558221
vt 0.418632 0.224460
vt 0.625000 0.246591
vt 0.000000 0.000000
vt 1.000000 0.000000
vt 1.000000 1.000000
vt 0.000000 1.000000
vt 0.493606 0.251158
vt 0.474423 0.000000
vt 0.493606 0.251158
vt 0.539753 1.000000
vt 0.541791 0.500000
vt 0.500374 0.466506
vt 0.536109 0.568138
vt 0.319936 0.570993
vt 0.290658 0.500000
vt 0.503026 0.033494
vt 0.500000 0.000000
vt 1.000000 1.000000
vt 0.000000 1.000000
vt 0.500000 0.000000
vt 1.000000 1.000000
vt 0.000000 1.000000
vt 0.735584 0.528833
vt 0.264416 0.528833
vt 0.301890 0.527235
vt 0.341824 0.525471
vt 0.420389 0.522335
vt 0.500000 0.524082
vt 0.539612 0.526139
vt 0.578645 0.528128
vt 0.657947 0.526159
vt 0.461711 0.770265
vt 0.500000 0.767712
vt 0.520373 0.756346
vt 0.542321 0.746076
vt 0.569871 0.790387
vt 0.616232 0.767536
vt 0.383768 0.767536
vt 0.410138 0.785903
vt 0.431058 0.793173
vn -0.025953 -0.339074 0.940402
vn -0.044153 -0.218148 0.974916
vn 0.489940 -0.277213 0.826506
vn -0.859580 -0.398892 -0.319387
vn -0.863965 -0.377354 -0.333419
vn -0.855446 -0.349836 -0.381873
vn 0.836633 -0.419424 -0.352320
vn 0.832903 -0.428550 -0.350168
vn 0.836315 -0.405897 -0.368545
vn 0.972207 0.038725 -0.230899
vn 0.968474 -0.057780 -0.242321
vn 0.958867 -0.067744 -0.275655
vn 0.805224 0.487822 -0.337111
vn 0.768754 0.503344 -0.394541
vn 0.733396 0.504000 -0.456195
vn -0.763886 0.514764 -0.389225
vn -0.801461 0.507361 -0.316616
vn -0.725207 0.516313 -0.455517
vn 0.250044 0.027934 0.967832
vn 0.345554 -0.058909 0.936548
vn 0.005193 0.037610 0.999279
vn -0.013891 0.096193 0.995266
vn 0.505063 0.005424 0.863066
vn -0.545826 -0.230060 0.805696
vn -0.404030 -0.046482 0.913564
vn -0.298657 0.023694 0.954066
vn -0.604052 0.108603 0.789510
vn -0.997920 -0.016099 -0.062419
vn -0.999892 -0.008461 -0.012024
vn -0.998910 0.040923 -0.022465
vn -0.997509 0.069878 -0.009627
vn -0.997431 -0.069117 -0.018851
vn -0.994925 -0.100594 -0.002421
vn 0.965363 -0.100513 -0.240771
vn -0.976196 -0.056749 -0.209332
vn -0.972663 -0.025795 -0.230784
vn -0.955858 -0.034270 -0.291823
vn -0.998854 0.026169 -0.040076
vn -0.993383 0.029495 -0.111002
vn -0.998098 -0.015795 -0.059587
vn -0.989778 -0.047013 -0.134645
vn -0.992182 0.075902 -0.099064
vn -0.997643 0.035952 -0.058440
vn -0.867505 0.491682 -0.075394
vn -0.853647 0.497902 -0.152906
vn -0.865988 0.492603 -0.086063
vn -0.838691 0.499779 -0.216376
vn 0.893113 0.443220 -0.076843
vn 0.859175 0.465726 -0.211939
vn 0.887536 0.450032 -0.098749
vn 0.868431 0.466662 -0.167493
vn 0.998407 0.003729 -0.056303
vn 0.999376 -0.006619 -0.034706
vn 0.993121 0.047728 -0.106922
vn 0.992564 0.000747 -0.121726
vn 0.986598 -0.071082 -0.146876
vn 0.997344 -0.047353 -0.055337
vn 0.826317 -0.545290 -0.140924
vn 0.838453 -0.531534 -0.120286
vn 0.848260 -0.483285 -0.216540
vn 0.866446 -0.474311 -0.155885
vn -0.924259 -0.337144 -0.179108
vn -0.910958 -0.371985 -0.178279
vn -0.885040 -0.406970 -0.226010
vn -0.869338 -0.437921 -0.229080
vn -0.009068 0.200541 -0.979643
vn -0.009068 0.200541 -0.979643
vn -0.009068 0.200541 -0.979643
vn 0.172203 0.129294 -0.976539
vn 0.172203 0.129294 -0.976539
vn 0.172203 0.129294 -0.976539
vn -0.999442 0.024760 -0.022434
vn -0.999147 0.004504 -0.041058
vn -0.998604 0.020286 -0.048768
vn -0.869654 0.489359 -0.065041
vn -0.869484 0.489020 -0.069690
vn 0.887326 0.447476 -0.111437
vn 0.888022 0.448732 -0.100287
vn 0.997150 -0.010246 -0.074744
vn 0.998884 -0.005718 -0.046883
vn 0.997559 -0.025493 -0.065005
vn 0.816244 -0.555577 -0.158365
vn 0.825459 -0.546430 -0.141535
vn -0.935281 -0.318815 -0.153646
vn -0.936285 -0.327158 -0.127824
vn -0.978623 0.052025 -0.198973
g fish
usemtl phong19SG
f 3/3/1 14/22/2 4/4/3
usemtl phong16SG
f 40/57/4 41/58/5 7/14/6
f 39/56/7 40/57/8 7/14/9
usemtl phong19SG
f 37/54/10 38/55/11 7/14/12
usemtl phong17SG
f 36/53/13 37/54/14 7/14/15
f 43/61/16 36/53/17 7/14/18
usemtl phong16SG
f 18/28/19 20/33/20 14/22/2
usemtl phong19SG
f 14/22/2 20/33/20 4/4/3
usemtl phong16SG
f 15/23/21 6/6/22 5/5/23
usemtl phong19SG
f 2/2/24 14/22/2 3/3/1
usemtl phong16SG
f 23/37/25 18/30/26 14/22/2
f 1/1/27 6/6/22 15/23/21
f 18/29/28 19/31/29 14/24/30
usemtl phong17SG
f 14/24/30 19/31/29 16/27/31
usemtl phong16SG
f 18/29/28 15/25/32 19/31/29
usemtl phong17SG
f 19/31/29 15/25/32 17/26/33
usemtl phong16SG
f 18/28/19 15/23/21 20/33/20
f 20/33/20 15/23/21 5/5/23
f 7/14/12 38/55/11 39/56/34
f 41/59/35 42/60/36 7/14/37
f 1/1/27 15/23/21 23/37/25
f 23/37/25 15/23/21 18/30/26
f 29/46/38 22/35/39 28/45/40
f 28/45/40 22/35/39 9/17/41
usemtl phong19SG
f 22/35/39 29/46/38 8/15/42
f 8/15/42 29/46/38 30/47/43
usemtl phong17SG
f 31/48/44 13/21/45 30/47/46
f 30/47/46 13/21/45 8/15/47
f 32/49/48 12/20/49 31/48/50
f 31/48/50 12/20/49 13/21/51
usemtl phong19SG
f 32/49/52 33/50/53 12/20/54
f 12/20/54 33/50/53 21/34/55
usemtl phong16SG
f 11/19/56 21/34/55 34/51/57
f 34/51/57 21/34/55 33/50/53
f 34/51/58 35/52/59 11/19/60
f 11/19/60 35/52/59 10/18/61
f 35/52/62 28/44/63 10/18/64
f 10/18/64 28/44/63 9/16/65
usemtl phong17SG
f 22/38/66 25/39/67 24/40/68
f 21/41/69 27/42/70 26/43/71
usemtl phong16SG
f 23/36/72 29/46/38 1/7/73
f 1/7/73 29/46/38 28/45/40
usemtl phong19SG
f 29/46/38 23/36/72 30/47/43
f 30/47/43 23/36/72 2/8/74
usemtl phong17SG
f 3/9/75 31/48/44 2/8/76
f 2/8/76 31/48/44 30/47/46
f 3/9/77 4/10/78 31/48/50
f 31/48/50 4/10/78 32/49/48
usemtl phong19SG
f 4/10/79 20/32/80 32/49/52
f 32/49/52 20/32/80 33/50/53
usemtl phong16SG
f 34/51/57 33/50/53 5/11/81
f 5/11/81 33/50/53 20/32/80
f 5/11/82 6/12/83 34/51/58
f 34/51/58 6/12/83 35/52/59
f 6/12/84 1/13/85 35/52/62
f 35/52/62 1/13/85 28/44/63
usemtl phong17SG
f 13/21/51 12/20/49 36/53/13
f 36/53/13 12/20/49 37/54/14
usemtl phong19SG
f 12/20/54 21/34/55 37/54/10
f 37/54/10 21/34/55 38/55/11
usemtl phong16SG
f 38/55/11 21/34/55 39/56/34
f 39/56/34 21/34/55 11/19/56
f 10/18/61 40/57/8 11/19/60
f 11/19/60 40/57/8 39/56/7
f 10/18/64 9/16/65 40/57/4
f 40/57/4 9/16/65 41/58/5
f 9/17/41 22/35/39 41/59/35
f 41/59/35 22/35/39 42/60/36
usemtl phong19SG
f 42/60/36 22/35/39 43/61/86
f 43/61/86 22/35/39 8/15/42
usemtl phong17SG
f 13/21/45 36/53/17 8/15/47
f 8/15/47 36/53/17 43/61/16
usemtl phong19SG
f 7/14/37 42/60/36 43/61/86
f 23/37/25 14/22/2 2/2/24
