# This file uses centimeters as units for non-parametric coordinates.

mtllib fish1.mtl
v -1.115061 -0.527059 -0.337169
v -1.151450 0.657395 -0.337107
v -1.597496 1.369721 0.000387
v -1.169030 0.656822 0.304038
v -1.132641 -0.527632 0.303976
v -1.455651 -1.246259 -0.123204
v 1.009519 -0.017972 -0.027834
v -0.209146 0.551096 -0.276820
v -0.141086 -0.405708 -0.270546
v -0.177710 -0.895785 -0.014754
v -0.163254 -0.408454 0.243634
v -0.239716 0.554149 0.248735
v -0.277472 1.052224 -0.015866
v -1.260686 0.268226 -0.030075
v -1.296631 -0.156093 -0.017514
v -1.804636 0.810663 -0.007837
v -1.826737 -0.604863 0.037208
v -1.231815 0.081118 -0.014959
v -1.721953 0.091427 -0.045051
v -1.150781 0.062823 0.304007
v -0.202698 0.066393 0.279338
v -0.171644 0.049342 -0.306725
v -1.132815 0.050834 -0.337139
v -0.225571 0.361288 -0.801662
v -0.158637 -0.079907 -0.836797
v -0.257154 -0.099786 0.675288
v -0.314518 0.393819 0.765951
v -0.741429 -0.480597 -0.317181
v -0.764095 0.050171 -0.331042
v -0.789968 0.616526 -0.319549
v -1.091115 1.247790 -0.013963
v -0.812531 0.617344 0.277253
v -0.787082 0.064102 0.288973
v -0.760769 -0.482004 0.275257
v -0.965425 -1.112117 -0.100487
v 0.443497 0.541313 -0.031604
v 0.513187 0.259144 0.113724
v 0.442132 0.033046 0.136998
v 0.396981 -0.248377 0.113383
v 0.537393 -0.441695 -0.038793
v 0.451003 -0.228435 -0.171680
v 0.501625 0.017302 -0.183737
v 0.524589 0.234052 -0.179960
vt 0.625000 0.033494
vt 0.375000 0.033494
vt 0.250000 0.250000
vt 0.375000 0.466506
vt 0.625000 0.466506
vt 0.750000 0.250000
vt 0.250000 0.500000
vt 0.333333 0.500000
vt 0.416667 0.500000
vt 0.500000 0.500000
vt 0.583333 0.500000
vt 0.666667 0.500000
vt 0.750000 0.500000
vt 0.500000 1.000000
vt 0.355466 0.566397
vt 0.712420 0.575159
vt 0.287580 0.575159
vt 0.643937 0.568190
vt 0.571113 0.573323
vt 0.500000 0.562776
vt 0.426370 0.558221
vt 0.418632 0.224460
vt 0.625000 0.246591
vt 0.000000 0.000000
vt 1.000000 0.000000
vt 1.000000 1.000000
vt 0.000000 1.000000
vt 0.493606 0.251158
vt 0.474423 0.000000
vt 0.493606 0.251158
vt 0.539753 1.000000
vt 0.541791 0.500000
vt 0.500374 0.466506
vt 0.536109 0.568138
vt 0.319936 0.570993
vt 0.290658 0.500000
vt 0.503026 0.033494
vt 0.500000 0.000000
vt 1.000000 1.000000
vt 0.000000 1.000000
vt 0.500000 0.000000
vt 1.000000 1.000000
vt 0.000000 1.000000
vt 0.735584 0.528833
vt 0.264416 0.528833
vt 0.301890 0.527235
vt 0.341824 0.525471
vt 0.420389 0.522335
vt 0.500000 0.524082
vt 0.539612 0.526139
vt 0.578645 0.528128
vt 0.657947 0.526159
vt 0.461711 0.770265
vt 0.500000 0.767712
vt 0.520373 0.756346
vt 0.542321 0.746076
vt 0.569871 0.790387
vt 0.616232 0.767536
vt 0.383768 0.767536
vt 0.410138 0.785903
vt 0.431058 0.793173
vn -0.956253 -0.291840 -0.020210
vn -0.984677 -0.169647 -0.040374
vn -0.838863 -0.227378 0.494579
vn 0.298082 -0.428360 -0.853027
vn 0.313173 -0.407628 -0.857766
vn 0.362955 -0.382440 -0.849708
vn 0.331704 -0.422893 0.843287
vn 0.329093 -0.431958 0.839708
vn 0.348587 -0.410204 0.842745
vn 0.233560 0.042919 0.971395
vn 0.240122 -0.054086 0.969235
vn 0.272905 -0.065866 0.959784
vn 0.361994 0.483341 0.797083
vn 0.420092 0.495366 0.760352
vn 0.481664 0.492352 0.724975
vn 0.413765 0.482077 -0.772269
vn 0.340837 0.477717 -0.809702
vn 0.480091 0.480928 -0.733635
vn -0.964952 0.080527 0.249767
vn -0.937965 -0.006209 0.346675
vn -0.996128 0.087781 0.004798
vn -0.989201 0.145770 -0.015240
vn -0.861182 0.056945 0.505096
vn -0.816788 -0.198203 -0.541823
vn -0.915164 -0.007160 -0.403017
vn -0.951986 0.066667 -0.298794
vn -0.783694 0.138228 -0.605571
vn 0.060497 -0.035460 -0.997538
vn 0.010546 -0.025336 -0.999623
vn 0.023453 0.023472 -0.999449
vn 0.012085 0.053053 -0.998519
vn 0.014324 -0.086210 -0.996174
vn -0.003661 -0.116778 -0.993151
vn 0.236428 -0.096732 0.966822
vn 0.205209 -0.083071 -0.975186
vn 0.228189 -0.053179 -0.972163
vn 0.288744 -0.064430 -0.955236
vn 0.040301 0.007855 -0.999157
vn 0.111310 0.007707 -0.993756
vn 0.057684 -0.035017 -0.997721
vn 0.131089 -0.069823 -0.988909
vn 0.101717 0.054668 -0.993310
vn 0.059135 0.016723 -0.998110
vn 0.099064 0.473086 -0.875429
vn 0.176804 0.475635 -0.861691
vn 0.109767 0.473496 -0.873930
vn 0.240304 0.474568 -0.846782
vn 0.099907 0.453292 0.885746
vn 0.235927 0.468436 0.851415
vn 0.122122 0.458904 0.880053
vn 0.191594 0.471751 0.860664
vn 0.057455 0.017159 0.998201
vn 0.035368 0.007924 0.999343
vn 0.110213 0.058470 0.992187
vn 0.122641 0.010802 0.992392
vn 0.144149 -0.062285 0.987594
vn 0.053927 -0.033822 0.997972
vn 0.114250 -0.538145 0.835073
vn 0.094340 -0.523175 0.846988
vn 0.192904 -0.479663 0.855986
vn 0.132794 -0.467362 0.874036
vn 0.161010 -0.360713 -0.918674
vn 0.158449 -0.395248 -0.904806
vn 0.204391 -0.432156 -0.878331
vn 0.205921 -0.462963 -0.862127
vn 0.988460 0.150960 -0.012554
vn 0.988460 0.150960 -0.012554
vn 0.988460 0.150960 -0.012554
vn 0.981974 0.082921 0.169856
vn 0.981974 0.082921 0.169856
vn 0.981974 0.082921 0.169856
vn 0.022610 0.007323 -0.999718
vn 0.040195 -0.013833 -0.999096
vn 0.048688 0.001548 -0.998813
vn 0.088604 0.471251 -0.877537
vn 0.093231 0.470683 -0.877363
vn 0.134665 0.455712 0.879882
vn 0.123593 0.457537 0.880560
vn 0.075171 0.002257 0.997168
vn 0.047574 0.008205 0.998834
vn 0.064680 -0.012474 0.997828
vn 0.131142 -0.549457 0.825166
vn 0.114802 -0.539328 0.834234
vn 0.136489 -0.341312 -0.929988
vn 0.110279 -0.348364 -0.930850
vn 0.200317 0.026032 -0.979385
usemtl phong19SG
f 3/3/1 14/22/2 4/4/3
usemtl phong16SG
f 40/57/4 41/58/5 7/14/6
f 39/56/7 40/57/8 7/14/9
usemtl phong19SG
f 37/54/10 38/55/11 7/14/12
usemtl phong17SG
f 36/53/13 37/54/14 7/14/15
f 43/61/16 36/53/17 7/14/18
usemtl phong16SG
f 18/28/19 20/33/20 14/22/2
usemtl phong19SG
f 14/22/2 20/33/20 4/4/3
usemtl phong16SG
f 15/23/21 6/6/22 5/5/23
usemtl phong19SG
f 2/2/24 14/22/2 3/3/1
usemtl phong16SG
f 23/37/25 18/30/26 14/22/2
f 1/1/27 6/6/22 15/23/21
f 18/29/28 19/31/29 14/24/30
usemtl phong17SG
f 14/24/30 19/31/29 16/27/31
usemtl phong16SG
f 18/29/28 15/25/32 19/31/29
usemtl phong17SG
f 19/31/29 15/25/32 17/26/33
usemtl phong16SG
f 18/28/19 15/23/21 20/33/20
f 20/33/20 15/23/21 5/5/23
f 7/14/12 38/55/11 39/56/34
f 41/59/35 42/60/36 7/14/37
f 1/1/27 15/23/21 23/37/25
f 23/37/25 15/23/21 18/30/26
f 29/46/38 22/35/39 28/45/40
f 28/45/40 22/35/39 9/17/41
usemtl phong19SG
f 22/35/39 29/46/38 8/15/42
f 8/15/42 29/46/38 30/47/43
usemtl phong17SG
f 31/48/44 13/21/45 30/47/46
f 30/47/46 13/21/45 8/15/47
f 32/49/48 12/20/49 31/48/50
f 31/48/50 12/20/49 13/21/51
usemtl phong19SG
f 32/49/52 33/50/53 12/20/54
f 12/20/54 33/50/53 21/34/55
usemtl phong16SG
f 11/19/56 21/34/55 34/51/57
f 34/51/57 21/34/55 33/50/53
f 34/51/58 35/52/59 11/19/60
f 11/19/60 35/52/59 10/18/61
f 35/52/62 28/44/63 10/18/64
f 10/18/64 28/44/63 9/16/65
usemtl phong17SG
f 22/38/66 25/39/67 24/40/68
f 21/41/69 27/42/70 26/43/71
usemtl phong16SG
f 23/36/72 29/46/38 1/7/73
f 1/7/73 29/46/38 28/45/40
usemtl phong19SG
f 29/46/38 23/36/72 30/47/43
f 30/47/43 23/36/72 2/8/74
usemtl phong17SG
f 3/9/75 31/48/44 2/8/76
f 2/8/76 31/48/44 30/47/46
f 3/9/77 4/10/78 31/48/50
f 31/48/50 4/10/78 32/49/48
usemtl phong19SG
f 4/10/79 20/32/80 32/49/52
f 32/49/52 20/32/80 33/50/53
usemtl phong16SG
f 34/51/57 33/50/53 5/11/81
f 5/11/81 33/50/53 20/32/80
f 5/11/82 6/12/83 34/51/58
f 34/51/58 6/12/83 35/52/59
f 6/12/84 1/13/85 35/52/62
f 35/52/62 1/13/85 28/44/63
usemtl phong17SG
f 13/21/51 12/20/49 36/53/13
f 36/53/13 12/20/49 37/54/14
usemtl phong19SG
f 12/20/54 21/34/55 37/54/10
f 37/54/10 21/34/55 38/55/11
usemtl phong16SG
f 38/55/11 21/34/55 39/56/34
f 39/56/34 21/34/55 11/19/56
f 10/18/61 40/57/8 11/19/60
f 11/19/60 40/57/8 39/56/7
f 10/18/64 9/16/65 40/57/4
f 40/57/4 9/16/65 41/58/5
f 9/17/41 22/35/39 41/59/35
f 41/59/35 22/35/39 42/60/36
usemtl phong19SG
f 42/60/36 22/35/39 43/61/86
f 43/61/86 22/35/39 8/15/42
usemtl phong17SG
f 13/21/45 36/53/17 8/15/47
f 8/15/47 36/53/17 43/61/16
usemtl phong19SG
f 7/14/37 42/60/36 43/61/86
f 23/37/25 14/22/2 2/2/24
