# This file uses centimeters as units for non-parametric coordinates.

mtllib fish2.mtl
v -1.152563 -0.313417 -0.018549
v 1.003871 -0.541600 0.017349
v -0.963812 0.621260 0.003561
v 1.003871 0.621631 0.005902
v 1.194379 0.067630 -0.395543
v 0.156543 -0.571712 0.003802
v 0.156543 0.721048 0.003802
v -0.963812 0.067345 0.443035
v 0.156543 0.066102 0.484481
v 1.194379 0.067420 0.396920
v 0.156543 0.066102 -0.481549
v -0.963812 0.067345 -0.443035
v 2.071562 0.067345 0.010631
v -1.942800 0.293251 0.007420
v -0.963812 -0.192722 0.239935
v 1.094675 -0.274026 0.224563
v 1.093372 -0.253363 -0.219301
v 0.156543 -0.148539 -0.366583
v 0.156543 -0.136016 0.339760
v -0.963812 -0.153057 -0.253792
v 1.777837 -0.225880 0.013866
v -1.930935 0.051427 -0.030416
v -2.699241 -0.203981 0.015903
v -2.753187 0.761736 0.009291
v -0.610732 0.032074 0.899148
v -0.494634 -0.208363 0.748103
v -0.484094 -0.145752 -0.811801
v -0.600193 0.043257 -0.909960
v -0.292686 -0.244236 -0.635883
v -0.292686 0.086584 -0.762503
v -0.297086 0.080020 0.756060
v -0.297086 -0.317578 0.560915
v -1.097455 0.778248 0.007164
v -0.270559 0.842408 0.007951
v -0.674669 0.669716 0.005416
v -0.242231 0.694680 0.005944
v -1.415609 -0.414281 -0.051003
v -1.512622 -0.172556 -0.034882
v -1.687732 -0.321580 -0.057919
vt 0.250760 0.000000
vt 0.616254 0.000000
vt 0.250760 0.250000
vt 0.616634 0.343180
vt 0.375000 0.436360
vt 0.375000 0.813640
vt 0.585574 0.660121
vt 0.585574 0.907200
vt 0.875000 0.059919
vt 0.441791 0.000000
vt 0.441791 0.875760
vt 0.441791 0.436360
vt 0.441791 0.250000
vt 0.375000 0.119839
vt 0.441791 0.119839
vt 0.585574 0.119839
vt 0.441791 0.630161
vt 0.125000 0.119839
vt 0.375000 0.630161
vt 0.747720 0.119839
vt 0.252280 0.119839
vt 0.281682 0.029827
vt 0.603286 0.052653
vt 0.585302 0.766921
vt 0.761153 0.033555
vt 0.441791 0.741944
vt 0.441791 0.048448
vt 0.208959 0.039833
vt 0.375000 0.752654
vt 0.684415 0.062133
vt 0.251087 0.025811
vt 0.000000 0.000000
vt 1.000000 0.000000
vt 1.000000 1.000000
vt 0.000000 1.000000
vt 0.000000 0.000000
vt 1.000000 0.000000
vt 1.000000 1.000000
vt 0.000000 1.000000
vt 0.000000 0.000000
vt 1.000000 0.000000
vt 1.000000 1.000000
vt 0.000000 1.000000
vt 0.000000 0.610075
vt 1.000000 0.610075
vt 0.000000 0.607358
vt 1.000000 0.607358
vt 0.000000 0.000000
vt 1.000000 0.000000
vt 1.000000 1.000000
vt 0.000000 1.000000
vt 0.396221 0.436360
vt 0.317725 0.500000
vt 0.311455 0.250000
vt 0.422001 0.436360
vt 0.703708 0.500000
vt 0.385190 0.250000
vt 0.000000 0.000000
vt 0.000000 1.000000
vt 0.250887 0.010022
vt 0.308698 0.000000
vt 0.250887 0.010022
vt 0.308698 1.000000
vt 0.692569 0.500000
vn 0.250361 0.798092 0.548058
vn 0.015623 0.346229 0.938020
vn 0.238794 0.264174 0.934446
vn 0.080963 0.291995 -0.952987
vn 0.017337 0.375870 -0.926510
vn 0.068102 0.597311 -0.799113
vn 0.803264 0.595623 -0.000497
vn 0.406059 0.257717 -0.876754
vn -0.298540 0.253285 -0.920174
vn -0.617848 0.785297 0.039655
vn -0.317701 0.948185 -0.003334
vn -0.058406 0.325844 -0.943618
vn 0.009866 0.599772 -0.800110
vn -0.049273 0.291026 0.955445
vn 0.007510 0.594413 0.804125
vn -0.100781 -0.725358 0.680954
vn -0.027832 -0.630699 0.775528
vn -0.006089 -0.594163 0.804321
vn 0.024980 -0.537675 0.842782
vn 0.312829 -0.580738 -0.751586
vn -0.023436 -0.665757 -0.745800
vn -0.006924 -0.601965 -0.798493
vn 0.059458 -0.580154 -0.812334
vn -0.103788 -0.705179 -0.701392
vn -0.274709 -0.610246 -0.743058
vn -0.274709 -0.610246 -0.743058
vn -0.382378 -0.124654 -0.915559
vn -0.289452 -0.617351 -0.731502
vn 0.376895 -0.924554 -0.056120
vn 0.614832 -0.787674 -0.039378
vn 0.310200 -0.556046 0.771096
vn -0.319138 0.207133 0.924796
vn -0.414041 -0.350742 0.839970
vn -0.348461 -0.621746 0.701432
vn 0.009212 -0.614210 0.789089
vn -0.139650 -0.762451 -0.631796
vn -0.338981 -0.702853 0.625372
vn -0.338981 -0.702853 0.625372
vn 0.027217 -0.024358 0.999333
vn 0.027217 -0.024358 0.999333
vn 0.027217 -0.024358 0.999333
vn 0.027217 -0.024358 0.999333
vn 0.486340 -0.397256 0.778242
vn 0.478412 -0.349946 0.805394
vn 0.478412 -0.349945 0.805394
vn 0.488259 -0.410037 0.770372
vn 0.510681 -0.324933 -0.796005
vn 0.508408 -0.243597 -0.825943
vn 0.508409 -0.243597 -0.825943
vn 0.510542 -0.309489 -0.802224
vn 0.510620 -0.348188 -0.786150
vn 0.510621 -0.348188 -0.786150
vn 0.490993 -0.429522 0.757916
vn 0.490993 -0.429522 0.757916
vn -0.002248 -0.024856 0.999689
vn -0.002248 -0.024856 0.999689
vn -0.002248 -0.024856 0.999689
vn 0.006191 -0.012401 0.999904
vn 0.006191 -0.012401 0.999904
vn 0.006191 -0.012401 0.999904
vn -0.071595 -0.094954 0.992904
vn -0.062100 -0.097370 0.993309
vn -0.058490 -0.098286 0.993438
vn -0.071595 -0.094954 0.992904
vn -0.043980 -0.101952 0.993817
vn -0.053982 0.603692 0.795388
vn -0.053982 0.603692 0.795388
vn -0.053982 0.603692 0.795388
vn -0.054536 0.614669 -0.786898
vn -0.054536 0.614669 -0.786898
vn -0.054536 0.614669 -0.786898
vn 0.035031 -0.640638 -0.767043
vn -0.174072 -0.837405 0.518124
usemtl fish_color3SG
f 4/4/1 9/15/2 10/16/3
f 5/7/4 11/17/5 4/4/6
f 4/4/1 13/20/7 5/9/8
f 12/18/9 14/21/10 3/3/11
f 12/19/12 7/12/13 11/17/5
f 8/14/14 9/15/2 7/13/15
usemtl fish_color4SG
f 15/22/16 6/10/17 19/27/18
f 10/16/3 19/27/18 16/23/19
f 13/20/7 17/25/20 5/9/8
f 6/11/21 18/26/22 17/24/23
f 12/19/12 18/26/22 20/29/24
f 1/1/25 38/60/26 22/31/27 20/28/28
usemtl fish_color3SG
f 10/16/3 13/20/7 4/4/1
usemtl fish_color4SG
f 2/2/29 21/30/30 16/23/31
f 8/14/32 22/31/33 15/22/34
usemtl fish_color3SG
f 3/3/11 14/21/10 8/14/32
usemtl fish_color4SG
f 8/14/14 19/27/18 9/15/2
f 16/23/19 6/10/17 2/2/35
f 17/25/20 21/30/30 2/2/29
f 5/7/4 18/26/22 11/17/5
f 20/29/24 6/11/21 1/6/36
usemtl fish_color3SG
f 12/18/9 22/31/27 14/21/10
usemtl fish_color4SG
f 16/23/31 21/30/30 13/20/7
f 15/22/34 22/31/33 38/62/37 1/1/38
usemtl fish_color3SG
f 22/32/39 14/33/40 24/34/41 23/35/42
usemtl fish_color4SG
f 31/46/43 25/39/44 26/38/45 32/47/46
f 29/44/47 27/43/48 28/42/49 30/45/50
f 18/40/51 29/44/47 30/45/50 11/41/52
f 9/36/53 31/46/43 32/47/46 19/37/54
usemtl phong19SG
f 3/48/55 35/53/56 33/51/57
f 36/56/58 7/49/59 34/50/60
usemtl fish_color4SG
f 1/58/61 38/61/62 39/63/63 37/59/64
f 39/63/63 38/61/62 22/64/65
usemtl fish_color3SG
f 8/14/14 7/13/15 36/57/66 35/54/67 3/3/68
f 7/13/15 9/15/2 4/4/1
f 4/4/6 11/17/5 7/12/13
f 3/5/69 35/52/70 36/55/71 7/12/13 12/19/12
usemtl fish_color4SG
f 20/28/28 22/31/27 12/18/9
usemtl fish_color3SG
f 14/21/10 22/31/33 8/14/32
usemtl fish_color4SG
f 10/16/3 9/15/2 19/27/18
f 16/23/19 19/27/18 6/10/17
f 17/24/23 18/26/22 5/7/4
f 6/11/21 17/24/23 2/8/72
f 1/1/73 6/10/17 15/22/16
f 20/29/24 18/26/22 6/11/21
f 16/23/31 13/20/7 10/16/3
f 13/20/7 21/30/30 17/25/20
f 12/19/12 11/17/5 18/26/22
f 15/22/16 19/27/18 8/14/14
