# This file uses centimeters as units for non-parametric coordinates.

mtllib tulip.mtl
v 0.013172 -0.195600 -0.040540
v -0.034486 -0.195600 -0.025055
v -0.034486 -0.195600 0.025055
v 0.013172 -0.195600 0.040540
v 0.042627 -0.195600 0.000000
v 0.013172 1.509464 -0.040540
v -0.034486 1.509464 -0.025055
v -0.034486 1.509464 0.025055
v 0.013172 1.509464 0.040540
v 0.042627 1.509464 0.000000
v 0.000000 -0.195600 0.000000
v 0.000000 1.509464 0.000000
v -0.001267 1.150426 -0.031917
v -0.050802 1.148903 -0.024503
v -0.059022 1.130924 0.021543
v -0.014567 1.121335 0.042587
v 0.021128 1.133388 0.009547
v 0.017663 0.396378 -0.050791
v -0.030993 0.402889 -0.040727
v -0.036726 0.402280 0.009051
v 0.008386 0.395393 0.029751
v 0.042001 0.391745 -0.007233
v -0.309592 1.217152 0.262073
v -0.352845 0.963452 0.309595
v -0.301175 0.321239 0.210071
v -0.021395 0.008692 0.021715
v -0.266503 1.403693 0.153630
v -0.343038 0.929000 0.133158
v -0.286060 0.326022 0.067774
v -0.226580 1.404552 -0.015519
v -0.303114 0.929859 -0.035992
v -0.270946 0.330805 -0.074523
v -0.215271 1.226726 -0.147236
v -0.233075 0.966027 -0.197855
v -0.255831 0.335589 -0.216820
v -0.261419 1.218838 0.264470
v -0.304895 0.970928 0.312564
v -0.295171 0.936838 0.138595
v -0.218400 1.405219 0.158670
v -0.260157 0.349878 0.213124
v -0.245200 0.355054 0.068991
v 0.011976 0.044278 0.026456
v -0.255854 0.937393 -0.026668
v -0.179240 1.406167 -0.005666
v -0.230946 0.359565 -0.065208
v -0.186577 0.973491 -0.185715
v -0.168526 1.228594 -0.135226
v -0.215289 0.364077 -0.209289
v 0.252764 1.230825 -0.306734
v 0.108385 1.019813 -0.284331
v 0.161993 0.468913 -0.243601
v 0.052976 0.101447 0.002090
v 0.361629 1.359505 -0.264575
v 0.212968 0.982418 -0.198240
v 0.221761 0.447324 -0.151753
v 0.446729 1.345761 -0.159027
v 0.294661 0.965828 -0.090435
v 0.281529 0.425734 -0.059905
v 0.462445 1.202270 -0.054645
v 0.353464 0.970043 0.039085
v 0.341297 0.404144 0.031943
v 0.240172 1.234351 -0.292452
v 0.095047 1.014017 -0.271731
v 0.199058 0.976792 -0.186142
v 0.348415 1.363106 -0.250835
v 0.149417 0.474076 -0.233349
v 0.209608 0.452516 -0.141079
v 0.042544 0.109690 0.010815
v 0.280020 0.960286 -0.079334
v 0.432577 1.349577 -0.146482
v 0.268016 0.431418 -0.051321
v 0.338368 0.964661 0.049393
v 0.447957 1.206231 -0.042717
v 0.327969 0.409579 0.041039
v 0.222346 1.248934 -0.291212
v 0.069824 1.023680 -0.273979
v 0.187151 0.979889 -0.173690
v 0.336067 1.383483 -0.248187
v 0.124906 0.478173 -0.234759
v 0.197284 0.457726 -0.129358
v 0.008268 0.080618 0.031587
v 0.265469 0.964425 -0.070614
v 0.431075 1.368147 -0.131553
v 0.253369 0.437170 -0.042870
v 0.336584 0.975338 0.071554
v 0.446064 1.216613 -0.020460
v 0.322011 0.412252 0.065830
v 0.252112 1.232342 -0.332520
v 0.376951 1.372633 -0.283499
v 0.225527 0.978421 -0.209700
v 0.110814 1.026283 -0.310347
v 0.234086 0.442073 -0.163442
v 0.164111 0.455126 -0.266115
v 0.042493 0.056609 0.003927
v 0.471505 1.353850 -0.163732
v 0.309246 0.961521 -0.099053
v 0.296158 0.419942 -0.068348
v 0.487052 1.201538 -0.051728
v 0.375480 0.962252 0.044491
v 0.363094 0.393174 0.037143
v 0.114332 1.589120 -0.182802
v -0.096750 1.589120 -0.182802
v -0.202290 1.589120 -0.000000
v -0.096750 1.589120 0.182802
v 0.114332 1.589120 0.182802
v 0.219872 1.589120 0.000000
v 0.008791 2.097216 0.000000
v -0.092710 1.875612 0.175214
v 0.109312 1.877204 0.174524
v 0.209388 1.878676 -0.000088
v 0.108041 1.882286 -0.172498
v -0.086390 1.900894 -0.164441
v -0.182783 1.897887 -0.000088
v 0.002361 1.461296 0.011137
v 0.122339 1.695283 -0.196894
v -0.102800 1.703991 -0.193124
v -0.214984 1.702584 -0.000033
v -0.105758 1.692160 0.198181
v 0.122934 1.692905 0.197858
v 0.236842 1.693594 -0.000033
vt 0.548284 0.007647
vt 0.373591 0.064409
vt 0.373591 0.248091
vt 0.548284 0.304853
vt 0.656250 0.156250
vt 0.375000 0.312500
vt 0.425000 0.312500
vt 0.475000 0.312500
vt 0.525000 0.312500
vt 0.575000 0.312500
vt 0.625000 0.312500
vt 0.375000 0.688440
vt 0.425000 0.688440
vt 0.475000 0.688440
vt 0.525000 0.688440
vt 0.575000 0.688440
vt 0.625000 0.688440
vt 0.548284 0.695147
vt 0.373591 0.751909
vt 0.373591 0.935591
vt 0.548284 0.992353
vt 0.656250 0.843750
vt 0.500000 0.150000
vt 0.500000 0.837500
vt 0.625000 0.611150
vt 0.375000 0.611150
vt 0.425000 0.611150
vt 0.475000 0.611150
vt 0.525000 0.611150
vt 0.575000 0.611150
vt 0.625000 0.443195
vt 0.375000 0.443195
vt 0.425000 0.443195
vt 0.475000 0.443195
vt 0.525000 0.443195
vt 0.575000 0.443195
vt 0.000000 0.000000
vt 0.333333 0.000000
vt 0.333333 0.333333
vt 0.000000 0.333333
vt 0.666667 0.000000
vt 0.666667 0.333333
vt 1.000000 0.500000
vt 0.333333 0.666667
vt 0.000000 0.666667
vt 0.666667 0.666667
vt 0.333333 1.000000
vt 0.000000 1.000000
vt 0.666667 1.000000
vt 0.000000 0.000000
vt 0.000000 0.333333
vt 0.333333 0.333333
vt 0.333333 0.000000
vt 0.666667 0.333333
vt 0.666667 0.000000
vt 1.000000 0.500000
vt 0.000000 0.666667
vt 0.333333 0.666667
vt 0.666667 0.666667
vt 0.000000 1.000000
vt 0.333333 1.000000
vt 0.666667 1.000000
vt 0.000000 0.000000
vt 0.333333 0.000000
vt 0.000000 0.333333
vt 0.666667 0.000000
vt 1.000000 0.500000
vt 0.000000 0.666667
vt 0.333333 1.000000
vt 0.000000 1.000000
vt 0.666667 1.000000
vt 0.000000 0.000000
vt 0.333333 0.000000
vt 0.333333 0.333333
vt 0.000000 0.333333
vt 0.666667 0.000000
vt 0.666667 0.333333
vt 1.000000 0.500000
vt 0.333333 0.666667
vt 0.000000 0.666667
vt 0.666667 0.666667
vt 0.333333 1.000000
vt 0.000000 1.000000
vt 0.666667 1.000000
vt 0.000000 0.000000
vt 0.000000 0.333333
vt 0.333333 0.333333
vt 0.333333 0.000000
vt 0.666667 0.333333
vt 0.666667 0.000000
vt 1.000000 0.500000
vt 0.000000 0.666667
vt 0.333333 0.666667
vt 0.666667 0.666667
vt 0.000000 1.000000
vt 0.333333 1.000000
vt 0.666667 1.000000
vt 0.000000 0.000000
vt 0.333333 0.000000
vt 0.000000 0.333333
vt 0.666667 0.000000
vt 1.000000 0.500000
vt 0.000000 0.666667
vt 0.333333 1.000000
vt 0.000000 1.000000
vt 0.666667 1.000000
vt 0.000000 0.000000
vt 0.000000 0.333333
vt 0.333333 0.333333
vt 0.333333 0.000000
vt 0.666667 0.333333
vt 0.666667 0.000000
vt 1.000000 0.500000
vt 0.000000 0.666667
vt 0.333333 0.666667
vt 0.666667 0.666667
vt 0.000000 1.000000
vt 0.333333 1.000000
vt 0.666667 1.000000
vt 0.000000 0.000000
vt 0.333333 0.000000
vt 0.333333 0.333333
vt 0.000000 0.333333
vt 0.666667 0.000000
vt 0.666667 0.333333
vt 1.000000 0.500000
vt 0.333333 0.666667
vt 0.000000 0.666667
vt 0.666667 0.666667
vt 0.333333 1.000000
vt 0.000000 1.000000
vt 0.666667 1.000000
vt 0.000000 0.000000
vt 0.333333 0.000000
vt 0.000000 0.333333
vt 0.666667 0.000000
vt 1.000000 0.500000
vt 0.000000 0.666667
vt 0.333333 1.000000
vt 0.000000 1.000000
vt 0.666667 1.000000
vt 0.625000 0.033494
vt 0.493371 0.261483
vt 0.375000 0.033494
vt 0.307170 0.614341
vt 0.377455 0.632363
vt 0.500000 1.000000
vt 0.438242 0.629452
vt 0.500000 0.607876
vt 0.565097 0.609417
vt 0.629719 0.610843
vt 0.692830 0.614341
vt 0.500000 0.551111
vt 0.574693 0.551842
vt 0.649161 0.552517
vt 0.722913 0.554174
vt 0.277087 0.554174
vt 0.354238 0.562713
vt 0.426889 0.561334
vt 0.750000 0.250000
vt 0.625000 0.466506
vt 0.375000 0.466506
vt 0.250000 0.250000
vt 0.250000 0.500000
vt 0.333333 0.500000
vt 0.416667 0.500000
vt 0.500000 0.500000
vt 0.583333 0.500000
vt 0.666667 0.500000
vt 0.750000 0.500000
vn -0.192799 0.011455 -0.981171
vn -0.191630 0.011904 -0.981395
vn -0.229287 -0.002611 -0.973355
vn -0.229287 -0.002611 -0.973355
vn -0.993152 0.010236 -0.116380
vn -0.991316 -0.006127 -0.131362
vn -0.995665 0.055334 -0.074769
vn -0.995665 0.055334 -0.074769
vn -0.402868 -0.008101 0.915222
vn -0.408819 -0.013299 0.912519
vn -0.366448 0.023209 0.930149
vn -0.366448 0.023209 0.930149
vn 0.721726 -0.005219 0.692160
vn 0.727766 -0.011809 0.685724
vn 0.751262 -0.038408 0.658885
vn 0.751262 -0.038408 0.658885
vn 0.870871 0.013326 -0.491331
vn 0.863392 -0.003895 -0.504519
vn 0.838830 -0.054396 -0.541669
vn 0.838830 -0.054396 -0.541669
vn 0.000000 -1.000000 0.000000
vn 0.000000 -1.000000 0.000000
vn 0.000000 -1.000000 0.000000
vn 0.000000 -1.000000 0.000000
vn 0.000000 -1.000000 -0.000000
vn 0.000000 -1.000000 -0.000000
vn 0.000000 1.000000 0.000001
vn 0.000000 1.000000 0.000001
vn 0.000000 1.000000 0.000001
vn 0.000000 1.000000 0.000004
vn 0.000000 1.000000 0.000001
vn 0.000000 1.000000 -0.000003
vn -0.215147 0.000078 -0.976582
vn -0.207814 0.003406 -0.978162
vn -0.994079 -0.014144 -0.107733
vn -0.994170 -0.013923 -0.106919
vn -0.400936 -0.009692 0.916055
vn -0.394604 -0.004984 0.918838
vn 0.738853 0.009634 0.673798
vn 0.742447 0.009971 0.669831
vn 0.862488 0.013032 -0.505909
vn 0.864694 0.015736 -0.502053
vn -0.257570 -0.019309 -0.966067
vn -0.257570 -0.019309 -0.966067
vn -0.998357 -0.000472 -0.057308
vn -0.998356 -0.000472 -0.057308
vn -0.362109 0.018863 0.931945
vn -0.362109 0.018863 0.931945
vn 0.775958 0.013210 0.630647
vn 0.775958 0.013210 0.630647
vn 0.842096 -0.010754 -0.539221
vn 0.842096 -0.010754 -0.539221
vn 0.982119 -0.161061 0.097478
vn 0.996317 -0.024360 0.082212
vn 0.989442 -0.027693 0.142257
vn 0.964625 -0.166146 0.204681
vn 0.983170 0.165091 0.078239
vn 0.972283 0.198081 0.124217
vn 0.773164 0.625761 0.103155
vn 0.968629 -0.056157 0.242082
vn 0.954186 -0.164575 0.249889
vn 0.964996 0.164316 0.204411
vn 0.952798 -0.072315 0.294869
vn 0.929987 -0.154558 0.333521
vn 0.963827 0.098448 0.247681
vn -0.982561 0.157944 -0.098119
vn -0.965440 0.163556 -0.202918
vn -0.989692 0.019888 -0.141824
vn -0.996460 0.017527 -0.082219
vn -0.970925 -0.204909 -0.123766
vn -0.982157 -0.171245 -0.077738
vn -0.771173 -0.628233 -0.103031
vn -0.955103 0.161979 -0.248074
vn -0.969514 0.047116 -0.240464
vn -0.963716 -0.172864 -0.203397
vn -0.931334 0.151489 -0.331161
vn -0.953457 0.063785 -0.294705
vn -0.962667 -0.106022 -0.249061
vn -0.078425 0.328147 0.941366
vn -0.020655 -0.071401 0.997234
vn -0.028109 -0.034088 0.999024
vn -0.079688 0.367956 0.926422
vn -0.083127 0.510781 0.855682
vn -0.083127 0.510781 0.855682
vn 0.111873 -0.265201 0.957681
vn 0.079086 -0.234579 0.968875
vn 0.214905 -0.359125 0.908210
vn 0.214905 -0.359125 0.908210
vn -0.032530 0.999468 -0.002299
vn -0.032530 0.999468 -0.002299
vn -0.032530 0.999468 -0.002299
vn -0.032530 0.999468 -0.002299
vn 0.216199 0.062151 -0.974369
vn 0.207452 0.355182 -0.911487
vn 0.201270 0.393947 -0.896825
vn 0.218943 0.081251 -0.972349
vn 0.161763 0.591010 -0.790278
vn 0.161763 0.591010 -0.790278
vn 0.338531 -0.178494 -0.923871
vn 0.297506 -0.110848 -0.948263
vn 0.420152 -0.322193 -0.848330
vn 0.420152 -0.322193 -0.848330
vn -0.591011 0.386576 0.708001
vn -0.689085 0.166713 0.705243
vn -0.733758 0.174075 0.656732
vn -0.681894 0.377821 0.626316
vn -0.733308 0.115678 0.669984
vn -0.760590 0.178594 0.624185
vn -0.637708 0.550832 0.538435
vn -0.809168 0.193461 0.554816
vn -0.714562 0.391182 0.579982
vn -0.819733 0.179314 0.543953
vn -0.843501 0.190259 0.502302
vn -0.749047 0.437454 0.497556
vn -0.840683 0.167526 0.514964
vn 0.591667 -0.400399 -0.699722
vn 0.680283 -0.388696 -0.621394
vn 0.737789 -0.177176 -0.651365
vn 0.691456 -0.179194 -0.699842
vn 0.766454 -0.176266 -0.617639
vn 0.740777 -0.124215 -0.660167
vn 0.641537 -0.550726 -0.533977
vn 0.710293 -0.400587 -0.578803
vn 0.809261 -0.198426 -0.552924
vn 0.821564 -0.179723 -0.541048
vn 0.739137 -0.448465 -0.502549
vn 0.849490 -0.182171 -0.495157
vn 0.844726 -0.168900 -0.507850
vn -0.570159 0.490284 -0.659196
vn -0.675227 0.073257 -0.733963
vn -0.671305 -0.005573 -0.741160
vn -0.573331 0.486280 -0.659411
vn -0.458793 0.613492 -0.642757
vn -0.458793 0.613492 -0.642757
vn -0.681012 -0.186119 -0.708225
vn -0.676900 -0.173233 -0.715400
vn -0.697836 -0.244713 -0.673157
vn -0.697836 -0.244713 -0.673157
vn 0.249000 0.966634 -0.060154
vn 0.249000 0.966634 -0.060154
vn 0.249000 0.966634 -0.060154
vn 0.249000 0.966634 -0.060154
vn 0.576794 -0.002282 0.816886
vn 0.637718 0.264747 0.723342
vn 0.632390 0.217564 0.743471
vn 0.576657 -0.002537 0.816982
vn 0.637904 0.496409 0.588775
vn 0.637904 0.496409 0.588775
vn 0.482810 -0.226776 0.845853
vn 0.490575 -0.210266 0.845650
vn 0.368213 -0.432638 0.822948
vn 0.368213 -0.432638 0.822948
vn 0.591010 -0.386576 -0.708001
vn 0.685121 -0.378660 -0.622275
vn 0.737087 -0.172966 -0.653288
vn 0.688773 -0.166867 -0.705512
vn 0.765292 -0.168603 -0.621209
vn 0.733427 -0.102653 -0.671973
vn 0.635080 -0.549872 -0.542507
vn 0.714671 -0.390819 -0.580091
vn 0.811196 -0.190597 -0.552841
vn 0.823864 -0.167665 -0.541421
vn 0.748644 -0.436958 -0.498599
vn 0.850340 -0.182735 -0.493488
vn 0.849749 -0.152431 -0.504670
vn -0.591667 0.400399 0.699722
vn -0.690580 0.170774 0.702805
vn -0.737565 0.176333 0.651847
vn -0.682199 0.388395 0.619479
vn -0.732496 0.104852 0.672648
vn -0.764995 0.170328 0.621105
vn -0.634429 0.550813 0.542315
vn -0.810019 0.193173 0.553672
vn -0.709675 0.400228 0.579810
vn -0.823294 0.169665 0.541664
vn -0.848883 0.184399 0.495374
vn -0.739158 0.448458 0.502525
vn -0.849613 0.153503 0.504574
vn 0.591734 -0.511330 0.623212
vn 0.613092 -0.484648 0.623886
vn 0.671908 0.035058 0.739804
vn 0.689570 -0.114403 0.715126
vn 0.494746 -0.616553 0.612446
vn 0.494746 -0.616553 0.612446
vn 0.675150 0.172903 0.717131
vn 0.676243 0.176052 0.715333
vn 0.697836 0.244713 0.673157
vn 0.697836 0.244713 0.673157
vn -0.217432 -0.974861 0.048668
vn -0.217432 -0.974861 0.048668
vn -0.217432 -0.974861 0.048668
vn -0.217432 -0.974861 0.048668
vn -0.580283 -0.004609 -0.814402
vn -0.569251 0.013639 -0.822051
vn -0.633082 -0.215867 -0.743376
vn -0.640339 -0.286924 -0.712489
vn -0.637903 -0.496411 -0.588775
vn -0.637903 -0.496411 -0.588775
vn -0.494350 0.199492 -0.846062
vn -0.496963 0.193688 -0.845880
vn -0.368213 0.432638 -0.822948
vn -0.368213 0.432638 -0.822948
vn 0.247862 -0.868481 -0.429308
vn -0.007228 -0.999896 0.012519
vn -0.243579 -0.862343 -0.443886
vn -0.005341 0.290234 -0.956941
vn -0.002434 0.321730 -0.946828
vn 0.028607 0.633667 -0.773077
vn -0.823788 0.307401 -0.476317
vn -0.825175 0.302255 -0.477209
vn -0.666986 0.641203 -0.379457
vn -0.820191 0.325274 0.470620
vn -0.832743 0.287566 0.473123
vn -0.655468 0.629783 0.416816
vn 0.000330 0.306070 0.952009
vn 0.000309 0.308806 0.951125
vn -0.002218 0.620840 0.783934
vn 0.824579 0.306206 0.475718
vn 0.823870 0.308705 0.475330
vn 0.677360 0.621589 0.393460
vn 0.824620 0.304091 -0.477002
vn 0.822973 0.310174 -0.475929
vn 0.679431 0.623802 -0.386321
vn 0.001417 0.026690 0.999643
vn 0.001418 0.026931 0.999636
vn 0.866305 0.029278 0.498656
vn 0.866297 0.029617 0.498651
vn 0.863995 0.031756 -0.502497
vn 0.863963 0.032810 -0.502485
vn -0.015943 0.042148 -0.998984
vn -0.016103 0.047023 -0.998764
vn -0.863532 0.052914 -0.501509
vn -0.863568 0.052190 -0.501525
vn -0.874874 0.041514 0.482568
vn -0.874962 0.035710 0.482872
vn 0.506206 -0.862342 -0.010997
vn 0.274925 -0.848384 0.452394
vn -0.270972 -0.840415 0.469337
vn -0.529247 -0.848384 -0.011895
vn -0.010781 -0.109687 -0.993908
vn -0.010781 -0.109687 -0.993908
vn -0.861393 -0.093355 -0.499287
vn -0.861393 -0.093355 -0.499287
vn -0.866134 -0.121189 0.484898
vn -0.866134 -0.121189 0.484898
vn 0.000972 -0.145585 0.989345
vn 0.000972 -0.145585 0.989345
vn 0.857822 -0.140981 0.494232
vn 0.857822 -0.140981 0.494232
vn 0.857013 -0.134971 -0.497304
vn 0.857013 -0.134971 -0.497304
usemtl plain_foliageSG
f 13/26/1 14/27/2 7/13/3 6/12/4
f 14/27/5 15/28/6 8/14/7 7/13/8
f 15/28/9 16/29/10 9/15/11 8/14/12
f 16/29/13 17/30/14 10/16/15 9/15/16
f 17/30/17 13/25/18 6/17/19 10/16/20
f 2/2/21 1/1/22 11/23/23
f 3/3/24 2/2/21 11/23/23
f 4/4/25 3/3/24 11/23/23
f 5/5/26 4/4/25 11/23/23
f 1/1/22 5/5/26 11/23/23
f 6/21/27 7/20/28 12/24/29
f 7/20/28 8/19/30 12/24/29
f 8/19/30 9/18/31 12/24/29
f 9/18/31 10/22/32 12/24/29
f 10/22/32 6/21/27 12/24/29
f 18/32/33 19/33/34 14/27/2 13/26/1
f 19/33/35 20/34/36 15/28/6 14/27/5
f 20/34/37 21/35/38 16/29/10 15/28/9
f 21/35/39 22/36/40 17/30/14 16/29/13
f 22/36/41 18/31/42 13/25/18 17/30/17
f 1/6/43 2/7/44 19/33/34 18/32/33
f 2/7/45 3/8/46 20/34/36 19/33/35
f 3/8/47 4/9/48 21/35/38 20/34/37
f 4/9/49 5/10/50 22/36/40 21/35/39
f 5/10/51 1/11/52 18/31/42 22/36/41
f 36/37/53 37/38/54 38/39/55 39/40/56
f 37/38/54 40/41/57 41/42/58 38/39/55
f 40/41/57 42/43/59 41/42/58
f 39/40/56 38/39/55 43/44/60 44/45/61
f 38/39/55 41/42/58 45/46/62 43/44/60
f 41/42/58 42/43/59 45/46/62
f 44/45/61 43/44/60 46/47/63 47/48/64
f 43/44/60 45/46/62 48/49/65 46/47/63
f 45/46/62 42/43/59 48/49/65
f 23/50/66 27/51/67 28/52/68 24/53/69
f 24/53/69 28/52/68 29/54/70 25/55/71
f 25/55/71 29/54/70 26/56/72
f 27/51/67 30/57/73 31/58/74 28/52/68
f 28/52/68 31/58/74 32/59/75 29/54/70
f 29/54/70 32/59/75 26/56/72
f 30/57/73 33/60/76 34/61/77 31/58/74
f 31/58/74 34/61/77 35/62/78 32/59/75
f 32/59/75 35/62/78 26/56/72
f 23/63/79 24/64/80 37/38/81 36/37/82
f 27/65/83 23/63/79 36/37/82 39/40/84
f 24/64/80 25/66/85 40/41/86 37/38/81
f 25/66/85 26/67/87 42/43/88 40/41/86
f 30/68/89 27/65/90 39/40/91 44/45/92
f 34/69/93 33/70/94 47/48/95 46/47/96
f 33/70/94 30/68/97 44/45/98 47/48/95
f 35/71/99 34/69/93 46/47/96 48/49/100
f 26/67/101 35/71/99 48/49/100 42/43/102
f 75/72/103 76/73/104 77/74/105 78/75/106
f 76/73/104 79/76/107 80/77/108 77/74/105
f 79/76/107 81/78/109 80/77/108
f 78/75/106 77/74/105 82/79/110 83/80/111
f 77/74/105 80/77/108 84/81/112 82/79/110
f 80/77/108 81/78/109 84/81/112
f 83/80/111 82/79/110 85/82/113 86/83/114
f 82/79/110 84/81/112 87/84/115 85/82/113
f 84/81/112 81/78/109 87/84/115
f 88/85/116 89/86/117 90/87/118 91/88/119
f 91/88/119 90/87/118 92/89/120 93/90/121
f 93/90/121 92/89/120 94/91/122
f 89/86/117 95/92/123 96/93/124 90/87/118
f 90/87/118 96/93/124 97/94/125 92/89/120
f 92/89/120 97/94/125 94/91/122
f 95/92/123 98/95/126 99/96/127 96/93/124
f 96/93/124 99/96/127 100/97/128 97/94/125
f 97/94/125 100/97/128 94/91/122
f 88/98/129 91/99/130 76/73/131 75/72/132
f 89/100/133 88/98/129 75/72/132 78/75/134
f 91/99/130 93/101/135 79/76/136 76/73/131
f 93/101/135 94/102/137 81/78/138 79/76/136
f 95/103/139 89/100/140 78/75/141 83/80/142
f 99/104/143 98/105/144 86/83/145 85/82/146
f 98/105/144 95/103/147 83/80/148 86/83/145
f 100/106/149 99/104/143 85/82/146 87/84/150
f 94/102/151 100/106/149 87/84/150 81/78/152
f 62/107/153 65/108/154 64/109/155 63/110/156
f 63/110/156 64/109/155 67/111/157 66/112/158
f 66/112/158 67/111/157 68/113/159
f 65/108/154 70/114/160 69/115/161 64/109/155
f 64/109/155 69/115/161 71/116/162 67/111/157
f 67/111/157 71/116/162 68/113/159
f 70/114/160 73/117/163 72/118/164 69/115/161
f 69/115/161 72/118/164 74/119/165 71/116/162
f 71/116/162 74/119/165 68/113/159
f 49/120/166 50/121/167 54/122/168 53/123/169
f 50/121/167 51/124/170 55/125/171 54/122/168
f 51/124/170 52/126/172 55/125/171
f 53/123/169 54/122/168 57/127/173 56/128/174
f 54/122/168 55/125/171 58/129/175 57/127/173
f 55/125/171 52/126/172 58/129/175
f 56/128/174 57/127/173 60/130/176 59/131/177
f 57/127/173 58/129/175 61/132/178 60/130/176
f 58/129/175 52/126/172 61/132/178
f 49/133/179 62/107/180 63/110/181 50/134/182
f 53/135/183 65/108/184 62/107/180 49/133/179
f 50/134/182 63/110/181 66/112/185 51/136/186
f 51/136/186 66/112/185 68/113/187 52/137/188
f 56/138/189 70/114/190 65/108/191 53/135/192
f 60/139/193 72/118/194 73/117/195 59/140/196
f 59/140/196 73/117/195 70/114/197 56/138/198
f 61/141/199 74/119/200 72/118/194 60/139/193
f 52/137/201 68/113/202 74/119/200 61/141/199
usemtl phong6SG
f 101/142/203 114/143/204 102/144/205
f 111/145/206 112/146/207 107/147/208
f 112/146/209 113/148/210 107/147/211
f 113/148/212 108/149/213 107/147/214
f 108/149/215 109/150/216 107/147/217
f 109/150/218 110/151/219 107/147/220
f 110/151/221 111/152/222 107/147/223
f 118/153/224 119/154/225 109/150/216 108/149/215
f 119/154/226 120/155/227 110/151/219 109/150/218
f 120/155/228 115/156/229 111/152/222 110/151/221
f 115/157/230 116/158/231 112/146/207 111/145/206
f 116/158/232 117/159/233 113/148/210 112/146/209
f 117/159/234 118/153/235 108/149/213 113/148/212
f 114/143/204 106/160/236 105/161/237
f 101/142/203 106/160/236 114/143/204
f 114/143/204 105/161/237 104/162/238
f 103/163/239 114/143/204 104/162/238
f 102/144/205 114/143/204 103/163/239
f 101/164/240 102/165/241 116/158/231 115/157/230
f 102/165/242 103/166/243 117/159/233 116/158/232
f 103/166/244 104/167/245 118/153/235 117/159/234
f 104/167/246 105/168/247 119/154/225 118/153/224
f 105/168/248 106/169/249 120/155/227 119/154/226
f 106/169/250 101/170/251 115/156/229 120/155/228
