# This file uses centimeters as units for non-parametric coordinates.

mtllib tulip.mtl
g default
v 0.013172 -0.526604 -0.040540
v -0.034486 -0.526604 -0.025055
v -0.034486 -0.526604 0.025055
v 0.013172 -0.526604 0.040540
v 0.042627 -0.526604 0.000000
v 0.013172 1.178460 -0.040540
v -0.034486 1.178460 -0.025055
v -0.034486 1.178460 0.025055
v 0.013172 1.178460 0.040540
v 0.042627 1.178460 0.000000
v 0.000000 -0.526604 0.000000
v 0.000000 1.178460 0.000000
v -0.001267 0.819422 -0.031917
v -0.050802 0.817899 -0.024503
v -0.059022 0.799920 0.021543
v -0.014567 0.790331 0.042587
v 0.021128 0.802384 0.009547
v 0.017663 0.065374 -0.050791
v -0.030993 0.071885 -0.040727
v -0.036726 0.071276 0.009051
v 0.008386 0.064389 0.029751
v 0.042001 0.060741 -0.007233
vt 0.548284 0.007647
vt 0.373591 0.064409
vt 0.373591 0.248091
vt 0.548284 0.304853
vt 0.656250 0.156250
vt 0.375000 0.312500
vt 0.425000 0.312500
vt 0.475000 0.312500
vt 0.525000 0.312500
vt 0.575000 0.312500
vt 0.625000 0.312500
vt 0.375000 0.688440
vt 0.425000 0.688440
vt 0.475000 0.688440
vt 0.525000 0.688440
vt 0.575000 0.688440
vt 0.625000 0.688440
vt 0.548284 0.695147
vt 0.373591 0.751909
vt 0.373591 0.935591
vt 0.548284 0.992353
vt 0.656250 0.843750
vt 0.500000 0.150000
vt 0.500000 0.837500
vt 0.625000 0.611150
vt 0.375000 0.611150
vt 0.425000 0.611150
vt 0.475000 0.611150
vt 0.525000 0.611150
vt 0.575000 0.611150
vt 0.625000 0.443195
vt 0.375000 0.443195
vt 0.425000 0.443195
vt 0.475000 0.443195
vt 0.525000 0.443195
vt 0.575000 0.443195
vn -0.192799 0.011455 -0.981171
vn -0.191630 0.011904 -0.981395
vn -0.229287 -0.002611 -0.973355
vn -0.229287 -0.002611 -0.973355
vn -0.993152 0.010236 -0.116380
vn -0.991316 -0.006127 -0.131362
vn -0.995664 0.055334 -0.074769
vn -0.995664 0.055334 -0.074769
vn -0.402868 -0.008101 0.915222
vn -0.408819 -0.013299 0.912519
vn -0.366448 0.023209 0.930149
vn -0.366448 0.023209 0.930149
vn 0.721726 -0.005219 0.692160
vn 0.727766 -0.011809 0.685724
vn 0.751263 -0.038408 0.658885
vn 0.751263 -0.038408 0.658885
vn 0.870871 0.013326 -0.491330
vn 0.863392 -0.003895 -0.504519
vn 0.838830 -0.054396 -0.541669
vn 0.838830 -0.054396 -0.541669
vn 0.000000 -1.000000 0.000000
vn 0.000000 -1.000000 -0.000000
vn 0.000000 -1.000000 -0.000000
vn 0.000000 -1.000000 -0.000000
vn 0.000000 -1.000000 -0.000000
vn 0.000000 -1.000000 -0.000000
vn 0.000000 1.000000 0.000000
vn 0.000000 1.000000 0.000000
vn 0.000000 1.000000 0.000000
vn 0.000000 1.000000 0.000000
vn 0.000000 1.000000 0.000000
vn 0.000000 1.000000 0.000000
vn -0.215147 0.000078 -0.976582
vn -0.207814 0.003406 -0.978162
vn -0.994079 -0.014144 -0.107733
vn -0.994170 -0.013923 -0.106919
vn -0.400936 -0.009692 0.916055
vn -0.394604 -0.004984 0.918838
vn 0.738853 0.009634 0.673798
vn 0.742447 0.009971 0.669831
vn 0.862488 0.013032 -0.505909
vn 0.864694 0.015736 -0.502053
vn -0.257571 -0.019309 -0.966067
vn -0.257571 -0.019309 -0.966067
vn -0.998356 -0.000472 -0.057308
vn -0.998356 -0.000472 -0.057308
vn -0.362109 0.018863 0.931945
vn -0.362109 0.018863 0.931945
vn 0.775958 0.013210 0.630647
vn 0.775958 0.013210 0.630647
vn 0.842096 -0.010754 -0.539221
vn 0.842096 -0.010754 -0.539221
g pasted__pCylinder1 tulip
usemtl plain_foliageSG
f 13/26/1 14/27/2 7/13/3 6/12/4
f 14/27/5 15/28/6 8/14/7 7/13/8
f 15/28/9 16/29/10 9/15/11 8/14/12
f 16/29/13 17/30/14 10/16/15 9/15/16
f 17/30/17 13/25/18 6/17/19 10/16/20
f 2/2/21 1/1/22 11/23/23
f 3/3/24 2/2/21 11/23/23
f 4/4/25 3/3/24 11/23/23
f 5/5/26 4/4/25 11/23/23
f 1/1/22 5/5/26 11/23/23
f 6/21/27 7/20/28 12/24/29
f 7/20/28 8/19/30 12/24/29
f 8/19/30 9/18/31 12/24/29
f 9/18/31 10/22/32 12/24/29
f 10/22/32 6/21/27 12/24/29
f 18/32/33 19/33/34 14/27/2 13/26/1
f 19/33/35 20/34/36 15/28/6 14/27/5
f 20/34/37 21/35/38 16/29/10 15/28/9
f 21/35/39 22/36/40 17/30/14 16/29/13
f 22/36/41 18/31/42 13/25/18 17/30/17
f 1/6/43 2/7/44 19/33/34 18/32/33
f 2/7/45 3/8/46 20/34/36 19/33/35
f 3/8/47 4/9/48 21/35/38 20/34/37
f 4/9/49 5/10/50 22/36/40 21/35/39
f 5/10/51 1/11/52 18/31/42 22/36/41
g default
v -0.309592 0.886148 0.262073
v -0.352845 0.632448 0.309595
v -0.301175 -0.009765 0.210071
v -0.021395 -0.322312 0.021715
v -0.266503 1.072689 0.153630
v -0.343038 0.597996 0.133158
v -0.286060 -0.004982 0.067774
v -0.226580 1.073548 -0.015519
v -0.303114 0.598855 -0.035992
v -0.270946 -0.000199 -0.074523
v -0.215271 0.895722 -0.147236
v -0.233075 0.635023 -0.197855
v -0.255831 0.004585 -0.216820
v -0.261419 0.887834 0.264470
v -0.304895 0.639924 0.312564
v -0.295171 0.605834 0.138595
v -0.218400 1.074215 0.158670
v -0.260157 0.018874 0.213124
v -0.245200 0.024050 0.068991
v 0.011976 -0.286726 0.026456
v -0.255854 0.606389 -0.026668
v -0.179240 1.075163 -0.005666
v -0.230946 0.028561 -0.065208
v -0.186577 0.642488 -0.185715
v -0.168526 0.897590 -0.135226
v -0.215289 0.033073 -0.209289
vt 0.000000 0.000000
vt 0.333333 0.000000
vt 0.666667 0.000000
vt 1.000000 0.500000
vt 0.000000 0.333333
vt 0.333333 0.333333
vt 0.666667 0.333333
vt 0.000000 0.666667
vt 0.333333 0.666667
vt 0.666667 0.666667
vt 0.000000 1.000000
vt 0.333333 1.000000
vt 0.666667 1.000000
vt 0.000000 0.000000
vt 0.333333 0.000000
vt 0.333333 0.333333
vt 0.000000 0.333333
vt 0.666667 0.000000
vt 0.666667 0.333333
vt 1.000000 0.500000
vt 0.333333 0.666667
vt 0.000000 0.666667
vt 0.666667 0.666667
vt 0.333333 1.000000
vt 0.000000 1.000000
vt 0.666667 1.000000
vt 0.000000 0.000000
vt 0.333333 0.000000
vt 0.000000 0.333333
vt 0.666667 0.000000
vt 1.000000 0.500000
vt 0.000000 0.666667
vt 0.333333 1.000000
vt 0.000000 1.000000
vt 0.666667 1.000000
vn 0.982119 -0.161061 0.097478
vn 0.996377 -0.022554 0.082000
vn 0.989430 -0.028196 0.142244
vn 0.964930 -0.166092 0.203284
vn 0.983771 0.161595 0.077988
vn 0.972246 0.198108 0.124460
vn 0.773164 0.625761 0.103154
vn 0.968591 -0.056473 0.242162
vn 0.953891 -0.164440 0.251103
vn 0.964979 0.164320 0.204486
vn 0.953022 -0.071317 0.294386
vn 0.929987 -0.154558 0.333522
vn 0.964021 0.094708 0.248384
vn -0.982561 0.157944 -0.098119
vn -0.965738 0.163493 -0.201545
vn -0.989680 0.020406 -0.141834
vn -0.996509 0.015692 -0.082001
vn -0.970904 -0.204878 -0.123980
vn -0.982750 -0.167919 -0.077494
vn -0.771173 -0.628233 -0.103031
vn -0.954812 0.161836 -0.249285
vn -0.969481 0.047442 -0.240532
vn -0.963708 -0.172806 -0.203483
vn -0.931334 0.151489 -0.331161
vn -0.953660 0.062767 -0.294267
vn -0.962875 -0.102441 -0.249754
vn -0.078421 0.328057 0.941397
vn -0.020660 -0.071377 0.997235
vn -0.028097 -0.034145 0.999022
vn -0.079691 0.368065 0.926379
vn -0.083127 0.510781 0.855682
vn -0.083127 0.510781 0.855682
vn 0.111658 -0.265002 0.957761
vn 0.079225 -0.234709 0.968832
vn 0.214905 -0.359125 0.908210
vn 0.214905 -0.359125 0.908210
vn -0.032531 0.999468 -0.002300
vn -0.032531 0.999468 -0.002300
vn -0.032531 0.999468 -0.002300
vn -0.032531 0.999468 -0.002300
vn 0.216190 0.062090 -0.974375
vn 0.207620 0.354076 -0.911880
vn 0.201098 0.394977 -0.896411
vn 0.218950 0.081304 -0.972343
vn 0.161761 0.591011 -0.790278
vn 0.161761 0.591011 -0.790278
vn 0.338436 -0.178335 -0.923936
vn 0.297587 -0.110978 -0.948223
vn 0.420151 -0.322193 -0.848330
vn 0.420152 -0.322193 -0.848330
g tulip pPlane7
usemtl plain_foliageSG
f 36/63/53 37/64/54 38/42/55 39/65/56
f 37/64/54 40/66/57 41/43/58 38/42/55
f 40/66/57 42/67/59 41/43/58
f 39/65/56 38/42/55 43/45/60 44/68/61
f 38/42/55 41/43/58 45/46/62 43/45/60
f 41/43/58 42/67/59 45/46/62
f 44/68/61 43/45/60 46/69/63 47/70/64
f 43/45/60 45/46/62 48/71/65 46/69/63
f 45/46/62 42/67/59 48/71/65
f 23/50/66 27/53/67 28/52/68 24/51/69
f 24/51/69 28/52/68 29/55/70 25/54/71
f 25/54/71 29/55/70 26/56/72
f 27/53/67 30/58/73 31/57/74 28/52/68
f 28/52/68 31/57/74 32/59/75 29/55/70
f 29/55/70 32/59/75 26/56/72
f 30/58/73 33/61/76 34/60/77 31/57/74
f 31/57/74 34/60/77 35/62/78 32/59/75
f 32/59/75 35/62/78 26/56/72
f 23/37/79 24/38/80 37/64/81 36/63/82
f 27/41/83 23/37/79 36/63/82 39/65/84
f 24/38/80 25/39/85 40/66/86 37/64/81
f 25/39/85 26/40/87 42/67/88 40/66/86
f 30/44/89 27/41/90 39/65/91 44/68/92
f 34/48/93 33/47/94 47/70/95 46/69/96
f 33/47/94 30/44/97 44/68/98 47/70/95
f 35/49/99 34/48/93 46/69/96 48/71/100
f 26/40/101 35/49/99 48/71/100 42/67/102
g default
v 0.252764 0.899821 -0.306734
v 0.108385 0.688810 -0.284331
v 0.161993 0.137910 -0.243601
v 0.052976 -0.229557 0.002090
v 0.361629 1.028501 -0.264575
v 0.212968 0.651415 -0.198240
v 0.221761 0.116320 -0.151753
v 0.446729 1.014758 -0.159027
v 0.294661 0.634824 -0.090435
v 0.281529 0.094730 -0.059905
v 0.462445 0.871266 -0.054645
v 0.353464 0.639039 0.039085
v 0.341297 0.073140 0.031943
v 0.240172 0.903347 -0.292452
v 0.095047 0.683014 -0.271731
v 0.199058 0.645788 -0.186142
v 0.348415 1.032102 -0.250835
v 0.149417 0.143073 -0.233349
v 0.209608 0.121512 -0.141079
v 0.042544 -0.221314 0.010815
v 0.280020 0.629282 -0.079334
v 0.432577 1.018573 -0.146482
v 0.268016 0.100414 -0.051321
v 0.338368 0.633657 0.049393
v 0.447957 0.875227 -0.042717
v 0.327969 0.078575 0.041039
v 0.222346 0.917930 -0.291212
v 0.069824 0.692676 -0.273979
v 0.187151 0.648885 -0.173690
v 0.336067 1.052479 -0.248187
v 0.124906 0.147170 -0.234759
v 0.197284 0.126722 -0.129358
v 0.008268 -0.250386 0.031587
v 0.265469 0.633421 -0.070614
v 0.431075 1.037143 -0.131553
v 0.253369 0.106167 -0.042870
v 0.336584 0.644334 0.071554
v 0.446064 0.885610 -0.020460
v 0.322011 0.081248 0.065830
v 0.252112 0.901338 -0.332520
v 0.376951 1.041630 -0.283499
v 0.225527 0.647417 -0.209700
v 0.110814 0.695279 -0.310347
v 0.234086 0.111070 -0.163442
v 0.164111 0.124123 -0.266115
v 0.042493 -0.274395 0.003927
v 0.471505 1.022846 -0.163732
v 0.309246 0.630517 -0.099053
v 0.296158 0.088938 -0.068348
v 0.487052 0.870535 -0.051728
v 0.375480 0.631248 0.044491
v 0.363094 0.062171 0.037143
vt 0.000000 0.000000
vt 0.333333 0.000000
vt 0.666667 0.000000
vt 1.000000 0.500000
vt 0.000000 0.333333
vt 0.333333 0.333333
vt 0.666667 0.333333
vt 0.000000 0.666667
vt 0.333333 0.666667
vt 0.666667 0.666667
vt 0.000000 1.000000
vt 0.333333 1.000000
vt 0.666667 1.000000
vt 0.000000 0.000000
vt 0.333333 0.000000
vt 0.333333 0.333333
vt 0.000000 0.333333
vt 0.666667 0.000000
vt 0.666667 0.333333
vt 1.000000 0.500000
vt 0.333333 0.666667
vt 0.000000 0.666667
vt 0.666667 0.666667
vt 0.333333 1.000000
vt 0.000000 1.000000
vt 0.666667 1.000000
vt 0.000000 0.000000
vt 0.333333 0.000000
vt 0.000000 0.333333
vt 0.666667 0.000000
vt 1.000000 0.500000
vt 0.000000 0.666667
vt 0.333333 1.000000
vt 0.000000 1.000000
vt 0.666667 1.000000
vt 0.000000 0.000000
vt 0.333333 0.000000
vt 0.333333 0.333333
vt 0.000000 0.333333
vt 0.666667 0.000000
vt 0.666667 0.333333
vt 1.000000 0.500000
vt 0.333333 0.666667
vt 0.000000 0.666667
vt 0.666667 0.666667
vt 0.333333 1.000000
vt 0.000000 1.000000
vt 0.666667 1.000000
vt 0.000000 0.000000
vt 0.000000 0.333333
vt 0.333333 0.333333
vt 0.333333 0.000000
vt 0.666667 0.333333
vt 0.666667 0.000000
vt 1.000000 0.500000
vt 0.000000 0.666667
vt 0.333333 0.666667
vt 0.666667 0.666667
vt 0.000000 1.000000
vt 0.333333 1.000000
vt 0.666667 1.000000
vt 0.000000 0.000000
vt 0.333333 0.000000
vt 0.000000 0.333333
vt 0.666667 0.000000
vt 1.000000 0.500000
vt 0.000000 0.666667
vt 0.333333 1.000000
vt 0.000000 1.000000
vt 0.666667 1.000000
vn -0.591010 0.386576 0.708001
vn -0.685937 0.175673 0.706137
vn -0.734067 0.172607 0.656774
vn -0.676981 0.378473 0.631233
vn -0.733845 0.101944 0.671624
vn -0.761181 0.180709 0.622854
vn -0.637774 0.550855 0.538334
vn -0.809096 0.192941 0.555101
vn -0.715427 0.392279 0.578170
vn -0.820322 0.179072 0.543144
vn -0.845410 0.182685 0.501904
vn -0.749047 0.437454 0.497556
vn -0.842413 0.161686 0.514001
vn 0.591667 -0.400399 -0.699722
vn 0.675470 -0.389515 -0.626114
vn 0.737912 -0.176199 -0.651491
vn 0.688349 -0.187960 -0.700605
vn 0.767273 -0.178213 -0.616062
vn 0.740944 -0.109765 -0.662535
vn 0.641178 -0.550732 -0.534402
vn 0.710986 -0.401664 -0.577205
vn 0.809425 -0.196824 -0.553256
vn 0.822140 -0.179802 -0.540145
vn 0.739137 -0.448465 -0.502550
vn 0.851103 -0.176222 -0.494540
vn 0.846704 -0.162760 -0.506559
vn -0.584211 0.472301 -0.660022
vn -0.674393 0.047081 -0.736870
vn -0.673340 0.025227 -0.738902
vn -0.560226 0.502621 -0.658422
vn -0.458793 0.613492 -0.642757
vn -0.458793 0.613492 -0.642757
vn -0.683775 -0.195050 -0.703141
vn -0.675002 -0.167433 -0.718567
vn -0.697836 -0.244713 -0.673157
vn -0.697836 -0.244713 -0.673157
vn 0.248999 0.966634 -0.060156
vn 0.248999 0.966634 -0.060156
vn 0.248999 0.966634 -0.060156
vn 0.248999 0.966634 -0.060156
vn 0.575074 -0.005463 0.818083
vn 0.634546 0.234995 0.736294
vn 0.635518 0.243488 0.732687
vn 0.579302 0.002382 0.815110
vn 0.637904 0.496410 0.588775
vn 0.637904 0.496410 0.588775
vn 0.465816 -0.261529 0.845351
vn 0.501061 -0.187279 0.844905
vn 0.368213 -0.432638 0.822948
vn 0.368213 -0.432638 0.822948
vn 0.591010 -0.386576 -0.708001
vn 0.680606 -0.379211 -0.626877
vn 0.737208 -0.171651 -0.653499
vn 0.685256 -0.176888 -0.706494
vn 0.766084 -0.169058 -0.620109
vn 0.733767 -0.091077 -0.673269
vn 0.635083 -0.549873 -0.542503
vn 0.715371 -0.391716 -0.578622
vn 0.811393 -0.189017 -0.553095
vn 0.824562 -0.167474 -0.540417
vn 0.748644 -0.436958 -0.498598
vn 0.851904 -0.176822 -0.492944
vn 0.851353 -0.147178 -0.503524
vn -0.591667 0.400399 0.699721
vn -0.687168 0.181012 0.703587
vn -0.737581 0.175011 0.652185
vn -0.677807 0.389149 0.623812
vn -0.732831 0.093540 0.673950
vn -0.765814 0.170648 0.620007
vn -0.634429 0.550813 0.542315
vn -0.810203 0.191531 0.553974
vn -0.710266 0.401134 0.578457
vn -0.824011 0.169453 0.540640
vn -0.850571 0.178217 0.494740
vn -0.739158 0.448458 0.502525
vn -0.851174 0.148416 0.503463
vn 0.606765 -0.492706 0.623760
vn 0.600102 -0.501050 0.623560
vn 0.675669 0.011966 0.737108
vn 0.687791 -0.090246 0.720277
vn 0.494744 -0.616551 0.612448
vn 0.494744 -0.616551 0.612448
vn 0.673025 0.166850 0.720554
vn 0.679425 0.185367 0.709944
vn 0.697836 0.244713 0.673157
vn 0.697836 0.244713 0.673157
vn -0.217435 -0.974861 0.048670
vn -0.217435 -0.974861 0.048670
vn -0.217435 -0.974861 0.048670
vn -0.217435 -0.974861 0.048670
vn -0.578522 -0.001664 -0.815665
vn -0.570842 0.011036 -0.820985
vn -0.636087 -0.241153 -0.732965
vn -0.637741 -0.257062 -0.726089
vn -0.637902 -0.496410 -0.588776
vn -0.637902 -0.496410 -0.588776
vn -0.477968 0.234739 -0.846430
vn -0.506878 0.171170 -0.844852
vn -0.368213 0.432638 -0.822948
vn -0.368213 0.432638 -0.822948
g tulip pPlane8
usemtl plain_foliageSG
f 75/98/103 76/99/104 77/77/105 78/100/106
f 76/99/104 79/101/107 80/78/108 77/77/105
f 79/101/107 81/102/109 80/78/108
f 78/100/106 77/77/105 82/80/110 83/103/111
f 77/77/105 80/78/108 84/81/112 82/80/110
f 80/78/108 81/102/109 84/81/112
f 83/103/111 82/80/110 85/104/113 86/105/114
f 82/80/110 84/81/112 87/106/115 85/104/113
f 84/81/112 81/102/109 87/106/115
f 88/85/116 89/88/117 90/87/118 91/86/119
f 91/86/119 90/87/118 92/90/120 93/89/121
f 93/89/121 92/90/120 94/91/122
f 89/88/117 95/93/123 96/92/124 90/87/118
f 90/87/118 96/92/124 97/94/125 92/90/120
f 92/90/120 97/94/125 94/91/122
f 95/93/123 98/96/126 99/95/127 96/92/124
f 96/92/124 99/95/127 100/97/128 97/94/125
f 97/94/125 100/97/128 94/91/122
f 88/72/129 91/73/130 76/99/131 75/98/132
f 89/76/133 88/72/129 75/98/132 78/100/134
f 91/73/130 93/74/135 79/101/136 76/99/131
f 93/74/135 94/75/137 81/102/138 79/101/136
f 95/79/139 89/76/140 78/100/141 83/103/142
f 99/83/143 98/82/144 86/105/145 85/104/146
f 98/82/144 95/79/147 83/103/148 86/105/145
f 100/84/149 99/83/143 85/104/146 87/106/150
f 94/75/151 100/84/149 87/106/150 81/102/152
f 62/107/153 65/110/154 64/109/155 63/108/156
f 63/108/156 64/109/155 67/112/157 66/111/158
f 66/111/158 67/112/157 68/113/159
f 65/110/154 70/115/160 69/114/161 64/109/155
f 64/109/155 69/114/161 71/116/162 67/112/157
f 67/112/157 71/116/162 68/113/159
f 70/115/160 73/118/163 72/117/164 69/114/161
f 69/114/161 72/117/164 74/119/165 71/116/162
f 71/116/162 74/119/165 68/113/159
f 49/120/166 50/123/167 54/122/168 53/121/169
f 50/123/167 51/125/170 55/124/171 54/122/168
f 51/125/170 52/126/172 55/124/171
f 53/121/169 54/122/168 57/128/173 56/127/174
f 54/122/168 55/124/171 58/129/175 57/128/173
f 55/124/171 52/126/172 58/129/175
f 56/127/174 57/128/173 60/131/176 59/130/177
f 57/128/173 58/129/175 61/132/178 60/131/176
f 58/129/175 52/126/172 61/132/178
f 49/133/179 62/107/180 63/108/181 50/134/182
f 53/135/183 65/110/184 62/107/180 49/133/179
f 50/134/182 63/108/181 66/111/185 51/136/186
f 51/136/186 66/111/185 68/113/187 52/137/188
f 56/138/189 70/115/190 65/110/191 53/135/192
f 60/139/193 72/117/194 73/118/195 59/140/196
f 59/140/196 73/118/195 70/115/197 56/138/198
f 61/141/199 74/119/200 72/117/194 60/139/193
f 52/137/201 68/113/202 74/119/200 61/141/199
g default
v 0.114332 1.258116 -0.182802
v -0.096750 1.258116 -0.182802
v -0.202290 1.258116 -0.000000
v -0.096750 1.258116 0.182802
v 0.114332 1.258116 0.182802
v 0.219872 1.258116 0.000000
v 0.008791 1.766212 0.000000
v -0.092710 1.544608 0.175214
v 0.109312 1.546200 0.174524
v 0.209388 1.547672 -0.000088
v 0.108041 1.551283 -0.172498
v -0.086390 1.569890 -0.164441
v -0.182783 1.566884 -0.000088
v 0.002361 1.130292 0.011137
v 0.122339 1.364280 -0.196894
v -0.102800 1.372988 -0.193124
v -0.214984 1.371581 -0.000033
v -0.105758 1.361156 0.198181
v 0.122934 1.361901 0.197858
v 0.236842 1.362590 -0.000033
vt 0.625000 0.033494
vt 0.375000 0.033494
vt 0.250000 0.250000
vt 0.375000 0.466506
vt 0.625000 0.466506
vt 0.750000 0.250000
vt 0.250000 0.500000
vt 0.333333 0.500000
vt 0.416667 0.500000
vt 0.500000 0.500000
vt 0.583333 0.500000
vt 0.666667 0.500000
vt 0.750000 0.500000
vt 0.500000 1.000000
vt 0.500000 0.607876
vt 0.565097 0.609417
vt 0.629719 0.610843
vt 0.692830 0.614341
vt 0.307170 0.614341
vt 0.377455 0.632363
vt 0.438242 0.629452
vt 0.493371 0.261483
vt 0.722913 0.554174
vt 0.277087 0.554174
vt 0.354238 0.562713
vt 0.426889 0.561334
vt 0.500000 0.551111
vt 0.574693 0.551842
vt 0.649161 0.552517
vn 0.247861 -0.868481 -0.429308
vn -0.007228 -0.999895 0.012519
vn -0.243579 -0.862342 -0.443886
vn -0.005341 0.290234 -0.956941
vn -0.002434 0.321730 -0.946828
vn 0.028607 0.633667 -0.773077
vn -0.823788 0.307401 -0.476317
vn -0.825175 0.302255 -0.477208
vn -0.666987 0.641203 -0.379456
vn -0.820191 0.325274 0.470620
vn -0.832743 0.287566 0.473123
vn -0.655468 0.629783 0.416816
vn 0.000330 0.306070 0.952009
vn 0.000309 0.308806 0.951125
vn -0.002217 0.620840 0.783934
vn 0.824579 0.306206 0.475718
vn 0.823870 0.308706 0.475330
vn 0.677360 0.621589 0.393459
vn 0.824620 0.304091 -0.477001
vn 0.822973 0.310174 -0.475928
vn 0.679431 0.623802 -0.386321
vn 0.001417 0.026690 0.999643
vn 0.001418 0.026931 0.999636
vn 0.866305 0.029278 0.498657
vn 0.866297 0.029617 0.498651
vn 0.863995 0.031756 -0.502497
vn 0.863963 0.032810 -0.502485
vn -0.015943 0.042148 -0.998984
vn -0.016103 0.047023 -0.998764
vn -0.863532 0.052914 -0.501509
vn -0.863568 0.052190 -0.501525
vn -0.874874 0.041514 0.482567
vn -0.874963 0.035710 0.482872
vn 0.506206 -0.862342 -0.010997
vn 0.274925 -0.848384 0.452394
vn -0.270972 -0.840415 0.469337
vn -0.529247 -0.848384 -0.011895
vn -0.010781 -0.109687 -0.993908
vn -0.010781 -0.109687 -0.993908
vn -0.861393 -0.093354 -0.499287
vn -0.861393 -0.093354 -0.499287
vn -0.866133 -0.121189 0.484898
vn -0.866133 -0.121189 0.484898
vn 0.000972 -0.145585 0.989345
vn 0.000972 -0.145585 0.989345
vn 0.857822 -0.140981 0.494232
vn 0.857822 -0.140981 0.494232
vn 0.857013 -0.134971 -0.497304
vn 0.857013 -0.134971 -0.497304
g tulip pCone1
usemtl phong6SG
f 101/142/203 114/163/204 102/143/205
f 111/160/206 112/161/207 107/155/208
f 112/161/209 113/162/210 107/155/211
f 113/162/212 108/156/213 107/155/214
f 108/156/215 109/157/216 107/155/217
f 109/157/218 110/158/219 107/155/220
f 110/158/221 111/159/222 107/155/223
f 118/168/224 119/169/225 109/157/216 108/156/215
f 119/169/226 120/170/227 110/158/219 109/157/218
f 120/170/228 115/164/229 111/159/222 110/158/221
f 115/165/230 116/166/231 112/161/207 111/160/206
f 116/166/232 117/167/233 113/162/210 112/161/209
f 117/167/234 118/168/235 108/156/213 113/162/212
f 114/163/204 106/147/236 105/146/237
f 101/142/203 106/147/236 114/163/204
f 114/163/204 105/146/237 104/145/238
f 103/144/239 114/163/204 104/145/238
f 102/143/205 114/163/204 103/144/239
f 101/148/240 102/149/241 116/166/231 115/165/230
f 102/149/242 103/150/243 117/167/233 116/166/232
f 103/150/244 104/151/245 118/168/235 117/167/234
f 104/151/246 105/152/247 119/169/225 118/168/224
f 105/152/248 106/153/249 120/170/227 119/169/226
f 106/153/250 101/154/251 115/164/229 120/170/228
