# This file uses centimeters as units for non-parametric coordinates.

mtllib tulip.mtl
g default
v 0.067054 0.872646 -0.107211
v -0.056743 0.872646 -0.107211
v -0.118641 0.872646 -0.000000
v -0.056743 0.872646 0.107211
v 0.067054 0.872646 0.107211
v 0.128953 0.872646 -0.000000
v 0.005156 1.170638 0.000000
v -0.054373 1.040670 0.102761
v 0.064110 1.041603 0.102356
v 0.122804 1.042467 -0.000051
v 0.063365 1.044584 -0.101168
v -0.050667 1.055497 -0.096443
v -0.107200 1.053734 -0.000051
v 0.001385 0.797678 0.006531
v 0.071750 0.934909 -0.115476
v -0.060291 0.940016 -0.113265
v -0.126086 0.939191 -0.000019
v -0.062026 0.933077 0.116231
v 0.072099 0.933514 0.116042
v 0.138905 0.933918 -0.000019
vt 0.625000 0.033494
vt 0.375000 0.033494
vt 0.250000 0.250000
vt 0.375000 0.466506
vt 0.625000 0.466506
vt 0.750000 0.250000
vt 0.250000 0.500000
vt 0.333333 0.500000
vt 0.416667 0.500000
vt 0.500000 0.500000
vt 0.583333 0.500000
vt 0.666667 0.500000
vt 0.750000 0.500000
vt 0.500000 1.000000
vt 0.500000 0.607876
vt 0.565097 0.609417
vt 0.629719 0.610843
vt 0.692830 0.614341
vt 0.307170 0.614341
vt 0.377455 0.632363
vt 0.438242 0.629452
vt 0.493371 0.261483
vt 0.722913 0.554174
vt 0.277087 0.554174
vt 0.354238 0.562713
vt 0.426889 0.561334
vt 0.500000 0.551111
vt 0.574693 0.551842
vt 0.649161 0.552517
vn 0.247861 -0.868481 -0.429308
vn -0.007228 -0.999895 0.012519
vn -0.243579 -0.862342 -0.443886
vn -0.005341 0.290234 -0.956941
vn -0.002434 0.321730 -0.946828
vn 0.028607 0.633667 -0.773077
vn -0.823788 0.307401 -0.476317
vn -0.825175 0.302255 -0.477208
vn -0.666987 0.641203 -0.379456
vn -0.820191 0.325274 0.470620
vn -0.832743 0.287566 0.473123
vn -0.655468 0.629783 0.416816
vn 0.000330 0.306070 0.952009
vn 0.000309 0.308806 0.951125
vn -0.002217 0.620840 0.783934
vn 0.824579 0.306206 0.475718
vn 0.823870 0.308706 0.475330
vn 0.677360 0.621589 0.393459
vn 0.824620 0.304091 -0.477001
vn 0.822973 0.310174 -0.475928
vn 0.679431 0.623802 -0.386321
vn 0.001417 0.026690 0.999643
vn 0.001418 0.026931 0.999636
vn 0.866305 0.029278 0.498657
vn 0.866297 0.029617 0.498651
vn 0.863995 0.031756 -0.502497
vn 0.863963 0.032810 -0.502485
vn -0.015943 0.042148 -0.998984
vn -0.016103 0.047023 -0.998764
vn -0.863533 0.052914 -0.501509
vn -0.863568 0.052190 -0.501525
vn -0.874874 0.041514 0.482567
vn -0.874963 0.035710 0.482872
vn 0.506206 -0.862342 -0.010997
vn 0.274925 -0.848384 0.452394
vn -0.270972 -0.840415 0.469337
vn -0.529247 -0.848384 -0.011895
vn -0.010781 -0.109687 -0.993908
vn -0.010781 -0.109687 -0.993908
vn -0.861393 -0.093354 -0.499287
vn -0.861393 -0.093354 -0.499287
vn -0.866133 -0.121189 0.484898
vn -0.866133 -0.121189 0.484898
vn 0.000972 -0.145585 0.989345
vn 0.000972 -0.145585 0.989345
vn 0.857822 -0.140981 0.494232
vn 0.857822 -0.140981 0.494232
vn 0.857013 -0.134971 -0.497304
vn 0.857013 -0.134971 -0.497304
g pCone1 tulip
usemtl phong6SG
f 1/1/1 14/22/2 2/2/3
f 11/19/4 12/20/5 7/14/6
f 12/20/7 13/21/8 7/14/9
f 13/21/10 8/15/11 7/14/12
f 8/15/13 9/16/14 7/14/15
f 9/16/16 10/17/17 7/14/18
f 10/17/19 11/18/20 7/14/21
f 18/27/22 19/28/23 9/16/14 8/15/13
f 19/28/24 20/29/25 10/17/17 9/16/16
f 20/29/26 15/23/27 11/18/20 10/17/19
f 15/24/28 16/25/29 12/20/5 11/19/4
f 16/25/30 17/26/31 13/21/8 12/20/7
f 17/26/32 18/27/33 8/15/11 13/21/10
f 14/22/2 6/6/34 5/5/35
f 1/1/1 6/6/34 14/22/2
f 14/22/2 5/5/35 4/4/36
f 3/3/37 14/22/2 4/4/36
f 2/2/3 14/22/2 3/3/37
f 1/7/38 2/8/39 16/25/29 15/24/28
f 2/8/40 3/9/41 17/26/31 16/25/30
f 3/9/42 4/10/43 18/27/33 17/26/32
f 4/10/44 5/11/45 19/28/23 18/27/22
f 5/11/46 6/12/47 20/29/25 19/28/24
f 6/12/48 1/13/49 15/23/27 20/29/26
g default
v 0.007725 -0.174072 -0.023776
v -0.020225 -0.174072 -0.014695
v -0.020225 -0.174072 0.014695
v 0.007725 -0.174072 0.023776
v 0.025000 -0.174072 0.000000
v 0.007725 0.825928 -0.023776
v -0.020225 0.825928 -0.014695
v -0.020225 0.825928 0.014695
v 0.007725 0.825928 0.023776
v 0.025000 0.825928 0.000000
v 0.000000 -0.174072 0.000000
v 0.000000 0.825928 0.000000
v -0.000743 0.615356 -0.018719
v -0.029795 0.614463 -0.014371
v -0.034616 0.603919 0.012635
v -0.008543 0.598295 0.024977
v 0.012391 0.605364 0.005599
v 0.010359 0.173116 -0.029788
v -0.018177 0.176935 -0.023886
v -0.021540 0.176578 0.005308
v 0.004918 0.172538 0.017449
v 0.024633 0.170399 -0.004242
v -0.181572 0.654491 0.153703
v -0.206940 0.505699 0.181574
v -0.176636 0.129048 0.123204
v -0.012548 -0.054257 0.012736
v -0.156301 0.763895 0.090102
v -0.201188 0.485493 0.078095
v -0.167771 0.131853 0.039749
v -0.132886 0.764398 -0.009102
v -0.177773 0.485996 -0.021109
v -0.158906 0.134659 -0.043707
v -0.126254 0.660106 -0.086353
v -0.136696 0.507209 -0.116039
v -0.150042 0.137464 -0.127162
v -0.153319 0.655479 0.155109
v -0.178818 0.510083 0.183315
v -0.173115 0.490090 0.081284
v -0.128089 0.764790 0.093058
v -0.152579 0.145844 0.124995
v -0.143807 0.148880 0.040462
v 0.007024 -0.033387 0.015516
v -0.150056 0.490415 -0.015640
v -0.105122 0.765346 -0.003323
v -0.135447 0.151526 -0.038243
v -0.109425 0.511587 -0.108920
v -0.098839 0.661201 -0.079309
v -0.126264 0.154172 -0.122745
v 0.148243 0.662510 -0.179896
v 0.063566 0.538754 -0.166757
v 0.095007 0.215657 -0.142869
v 0.031070 0.000143 0.001226
v 0.212091 0.737979 -0.155170
v 0.124903 0.516822 -0.116265
v 0.130060 0.202995 -0.089001
v 0.262001 0.729919 -0.093268
v 0.172815 0.507092 -0.053039
v 0.165114 0.190333 -0.035133
v 0.271219 0.645763 -0.032049
v 0.207302 0.509564 0.022923
v 0.200167 0.177671 0.018734
v 0.140858 0.664577 -0.171520
v 0.055744 0.535355 -0.159367
v 0.116745 0.513522 -0.109170
v 0.204342 0.740091 -0.147112
v 0.087631 0.218685 -0.136857
v 0.122933 0.206040 -0.082741
v 0.024952 0.004977 0.006343
v 0.164228 0.503842 -0.046529
v 0.253701 0.732156 -0.085910
v 0.157188 0.193667 -0.030099
v 0.198449 0.506408 0.028968
v 0.262722 0.648086 -0.025053
v 0.192350 0.180858 0.024069
v 0.130403 0.673130 -0.170792
v 0.040951 0.541022 -0.160686
v 0.109762 0.515339 -0.101867
v 0.197099 0.752042 -0.145559
v 0.073256 0.221088 -0.137683
v 0.115705 0.209096 -0.075867
v 0.004849 -0.012073 0.018525
v 0.155694 0.506269 -0.041414
v 0.252821 0.743048 -0.077154
v 0.148598 0.197041 -0.025143
v 0.197402 0.512669 0.041966
v 0.261612 0.654175 -0.012000
v 0.188856 0.182426 0.038608
v 0.147861 0.663399 -0.195019
v 0.221077 0.745679 -0.166269
v 0.132269 0.514478 -0.122987
v 0.064991 0.542548 -0.182015
v 0.137289 0.199916 -0.095857
v 0.096249 0.207571 -0.156073
v 0.024922 -0.026154 0.002303
v 0.276532 0.734663 -0.096027
v 0.181369 0.504566 -0.058094
v 0.173693 0.186936 -0.040086
v 0.285650 0.645334 -0.030338
v 0.220215 0.504995 0.026094
v 0.212950 0.171237 0.021784
vt 0.548284 0.007647
vt 0.373591 0.064409
vt 0.373591 0.248091
vt 0.548284 0.304853
vt 0.656250 0.156250
vt 0.375000 0.312500
vt 0.425000 0.312500
vt 0.475000 0.312500
vt 0.525000 0.312500
vt 0.575000 0.312500
vt 0.625000 0.312500
vt 0.375000 0.688440
vt 0.425000 0.688440
vt 0.475000 0.688440
vt 0.525000 0.688440
vt 0.575000 0.688440
vt 0.625000 0.688440
vt 0.548284 0.695147
vt 0.373591 0.751909
vt 0.373591 0.935591
vt 0.548284 0.992353
vt 0.656250 0.843750
vt 0.500000 0.150000
vt 0.500000 0.837500
vt 0.625000 0.611150
vt 0.375000 0.611150
vt 0.425000 0.611150
vt 0.475000 0.611150
vt 0.525000 0.611150
vt 0.575000 0.611150
vt 0.625000 0.443195
vt 0.375000 0.443195
vt 0.425000 0.443195
vt 0.475000 0.443195
vt 0.525000 0.443195
vt 0.575000 0.443195
vt 0.000000 0.000000
vt 0.333333 0.000000
vt 0.333333 0.333333
vt 0.000000 0.333333
vt 0.666667 0.000000
vt 0.666667 0.333333
vt 1.000000 0.500000
vt 0.333333 0.666667
vt 0.000000 0.666667
vt 0.666667 0.666667
vt 0.333333 1.000000
vt 0.000000 1.000000
vt 0.666667 1.000000
vt 0.000000 0.000000
vt 0.000000 0.333333
vt 0.333333 0.333333
vt 0.333333 0.000000
vt 0.666667 0.333333
vt 0.666667 0.000000
vt 1.000000 0.500000
vt 0.000000 0.666667
vt 0.333333 0.666667
vt 0.666667 0.666667
vt 0.000000 1.000000
vt 0.333333 1.000000
vt 0.666667 1.000000
vt 0.000000 0.000000
vt 0.333333 0.000000
vt 0.000000 0.333333
vt 0.666667 0.000000
vt 1.000000 0.500000
vt 0.000000 0.666667
vt 0.333333 1.000000
vt 0.000000 1.000000
vt 0.666667 1.000000
vt 0.000000 0.000000
vt 0.333333 0.000000
vt 0.333333 0.333333
vt 0.000000 0.333333
vt 0.666667 0.000000
vt 0.666667 0.333333
vt 1.000000 0.500000
vt 0.333333 0.666667
vt 0.000000 0.666667
vt 0.666667 0.666667
vt 0.333333 1.000000
vt 0.000000 1.000000
vt 0.666667 1.000000
vt 0.000000 0.000000
vt 0.000000 0.333333
vt 0.333333 0.333333
vt 0.333333 0.000000
vt 0.666667 0.333333
vt 0.666667 0.000000
vt 1.000000 0.500000
vt 0.000000 0.666667
vt 0.333333 0.666667
vt 0.666667 0.666667
vt 0.000000 1.000000
vt 0.333333 1.000000
vt 0.666667 1.000000
vt 0.000000 0.000000
vt 0.333333 0.000000
vt 0.000000 0.333333
vt 0.666667 0.000000
vt 1.000000 0.500000
vt 0.000000 0.666667
vt 0.333333 1.000000
vt 0.000000 1.000000
vt 0.666667 1.000000
vt 0.000000 0.000000
vt 0.000000 0.333333
vt 0.333333 0.333333
vt 0.333333 0.000000
vt 0.666667 0.333333
vt 0.666667 0.000000
vt 1.000000 0.500000
vt 0.000000 0.666667
vt 0.333333 0.666667
vt 0.666667 0.666667
vt 0.000000 1.000000
vt 0.333333 1.000000
vt 0.666667 1.000000
vt 0.000000 0.000000
vt 0.333333 0.000000
vt 0.333333 0.333333
vt 0.000000 0.333333
vt 0.666667 0.000000
vt 0.666667 0.333333
vt 1.000000 0.500000
vt 0.333333 0.666667
vt 0.000000 0.666667
vt 0.666667 0.666667
vt 0.333333 1.000000
vt 0.000000 1.000000
vt 0.666667 1.000000
vt 0.000000 0.000000
vt 0.333333 0.000000
vt 0.000000 0.333333
vt 0.666667 0.000000
vt 1.000000 0.500000
vt 0.000000 0.666667
vt 0.333333 1.000000
vt 0.000000 1.000000
vt 0.666667 1.000000
vn -0.148424 0.013670 -0.988829
vn -0.295459 -0.009078 -0.955312
vn -0.154479 0.013022 -0.987910
vn -0.309000 -0.010414 -0.951005
vn -0.984706 -0.001310 -0.174222
vn -0.998826 0.046875 -0.012185
vn -0.986225 0.016092 -0.164623
vn -0.998978 0.045207 0.000000
vn -0.429156 -0.009373 0.903182
vn -0.319004 0.013282 0.947660
vn -0.425069 -0.003729 0.905153
vn -0.308998 0.011206 0.950997
vn 0.682915 -0.010062 0.730428
vn 0.686288 -0.016846 0.727135
vn 0.800126 -0.032435 0.598954
vn 0.808620 -0.031312 0.587497
vn 0.881324 0.010617 -0.472393
vn 0.876761 -0.007618 -0.480866
vn 0.813415 -0.047907 -0.579708
vn 0.808138 -0.046601 -0.587147
vn 0.000000 -1.000000 0.000000
vn 0.000000 -1.000000 -0.000000
vn 0.000000 -1.000000 -0.000000
vn 0.000000 -1.000000 -0.000000
vn 0.000000 -1.000000 -0.000000
vn 0.000000 -1.000000 -0.000000
vn 0.000000 1.000000 -0.000001
vn 0.000000 1.000000 0.000002
vn 0.000000 1.000000 0.000000
vn 0.000000 1.000000 0.000000
vn 0.000000 1.000000 0.000002
vn 0.000000 1.000000 -0.000002
vn -0.205341 -0.001718 -0.978689
vn -0.201116 0.001851 -0.979566
vn -0.993616 -0.014358 -0.111894
vn -0.993130 -0.014330 -0.116132
vn -0.414930 -0.003372 0.909847
vn -0.418372 -0.008285 0.908238
vn 0.740643 0.014378 0.671745
vn 0.741036 0.014278 0.671313
vn 0.872067 0.011803 -0.489245
vn 0.873790 0.014545 -0.486085
vn -0.308986 -0.014123 -0.950962
vn -0.303497 -0.014683 -0.952719
vn -0.999993 -0.003748 0.000000
vn -0.999976 -0.003405 -0.006000
vn -0.308983 0.014858 0.950952
vn -0.314639 0.015283 0.949088
vn 0.808990 0.008101 0.587766
vn 0.805513 0.008658 0.592515
vn 0.809001 -0.006376 -0.587773
vn 0.812681 -0.006846 -0.582668
vn 0.998182 -0.014201 0.058576
vn 0.988725 -0.020674 0.148310
vn 0.981105 -0.163560 0.103348
vn 0.964472 -0.166863 0.204816
vn 0.963935 0.246722 0.099785
vn 0.946766 0.299328 0.118478
vn 0.773164 0.625761 0.103155
vn 0.954796 -0.167070 0.245872
vn 0.956815 -0.059429 0.284559
vn 0.949955 0.291773 0.111598
vn 0.934432 -0.161986 0.317172
vn 0.920405 -0.085315 0.381544
vn 0.963763 0.214538 0.158535
vn -0.965190 0.164391 -0.203432
vn -0.989029 0.012479 -0.147192
vn -0.981396 0.160828 -0.104868
vn -0.998370 0.006285 -0.056723
vn -0.962374 -0.252307 -0.100883
vn -0.945124 -0.304249 -0.119056
vn -0.771173 -0.628233 -0.103031
vn -0.955790 0.164610 -0.243656
vn -0.957570 0.050019 -0.283828
vn -0.948437 -0.296996 -0.110725
vn -0.935951 0.159264 -0.314055
vn -0.921178 0.074911 -0.381863
vn -0.962612 -0.220542 -0.157289
vn -0.047549 -0.077270 0.995876
vn -0.054207 -0.040641 0.997702
vn -0.060695 0.328910 0.942409
vn -0.062084 0.368739 0.927458
vn -0.099924 0.509647 0.854561
vn -0.105626 0.509229 0.854125
vn 0.122166 -0.273173 0.954176
vn 0.094167 -0.240487 0.966074
vn 0.233310 -0.340145 0.910971
vn 0.230932 -0.342620 0.910649
vn -0.031452 0.999502 -0.002350
vn -0.031807 0.999491 -0.002333
vn -0.033247 0.999445 -0.002266
vn -0.033634 0.999432 -0.002248
vn 0.240911 0.060999 -0.968629
vn 0.218088 0.356620 -0.908438
vn 0.240443 0.079384 -0.967412
vn 0.211486 0.395348 -0.893853
vn 0.149684 0.589439 -0.793824
vn 0.145383 0.588857 -0.795054
vn 0.313923 -0.196811 -0.928826
vn 0.268306 -0.126295 -0.955019
vn 0.440934 -0.300828 -0.845624
vn 0.438303 -0.303570 -0.846012
vn -0.608142 0.154074 0.778733
vn -0.703455 0.160406 0.692402
vn -0.642769 0.375702 0.667605
vn -0.692405 0.369832 0.619516
vn -0.766354 0.209056 0.607451
vn -0.765818 0.285138 0.576385
vn -0.637708 0.550832 0.538435
vn -0.697618 0.373500 0.611413
vn -0.824448 0.192297 0.532266
vn -0.786061 0.270930 0.555613
vn -0.718613 0.401722 0.567640
vn -0.876937 0.207708 0.433404
vn -0.791220 0.251687 0.557337
vn 0.691428 -0.380551 -0.614091
vn 0.709112 -0.162755 -0.686055
vn 0.640930 -0.387583 -0.662562
vn 0.612132 -0.160923 -0.774208
vn 0.774221 -0.218818 -0.593886
vn 0.773422 -0.280083 -0.568658
vn 0.641537 -0.550726 -0.533977
vn 0.694283 -0.383325 -0.609124
vn 0.826039 -0.198688 -0.527430
vn 0.784223 -0.270800 -0.558267
vn 0.707935 -0.411220 -0.574217
vn 0.885146 -0.199733 -0.420266
vn 0.786206 -0.254065 -0.563322
vn -0.593177 0.492799 -0.636624
vn -0.666539 0.066528 -0.742496
vn -0.600659 0.487384 -0.633771
vn -0.663240 -0.011113 -0.748325
vn -0.419840 0.608800 -0.673125
vn -0.432200 0.610437 -0.663754
vn -0.679123 -0.190988 -0.708742
vn -0.676345 -0.177038 -0.714993
vn -0.705099 -0.239963 -0.667274
vn -0.706279 -0.239183 -0.666304
vn 0.281173 0.956960 -0.071905
vn 0.230869 0.971510 -0.053554
vn 0.267244 0.961310 -0.066814
vn 0.216873 0.974996 -0.048465
vn 0.644655 0.255580 0.720485
vn 0.638676 0.209727 0.740343
vn 0.572405 -0.000314 0.819971
vn 0.571097 -0.000134 0.820883
vn 0.641332 0.495956 0.585424
vn 0.640165 0.496112 0.586568
vn 0.484292 -0.227436 0.844828
vn 0.491806 -0.210671 0.844834
vn 0.365497 -0.430875 0.825081
vn 0.365047 -0.430583 0.825433
vn 0.695504 -0.371855 -0.614815
vn 0.702460 -0.161120 -0.693246
vn 0.650020 -0.376274 -0.660221
vn 0.595043 -0.151930 -0.789203
vn 0.780330 -0.190402 -0.595678
vn 0.773855 -0.270989 -0.572463
vn 0.635080 -0.549872 -0.542507
vn 0.696955 -0.374534 -0.611537
vn 0.828499 -0.192512 -0.525860
vn 0.787055 -0.257823 -0.560421
vn 0.710506 -0.398834 -0.579752
vn 0.890346 -0.199123 -0.409430
vn 0.789324 -0.233906 -0.567676
vn -0.594131 0.155356 0.789223
vn -0.702107 0.164357 0.692843
vn -0.653487 0.388442 0.649668
vn -0.693726 0.381012 0.611207
vn -0.780410 0.191894 0.595094
vn -0.773859 0.271594 0.572171
vn -0.634429 0.550813 0.542315
vn -0.691661 0.383162 0.612203
vn -0.827511 0.194875 0.526545
vn -0.786302 0.259220 0.560833
vn -0.700645 0.408661 0.584887
vn -0.889793 0.200482 0.409971
vn -0.788533 0.234942 0.568347
vn 0.586389 -0.495392 0.640886
vn 0.603997 -0.467597 0.645400
vn 0.704450 -0.098492 0.702887
vn 0.675554 0.045333 0.735916
vn 0.482832 -0.613282 0.625107
vn 0.484418 -0.613726 0.623441
vn 0.665781 0.188104 0.722047
vn 0.665853 0.184286 0.722965
vn 0.722428 0.225925 0.653495
vn 0.723599 0.225004 0.652517
vn -0.218512 -0.974559 0.049882
vn -0.216551 -0.975106 0.047680
vn -0.218319 -0.974613 0.049664
vn -0.216371 -0.975156 0.047478
vn -0.566542 0.011025 -0.823959
vn -0.653077 -0.185735 -0.734161
vn -0.561344 -0.014620 -0.827453
vn -0.655767 -0.258379 -0.709373
vn -0.646491 -0.493703 -0.581641
vn -0.647710 -0.493311 -0.580616
vn -0.491320 0.209842 -0.845323
vn -0.493865 0.203480 -0.845395
vn -0.358894 0.425320 -0.830842
vn -0.359363 0.425688 -0.830450
g tulip tulip_pasted__pCylinder1
usemtl plain_foliageSG
f 34/56/50 27/42/51 33/55/52
f 33/55/52 27/42/51 26/41/53
f 35/57/54 28/43/55 34/56/56
f 34/56/56 28/43/55 27/42/57
f 36/58/58 29/44/59 35/57/60
f 35/57/60 29/44/59 28/43/61
f 36/58/62 37/59/63 29/44/64
f 29/44/64 37/59/63 30/45/65
f 37/59/66 33/54/67 30/45/68
f 30/45/68 33/54/67 26/46/69
f 22/31/70 21/30/71 31/52/72
f 23/32/73 22/31/70 31/52/72
f 24/33/74 23/32/73 31/52/72
f 25/34/75 24/33/74 31/52/72
f 21/30/71 25/34/75 31/52/72
f 26/50/76 27/49/77 32/53/78
f 27/49/77 28/48/79 32/53/78
f 28/48/79 29/47/80 32/53/78
f 29/47/80 30/51/81 32/53/78
f 30/51/81 26/50/76 32/53/78
f 38/61/82 39/62/83 33/55/52
f 33/55/52 39/62/83 34/56/50
f 40/63/84 35/57/54 39/62/85
f 39/62/85 35/57/54 34/56/56
f 41/64/86 36/58/58 40/63/87
f 40/63/87 36/58/58 35/57/60
f 41/64/88 42/65/89 36/58/62
f 36/58/62 42/65/89 37/59/63
f 42/65/90 38/60/91 37/59/66
f 37/59/66 38/60/91 33/54/67
f 21/35/92 22/36/93 38/61/82
f 38/61/82 22/36/93 39/62/83
f 23/37/94 40/63/84 22/36/95
f 22/36/95 40/63/84 39/62/85
f 24/38/96 41/64/86 23/37/97
f 23/37/97 41/64/86 40/63/87
f 25/39/98 42/65/89 24/38/99
f 24/38/99 42/65/89 41/64/88
f 25/39/100 21/40/101 42/65/90
f 42/65/90 21/40/101 38/60/91
f 57/67/102 58/68/103 56/66/104
f 56/66/104 58/68/103 59/69/105
f 57/67/102 60/70/106 58/68/103
f 58/68/103 60/70/106 61/71/107
f 60/70/106 62/72/108 61/71/107
f 59/69/105 58/68/103 64/74/109
f 64/74/109 58/68/103 63/73/110
f 58/68/103 61/71/107 63/73/110
f 63/73/110 61/71/107 65/75/111
f 61/71/107 62/72/108 65/75/111
f 64/74/109 63/73/110 67/77/112
f 67/77/112 63/73/110 66/76/113
f 65/75/111 68/78/114 63/73/110
f 63/73/110 68/78/114 66/76/113
f 65/75/111 62/72/108 68/78/114
f 47/80/115 48/81/116 43/79/117
f 43/79/117 48/81/116 44/82/118
f 44/82/118 48/81/116 45/84/119
f 45/84/119 48/81/116 49/83/120
f 45/84/119 49/83/120 46/85/121
f 47/80/115 50/86/122 48/81/116
f 48/81/116 50/86/122 51/87/123
f 48/81/116 51/87/123 49/83/120
f 49/83/120 51/87/123 52/88/124
f 49/83/120 52/88/124 46/85/121
f 50/86/122 53/89/125 51/87/123
f 51/87/123 53/89/125 54/90/126
f 54/90/126 55/91/127 51/87/123
f 51/87/123 55/91/127 52/88/124
f 52/88/124 55/91/127 46/85/121
f 44/93/128 57/67/129 43/92/130
f 43/92/130 57/67/129 56/66/131
f 43/92/130 56/66/131 47/94/132
f 47/94/132 56/66/131 59/69/133
f 45/95/134 60/70/135 44/93/128
f 44/93/128 60/70/135 57/67/129
f 46/96/136 62/72/137 45/95/134
f 45/95/134 62/72/137 60/70/135
f 47/94/138 59/69/139 50/97/140
f 50/97/140 59/69/139 64/74/141
f 54/98/142 53/99/143 66/76/144
f 66/76/144 53/99/143 67/77/145
f 53/99/143 50/97/146 67/77/145
f 67/77/145 50/97/146 64/74/147
f 55/100/148 54/98/142 68/78/149
f 68/78/149 54/98/142 66/76/144
f 46/96/150 55/100/148 62/72/151
f 62/72/151 55/100/148 68/78/149
f 96/102/152 97/103/153 95/101/154
f 95/101/154 97/103/153 98/104/155
f 96/102/152 99/105/156 97/103/153
f 97/103/153 99/105/156 100/106/157
f 99/105/156 101/107/158 100/106/157
f 98/104/155 97/103/153 103/109/159
f 103/109/159 97/103/153 102/108/160
f 97/103/153 100/106/157 102/108/160
f 102/108/160 100/106/157 104/110/161
f 100/106/157 101/107/158 104/110/161
f 103/109/159 102/108/160 106/112/162
f 106/112/162 102/108/160 105/111/163
f 102/108/160 104/110/161 105/111/163
f 105/111/163 104/110/161 107/113/164
f 104/110/161 101/107/158 107/113/164
f 109/115/165 110/116/166 108/114/167
f 108/114/167 110/116/166 111/117/168
f 111/117/168 110/116/166 113/119/169
f 113/119/169 110/116/166 112/118/170
f 113/119/169 112/118/170 114/120/171
f 109/115/165 115/121/172 110/116/166
f 110/116/166 115/121/172 116/122/173
f 110/116/166 116/122/173 112/118/170
f 112/118/170 116/122/173 117/123/174
f 112/118/170 117/123/174 114/120/171
f 115/121/172 118/124/175 116/122/173
f 116/122/173 118/124/175 119/125/176
f 116/122/173 119/125/176 117/123/174
f 117/123/174 119/125/176 120/126/177
f 117/123/174 120/126/177 114/120/171
f 108/127/178 111/128/179 95/101/180
f 95/101/180 111/128/179 96/102/181
f 109/129/182 108/127/178 98/104/183
f 98/104/183 108/127/178 95/101/180
f 113/130/184 99/105/185 111/128/179
f 111/128/179 99/105/185 96/102/181
f 113/130/184 114/131/186 99/105/185
f 99/105/185 114/131/186 101/107/187
f 115/132/188 109/129/189 103/109/190
f 103/109/190 109/129/189 98/104/191
f 118/134/192 106/112/193 119/133/194
f 119/133/194 106/112/193 105/111/195
f 115/132/196 103/109/197 118/134/192
f 118/134/192 103/109/197 106/112/193
f 120/135/198 119/133/194 107/113/199
f 107/113/199 119/133/194 105/111/195
f 120/135/198 107/113/199 114/131/200
f 114/131/200 107/113/199 101/107/201
f 85/137/202 84/138/203 82/136/204
f 82/136/204 84/138/203 83/139/205
f 83/139/205 84/138/203 86/141/206
f 86/141/206 84/138/203 87/140/207
f 86/141/206 87/140/207 88/142/208
f 85/137/202 90/143/209 84/138/203
f 84/138/203 90/143/209 89/144/210
f 84/138/203 89/144/210 87/140/207
f 87/140/207 89/144/210 91/145/211
f 87/140/207 91/145/211 88/142/208
f 90/143/209 93/146/212 89/144/210
f 89/144/210 93/146/212 92/147/213
f 89/144/210 92/147/213 91/145/211
f 91/145/211 92/147/213 94/148/214
f 91/145/211 94/148/214 88/142/208
f 70/150/215 74/151/216 69/149/217
f 69/149/217 74/151/216 73/152/218
f 70/150/215 71/153/219 74/151/216
f 74/151/216 71/153/219 75/154/220
f 71/153/219 72/155/221 75/154/220
f 73/152/218 74/151/216 76/157/222
f 76/157/222 74/151/216 77/156/223
f 74/151/216 75/154/220 77/156/223
f 77/156/223 75/154/220 78/158/224
f 75/154/220 72/155/221 78/158/224
f 76/157/222 77/156/223 79/160/225
f 79/160/225 77/156/223 80/159/226
f 77/156/223 78/158/224 80/159/226
f 80/159/226 78/158/224 81/161/227
f 78/158/224 72/155/221 81/161/227
f 69/162/228 82/136/229 70/163/230
f 70/163/230 82/136/229 83/139/231
f 73/164/232 85/137/233 69/162/228
f 69/162/228 85/137/233 82/136/229
f 70/163/230 83/139/231 71/165/234
f 71/165/234 83/139/231 86/141/235
f 71/165/234 86/141/235 72/166/236
f 72/166/236 86/141/235 88/142/237
f 90/143/238 85/137/239 76/167/240
f 76/167/240 85/137/239 73/164/241
f 92/147/242 93/146/243 80/168/244
f 80/168/244 93/146/243 79/169/245
f 93/146/243 90/143/246 79/169/245
f 79/169/245 90/143/246 76/167/247
f 81/170/248 94/148/249 80/168/244
f 80/168/244 94/148/249 92/147/242
f 88/142/250 94/148/249 72/166/251
f 72/166/251 94/148/249 81/170/248
