# This file uses centimeters as units for non-parametric coordinates.

mtllib cactus4.mtl
v 0.051104 0.985030 -0.484561
v 0.531815 1.686238 -0.355219
v -0.271321 1.930618 -0.500770
v -0.611780 0.962793 -0.500495
v -0.003961 -0.095272 -0.074358
v 0.595124 0.479899 -0.082565
v 0.616744 1.158774 0.103692
v 0.096706 2.084788 -0.228964
v -0.642295 1.631212 -0.326050
v -0.578986 0.424873 -0.053396
v 0.181005 0.003693 0.274729
v -0.108896 1.124766 0.121719
v -0.573429 1.232005 -0.211334
v -0.384807 1.789902 -0.089285
v -0.938280 1.732710 -0.035937
v -1.073814 1.018226 -0.128516
v -0.467441 0.683472 -0.075502
v -0.090082 1.106107 -0.054016
v -0.198320 1.432818 0.152888
v -0.802007 1.866802 0.086922
v -1.166920 1.401518 0.099297
v -0.744215 0.821116 0.151658
v -0.219708 0.815586 0.146495
v -0.601496 1.220016 0.214676
v -1.189067 2.634907 -0.131716
v -1.449908 2.620367 -0.240609
v -1.318971 2.834659 -0.318901
v -0.998939 2.798991 -0.195106
v -0.974060 2.406630 -0.076171
v -1.146396 2.338369 -0.093560
v -1.311807 2.451097 -0.275307
v -1.390318 2.778505 -0.375416
v -1.124595 2.859449 -0.357906
v -0.951787 2.587891 -0.252203
v -1.031593 2.323904 -0.136659
v -1.141842 2.578018 -0.318616
v -0.709778 2.233203 -0.188361
v -0.375677 2.429315 -0.058677
v -0.668133 2.663330 -0.120914
v -1.055844 2.369351 -0.226879
v -0.883229 1.824687 -0.068596
v -0.623306 1.847602 -0.004318
v -0.492740 2.193173 0.121527
v -0.558998 2.677594 -0.012675
v -0.950784 2.621593 -0.081729
v -1.036088 2.148476 0.007844
v -0.781513 1.804784 0.065701
v -0.790047 2.282651 0.086010
v -1.304277 2.880021 -0.287692
v -1.393425 2.820419 -0.344014
v -1.306557 2.738705 -0.328063
v -1.316777 2.837475 -0.187508
v -1.463275 2.765322 -0.257881
v -1.339433 2.714693 -0.321954
v -1.323752 2.700569 -0.229967
v -1.407035 2.770684 -0.173338
v 0.828753 2.548755 0.249275
v 0.754557 2.551932 0.153582
v 0.734282 2.445140 0.205179
v 0.754343 2.563705 0.328286
v 0.644220 2.593142 0.191807
v 0.695921 2.454108 0.193232
v 0.661394 2.465443 0.280332
v 0.649281 2.586882 0.293170
v 0.711805 1.989640 -0.126870
v 1.178491 2.078098 0.242050
v 0.814803 2.502525 0.248531
v 0.249290 2.285632 -0.164483
v 0.309277 1.599442 -0.254498
v 0.818186 1.485778 -0.031847
v 0.919035 1.690276 0.298721
v 0.939100 2.426042 0.422731
v 0.391911 2.500510 0.210973
v 0.170738 1.847729 0.003013
v 0.453136 1.405722 0.009860
v 0.518322 1.909925 0.245455
v -0.999230 2.864623 -0.234333
v -1.108154 2.906384 -0.266948
v -1.111762 2.788405 -0.290304
v -1.028243 2.813409 -0.141929
v -1.185318 2.891427 -0.171264
v -1.150468 2.793775 -0.277353
v -1.140720 2.743960 -0.197789
v -1.135451 2.828436 -0.108935
vt 1.000000 0.500000
vt 0.838104 0.676208
vt 0.088104 0.823792
vt 0.176208 0.500000
vt 0.088104 0.176208
vt 0.838104 0.323792
vt 0.676208 0.500000
vt 0.588104 0.823792
vt 0.338104 0.676208
vt 0.338104 0.323792
vt 0.588104 0.176208
vt 0.500000 0.500000
vt 1.088104 0.823792
vt 1.176208 0.500000
vt 1.088104 0.176208
vt 1.000000 0.500000
vt 1.088104 0.823792
vt 0.838104 0.676208
vt 1.176208 0.500000
vt 1.088104 0.176208
vt 0.838104 0.323792
vt 0.588104 0.823792
vt 0.088104 0.823792
vt 0.176208 0.500000
vt 0.338104 0.676208
vt 0.088104 0.176208
vt 0.338104 0.323792
vt 0.588104 0.176208
vt 0.676208 0.500000
vt 0.500000 0.500000
vt 1.000000 0.500000
vt 1.088104 0.823792
vt 0.838104 0.676208
vt 1.176208 0.500000
vt 1.088104 0.176208
vt 0.838104 0.323792
vt 0.588104 0.823792
vt 0.088104 0.823792
vt 0.176208 0.500000
vt 0.338104 0.676208
vt 0.088104 0.176208
vt 0.338104 0.323792
vt 0.588104 0.176208
vt 0.676208 0.500000
vt 0.500000 0.500000
vt 1.000000 0.500000
vt 1.088104 0.823792
vt 0.838104 0.676208
vt 1.176208 0.500000
vt 1.088104 0.176208
vt 0.838104 0.323792
vt 0.588104 0.823792
vt 0.088104 0.823792
vt 0.176208 0.500000
vt 0.338104 0.676208
vt 0.088104 0.176208
vt 0.338104 0.323792
vt 0.588104 0.176208
vt 0.676208 0.500000
vt 0.500000 0.500000
vt 1.000000 0.500000
vt 1.088104 0.823792
vt 0.838104 0.676208
vt 0.338104 0.676208
vt 0.088104 0.176208
vt 0.588104 0.176208
vt 0.676208 0.500000
vt 0.588104 0.823792
vt 1.088104 0.176208
vt 0.088104 0.823792
vt 1.000000 0.500000
vt 1.088104 0.823792
vt 0.838104 0.676208
vt 0.338104 0.676208
vt 0.088104 0.176208
vt 0.588104 0.176208
vt 0.676208 0.500000
vt 0.588104 0.823792
vt 1.088104 0.176208
vt 0.088104 0.823792
vt 1.000000 0.500000
vt 1.088104 0.823792
vt 0.838104 0.676208
vt 1.176208 0.500000
vt 1.088104 0.176208
vt 0.838104 0.323792
vt 0.588104 0.823792
vt 0.088104 0.823792
vt 0.176208 0.500000
vt 0.338104 0.676208
vt 0.088104 0.176208
vt 0.338104 0.323792
vt 0.588104 0.176208
vt 0.676208 0.500000
vt 0.500000 0.500000
vt 1.000000 0.500000
vt 1.088104 0.823792
vt 0.838104 0.676208
vt 0.338104 0.676208
vt 0.088104 0.176208
vt 0.588104 0.176208
vt 0.676208 0.500000
vt 0.588104 0.823792
vt 1.088104 0.176208
vt 0.088104 0.823792
vn 0.192478 0.048831 -0.980086
vn 0.192478 0.048831 -0.980086
vn 0.192478 0.048831 -0.980086
vn 0.024325 -0.008841 -0.999665
vn 0.024325 -0.008841 -0.999665
vn 0.024325 -0.008841 -0.999665
vn 0.034396 -0.356304 -0.933737
vn 0.034396 -0.356304 -0.933737
vn 0.034396 -0.356304 -0.933737
vn 0.324191 -0.350208 -0.878780
vn 0.324191 -0.350208 -0.878780
vn 0.324191 -0.350208 -0.878780
vn 0.479024 -0.169524 -0.861277
vn 0.479024 -0.169524 -0.861277
vn 0.479024 -0.169524 -0.861277
vn 0.312765 0.579787 -0.752346
vn 0.312765 0.579787 -0.752347
vn 0.312766 0.579787 -0.752346
vn -0.539368 0.189504 -0.820469
vn -0.539368 0.189504 -0.820469
vn -0.539368 0.189504 -0.820469
vn -0.530421 -0.560763 -0.635766
vn -0.530421 -0.560763 -0.635766
vn -0.530421 -0.560763 -0.635766
vn 0.682563 -0.713217 -0.159467
vn 0.682563 -0.713217 -0.159467
vn 0.682563 -0.713217 -0.159467
vn 0.985996 0.014189 -0.166165
vn 0.985996 0.014189 -0.166165
vn 0.985996 0.014189 -0.166165
vn 0.655664 0.552923 0.514180
vn 0.655664 0.552923 0.514180
vn 0.655664 0.552923 0.514180
vn -0.529727 0.807598 0.259181
vn -0.529727 0.807598 0.259181
vn -0.529727 0.807598 0.259181
vn -0.998689 -0.049247 0.014002
vn -0.998689 -0.049247 0.014002
vn -0.998689 -0.049247 0.014002
vn -0.574773 -0.655176 0.490287
vn -0.574773 -0.655176 0.490287
vn -0.574773 -0.655176 0.490287
vn 0.759381 -0.194530 0.620885
vn 0.759381 -0.194530 0.620885
vn 0.759381 -0.194530 0.620885
vn 0.007332 0.341717 0.939774
vn 0.007332 0.341717 0.939774
vn 0.007332 0.341717 0.939774
vn -0.349410 0.386601 0.853494
vn -0.349410 0.386601 0.853494
vn -0.349410 0.386601 0.853494
vn -0.542564 0.157996 0.825023
vn -0.542564 0.157996 0.825022
vn -0.542564 0.157996 0.825023
vn -0.383701 0.026763 0.923069
vn -0.383701 0.026763 0.923069
vn -0.383701 0.026763 0.923069
vn 0.018044 0.139788 0.990017
vn 0.018044 0.139788 0.990017
vn 0.018044 0.139788 0.990017
vn -0.118480 0.250271 -0.960899
vn -0.118480 0.250271 -0.960899
vn -0.118480 0.250271 -0.960899
vn -0.230374 0.167898 -0.958508
vn -0.230374 0.167898 -0.958508
vn -0.230374 0.167898 -0.958508
vn -0.053334 -0.249724 -0.966847
vn -0.053334 -0.249724 -0.966847
vn -0.053334 -0.249724 -0.966847
vn 0.260441 -0.184361 -0.947725
vn 0.260441 -0.184361 -0.947725
vn 0.260441 -0.184361 -0.947725
vn 0.330150 0.093855 -0.939251
vn 0.330150 0.093855 -0.939251
vn 0.330150 0.093855 -0.939251
vn -0.139867 0.742423 -0.655168
vn -0.139867 0.742423 -0.655168
vn -0.139867 0.742423 -0.655168
vn -0.713810 0.221494 -0.664391
vn -0.713810 0.221494 -0.664391
vn -0.713810 0.221494 -0.664391
vn -0.479085 -0.876178 -0.052816
vn -0.479085 -0.876178 -0.052816
vn -0.479085 -0.876178 -0.052816
vn 0.688949 -0.594031 -0.415304
vn 0.688949 -0.594031 -0.415304
vn 0.688949 -0.594031 -0.415304
vn 0.912660 0.386515 -0.132882
vn 0.912660 0.386515 -0.132882
vn 0.912660 0.386515 -0.132882
vn 0.394601 0.647934 0.651515
vn 0.394601 0.647934 0.651515
vn 0.394601 0.647934 0.651515
vn -0.770156 0.609057 0.189498
vn -0.770156 0.609057 0.189498
vn -0.770156 0.609057 0.189498
vn -0.717208 -0.476463 0.508523
vn -0.717208 -0.476463 0.508523
vn -0.717208 -0.476463 0.508523
vn -0.003974 -0.857378 0.514672
vn -0.003974 -0.857378 0.514672
vn -0.003974 -0.857378 0.514672
vn 0.861697 -0.035102 0.506208
vn 0.861697 -0.035102 0.506208
vn 0.861697 -0.035102 0.506208
vn 0.041169 0.205882 0.977711
vn 0.041169 0.205882 0.977711
vn 0.041169 0.205882 0.977711
vn -0.152677 0.145740 0.977471
vn -0.152677 0.145740 0.977471
vn -0.152677 0.145740 0.977471
vn -0.222167 -0.074097 0.972189
vn -0.222167 -0.074097 0.972189
vn -0.222167 -0.074097 0.972189
vn 0.008045 -0.158845 0.987271
vn 0.008045 -0.158845 0.987271
vn 0.008045 -0.158845 0.987271
vn 0.159584 -0.015754 0.987059
vn 0.159584 -0.015754 0.987059
vn 0.159584 -0.015754 0.987059
vn -0.356343 0.504957 0.786154
vn -0.356343 0.504957 0.786154
vn -0.356343 0.504957 0.786154
vn -0.237811 0.577322 0.781118
vn -0.237811 0.577322 0.781118
vn -0.237811 0.577322 0.781118
vn 0.064932 0.293249 0.953829
vn 0.064932 0.293249 0.953828
vn 0.064932 0.293249 0.953828
vn -0.141413 0.106296 0.984227
vn -0.141413 0.106296 0.984227
vn -0.141413 0.106296 0.984227
vn -0.387458 0.062595 0.919760
vn -0.387458 0.062595 0.919760
vn -0.387458 0.062595 0.919760
vn -0.735209 0.578374 0.353484
vn -0.735209 0.578374 0.353484
vn -0.735209 0.578374 0.353484
vn -0.042486 0.925453 0.376473
vn -0.042486 0.925453 0.376473
vn -0.042486 0.925453 0.376473
vn 0.953615 0.141077 0.265926
vn 0.953615 0.141077 0.265926
vn 0.953615 0.141077 0.265926
vn 0.188953 -0.661846 0.725436
vn 0.188953 -0.661846 0.725436
vn 0.188953 -0.661846 0.725436
vn -0.721787 -0.641924 0.258759
vn -0.721787 -0.641924 0.258759
vn -0.721787 -0.641924 0.258759
vn -0.618517 -0.361621 -0.697615
vn -0.618517 -0.361621 -0.697615
vn -0.618517 -0.361621 -0.697615
vn -0.212318 0.813962 -0.540728
vn -0.212318 0.813962 -0.540728
vn -0.212318 0.813962 -0.540728
vn 0.804233 0.315810 -0.503461
vn 0.804233 0.315810 -0.503461
vn 0.804233 0.315810 -0.503461
vn 0.871975 -0.391972 -0.293289
vn 0.871975 -0.391972 -0.293289
vn 0.871975 -0.391972 -0.293289
vn -0.242799 -0.907767 -0.342064
vn -0.242799 -0.907767 -0.342064
vn -0.242799 -0.907767 -0.342064
vn -0.021444 -0.297030 -0.954627
vn -0.021444 -0.297030 -0.954627
vn -0.021444 -0.297030 -0.954627
vn 0.108672 -0.143977 -0.983596
vn 0.108672 -0.143977 -0.983596
vn 0.108672 -0.143977 -0.983596
vn 0.333085 -0.150363 -0.930831
vn 0.333085 -0.150363 -0.930831
vn 0.333085 -0.150363 -0.930831
vn 0.314264 -0.458775 -0.831122
vn 0.314264 -0.458775 -0.831122
vn 0.314264 -0.458775 -0.831122
vn 0.176507 -0.521273 -0.834937
vn 0.176507 -0.521273 -0.834937
vn 0.176507 -0.521273 -0.834937
vn 0.297386 0.119740 -0.947219
vn 0.297386 0.119740 -0.947219
vn 0.297386 0.119740 -0.947219
vn 0.162818 0.137444 -0.977036
vn 0.162818 0.137444 -0.977036
vn 0.162818 0.137444 -0.977036
vn -0.003320 -0.280030 -0.959986
vn -0.003320 -0.280030 -0.959985
vn -0.003320 -0.280030 -0.959985
vn 0.253641 -0.369742 -0.893844
vn 0.253641 -0.369742 -0.893844
vn 0.253641 -0.369742 -0.893844
vn 0.487482 -0.284649 -0.825431
vn 0.487482 -0.284649 -0.825431
vn 0.487482 -0.284649 -0.825431
vn 0.560453 0.531502 -0.635136
vn 0.560453 0.531502 -0.635136
vn 0.560453 0.531502 -0.635136
vn -0.193763 0.548686 -0.813264
vn -0.193763 0.548686 -0.813264
vn -0.193763 0.548686 -0.813264
vn -0.894842 -0.360210 -0.263640
vn -0.894842 -0.360210 -0.263640
vn -0.894842 -0.360210 -0.263640
vn 0.146860 -0.956268 -0.252952
vn 0.146860 -0.956268 -0.252952
vn 0.146860 -0.956268 -0.252952
vn 0.919047 -0.382246 0.096127
vn 0.919047 -0.382246 0.096127
vn 0.919047 -0.382246 0.096127
vn 0.583163 0.289988 0.758833
vn 0.583163 0.289988 0.758833
vn 0.583163 0.289988 0.758833
vn -0.144046 0.989460 0.014841
vn -0.144046 0.989460 0.014841
vn -0.144046 0.989460 0.014841
vn -0.931531 0.222427 0.287708
vn -0.931531 0.222427 0.287708
vn -0.931531 0.222427 0.287708
vn -0.737883 -0.464051 0.490088
vn -0.737883 -0.464051 0.490088
vn -0.737883 -0.464051 0.490088
vn 0.460460 -0.452158 0.763891
vn 0.460460 -0.452158 0.763891
vn 0.460460 -0.452158 0.763891
vn -0.036292 0.262191 0.964333
vn -0.036292 0.262191 0.964333
vn -0.036292 0.262191 0.964333
vn -0.210994 0.351357 0.912157
vn -0.210994 0.351357 0.912157
vn -0.210994 0.351357 0.912157
vn -0.410597 0.240546 0.879516
vn -0.410597 0.240546 0.879516
vn -0.410597 0.240546 0.879516
vn -0.279718 -0.045751 0.958992
vn -0.279718 -0.045751 0.958992
vn -0.279718 -0.045751 0.958992
vn -0.131678 -0.044438 0.990296
vn -0.131678 -0.044438 0.990296
vn -0.131678 -0.044438 0.990296
vn 0.394449 0.246531 -0.885230
vn 0.394449 0.246531 -0.885230
vn 0.394449 0.246531 -0.885230
vn 0.579599 -0.678590 0.451199
vn 0.579599 -0.678590 0.451199
vn 0.579599 -0.678590 0.451199
vn 0.579599 -0.678590 0.451199
vn 0.579599 -0.678590 0.451199
vn 0.579599 -0.678590 0.451199
vn 0.579599 -0.678590 0.451199
vn -0.549120 0.808314 0.212360
vn -0.549120 0.808314 0.212360
vn -0.549120 0.808314 0.212360
vn -0.549120 0.808314 0.212360
vn -0.549120 0.808314 0.212360
vn -0.023772 -0.215819 -0.976144
vn -0.023772 -0.215819 -0.976144
vn -0.023772 -0.215819 -0.976144
vn -0.547240 -0.429375 -0.718447
vn -0.547240 -0.429375 -0.718447
vn -0.547240 -0.429375 -0.718447
vn 0.549003 -0.807025 -0.217501
vn 0.549003 -0.807025 -0.217501
vn 0.549003 -0.807025 -0.217501
vn 0.714253 -0.409747 -0.567407
vn 0.714253 -0.409747 -0.567407
vn 0.714253 -0.409747 -0.567407
vn -0.357945 -0.682008 0.637762
vn -0.357945 -0.682008 0.637762
vn -0.357945 -0.682008 0.637762
vn -0.357945 -0.682008 0.637762
vn -0.357945 -0.682008 0.637762
vn -0.357945 -0.682008 0.637762
vn -0.357945 -0.682008 0.637762
vn 0.239807 0.970121 -0.036848
vn 0.239807 0.970121 -0.036848
vn 0.239807 0.970121 -0.036848
vn 0.239807 0.970121 -0.036848
vn 0.239807 0.970121 -0.036848
vn 0.166304 -0.454397 -0.875138
vn 0.166304 -0.454397 -0.875138
vn 0.166304 -0.454397 -0.875138
vn -0.372631 -0.147957 -0.916108
vn -0.372631 -0.147957 -0.916108
vn -0.372631 -0.147957 -0.916108
vn -0.237084 -0.970950 0.032369
vn -0.237084 -0.970950 0.032369
vn -0.237084 -0.970950 0.032369
vn 0.503054 0.442399 -0.742442
vn 0.503054 0.442399 -0.742442
vn 0.503054 0.442399 -0.742442
vn 0.380456 0.495250 -0.781012
vn 0.380456 0.495251 -0.781012
vn 0.380456 0.495251 -0.781012
vn 0.170678 0.142812 -0.974923
vn 0.170678 0.142812 -0.974922
vn 0.170678 0.142812 -0.974923
vn 0.381611 -0.092866 -0.919646
vn 0.381611 -0.092866 -0.919646
vn 0.381611 -0.092866 -0.919646
vn 0.621965 -0.016326 -0.782875
vn 0.621965 -0.016326 -0.782875
vn 0.621965 -0.016326 -0.782875
vn 0.734159 0.632850 -0.245990
vn 0.734159 0.632850 -0.245990
vn 0.734159 0.632850 -0.245990
vn 0.041014 0.860387 -0.507988
vn 0.041014 0.860387 -0.507988
vn 0.041014 0.860387 -0.507988
vn -0.887307 -0.017111 -0.460863
vn -0.887307 -0.017111 -0.460863
vn -0.887307 -0.017111 -0.460863
vn 0.099073 -0.776173 -0.622687
vn 0.099073 -0.776173 -0.622687
vn 0.099073 -0.776173 -0.622687
vn 0.833845 -0.545694 0.083194
vn 0.833845 -0.545694 0.083194
vn 0.833845 -0.545694 0.083194
vn 0.434505 -0.161203 0.886126
vn 0.434506 -0.161203 0.886126
vn 0.434506 -0.161203 0.886126
vn -0.042206 0.903383 0.426753
vn -0.042206 0.903383 0.426753
vn -0.042206 0.903383 0.426753
vn -0.943787 0.251394 0.214631
vn -0.943787 0.251394 0.214631
vn -0.943787 0.251394 0.214631
vn -0.841383 -0.536555 0.064680
vn -0.841383 -0.536555 0.064680
vn -0.841383 -0.536555 0.064680
vn 0.240037 -0.856624 0.456703
vn 0.240037 -0.856624 0.456703
vn 0.240037 -0.856624 0.456703
vn -0.214044 -0.156671 0.964178
vn -0.214044 -0.156671 0.964178
vn -0.214044 -0.156671 0.964178
vn -0.363584 -0.023450 0.931266
vn -0.363584 -0.023450 0.931266
vn -0.363584 -0.023450 0.931266
vn -0.561880 -0.072153 0.824066
vn -0.561880 -0.072153 0.824066
vn -0.561880 -0.072153 0.824066
vn -0.505760 -0.310662 0.804796
vn -0.505760 -0.310662 0.804796
vn -0.505760 -0.310662 0.804796
vn -0.317589 -0.367401 0.874159
vn -0.317589 -0.367401 0.874159
vn -0.317589 -0.367401 0.874159
vn 0.342610 0.172354 -0.923533
vn 0.342610 0.172354 -0.923533
vn 0.342610 0.172354 -0.923533
vn -0.086243 -0.984874 0.150284
vn -0.086243 -0.984874 0.150284
vn -0.086243 -0.984874 0.150284
vn -0.086243 -0.984874 0.150284
vn -0.086243 -0.984874 0.150284
vn -0.086243 -0.984874 0.150284
vn -0.086243 -0.984874 0.150284
vn 0.277711 0.831822 0.480571
vn 0.277711 0.831822 0.480571
vn 0.277711 0.831822 0.480571
vn 0.277711 0.831822 0.480571
vn 0.277711 0.831822 0.480571
vn -0.286870 0.194471 -0.938023
vn -0.286870 0.194471 -0.938023
vn -0.286870 0.194471 -0.938023
vn -0.758038 0.336470 -0.558718
vn -0.758038 0.336470 -0.558718
vn -0.758038 0.336470 -0.558718
vn -0.277390 -0.829241 -0.485195
vn -0.277390 -0.829241 -0.485195
vn -0.277390 -0.829241 -0.485195
usemtl phong1SG
f 1/1/1 3/13/2 2/2/3
f 1/1/4 4/14/5 3/13/6
f 1/1/7 5/15/8 4/14/9
f 1/1/10 6/6/11 5/15/12
f 1/1/13 2/2/14 6/6/15
f 2/2/16 3/13/17 8/8/18
f 3/3/19 4/4/20 9/9/21
f 4/4/22 5/5/23 10/10/24
f 5/15/25 6/6/26 11/11/27
f 6/6/28 2/2/29 7/7/30
f 2/2/31 8/8/32 7/7/33
f 3/3/34 9/9/35 8/8/36
f 4/4/37 10/10/38 9/9/39
f 5/5/40 11/11/41 10/10/42
f 6/6/43 7/7/44 11/11/45
f 7/7/46 8/8/47 12/12/48
f 8/8/49 9/9/50 12/12/51
f 9/9/52 10/10/53 12/12/54
f 10/10/55 11/11/56 12/12/57
f 11/11/58 7/7/59 12/12/60
f 13/16/61 15/17/62 14/18/63
f 13/16/64 16/19/65 15/17/66
f 13/16/67 17/20/68 16/19/69
f 13/16/70 18/21/71 17/20/72
f 13/16/73 14/18/74 18/21/75
f 14/18/76 15/17/77 20/22/78
f 15/23/79 16/24/80 21/25/81
f 16/24/82 17/26/83 22/27/84
f 17/20/85 18/21/86 23/28/87
f 18/21/88 14/18/89 19/29/90
f 14/18/91 20/22/92 19/29/93
f 15/23/94 21/25/95 20/22/96
f 16/24/97 22/27/98 21/25/99
f 17/26/100 23/28/101 22/27/102
f 18/21/103 19/29/104 23/28/105
f 19/29/106 20/22/107 24/30/108
f 20/22/109 21/25/110 24/30/111
f 21/25/112 22/27/113 24/30/114
f 22/27/115 23/28/116 24/30/117
f 23/28/118 19/29/119 24/30/120
f 25/31/121 27/32/122 26/33/123
f 25/31/124 28/34/125 27/32/126
f 25/31/127 29/35/128 28/34/129
f 25/31/130 30/36/131 29/35/132
f 25/31/133 26/33/134 30/36/135
f 26/33/136 27/32/137 32/37/138
f 27/38/139 28/39/140 33/40/141
f 28/39/142 29/41/143 34/42/144
f 29/35/145 30/36/146 35/43/147
f 30/36/148 26/33/149 31/44/150
f 26/33/151 32/37/152 31/44/153
f 27/38/154 33/40/155 32/37/156
f 28/39/157 34/42/158 33/40/159
f 29/41/160 35/43/161 34/42/162
f 30/36/163 31/44/164 35/43/165
f 31/44/166 32/37/167 36/45/168
f 32/37/169 33/40/170 36/45/171
f 33/40/172 34/42/173 36/45/174
f 34/42/175 35/43/176 36/45/177
f 35/43/178 31/44/179 36/45/180
f 37/46/181 39/47/182 38/48/183
f 37/46/184 40/49/185 39/47/186
f 37/46/187 41/50/188 40/49/189
f 37/46/190 42/51/191 41/50/192
f 37/46/193 38/48/194 42/51/195
f 38/48/196 39/47/197 44/52/198
f 39/53/199 40/54/200 45/55/201
f 40/54/202 41/56/203 46/57/204
f 41/50/205 42/51/206 47/58/207
f 42/51/208 38/48/209 43/59/210
f 38/48/211 44/52/212 43/59/213
f 39/53/214 45/55/215 44/52/216
f 40/54/217 46/57/218 45/55/219
f 41/56/220 47/58/221 46/57/222
f 42/51/223 43/59/224 47/58/225
f 43/59/226 44/52/227 48/60/228
f 44/52/229 45/55/230 48/60/231
f 45/55/232 46/57/233 48/60/234
f 46/57/235 47/58/236 48/60/237
f 47/58/238 43/59/239 48/60/240
usemtl pasted__phong3SG
f 49/61/241 51/62/242 50/63/243
f 55/64/244 51/62/245 49/61/246 52/65/247 56/66/248 53/67/249 54/68/250
f 56/66/251 52/69/252 49/61/253 50/63/254 53/67/255
f 50/63/256 51/62/257 54/68/258
f 50/63/259 54/68/260 53/67/261
f 51/70/262 55/64/263 54/68/264
f 57/71/265 59/72/266 58/73/267
f 63/74/268 59/72/269 57/71/270 60/75/271 64/76/272 61/77/273 62/78/274
f 64/76/275 60/79/276 57/71/277 58/73/278 61/77/279
f 58/73/280 59/72/281 62/78/282
f 58/73/283 62/78/284 61/77/285
f 59/80/286 63/74/287 62/78/288
usemtl phong1SG
f 65/81/289 67/82/290 66/83/291
f 65/81/292 68/84/293 67/82/294
f 65/81/295 69/85/296 68/84/297
f 65/81/298 70/86/299 69/85/300
f 65/81/301 66/83/302 70/86/303
f 66/83/304 67/82/305 72/87/306
f 67/88/307 68/89/308 73/90/309
f 68/89/310 69/91/311 74/92/312
f 69/85/313 70/86/314 75/93/315
f 70/86/316 66/83/317 71/94/318
f 66/83/319 72/87/320 71/94/321
f 67/88/322 73/90/323 72/87/324
f 68/89/325 74/92/326 73/90/327
f 69/91/328 75/93/329 74/92/330
f 70/86/331 71/94/332 75/93/333
f 71/94/334 72/87/335 76/95/336
f 72/87/337 73/90/338 76/95/339
f 73/90/340 74/92/341 76/95/342
f 74/92/343 75/93/344 76/95/345
f 75/93/346 71/94/347 76/95/348
usemtl pasted__phong3SG
f 77/96/349 79/97/350 78/98/351
f 83/99/352 79/97/353 77/96/354 80/100/355 84/101/356 81/102/357 82/103/358
f 84/101/359 80/104/360 77/96/361 78/98/362 81/102/363
f 78/98/364 79/97/365 82/103/366
f 78/98/367 82/103/368 81/102/369
f 79/105/370 83/99/371 82/103/372
