# This file uses centimeters as units for non-parametric coordinates.

mtllib cactus3.mtl
v 0.035413 3.696427 -0.117128
v -0.098004 3.709738 0.017028
v 0.035413 3.680924 0.125739
v 0.168839 3.706109 0.017028
v 0.035413 3.529038 0.017028
vt 0.500000 0.000000
vt 0.250000 0.250000
vt 0.500000 0.500000
vt 0.750000 0.250000
vt 0.250000 0.500000
vt 0.375000 0.500000
vt 0.500000 0.500000
vt 0.625000 0.500000
vt 0.750000 0.500000
vt 0.500000 1.000000
vn 0.013568 0.997877 0.063702
vn 0.013568 0.997877 0.063702
vn 0.013568 0.997877 0.063702
vn 0.013568 0.997877 0.063702
vn -0.646330 -0.477209 -0.595424
vn -0.646330 -0.477209 -0.595424
vn -0.646330 -0.477209 -0.595424
vn -0.619071 -0.457083 0.638612
vn -0.619071 -0.457083 0.638612
vn -0.619072 -0.457083 0.638612
vn 0.611294 -0.460616 0.643547
vn 0.611294 -0.460616 0.643547
vn 0.611294 -0.460616 0.643547
vn 0.638654 -0.481232 -0.600447
vn 0.638654 -0.481232 -0.600447
vn 0.638654 -0.481232 -0.600447
usemtl pasted__phong3SG
f 1/1/1 2/2/2 3/3/3 4/4/4
f 1/5/5 5/10/6 2/6/7
f 2/6/8 5/10/9 3/7/10
f 3/7/11 5/10/12 4/8/13
f 4/8/14 5/10/15 1/9/16
v 0.029868 -0.601676 -0.312708
v -0.281971 -0.601676 -0.102553
v -0.178465 -0.601676 0.258965
v 0.197345 -0.601676 0.272241
v 0.326102 -0.601676 -0.081073
v 0.053751 3.583147 -0.232685
v -0.195592 3.575283 -0.093626
v -0.140285 3.568426 0.186484
v 0.143239 3.572052 0.220542
v 0.263160 3.581150 -0.038518
v 0.018576 -0.601676 0.006974
v 0.024164 3.632841 0.009626
v 0.066122 3.273828 -0.514326
v -0.470394 3.200967 -0.215110
v -0.351390 3.123380 0.387608
v 0.258675 3.131183 0.460893
v 0.516712 3.309717 -0.096533
v 0.153134 2.282730 -0.459747
v -0.387330 2.282730 -0.284139
v -0.387330 2.282730 0.284139
v 0.153134 2.282730 0.459747
v 0.487160 2.282730 0.000000
v 0.136378 0.974894 -0.385113
v -0.316349 0.974894 -0.238013
v -0.316349 0.974894 0.238013
v 0.136378 0.974894 0.385113
v 0.416179 0.974894 -0.000000
v 0.140860 1.410081 -0.405077
v 0.435166 1.410081 -0.000000
v 0.140860 1.410081 0.405077
v -0.335336 1.410081 0.250351
v -0.335336 1.410081 -0.250351
v 0.654085 1.457655 0.689975
v 0.786747 1.439474 0.507381
v 0.521750 1.250125 0.617420
v 0.673172 1.250125 0.409005
v 0.538818 1.523035 0.309244
v 0.379546 1.475570 0.528463
v 0.701129 2.075087 0.426472
v 0.546251 2.075087 0.639642
v 0.851627 2.042726 0.535815
v 0.260045 -0.601676 0.100189
v 0.272631 0.974894 0.197576
v 0.711872 1.336847 0.595177
v 0.772170 2.097369 0.645179
v 0.621671 2.106069 0.535835
v 0.457106 1.577041 0.421711
v 0.284177 1.410081 0.207819
v 0.315793 2.282730 0.235866
v 0.384330 3.203548 0.189446
v 0.201636 3.576482 0.094389
v 0.138203 1.152069 -0.393241
v -0.326148 1.199486 -0.244381
v -0.327275 1.225319 0.245113
v 0.138629 1.193484 0.395141
v 0.423749 1.148399 -0.000000
v 0.696750 2.042726 0.748986
vt 0.548284 0.007647
vt 0.373591 0.064409
vt 0.373591 0.248091
vt 0.548284 0.304853
vt 0.656250 0.156250
vt 0.375000 0.312500
vt 0.425000 0.312500
vt 0.475000 0.312500
vt 0.525000 0.312500
vt 0.575000 0.312500
vt 0.625000 0.312500
vt 0.375000 0.688440
vt 0.425000 0.688440
vt 0.475000 0.688440
vt 0.525000 0.688440
vt 0.575000 0.688440
vt 0.625000 0.688440
vt 0.548284 0.695147
vt 0.373591 0.751909
vt 0.373591 0.935591
vt 0.548284 0.992353
vt 0.656250 0.843750
vt 0.500000 0.150000
vt 0.500000 0.837500
vt 0.625000 0.615765
vt 0.375000 0.615765
vt 0.425000 0.615765
vt 0.475000 0.615765
vt 0.525000 0.615765
vt 0.575000 0.615765
vt 0.625000 0.403327
vt 0.375000 0.403327
vt 0.425000 0.403327
vt 0.475000 0.403327
vt 0.525000 0.403327
vt 0.575000 0.403327
vt 0.625000 0.351009
vt 0.375000 0.351009
vt 0.425000 0.351009
vt 0.475000 0.351009
vt 0.525000 0.351009
vt 0.575000 0.351009
vt 0.625000 0.364656
vt 0.375000 0.364656
vt 0.575000 0.364656
vt 0.525000 0.364656
vt 0.475000 0.364656
vt 0.425000 0.364656
vt 0.525000 0.351009
vt 0.575000 0.351009
vt 0.525000 0.351009
vt 0.575000 0.351009
vt 0.575000 0.364656
vt 0.525000 0.364656
vt 0.575000 0.364656
vt 0.525000 0.364656
vt 0.575000 0.364656
vt 0.549348 0.312500
vt 0.600860 0.232488
vt 0.549348 0.351009
vt 0.549348 0.351009
vt 0.549348 0.364656
vt 0.549348 0.364656
vt 0.549348 0.364656
vt 0.549348 0.364656
vt 0.549348 0.403327
vt 0.549348 0.615765
vt 0.600860 0.767512
vt 0.549348 0.688440
vt 0.625000 0.356565
vt 0.375000 0.356565
vt 0.425000 0.358052
vt 0.475000 0.358862
vt 0.525000 0.357864
vt 0.575000 0.356450
vt 0.525000 0.364656
vn -0.497196 0.156402 -0.853425
vn -0.449183 0.570080 -0.687927
vn -0.442861 0.120578 -0.888445
vn -0.401305 0.607834 -0.685195
vn -0.976170 0.150398 0.156435
vn -0.967315 0.146691 0.206842
vn -0.828171 0.516718 0.217106
vn -0.854529 0.486977 0.180644
vn -0.174727 0.115910 0.977771
vn -0.119825 0.147205 0.981821
vn -0.112045 0.452873 0.884506
vn -0.112045 0.452874 0.884506
vn 0.886241 0.057859 0.459596
vn 0.879302 0.125686 0.459381
vn 0.770874 0.467862 0.432272
vn 0.787889 0.483262 0.381692
vn 0.667427 0.138376 -0.731706
vn 0.528126 0.590190 -0.610540
vn 0.715487 0.094345 -0.692226
vn 0.535444 0.622230 -0.571077
vn 0.000000 -1.000000 -0.000000
vn 0.000000 -1.000000 -0.000000
vn 0.000000 -1.000000 -0.000000
vn 0.000000 -1.000000 0.000000
vn 0.000000 -1.000000 0.000000
vn 0.000000 -1.000000 -0.000000
vn 0.000000 -1.000000 -0.000000
vn 0.011439 0.979821 -0.199549
vn -0.222400 0.972525 -0.068795
vn -0.045218 0.998877 0.014149
vn -0.170276 0.966195 0.193579
vn 0.045353 0.966421 0.252931
vn 0.236708 0.960951 0.143325
vn 0.197514 0.977842 -0.069381
vn -0.308300 -0.068102 -0.948849
vn -0.349623 -0.046722 -0.935725
vn -0.997158 -0.075336 -0.000000
vn -0.997662 -0.052095 0.044224
vn -0.308063 -0.078533 0.948119
vn -0.262751 -0.052635 0.963427
vn 0.806802 -0.073943 0.586176
vn 0.815838 -0.053969 0.575757
vn 0.807324 -0.064667 -0.586555
vn 0.781997 -0.043936 -0.621731
vn -0.308923 -0.024702 -0.950766
vn -0.340474 -0.032505 -0.939692
vn -0.308765 -0.040415 -0.950279
vn -0.308764 -0.040415 -0.950280
vn -0.999694 -0.024729 0.000000
vn -0.998952 -0.031959 0.032773
vn -0.999049 -0.043589 0.000000
vn -0.999049 -0.043589 0.000000
vn -0.293261 -0.025570 0.955690
vn -0.391371 -0.032928 0.919644
vn -0.308966 -0.018208 0.950899
vn -0.308765 -0.040415 0.950280
vn 0.812347 -0.019347 -0.582853
vn 0.788117 -0.025828 -0.614984
vn 0.832195 -0.000696 -0.554483
vn 0.808514 -0.035276 -0.587419
vn -0.556923 -0.083148 -0.826391
vn -0.500154 -0.068938 -0.863188
vn -0.958279 -0.080163 0.274364
vn -0.975616 -0.066461 0.209183
vn -0.035209 -0.072721 0.996731
vn -0.102643 -0.058953 0.992970
vn 0.931412 -0.049745 0.360550
vn 0.814014 -0.027394 0.580200
vn 0.926875 -0.026529 0.374433
vn 0.808970 -0.010796 0.587751
vn 0.614124 -0.077558 -0.785390
vn 0.666792 -0.062964 -0.742580
vn 0.835202 -0.045054 -0.548095
vn 0.808181 -0.045447 -0.587178
vn 0.808079 -0.048147 0.587104
vn 0.808079 -0.048147 0.587104
vn -0.324392 -0.050735 0.944561
vn -0.308586 -0.052803 0.949730
vn -0.998396 -0.056612 0.000000
vn -0.998378 -0.056930 -0.000000
vn -0.308598 -0.052053 -0.949767
vn -0.308590 -0.052534 -0.949743
vn 0.421850 -0.834504 0.354465
vn 0.515675 -0.756696 0.401859
vn 0.317282 -0.486844 0.813828
vn 0.423270 -0.852216 0.307524
vn 0.423313 -0.852191 0.307533
vn 0.663659 0.039825 -0.746974
vn 0.677574 0.173348 -0.714734
vn -0.356905 0.885199 -0.298399
vn -0.453007 0.875047 -0.170521
vn -0.369623 0.904964 -0.210757
vn -0.438975 0.788578 0.430634
vn -0.508210 -0.034707 0.860533
vn -0.503022 0.011006 0.864204
vn -0.756168 0.353955 -0.550387
vn -0.798640 0.331822 -0.502064
vn -0.819676 0.346358 -0.456254
vn -0.884720 0.310484 -0.347664
vn -0.552462 -0.015059 0.833402
vn -0.509986 -0.008729 0.860138
vn -0.585953 0.012675 0.810246
vn 0.772984 -0.119218 0.623124
vn 0.800609 -0.111894 0.588647
vn 0.826418 -0.102918 0.553572
vn 0.804762 -0.102250 0.584724
vn 0.819561 -0.044863 0.571233
vn 0.937176 -0.071108 0.341532
vn 0.462849 -0.836565 0.293140
vn 0.423270 -0.852216 0.307523
vn 0.836267 -0.542612 0.078926
vn 0.782331 -0.103236 0.614248
vn 0.817988 -0.114546 0.563715
vn 0.037814 0.998908 0.027437
vn 0.098502 0.992429 0.073361
vn 0.246030 0.952964 -0.177002
vn 0.346285 0.915294 -0.205730
vn -0.676843 0.337879 -0.654004
vn -0.701836 0.349804 -0.620534
vn -0.316590 0.920252 -0.230016
vn -0.241771 0.890706 -0.384954
vn 0.808079 -0.048147 0.587104
vn 0.823506 -0.032568 0.566372
vn 0.866378 0.177274 0.466866
vn 0.726399 0.510736 0.459884
vn -0.099550 0.908484 0.405889
vn -0.100929 0.949527 0.297006
vn 0.603192 -0.015404 -0.797447
vn 0.587650 -0.000962 -0.809115
vn 0.852867 -0.251537 -0.457544
usemtl phong1SG
f 19/37/17 12/23/18 18/36/19
f 18/36/19 12/23/18 11/22/20
f 19/37/21 20/38/22 12/23/23
f 12/23/23 20/38/22 13/24/24
f 20/38/25 21/39/26 13/24/27
f 13/24/27 21/39/26 14/25/28
f 21/39/29 55/77/30 14/25/31
f 14/25/31 55/77/30 56/79/32
f 18/35/33 11/27/34 22/40/35
f 22/40/35 11/27/34 15/26/36
f 7/12/37 6/11/38 16/33/39
f 8/13/40 7/12/37 16/33/39
f 9/14/41 8/13/40 16/33/39
f 10/15/42 47/69/43 16/33/39
f 6/11/38 10/15/42 16/33/39
f 11/31/44 12/30/45 17/34/46
f 12/30/45 13/29/47 17/34/46
f 13/29/47 14/28/48 17/34/46
f 14/28/48 56/78/49 17/34/46
f 15/32/50 11/31/44 17/34/46
f 23/42/51 24/43/52 18/36/19
f 18/36/19 24/43/52 19/37/17
f 24/43/53 25/44/54 19/37/21
f 19/37/21 25/44/54 20/38/22
f 25/44/55 26/45/56 20/38/25
f 20/38/25 26/45/56 21/39/26
f 26/45/57 54/76/58 21/39/29
f 21/39/29 54/76/58 55/77/30
f 27/46/59 23/41/60 22/40/35
f 22/40/35 23/41/60 18/35/33
f 28/48/61 29/49/62 57/81/63
f 57/81/63 29/49/62 58/82/64
f 29/49/65 30/50/66 58/82/67
f 58/82/67 30/50/66 59/83/68
f 31/51/69 60/84/70 30/50/71
f 30/50/71 60/84/70 59/83/72
f 32/52/73 28/47/74 61/85/75
f 61/85/75 28/47/74 57/80/76
f 7/17/77 29/49/62 6/16/78
f 6/16/78 29/49/62 28/48/61
f 8/18/79 30/50/66 7/17/80
f 7/17/80 30/50/66 29/49/65
f 9/19/81 31/51/69 8/18/82
f 8/18/82 31/51/69 30/50/71
f 47/68/83 48/70/84 9/19/85
f 9/19/85 48/70/84 31/51/86
f 6/21/87 28/47/74 10/20/88
f 10/20/88 28/47/74 32/52/73
f 34/55/89 33/53/90 27/46/59
f 27/46/59 33/53/90 23/41/60
f 53/75/91 54/76/58 35/56/92
f 35/56/92 54/76/58 26/45/57
f 35/56/93 26/45/56 36/57/94
f 36/57/94 26/45/56 25/44/55
f 37/58/95 36/57/96 24/43/53
f 24/43/53 36/57/96 25/44/54
f 33/54/97 37/58/98 23/42/51
f 23/42/51 37/58/98 24/43/52
f 40/61/99 49/71/100 38/59/101
f 31/51/102 48/70/103 40/61/99
f 40/61/99 48/70/103 49/71/100
f 39/60/104 61/85/75 42/63/105
f 42/63/105 61/85/75 34/55/89
f 53/75/106 35/56/107 52/74/108
f 52/74/108 35/56/107 43/64/109
f 38/59/110 60/84/70 40/61/111
f 40/61/111 60/84/70 31/51/69
f 51/73/112 52/74/113 45/66/114
f 45/66/114 52/74/113 43/64/115
f 38/59/110 62/86/116 43/64/117
f 43/64/117 62/86/116 45/66/118
f 38/59/119 49/71/120 62/86/121
f 62/86/121 49/71/120 50/72/122
f 48/70/84 47/68/83 32/52/123
f 32/52/123 47/68/83 10/20/124
f 49/71/100 48/70/103 41/62/125
f 41/62/125 48/70/103 32/52/126
f 49/71/100 41/62/125 39/60/127
f 50/72/122 49/71/120 46/67/128
f 46/67/128 49/71/120 39/60/129
f 51/73/130 50/72/131 44/65/132
f 44/65/132 50/72/131 46/67/133
f 42/63/134 52/74/113 44/65/135
f 44/65/135 52/74/113 51/73/112
f 34/55/136 53/75/106 42/63/137
f 42/63/137 53/75/106 52/74/108
f 53/75/91 34/55/138 54/76/58
f 54/76/58 34/55/138 27/46/139
f 54/76/58 27/46/139 55/77/30
f 55/77/30 27/46/139 22/40/140
f 56/79/32 55/77/30 15/26/141
f 15/26/141 55/77/30 22/40/140
f 17/34/46 56/78/49 15/32/50
f 16/33/39 47/69/43 9/14/41
f 57/81/63 58/82/64 33/54/97
f 33/54/97 58/82/64 37/58/98
f 58/82/67 59/83/68 37/58/95
f 37/58/95 59/83/68 36/57/96
f 60/84/70 35/56/93 59/83/72
f 59/83/72 35/56/93 36/57/94
f 61/85/75 57/80/76 34/55/89
f 34/55/89 57/80/76 33/53/90
f 62/86/142 50/72/131 45/66/143
f 45/66/143 50/72/131 51/73/130
f 39/60/104 42/63/105 46/67/144
f 46/67/144 42/63/105 44/65/145
f 35/56/93 60/84/70 43/64/117
f 43/64/117 60/84/70 38/59/110
f 32/52/73 61/85/75 41/62/146
f 41/62/146 61/85/75 39/60/104
