# This file uses centimeters as units for non-parametric coordinates.

mtllib cactus.mtl
g default
v 0.092264 0.410869 -0.159806
v -0.092264 0.410869 -0.159806
v -0.184528 0.410869 -0.000000
v -0.092264 0.410869 0.159806
v 0.092264 0.410869 0.159806
v 0.184528 0.410869 -0.000000
v 0.115351 1.032526 -0.199793
v -0.115350 1.032526 -0.199793
v -0.215599 1.032526 -0.000000
v -0.115351 1.032526 0.199793
v 0.115351 1.032526 0.199793
v 0.230701 1.016219 0.000000
v 0.000000 0.417452 -0.000000
v 0.000000 1.105519 0.000000
v 0.143728 0.632940 -0.248945
v -0.143728 0.632940 -0.248945
v -0.287456 0.632940 -0.000000
v -0.143728 0.662975 0.248945
v 0.143728 0.662975 0.248945
v 0.287456 0.662975 0.000000
v 0.149104 0.862405 -0.258255
v 0.298208 0.876351 0.000000
v 0.149104 0.892659 0.258255
v -0.149104 0.892659 0.258255
v -0.283106 0.862405 -0.000000
v -0.149104 0.862405 -0.258255
vt 0.578125 0.020934
vt 0.421875 0.020934
vt 0.343750 0.156250
vt 0.421875 0.291566
vt 0.578125 0.291566
vt 0.656250 0.156250
vt 0.375000 0.312500
vt 0.416667 0.312500
vt 0.458333 0.312500
vt 0.500000 0.312500
vt 0.541667 0.312500
vt 0.583333 0.312500
vt 0.625000 0.312500
vt 0.375000 0.688440
vt 0.416667 0.688440
vt 0.458333 0.688440
vt 0.500000 0.688440
vt 0.541667 0.688440
vt 0.583333 0.688440
vt 0.625000 0.688440
vt 0.578125 0.708434
vt 0.421875 0.708434
vt 0.343750 0.843750
vt 0.421875 0.979066
vt 0.578125 0.979066
vt 0.656250 0.843750
vt 0.500000 0.150000
vt 0.500000 0.837500
vt 0.625000 0.542047
vt 0.375000 0.542047
vt 0.416667 0.542047
vt 0.458333 0.542047
vt 0.500000 0.542047
vt 0.541667 0.542047
vt 0.583333 0.542047
vt 0.625000 0.596911
vt 0.375000 0.596911
vt 0.583333 0.596911
vt 0.541667 0.596911
vt 0.500000 0.596911
vt 0.458333 0.596911
vt 0.416667 0.596911
vn 0.000000 -0.150056 -0.988678
vn 0.000000 -0.133957 -0.990987
vn 0.000000 0.061263 -0.998122
vn 0.000000 0.035959 -0.999353
vn -0.868514 -0.114089 -0.482357
vn -0.866005 -0.132373 -0.482195
vn -0.877809 0.056939 -0.475615
vn -0.877173 0.078852 -0.473656
vn -0.888305 0.016841 0.458946
vn -0.876352 0.218856 0.429078
vn -0.888048 0.096795 0.449446
vn 0.000000 -0.131540 0.991311
vn 0.000000 -0.144561 0.989496
vn 0.000000 0.031648 0.999499
vn 0.000000 0.063369 0.997990
vn 0.856113 -0.147969 0.495152
vn 0.857712 -0.134830 0.496135
vn 0.866736 0.051076 0.496145
vn 0.866842 0.044228 0.496618
vn 0.866219 -0.043646 -0.497755
vn 0.853754 0.143050 -0.500640
vn 0.858940 0.103533 -0.501500
vn 0.017826 -0.999364 0.030876
vn -0.017826 -0.999364 0.030876
vn 0.000000 -1.000000 -0.000000
vn 0.035653 -0.999364 -0.000000
vn 0.017826 -0.999364 -0.030876
vn -0.017826 -0.999364 -0.030876
vn -0.035653 -0.999364 0.000000
vn 0.193668 0.952239 -0.236080
vn -0.152965 0.953414 -0.260009
vn 0.021006 0.999779 0.000000
vn -0.320678 0.947188 0.000000
vn -0.152965 0.953413 0.260009
vn 0.193668 0.952239 0.236080
vn 0.360983 0.932572 0.000000
vn 0.000000 -0.372507 -0.928029
vn -0.803697 -0.372507 -0.464015
vn -0.786681 -0.364621 0.498181
vn -0.846628 -0.158758 0.507954
vn -0.821632 -0.262405 0.506028
vn 0.000000 -0.333353 0.942802
vn 0.816491 -0.333352 0.471401
vn 0.803697 -0.372507 -0.464015
vn 0.803697 -0.372507 -0.464015
vn 0.803697 -0.372507 -0.464015
vn 0.810442 0.327677 -0.485604
vn 0.814158 0.379988 0.439039
vn 0.814158 0.379988 0.439039
vn 0.814158 0.379988 0.439039
vn -0.000000 0.385652 0.922644
vn -0.000000 0.385652 0.922644
vn -0.000000 0.385652 0.922644
vn -0.842382 0.334270 0.422677
vn -0.842382 0.334270 0.422677
vn -0.842382 0.334270 0.422677
vn -0.842382 0.334270 -0.422677
vn -0.842382 0.334270 -0.422677
vn -0.842382 0.334270 -0.422677
vn 0.000000 0.324997 -0.945715
vn 0.000000 0.324997 -0.945715
vn 0.000000 0.324997 -0.945715
vn 0.000000 -0.372507 -0.928029
vn 0.000000 -0.372507 -0.928029
vn 0.000000 -0.372507 -0.928029
vn -0.803697 -0.372507 -0.464015
vn -0.803697 -0.372507 -0.464015
vn -0.803697 -0.372507 -0.464015
vn -0.816491 -0.333352 0.471401
vn -0.816491 -0.333352 0.471401
vn -0.816491 -0.333352 0.471401
vn 0.000000 -0.333353 0.942802
vn 0.000000 -0.333353 0.942802
vn 0.000000 -0.333353 0.942802
vn 0.816491 -0.333352 0.471401
vn 0.816491 -0.333352 0.471401
vn 0.816491 -0.333352 0.471401
vn 0.859096 -0.197509 -0.472170
vn 0.857631 -0.208821 -0.469960
vn 0.867422 -0.040444 -0.495927
vn 0.000000 0.324997 -0.945715
vn -0.841809 0.317126 -0.436793
vn -0.842285 0.367924 0.393939
vn -0.000000 0.385652 0.922644
vn 0.807919 0.389940 0.441830
vn 0.831726 -0.339573 -0.439229
vn -0.863182 -0.040603 0.503257
vn 0.810482 0.391177 -0.436003
vn 0.810482 0.391177 -0.436003
vn 0.810482 0.391177 -0.436003
g pCylinder1
usemtl phong2SG
f 15/30/1 16/31/2 26/42/3 21/37/4
f 16/31/5 17/32/6 25/41/7 26/42/8
f 17/32/9 24/40/10 25/41/11
f 18/33/12 19/34/13 23/39/14 24/40/15
f 19/34/16 20/35/17 22/38/18 23/39/19
f 20/35/20 21/36/21 22/38/22
f 2/2/23 1/1/24 13/27/25
f 3/3/26 2/2/23 13/27/25
f 4/4/27 3/3/26 13/27/25
f 5/5/28 4/4/27 13/27/25
f 6/6/29 5/5/28 13/27/25
f 1/1/24 6/6/29 13/27/25
f 7/25/30 8/24/31 14/28/32
f 8/24/31 9/23/33 14/28/32
f 9/23/33 10/22/34 14/28/32
f 10/22/34 11/21/35 14/28/32
f 11/21/35 12/26/36 14/28/32
f 12/26/36 7/25/30 14/28/32
f 1/7/37 16/31/2 15/30/1
f 16/31/5 3/9/38 17/32/6
f 3/9/39 18/33/40 17/32/41
f 18/33/12 5/11/42 19/34/13
f 5/11/43 20/35/17 19/34/16
f 6/12/44 1/13/45 15/29/46
f 22/38/22 21/36/21 7/20/47
f 23/39/48 12/19/49 11/18/50
f 10/17/51 23/39/52 11/18/53
f 25/41/54 10/17/55 9/16/56
f 8/15/57 25/41/58 9/16/59
f 21/37/60 8/15/61 7/14/62
f 1/7/63 2/8/64 16/31/65
f 2/8/66 3/9/67 16/31/68
f 3/9/69 4/10/70 18/33/71
f 4/10/72 5/11/73 18/33/74
f 5/11/75 6/12/76 20/35/77
f 20/35/78 15/29/79 21/36/80
f 21/37/4 26/42/3 8/15/81
f 26/42/8 25/41/7 8/15/82
f 25/41/11 24/40/10 10/17/83
f 24/40/15 23/39/14 10/17/84
f 23/39/19 22/38/18 12/19/85
f 6/12/86 15/29/79 20/35/78
f 17/32/41 18/33/40 24/40/87
f 22/38/88 7/20/89 12/19/90
g default
v 0.000000 1.128917 -0.100000
v 0.072361 1.181490 -0.044721
v -0.027639 1.213982 -0.044721
v -0.089443 1.128916 -0.044721
v -0.027639 1.043851 -0.044721
v 0.072361 1.076343 -0.044721
v 0.089443 1.128917 0.044721
v 0.027639 1.213982 0.044721
v -0.072361 1.181490 0.044721
v -0.072361 1.076343 0.044721
v 0.027639 1.043851 0.044721
v 0.000000 1.128917 0.100000
vt 1.000000 0.500000
vt 0.838104 0.676208
vt 0.088104 0.823792
vt 0.176208 0.500000
vt 0.088104 0.176208
vt 0.838104 0.323792
vt 0.676208 0.500000
vt 0.588104 0.823792
vt 0.338104 0.676208
vt 0.338104 0.323792
vt 0.588104 0.176208
vt 0.500000 0.500000
vt 1.088104 0.823792
vt 1.176208 0.500000
vt 1.088104 0.176208
vn 0.187593 0.577350 -0.794654
vn 0.187593 0.577350 -0.794654
vn 0.187593 0.577350 -0.794654
vn -0.491124 0.356822 -0.794654
vn -0.491123 0.356822 -0.794654
vn -0.491123 0.356822 -0.794654
vn -0.491123 -0.356822 -0.794654
vn -0.491123 -0.356822 -0.794654
vn -0.491123 -0.356822 -0.794654
vn 0.187592 -0.577350 -0.794654
vn 0.187592 -0.577350 -0.794654
vn 0.187592 -0.577350 -0.794654
vn 0.607062 -0.000000 -0.794654
vn 0.607062 -0.000000 -0.794654
vn 0.607062 -0.000000 -0.794654
vn 0.303531 0.934172 -0.187593
vn 0.303531 0.934172 -0.187593
vn 0.303531 0.934172 -0.187593
vn -0.794655 0.577350 -0.187592
vn -0.794654 0.577350 -0.187592
vn -0.794654 0.577350 -0.187592
vn -0.794654 -0.577350 -0.187592
vn -0.794654 -0.577350 -0.187592
vn -0.794654 -0.577350 -0.187592
vn 0.303531 -0.934172 -0.187593
vn 0.303531 -0.934172 -0.187593
vn 0.303531 -0.934172 -0.187593
vn 0.982247 0.000000 -0.187593
vn 0.982247 0.000000 -0.187593
vn 0.982247 0.000000 -0.187593
vn 0.794654 0.577350 0.187592
vn 0.794654 0.577350 0.187592
vn 0.794654 0.577350 0.187592
vn -0.303531 0.934172 0.187593
vn -0.303531 0.934172 0.187593
vn -0.303531 0.934172 0.187593
vn -0.982247 0.000000 0.187593
vn -0.982247 0.000000 0.187593
vn -0.982247 0.000000 0.187593
vn -0.303531 -0.934172 0.187592
vn -0.303531 -0.934172 0.187592
vn -0.303531 -0.934172 0.187592
vn 0.794654 -0.577350 0.187592
vn 0.794654 -0.577350 0.187592
vn 0.794655 -0.577350 0.187592
vn 0.491123 0.356822 0.794654
vn 0.491123 0.356822 0.794654
vn 0.491123 0.356822 0.794654
vn -0.187592 0.577350 0.794654
vn -0.187593 0.577350 0.794654
vn -0.187593 0.577350 0.794654
vn -0.607062 -0.000000 0.794655
vn -0.607062 -0.000000 0.794655
vn -0.607062 -0.000000 0.794655
vn -0.187592 -0.577350 0.794654
vn -0.187592 -0.577350 0.794654
vn -0.187592 -0.577350 0.794654
vn 0.491123 -0.356822 0.794655
vn 0.491123 -0.356822 0.794655
vn 0.491123 -0.356822 0.794655
g pPlatonic1
usemtl phong3SG
f 27/43/91 29/55/92 28/44/93
f 27/43/94 30/56/95 29/55/96
f 27/43/97 31/57/98 30/56/99
f 27/43/100 32/48/101 31/57/102
f 27/43/103 28/44/104 32/48/105
f 28/44/106 29/55/107 34/50/108
f 29/45/109 30/46/110 35/51/111
f 30/46/112 31/47/113 36/52/114
f 31/57/115 32/48/116 37/53/117
f 32/48/118 28/44/119 33/49/120
f 28/44/121 34/50/122 33/49/123
f 29/45/124 35/51/125 34/50/126
f 30/46/127 36/52/128 35/51/129
f 31/47/130 37/53/131 36/52/132
f 32/48/133 33/49/134 37/53/135
f 33/49/136 34/50/137 38/54/138
f 34/50/139 35/51/140 38/54/141
f 35/51/142 36/52/143 38/54/144
f 36/52/145 37/53/146 38/54/147
f 37/53/148 33/49/149 38/54/150
