# This file uses centimeters as units for non-parametric coordinates.

mtllib cactus4.mtl
v 0.051104 0.985030 -0.484561
v 0.531815 1.686238 -0.355219
v -0.271321 1.930618 -0.500770
v -0.611780 0.962793 -0.500495
v -0.003961 -0.095272 -0.074358
v 0.595124 0.479899 -0.082565
v 0.616744 1.158774 0.103692
v 0.096706 2.084788 -0.228964
v -0.642295 1.631212 -0.326050
v -0.578986 0.424873 -0.053396
v 0.181005 0.003693 0.274729
v -0.108896 1.124766 0.121719
vt 1.000000 0.500000
vt 0.838104 0.676208
vt 0.088104 0.823792
vt 0.176208 0.500000
vt 0.088104 0.176208
vt 0.838104 0.323792
vt 0.676208 0.500000
vt 0.588104 0.823792
vt 0.338104 0.676208
vt 0.338104 0.323792
vt 0.588104 0.176208
vt 0.500000 0.500000
vt 1.088104 0.823792
vt 1.176208 0.500000
vt 1.088104 0.176208
vn 0.192478 0.048831 -0.980086
vn 0.192478 0.048831 -0.980086
vn 0.192478 0.048831 -0.980086
vn 0.024325 -0.008841 -0.999665
vn 0.024325 -0.008841 -0.999665
vn 0.024325 -0.008841 -0.999665
vn 0.034396 -0.356304 -0.933737
vn 0.034396 -0.356304 -0.933737
vn 0.034396 -0.356304 -0.933737
vn 0.324191 -0.350208 -0.878780
vn 0.324191 -0.350208 -0.878780
vn 0.324191 -0.350208 -0.878780
vn 0.479024 -0.169524 -0.861277
vn 0.479024 -0.169524 -0.861277
vn 0.479024 -0.169524 -0.861277
vn 0.312766 0.579787 -0.752346
vn 0.312766 0.579787 -0.752346
vn 0.312766 0.579787 -0.752346
vn -0.539368 0.189504 -0.820469
vn -0.539368 0.189504 -0.820469
vn -0.539368 0.189504 -0.820469
vn -0.530421 -0.560763 -0.635766
vn -0.530421 -0.560763 -0.635766
vn -0.530421 -0.560763 -0.635766
vn 0.682563 -0.713217 -0.159467
vn 0.682563 -0.713217 -0.159467
vn 0.682563 -0.713217 -0.159467
vn 0.985996 0.014189 -0.166165
vn 0.985996 0.014189 -0.166165
vn 0.985996 0.014189 -0.166165
vn 0.655663 0.552923 0.514180
vn 0.655664 0.552923 0.514180
vn 0.655663 0.552923 0.514180
vn -0.529727 0.807598 0.259180
vn -0.529727 0.807598 0.259180
vn -0.529727 0.807598 0.259180
vn -0.998689 -0.049246 0.014002
vn -0.998689 -0.049246 0.014002
vn -0.998689 -0.049246 0.014002
vn -0.574773 -0.655176 0.490286
vn -0.574773 -0.655176 0.490286
vn -0.574773 -0.655176 0.490286
vn 0.759381 -0.194530 0.620885
vn 0.759381 -0.194530 0.620885
vn 0.759381 -0.194530 0.620885
vn 0.007332 0.341717 0.939774
vn 0.007332 0.341717 0.939774
vn 0.007332 0.341717 0.939774
vn -0.349410 0.386601 0.853494
vn -0.349410 0.386601 0.853494
vn -0.349410 0.386601 0.853494
vn -0.542563 0.157996 0.825023
vn -0.542563 0.157996 0.825023
vn -0.542563 0.157996 0.825023
vn -0.383701 0.026763 0.923069
vn -0.383701 0.026763 0.923069
vn -0.383701 0.026763 0.923069
vn 0.018044 0.139788 0.990017
vn 0.018044 0.139788 0.990017
vn 0.018044 0.139788 0.990017
usemtl phong1SG
f 1/1/1 3/13/2 2/2/3
f 1/1/4 4/14/5 3/13/6
f 1/1/7 5/15/8 4/14/9
f 1/1/10 6/6/11 5/15/12
f 1/1/13 2/2/14 6/6/15
f 2/2/16 3/13/17 8/8/18
f 3/3/19 4/4/20 9/9/21
f 4/4/22 5/5/23 10/10/24
f 5/15/25 6/6/26 11/11/27
f 6/6/28 2/2/29 7/7/30
f 2/2/31 8/8/32 7/7/33
f 3/3/34 9/9/35 8/8/36
f 4/4/37 10/10/38 9/9/39
f 5/5/40 11/11/41 10/10/42
f 6/6/43 7/7/44 11/11/45
f 7/7/46 8/8/47 12/12/48
f 8/8/49 9/9/50 12/12/51
f 9/9/52 10/10/53 12/12/54
f 10/10/55 11/11/56 12/12/57
f 11/11/58 7/7/59 12/12/60
v -0.573429 1.232005 -0.211334
v -0.384807 1.789902 -0.089285
v -0.938280 1.732710 -0.035937
v -1.073814 1.018226 -0.128516
v -0.467441 0.683472 -0.075502
v -0.090082 1.106107 -0.054016
v -0.198320 1.432818 0.152888
v -0.802007 1.866802 0.086922
v -1.166920 1.401518 0.099297
v -0.744215 0.821116 0.151658
v -0.219708 0.815586 0.146495
v -0.601496 1.220016 0.214676
vt 1.000000 0.500000
vt 0.838104 0.676208
vt 0.088104 0.823792
vt 0.176208 0.500000
vt 0.088104 0.176208
vt 0.838104 0.323792
vt 0.676208 0.500000
vt 0.588104 0.823792
vt 0.338104 0.676208
vt 0.338104 0.323792
vt 0.588104 0.176208
vt 0.500000 0.500000
vt 1.088104 0.823792
vt 1.176208 0.500000
vt 1.088104 0.176208
vn -0.118480 0.250271 -0.960899
vn -0.118480 0.250271 -0.960899
vn -0.118480 0.250271 -0.960899
vn -0.230374 0.167898 -0.958508
vn -0.230374 0.167898 -0.958508
vn -0.230374 0.167898 -0.958508
vn -0.053334 -0.249724 -0.966847
vn -0.053334 -0.249724 -0.966847
vn -0.053334 -0.249724 -0.966847
vn 0.260441 -0.184360 -0.947724
vn 0.260441 -0.184360 -0.947724
vn 0.260441 -0.184360 -0.947725
vn 0.330150 0.093855 -0.939251
vn 0.330150 0.093855 -0.939251
vn 0.330150 0.093855 -0.939251
vn -0.139867 0.742425 -0.655166
vn -0.139867 0.742425 -0.655166
vn -0.139867 0.742425 -0.655166
vn -0.713811 0.221494 -0.664391
vn -0.713811 0.221494 -0.664391
vn -0.713811 0.221494 -0.664391
vn -0.479085 -0.876178 -0.052815
vn -0.479085 -0.876178 -0.052815
vn -0.479085 -0.876178 -0.052815
vn 0.688949 -0.594031 -0.415304
vn 0.688949 -0.594031 -0.415304
vn 0.688949 -0.594031 -0.415304
vn 0.912660 0.386515 -0.132882
vn 0.912660 0.386515 -0.132882
vn 0.912660 0.386515 -0.132882
vn 0.394600 0.647935 0.651515
vn 0.394600 0.647935 0.651515
vn 0.394600 0.647935 0.651515
vn -0.770155 0.609058 0.189500
vn -0.770155 0.609058 0.189500
vn -0.770155 0.609058 0.189500
vn -0.717207 -0.476463 0.508524
vn -0.717207 -0.476463 0.508524
vn -0.717208 -0.476463 0.508524
vn -0.003974 -0.857377 0.514673
vn -0.003974 -0.857377 0.514673
vn -0.003974 -0.857377 0.514673
vn 0.861697 -0.035102 0.506207
vn 0.861697 -0.035102 0.506207
vn 0.861697 -0.035102 0.506207
vn 0.041168 0.205882 0.977710
vn 0.041168 0.205882 0.977710
vn 0.041168 0.205882 0.977710
vn -0.152677 0.145740 0.977471
vn -0.152677 0.145740 0.977471
vn -0.152677 0.145740 0.977471
vn -0.222167 -0.074097 0.972189
vn -0.222167 -0.074097 0.972189
vn -0.222167 -0.074097 0.972189
vn 0.008045 -0.158846 0.987271
vn 0.008045 -0.158846 0.987271
vn 0.008045 -0.158846 0.987271
vn 0.159584 -0.015755 0.987059
vn 0.159584 -0.015755 0.987059
vn 0.159584 -0.015755 0.987059
f 13/16/61 15/28/62 14/17/63
f 13/16/64 16/29/65 15/28/66
f 13/16/67 17/30/68 16/29/69
f 13/16/70 18/21/71 17/30/72
f 13/16/73 14/17/74 18/21/75
f 14/17/76 15/28/77 20/23/78
f 15/18/79 16/19/80 21/24/81
f 16/19/82 17/20/83 22/25/84
f 17/30/85 18/21/86 23/26/87
f 18/21/88 14/17/89 19/22/90
f 14/17/91 20/23/92 19/22/93
f 15/18/94 21/24/95 20/23/96
f 16/19/97 22/25/98 21/24/99
f 17/20/100 23/26/101 22/25/102
f 18/21/103 19/22/104 23/26/105
f 19/22/106 20/23/107 24/27/108
f 20/23/109 21/24/110 24/27/111
f 21/24/112 22/25/113 24/27/114
f 22/25/115 23/26/116 24/27/117
f 23/26/118 19/22/119 24/27/120
v -1.189067 2.634907 -0.131716
v -1.449907 2.620367 -0.240609
v -1.318971 2.834659 -0.318901
v -0.998939 2.798991 -0.195106
v -0.974060 2.406630 -0.076171
v -1.146396 2.338369 -0.093560
v -1.311807 2.451097 -0.275307
v -1.390318 2.778505 -0.375416
v -1.124595 2.859449 -0.357906
v -0.951787 2.587891 -0.252203
v -1.031593 2.323904 -0.136659
v -1.141842 2.578018 -0.318616
vt 1.000000 0.500000
vt 0.838104 0.676208
vt 0.088104 0.823792
vt 0.176208 0.500000
vt 0.088104 0.176208
vt 0.838104 0.323792
vt 0.676208 0.500000
vt 0.588104 0.823792
vt 0.338104 0.676208
vt 0.338104 0.323792
vt 0.588104 0.176208
vt 0.500000 0.500000
vt 1.088104 0.823792
vt 1.176208 0.500000
vt 1.088104 0.176208
vn -0.356341 0.504956 0.786155
vn -0.356341 0.504956 0.786156
vn -0.356341 0.504956 0.786156
vn -0.237812 0.577321 0.781118
vn -0.237812 0.577321 0.781118
vn -0.237812 0.577321 0.781118
vn 0.064932 0.293249 0.953829
vn 0.064932 0.293249 0.953829
vn 0.064932 0.293249 0.953829
vn -0.141413 0.106296 0.984227
vn -0.141413 0.106296 0.984227
vn -0.141413 0.106296 0.984227
vn -0.387459 0.062595 0.919759
vn -0.387459 0.062595 0.919759
vn -0.387459 0.062595 0.919759
vn -0.735209 0.578374 0.353485
vn -0.735209 0.578374 0.353485
vn -0.735209 0.578374 0.353485
vn -0.042487 0.925454 0.376471
vn -0.042487 0.925454 0.376471
vn -0.042487 0.925454 0.376471
vn 0.953615 0.141077 0.265926
vn 0.953615 0.141077 0.265926
vn 0.953615 0.141077 0.265926
vn 0.188954 -0.661846 0.725435
vn 0.188954 -0.661846 0.725435
vn 0.188954 -0.661846 0.725435
vn -0.721788 -0.641923 0.258761
vn -0.721788 -0.641923 0.258761
vn -0.721788 -0.641923 0.258761
vn -0.618519 -0.361620 -0.697614
vn -0.618519 -0.361620 -0.697614
vn -0.618519 -0.361620 -0.697614
vn -0.212318 0.813964 -0.540725
vn -0.212318 0.813964 -0.540725
vn -0.212318 0.813964 -0.540725
vn 0.804234 0.315810 -0.503460
vn 0.804234 0.315810 -0.503460
vn 0.804234 0.315810 -0.503460
vn 0.871973 -0.391974 -0.293291
vn 0.871973 -0.391974 -0.293291
vn 0.871973 -0.391974 -0.293291
vn -0.242798 -0.907767 -0.342064
vn -0.242798 -0.907767 -0.342064
vn -0.242798 -0.907767 -0.342064
vn -0.021444 -0.297030 -0.954627
vn -0.021444 -0.297030 -0.954627
vn -0.021444 -0.297030 -0.954627
vn 0.108673 -0.143977 -0.983596
vn 0.108672 -0.143977 -0.983596
vn 0.108673 -0.143977 -0.983596
vn 0.333084 -0.150363 -0.930831
vn 0.333084 -0.150363 -0.930831
vn 0.333084 -0.150363 -0.930831
vn 0.314263 -0.458775 -0.831122
vn 0.314263 -0.458775 -0.831122
vn 0.314263 -0.458775 -0.831122
vn 0.176508 -0.521273 -0.834937
vn 0.176508 -0.521273 -0.834937
vn 0.176508 -0.521273 -0.834937
f 25/31/121 27/43/122 26/32/123
f 25/31/124 28/44/125 27/43/126
f 25/31/127 29/45/128 28/44/129
f 25/31/130 30/36/131 29/45/132
f 25/31/133 26/32/134 30/36/135
f 26/32/136 27/43/137 32/38/138
f 27/33/139 28/34/140 33/39/141
f 28/34/142 29/35/143 34/40/144
f 29/45/145 30/36/146 35/41/147
f 30/36/148 26/32/149 31/37/150
f 26/32/151 32/38/152 31/37/153
f 27/33/154 33/39/155 32/38/156
f 28/34/157 34/40/158 33/39/159
f 29/35/160 35/41/161 34/40/162
f 30/36/163 31/37/164 35/41/165
f 31/37/166 32/38/167 36/42/168
f 32/38/169 33/39/170 36/42/171
f 33/39/172 34/40/173 36/42/174
f 34/40/175 35/41/176 36/42/177
f 35/41/178 31/37/179 36/42/180
v -0.709778 2.233203 -0.188361
v -0.375677 2.429315 -0.058677
v -0.668133 2.663330 -0.120914
v -1.055844 2.369351 -0.226879
v -0.883229 1.824687 -0.068596
v -0.623306 1.847602 -0.004318
v -0.492740 2.193174 0.121527
v -0.558998 2.677594 -0.012675
v -0.950784 2.621593 -0.081729
v -1.036088 2.148476 0.007844
v -0.781513 1.804784 0.065701
v -0.790047 2.282651 0.086010
vt 1.000000 0.500000
vt 0.838104 0.676208
vt 0.088104 0.823792
vt 0.176208 0.500000
vt 0.088104 0.176208
vt 0.838104 0.323792
vt 0.676208 0.500000
vt 0.588104 0.823792
vt 0.338104 0.676208
vt 0.338104 0.323792
vt 0.588104 0.176208
vt 0.500000 0.500000
vt 1.088104 0.823792
vt 1.176208 0.500000
vt 1.088104 0.176208
vn 0.297386 0.119740 -0.947219
vn 0.297386 0.119740 -0.947219
vn 0.297386 0.119740 -0.947219
vn 0.162818 0.137444 -0.977036
vn 0.162818 0.137444 -0.977036
vn 0.162818 0.137444 -0.977036
vn -0.003320 -0.280030 -0.959985
vn -0.003320 -0.280030 -0.959985
vn -0.003320 -0.280030 -0.959985
vn 0.253641 -0.369742 -0.893844
vn 0.253641 -0.369742 -0.893844
vn 0.253641 -0.369742 -0.893844
vn 0.487482 -0.284649 -0.825431
vn 0.487482 -0.284649 -0.825431
vn 0.487482 -0.284649 -0.825431
vn 0.560452 0.531500 -0.635139
vn 0.560452 0.531500 -0.635139
vn 0.560452 0.531500 -0.635139
vn -0.193763 0.548686 -0.813265
vn -0.193763 0.548686 -0.813265
vn -0.193763 0.548686 -0.813265
vn -0.894842 -0.360210 -0.263641
vn -0.894842 -0.360210 -0.263641
vn -0.894842 -0.360210 -0.263641
vn 0.146860 -0.956267 -0.252954
vn 0.146860 -0.956267 -0.252954
vn 0.146860 -0.956267 -0.252954
vn 0.919047 -0.382246 0.096127
vn 0.919047 -0.382246 0.096127
vn 0.919047 -0.382246 0.096127
vn 0.583162 0.289988 0.758834
vn 0.583162 0.289988 0.758834
vn 0.583162 0.289988 0.758834
vn -0.144046 0.989460 0.014840
vn -0.144046 0.989460 0.014840
vn -0.144046 0.989460 0.014840
vn -0.931531 0.222426 0.287709
vn -0.931531 0.222426 0.287709
vn -0.931531 0.222426 0.287709
vn -0.737883 -0.464051 0.490088
vn -0.737883 -0.464051 0.490088
vn -0.737883 -0.464051 0.490088
vn 0.460461 -0.452158 0.763890
vn 0.460461 -0.452158 0.763890
vn 0.460461 -0.452158 0.763890
vn -0.036292 0.262192 0.964333
vn -0.036293 0.262192 0.964333
vn -0.036292 0.262192 0.964333
vn -0.210994 0.351357 0.912157
vn -0.210994 0.351357 0.912157
vn -0.210994 0.351357 0.912157
vn -0.410597 0.240546 0.879516
vn -0.410597 0.240546 0.879516
vn -0.410597 0.240546 0.879516
vn -0.279718 -0.045751 0.958992
vn -0.279718 -0.045751 0.958992
vn -0.279718 -0.045751 0.958992
vn -0.131678 -0.044438 0.990296
vn -0.131678 -0.044438 0.990296
vn -0.131678 -0.044438 0.990296
f 37/46/181 39/58/182 38/47/183
f 37/46/184 40/59/185 39/58/186
f 37/46/187 41/60/188 40/59/189
f 37/46/190 42/51/191 41/60/192
f 37/46/193 38/47/194 42/51/195
f 38/47/196 39/58/197 44/53/198
f 39/48/199 40/49/200 45/54/201
f 40/49/202 41/50/203 46/55/204
f 41/60/205 42/51/206 47/56/207
f 42/51/208 38/47/209 43/52/210
f 38/47/211 44/53/212 43/52/213
f 39/48/214 45/54/215 44/53/216
f 40/49/217 46/55/218 45/54/219
f 41/50/220 47/56/221 46/55/222
f 42/51/223 43/52/224 47/56/225
f 43/52/226 44/53/227 48/57/228
f 44/53/229 45/54/230 48/57/231
f 45/54/232 46/55/233 48/57/234
f 46/55/235 47/56/236 48/57/237
f 47/56/238 43/52/239 48/57/240
v -1.304277 2.880021 -0.287692
v -1.393425 2.820419 -0.344014
v -1.306557 2.738705 -0.328063
v -1.316777 2.837475 -0.187508
v -1.463275 2.765322 -0.257881
v -1.339433 2.714693 -0.321954
v -1.323752 2.700569 -0.229967
v -1.407035 2.770685 -0.173338
vt 1.000000 0.500000
vt 0.838104 0.676208
vt 0.088104 0.823792
vt 0.088104 0.176208
vt 0.676208 0.500000
vt 0.588104 0.823792
vt 0.338104 0.676208
vt 0.588104 0.176208
vt 1.088104 0.823792
vt 1.088104 0.176208
vn 0.394448 0.246532 -0.885231
vn 0.394448 0.246531 -0.885231
vn 0.394448 0.246531 -0.885231
vn 0.579600 -0.678592 0.451195
vn 0.579600 -0.678592 0.451195
vn 0.579600 -0.678592 0.451195
vn 0.579600 -0.678592 0.451195
vn 0.579600 -0.678592 0.451195
vn 0.579600 -0.678592 0.451195
vn 0.579600 -0.678592 0.451195
vn -0.549119 0.808314 0.212361
vn -0.549119 0.808313 0.212361
vn -0.549119 0.808313 0.212361
vn -0.549119 0.808313 0.212361
vn -0.549119 0.808313 0.212361
vn -0.023774 -0.215820 -0.976144
vn -0.023774 -0.215820 -0.976144
vn -0.023774 -0.215820 -0.976144
vn -0.547240 -0.429376 -0.718446
vn -0.547240 -0.429376 -0.718446
vn -0.547240 -0.429376 -0.718446
vn 0.549000 -0.807026 -0.217502
vn 0.549000 -0.807027 -0.217502
vn 0.549000 -0.807026 -0.217502
usemtl pasted__phong3SG
f 49/61/241 51/69/242 50/62/243
f 55/67/244 51/69/245 49/61/246 52/64/247 56/68/248 53/65/249 54/66/250
f 56/68/251 52/70/252 49/61/253 50/62/254 53/65/255
f 50/62/256 51/69/257 54/66/258
f 50/62/259 54/66/260 53/65/261
f 51/63/262 55/67/263 54/66/264
v 0.828753 2.548755 0.249274
v 0.754557 2.551932 0.153583
v 0.734282 2.445140 0.205179
v 0.754343 2.563705 0.328286
v 0.644220 2.593142 0.191807
v 0.695920 2.454108 0.193232
v 0.661394 2.465443 0.280332
v 0.649281 2.586882 0.293170
vt 1.000000 0.500000
vt 0.838104 0.676208
vt 0.088104 0.823792
vt 0.088104 0.176208
vt 0.676208 0.500000
vt 0.588104 0.823792
vt 0.338104 0.676208
vt 0.588104 0.176208
vt 1.088104 0.823792
vt 1.088104 0.176208
vn 0.714253 -0.409745 -0.567408
vn 0.714253 -0.409745 -0.567408
vn 0.714253 -0.409745 -0.567408
vn -0.357945 -0.682010 0.637760
vn -0.357945 -0.682010 0.637760
vn -0.357945 -0.682010 0.637760
vn -0.357945 -0.682010 0.637760
vn -0.357945 -0.682010 0.637760
vn -0.357945 -0.682010 0.637760
vn -0.357945 -0.682010 0.637760
vn 0.239807 0.970121 -0.036846
vn 0.239807 0.970121 -0.036845
vn 0.239807 0.970121 -0.036845
vn 0.239807 0.970121 -0.036846
vn 0.239807 0.970121 -0.036846
vn 0.166302 -0.454393 -0.875141
vn 0.166302 -0.454393 -0.875141
vn 0.166302 -0.454393 -0.875141
vn -0.372631 -0.147956 -0.916108
vn -0.372631 -0.147956 -0.916109
vn -0.372631 -0.147956 -0.916108
vn -0.237085 -0.970949 0.032373
vn -0.237086 -0.970949 0.032373
vn -0.237085 -0.970949 0.032373
f 57/71/265 59/79/266 58/72/267
f 63/77/268 59/79/269 57/71/270 60/74/271 64/78/272 61/75/273 62/76/274
f 64/78/275 60/80/276 57/71/277 58/72/278 61/75/279
f 58/72/280 59/79/281 62/76/282
f 58/72/283 62/76/284 61/75/285
f 59/73/286 63/77/287 62/76/288
v 0.711805 1.989640 -0.126870
v 1.178491 2.078098 0.242050
v 0.814803 2.502525 0.248531
v 0.249290 2.285632 -0.164483
v 0.309277 1.599442 -0.254498
v 0.818186 1.485778 -0.031847
v 0.919035 1.690276 0.298721
v 0.939101 2.426042 0.422731
v 0.391911 2.500509 0.210973
v 0.170738 1.847729 0.003013
v 0.453136 1.405722 0.009860
v 0.518322 1.909925 0.245455
vt 1.000000 0.500000
vt 0.838104 0.676208
vt 0.088104 0.823792
vt 0.176208 0.500000
vt 0.088104 0.176208
vt 0.838104 0.323792
vt 0.676208 0.500000
vt 0.588104 0.823792
vt 0.338104 0.676208
vt 0.338104 0.323792
vt 0.588104 0.176208
vt 0.500000 0.500000
vt 1.088104 0.823792
vt 1.176208 0.500000
vt 1.088104 0.176208
vn 0.503054 0.442399 -0.742442
vn 0.503054 0.442399 -0.742442
vn 0.503054 0.442399 -0.742442
vn 0.380456 0.495251 -0.781012
vn 0.380456 0.495251 -0.781012
vn 0.380456 0.495251 -0.781012
vn 0.170677 0.142812 -0.974923
vn 0.170677 0.142812 -0.974923
vn 0.170677 0.142812 -0.974923
vn 0.381611 -0.092866 -0.919646
vn 0.381611 -0.092866 -0.919646
vn 0.381611 -0.092866 -0.919646
vn 0.621965 -0.016326 -0.782875
vn 0.621965 -0.016326 -0.782875
vn 0.621965 -0.016326 -0.782875
vn 0.734159 0.632850 -0.245990
vn 0.734159 0.632850 -0.245990
vn 0.734159 0.632850 -0.245990
vn 0.041014 0.860388 -0.507987
vn 0.041014 0.860388 -0.507987
vn 0.041014 0.860388 -0.507987
vn -0.887307 -0.017111 -0.460862
vn -0.887307 -0.017111 -0.460862
vn -0.887307 -0.017111 -0.460862
vn 0.099073 -0.776173 -0.622688
vn 0.099073 -0.776173 -0.622687
vn 0.099073 -0.776173 -0.622688
vn 0.833845 -0.545694 0.083194
vn 0.833845 -0.545694 0.083194
vn 0.833845 -0.545694 0.083194
vn 0.434505 -0.161203 0.886126
vn 0.434505 -0.161203 0.886126
vn 0.434506 -0.161203 0.886126
vn -0.042206 0.903384 0.426751
vn -0.042206 0.903384 0.426751
vn -0.042206 0.903384 0.426751
vn -0.943787 0.251394 0.214630
vn -0.943787 0.251394 0.214630
vn -0.943787 0.251394 0.214630
vn -0.841383 -0.536555 0.064681
vn -0.841383 -0.536555 0.064681
vn -0.841383 -0.536555 0.064681
vn 0.240037 -0.856624 0.456702
vn 0.240037 -0.856624 0.456703
vn 0.240038 -0.856624 0.456702
vn -0.214044 -0.156671 0.964178
vn -0.214044 -0.156671 0.964178
vn -0.214044 -0.156671 0.964178
vn -0.363584 -0.023450 0.931266
vn -0.363584 -0.023450 0.931266
vn -0.363584 -0.023450 0.931266
vn -0.561880 -0.072153 0.824066
vn -0.561880 -0.072153 0.824066
vn -0.561880 -0.072153 0.824066
vn -0.505760 -0.310662 0.804796
vn -0.505760 -0.310662 0.804796
vn -0.505760 -0.310662 0.804796
vn -0.317588 -0.367401 0.874159
vn -0.317588 -0.367401 0.874159
vn -0.317588 -0.367401 0.874159
usemtl phong1SG
f 65/81/289 67/93/290 66/82/291
f 65/81/292 68/94/293 67/93/294
f 65/81/295 69/95/296 68/94/297
f 65/81/298 70/86/299 69/95/300
f 65/81/301 66/82/302 70/86/303
f 66/82/304 67/93/305 72/88/306
f 67/83/307 68/84/308 73/89/309
f 68/84/310 69/85/311 74/90/312
f 69/95/313 70/86/314 75/91/315
f 70/86/316 66/82/317 71/87/318
f 66/82/319 72/88/320 71/87/321
f 67/83/322 73/89/323 72/88/324
f 68/84/325 74/90/326 73/89/327
f 69/85/328 75/91/329 74/90/330
f 70/86/331 71/87/332 75/91/333
f 71/87/334 72/88/335 76/92/336
f 72/88/337 73/89/338 76/92/339
f 73/89/340 74/90/341 76/92/342
f 74/90/343 75/91/344 76/92/345
f 75/91/346 71/87/347 76/92/348
v -0.999230 2.864623 -0.234333
v -1.108153 2.906385 -0.266948
v -1.111761 2.788405 -0.290304
v -1.028243 2.813409 -0.141929
v -1.185318 2.891427 -0.171264
v -1.150468 2.793775 -0.277353
v -1.140720 2.743961 -0.197789
v -1.135451 2.828437 -0.108935
vt 1.000000 0.500000
vt 0.838104 0.676208
vt 0.088104 0.823792
vt 0.088104 0.176208
vt 0.676208 0.500000
vt 0.588104 0.823792
vt 0.338104 0.676208
vt 0.588104 0.176208
vt 1.088104 0.823792
vt 1.088104 0.176208
vn 0.342609 0.172352 -0.923533
vn 0.342609 0.172352 -0.923533
vn 0.342609 0.172352 -0.923533
vn -0.086245 -0.984874 0.150282
vn -0.086245 -0.984874 0.150282
vn -0.086245 -0.984874 0.150282
vn -0.086245 -0.984874 0.150282
vn -0.086245 -0.984874 0.150282
vn -0.086245 -0.984874 0.150282
vn -0.086245 -0.984874 0.150282
vn 0.277712 0.831821 0.480573
vn 0.277712 0.831821 0.480573
vn 0.277712 0.831821 0.480573
vn 0.277712 0.831821 0.480573
vn 0.277712 0.831821 0.480573
vn -0.286871 0.194471 -0.938022
vn -0.286871 0.194471 -0.938022
vn -0.286871 0.194471 -0.938022
vn -0.758037 0.336469 -0.558721
vn -0.758037 0.336469 -0.558721
vn -0.758037 0.336469 -0.558721
vn -0.277391 -0.829242 -0.485193
vn -0.277391 -0.829242 -0.485193
vn -0.277391 -0.829242 -0.485193
usemtl pasted__phong3SG
f 77/96/349 79/104/350 78/97/351
f 83/102/352 79/104/353 77/96/354 80/99/355 84/103/356 81/100/357 82/101/358
f 84/103/359 80/105/360 77/96/361 78/97/362 81/100/363
f 78/97/364 79/104/365 82/101/366
f 78/97/367 82/101/368 81/100/369
f 79/98/370 83/102/371 82/101/372
