# This file uses centimeters as units for non-parametric coordinates.

mtllib cactus.mtl
g default
v 0.092264 0.019305 -0.189089
v -0.092264 0.019305 -0.189089
v -0.184528 0.003437 -0.030073
v -0.082337 0.007242 0.138826
v 0.092264 -0.012431 0.128943
v 0.184528 0.008931 -0.030073
v 0.083146 0.614568 -0.130507
v -0.115350 0.614568 -0.167151
v -0.215599 0.594730 0.031655
v -0.115351 0.574891 0.230461
v 0.074068 0.574891 0.208876
v 0.179959 0.578503 0.030036
v 0.000000 -0.068487 -0.029419
v 0.000000 0.667362 0.038903
v 0.143728 0.221838 -0.255736
v -0.143728 0.221838 -0.255736
v -0.287456 0.197119 -0.008022
v -0.143728 0.202286 0.242675
v 0.143728 0.155362 0.242675
v 0.287456 0.227005 -0.005040
v 0.149104 0.477107 -0.242216
v 0.298208 0.412358 0.016148
v 0.149104 0.372000 0.274746
v -0.149104 0.396166 0.274746
v -0.283106 0.487430 0.014763
v -0.149104 0.451093 -0.242216
vt 0.578125 0.020934
vt 0.421875 0.020934
vt 0.343750 0.156250
vt 0.421875 0.291566
vt 0.578125 0.291566
vt 0.656250 0.156250
vt 0.375000 0.312500
vt 0.416667 0.312500
vt 0.458333 0.312500
vt 0.500000 0.312500
vt 0.541667 0.312500
vt 0.583333 0.312500
vt 0.625000 0.312500
vt 0.375000 0.688440
vt 0.416667 0.688440
vt 0.458333 0.688440
vt 0.500000 0.688440
vt 0.541667 0.688440
vt 0.583333 0.688440
vt 0.625000 0.688440
vt 0.578125 0.708434
vt 0.421875 0.708434
vt 0.343750 0.843750
vt 0.421875 0.979066
vt 0.578125 0.979066
vt 0.656250 0.843750
vt 0.500000 0.150000
vt 0.500000 0.837500
vt 0.625000 0.542047
vt 0.375000 0.542047
vt 0.416667 0.542047
vt 0.458333 0.542047
vt 0.500000 0.542047
vt 0.541667 0.542047
vt 0.583333 0.542047
vt 0.625000 0.596911
vt 0.375000 0.596911
vt 0.583333 0.596911
vt 0.541667 0.596911
vt 0.500000 0.596911
vt 0.458333 0.596911
vt 0.416667 0.596911
vn 0.000000 -0.091302 -0.995823
vn -0.015178 0.183009 -0.982994
vn -0.000845 -0.112221 -0.993683
vn -0.017106 0.196095 -0.980436
vn -0.849821 -0.142873 -0.507338
vn -0.851440 -0.152975 -0.501645
vn -0.870154 0.120897 -0.477720
vn -0.858581 0.192932 -0.474989
vn -0.891797 -0.022103 0.451896
vn -0.878577 0.059820 0.473840
vn -0.867284 0.109782 0.485558
vn -0.063717 -0.390334 0.918466
vn -0.005476 -0.032282 0.999464
vn -0.040705 -0.266527 0.962968
vn 0.004497 0.055487 0.998449
vn 0.855376 -0.327037 0.401720
vn 0.869952 -0.209809 0.446278
vn 0.853147 0.118238 0.508095
vn 0.830869 0.216102 0.512793
vn 0.866824 0.006711 -0.498569
vn 0.824197 0.430677 -0.367718
vn 0.870277 0.188881 -0.454908
vn -0.173068 -0.901853 -0.395865
vn 0.191008 -0.902557 -0.385885
vn -0.010555 -0.997439 -0.070741
vn -0.363118 -0.931697 -0.009239
vn -0.228586 -0.924724 0.304359
vn 0.145714 -0.956271 0.253600
vn 0.384794 -0.917976 -0.096200
vn 0.236075 0.954611 -0.181623
vn -0.163892 0.973784 -0.157749
vn 0.015543 0.994435 0.104197
vn -0.320678 0.942507 0.094052
vn -0.154498 0.922967 0.352510
vn 0.239735 0.892840 0.381266
vn 0.444270 0.887629 0.121404
vn 0.000000 -0.312581 -0.949891
vn -0.789637 -0.363348 -0.494420
vn -0.766805 -0.458631 0.449074
vn -0.840787 -0.236627 0.486913
vn -0.806947 -0.357673 0.470007
vn -0.088182 -0.540208 0.836899
vn 0.813409 -0.476054 0.334273
vn 0.795858 -0.361956 -0.485384
vn 0.795858 -0.361956 -0.485384
vn 0.795858 -0.361956 -0.485384
vn 0.752614 0.593271 -0.285659
vn 0.770521 0.435940 0.465030
vn 0.770521 0.435940 0.465030
vn 0.770521 0.435940 0.465030
vn 0.106375 0.342411 0.933509
vn 0.106375 0.342411 0.933509
vn 0.106375 0.342411 0.933509
vn -0.789432 0.427281 0.440713
vn -0.789432 0.427281 0.440713
vn -0.789432 0.427281 0.440713
vn -0.772548 0.538903 -0.335786
vn -0.772548 0.538903 -0.335786
vn -0.772548 0.538903 -0.335786
vn 0.135859 0.663265 -0.735949
vn 0.135859 0.663265 -0.735949
vn 0.135859 0.663265 -0.735949
vn 0.000000 -0.312581 -0.949891
vn 0.000000 -0.312581 -0.949891
vn 0.000000 -0.312581 -0.949891
vn -0.789637 -0.363348 -0.494420
vn -0.789637 -0.363348 -0.494420
vn -0.789637 -0.363348 -0.494420
vn -0.745479 -0.480559 0.461870
vn -0.745479 -0.480559 0.461870
vn -0.745479 -0.480559 0.461870
vn -0.003098 -0.470728 0.882273
vn -0.003098 -0.470728 0.882273
vn -0.003098 -0.470728 0.882273
vn 0.805723 -0.427367 0.410082
vn 0.805723 -0.427367 0.410082
vn 0.805723 -0.427367 0.410082
vn 0.859419 -0.146984 -0.489688
vn 0.857675 -0.160794 -0.488404
vn 0.867437 0.008081 -0.497481
vn -0.036926 0.423298 -0.905238
vn -0.797022 0.380085 -0.469353
vn -0.809466 0.280666 0.515744
vn 0.019210 0.237048 0.971308
vn 0.727436 0.476456 0.493787
vn 0.820637 -0.334115 -0.463597
vn -0.861708 -0.105975 0.496214
vn 0.756180 0.565685 -0.328924
vn 0.756180 0.565685 -0.328924
vn 0.756180 0.565685 -0.328924
g pCylinder1
usemtl phong2SG
f 16/31/1 26/42/2 15/30/3
f 15/30/3 26/42/2 21/37/4
f 16/31/5 17/32/6 26/42/7
f 26/42/7 17/32/6 25/41/8
f 17/32/9 24/40/10 25/41/11
f 19/34/12 23/39/13 18/33/14
f 18/33/14 23/39/13 24/40/15
f 19/34/16 20/35/17 23/39/18
f 23/39/18 20/35/17 22/38/19
f 20/35/20 21/36/21 22/38/22
f 2/2/23 1/1/24 13/27/25
f 3/3/26 2/2/23 13/27/25
f 4/4/27 3/3/26 13/27/25
f 5/5/28 4/4/27 13/27/25
f 6/6/29 5/5/28 13/27/25
f 1/1/24 6/6/29 13/27/25
f 7/25/30 8/24/31 14/28/32
f 8/24/31 9/23/33 14/28/32
f 9/23/33 10/22/34 14/28/32
f 10/22/34 11/21/35 14/28/32
f 11/21/35 12/26/36 14/28/32
f 12/26/36 7/25/30 14/28/32
f 1/7/37 16/31/1 15/30/3
f 16/31/5 3/9/38 17/32/6
f 3/9/39 18/33/40 17/32/41
f 18/33/14 5/11/42 19/34/12
f 5/11/43 20/35/17 19/34/16
f 6/12/44 1/13/45 15/29/46
f 22/38/22 21/36/21 7/20/47
f 23/39/48 12/19/49 11/18/50
f 10/17/51 23/39/52 11/18/53
f 25/41/54 10/17/55 9/16/56
f 8/15/57 25/41/58 9/16/59
f 21/37/60 8/15/61 7/14/62
f 1/7/63 2/8/64 16/31/65
f 2/8/66 3/9/67 16/31/68
f 3/9/69 4/10/70 18/33/71
f 4/10/72 5/11/73 18/33/74
f 5/11/75 6/12/76 20/35/77
f 20/35/78 15/29/79 21/36/80
f 21/37/4 26/42/2 8/15/81
f 26/42/7 25/41/8 8/15/82
f 25/41/11 24/40/10 10/17/83
f 24/40/15 23/39/13 10/17/84
f 23/39/18 22/38/19 12/19/85
f 6/12/86 15/29/79 20/35/78
f 17/32/41 18/33/40 24/40/87
f 22/38/88 7/20/89 12/19/90
g default
v 0.000000 0.729387 -0.057497
v 0.072361 0.776211 0.002729
v -0.027639 0.808543 0.005955
v -0.089443 0.723898 -0.002491
v -0.027639 0.639253 -0.010938
v 0.072361 0.671585 -0.007712
v 0.089443 0.715017 0.086509
v 0.027639 0.799661 0.094956
v -0.072361 0.767330 0.091730
v -0.072361 0.662703 0.081289
v 0.027639 0.630372 0.078063
v 0.000000 0.709528 0.141515
vt 1.000000 0.500000
vt 0.838104 0.676208
vt 0.088104 0.823792
vt 0.176208 0.500000
vt 0.088104 0.176208
vt 0.838104 0.323792
vt 0.676208 0.500000
vt 0.588104 0.823792
vt 0.338104 0.676208
vt 0.338104 0.323792
vt 0.588104 0.176208
vt 0.500000 0.500000
vt 1.088104 0.823792
vt 1.176208 0.500000
vt 1.088104 0.176208
vn 0.187593 0.653403 -0.733399
vn 0.187593 0.653403 -0.733399
vn 0.187593 0.653403 -0.733399
vn -0.491124 0.433964 -0.755296
vn -0.491123 0.433964 -0.755296
vn -0.491123 0.433964 -0.755296
vn -0.491123 -0.276153 -0.826158
vn -0.491123 -0.276153 -0.826158
vn -0.491123 -0.276153 -0.826158
vn 0.187592 -0.495591 -0.848056
vn 0.187592 -0.495591 -0.848056
vn 0.187592 -0.495591 -0.848056
vn 0.607062 0.078906 -0.790727
vn 0.607062 0.078906 -0.790727
vn 0.607062 0.078906 -0.790727
vn 0.303531 0.948183 -0.093906
vn 0.303531 0.948183 -0.093906
vn 0.303531 0.948183 -0.093906
vn -0.794655 0.593124 -0.129337
vn -0.794655 0.593124 -0.129337
vn -0.794655 0.593124 -0.129337
vn -0.794654 -0.555870 -0.243994
vn -0.794654 -0.555870 -0.243994
vn -0.794654 -0.555870 -0.243994
vn 0.303531 -0.910929 -0.279425
vn 0.303531 -0.910929 -0.279425
vn 0.303531 -0.910929 -0.279425
vn 0.982247 0.018627 -0.186665
vn 0.982247 0.018627 -0.186665
vn 0.982247 0.018627 -0.186666
vn 0.794654 0.555870 0.243994
vn 0.794654 0.555870 0.243994
vn 0.794654 0.555870 0.243994
vn -0.303531 0.910929 0.279425
vn -0.303531 0.910929 0.279425
vn -0.303531 0.910929 0.279425
vn -0.982247 -0.018627 0.186665
vn -0.982247 -0.018627 0.186665
vn -0.982247 -0.018627 0.186665
vn -0.303531 -0.948183 0.093906
vn -0.303531 -0.948183 0.093906
vn -0.303531 -0.948183 0.093906
vn 0.794654 -0.593124 0.129337
vn 0.794654 -0.593124 0.129337
vn 0.794655 -0.593124 0.129337
vn 0.491123 0.276153 0.826158
vn 0.491123 0.276153 0.826158
vn 0.491123 0.276153 0.826158
vn -0.187592 0.495591 0.848056
vn -0.187593 0.495591 0.848056
vn -0.187593 0.495591 0.848056
vn -0.607062 -0.078906 0.790727
vn -0.607062 -0.078906 0.790727
vn -0.607062 -0.078906 0.790727
vn -0.187592 -0.653403 0.733399
vn -0.187592 -0.653403 0.733399
vn -0.187592 -0.653403 0.733399
vn 0.491123 -0.433964 0.755297
vn 0.491123 -0.433964 0.755297
vn 0.491123 -0.433964 0.755297
g pPlatonic1
usemtl phong3SG
f 27/43/91 29/55/92 28/44/93
f 27/43/94 30/56/95 29/55/96
f 27/43/97 31/57/98 30/56/99
f 27/43/100 32/48/101 31/57/102
f 27/43/103 28/44/104 32/48/105
f 28/44/106 29/55/107 34/50/108
f 29/45/109 30/46/110 35/51/111
f 30/46/112 31/47/113 36/52/114
f 31/57/115 32/48/116 37/53/117
f 32/48/118 28/44/119 33/49/120
f 28/44/121 34/50/122 33/49/123
f 29/45/124 35/51/125 34/50/126
f 30/46/127 36/52/128 35/51/129
f 31/47/130 37/53/131 36/52/132
f 32/48/133 33/49/134 37/53/135
f 33/49/136 34/50/137 38/54/138
f 34/50/139 35/51/140 38/54/141
f 35/51/142 36/52/143 38/54/144
f 36/52/145 37/53/146 38/54/147
f 37/53/148 33/49/149 38/54/150
