# This file uses centimeters as units for non-parametric coordinates.

mtllib cactus3.mtl
v 0.165568 -0.110507 -0.088818
v 0.117415 -0.110507 -0.236265
v -0.000163 -0.110507 -0.139129
v -0.160332 -0.110507 -0.146020
v -0.107239 -0.110507 -0.017079
v -0.160332 -0.110507 0.146020
v -0.028451 -0.110507 0.152662
v 0.117415 -0.110507 0.236265
v 0.166865 -0.110507 0.093258
v 0.289072 -0.110507 -0.000000
v 0.148472 2.882040 -0.137421
v 0.100582 2.885713 -0.221980
v 0.019110 2.879244 -0.178859
v -0.092977 2.886028 -0.170403
v -0.074490 2.888588 -0.070578
v -0.085922 2.899062 0.034374
v 0.000259 2.896081 0.050176
v 0.100582 2.902378 0.094882
v 0.148020 2.890874 0.017060
v 0.215847 2.894127 -0.063553
v 0.033988 -0.110507 0.000894
v 0.059458 2.932944 -0.067086
v 0.208186 2.285215 -0.159148
v 0.149775 2.395653 -0.390887
v -0.028260 2.403694 -0.237670
v -0.256921 2.507754 -0.253044
v -0.180947 2.498694 -0.067297
v -0.258084 2.425020 0.170931
v -0.068608 2.447608 0.179288
v 0.140451 2.432105 0.300229
v 0.210061 2.300375 0.101674
v 0.385852 2.332760 -0.034029
v 0.205210 2.640283 -0.172519
v 0.352385 2.677053 -0.052136
v 0.217484 2.645029 0.087214
v 0.133029 2.739126 0.247644
v -0.053565 2.755321 0.139560
v -0.222731 2.732801 0.132224
v -0.154048 2.782808 -0.079605
v -0.203172 2.800719 -0.232865
v -0.024397 2.707015 -0.244059
v 0.133029 2.707337 -0.356774
v 0.201461 1.829013 -0.134838
v 0.133157 1.873932 -0.348538
v -0.035131 1.881962 -0.209734
v -0.264379 1.882436 -0.219636
v -0.187934 1.932596 -0.037463
v -0.275373 2.013521 0.192053
v -0.075167 1.944869 0.205184
v 0.133157 1.909454 0.326875
v 0.203498 1.859217 0.124543
v 0.383447 1.890437 -0.013489
v 0.189976 0.504152 -0.109966
v 0.130358 0.551115 -0.292523
v -0.015215 0.518496 -0.172257
v -0.213519 0.516315 -0.180789
v -0.147785 0.506796 -0.021146
v -0.213519 0.443304 0.180789
v -0.050240 0.443612 0.189013
v 0.130358 0.443953 0.292523
v 0.191581 0.444068 0.115463
v 0.342885 0.503469 -0.000000
vt 0.626409 0.064409
vt 0.548284 0.007647
vt 0.451716 0.007647
vt 0.373591 0.064409
vt 0.343750 0.156250
vt 0.373591 0.248091
vt 0.451716 0.304853
vt 0.548284 0.304853
vt 0.626409 0.248091
vt 0.656250 0.156250
vt 0.375000 0.312500
vt 0.400000 0.312500
vt 0.425000 0.312500
vt 0.450000 0.312500
vt 0.475000 0.312500
vt 0.500000 0.312500
vt 0.525000 0.312500
vt 0.550000 0.312500
vt 0.575000 0.312500
vt 0.600000 0.312500
vt 0.625000 0.312500
vt 0.375000 0.688440
vt 0.400000 0.688440
vt 0.425000 0.688440
vt 0.450000 0.688440
vt 0.475000 0.688440
vt 0.500000 0.688440
vt 0.525000 0.688440
vt 0.550000 0.688440
vt 0.575000 0.688440
vt 0.600000 0.688440
vt 0.625000 0.688440
vt 0.626409 0.751909
vt 0.548284 0.695147
vt 0.451716 0.695147
vt 0.373591 0.751909
vt 0.343750 0.843750
vt 0.373591 0.935591
vt 0.451716 0.992353
vt 0.548284 0.992353
vt 0.626409 0.935591
vt 0.656250 0.843750
vt 0.500000 0.150000
vt 0.500000 0.837500
vt 0.625000 0.641363
vt 0.375000 0.641363
vt 0.400000 0.641363
vt 0.425000 0.641363
vt 0.450000 0.641363
vt 0.475000 0.641363
vt 0.500000 0.641363
vt 0.525000 0.641363
vt 0.550000 0.641363
vt 0.575000 0.641363
vt 0.600000 0.641363
vt 0.625000 0.668228
vt 0.375000 0.668228
vt 0.600000 0.668228
vt 0.575000 0.668228
vt 0.550000 0.668228
vt 0.525000 0.668228
vt 0.500000 0.668228
vt 0.475000 0.668228
vt 0.450000 0.668228
vt 0.425000 0.668228
vt 0.400000 0.668228
vt 0.625000 0.491599
vt 0.375000 0.491599
vt 0.400000 0.491599
vt 0.425000 0.491599
vt 0.450000 0.491599
vt 0.475000 0.491599
vt 0.500000 0.491599
vt 0.525000 0.491599
vt 0.550000 0.491599
vt 0.575000 0.491599
vt 0.600000 0.491599
vt 0.625000 0.358567
vt 0.375000 0.358567
vt 0.400000 0.358567
vt 0.425000 0.358567
vt 0.450000 0.358567
vt 0.475000 0.358567
vt 0.500000 0.358567
vt 0.525000 0.358567
vt 0.550000 0.358567
vt 0.575000 0.358567
vt 0.600000 0.358567
vn 0.962806 -0.034740 -0.267951
vn 0.962886 -0.011738 -0.269655
vn 0.948681 0.124636 -0.290636
vn 0.935130 0.196486 -0.294830
vn -0.652509 -0.009023 -0.757727
vn -0.642661 -0.013859 -0.766025
vn -0.600505 0.142430 -0.786834
vn -0.571009 0.157898 -0.805616
vn 0.045957 -0.046585 -0.997857
vn 0.037521 -0.027436 -0.998919
vn 0.030816 0.110462 -0.993403
vn 0.039280 0.192088 -0.980591
vn -0.922204 0.068955 0.380507
vn -0.924887 0.062385 0.375088
vn -0.907680 0.238306 0.345438
vn -0.914124 0.265437 0.306466
vn -0.949971 0.018778 -0.311773
vn -0.948684 0.173754 -0.264214
vn -0.953363 0.030296 -0.300303
vn -0.925673 0.298932 -0.231882
vn -0.053671 0.082029 0.995184
vn -0.053936 0.087612 0.994693
vn -0.072293 0.229210 0.970689
vn -0.085175 0.324193 0.942149
vn -0.494694 0.079967 0.865381
vn -0.466864 0.262007 0.844624
vn -0.494137 0.084549 0.865263
vn -0.455565 0.311352 0.833979
vn 0.943956 0.000940 0.330071
vn 0.922560 0.145640 0.357313
vn 0.938312 0.013852 0.345514
vn 0.909959 0.239419 0.338605
vn 0.607145 0.028263 0.794089
vn 0.621894 0.039395 0.782110
vn 0.661755 0.186473 0.726160
vn 0.670463 0.236208 0.703339
vn 0.578753 -0.037125 -0.814657
vn 0.605801 0.104436 -0.788732
vn 0.588503 -0.027256 -0.808036
vn 0.607533 0.132396 -0.783183
vn 0.000000 -1.000000 -0.000000
vn 0.000000 -1.000000 0.000000
vn 0.000000 -1.000000 -0.000000
vn 0.000000 -1.000000 -0.000000
vn 0.000000 -1.000000 0.000000
vn 0.000000 -1.000000 0.000000
vn 0.000000 -1.000000 0.000000
vn 0.000000 -1.000000 0.000000
vn 0.000000 -1.000000 -0.000000
vn 0.000000 -1.000000 -0.000000
vn 0.000000 -1.000000 0.000000
vn 0.309379 0.912203 -0.268646
vn 0.055824 0.959068 -0.277621
vn 0.008910 0.997950 -0.063370
vn -0.100149 0.910471 -0.401265
vn -0.160779 0.966197 -0.201528
vn -0.312950 0.948666 -0.045780
vn -0.195824 0.979535 0.046512
vn -0.092255 0.962284 0.255928
vn 0.060170 0.983548 0.170333
vn 0.296859 0.941697 0.158373
vn 0.241625 0.969238 -0.046844
vn 0.951133 -0.018167 -0.308245
vn 0.952509 -0.022557 -0.303673
vn -0.636619 -0.031684 -0.770528
vn -0.638189 -0.032369 -0.769199
vn 0.043066 -0.034356 -0.998481
vn 0.043021 -0.034708 -0.998471
vn -0.921519 -0.008048 0.388250
vn -0.921877 -0.002204 0.387477
vn -0.936502 -0.018781 -0.350160
vn -0.939012 -0.026513 -0.342860
vn -0.064384 0.001036 0.997925
vn -0.062125 0.010260 0.998016
vn -0.504148 -0.002222 0.863615
vn -0.504047 0.002709 0.863672
vn 0.944037 -0.007164 0.329761
vn 0.944050 -0.005749 0.329752
vn 0.608746 -0.001351 0.793364
vn 0.608599 0.001905 0.793475
vn 0.562700 -0.029610 -0.826130
vn 0.563635 -0.032344 -0.825391
vn 0.618361 0.287978 -0.731231
vn 0.691818 0.260152 -0.673579
vn 0.651820 0.395812 0.646888
vn 0.702921 0.371666 0.606438
vn 0.862610 0.381963 0.331675
vn 0.819592 0.358999 0.446530
vn -0.361259 0.596437 0.716767
vn -0.358198 0.594246 0.720115
vn -0.119243 0.568710 0.813849
vn -0.129640 0.566391 0.813877
vn -0.796951 0.590721 -0.126169
vn -0.784665 0.602577 -0.145609
vn -0.730137 0.640760 0.237332
vn -0.797536 0.588516 0.132609
vn 0.079285 0.405134 -0.910813
vn -0.048122 0.364244 -0.930059
vn -0.497031 0.440024 -0.747890
vn -0.451372 0.413393 -0.790803
vn 0.889410 0.311798 -0.334263
vn 0.843759 0.265723 -0.466328
vn 0.948349 -0.026861 -0.316089
vn 0.948851 -0.022042 -0.314954
vn -0.631495 -0.039163 -0.774390
vn -0.631926 -0.036662 -0.774161
vn 0.043339 -0.034689 -0.998458
vn 0.043295 -0.034024 -0.998483
vn -0.924866 -0.033222 0.378839
vn -0.924423 -0.034563 0.379798
vn -0.946600 -0.038175 -0.320141
vn -0.945367 -0.043038 -0.323155
vn -0.050237 -0.026991 0.998372
vn -0.051668 -0.025094 0.998349
vn -0.496922 -0.034392 0.867114
vn -0.497764 -0.034201 0.866638
vn 0.944853 -0.022909 0.326693
vn 0.944775 -0.021646 0.327005
vn 0.612524 -0.027108 0.789987
vn 0.611394 -0.019425 0.791088
vn 0.583506 -0.030059 -0.811552
vn 0.581535 -0.029726 -0.812978
vn 0.949478 -0.048373 -0.310082
vn 0.948712 -0.047783 -0.312510
vn -0.635918 -0.055758 -0.769739
vn -0.634375 -0.055300 -0.771045
vn 0.042926 -0.051701 -0.997740
vn 0.043058 -0.051656 -0.997736
vn -0.923115 -0.058129 0.380105
vn -0.923363 -0.058006 0.379520
vn -0.948439 -0.071704 -0.308741
vn -0.946810 -0.069437 -0.314211
vn -0.050191 -0.067380 0.996464
vn -0.050164 -0.067371 0.996466
vn -0.495814 -0.076246 0.865075
vn -0.495787 -0.076236 0.865091
vn 0.943656 -0.055136 0.326302
vn 0.943660 -0.055132 0.326292
vn 0.605601 -0.058767 0.793595
vn 0.609027 -0.057635 0.791053
vn 0.583089 -0.051106 -0.810799
vn 0.583057 -0.051093 -0.810823
usemtl phong1SG
f 23/46/1 24/47/2 33/57/3
f 33/57/3 24/47/2 42/66/4
f 24/47/5 25/48/6 42/66/7
f 42/66/7 25/48/6 41/65/8
f 25/48/9 26/49/10 41/65/11
f 41/65/11 26/49/10 40/64/12
f 26/49/13 27/50/14 40/64/15
f 40/64/15 27/50/14 39/63/16
f 28/51/17 38/62/18 27/50/19
f 27/50/19 38/62/18 39/63/20
f 28/51/21 29/52/22 38/62/23
f 38/62/23 29/52/22 37/61/24
f 30/53/25 36/60/26 29/52/27
f 29/52/27 36/60/26 37/61/28
f 31/54/29 35/59/30 30/53/31
f 30/53/31 35/59/30 36/60/32
f 31/54/33 32/55/34 35/59/35
f 35/59/35 32/55/34 34/58/36
f 23/45/37 33/56/38 32/55/39
f 32/55/39 33/56/38 34/58/40
f 2/2/41 1/1/42 21/43/43
f 3/3/44 2/2/41 21/43/43
f 4/4/45 3/3/44 21/43/43
f 5/5/46 4/4/45 21/43/43
f 6/6/47 5/5/46 21/43/43
f 7/7/48 6/6/47 21/43/43
f 8/8/49 7/7/48 21/43/43
f 9/9/50 8/8/49 21/43/43
f 10/10/51 9/9/50 21/43/43
f 1/1/42 10/10/51 21/43/43
f 11/41/52 12/40/53 22/44/54
f 12/40/53 13/39/55 22/44/54
f 13/39/55 14/38/56 22/44/54
f 14/38/56 15/37/57 22/44/54
f 15/37/57 16/36/58 22/44/54
f 16/36/58 17/35/59 22/44/54
f 17/35/59 18/34/60 22/44/54
f 18/34/60 19/33/61 22/44/54
f 19/33/61 20/42/62 22/44/54
f 20/42/62 11/41/52 22/44/54
f 43/68/63 44/69/64 23/46/1
f 23/46/1 44/69/64 24/47/2
f 45/70/65 25/48/6 44/69/66
f 44/69/66 25/48/6 24/47/5
f 45/70/67 46/71/68 25/48/9
f 25/48/9 46/71/68 26/49/10
f 46/71/69 47/72/70 26/49/13
f 26/49/13 47/72/70 27/50/14
f 48/73/71 28/51/17 47/72/72
f 47/72/72 28/51/17 27/50/19
f 49/74/73 29/52/22 48/73/74
f 48/73/74 29/52/22 28/51/21
f 50/75/75 30/53/25 49/74/76
f 49/74/76 30/53/25 29/52/27
f 51/76/77 31/54/29 50/75/78
f 50/75/78 31/54/29 30/53/31
f 51/76/79 52/77/80 31/54/33
f 31/54/33 52/77/80 32/55/34
f 43/67/81 23/45/37 52/77/82
f 52/77/82 23/45/37 32/55/39
f 34/58/40 33/56/38 20/31/83
f 20/31/83 33/56/38 11/32/84
f 34/58/36 20/31/85 35/59/35
f 35/59/35 20/31/85 19/30/86
f 36/60/32 35/59/30 18/29/87
f 18/29/87 35/59/30 19/30/88
f 36/60/26 18/29/89 37/61/28
f 37/61/28 18/29/89 17/28/90
f 38/62/23 37/61/24 16/27/91
f 16/27/91 37/61/24 17/28/92
f 38/62/18 16/27/93 39/63/20
f 39/63/20 16/27/93 15/26/94
f 40/64/15 39/63/16 14/25/95
f 14/25/95 39/63/16 15/26/96
f 40/64/12 14/25/97 41/65/11
f 41/65/11 14/25/97 13/24/98
f 42/66/7 41/65/8 12/23/99
f 12/23/99 41/65/8 13/24/100
f 42/66/4 12/23/101 33/57/3
f 33/57/3 12/23/101 11/22/102
f 53/79/103 54/80/104 43/68/63
f 43/68/63 54/80/104 44/69/64
f 55/81/105 45/70/65 54/80/106
f 54/80/106 45/70/65 44/69/66
f 55/81/107 56/82/108 45/70/67
f 45/70/67 56/82/108 46/71/68
f 56/82/109 57/83/110 46/71/69
f 46/71/69 57/83/110 47/72/70
f 57/83/111 58/84/112 47/72/72
f 47/72/72 58/84/112 48/73/71
f 59/85/113 49/74/73 58/84/114
f 58/84/114 49/74/73 48/73/74
f 60/86/115 50/75/75 59/85/116
f 59/85/116 50/75/75 49/74/76
f 61/87/117 51/76/77 60/86/118
f 60/86/118 51/76/77 50/75/78
f 61/87/119 62/88/120 51/76/79
f 51/76/79 62/88/120 52/77/80
f 53/78/121 43/67/81 62/88/122
f 62/88/122 43/67/81 52/77/82
f 1/11/123 2/12/124 53/79/103
f 53/79/103 2/12/124 54/80/104
f 3/13/125 55/81/105 2/12/126
f 2/12/126 55/81/105 54/80/106
f 4/14/127 56/82/108 3/13/128
f 3/13/128 56/82/108 55/81/107
f 5/15/129 57/83/110 4/14/130
f 4/14/130 57/83/110 56/82/109
f 6/16/131 58/84/112 5/15/132
f 5/15/132 58/84/112 57/83/111
f 6/16/133 7/17/134 58/84/114
f 58/84/114 7/17/134 59/85/113
f 7/17/135 8/18/136 59/85/116
f 59/85/116 8/18/136 60/86/115
f 8/18/137 9/19/138 60/86/118
f 60/86/118 9/19/138 61/87/117
f 9/19/139 10/20/140 61/87/119
f 61/87/119 10/20/140 62/88/120
f 10/20/141 1/21/142 62/88/122
f 62/88/122 1/21/142 53/78/121
