# This file uses centimeters as units for non-parametric coordinates.

mtllib cactus2.mtl
g default
v 0.053403 -0.007246 -0.069899
v -0.087896 0.004049 -0.060248
v -0.149182 0.022573 0.066587
v -0.059971 0.045520 0.187525
v 0.072130 0.018507 0.174118
v 0.133686 0.004111 0.046404
v 0.079405 0.449791 -0.120762
v -0.074928 0.456226 -0.137909
v -0.125617 0.477312 0.018891
v -0.051515 0.488423 0.167167
v 0.092152 0.473462 0.141044
v 0.162007 0.441801 0.000566
v -0.011375 -0.042671 0.068947
v 0.029137 0.520977 0.002407
v 0.085164 0.132480 -0.154193
v -0.134951 0.150076 -0.139158
v -0.204325 0.176846 0.056642
v -0.090773 0.212051 0.237513
v 0.127036 0.159192 0.229994
v 0.224813 0.165598 0.024895
v 0.116032 0.325028 -0.186118
v 0.219124 0.309487 0.012226
v 0.143843 0.326669 0.219106
v -0.083318 0.363084 0.230833
v -0.181501 0.398001 0.026771
v -0.113594 0.323732 -0.166354
vt 0.578125 0.020934
vt 0.421875 0.020934
vt 0.343750 0.156250
vt 0.421875 0.291566
vt 0.578125 0.291566
vt 0.656250 0.156250
vt 0.375000 0.312500
vt 0.416667 0.312500
vt 0.458333 0.312500
vt 0.500000 0.312500
vt 0.541667 0.312500
vt 0.583333 0.312500
vt 0.625000 0.312500
vt 0.375000 0.688440
vt 0.416667 0.688440
vt 0.458333 0.688440
vt 0.500000 0.688440
vt 0.541667 0.688440
vt 0.583333 0.688440
vt 0.625000 0.688440
vt 0.578125 0.708434
vt 0.421875 0.708434
vt 0.343750 0.843750
vt 0.421875 0.979066
vt 0.578125 0.979066
vt 0.656250 0.843750
vt 0.500000 0.150000
vt 0.500000 0.837500
vt 0.625000 0.542047
vt 0.375000 0.542047
vt 0.416667 0.542047
vt 0.458333 0.542047
vt 0.500000 0.542047
vt 0.541667 0.542047
vt 0.583333 0.542047
vt 0.625000 0.596911
vt 0.375000 0.596911
vt 0.583333 0.596911
vt 0.541667 0.596911
vt 0.500000 0.596911
vt 0.458333 0.596911
vt 0.416667 0.596911
vn -0.086121 -0.254198 -0.963310
vn -0.084026 -0.008893 -0.996424
vn -0.090556 -0.300324 -0.949529
vn -0.085256 -0.060837 -0.994500
vn -0.943495 -0.055573 -0.326695
vn -0.940306 -0.111521 -0.321540
vn -0.917048 0.141163 -0.372956
vn -0.922653 0.114187 -0.368337
vn -0.880327 0.151566 0.449502
vn -0.847725 0.273252 0.454638
vn -0.864964 0.215742 0.453092
vn -0.001241 -0.145837 0.989308
vn 0.068623 0.147398 0.986694
vn 0.025449 -0.061506 0.997782
vn 0.087544 0.234320 0.968210
vn 0.874264 -0.262120 0.408602
vn 0.912791 -0.133870 0.385865
vn 0.922015 0.088506 0.376903
vn 0.920723 0.228894 0.316032
vn 0.887110 -0.005569 -0.461525
vn 0.850049 0.322311 -0.416572
vn 0.884992 0.116142 -0.450888
vn -0.261472 -0.946819 -0.187529
vn 0.095759 -0.974296 -0.203905
vn -0.080896 -0.985730 0.147619
vn -0.422816 -0.886198 0.189423
vn -0.259340 -0.822816 0.505684
vn 0.115115 -0.895651 0.429601
vn 0.315852 -0.946326 0.068583
vn 0.263610 0.877879 -0.399797
vn -0.116484 0.931852 -0.343632
vn 0.103285 0.988991 -0.105968
vn -0.278540 0.957117 -0.079636
vn -0.069105 0.984579 0.160712
vn 0.308956 0.933952 0.179667
vn 0.508268 0.855287 -0.100742
vn -0.098639 -0.497505 -0.861835
vn -0.900292 -0.339372 -0.272584
vn -0.797490 -0.249644 0.549260
vn -0.843938 -0.029736 0.535616
vn -0.819064 -0.171256 0.547546
vn -0.052839 -0.350725 0.934987
vn 0.806263 -0.461600 0.369953
vn 0.752147 -0.457253 -0.474547
vn 0.752147 -0.457253 -0.474547
vn 0.752147 -0.457253 -0.474547
vn 0.810272 0.440415 -0.386644
vn 0.832638 0.458440 0.310721
vn 0.832638 0.458439 0.310721
vn 0.832638 0.458439 0.310721
vn 0.204978 0.514844 0.832418
vn 0.204978 0.514844 0.832418
vn 0.204978 0.514844 0.832418
vn -0.754341 0.564770 0.334670
vn -0.754341 0.564770 0.334670
vn -0.754341 0.564770 0.334670
vn -0.787966 0.522926 -0.325051
vn -0.787966 0.522926 -0.325051
vn -0.787966 0.522926 -0.325051
vn 0.116471 0.487492 -0.865324
vn 0.116471 0.487492 -0.865324
vn 0.116471 0.487492 -0.865324
vn -0.098639 -0.497506 -0.861834
vn -0.098639 -0.497506 -0.861834
vn -0.098639 -0.497506 -0.861834
vn -0.828821 -0.448116 -0.335034
vn -0.828821 -0.448116 -0.335034
vn -0.828821 -0.448116 -0.335034
vn -0.733796 -0.316215 0.601291
vn -0.733796 -0.316215 0.601291
vn -0.733796 -0.316215 0.601291
vn 0.039970 -0.280484 0.959026
vn 0.039970 -0.280484 0.959026
vn 0.039970 -0.280484 0.959026
vn 0.808007 -0.398114 0.434316
vn 0.808007 -0.398114 0.434316
vn 0.808007 -0.398114 0.434316
vn 0.762838 -0.377344 -0.525062
vn 0.776791 -0.309420 -0.548503
vn 0.788437 -0.221539 -0.573836
vn -0.084705 0.232719 -0.968848
vn -0.840386 0.336474 -0.424896
vn -0.783822 0.427609 0.450304
vn 0.114698 0.426593 0.897141
vn 0.871047 0.401014 0.283662
vn 0.733283 -0.478173 -0.483370
vn -0.850788 0.065057 0.521466
vn 0.797993 0.298345 -0.523638
vn 0.797993 0.298345 -0.523638
vn 0.797993 0.298345 -0.523638
g pasted__pasted__pCylinder1 cactus2
usemtl phong1SG
f 16/31/1 26/42/2 15/30/3
f 15/30/3 26/42/2 21/37/4
f 16/31/5 17/32/6 26/42/7
f 26/42/7 17/32/6 25/41/8
f 17/32/9 24/40/10 25/41/11
f 19/34/12 23/39/13 18/33/14
f 18/33/14 23/39/13 24/40/15
f 19/34/16 20/35/17 23/39/18
f 23/39/18 20/35/17 22/38/19
f 20/35/20 21/36/21 22/38/22
f 2/2/23 1/1/24 13/27/25
f 3/3/26 2/2/23 13/27/25
f 4/4/27 3/3/26 13/27/25
f 5/5/28 4/4/27 13/27/25
f 6/6/29 5/5/28 13/27/25
f 1/1/24 6/6/29 13/27/25
f 7/25/30 8/24/31 14/28/32
f 8/24/31 9/23/33 14/28/32
f 9/23/33 10/22/34 14/28/32
f 10/22/34 11/21/35 14/28/32
f 11/21/35 12/26/36 14/28/32
f 12/26/36 7/25/30 14/28/32
f 1/7/37 16/31/1 15/30/3
f 16/31/5 3/9/38 17/32/6
f 3/9/39 18/33/40 17/32/41
f 18/33/14 5/11/42 19/34/12
f 5/11/43 20/35/17 19/34/16
f 6/12/44 1/13/45 15/29/46
f 22/38/22 21/36/21 7/20/47
f 23/39/48 12/19/49 11/18/50
f 10/17/51 23/39/52 11/18/53
f 25/41/54 10/17/55 9/16/56
f 8/15/57 25/41/58 9/16/59
f 21/37/60 8/15/61 7/14/62
f 1/7/63 2/8/64 16/31/65
f 2/8/66 3/9/67 16/31/68
f 3/9/69 4/10/70 18/33/71
f 4/10/72 5/11/73 18/33/74
f 5/11/75 6/12/76 20/35/77
f 20/35/78 15/29/79 21/36/80
f 21/37/4 26/42/2 8/15/81
f 26/42/7 25/41/8 8/15/82
f 25/41/11 24/40/10 10/17/83
f 24/40/15 23/39/13 10/17/84
f 23/39/18 22/38/19 12/19/85
f 6/12/86 15/29/79 20/35/78
f 17/32/41 18/33/40 24/40/87
f 22/38/88 7/20/89 12/19/90
g default
v 0.223848 0.396068 0.082135
v 0.192971 0.444725 0.048174
v 0.123070 0.388616 0.046546
v 0.111175 0.350655 0.082455
v 0.143448 0.352269 0.072733
v 0.192000 0.399122 0.149365
v 0.146676 0.474399 0.090971
v 0.129629 0.357141 0.110686
v 0.148099 0.444535 0.150261
vt 0.838104 0.676208
vt 0.088104 0.823792
vt 0.176208 0.500000
vt 0.088104 0.176208
vt 0.838104 0.323792
vt 0.676208 0.500000
vt 0.338104 0.676208
vt 0.588104 0.176208
vt 0.500000 0.500000
vt 1.088104 0.823792
vt 1.176208 0.500000
vt 1.088104 0.176208
vn 0.266310 -0.444712 -0.855166
vn 0.266310 -0.444712 -0.855166
vn 0.266310 -0.444712 -0.855167
vn 0.266310 -0.444712 -0.855166
vn 0.266310 -0.444712 -0.855166
vn 0.693565 0.653137 0.303941
vn 0.693565 0.653137 0.303941
vn 0.693565 0.653137 0.303941
vn 0.693565 0.653137 0.303941
vn 0.693565 0.653137 0.303941
vn -0.388048 0.505789 -0.770452
vn -0.388048 0.505789 -0.770452
vn -0.388048 0.505789 -0.770452
vn -0.961340 0.215123 0.171893
vn -0.961340 0.215123 0.171893
vn -0.961340 0.215123 0.171893
vn -0.961340 0.215123 0.171893
vn -0.961340 0.215123 0.171893
vn 0.097794 -0.981988 0.161664
vn 0.097794 -0.981988 0.161664
vn 0.097794 -0.981988 0.161664
vn 0.440905 -0.862594 0.248059
vn 0.440905 -0.862595 0.248059
vn 0.440905 -0.862594 0.248059
vn 0.420249 -0.868021 0.264445
vn 0.420249 -0.868020 0.264446
vn 0.420249 -0.868020 0.264445
vn -0.325469 -0.332114 0.885308
vn -0.325469 -0.332114 0.885308
vn -0.325469 -0.332114 0.885308
g cactus2 pasted__pasted__pPlatonic1
usemtl pasted__pasted__phong3SG
f 30/54/91 29/53/92 28/52/93 27/43/94 31/47/95
f 35/51/96 32/48/97 27/43/98 28/44/99 33/49/100
f 28/44/101 29/45/102 33/49/103
f 35/51/104 33/49/105 29/45/106 30/46/107 34/50/108
f 30/54/109 31/47/110 34/50/111
f 31/47/112 27/43/113 32/48/114
f 31/47/115 32/48/116 34/50/117
f 34/50/118 32/48/119 35/51/120
g default
v -0.103638 0.469311 0.138260
v -0.137227 0.477955 0.081064
v -0.085330 0.411953 0.049642
v -0.063045 0.372122 0.077728
v -0.060573 0.402955 0.091214
v -0.131188 0.405484 0.164918
v -0.181006 0.424231 0.073828
v -0.079001 0.370862 0.108115
v -0.174505 0.382521 0.125084
vt 0.838104 0.676208
vt 0.088104 0.823792
vt 0.176208 0.500000
vt 0.088104 0.176208
vt 0.838104 0.323792
vt 0.676208 0.500000
vt 0.338104 0.676208
vt 0.588104 0.176208
vt 0.500000 0.500000
vt 1.088104 0.823792
vt 1.176208 0.500000
vt 1.088104 0.176208
vn 0.726928 0.607183 -0.320788
vn 0.726928 0.607183 -0.320788
vn 0.726928 0.607183 -0.320788
vn 0.726928 0.607183 -0.320788
vn 0.726928 0.607183 -0.320788
vn -0.708592 0.505944 0.491851
vn -0.708592 0.505944 0.491851
vn -0.708592 0.505944 0.491851
vn -0.708592 0.505944 0.491851
vn -0.708592 0.505944 0.491851
vn -0.199645 0.288797 -0.936343
vn -0.199645 0.288797 -0.936343
vn -0.199645 0.288797 -0.936343
vn -0.276631 -0.783834 -0.555949
vn -0.276631 -0.783834 -0.555949
vn -0.276631 -0.783834 -0.555949
vn -0.276631 -0.783834 -0.555949
vn -0.276631 -0.783834 -0.555949
vn 0.858998 -0.261397 0.440220
vn 0.858998 -0.261397 0.440220
vn 0.858998 -0.261397 0.440220
vn 0.721509 -0.022388 0.692043
vn 0.721509 -0.022388 0.692043
vn 0.721509 -0.022388 0.692043
vn 0.720361 -0.049282 0.691846
vn 0.720361 -0.049282 0.691847
vn 0.720361 -0.049282 0.691847
vn -0.014151 -0.859532 0.510886
vn -0.014151 -0.859532 0.510886
vn -0.014151 -0.859532 0.510886
g cactus2 pasted__pasted__pPlatonic4
usemtl pasted__pasted__phong3SG
f 39/66/121 38/65/122 37/64/123 36/55/124 40/59/125
f 44/63/126 41/60/127 36/55/128 37/56/129 42/61/130
f 37/56/131 38/57/132 42/61/133
f 44/63/134 42/61/135 38/57/136 39/58/137 43/62/138
f 39/66/139 40/59/140 43/62/141
f 40/59/142 36/55/143 41/60/144
f 40/59/145 41/60/146 43/62/147
f 43/62/148 41/60/149 44/63/150
g default
v -0.026495 0.436814 -0.185307
v 0.033466 0.455676 -0.162434
v 0.016755 0.399328 -0.094739
v -0.013991 0.355452 -0.095968
v -0.026848 0.382975 -0.110660
v -0.014283 0.367959 -0.210868
v 0.077805 0.403003 -0.173154
v -0.019120 0.347480 -0.128979
v 0.046129 0.352020 -0.201552
vt 0.838104 0.676208
vt 0.088104 0.823792
vt 0.176208 0.500000
vt 0.088104 0.176208
vt 0.838104 0.323792
vt 0.676208 0.500000
vt 0.338104 0.676208
vt 0.588104 0.176208
vt 0.500000 0.500000
vt 1.088104 0.823792
vt 1.176208 0.500000
vt 1.088104 0.176208
vn -0.448203 0.685319 0.573979
vn -0.448203 0.685319 0.573979
vn -0.448203 0.685319 0.573979
vn -0.448203 0.685319 0.573979
vn -0.448203 0.685319 0.573979
vn 0.227943 0.369856 -0.900693
vn 0.227943 0.369856 -0.900693
vn 0.227943 0.369856 -0.900693
vn 0.227943 0.369856 -0.900693
vn 0.227943 0.369856 -0.900693
vn 0.687664 0.465461 0.557193
vn 0.687664 0.465461 0.557193
vn 0.687664 0.465461 0.557193
vn 0.624190 -0.664103 0.411525
vn 0.624190 -0.664103 0.411525
vn 0.624190 -0.664103 0.411525
vn 0.624190 -0.664103 0.411525
vn 0.624190 -0.664103 0.411525
vn -0.923612 -0.314321 0.219415
vn -0.923612 -0.314321 0.219415
vn -0.923612 -0.314321 0.219415
vn -0.985264 -0.136477 -0.103098
vn -0.985264 -0.136477 -0.103098
vn -0.985264 -0.136477 -0.103098
vn -0.981711 -0.162795 -0.098695
vn -0.981711 -0.162795 -0.098695
vn -0.981711 -0.162795 -0.098695
vn -0.211032 -0.945269 -0.248862
vn -0.211032 -0.945269 -0.248862
vn -0.211032 -0.945269 -0.248862
g cactus2 pasted__pasted__pPlatonic5
usemtl pasted__pasted__phong3SG
f 48/78/151 47/77/152 46/76/153 45/67/154 49/71/155
f 53/75/156 50/72/157 45/67/158 46/68/159 51/73/160
f 46/68/161 47/69/162 51/73/163
f 53/75/164 51/73/165 47/69/166 48/70/167 52/74/168
f 48/78/169 49/71/170 52/74/171
f 49/71/172 45/67/173 50/72/174
f 49/71/175 50/72/176 52/74/177
f 52/74/178 50/72/179 53/75/180
