# This file uses centimeters as units for non-parametric coordinates.

mtllib cactus2.mtl
g default
v 0.056621 -0.019376 -0.064907
v -0.084564 -0.003465 -0.064907
v -0.151581 0.036209 0.053924
v -0.067932 0.075869 0.174510
v 0.063770 0.044061 0.172755
v 0.131230 0.008319 0.052427
v 0.099434 0.423225 -0.184982
v -0.053556 0.430414 -0.211369
v -0.111433 0.477095 -0.062803
v -0.044619 0.509723 0.085762
v 0.099648 0.487545 0.070219
v 0.175499 0.432556 -0.059546
v -0.016177 -0.030991 0.074000
v 0.045247 0.514059 -0.077383
v 0.096958 0.104561 -0.168106
v -0.122978 0.129347 -0.168106
v -0.201302 0.188211 0.017008
v -0.096004 0.248858 0.196124
v 0.120148 0.190496 0.208914
v 0.228332 0.162269 0.011009
v 0.135405 0.288917 -0.227953
v 0.227791 0.302458 -0.024258
v 0.142709 0.353736 0.172956
v -0.083504 0.396741 0.166369
v -0.170095 0.401317 -0.045719
v -0.094855 0.296015 -0.220862
vt 0.578125 0.020934
vt 0.421875 0.020934
vt 0.343750 0.156250
vt 0.421875 0.291566
vt 0.578125 0.291566
vt 0.656250 0.156250
vt 0.375000 0.312500
vt 0.416667 0.312500
vt 0.458333 0.312500
vt 0.500000 0.312500
vt 0.541667 0.312500
vt 0.583333 0.312500
vt 0.625000 0.312500
vt 0.375000 0.688440
vt 0.416667 0.688440
vt 0.458333 0.688440
vt 0.500000 0.688440
vt 0.541667 0.688440
vt 0.583333 0.688440
vt 0.625000 0.688440
vt 0.578125 0.708434
vt 0.421875 0.708434
vt 0.343750 0.843750
vt 0.421875 0.979066
vt 0.578125 0.979066
vt 0.656250 0.843750
vt 0.500000 0.150000
vt 0.500000 0.837500
vt 0.625000 0.542047
vt 0.375000 0.542047
vt 0.416667 0.542047
vt 0.458333 0.542047
vt 0.500000 0.542047
vt 0.541667 0.542047
vt 0.583333 0.542047
vt 0.625000 0.596911
vt 0.375000 0.596911
vt 0.583333 0.596911
vt 0.541667 0.596911
vt 0.500000 0.596911
vt 0.458333 0.596911
vt 0.416667 0.596911
vn -0.045160 -0.400736 -0.915080
vn -0.033727 -0.163825 -0.985913
vn -0.051727 -0.444002 -0.894531
vn -0.036676 -0.214775 -0.975975
vn -0.927027 -0.084704 -0.365302
vn -0.925853 -0.139200 -0.351310
vn -0.892138 0.101630 -0.440184
vn -0.898810 0.075853 -0.431726
vn -0.896780 0.240623 0.371329
vn -0.860693 0.360819 0.359189
vn -0.879621 0.304195 0.365695
vn -0.055864 0.011901 0.998368
vn 0.023173 0.299383 0.953852
vn -0.027014 0.095880 0.995026
vn 0.045712 0.381852 0.923093
vn 0.843846 -0.214448 0.491871
vn 0.887463 -0.092298 0.451542
vn 0.904074 0.125618 0.408499
vn 0.910252 0.254656 0.326482
vn 0.908722 -0.098538 -0.405604
vn 0.879699 0.233092 -0.414485
vn 0.909874 0.023345 -0.414228
vn -0.281108 -0.958293 -0.051502
vn 0.075460 -0.996188 -0.043755
vn -0.119029 -0.948050 0.295012
vn -0.459349 -0.835364 0.301936
vn -0.310188 -0.726716 0.612917
vn 0.065179 -0.819191 0.569805
vn 0.282248 -0.930694 0.232691
vn 0.310812 0.797660 -0.516850
vn -0.069765 0.868505 -0.490746
vn 0.139373 0.957318 -0.253215
vn -0.244105 0.938751 -0.243228
vn -0.046347 0.998925 0.001016
vn 0.328504 0.943264 0.048362
vn 0.539196 0.816859 -0.204962
vn -0.070396 -0.624668 -0.777711
vn -0.895509 -0.357349 -0.265266
vn -0.831678 -0.141654 0.536886
vn -0.870480 0.074365 0.486554
vn -0.850676 -0.064040 0.521775
vn -0.111025 -0.197749 0.973945
vn 0.771687 -0.415913 0.481160
vn 0.760541 -0.543420 -0.355347
vn 0.760541 -0.543420 -0.355347
vn 0.760541 -0.543420 -0.355347
vn 0.842169 0.355316 -0.405588
vn 0.829766 0.482457 0.280578
vn 0.829766 0.482457 0.280578
vn 0.829766 0.482457 0.280578
vn 0.178577 0.634714 0.751830
vn 0.178577 0.634714 0.751830
vn 0.178577 0.634714 0.751830
vn -0.752293 0.627581 0.200495
vn -0.752293 0.627581 0.200495
vn -0.752293 0.627581 0.200495
vn -0.753778 0.483112 -0.445445
vn -0.753778 0.483112 -0.445445
vn -0.753778 0.483112 -0.445445
vn 0.175293 0.342287 -0.923099
vn 0.175293 0.342287 -0.923099
vn 0.175293 0.342287 -0.923099
vn -0.070396 -0.624669 -0.777710
vn -0.070396 -0.624669 -0.777710
vn -0.070396 -0.624669 -0.777710
vn -0.824403 -0.476183 -0.305958
vn -0.824403 -0.476183 -0.305958
vn -0.824403 -0.476183 -0.305958
vn -0.772810 -0.200638 0.602087
vn -0.772810 -0.200638 0.602087
vn -0.772810 -0.200638 0.602087
vn -0.017401 -0.126743 0.991783
vn -0.017401 -0.126743 0.991783
vn -0.017401 -0.126743 0.991783
vn 0.772154 -0.343138 0.534821
vn 0.772154 -0.343138 0.534821
vn 0.772154 -0.343138 0.534821
vn 0.776267 -0.472733 -0.417053
vn 0.793505 -0.409687 -0.450007
vn 0.809159 -0.327185 -0.488070
vn -0.028250 0.079066 -0.996469
vn -0.806879 0.284510 -0.517687
vn -0.791860 0.511061 0.334328
vn 0.082424 0.559855 0.824481
vn 0.867682 0.420621 0.264964
vn 0.741504 -0.565031 -0.361819
vn -0.873640 0.165878 0.457426
vn 0.832405 0.193758 -0.519192
vn 0.832405 0.193758 -0.519192
vn 0.832405 0.193758 -0.519192
g pasted__pasted__pCylinder1 cactus2
usemtl phong1SG
f 16/31/1 26/42/2 15/30/3
f 15/30/3 26/42/2 21/37/4
f 16/31/5 17/32/6 26/42/7
f 26/42/7 17/32/6 25/41/8
f 17/32/9 24/40/10 25/41/11
f 19/34/12 23/39/13 18/33/14
f 18/33/14 23/39/13 24/40/15
f 19/34/16 20/35/17 23/39/18
f 23/39/18 20/35/17 22/38/19
f 20/35/20 21/36/21 22/38/22
f 2/2/23 1/1/24 13/27/25
f 3/3/26 2/2/23 13/27/25
f 4/4/27 3/3/26 13/27/25
f 5/5/28 4/4/27 13/27/25
f 6/6/29 5/5/28 13/27/25
f 1/1/24 6/6/29 13/27/25
f 7/25/30 8/24/31 14/28/32
f 8/24/31 9/23/33 14/28/32
f 9/23/33 10/22/34 14/28/32
f 10/22/34 11/21/35 14/28/32
f 11/21/35 12/26/36 14/28/32
f 12/26/36 7/25/30 14/28/32
f 1/7/37 16/31/1 15/30/3
f 16/31/5 3/9/38 17/32/6
f 3/9/39 18/33/40 17/32/41
f 18/33/14 5/11/42 19/34/12
f 5/11/43 20/35/17 19/34/16
f 6/12/44 1/13/45 15/29/46
f 22/38/22 21/36/21 7/20/47
f 23/39/48 12/19/49 11/18/50
f 10/17/51 23/39/52 11/18/53
f 25/41/54 10/17/55 9/16/56
f 8/15/57 25/41/58 9/16/59
f 21/37/60 8/15/61 7/14/62
f 1/7/63 2/8/64 16/31/65
f 2/8/66 3/9/67 16/31/68
f 3/9/69 4/10/70 18/33/71
f 4/10/72 5/11/73 18/33/74
f 5/11/75 6/12/76 20/35/77
f 20/35/78 15/29/79 21/36/80
f 21/37/4 26/42/2 8/15/81
f 26/42/7 25/41/8 8/15/82
f 25/41/11 24/40/10 10/17/83
f 24/40/15 23/39/13 10/17/84
f 23/39/18 22/38/19 12/19/85
f 6/12/86 15/29/79 20/35/78
f 17/32/41 18/33/40 24/40/87
f 22/38/88 7/20/89 12/19/90
g default
v 0.027153 0.520750 -0.153545
v 0.088131 0.564330 -0.122941
v 0.014326 0.596961 -0.129431
v -0.040044 0.539434 -0.112440
v 0.000159 0.471249 -0.095450
v 0.079376 0.486635 -0.101940
v 0.098824 0.541762 -0.045931
v 0.058621 0.609947 -0.062922
v -0.020596 0.594561 -0.056432
v -0.029352 0.516866 -0.035430
v 0.044454 0.484235 -0.028941
v 0.031627 0.560446 -0.004826
vt 1.000000 0.500000
vt 0.838104 0.676208
vt 0.088104 0.823792
vt 0.176208 0.500000
vt 0.088104 0.176208
vt 0.838104 0.323792
vt 0.676208 0.500000
vt 0.588104 0.823792
vt 0.338104 0.676208
vt 0.338104 0.323792
vt 0.588104 0.176208
vt 0.500000 0.500000
vt 1.088104 0.823792
vt 1.176208 0.500000
vt 1.088104 0.176208
vn 0.225769 0.328221 -0.917224
vn 0.225769 0.328221 -0.917224
vn 0.225769 0.328221 -0.917224
vn -0.472527 0.192594 -0.860015
vn -0.472527 0.192594 -0.860015
vn -0.472527 0.192594 -0.860015
vn -0.549709 -0.492288 -0.674887
vn -0.549709 -0.492288 -0.674887
vn -0.549709 -0.492288 -0.674887
vn 0.100886 -0.779936 -0.617674
vn 0.100886 -0.779936 -0.617674
vn 0.100886 -0.779936 -0.617674
vn 0.580160 -0.272817 -0.767454
vn 0.580160 -0.272817 -0.767454
vn 0.580160 -0.272817 -0.767454
vn 0.397202 0.814172 -0.423503
vn 0.397202 0.814172 -0.423503
vn 0.397202 0.814172 -0.423503
vn -0.732661 0.594713 -0.330943
vn -0.732661 0.594713 -0.330943
vn -0.732661 0.594713 -0.330943
vn -0.857546 -0.513448 -0.031397
vn -0.857546 -0.513448 -0.031397
vn -0.857546 -0.513448 -0.031397
vn 0.195143 -0.978866 0.061165
vn 0.195143 -0.978866 0.061165
vn 0.195143 -0.978866 0.061165
vn 0.970618 -0.158356 -0.181173
vn 0.970618 -0.158356 -0.181173
vn 0.970618 -0.158356 -0.181173
vn 0.857546 0.513448 0.031397
vn 0.857546 0.513448 0.031397
vn 0.857546 0.513448 0.031397
vn -0.195142 0.978866 -0.061167
vn -0.195142 0.978866 -0.061167
vn -0.195142 0.978866 -0.061167
vn -0.970618 0.158356 0.181173
vn -0.970618 0.158356 0.181173
vn -0.970618 0.158355 0.181173
vn -0.397202 -0.814172 0.423503
vn -0.397202 -0.814172 0.423503
vn -0.397202 -0.814172 0.423503
vn 0.732661 -0.594713 0.330943
vn 0.732661 -0.594713 0.330943
vn 0.732661 -0.594713 0.330943
vn 0.549710 0.492288 0.674887
vn 0.549710 0.492288 0.674887
vn 0.549710 0.492288 0.674887
vn -0.100884 0.779940 0.617670
vn -0.100884 0.779940 0.617670
vn -0.100884 0.779940 0.617670
vn -0.580160 0.272818 0.767453
vn -0.580160 0.272818 0.767453
vn -0.580160 0.272818 0.767453
vn -0.225769 -0.328225 0.917222
vn -0.225769 -0.328225 0.917222
vn -0.225769 -0.328225 0.917222
vn 0.472527 -0.192599 0.860014
vn 0.472527 -0.192599 0.860014
vn 0.472527 -0.192599 0.860014
g cactus2 pasted__pasted__pPlatonic1
usemtl pasted__pasted__phong3SG
f 27/43/91 29/55/92 28/44/93
f 27/43/94 30/56/95 29/55/96
f 27/43/97 31/57/98 30/56/99
f 27/43/100 32/48/101 31/57/102
f 27/43/103 28/44/104 32/48/105
f 28/44/106 29/55/107 34/50/108
f 29/45/109 30/46/110 35/51/111
f 30/46/112 31/47/113 36/52/114
f 31/57/115 32/48/116 37/53/117
f 32/48/118 28/44/119 33/49/120
f 28/44/121 34/50/122 33/49/123
f 29/45/124 35/51/125 34/50/126
f 30/46/127 36/52/128 35/51/129
f 31/47/130 37/53/131 36/52/132
f 32/48/133 33/49/134 37/53/135
f 33/49/136 34/50/137 38/54/138
f 34/50/139 35/51/140 38/54/141
f 35/51/142 36/52/143 38/54/144
f 36/52/145 37/53/146 38/54/147
f 37/53/148 33/49/149 38/54/150
