# This file uses centimeters as units for non-parametric coordinates.

mtllib iceberg1.mtl
v -0.945095 -0.600732 1.072471
v 2.078822 -0.433856 0.884115
v -0.945095 0.623041 1.072471
v 2.078822 0.696265 0.884115
v -1.357279 0.487290 -0.807017
v 2.091833 0.616594 -1.691561
v -1.283684 -0.716059 -0.831091
v 2.091833 -0.616594 -1.691561
v 0.102927 -0.677405 1.376855
v -0.357108 -0.685128 -2.189919
v -0.357108 0.505434 -2.189919
v 0.102927 0.452716 1.376855
v 0.080820 0.614561 -0.023298
v 2.561150 0.657931 -0.108560
v 2.561150 -0.575257 -0.108560
v 0.080820 -0.719661 -0.023298
v 1.159695 -0.619345 1.470654
v 1.049251 -0.616594 -0.023298
v 1.049251 -0.616594 -2.396301
v 1.049251 0.573968 -2.396301
v 1.049251 0.584624 -0.023298
v 1.159695 0.510776 1.470654
v -0.670992 -0.722976 -0.218915
v -0.670992 0.570652 -0.218915
v -1.024808 0.039011 1.146559
v 0.091065 -0.098105 1.480072
v 1.188764 -0.129579 1.528597
v 2.160114 0.159773 0.939624
v 2.665779 0.011530 -0.101083
v 2.173754 -0.031807 -1.760679
v 1.080726 -0.031807 -2.499518
v -0.372492 -0.142966 -2.289247
v -1.449069 -0.078848 -0.828839
vt 0.400582 0.000000
vt 0.625000 0.000000
vt 0.400582 0.250000
vt 0.625000 0.250000
vt 0.387791 0.434418
vt 0.625000 0.500000
vt 0.387791 0.815582
vt 0.625000 0.750000
vt 0.400582 1.000000
vt 0.625000 1.000000
vt 0.875000 0.000000
vt 0.875000 0.250000
vt 0.190582 0.000000
vt 0.190582 0.250000
vt 0.494600 0.000000
vt 0.494600 1.000000
vt 0.494600 0.750000
vt 0.494600 0.500000
vt 0.494600 0.250000
vt 0.494600 0.368837
vt 0.625000 0.368837
vt 0.743837 0.250000
vt 0.625000 0.881163
vt 0.743837 0.000000
vt 0.494600 0.881163
vt 0.557396 0.000000
vt 0.557396 1.000000
vt 0.557396 0.881163
vt 0.557396 0.750000
vt 0.557396 0.500000
vt 0.557396 0.368837
vt 0.557396 0.250000
vt 0.426164 0.881163
vt 0.426164 0.368837
vt 0.400582 0.118892
vt 0.494600 0.118892
vt 0.557396 0.118892
vt 0.625000 0.118892
vt 0.743837 0.118892
vt 0.625000 0.631108
vt 0.875000 0.118892
vt 0.557396 0.631108
vt 0.494600 0.631108
vt 0.400582 0.631108
vt 0.190582 0.118892
vn 0.262313 -0.012980 0.964896
vn 0.526695 0.015097 0.849921
vn 0.248749 0.118915 0.961240
vn 0.506847 0.164355 0.846223
vn -0.035758 0.999138 -0.021093
vn -0.027617 0.999525 0.013655
vn -0.042035 0.999091 -0.007124
vn -0.050004 0.998347 -0.028336
vn 0.205677 0.005173 -0.978606
vn 0.205780 0.173070 -0.963173
vn 0.558367 -0.002478 -0.829590
vn 0.548675 0.156858 -0.821189
vn 0.030854 -0.997504 0.063507
vn 0.075756 -0.996958 0.018327
vn 0.010597 -0.999922 0.006623
vn 0.036969 -0.999245 -0.011910
vn 0.986660 0.162793 0.000289
vn 0.999982 -0.004410 0.004189
vn 0.946835 0.149967 -0.284627
vn 0.958748 0.000509 -0.284256
vn 0.045931 -0.998892 0.010207
vn -0.022868 -0.999285 0.030125
vn 0.037067 -0.999036 -0.023505
vn -0.012968 -0.999915 0.001681
vn -0.543178 -0.007815 -0.839581
vn -0.982045 -0.050882 -0.181655
vn -0.549873 0.144003 -0.822741
vn -0.972570 0.164906 -0.164056
vn 0.005961 0.999862 0.015495
vn -0.057201 0.997551 -0.040257
vn -0.061132 0.996987 -0.047746
vn -0.079638 0.995658 -0.048198
vn -0.252115 0.155572 0.955110
vn -0.280494 0.009509 0.959809
vn -0.184601 0.180672 0.966064
vn -0.182346 -0.003169 0.983229
vn 0.051203 0.997716 0.044059
vn 0.040277 0.994973 0.091683
vn -0.102160 0.994747 -0.006472
vn -0.102453 0.993123 0.056665
vn 0.897621 0.011080 0.440629
vn 0.887705 0.178423 0.424434
vn 0.112536 -0.993596 -0.010149
vn 0.106624 -0.991185 0.078630
vn -0.068041 -0.996301 0.052481
vn 0.006194 -0.999831 0.017338
vn -0.977525 0.001535 0.210814
vn -0.966924 0.157431 0.200682
vn -0.296459 -0.153298 0.942662
vn -0.184466 -0.176063 0.966941
vn 0.223958 -0.139565 0.964554
vn 0.546514 -0.147438 0.824369
vn 0.984467 -0.175459 -0.006323
vn 0.878231 -0.162329 0.449844
vn 0.946732 -0.165290 -0.276364
vn 0.192773 -0.182519 -0.964119
vn 0.551505 -0.173691 -0.815888
vn -0.564267 -0.164241 -0.809091
vn -0.796374 -0.192561 -0.573331
vn -0.963595 -0.165494 0.209991
vn -0.951210 -0.247533 0.184190
usemtl phong25SG
f 27/37/1 28/38/2 22/32/3
f 22/32/3 28/38/2 4/4/4
f 20/30/5 21/31/6 6/6/7
f 6/6/7 21/31/6 14/21/8
f 31/42/9 20/30/10 30/40/11
f 30/40/11 20/30/10 6/6/12
f 15/23/13 18/28/14 8/8/15
f 8/8/15 18/28/14 19/29/16
f 14/22/17 29/39/18 6/12/19
f 6/12/19 29/39/18 30/41/20
f 16/25/21 23/33/22 10/17/23
f 23/33/22 7/7/24 10/17/23
f 32/43/25 33/44/26 11/18/27
f 11/18/27 33/44/26 5/5/28
f 13/20/29 11/18/30 24/34/31
f 5/5/32 24/34/31 11/18/30
f 3/3/33 25/35/34 12/19/35
f 12/19/35 25/35/34 26/36/36
f 24/34/31 3/3/37 13/20/29
f 13/20/29 3/3/37 12/19/38
f 14/21/8 21/31/6 4/4/39
f 4/4/39 21/31/6 22/32/40
f 29/39/18 14/22/17 28/38/41
f 28/38/41 14/22/17 4/4/42
f 17/27/43 18/28/14 2/10/44
f 2/10/44 18/28/14 15/23/13
f 23/33/22 16/25/21 1/9/45
f 1/9/45 16/25/21 9/16/46
f 33/45/26 25/35/47 5/14/28
f 5/14/28 25/35/47 3/3/48
f 16/25/21 18/28/14 9/16/46
f 9/16/46 18/28/14 17/27/43
f 18/28/14 16/25/21 19/29/16
f 19/29/16 16/25/21 10/17/23
f 32/43/25 11/18/27 31/42/9
f 31/42/9 11/18/27 20/30/10
f 11/18/30 13/20/29 20/30/5
f 20/30/5 13/20/29 21/31/6
f 22/32/40 21/31/6 12/19/38
f 12/19/38 21/31/6 13/20/29
f 12/19/35 26/36/36 22/32/3
f 22/32/3 26/36/36 27/37/1
f 7/7/24 23/33/22 1/9/45
f 3/3/37 24/34/31 5/5/32
f 25/35/34 1/1/49 26/36/36
f 26/36/36 1/1/49 9/15/50
f 27/37/1 26/36/36 17/26/51
f 17/26/51 26/36/36 9/15/50
f 28/38/2 27/37/1 2/2/52
f 2/2/52 27/37/1 17/26/51
f 15/24/53 29/39/18 2/2/54
f 2/2/54 29/39/18 28/38/41
f 29/39/18 15/24/53 30/41/20
f 30/41/20 15/24/53 8/11/55
f 19/29/56 31/42/9 8/8/57
f 8/8/57 31/42/9 30/40/11
f 10/17/58 32/43/25 19/29/56
f 19/29/56 32/43/25 31/42/9
f 33/44/26 32/43/25 7/7/59
f 7/7/59 32/43/25 10/17/58
f 25/35/47 33/45/26 1/1/60
f 1/1/60 33/45/26 7/13/61
