# This file uses centimeters as units for non-parametric coordinates.

mtllib rock3.mtl
g default
v -0.933230 -0.397001 0.439618
v -0.167735 -0.353487 0.938659
v 0.169822 -0.352492 0.901767
v -0.844355 0.162950 0.580544
v 0.434351 0.415472 0.797683
v -0.645789 1.202468 0.347122
v -0.155972 1.526097 0.534203
v 0.341816 1.404617 0.559319
v 0.632568 1.207230 0.367276
v -0.560531 0.867449 -0.528891
v 0.223872 1.246032 -0.276995
v 0.568180 1.176855 -0.116670
v -0.481504 -0.143791 -0.862434
v 0.721007 0.077477 -0.337346
v -0.662151 -0.444283 -0.840332
v 0.172706 -0.459763 -0.782421
v 0.714741 -0.458707 -0.310363
v -0.958395 -0.390360 -0.149177
v 0.783981 -0.337201 0.496411
v 0.847785 0.414028 0.438499
v -0.869902 -0.083623 -0.179060
v -0.535599 -0.412885 0.806771
v -0.181463 -0.443942 -0.900680
v -0.094585 -0.123825 -0.924031
v -0.097923 1.201043 -0.429228
v -0.273788 1.638723 -0.118231
v -0.461218 0.263159 0.721289
vt 0.375000 0.000000
vt 0.500000 0.000000
vt 0.625000 0.000000
vt 0.375000 0.125000
vt 0.625000 0.125000
vt 0.375000 0.250000
vt 0.500000 0.250000
vt 0.625000 0.250000
vt 0.625000 0.375000
vt 0.375000 0.500000
vt 0.500000 0.500000
vt 0.625000 0.500000
vt 0.375000 0.625000
vt 0.625000 0.625000
vt 0.375000 0.750000
vt 0.500000 0.750000
vt 0.625000 0.750000
vt 0.875000 0.000000
vt 0.750000 0.000000
vt 0.875000 0.125000
vt 0.750000 0.125000
vt 0.875000 0.250000
vt 0.750000 0.250000
vt 0.125000 0.000000
vt 0.250000 0.000000
vt 0.125000 0.125000
vt 0.250000 0.125000
vt 0.125000 0.250000
vt 0.445030 0.000000
vt 0.445030 0.750000
vt 0.445030 0.625000
vt 0.445030 0.500000
vt 0.445030 0.375000
vt 0.445030 0.125000
vn -0.433425 0.111276 0.894293
vn -0.039729 0.315319 0.948154
vn -0.261861 0.213992 0.941082
vn -0.528892 0.772601 -0.351226
vn -0.912070 0.377411 0.160277
vn -0.203481 0.497982 0.842977
vn -0.087730 0.196366 0.976598
vn -0.117961 0.206406 0.971330
vn -0.086138 0.199117 0.976183
vn -0.014612 0.575254 -0.817845
vn 0.468220 0.818926 -0.331859
vn 0.408281 0.907947 -0.094543
vn 0.423373 0.879933 -0.215575
vn 0.237256 0.967056 -0.092263
vn 0.448730 0.235426 -0.862099
vn 0.511478 0.173152 -0.841670
vn 0.458246 0.254685 -0.851555
vn 0.010932 -0.070252 -0.997469
vn 0.271802 0.236856 -0.932750
vn 0.563239 0.195011 -0.802952
vn 0.183253 0.333998 -0.924588
vn 0.656120 -0.045575 -0.753279
vn 0.907115 -0.063134 0.416121
vn 0.990316 -0.035890 -0.134113
vn 0.970645 0.087913 0.223875
vn 0.976279 0.088138 -0.197763
vn 0.550553 -0.076981 0.831243
vn 0.599881 0.041152 0.799030
vn 0.956491 0.188545 -0.222655
vn 0.930056 0.274298 0.244453
vn 0.638736 0.236967 0.732027
vn -0.954552 0.261443 -0.143102
vn -0.935665 0.252280 -0.246750
vn -0.778411 0.415081 -0.470939
vn -0.842483 0.207621 -0.497108
vn -0.985957 0.166154 -0.016760
vn -0.984071 0.176136 -0.024079
vn -0.898138 0.246114 -0.364385
vn -0.127297 0.253924 -0.958811
vn -0.124568 0.001906 -0.992209
vn -0.020154 0.311752 -0.949950
vn -0.513587 0.124179 0.849004
vn -0.678053 -0.076364 0.731035
g pasted__pasted__stone pasted__graystone group
usemtl pasted__pasted__phong4SG
f 22/29/1 2/2/2 27/34/3
f 26/33/4 6/6/5 7/7/6
f 2/2/2 3/3/7 27/34/3
f 3/3/7 5/5/8 27/34/3
f 5/5/8 8/8/9 27/34/3
f 8/8/9 7/7/6 27/34/3
f 6/6/5 27/34/3 7/7/6
f 25/32/10 26/33/4 11/11/11
f 7/7/6 8/8/12 26/33/4
f 26/33/4 8/8/12 11/11/11
f 8/8/12 9/9/13 11/11/11
f 9/9/13 12/12/14 11/11/11
f 12/12/15 14/14/16 11/11/17
f 23/30/18 24/31/19 16/16/20
f 14/14/16 16/16/20 11/11/17
f 16/16/20 24/31/19 11/11/17
f 25/32/21 11/11/17 24/31/19
f 16/16/20 14/14/16 17/17/22
f 19/19/23 17/18/24 20/21/25
f 20/21/25 17/18/24 14/20/26
f 3/3/27 19/19/23 5/5/28
f 5/5/28 19/19/23 20/21/25
f 14/20/26 12/22/29 20/21/25
f 20/21/25 12/22/29 9/23/30
f 5/5/28 20/21/25 8/8/31
f 8/8/31 20/21/25 9/23/30
f 18/25/32 21/27/33 15/24/34
f 15/24/34 21/27/33 13/26/35
f 18/25/32 1/1/36 21/27/33
f 21/27/33 1/1/36 4/4/37
f 13/26/35 21/27/33 10/28/38
f 10/28/38 21/27/33 26/33/4
f 26/33/4 21/27/33 6/6/5
f 4/4/37 6/6/5 21/27/33
f 24/31/19 23/30/18 13/13/39
f 13/13/39 23/30/18 15/15/40
f 10/10/41 25/32/21 13/13/39
f 13/13/39 25/32/21 24/31/19
f 10/10/38 26/33/4 25/32/10
f 4/4/42 27/34/3 6/6/5
f 1/1/43 22/29/1 4/4/42
f 4/4/42 22/29/1 27/34/3
