# This file uses centimeters as units for non-parametric coordinates.

mtllib rock1.mtl
g default
v -0.644225 -0.011032 0.198160
v -0.126061 -0.007353 0.561912
v 0.106504 -0.013872 0.528955
v -0.587286 0.168350 0.299514
v -0.107242 0.209088 0.437352
v 0.287586 0.213917 0.442441
v -0.449028 0.404543 0.117485
v -0.115909 0.471983 0.249795
v 0.225974 0.440806 0.261359
v -0.420048 0.451482 -0.151583
v -0.010592 0.496558 -0.039627
v 0.429091 0.458541 0.112821
v -0.379336 0.386286 -0.393739
v 0.155110 0.461652 -0.217353
v 0.389340 0.442643 -0.101742
v -0.319102 0.110818 -0.594348
v 0.125219 0.135115 -0.558735
v 0.537048 0.146919 -0.266962
v -0.441729 -0.057294 -0.571673
v 0.131252 -0.089234 -0.540666
v 0.534501 -0.064966 -0.242744
v -0.655329 -0.021869 -0.095855
v 0.002596 -0.048294 0.010623
v 0.534927 -0.027314 0.214346
v 0.615390 0.215067 0.165532
v -0.661032 0.119625 -0.122592
v -0.376522 -0.039029 0.468775
v -0.299745 -0.070681 -0.031856
v -0.110059 -0.114689 -0.623839
v -0.052304 0.113396 -0.646799
v -0.063576 0.460881 -0.326872
v -0.190104 0.515985 -0.091428
v -0.272082 0.476668 0.229041
v -0.326366 0.186633 0.399262
vt 0.375000 0.000000
vt 0.500000 0.000000
vt 0.625000 0.000000
vt 0.375000 0.125000
vt 0.500000 0.125000
vt 0.625000 0.125000
vt 0.375000 0.250000
vt 0.500000 0.250000
vt 0.625000 0.250000
vt 0.375000 0.375000
vt 0.500000 0.375000
vt 0.625000 0.375000
vt 0.375000 0.500000
vt 0.500000 0.500000
vt 0.625000 0.500000
vt 0.375000 0.625000
vt 0.500000 0.625000
vt 0.625000 0.625000
vt 0.375000 0.750000
vt 0.500000 0.750000
vt 0.625000 0.750000
vt 0.375000 0.875000
vt 0.500000 0.875000
vt 0.625000 0.875000
vt 0.375000 1.000000
vt 0.500000 1.000000
vt 0.625000 1.000000
vt 0.875000 0.000000
vt 0.750000 0.000000
vt 0.875000 0.125000
vt 0.750000 0.125000
vt 0.875000 0.250000
vt 0.750000 0.250000
vt 0.125000 0.000000
vt 0.250000 0.000000
vt 0.125000 0.125000
vt 0.250000 0.125000
vt 0.125000 0.250000
vt 0.250000 0.250000
vt 0.445030 0.000000
vt 0.445030 1.000000
vt 0.445030 0.875000
vt 0.445030 0.750000
vt 0.445030 0.625000
vt 0.445030 0.500000
vt 0.445030 0.375000
vt 0.445030 0.250000
vt 0.445030 0.125000
vn -0.470775 0.224467 0.853220
vn -0.103841 0.454015 0.884922
vn -0.313145 0.503815 0.805053
vn -0.064590 0.521488 0.850810
vn 0.039028 0.411522 0.910564
vn -0.017420 0.532290 0.846383
vn -0.392909 0.536438 0.746898
vn -0.014127 0.580410 0.814202
vn 0.004512 0.600710 0.799455
vn -0.206995 0.976059 0.066799
vn 0.061775 0.991075 0.118125
vn -0.109621 0.991159 -0.074745
vn 0.090151 0.995795 0.016299
vn 0.055798 0.988680 0.139279
vn 0.072542 0.996591 0.039301
vn -0.060617 0.968298 -0.242333
vn 0.095201 0.989836 -0.105648
vn 0.119084 0.988667 -0.091415
vn 0.058044 0.413105 -0.908832
vn 0.165047 0.659435 -0.733420
vn 0.463183 0.415269 -0.782952
vn 0.395097 0.634357 -0.664447
vn 0.395217 0.590517 -0.703629
vn 0.526117 0.381616 -0.759980
vn 0.051723 -0.101915 -0.993448
vn 0.518330 -0.090293 -0.850401
vn 0.595165 -0.098317 -0.797567
vn -0.041768 -0.997663 0.054069
vn -0.038253 -0.997501 0.059409
vn 0.031901 -0.996402 0.078525
vn 0.037353 -0.995876 0.082674
vn 0.005829 -0.996949 0.077841
vn 0.011534 -0.997297 0.072566
vn 0.010787 -0.997186 0.074194
vn 0.047864 -0.995224 0.085079
vn -0.000900 -0.997790 0.066443
vn 0.848492 -0.213506 0.484228
vn 0.985058 -0.141591 -0.098045
vn 0.926809 0.241795 0.287331
vn 0.944697 0.251290 -0.210717
vn 0.581136 -0.158840 0.798155
vn 0.609400 0.151606 0.778234
vn 0.809442 0.543794 -0.221567
vn 0.712195 0.617308 0.334229
vn 0.498523 0.590623 0.634539
vn -0.968913 -0.083093 -0.233032
vn -0.912602 0.335787 -0.233247
vn -0.751603 0.399889 -0.524577
vn -0.757060 0.344482 -0.555151
vn -0.972541 0.193251 0.129681
vn -0.887922 0.448225 0.103389
vn -0.799052 0.339553 -0.496206
vn -0.806453 0.572803 -0.146736
vn -0.821915 0.567165 0.052710
vn -0.140050 -0.989874 0.023150
vn -0.143991 -0.988739 0.040761
vn -0.160543 -0.986869 0.017752
vn -0.135740 0.433342 -0.890949
vn -0.158332 -0.017668 -0.987228
vn 0.030401 0.592751 -0.804812
vn -0.248775 0.964935 -0.083731
vn -0.167300 0.939659 -0.298416
vn -0.360339 0.931465 0.050282
vn -0.495525 0.365507 0.787946
vn -0.493456 0.570822 0.656250
vn -0.709861 -0.161980 0.685463
g pCube1
usemtl phong4SG
f 27/40/1 2/2/2 34/48/3
f 34/48/3 2/2/2 5/5/4
f 2/2/2 3/3/5 5/5/4
f 5/5/4 3/3/5 6/6/6
f 34/48/3 5/5/4 33/47/7
f 33/47/7 5/5/4 8/8/8
f 6/6/6 9/9/9 5/5/4
f 5/5/4 9/9/9 8/8/8
f 33/47/10 8/8/11 32/46/12
f 32/46/12 8/8/11 11/11/13
f 8/8/11 9/9/14 11/11/13
f 11/11/13 9/9/14 12/12/15
f 32/46/12 11/11/13 31/45/16
f 31/45/16 11/11/13 14/14/17
f 12/12/15 15/15/18 11/11/13
f 11/11/13 15/15/18 14/14/17
f 30/44/19 31/45/20 17/17/21
f 17/17/21 31/45/20 14/14/22
f 15/15/23 18/18/24 14/14/22
f 14/14/22 18/18/24 17/17/21
f 29/43/25 30/44/19 20/20/26
f 20/20/26 30/44/19 17/17/21
f 17/17/21 18/18/24 20/20/26
f 20/20/26 18/18/24 21/21/27
f 28/42/28 29/43/29 23/23/30
f 23/23/30 29/43/29 20/20/31
f 20/20/31 21/21/32 23/23/30
f 23/23/30 21/21/32 24/24/33
f 28/42/28 23/23/30 27/41/34
f 27/41/34 23/23/30 2/26/35
f 24/24/33 3/27/36 23/23/30
f 23/23/30 3/27/36 2/26/35
f 24/29/37 21/28/38 25/31/39
f 25/31/39 21/28/38 18/30/40
f 3/3/41 24/29/37 6/6/42
f 6/6/42 24/29/37 25/31/39
f 18/30/40 15/32/43 25/31/39
f 25/31/39 15/32/43 12/33/44
f 6/6/42 25/31/39 9/9/45
f 9/9/45 25/31/39 12/33/44
f 22/35/46 26/37/47 19/34/48
f 19/34/48 26/37/47 16/36/49
f 22/35/46 1/1/50 26/37/47
f 26/37/47 1/1/50 4/4/51
f 16/36/49 26/37/47 13/38/52
f 13/38/52 26/37/47 10/39/53
f 4/4/51 7/7/54 26/37/47
f 26/37/47 7/7/54 10/39/53
f 22/22/55 28/42/28 1/25/56
f 1/25/56 28/42/28 27/41/34
f 29/43/29 28/42/28 19/19/57
f 19/19/57 28/42/28 22/22/55
f 30/44/19 29/43/25 16/16/58
f 16/16/58 29/43/25 19/19/59
f 13/13/60 31/45/20 16/16/58
f 16/16/58 31/45/20 30/44/19
f 10/10/61 32/46/12 13/13/62
f 13/13/62 32/46/12 31/45/16
f 33/47/10 32/46/12 7/7/63
f 7/7/63 32/46/12 10/10/61
f 4/4/64 34/48/3 7/7/65
f 7/7/65 34/48/3 33/47/7
f 1/1/66 27/40/1 4/4/64
f 4/4/64 27/40/1 34/48/3
