# This file uses centimeters as units for non-parametric coordinates.

mtllib rock2.mtl
g default
v -0.613226 -0.075296 0.268928
v -0.150111 -0.070463 0.665393
v 0.069284 -0.078898 0.613035
v -0.567544 0.175975 0.387598
v 0.241711 0.217692 0.504634
v -0.429159 0.409216 0.168876
v -0.125908 0.476195 0.305436
v 0.193243 0.442925 0.298605
v 0.392116 0.395471 0.111907
v -0.333642 0.334325 -0.435804
v 0.155188 0.410147 -0.259200
v 0.367531 0.390111 -0.137525
v -0.264128 0.105602 -0.677473
v 0.481965 0.140490 -0.340869
v -0.378555 -0.132431 -0.646649
v 0.155515 -0.167718 -0.644206
v 0.479994 -0.142109 -0.315805
v -0.606328 -0.089709 -0.075488
v 0.488317 -0.099014 0.218699
v 0.528723 0.213544 0.162829
v -0.550384 0.122042 -0.107719
v -0.378610 -0.101698 0.570393
v -0.065053 -0.192663 -0.727972
v -0.011647 0.105808 -0.754591
v -0.042811 0.404102 -0.374961
v -0.175584 0.516491 -0.089993
v -0.329567 0.193821 0.489575
vt 0.375000 0.000000
vt 0.500000 0.000000
vt 0.625000 0.000000
vt 0.375000 0.125000
vt 0.625000 0.125000
vt 0.375000 0.250000
vt 0.500000 0.250000
vt 0.625000 0.250000
vt 0.625000 0.375000
vt 0.375000 0.500000
vt 0.500000 0.500000
vt 0.625000 0.500000
vt 0.375000 0.625000
vt 0.625000 0.625000
vt 0.375000 0.750000
vt 0.500000 0.750000
vt 0.625000 0.750000
vt 0.875000 0.000000
vt 0.750000 0.000000
vt 0.875000 0.125000
vt 0.750000 0.125000
vt 0.875000 0.250000
vt 0.750000 0.250000
vt 0.125000 0.000000
vt 0.250000 0.000000
vt 0.125000 0.125000
vt 0.250000 0.125000
vt 0.125000 0.250000
vt 0.445030 0.000000
vt 0.445030 0.750000
vt 0.445030 0.625000
vt 0.445030 0.500000
vt 0.445030 0.375000
vt 0.445030 0.125000
vn -0.558029 0.159497 0.814349
vn -0.019486 0.544579 0.838483
vn -0.208306 0.541547 0.814454
vn -0.216658 0.967080 -0.133475
vn -0.648907 0.759687 0.042364
vn -0.088757 0.867115 0.490137
vn 0.012762 0.427807 0.903780
vn -0.044816 0.543888 0.837960
vn -0.012356 0.624568 0.780873
vn -0.010337 0.928562 -0.371033
vn 0.221279 0.967934 -0.118908
vn 0.191504 0.981203 -0.023815
vn 0.163845 0.984297 -0.065677
vn 0.112281 0.993148 -0.032407
vn 0.411162 0.681579 -0.605307
vn 0.377446 0.444066 -0.812613
vn 0.438191 0.584951 -0.682511
vn 0.008189 -0.077841 -0.996932
vn 0.458673 0.443159 -0.770214
vn 0.613823 0.262147 -0.744648
vn 0.141128 0.769328 -0.623071
vn 0.712352 -0.066930 -0.698624
vn 0.921142 -0.098456 0.376568
vn 0.996441 -0.066053 -0.052364
vn 0.941976 0.213914 0.258693
vn 0.979547 0.165191 -0.114889
vn 0.676401 -0.128145 0.725300
vn 0.720149 0.135316 0.680496
vn 0.839665 0.524064 -0.142548
vn 0.744038 0.624885 0.236487
vn 0.616618 0.600444 0.509164
vn -0.946527 0.213215 -0.242126
vn -0.880356 0.407362 -0.242960
vn -0.852051 0.313095 -0.419501
vn -0.849981 0.296288 -0.435597
vn -0.975435 0.214448 -0.050392
vn -0.938649 0.337839 -0.069306
vn -0.766342 0.574580 -0.287364
vn -0.216850 0.481695 -0.849086
vn -0.251856 -0.004248 -0.967755
vn -0.028549 0.721884 -0.691425
vn -0.547629 0.375438 0.747762
vn -0.787274 -0.140427 0.600399
g pasted__stone graystone
usemtl pasted__phong4SG
f 22/29/1 2/2/2 27/34/3
f 26/33/4 6/6/5 7/7/6
f 2/2/2 3/3/7 27/34/3
f 3/3/7 5/5/8 27/34/3
f 5/5/8 8/8/9 27/34/3
f 8/8/9 7/7/6 27/34/3
f 6/6/5 27/34/3 7/7/6
f 25/32/10 26/33/4 11/11/11
f 7/7/6 8/8/12 26/33/4
f 26/33/4 8/8/12 11/11/11
f 8/8/12 9/9/13 11/11/11
f 9/9/13 12/12/14 11/11/11
f 12/12/15 14/14/16 11/11/17
f 23/30/18 24/31/19 16/16/20
f 14/14/16 16/16/20 11/11/17
f 16/16/20 24/31/19 11/11/17
f 25/32/21 11/11/17 24/31/19
f 16/16/20 14/14/16 17/17/22
f 19/19/23 17/18/24 20/21/25
f 20/21/25 17/18/24 14/20/26
f 3/3/27 19/19/23 5/5/28
f 5/5/28 19/19/23 20/21/25
f 14/20/26 12/22/29 20/21/25
f 20/21/25 12/22/29 9/23/30
f 5/5/28 20/21/25 8/8/31
f 8/8/31 20/21/25 9/23/30
f 18/25/32 21/27/33 15/24/34
f 15/24/34 21/27/33 13/26/35
f 18/25/32 1/1/36 21/27/33
f 21/27/33 1/1/36 4/4/37
f 13/26/35 21/27/33 10/28/38
f 10/28/38 21/27/33 26/33/4
f 26/33/4 21/27/33 6/6/5
f 4/4/37 6/6/5 21/27/33
f 24/31/19 23/30/18 13/13/39
f 13/13/39 23/30/18 15/15/40
f 10/10/41 25/32/21 13/13/39
f 13/13/39 25/32/21 24/31/19
f 10/10/38 26/33/4 25/32/10
f 4/4/42 27/34/3 6/6/5
f 1/1/43 22/29/1 4/4/42
f 4/4/42 22/29/1 27/34/3
