# This file uses centimeters as units for non-parametric coordinates.

mtllib rock5.mtl
v 0.080006 0.469115 -1.004809
v 1.061188 0.431332 -0.264289
v -0.095307 0.813691 -0.072165
v -1.070645 0.501405 -0.401318
v -0.516941 -0.440271 -1.018326
v 0.800604 -0.483578 -0.933638
v 1.070645 -0.501405 0.179861
v 0.516941 0.440271 0.796870
v -0.800604 0.483578 0.712181
v -1.061188 -0.431332 0.042832
v 0.095307 -1.040085 -0.149292
v -0.080006 -0.469115 0.783353
vt 1.000000 0.500000
vt 0.838104 0.676208
vt 0.088104 0.823792
vt 0.176208 0.500000
vt 0.088104 0.176208
vt 0.838104 0.323792
vt 0.676208 0.500000
vt 0.588104 0.823792
vt 0.338104 0.676208
vt 0.338104 0.323792
vt 0.588104 0.176208
vt 0.500000 0.500000
vt 1.088104 0.823792
vt 1.176208 0.500000
vt 1.088104 0.176208
vn 0.256078 0.921407 -0.292289
vn 0.256078 0.921407 -0.292289
vn 0.256078 0.921407 -0.292289
vn -0.168027 0.914004 -0.369274
vn -0.168027 0.914004 -0.369274
vn -0.168027 0.914004 -0.369274
vn -0.436595 0.299205 -0.848446
vn -0.436595 0.299205 -0.848446
vn -0.436595 0.299205 -0.848446
vn 0.063249 -0.026690 -0.997641
vn 0.063249 -0.026690 -0.997641
vn 0.063249 -0.026690 -0.997641
vn 0.567688 0.374623 -0.733067
vn 0.567688 0.374623 -0.733067
vn 0.567688 0.374623 -0.733067
vn 0.334064 0.928259 0.163515
vn 0.334064 0.928259 0.163515
vn 0.334064 0.928259 0.163515
vn -0.332682 0.938171 0.095700
vn -0.332682 0.938171 0.095700
vn -0.332682 0.938171 0.095700
vn -0.868730 -0.220088 -0.443700
vn -0.868730 -0.220088 -0.443700
vn -0.868730 -0.220088 -0.443700
vn 0.009869 -0.819696 -0.572714
vn 0.009869 -0.819696 -0.572714
vn 0.009869 -0.819696 -0.572714
vn 0.966326 -0.102577 -0.235991
vn 0.966326 -0.102577 -0.235991
vn 0.966326 -0.102577 -0.235991
vn 0.868730 0.220088 0.443700
vn 0.868730 0.220088 0.443700
vn 0.868730 0.220088 0.443700
vn 0.005059 0.920047 0.391775
vn 0.005059 0.920047 0.391775
vn 0.005059 0.920047 0.391775
vn -0.966326 0.102577 0.235991
vn -0.966326 0.102577 0.235991
vn -0.966326 0.102577 0.235991
vn -0.483105 -0.841832 -0.240684
vn -0.483105 -0.841832 -0.240684
vn -0.483105 -0.841832 -0.240684
vn 0.514164 -0.846477 -0.138245
vn 0.514164 -0.846477 -0.138245
vn 0.514164 -0.846477 -0.138244
vn 0.436595 -0.299205 0.848446
vn 0.436595 -0.299205 0.848446
vn 0.436595 -0.299205 0.848446
vn -0.063249 0.026689 0.997641
vn -0.063249 0.026689 0.997641
vn -0.063249 0.026689 0.997641
vn -0.567688 -0.374624 0.733067
vn -0.567688 -0.374624 0.733067
vn -0.567688 -0.374624 0.733067
vn -0.361205 -0.823986 0.436552
vn -0.361205 -0.823986 0.436552
vn -0.361205 -0.823986 0.436552
vn 0.260350 -0.800892 0.539250
vn 0.260350 -0.800892 0.539250
vn 0.260350 -0.800892 0.539250
usemtl phong24SG
f 1/1/1 3/13/2 2/2/3
f 1/1/4 4/14/5 3/13/6
usemtl phong23SG
f 1/1/7 5/15/8 4/14/9
f 1/1/10 6/6/11 5/15/12
f 1/1/13 2/2/14 6/6/15
usemtl phong24SG
f 2/2/16 3/13/17 8/8/18
f 3/3/19 4/4/20 9/9/21
usemtl phong23SG
f 4/4/22 5/5/23 10/10/24
f 5/15/25 6/6/26 11/11/27
f 6/6/28 2/2/29 7/7/30
f 2/2/31 8/8/32 7/7/33
usemtl phong24SG
f 3/3/34 9/9/35 8/8/36
usemtl phong23SG
f 4/4/37 10/10/38 9/9/39
f 5/5/40 11/11/41 10/10/42
f 6/6/43 7/7/44 11/11/45
f 7/7/46 8/8/47 12/12/48
f 8/8/49 9/9/50 12/12/51
f 9/9/52 10/10/53 12/12/54
f 10/10/55 11/11/56 12/12/57
f 11/11/58 7/7/59 12/12/60
