# This file uses centimeters as units for non-parametric coordinates.

mtllib spruce.mtl
g default
v 0.819877 0.280841 -0.820907
v -0.000672 0.283931 -1.160789
v -0.821220 0.288031 -0.820907
v -1.161102 0.325085 -0.000358
v -0.821220 0.268677 0.843893
v -0.000672 0.268677 1.160072
v 0.819877 0.325085 0.820190
v 1.159759 0.238881 -0.000358
v 0.027464 3.278140 0.066858
v -0.595393 1.545642 -0.000580
v -0.395450 1.563555 0.406067
v -0.002354 1.642067 0.523156
v 0.395528 1.547047 0.397302
v 0.522972 1.638190 -0.000580
v 0.368723 1.639518 -0.371656
v -0.002354 1.601393 -0.540990
v -0.379682 1.617951 -0.377908
v -0.802331 0.986278 0.000931
v -0.569383 0.985260 -0.568164
v -0.000289 0.974367 -0.808811
v 0.574604 0.969813 -0.573963
v 0.792578 1.010689 0.000931
v 0.578426 0.953761 0.579645
v -0.000289 0.916571 0.840206
v -0.559084 0.900263 0.587290
v -0.303400 2.363177 0.033429
v -0.196479 2.372756 0.250886
v 0.013732 2.414741 0.313501
v 0.226502 2.363928 0.246199
v 0.294654 2.412667 0.033429
v 0.212168 2.413377 -0.165007
v 0.013732 2.392989 -0.255559
v -0.188047 2.401844 -0.168350
v -0.827698 1.020752 0.000000
v -0.581998 1.028610 -0.581998
v 0.000000 1.016332 -0.828532
v 0.586698 1.016691 -0.586698
v 0.810800 1.055027 0.000000
v 0.593565 0.990298 0.593565
v 0.000000 0.966857 0.854315
v -0.614253 0.933112 0.615905
v -0.613821 1.580309 0.002065
v -0.406586 1.598876 0.423543
v 0.000848 1.680252 0.544904
v 0.413243 1.581766 0.414460
v 0.545335 1.676233 0.002065
v 0.385459 1.677609 -0.382546
v 0.000848 1.638093 -0.558056
v -0.390242 1.655255 -0.389025
v -0.282717 2.330770 0.029550
v -0.176486 2.366380 -0.156273
v 0.009337 2.358226 -0.236586
v 0.192082 2.377001 -0.153194
v 0.268045 2.376347 0.029550
v 0.205283 2.331462 0.225496
v 0.009337 2.378257 0.287475
v -0.184251 2.339592 0.229812
v 0.829188 0.317504 -0.830177
v -0.000690 0.320909 -1.173361
v -0.829572 0.326120 -0.829182
v -1.032174 0.566051 0.000135
v -0.835099 0.295370 0.855232
v -0.000690 0.299044 1.177830
v 0.829844 0.354632 0.830233
v 1.169475 0.285960 -0.000300
vt 0.676777 0.073223
vt 0.500000 0.000000
vt 0.323223 0.073223
vt 0.250000 0.250000
vt 0.323223 0.426777
vt 0.500000 0.500000
vt 0.676777 0.426777
vt 0.750000 0.250000
vt 0.250000 0.500000
vt 0.312500 0.500000
vt 0.375000 0.500000
vt 0.437500 0.500000
vt 0.500000 0.500000
vt 0.562500 0.500000
vt 0.625000 0.500000
vt 0.687500 0.500000
vt 0.750000 0.500000
vt 0.500000 1.000000
vt 0.462349 0.698789
vt 0.500000 0.702716
vt 0.535009 0.719929
vt 0.575226 0.699098
vt 0.605346 0.719079
vt 0.640315 0.719370
vt 0.359685 0.719370
vt 0.391629 0.711012
vt 0.428660 0.714641
vt 0.446713 0.573707
vt 0.393057 0.572230
vt 0.338605 0.569614
vt 0.716065 0.567871
vt 0.283935 0.567871
vt 0.658031 0.578583
vt 0.608750 0.564998
vt 0.555760 0.553917
vt 0.500000 0.548022
vt 0.481174 0.849395
vt 0.500000 0.851358
vt 0.517504 0.859964
vt 0.537613 0.849549
vt 0.552673 0.859539
vt 0.570158 0.859685
vt 0.429842 0.859685
vt 0.445815 0.855506
vt 0.464330 0.857321
vt 0.448496 0.587966
vt 0.397116 0.588465
vt 0.344650 0.585734
vt 0.707429 0.585142
vt 0.292571 0.585142
vt 0.652025 0.594600
vt 0.604929 0.580286
vt 0.553395 0.572842
vt 0.500000 0.565657
vt 0.463512 0.708095
vt 0.500000 0.711900
vt 0.533927 0.728581
vt 0.572902 0.708393
vt 0.602091 0.727757
vt 0.635981 0.728039
vt 0.364019 0.728039
vt 0.394977 0.719939
vt 0.430864 0.723457
vt 0.479422 0.835377
vt 0.461010 0.844041
vt 0.440771 0.842057
vt 0.576687 0.846625
vt 0.423313 0.846625
vt 0.557575 0.846466
vt 0.541114 0.835546
vt 0.519134 0.846931
vt 0.500000 0.837524
vt 0.745169 0.509661
vt 0.254831 0.509661
vt 0.316216 0.509909
vt 0.377570 0.510282
vt 0.438811 0.510492
vt 0.500000 0.506836
vt 0.561541 0.507675
vt 0.622687 0.509252
vt 0.683305 0.511186
vn 0.033062 -0.996126 -0.081483
vn 0.033062 -0.996126 -0.081483
vn -0.022727 -0.999269 0.030726
vn -0.022868 -0.999257 0.031010
vn -0.030553 -0.998698 0.040843
vn -0.030544 -0.998700 0.040818
vn -0.004378 -0.999398 -0.034420
vn -0.004378 -0.999398 -0.034420
vn 0.376267 0.271814 -0.885743
vn 0.380754 0.249162 -0.890475
vn 0.367426 0.313276 -0.875703
vn -0.370750 0.278267 -0.886066
vn -0.370708 0.278542 -0.885997
vn -0.363346 0.323834 -0.873562
vn -0.855065 0.282762 -0.434638
vn -0.857202 0.270520 -0.438205
vn -0.847223 0.321811 -0.422671
vn -0.875509 0.239012 0.419948
vn -0.872261 0.254379 0.417674
vn -0.862084 0.296733 0.410805
vn -0.314315 0.185127 0.931093
vn -0.318781 0.221758 0.921522
vn -0.323463 0.264663 0.908474
vn 0.338708 0.200783 0.919219
vn 0.334760 0.175521 0.925812
vn 0.346125 0.252605 0.903542
vn 0.921973 0.188229 0.338430
vn 0.915762 0.211223 0.341708
vn 0.899290 0.264166 0.348559
vn 0.898191 0.233407 -0.372525
vn 0.900840 0.221039 -0.373670
vn 0.884826 0.287331 -0.366776
vn -0.801838 0.478848 0.357435
vn -0.814236 0.451216 0.365272
vn -0.825727 0.428601 0.366710
vn -0.837155 0.404940 0.367688
vn -0.348239 0.441710 0.826814
vn -0.347708 0.438928 0.828518
vn -0.347847 0.438040 0.828929
vn -0.344093 0.458449 0.819405
vn 0.333198 0.433149 0.837473
vn 0.334925 0.422630 0.842146
vn 0.333777 0.427642 0.840069
vn 0.334772 0.426927 0.840036
vn 0.844918 0.420372 0.330758
vn 0.848637 0.411092 0.332894
vn 0.847663 0.418463 0.326124
vn 0.844713 0.424849 0.325521
vn 0.849175 0.402467 -0.341939
vn 0.847439 0.406822 -0.341091
vn 0.845557 0.413970 -0.337138
vn 0.847506 0.409550 -0.337642
vn 0.346764 0.423454 -0.836924
vn 0.347924 0.417559 -0.839401
vn 0.347900 0.417691 -0.839344
vn 0.346950 0.422377 -0.837391
vn -0.345412 0.425347 -0.836523
vn -0.345943 0.419541 -0.839231
vn -0.345879 0.419891 -0.839083
vn -0.345527 0.424777 -0.836765
vn -0.843864 0.411948 -0.343792
vn -0.838751 0.425001 -0.340399
vn -0.825861 0.453784 -0.334714
vn -0.844373 0.410715 -0.344016
vn -0.861354 0.338325 -0.378954
vn -0.861228 0.338695 -0.378908
vn -0.357476 0.355521 -0.863606
vn -0.357201 0.357172 -0.863039
vn 0.353856 0.357965 -0.864087
vn 0.353666 0.359278 -0.863620
vn 0.865235 0.355589 -0.353446
vn 0.862258 0.363338 -0.352841
vn 0.862772 0.355613 0.359394
vn 0.857170 0.369449 0.358843
vn 0.367816 0.360995 0.856968
vn 0.366208 0.369148 0.854179
vn -0.348833 0.376769 0.858115
vn -0.346762 0.383389 0.856019
vn -0.883044 0.290983 0.368188
vn -0.870965 0.325111 0.368406
vn -0.841104 0.347843 -0.414184
vn -0.844257 0.334816 -0.418483
vn -0.837616 0.361444 -0.409584
vn -0.839020 0.356063 -0.411418
vn -0.851062 0.335779 0.403665
vn -0.858578 0.309787 0.408505
vn -0.855456 0.320887 0.406481
vn -0.852907 0.329622 0.404844
vn -0.327575 0.308019 0.893207
vn -0.323522 0.265239 0.908285
vn -0.326362 0.294509 0.898194
vn -0.326240 0.293181 0.898673
vn 0.349567 0.279203 0.894343
vn 0.346520 0.255561 0.902559
vn 0.351341 0.293739 0.888976
vn 0.350046 0.283068 0.892939
vn 0.884218 0.305600 0.353223
vn 0.897577 0.269159 0.349155
vn 0.889914 0.290566 0.351604
vn 0.887825 0.296160 0.352216
vn 0.878386 0.309722 -0.364020
vn 0.880698 0.301895 -0.365009
vn 0.872353 0.329179 -0.361443
vn 0.873906 0.324296 -0.362106
vn 0.360991 0.341236 -0.867896
vn 0.365046 0.323816 -0.872860
vn 0.357268 0.356680 -0.863214
vn 0.359467 0.347619 -0.865994
vn -0.356364 0.362171 -0.861300
vn -0.359864 0.343438 -0.867496
vn -0.359579 0.344995 -0.866995
vn -0.356425 0.361852 -0.861408
vn -0.848594 0.365210 -0.382767
vn -0.851125 0.355269 -0.386484
vn -0.353802 0.380662 -0.854354
vn -0.354004 0.379645 -0.854722
vn 0.352617 0.385123 -0.852843
vn 0.355016 0.375709 -0.856041
vn 0.854495 0.380187 -0.353972
vn 0.855636 0.377157 -0.354457
vn 0.852905 0.383630 0.354092
vn 0.860176 0.368128 0.352957
vn 0.354018 0.385268 0.852197
vn 0.352849 0.371039 0.858969
vn -0.342347 0.382064 0.858385
vn -0.341258 0.366703 0.865489
vn -0.855374 0.355457 0.376809
vn -0.853355 0.361783 0.375365
vn 0.362945 -0.306768 -0.879866
vn 0.362945 -0.306768 -0.879866
vn -0.368390 -0.286665 -0.884371
vn -0.368390 -0.286665 -0.884371
vn -0.892965 -0.273469 -0.357530
vn -0.832723 0.442709 -0.332538
vn -0.795711 -0.534636 0.284619
vn -0.832911 0.442218 0.332720
vn -0.312777 -0.490829 0.813177
vn -0.312777 -0.490829 0.813177
vn 0.370341 -0.440870 0.817607
vn 0.370341 -0.440870 0.817607
vn 0.879155 -0.276943 0.387800
vn 0.879155 -0.276943 0.387800
vn 0.892626 -0.244466 -0.378755
vn 0.892626 -0.244466 -0.378755
s 1
g pCone1
usemtl phong1SG
f 6/6/1 5/5/2 4/4/3 7/7/4
f 7/7/4 4/4/3 3/3/5 8/8/6
f 1/1/7 8/8/6 3/3/5 2/2/8
s 2
f 31/43/9 32/44/10 9/18/11
s 3
f 32/44/12 33/45/13 9/18/14
s 4
f 33/45/15 26/37/16 9/18/17
s 5
f 26/37/18 27/38/19 9/18/20
s 6
f 27/38/21 28/39/22 9/18/23
s 7
f 28/39/24 29/40/25 9/18/26
s 8
f 29/40/27 30/41/28 9/18/29
s 9
f 30/41/30 31/42/31 9/18/32
s 5
f 61/77/33 62/78/34 25/36/35 18/28/36
s 6
f 25/36/37 62/78/38 63/79/39 24/35/40
s 7
f 24/35/41 63/79/42 64/80/43 23/34/44
s 8
f 64/80/45 65/81/46 22/33/47 23/34/48
s 9
f 65/81/49 58/73/50 21/31/51 22/33/52
s 2
f 21/32/53 58/74/54 59/75/55 20/30/56
s 3
f 20/30/57 59/75/58 60/76/59 19/29/60
s 4
f 19/29/61 60/76/62 61/77/63 18/28/64
f 35/47/65 19/29/61 18/28/64 34/46/66
s 3
f 36/48/67 20/30/57 19/29/60 35/47/68
s 2
f 37/50/69 21/32/53 20/30/56 36/48/70
s 9
f 22/33/52 21/31/51 37/49/71 38/51/72
s 8
f 39/52/73 23/34/48 22/33/47 38/51/74
s 7
f 40/53/75 24/35/41 23/34/44 39/52/76
s 6
f 25/36/37 24/35/40 41/54/77
f 41/54/77 24/35/40 40/53/78
s 5
f 18/28/36 25/36/35 41/54/79 34/46/80
s 4
f 49/63/81 42/55/82 50/64/83 51/65/84
s 5
f 50/64/85 42/55/86 43/56/87 57/72/88
s 6
f 57/72/89 43/56/90 44/57/91 56/71/92
s 7
f 44/57/93 45/58/94 55/70/95 56/71/96
s 8
f 55/70/97 45/58/98 46/59/99 54/69/100
s 9
f 46/59/101 47/60/102 53/67/103 54/69/104
s 2
f 47/61/105 48/62/106 52/66/107 53/68/108
s 3
f 52/66/109 48/62/110 49/63/111 51/65/112
s 4
f 35/47/65 34/46/66 10/19/113 17/27/114
s 3
f 16/26/115 36/48/67 35/47/68 17/27/116
s 2
f 37/50/69 36/48/70 16/26/117 15/25/118
s 9
f 38/51/72 37/49/71 15/24/119 14/23/120
s 8
f 13/22/121 39/52/73 38/51/74 14/23/122
s 7
f 40/53/75 39/52/76 13/22/123 12/21/124
s 6
f 11/20/125 41/54/77 40/53/78 12/21/126
s 5
f 34/46/80 41/54/79 11/20/127 10/19/128
f 42/55/86 10/19/128 11/20/127 43/56/87
s 6
f 43/56/90 11/20/125 12/21/126 44/57/91
s 7
f 12/21/124 13/22/123 45/58/94 44/57/93
s 8
f 45/58/98 13/22/121 14/23/122 46/59/99
s 9
f 14/23/120 15/24/119 47/60/102 46/59/101
s 2
f 15/25/118 16/26/117 48/62/106 47/61/105
s 3
f 16/26/115 17/27/116 49/63/111 48/62/110
s 4
f 17/27/114 10/19/113 42/55/82 49/63/81
f 51/65/84 50/64/83 26/37/16 33/45/15
s 3
f 52/66/109 51/65/112 33/45/13 32/44/12
s 2
f 53/68/108 52/66/107 32/44/10 31/43/9
s 9
f 54/69/104 53/67/103 31/42/31 30/41/30
s 8
f 29/40/27 55/70/97 54/69/100 30/41/28
s 7
f 56/71/96 55/70/95 29/40/25 28/39/24
s 6
f 27/38/21 57/72/89 56/71/92 28/39/22
s 5
f 26/37/18 50/64/85 57/72/88 27/38/19
s 2
f 58/74/54 1/9/129 2/10/130 59/75/55
s 3
f 59/75/58 2/10/131 3/11/132 60/76/59
s 4
f 3/11/133 4/12/134 60/76/62
f 60/76/62 4/12/134 61/77/63
s 5
f 5/13/135 62/78/34 4/12/136
f 4/12/136 62/78/34 61/77/33
s 6
f 5/13/137 6/14/138 63/79/39 62/78/38
s 7
f 63/79/42 6/14/139 7/15/140 64/80/43
s 8
f 7/15/141 8/16/142 65/81/46 64/80/45
s 9
f 65/81/49 8/16/143 1/17/144 58/73/50
g default
v 0.069574 -0.004027 -0.069520
v -0.044618 -0.004027 -0.087651
v -0.097149 -0.004027 0.015348
v -0.015423 -0.004027 0.097137
v 0.087617 -0.004027 0.044686
v 0.069574 0.290934 -0.069520
v -0.044618 0.290934 -0.087651
v -0.097149 0.290934 0.015348
v -0.015423 0.290934 0.097137
v 0.087617 0.290934 0.044686
v 0.000000 -0.004027 0.000000
v 0.000000 0.290934 0.000000
v -0.024546 0.131990 -0.127007
v -0.077077 0.113156 -0.024008
v 0.004649 0.111395 0.057781
v 0.107689 0.116555 0.005329
v 0.089646 0.114174 -0.108876
vt 0.548284 0.007647
vt 0.373591 0.064409
vt 0.373591 0.248091
vt 0.548284 0.304853
vt 0.656250 0.156250
vt 0.375000 0.312500
vt 0.425000 0.312500
vt 0.475000 0.312500
vt 0.525000 0.312500
vt 0.575000 0.312500
vt 0.625000 0.312500
vt 0.375000 0.688440
vt 0.425000 0.688440
vt 0.475000 0.688440
vt 0.525000 0.688440
vt 0.575000 0.688440
vt 0.625000 0.688440
vt 0.548284 0.695147
vt 0.373591 0.751909
vt 0.373591 0.935591
vt 0.548284 0.992353
vt 0.656250 0.843750
vt 0.500000 0.150000
vt 0.500000 0.837500
vt 0.425000 0.485859
vt 0.475000 0.461855
vt 0.525000 0.459610
vt 0.575000 0.466187
vt 0.625000 0.463152
vt 0.375000 0.463152
vn 0.170621 0.244227 -0.954590
vn 0.149372 -0.089504 -0.984722
vn 0.162427 0.080475 -0.983433
vn 0.170621 0.244227 -0.954590
vn -0.890831 -0.000000 -0.454334
vn -0.890831 0.000000 -0.454334
vn -0.890831 -0.000000 -0.454334
vn -0.890831 -0.000000 -0.454334
vn -0.707397 -0.010343 0.706741
vn -0.707288 0.010190 0.706852
vn -0.689844 -0.228809 0.686849
vn -0.689844 -0.228809 0.686849
vn 0.451755 -0.144552 0.880353
vn 0.453219 0.017889 0.891220
vn 0.453938 -0.018546 0.890840
vn 0.451755 -0.144552 0.880353
vn 0.987722 0.005836 -0.156110
vn 0.987739 -0.006353 -0.155986
vn 0.976838 0.146616 -0.155858
vn 0.976838 0.146616 -0.155858
vn 0.000000 -1.000000 0.000000
vn 0.000000 -1.000000 -0.000000
vn 0.000000 -1.000000 -0.000000
vn 0.000000 -1.000000 0.000000
vn 0.000000 -1.000000 0.000000
vn 0.000000 -1.000000 -0.000000
vn 0.000000 1.000000 0.000000
vn 0.000000 1.000000 0.000000
vn 0.000000 1.000000 0.000000
vn 0.000000 1.000000 0.000000
vn 0.000000 1.000000 0.000000
vn 0.000000 1.000000 0.000000
vn -0.890831 0.000000 -0.454334
vn -0.890831 0.000000 -0.454334
vn -0.663392 0.340047 0.666542
vn -0.663392 0.340047 0.666542
vn 0.438599 0.216313 0.872261
vn 0.438599 0.216313 0.872261
vn 0.965654 -0.211909 -0.150354
vn 0.965654 -0.211909 -0.150354
vn 0.125271 -0.311442 -0.941972
vn 0.125271 -0.311442 -0.941972
s 1
g pCylinder1
usemtl phong2SG
f 71/93/145 82/111/146 78/106/147 72/94/148
s 2
f 78/106/149 79/107/150 73/95/151 72/94/152
s 3
f 79/107/153 80/108/154 74/96/155 73/95/156
s 4
f 74/96/157 80/108/158 81/109/159 75/97/160
s 5
f 81/109/161 82/110/162 71/98/163 75/97/164
s 6
f 67/83/165 66/82/166 76/104/167 68/84/168
f 69/85/169 68/84/168 76/104/167 70/86/170
f 66/82/166 70/86/170 76/104/167
s 7
f 77/105/171 71/102/172 72/101/173 73/100/174
f 73/100/174 74/99/175 77/105/171
f 77/105/171 74/99/175 75/103/176 71/102/172
s 2
f 67/88/177 68/89/178 79/107/150 78/106/149
s 3
f 68/89/179 69/90/180 80/108/154 79/107/153
s 4
f 80/108/158 69/90/181 70/91/182 81/109/159
s 5
f 81/109/161 70/91/183 66/92/184 82/110/162
s 1
f 82/111/146 66/87/185 67/88/186 78/106/147
