# This file uses centimeters as units for non-parametric coordinates.

mtllib banana_tree.mtl
g default
v -0.022525 -0.098002 0.032511
v 2.169439 1.237074 -1.166464
v 1.703124 1.729377 -0.415504
v 1.399700 1.750182 -1.189377
v 1.059959 1.907590 -0.027466
v 0.703575 1.991506 -0.915787
v 0.915816 2.396495 -0.497859
v 1.625397 2.140939 -0.837779
v -1.894605 0.849673 1.406314
v -1.032622 1.323749 0.098154
v -0.421843 1.413937 0.940611
v -1.701939 1.108305 0.665766
v -1.224121 1.297112 1.393580
v -0.892625 1.776537 0.675695
v -1.471582 1.548238 1.066530
v -1.429468 0.674339 -1.358893
v -0.767499 1.183805 -1.378272
v -1.393827 1.250115 -0.677503
v -0.351467 1.451328 -1.096923
v -0.973389 1.758478 -0.342273
v -0.666580 2.026452 -0.678408
v -1.071253 1.756457 -1.041793
v 0.926301 0.586930 1.210400
v 0.386308 1.171362 1.122437
v 1.002161 0.955947 0.699920
v 0.078341 1.295492 0.604848
v 0.684634 1.214751 0.200699
v 0.379065 1.639066 0.408225
v 0.703081 1.442749 0.920847
v -0.349436 2.086885 1.868296
v -0.540370 2.254917 1.237841
v 0.020108 1.954827 1.417031
v -0.357510 1.768688 0.724778
v 0.069168 1.674788 0.778235
v -0.159049 2.025442 0.750963
v -0.254250 2.305395 1.373913
v 0.097230 0.536402 -1.097386
v 0.299474 1.182841 -0.480408
v 0.328094 1.107982 -0.712125
v -0.239854 1.338219 -0.608923
v -0.162925 1.216235 -0.886190
v 0.026368 1.523315 -0.473810
v 0.060852 1.304772 -0.771849
vt 0.605181 0.000000
vt 0.457491 1.000000
vt 0.000000 0.786988
vt 1.000000 0.796239
vt 0.000000 0.537000
vt 1.000000 0.552335
vt 0.419939 0.543440
vt 0.489371 0.791515
vt 0.374817 0.000000
vt 0.520000 1.000000
vt 0.000000 0.293423
vt 1.000000 0.299357
vt 0.000000 0.878172
vt 1.000000 0.875631
vt 0.517275 0.296493
vt 0.552516 0.876768
vt 0.616041 0.000000
vt 0.498803 1.000000
vt 0.000000 0.856167
vt 1.000000 0.868870
vt 0.000000 0.374003
vt 1.000000 0.355743
vt 0.498327 0.364903
vt 0.497488 0.862486
vt 0.646672 0.000000
vt 0.475183 1.000000
vt 0.000000 0.674735
vt 1.000000 0.681713
vt 0.000000 0.389346
vt 1.000000 0.401450
vt 0.519414 0.395633
vt 0.520779 0.678369
vt 0.681233 0.000000
vt 0.519017 1.000000
vt 0.000000 0.748830
vt 1.000000 0.767300
vt 0.000000 0.400240
vt 1.000000 0.397544
vt 0.510994 0.398862
vt 0.532825 0.758671
vt 0.619184 0.000000
vt 0.496688 1.000000
vt 0.000000 0.364482
vt 0.000000 0.735507
vt 1.000000 0.361470
vt 1.000000 0.708720
vt 0.483233 0.363026
vt 0.489869 0.722385
vn -0.834210 0.395504 0.384278
vn -0.452263 0.545531 0.705587
vn -0.666867 0.680096 0.304562
vn 0.661005 0.596638 0.455077
vn 0.755703 0.571301 -0.320200
vn 0.622089 0.757494 -0.198011
vn -0.818722 0.558269 -0.134275
vn 0.134417 0.618779 -0.773980
vn 0.674530 0.499588 -0.543527
vn 0.373925 0.683716 -0.626668
vn 0.371808 0.853536 -0.365014
vn -0.688910 0.654380 -0.311753
vn -0.591895 0.787172 0.173262
vn -0.739588 0.598053 0.308775
vn 0.680064 0.676503 -0.282587
vn -0.038616 0.741731 0.669585
vn -0.071150 0.476994 -0.876022
vn -0.544597 0.607345 -0.578399
vn 0.862223 0.502381 -0.064688
vn 0.715055 0.613981 0.334253
vn -0.663967 0.404153 -0.629133
vn 0.798681 0.394259 0.454608
vn 0.174275 0.638449 0.749674
vn -0.867491 0.489697 -0.087501
vn -0.113653 0.674515 0.729461
vn 0.634678 0.391051 0.666530
vn 0.513260 0.699259 0.497596
vn -0.784777 0.549030 -0.287563
vn -0.338641 0.640600 -0.689169
vn -0.499472 0.291896 -0.815674
vn 0.140922 0.501766 -0.853447
vn 0.859649 0.509171 0.041814
vn -0.178147 0.948019 -0.263675
vn 0.354848 0.827948 0.434263
vn 0.449528 0.890832 0.065899
vn -0.351066 0.359533 -0.864574
vn 0.265623 0.516923 -0.813778
vn 0.224214 0.325240 -0.918666
vn 0.670910 0.387478 -0.632251
vn 0.792318 0.608607 0.042761
vn 0.541297 0.539301 -0.645098
vn 0.364976 0.560830 -0.743143
vn 0.496665 0.407315 0.766432
vn -0.127396 0.472250 0.872210
vn -0.121504 0.299220 0.946416
vn 0.383166 0.375653 -0.843842
vn -0.619918 0.471160 0.627463
vn 0.186398 0.565991 -0.803063
g pCylinder11
usemtl pasted__lilypad1SG1
f 1/1/1 5/5/2 7/7/3
f 3/3/4 2/2/5 8/8/6
f 5/5/2 3/3/4 7/7/3
f 7/7/3 3/3/4 8/8/6
f 7/7/3 6/6/7 1/1/1
f 4/4/8 6/6/7 8/8/6
f 8/8/6 6/6/7 7/7/3
f 2/2/5 4/4/8 8/8/6
f 1/9/9 10/11/10 14/15/11
f 10/11/10 12/13/12 14/15/11
f 14/15/11 12/13/12 15/16/13
f 12/13/12 9/10/14 15/16/13
f 14/15/11 11/12/15 1/9/9
f 15/16/13 13/14/16 14/15/11
f 14/15/11 13/14/16 11/12/15
f 9/10/14 13/14/16 15/16/13
f 17/19/17 22/24/18 19/21/19
f 19/21/19 22/24/18 21/23/20
f 17/19/17 16/18/21 22/24/18
f 1/17/22 19/21/19 21/23/20
f 20/22/23 1/17/22 21/23/20
f 18/20/24 20/22/23 22/24/18
f 22/24/18 20/22/23 21/23/20
f 16/18/21 18/20/24 22/24/18
f 24/27/25 23/26/26 29/32/27
f 24/27/25 29/32/27 26/29/28
f 26/29/28 29/32/27 28/31/29
f 1/25/30 26/29/28 28/31/29
f 28/31/29 27/30/31 1/25/30
f 25/28/32 27/30/31 29/32/27
f 29/32/27 27/30/31 28/31/29
f 23/26/26 25/28/32 29/32/27
f 31/35/33 30/34/34 36/40/35
f 33/37/36 31/35/33 35/39/37
f 35/39/37 31/35/33 36/40/35
f 1/33/38 33/37/36 35/39/37
f 34/38/39 1/33/38 35/39/37
f 36/40/35 32/36/40 35/39/37
f 35/39/37 32/36/40 34/38/39
f 30/34/34 32/36/40 36/40/35
f 39/44/41 43/48/42 38/43/43
f 38/43/43 43/48/42 42/47/44
f 1/41/45 38/43/43 42/47/44
f 39/44/41 37/42/46 43/48/42
f 42/47/44 40/45/47 1/41/45
f 41/46/48 40/45/47 43/48/42
f 43/48/42 40/45/47 42/47/44
f 37/42/46 41/46/48 43/48/42
