# This file uses centimeters as units for non-parametric coordinates.

mtllib banana_tree.mtl
g default
v 0.380658 -1.276589 -0.075312
v 0.044846 -1.276589 -0.075312
v -0.053535 -1.286960 0.148380
v 0.044846 -1.276589 0.503034
v 0.380658 -1.276589 0.503034
v 0.548563 -1.276589 0.213861
v -0.029710 2.146421 0.042881
v 0.041350 2.012866 -0.086620
v -0.035725 1.974466 -0.086212
v -0.120524 1.975416 -0.008915
v -0.083053 2.059131 0.118027
v 0.039549 2.052936 0.120461
v 0.101750 2.029805 0.018137
v 0.187258 0.223408 -0.173364
v 0.012947 0.219878 -0.172558
v -0.073250 0.207129 -0.022482
v 0.014864 0.197911 0.126788
v 0.189175 0.201440 0.125982
v 0.275372 0.214190 -0.024094
v 2.693731 0.341092 -1.465522
v 2.412213 2.145727 -0.125109
v 1.680351 2.168904 -1.991697
v 1.537372 2.526389 0.311007
v 0.788695 2.607809 -1.555139
v 1.234561 3.000746 -0.677174
v 2.224733 2.604205 -1.143640
v -2.448535 0.920098 1.717805
v -1.559934 2.307031 0.008957
v -0.568125 2.374669 1.376974
v -2.335009 1.832918 0.740763
v -1.524406 1.980852 1.975474
v -1.332601 2.646611 0.946793
v -1.944216 2.177614 1.420646
v -1.912930 0.457383 -1.786626
v -1.012316 1.917260 -1.817914
v -1.838431 1.957654 -0.893614
v -0.463578 2.080229 -1.446820
v -1.283882 2.267337 -0.451451
v -0.879206 2.509035 -0.894807
v -1.412962 2.266106 -1.374105
v 1.206537 0.431808 1.757569
v 0.154593 1.661897 1.723985
v 1.676770 1.415992 0.679669
v -0.298741 1.904795 1.065799
v 1.305090 1.806151 -0.003299
v 0.496765 2.324555 0.545671
v 0.937548 1.971698 1.225722
v -0.345656 2.639064 1.804388
v -0.597495 2.741425 0.972832
v 0.141765 2.558617 1.209179
v -0.356306 2.445226 0.296112
v 0.206474 2.388025 0.366619
v -0.094540 2.601634 0.330649
v -0.220108 2.858327 1.152308
v 0.128244 1.522878 -1.447430
v 0.395001 1.916673 -0.633648
v 0.432749 1.871070 -0.939279
v -0.316363 2.011325 -0.803158
v -0.214895 1.937016 -1.168867
v 0.034779 2.124081 -0.624946
v 0.080262 1.990950 -1.018054
vt 0.375000 0.312500
vt 0.416667 0.312500
vt 0.458333 0.312500
vt 0.500000 0.312500
vt 0.541667 0.312500
vt 0.583333 0.312500
vt 0.625000 0.312500
vt 0.471329 0.573700
vt 0.625000 0.613239
vt 0.375000 0.613239
vt 0.416667 0.613239
vt 0.458333 0.613239
vt 0.500000 0.613239
vt 0.541667 0.613239
vt 0.583333 0.613239
vt 0.625000 0.416776
vt 0.375000 0.416776
vt 0.416667 0.416776
vt 0.458333 0.416776
vt 0.500000 0.416776
vt 0.541667 0.416776
vt 0.583333 0.416776
vt 0.605181 0.000000
vt 0.457491 1.000000
vt 0.000000 0.786988
vt 1.000000 0.796239
vt 0.000000 0.537000
vt 1.000000 0.552335
vt 0.419939 0.543440
vt 0.489371 0.791515
vt 0.374817 0.000000
vt 0.520000 1.000000
vt 0.000000 0.293423
vt 1.000000 0.299357
vt 0.000000 0.878172
vt 1.000000 0.875631
vt 0.517275 0.296493
vt 0.552516 0.876768
vt 0.616041 0.000000
vt 0.498803 1.000000
vt 0.000000 0.856167
vt 1.000000 0.868870
vt 0.000000 0.374003
vt 1.000000 0.355743
vt 0.498327 0.364903
vt 0.497488 0.862486
vt 0.646672 0.000000
vt 0.475183 1.000000
vt 0.000000 0.674735
vt 1.000000 0.681713
vt 0.000000 0.389346
vt 1.000000 0.401450
vt 0.519414 0.395633
vt 0.520779 0.678369
vt 0.681233 0.000000
vt 0.519017 1.000000
vt 0.000000 0.748830
vt 1.000000 0.767300
vt 0.000000 0.400240
vt 1.000000 0.397544
vt 0.510994 0.398862
vt 0.532825 0.758671
vt 0.619184 0.000000
vt 0.496688 1.000000
vt 0.000000 0.364482
vt 0.000000 0.735507
vt 1.000000 0.361470
vt 1.000000 0.708720
vt 0.483233 0.363026
vt 0.489869 0.722385
vn -0.062500 0.114909 -0.991408
vn -0.043893 0.082721 -0.995606
vn -0.293248 0.580523 -0.759604
vn -0.693929 0.024998 -0.719609
vn -0.994033 -0.007831 -0.108801
vn -0.399351 0.909268 0.117259
vn -0.557796 0.025147 0.829597
vn 0.424873 0.078064 0.901881
vn 0.860255 0.094307 0.501067
vn 0.846241 0.147972 -0.511840
vn 0.850054 0.130108 -0.510373
vn 0.551152 0.713203 -0.433097
vn -0.004559 -0.003121 -0.999985
vn -0.004132 -0.011264 -0.999928
vn -0.866122 -0.022145 -0.499341
vn -0.867370 -0.026298 -0.496969
vn -0.861035 0.004196 0.508528
vn -0.882056 0.013913 0.470940
vn 0.002032 0.129330 0.991599
vn 0.001856 0.113287 0.993561
vn 0.853079 0.142152 0.502045
vn 0.851379 0.156624 0.500622
vn 0.860204 0.087619 -0.502366
vn 0.860425 0.085540 -0.502346
vn 0.000000 -0.065229 -0.997870
vn -0.000145 -0.065215 -0.997871
vn -0.912828 -0.058265 -0.404167
vn -0.910335 -0.057866 -0.409806
vn -0.962853 0.048217 0.265686
vn -0.960126 0.048232 0.275376
vn 0.000000 0.247188 0.968968
vn -0.000023 0.247190 0.968967
vn 0.840886 0.233494 0.488252
vn 0.840627 0.233459 0.488717
vn 0.862151 0.078088 -0.500598
vn 0.862089 0.078087 -0.500705
vn -0.444133 0.862298 0.243284
vn 0.075979 0.907791 0.412484
vn -0.127127 0.988802 0.078157
vn 0.858380 0.509013 0.063940
vn 0.905600 0.237639 -0.351307
vn 0.783475 0.551474 -0.286434
vn -0.230610 0.920579 -0.315204
vn 0.590977 0.497723 -0.634836
vn 0.215333 0.952228 -0.216549
vn -0.195502 0.936334 -0.291647
vn -0.089063 0.996026 0.000106
vn -0.762397 0.641964 0.081446
vn -0.669008 0.641762 0.374926
vn -0.790536 0.421931 0.443878
vn 0.221615 0.952612 0.208368
vn -0.385232 0.685344 0.617980
vn -0.396856 0.512761 -0.761302
vn -0.565757 0.611886 -0.552734
vn 0.377408 0.847863 -0.372413
vn 0.170460 0.983084 -0.066998
vn -0.696944 0.337020 -0.632998
vn 0.329964 0.941736 0.065250
vn -0.280015 0.921389 0.269507
vn -0.778932 0.513352 -0.360188
vn 0.215997 0.640035 0.737360
vn 0.574645 0.355053 0.737374
vn 0.481869 0.642353 0.595974
vn -0.194329 0.908349 0.370322
vn 0.120987 0.991978 0.036620
vn -0.136718 0.970099 -0.200540
vn 0.536835 0.841359 -0.062636
vn 0.723121 0.545204 0.424086
vn -0.256404 0.951643 -0.169214
vn 0.175975 0.922326 0.344016
vn 0.217620 0.975153 0.041447
vn -0.338023 0.703709 -0.624927
vn 0.220661 0.860829 -0.458565
vn 0.195458 0.543775 -0.816153
vn 0.572763 0.752303 -0.325550
vn 0.624492 0.779512 0.048693
vn 0.375986 0.811081 -0.448087
vn 0.248335 0.826229 -0.505644
vn 0.466896 0.880778 -0.078990
vn 0.140890 0.984497 -0.104481
vn 0.170055 0.985296 -0.016537
vn 0.310744 0.659626 -0.684348
vn -0.182457 0.964625 -0.190285
vn 0.126203 0.829722 -0.543722
g pCylinder11
usemtl pasted__spruce_woodSG
f 8/10/1 9/11/2 7/8/3
f 9/11/4 10/12/5 7/8/6
f 10/12/5 11/13/7 7/8/6
f 11/13/7 12/14/8 7/8/6
f 13/15/9 7/8/6 12/14/8
f 13/15/10 8/9/11 7/8/12
f 15/18/13 9/11/2 14/17/14
f 14/17/14 9/11/2 8/10/1
f 15/18/15 16/19/16 9/11/4
f 9/11/4 16/19/16 10/12/5
f 16/19/17 17/20/18 10/12/5
f 10/12/5 17/20/18 11/13/7
f 18/21/19 12/14/8 17/20/20
f 17/20/20 12/14/8 11/13/7
f 19/22/21 13/15/9 18/21/22
f 18/21/22 13/15/9 12/14/8
f 14/16/23 8/9/11 19/22/24
f 19/22/24 8/9/11 13/15/10
f 1/1/25 2/2/26 14/17/14
f 14/17/14 2/2/26 15/18/13
f 3/3/27 16/19/16 2/2/28
f 2/2/28 16/19/16 15/18/15
f 4/4/29 17/20/18 3/3/30
f 3/3/30 17/20/18 16/19/17
f 5/5/31 18/21/19 4/4/32
f 4/4/32 18/21/19 17/20/20
f 5/5/33 6/6/34 18/21/22
f 18/21/22 6/6/34 19/22/21
f 6/6/35 1/7/36 19/22/24
f 19/22/24 1/7/36 14/16/23
usemtl lilypad1SG
f 7/23/37 23/27/38 25/29/39
f 21/25/40 20/24/41 26/30/42
f 23/27/38 21/25/40 25/29/39
f 25/29/39 21/25/40 26/30/42
f 25/29/39 24/28/43 7/23/37
f 22/26/44 24/28/43 26/30/42
f 26/30/42 24/28/43 25/29/39
f 20/24/41 22/26/44 26/30/42
f 7/31/45 28/33/46 32/37/47
f 28/33/46 30/35/48 32/37/47
f 32/37/47 30/35/48 33/38/49
f 30/35/48 27/32/50 33/38/49
f 32/37/47 29/34/51 7/31/45
f 33/38/49 31/36/52 32/37/47
f 32/37/47 31/36/52 29/34/51
f 27/32/50 31/36/52 33/38/49
f 35/41/53 40/46/54 37/43/55
f 37/43/55 40/46/54 39/45/56
f 35/41/53 34/40/57 40/46/54
f 7/39/58 37/43/55 39/45/56
f 38/44/59 7/39/58 39/45/56
f 36/42/60 38/44/59 40/46/54
f 40/46/54 38/44/59 39/45/56
f 34/40/57 36/42/60 40/46/54
f 42/49/61 41/48/62 47/54/63
f 42/49/61 47/54/63 44/51/64
f 44/51/64 47/54/63 46/53/65
f 7/47/66 44/51/64 46/53/65
f 46/53/65 45/52/67 7/47/66
f 43/50/68 45/52/67 47/54/63
f 47/54/63 45/52/67 46/53/65
f 41/48/62 43/50/68 47/54/63
f 49/57/69 48/56/70 54/62/71
f 51/59/72 49/57/69 53/61/73
f 53/61/73 49/57/69 54/62/71
f 7/55/74 51/59/72 53/61/73
f 52/60/75 7/55/74 53/61/73
f 54/62/71 50/58/76 53/61/73
f 53/61/73 50/58/76 52/60/75
f 48/56/70 50/58/76 54/62/71
f 57/66/77 61/70/78 56/65/79
f 56/65/79 61/70/78 60/69/80
f 7/63/81 56/65/79 60/69/80
f 57/66/77 55/64/82 61/70/78
f 60/69/80 58/67/83 7/63/81
f 59/68/84 58/67/83 61/70/78
f 61/70/78 58/67/83 60/69/80
f 55/64/82 59/68/84 61/70/78
