# This file uses centimeters as units for non-parametric coordinates.

mtllib bush.mtl
v -0.016346 0.484975 -1.559635
v 1.182864 1.239891 -0.798973
v -0.354640 1.801281 -0.861692
v -1.412146 0.710892 -0.697490
v -0.528217 -0.251190 -0.533288
v 1.075588 -0.197455 -0.596008
v 1.412146 0.697084 0.697490
v 0.528216 1.932371 0.533288
v -1.075588 1.605433 0.596008
v -1.182864 0.168086 0.798972
v 0.354640 -0.228011 0.861692
v 0.016346 0.923001 1.559635
v -0.638152 1.530599 -0.328234
v -0.671002 1.620384 -0.176230
v -0.743671 1.675875 -0.330781
v -0.788582 1.530599 -0.426299
v -0.743671 1.385323 -0.330781
v -0.841735 1.385323 -0.180351
v -0.796824 1.530599 -0.084833
v -0.841735 1.675875 -0.180351
v -0.914403 1.620384 -0.334902
v -0.914403 1.440813 -0.334902
v -0.947254 1.530599 -0.182898
v 0.471550 1.679657 -0.150299
v 0.321996 1.750686 -0.219831
v 0.475275 1.844207 -0.222101
v 0.609814 1.729487 -0.253477
v 0.539685 1.565065 -0.270599
v 0.432242 1.565271 -0.414480
v 0.297703 1.679991 -0.383104
v 0.367832 1.844413 -0.365982
v 0.545713 1.831312 -0.386776
v 0.585521 1.658793 -0.416750
v 0.435968 1.729821 -0.486281
v -0.435369 1.535211 0.801704
v -0.353701 1.685068 0.745858
v -0.332264 1.628849 0.915049
v -0.323789 1.449486 0.913271
v -0.339989 1.394854 0.742981
v -0.199373 1.457966 0.650841
v -0.207847 1.637329 0.652619
v -0.191647 1.691961 0.822909
v -0.173161 1.546363 0.926376
v -0.177935 1.401747 0.820032
v -0.096267 1.551604 0.764186
vt 1.000000 0.500000
vt 0.838104 0.676208
vt 0.088104 0.823792
vt 0.176208 0.500000
vt 0.088104 0.176208
vt 0.838104 0.323792
vt 0.676208 0.500000
vt 0.588104 0.823792
vt 0.338104 0.676208
vt 0.338104 0.323792
vt 0.588104 0.176208
vt 0.500000 0.500000
vt 1.088104 0.823792
vt 1.176208 0.500000
vt 1.088104 0.176208
vt 1.000000 0.500000
vt 1.088104 0.823792
vt 0.838104 0.676208
vt 1.176208 0.500000
vt 1.088104 0.176208
vt 0.588104 0.176208
vt 0.588104 0.823792
vt 0.088104 0.823792
vt 0.176208 0.500000
vt 0.338104 0.676208
vt 0.088104 0.176208
vt 0.338104 0.323792
vt 0.676208 0.500000
vt 0.500000 0.500000
vt 1.000000 0.500000
vt 1.088104 0.823792
vt 0.838104 0.676208
vt 1.176208 0.500000
vt 1.088104 0.176208
vt 0.588104 0.176208
vt 0.588104 0.823792
vt 0.088104 0.823792
vt 0.176208 0.500000
vt 0.338104 0.676208
vt 0.088104 0.176208
vt 0.338104 0.323792
vt 0.676208 0.500000
vt 0.500000 0.500000
vt 1.000000 0.500000
vt 1.088104 0.823792
vt 0.838104 0.676208
vt 1.176208 0.500000
vt 1.088104 0.176208
vt 0.588104 0.176208
vt 0.588104 0.823792
vt 0.088104 0.823792
vt 0.176208 0.500000
vt 0.338104 0.676208
vt 0.088104 0.176208
vt 0.338104 0.323792
vt 0.676208 0.500000
vt 0.500000 0.500000
vn 0.216844 0.500223 -0.838305
vn 0.216844 0.500223 -0.838305
vn 0.216844 0.500223 -0.838305
vn -0.459551 0.320986 -0.828119
vn -0.459551 0.320986 -0.828119
vn -0.459551 0.320986 -0.828119
vn -0.496969 -0.568496 -0.655617
vn -0.496969 -0.568496 -0.655617
vn -0.496969 -0.568496 -0.655617
vn 0.004526 -0.813645 -0.581344
vn 0.004526 -0.813645 -0.581344
vn 0.004526 -0.813645 -0.581344
vn 0.597131 -0.155682 -0.786891
vn 0.597131 -0.155682 -0.786891
vn 0.597131 -0.155682 -0.786891
vn 0.338111 0.892721 -0.297876
vn 0.338111 0.892721 -0.297876
vn 0.338111 0.892721 -0.297876
vn -0.711863 0.650539 -0.264670
vn -0.711863 0.650539 -0.264670
vn -0.711863 0.650539 -0.264670
vn -0.717546 -0.682761 -0.137716
vn -0.717546 -0.682761 -0.137716
vn -0.717546 -0.682761 -0.137716
vn 0.033311 -0.999435 -0.004475
vn 0.033311 -0.999435 -0.004475
vn 0.033311 -0.999435 -0.004475
vn 0.977576 -0.099192 -0.185760
vn 0.977576 -0.099192 -0.185760
vn 0.977576 -0.099192 -0.185760
vn 0.804260 0.587445 0.089856
vn 0.804260 0.587445 0.089856
vn 0.804260 0.587445 0.089856
vn -0.198374 0.979554 0.033496
vn -0.198374 0.979554 0.033496
vn -0.198374 0.979554 0.033496
vn -0.977576 0.099192 0.185760
vn -0.977576 0.099192 0.185760
vn -0.977576 0.099192 0.185760
vn -0.252313 -0.951598 0.175496
vn -0.252313 -0.951598 0.175496
vn -0.252313 -0.951598 0.175496
vn 0.652992 -0.691706 0.308456
vn 0.652992 -0.691706 0.308456
vn 0.652992 -0.691706 0.308456
vn 0.518302 0.466183 0.716964
vn 0.518302 0.466183 0.716964
vn 0.518302 0.466183 0.716964
vn -0.124447 0.737761 0.663492
vn -0.124447 0.737761 0.663492
vn -0.124447 0.737761 0.663492
vn -0.597131 0.155682 0.786891
vn -0.597131 0.155682 0.786891
vn -0.597131 0.155682 0.786891
vn -0.174441 -0.547528 0.818403
vn -0.174441 -0.547528 0.818403
vn -0.174441 -0.547528 0.818403
vn 0.445898 -0.364626 0.817449
vn 0.445898 -0.364626 0.817449
vn 0.445898 -0.364626 0.817449
vn 0.798950 0.577350 -0.168364
vn 0.798950 0.577350 -0.168364
vn 0.798950 0.577350 -0.168364
vn 0.510156 0.356822 -0.782572
vn 0.510156 0.356822 -0.782572
vn 0.510156 0.356822 -0.782572
vn 0.510155 -0.356822 -0.782573
vn 0.510155 -0.356822 -0.782573
vn 0.510155 -0.356822 -0.782573
vn 0.712605 -0.525731 0.464543
vn 0.712605 -0.525731 0.464543
vn 0.712605 -0.525731 0.464543
vn 0.712605 -0.525731 0.464544
vn 0.712605 -0.525731 0.464544
vn 0.712605 -0.525731 0.464544
vn 0.298917 0.934172 0.194862
vn 0.298917 0.934172 0.194862
vn 0.298917 0.934172 0.194862
vn -0.168364 0.577350 -0.798950
vn -0.168364 0.577350 -0.798950
vn -0.168364 0.577350 -0.798950
vn -0.168363 -0.577351 -0.798949
vn -0.168363 -0.577351 -0.798949
vn -0.168363 -0.577351 -0.798949
vn 0.712605 -0.525732 0.464542
vn 0.712605 -0.525732 0.464542
vn 0.712605 -0.525732 0.464542
vn 0.168364 0.577350 0.798950
vn 0.168364 0.577350 0.798950
vn 0.168364 0.577350 0.798950
vn -0.298916 0.934172 -0.194862
vn -0.298916 0.934172 -0.194862
vn -0.298916 0.934172 -0.194862
vn -0.587712 0.000000 -0.809071
vn -0.587712 0.000000 -0.809071
vn -0.587712 0.000000 -0.809071
vn -0.298915 -0.934173 -0.194862
vn -0.298915 -0.934173 -0.194862
vn -0.298915 -0.934173 -0.194862
vn -0.510155 0.356822 0.782573
vn -0.510155 0.356822 0.782573
vn -0.510155 0.356822 0.782573
vn -0.798949 0.577350 0.168364
vn -0.798949 0.577351 0.168364
vn -0.798949 0.577350 0.168364
vn -0.977435 0.000000 -0.211238
vn -0.977435 0.000000 -0.211238
vn -0.977435 0.000000 -0.211238
vn -0.798949 -0.577351 0.168364
vn -0.798949 -0.577351 0.168364
vn -0.798949 -0.577351 0.168364
vn -0.510155 -0.356822 0.782573
vn -0.510155 -0.356822 0.782573
vn -0.510155 -0.356822 0.782573
vn -0.227083 0.393802 0.890704
vn -0.227083 0.393802 0.890704
vn -0.227083 0.393802 0.890704
vn 0.479845 0.341736 0.808063
vn 0.479845 0.341736 0.808063
vn 0.479845 0.341736 0.808063
vn 0.638045 -0.343882 0.688944
vn 0.638045 -0.343882 0.688944
vn 0.638045 -0.343882 0.688944
vn -0.538432 -0.741134 0.401013
vn -0.538432 -0.741134 0.401013
vn -0.538432 -0.741134 0.401013
vn -0.538433 -0.741133 0.401013
vn -0.538433 -0.741133 0.401013
vn -0.538433 -0.741133 0.401013
vn -0.481831 0.798469 0.360951
vn -0.481831 0.798469 0.360951
vn -0.481831 0.798469 0.360951
vn 0.662003 0.714224 0.227236
vn 0.662003 0.714224 0.227236
vn 0.662003 0.714224 0.227236
vn 0.917978 -0.395129 0.034497
vn 0.917978 -0.395129 0.034497
vn 0.917978 -0.395129 0.034497
vn -0.538433 -0.741133 0.401014
vn -0.538433 -0.741133 0.401014
vn -0.538433 -0.741133 0.401014
vn -0.917978 0.395129 -0.034498
vn -0.917978 0.395129 -0.034498
vn -0.917978 0.395129 -0.034498
vn 0.067655 0.996500 -0.049093
vn 0.067655 0.996500 -0.049093
vn 0.067655 0.996500 -0.049093
vn 0.932785 0.258816 -0.250854
vn 0.932784 0.258816 -0.250854
vn 0.932784 0.258816 -0.250854
vn 0.481831 -0.798469 -0.360952
vn 0.481831 -0.798469 -0.360952
vn 0.481831 -0.798469 -0.360952
vn -0.638046 0.343881 -0.688944
vn -0.638046 0.343881 -0.688944
vn -0.638046 0.343881 -0.688944
vn -0.028891 0.715550 -0.697964
vn -0.028891 0.715549 -0.697964
vn -0.028891 0.715550 -0.697964
vn 0.505789 0.259636 -0.822658
vn 0.505789 0.259636 -0.822658
vn 0.505789 0.259636 -0.822658
vn 0.227083 -0.393802 -0.890703
vn 0.227083 -0.393803 -0.890703
vn 0.227083 -0.393803 -0.890704
vn -0.479844 -0.341736 -0.808063
vn -0.479845 -0.341736 -0.808063
vn -0.479845 -0.341736 -0.808063
vn -0.795500 0.537667 0.279453
vn -0.795500 0.537667 0.279453
vn -0.795500 0.537667 0.279453
vn -0.722032 -0.040961 0.690646
vn -0.722032 -0.040961 0.690646
vn -0.722032 -0.040961 0.690646
vn -0.741007 -0.615690 0.268019
vn -0.741007 -0.615690 0.268019
vn -0.741007 -0.615690 0.268019
vn -0.542547 -0.017308 -0.839847
vn -0.542547 -0.017308 -0.839847
vn -0.542547 -0.017308 -0.839847
vn -0.542546 -0.017308 -0.839848
vn -0.542546 -0.017308 -0.839848
vn -0.542546 -0.017308 -0.839848
vn -0.196880 0.922671 0.331536
vn -0.196880 0.922671 0.331536
vn -0.196880 0.922671 0.331536
vn -0.078004 -0.013567 0.996861
vn -0.078004 -0.013567 0.996861
vn -0.078004 -0.013567 0.996861
vn -0.108707 -0.943500 0.313035
vn -0.108707 -0.943500 0.313035
vn -0.108707 -0.943500 0.313035
vn -0.542546 -0.017309 -0.839848
vn -0.542546 -0.017309 -0.839848
vn -0.542546 -0.017309 -0.839848
vn 0.108708 0.943500 -0.313035
vn 0.108708 0.943500 -0.313035
vn 0.108708 0.943500 -0.313035
vn 0.246557 0.581990 0.774918
vn 0.246557 0.581990 0.774918
vn 0.246557 0.581990 0.774918
vn 0.301050 -0.571367 0.763485
vn 0.301050 -0.571367 0.763485
vn 0.301050 -0.571367 0.763485
vn 0.196880 -0.922672 -0.331534
vn 0.196880 -0.922672 -0.331534
vn 0.196880 -0.922672 -0.331534
vn 0.741007 0.615690 -0.268020
vn 0.741007 0.615690 -0.268020
vn 0.741007 0.615690 -0.268020
vn 0.826202 0.392265 0.404374
vn 0.826202 0.392265 0.404374
vn 0.826202 0.392265 0.404374
vn 0.859882 -0.320549 0.397306
vn 0.859882 -0.320549 0.397306
vn 0.859882 -0.320549 0.397306
vn 0.795500 -0.537667 -0.279453
vn 0.795500 -0.537667 -0.279453
vn 0.795500 -0.537667 -0.279453
vn 0.722032 0.040961 -0.690647
vn 0.722032 0.040961 -0.690647
vn 0.722032 0.040961 -0.690647
usemtl phong20SG
f 1/1/1 3/13/2 2/2/3
f 1/1/4 4/14/5 3/13/6
f 1/1/7 5/15/8 4/14/9
f 1/1/10 6/6/11 5/15/12
f 1/1/13 2/2/14 6/6/15
f 2/2/16 3/13/17 8/8/18
f 3/3/19 4/4/20 9/9/21
f 4/4/22 5/5/23 10/10/24
f 5/15/25 6/6/26 11/11/27
f 6/6/28 2/2/29 7/7/30
f 2/2/31 8/8/32 7/7/33
f 3/3/34 9/9/35 8/8/36
f 4/4/37 10/10/38 9/9/39
f 5/5/40 11/11/41 10/10/42
f 6/6/43 7/7/44 11/11/45
f 7/7/46 8/8/47 12/12/48
f 8/8/49 9/9/50 12/12/51
f 9/9/52 10/10/53 12/12/54
f 10/10/55 11/11/56 12/12/57
f 11/11/58 7/7/59 12/12/60
usemtl pasted__phong3SG
f 13/16/61 15/17/62 14/18/63
f 13/16/64 16/19/65 15/17/66
f 13/16/67 17/20/68 16/19/69
f 13/16/70 18/21/71 17/20/72
f 13/16/73 14/18/74 18/21/75
f 14/18/76 15/17/77 20/22/78
f 15/23/79 16/24/80 21/25/81
f 16/24/82 17/26/83 22/27/84
f 18/21/85 14/18/86 19/28/87
f 14/18/88 20/22/89 19/28/90
f 15/23/91 21/25/92 20/22/93
f 16/24/94 22/27/95 21/25/96
f 17/26/97 18/21/98 22/27/99
f 19/28/100 20/22/101 23/29/102
f 20/22/103 21/25/104 23/29/105
f 21/25/106 22/27/107 23/29/108
f 22/27/109 18/21/110 23/29/111
f 18/21/112 19/28/113 23/29/114
f 24/30/115 26/31/116 25/32/117
f 24/30/118 27/33/119 26/31/120
f 24/30/121 28/34/122 27/33/123
f 24/30/124 29/35/125 28/34/126
f 24/30/127 25/32/128 29/35/129
f 25/32/130 26/31/131 31/36/132
f 26/37/133 27/38/134 32/39/135
f 27/38/136 28/40/137 33/41/138
f 29/35/139 25/32/140 30/42/141
f 25/32/142 31/36/143 30/42/144
f 26/37/145 32/39/146 31/36/147
f 27/38/148 33/41/149 32/39/150
f 28/40/151 29/35/152 33/41/153
f 30/42/154 31/36/155 34/43/156
f 31/36/157 32/39/158 34/43/159
f 32/39/160 33/41/161 34/43/162
f 33/41/163 29/35/164 34/43/165
f 29/35/166 30/42/167 34/43/168
f 35/44/169 37/45/170 36/46/171
f 35/44/172 38/47/173 37/45/174
f 35/44/175 39/48/176 38/47/177
f 35/44/178 40/49/179 39/48/180
f 35/44/181 36/46/182 40/49/183
f 36/46/184 37/45/185 42/50/186
f 37/51/187 38/52/188 43/53/189
f 38/52/190 39/54/191 44/55/192
f 40/49/193 36/46/194 41/56/195
f 36/46/196 42/50/197 41/56/198
f 37/51/199 43/53/200 42/50/201
f 38/52/202 44/55/203 43/53/204
f 39/54/205 40/49/206 44/55/207
f 41/56/208 42/50/209 45/57/210
f 42/50/211 43/53/212 45/57/213
f 43/53/214 44/55/215 45/57/216
f 44/55/217 40/49/218 45/57/219
f 40/49/220 41/56/221 45/57/222
