# This file uses centimeters as units for non-parametric coordinates.

mtllib diamond.mtl
g default
v 0.214732 -0.990671 -0.371926
v -0.214732 -0.990671 -0.371926
v -0.429464 -0.990671 -0.000000
v -0.214732 -0.990671 0.371926
v 0.214732 -0.990671 0.371926
v 0.429464 -0.990671 0.000000
v -0.030315 2.219324 -0.273084
v -0.251656 2.219324 -0.273084
v -0.362326 2.219324 -0.081399
v -0.251656 2.219324 0.110288
v -0.030316 2.219324 0.110288
v 0.080355 2.219324 -0.081399
v 0.034740 1.973894 -0.390305
v -0.234932 1.973894 -0.425809
v -0.450724 1.973894 -0.260225
v -0.486225 1.973894 0.009447
v -0.320644 1.973894 0.225238
v -0.050972 1.973894 0.260741
v 0.164819 1.973894 0.095159
v 0.200322 1.973894 -0.174513
v 0.901447 4.701511 -1.891473
v -0.683573 4.063074 -2.100154
v -1.951892 4.701511 -1.126930
v -2.160560 4.063074 0.458084
v -1.187349 4.701511 1.726410
v 0.397668 4.063074 1.935078
v 1.665991 4.701511 0.961860
v 1.874671 4.063074 -0.623154
v 0.714493 6.885937 -1.567666
v -0.586796 6.362122 -1.738986
v -1.628085 6.885937 -0.939975
v -1.799405 6.362122 0.361311
v -1.000394 6.885937 1.402603
v 0.300892 6.362122 1.573910
v 1.342184 6.885937 0.774905
v 1.513504 6.362122 -0.526377
v 0.459778 7.920851 -1.126498
v -0.457434 8.421938 -1.256206
v -1.200039 7.920851 -0.681745
v -1.316625 8.421938 0.231948
v -0.755292 7.920851 0.978072
v 0.171532 8.421938 1.091130
v 0.909334 7.947500 0.525000
v 1.030718 8.421938 -0.397018
v -0.142951 9.696481 -0.082535
v 0.953503 8.118255 -0.375692
v 0.420479 7.708772 -1.058427
v 0.150525 8.118255 1.015109
v 0.840058 7.730546 0.486009
v -1.240280 8.118255 0.212129
v -0.715102 7.708772 0.908465
v -0.437297 8.118255 -1.178668
v -1.130762 7.708772 -0.642773
v -0.536726 6.182254 -1.552120
v -1.460547 6.605354 -0.843249
v 1.174646 6.605354 0.678179
v 1.326638 6.182254 -0.476311
v -0.903668 6.605354 1.235064
v 0.250823 6.182254 1.387057
v -1.612539 6.182254 0.311241
v 0.617767 6.605354 -1.400128
v 1.403009 3.838094 -0.496771
v 0.657297 4.293061 -1.468605
v 0.271288 3.838094 1.463427
v 1.243123 4.293061 0.717716
v -1.688910 3.838094 0.331704
v -0.943199 4.293061 1.303542
v -0.557189 3.838094 -1.628491
v -1.529024 4.293061 -0.882780
vt 0.482971 0.806762
vt 0.397169 0.232573
vt 0.405713 0.671757
vt 0.512522 0.806421
vt 0.287100 0.806462
vt 0.444679 0.233002
vt 0.535703 0.671161
vt 0.404706 0.806915
vt 0.858705 0.036145
vt 0.395363 0.291063
vt 0.393557 0.349554
vt 0.497204 0.349712
vt 0.469074 0.291176
vt 0.502211 0.291475
vt 0.475364 0.291785
vt 0.404259 0.291924
vt 0.406065 0.350764
vt 0.506049 0.350568
vt 0.316651 0.806121
vt 0.354942 0.232656
vt 0.394915 0.805968
vt 0.476048 0.806092
vt 0.358678 0.233017
vt 0.440944 0.232640
vt 0.460623 0.232818
vt 0.862165 0.036479
vt 0.846226 0.219592
vt 0.895800 0.036390
vt 0.827999 0.219552
vt 0.863561 0.219546
vt 0.826800 0.036402
vt 0.827107 0.219466
vt 0.825070 0.036235
vt 0.894070 0.036222
vt 0.862669 0.219460
vt 0.323574 0.806791
vt 0.307894 0.671607
vt 0.292215 0.536424
vt 0.392902 0.535263
vt 0.393229 0.442408
vt 0.297316 0.443515
vt 0.282443 0.535479
vt 0.288008 0.442614
vt 0.502305 0.442575
vt 0.507407 0.535438
vt 0.558884 0.535902
vt 0.551342 0.443017
vt 0.511613 0.443475
vt 0.517178 0.536383
vt 0.406720 0.536599
vt 0.406393 0.443681
vt 0.399811 1.011769
vt 0.338998 0.232840
vt 0.402452 0.233084
vt 0.543799 0.350132
vt 0.844442 0.219420
vt 0.302418 0.350605
vt 0.330548 0.291811
vt 0.297410 0.291512
vt 0.255822 0.350185
vt 0.293573 0.349750
vt 0.324258 0.291203
vt 0.248280 0.443072
vt 0.240738 0.535960
vt 0.491727 0.670765
vt 0.500075 0.671572
vt 0.299547 0.670800
vt 0.263919 0.671211
vt 0.393908 0.670615
vn 0.503098 0.167586 0.847825
vn 0.480949 0.166596 0.860775
vn -0.520990 0.098384 0.847874
vn -0.475823 0.102456 0.873553
vn -0.999369 0.033092 0.012903
vn -0.999397 0.032056 -0.013320
vn -0.511234 0.032056 -0.858844
vn -0.488510 0.033092 -0.871931
vn 0.985787 0.167586 0.011784
vn 0.985928 0.166596 -0.013873
vn 0.480949 0.166596 0.860775
vn 0.503098 0.167586 0.847825
vn -0.475823 0.102456 0.873553
vn -0.520990 0.098384 0.847874
vn -0.999397 0.032056 -0.013320
vn -0.999369 0.033092 0.012903
vn -0.488510 0.033092 -0.871931
vn -0.511234 0.032056 -0.858844
vn 0.473786 0.098383 -0.875127
vn 0.518608 0.102456 -0.848851
vn 0.518608 0.102456 -0.848851
vn 0.473786 0.098383 -0.875127
vn 0.985928 0.166596 -0.013873
vn 0.985787 0.167586 0.011784
vn 0.360531 -0.692871 -0.624457
vn 0.493938 -0.155243 -0.855526
vn 0.864814 -0.445421 -0.231726
vn 0.641880 -0.747268 -0.171991
vn 0.624458 -0.692871 0.360531
vn 0.855526 -0.155243 0.493938
vn 0.231726 -0.445420 0.864814
vn 0.171991 -0.747268 0.641880
vn -0.360531 -0.692871 0.624458
vn -0.493938 -0.155242 0.855526
vn -0.864814 -0.445420 0.231726
vn -0.641880 -0.747268 0.171991
vn -0.624458 -0.692871 -0.360531
vn -0.855526 -0.155243 -0.493938
vn -0.231726 -0.445421 -0.864814
vn -0.171991 -0.747268 -0.641880
vn 0.641880 -0.747268 -0.171991
vn 0.864814 -0.445421 -0.231726
vn 0.855526 -0.155243 0.493938
vn 0.624458 -0.692871 0.360531
vn 0.171991 -0.747268 0.641880
vn 0.231726 -0.445420 0.864814
vn -0.493938 -0.155242 0.855526
vn -0.360531 -0.692871 0.624458
vn -0.641880 -0.747268 0.171991
vn -0.864814 -0.445420 0.231726
vn -0.855526 -0.155243 -0.493938
vn -0.624458 -0.692871 -0.360531
vn -0.171991 -0.747268 -0.641880
vn -0.231726 -0.445421 -0.864814
vn 0.493938 -0.155243 -0.855526
vn 0.360531 -0.692871 -0.624457
vn -0.826180 -0.299836 -0.476995
vn -0.865878 0.004871 -0.500232
vn -0.250243 -0.249416 -0.935505
vn -0.255585 -0.157578 -0.953858
vn 0.953858 -0.157577 -0.255585
vn 0.934818 -0.250162 -0.252061
vn 0.866073 0.003897 0.499902
vn 0.826180 -0.299836 0.476996
vn 0.255585 -0.157577 0.953858
vn 0.250392 -0.251322 0.934955
vn -0.499997 0.003504 0.866020
vn -0.476996 -0.299836 0.826180
vn -0.953858 -0.157577 0.255585
vn -0.935118 -0.250965 0.250141
vn -0.865878 0.004871 -0.500232
vn -0.826180 -0.299836 -0.476995
vn -0.255585 -0.157578 -0.953858
vn -0.250243 -0.249416 -0.935505
vn 0.499991 0.006233 -0.866008
vn 0.476996 -0.299836 -0.826180
vn 0.476996 -0.299836 -0.826180
vn 0.499991 0.006233 -0.866008
vn 0.934818 -0.250162 -0.252061
vn 0.953858 -0.157577 -0.255585
vn 0.826180 -0.299836 0.476996
vn 0.866073 0.003897 0.499902
vn 0.250392 -0.251322 0.934955
vn 0.255585 -0.157577 0.953858
vn -0.476996 -0.299836 0.826180
vn -0.499997 0.003504 0.866020
vn -0.935118 -0.250965 0.250141
vn -0.953858 -0.157577 0.255585
vn 0.493585 0.159672 -0.854914
vn 0.499970 0.010902 -0.865974
vn 0.913185 0.319617 -0.252860
vn 0.965464 -0.021267 -0.259667
vn 0.855579 0.153010 0.494542
vn 0.866342 0.021826 0.498974
vn 0.245389 0.320840 0.914793
vn 0.264428 -0.021088 0.964175
vn -0.493899 0.155742 0.855458
vn -0.499956 0.013298 0.865948
vn -0.914837 0.323444 0.241778
vn -0.965947 -0.024218 0.257605
vn -0.856992 0.157713 -0.490603
vn -0.868234 0.012092 -0.496008
vn -0.241929 0.321426 -0.915508
vn -0.257560 -0.022443 -0.966002
vn 0.965464 -0.021267 -0.259667
vn 0.913185 0.319617 -0.252860
vn 0.866342 0.021826 0.498974
vn 0.855579 0.153010 0.494542
vn 0.264428 -0.021088 0.964175
vn 0.245389 0.320840 0.914793
vn -0.499956 0.013298 0.865948
vn -0.493899 0.155742 0.855458
vn -0.965947 -0.024218 0.257605
vn -0.914837 0.323444 0.241778
vn -0.868234 0.012092 -0.496008
vn -0.856992 0.157713 -0.490603
vn -0.257560 -0.022443 -0.966002
vn -0.241929 0.321426 -0.915508
vn 0.499970 0.010902 -0.865974
vn 0.493585 0.159672 -0.854914
vn -0.914837 0.323444 0.241778
vn -0.000645 0.999996 -0.002620
vn -0.868234 0.012092 -0.496008
vn -0.241929 0.321426 -0.915508
vn -0.000645 0.999996 -0.002620
vn 0.499970 0.010902 -0.865974
vn 0.499970 0.010902 -0.865974
vn -0.000645 0.999996 -0.002620
vn 0.913185 0.319617 -0.252860
vn 0.866342 0.021826 0.498974
vn -0.000645 0.999996 -0.002620
vn 0.245389 0.320840 0.914793
vn -0.499956 0.013298 0.865948
vn -0.000645 0.999996 -0.002620
vn -0.914837 0.323444 0.241778
vn -0.868234 0.012092 -0.496008
vn -0.000645 0.999996 -0.002620
vn -0.241929 0.321426 -0.915508
vn 0.913185 0.319617 -0.252860
vn -0.000645 0.999996 -0.002620
vn 0.866342 0.021826 0.498974
vn 0.245389 0.320840 0.914793
vn -0.000645 0.999996 -0.002620
vn -0.499956 0.013298 0.865948
vn -0.250243 -0.249416 -0.935505
vn -0.257560 -0.022443 -0.966002
vn 0.493585 0.159672 -0.854914
vn 0.499991 0.006233 -0.866008
vn -0.935118 -0.250965 0.250141
vn -0.965947 -0.024218 0.257605
vn -0.856992 0.157713 -0.490603
vn -0.865878 0.004871 -0.500232
vn 0.250392 -0.251322 0.934955
vn 0.264428 -0.021088 0.964175
vn -0.493899 0.155742 0.855458
vn -0.499997 0.003504 0.866020
vn 0.934818 -0.250162 -0.252061
vn 0.965464 -0.021267 -0.259667
vn 0.855579 0.153010 0.494542
vn 0.866073 0.003897 0.499902
vn -0.865878 0.004871 -0.500232
vn -0.856992 0.157713 -0.490603
vn -0.257560 -0.022443 -0.966002
vn -0.250243 -0.249416 -0.935505
vn -0.499997 0.003504 0.866020
vn -0.493899 0.155742 0.855458
vn -0.965947 -0.024218 0.257605
vn -0.935118 -0.250965 0.250141
vn 0.866073 0.003897 0.499902
vn 0.855579 0.153010 0.494542
vn 0.264428 -0.021088 0.964175
vn 0.250392 -0.251322 0.934955
vn 0.499991 0.006233 -0.866008
vn 0.493585 0.159672 -0.854914
vn 0.965464 -0.021267 -0.259667
vn 0.934818 -0.250162 -0.252061
vn -0.493938 -0.155242 0.855526
vn -0.476996 -0.299836 0.826180
vn -0.953858 -0.157577 0.255585
vn -0.864814 -0.445420 0.231726
vn 0.855526 -0.155243 0.493938
vn 0.826180 -0.299836 0.476996
vn 0.255585 -0.157577 0.953858
vn 0.231726 -0.445420 0.864814
vn 0.493938 -0.155243 -0.855526
vn 0.476996 -0.299836 -0.826180
vn 0.953858 -0.157577 -0.255585
vn 0.864814 -0.445421 -0.231726
vn -0.231726 -0.445421 -0.864814
vn -0.255585 -0.157578 -0.953858
vn 0.476996 -0.299836 -0.826180
vn 0.493938 -0.155243 -0.855526
vn -0.864814 -0.445420 0.231726
vn -0.953858 -0.157577 0.255585
vn -0.826180 -0.299836 -0.476995
vn -0.855526 -0.155243 -0.493938
vn 0.231726 -0.445420 0.864814
vn 0.255585 -0.157577 0.953858
vn -0.476996 -0.299836 0.826180
vn -0.493938 -0.155242 0.855526
vn 0.864814 -0.445421 -0.231726
vn 0.953858 -0.157577 -0.255585
vn 0.826180 -0.299836 0.476996
vn 0.855526 -0.155243 0.493938
vn -0.855526 -0.155243 -0.493938
vn -0.826180 -0.299836 -0.476995
vn -0.255585 -0.157578 -0.953858
vn -0.231726 -0.445421 -0.864814
vn -0.218041 -0.538781 -0.813740
vn -0.171991 -0.747268 -0.641880
vn 0.360531 -0.692871 -0.624457
vn 0.436862 -0.486423 -0.756666
vn -0.813740 -0.538781 0.218041
vn -0.641880 -0.747268 0.171991
vn -0.624458 -0.692871 -0.360531
vn -0.756667 -0.486423 -0.436862
vn 0.218041 -0.538781 0.813740
vn 0.171991 -0.747268 0.641880
vn -0.360531 -0.692871 0.624458
vn -0.436862 -0.486423 0.756667
vn 0.813740 -0.538782 -0.218041
vn 0.641880 -0.747268 -0.171991
vn 0.624458 -0.692871 0.360531
vn 0.756666 -0.486423 0.436862
vn -0.756667 -0.486423 -0.436862
vn -0.624458 -0.692871 -0.360531
vn -0.171991 -0.747268 -0.641880
vn -0.218041 -0.538781 -0.813740
vn -0.436862 -0.486423 0.756667
vn -0.360531 -0.692871 0.624458
vn -0.641880 -0.747268 0.171991
vn -0.813740 -0.538781 0.218041
vn 0.756666 -0.486423 0.436862
vn 0.624458 -0.692871 0.360531
vn 0.171991 -0.747268 0.641880
vn 0.218041 -0.538781 0.813740
vn 0.436862 -0.486423 -0.756666
vn 0.360531 -0.692871 -0.624457
vn 0.641880 -0.747268 -0.171991
vn 0.813740 -0.538782 -0.218041
g TreeDiamondA
usemtl pasted__phong3SG1
f 5/28/1 11/30/2 10/27/3 4/26/4
f 3/31/5 9/29/6 8/32/7 2/33/8
f 6/34/9 12/35/10 11/30/11 5/28/12
f 4/26/13 10/27/14 9/29/15 3/31/16
f 2/33/17 8/32/18 7/56/19 1/9/20
f 1/9/21 7/56/22 12/35/23 6/34/24
usemtl pasted__pasted__lilypad1SG
f 63/10/25 21/11/26 28/12/27 62/13/28
f 65/14/29 27/55/30 26/18/31 64/15/32
f 67/16/33 25/17/34 24/57/35 66/58/36
f 69/59/37 23/60/38 22/61/39 68/62/40
f 62/13/41 28/12/42 27/55/43 65/14/44
f 64/15/45 26/18/46 25/17/47 67/16/48
f 66/58/49 24/57/50 23/60/51 69/59/52
f 68/62/53 22/61/54 21/11/55 63/10/56
f 55/63/57 31/64/58 30/42/59 54/43/60
f 57/44/61 36/45/62 35/46/63 56/47/64
f 59/48/65 34/49/66 33/50/67 58/51/68
f 60/41/69 32/38/70 31/64/71 55/63/72
f 54/43/73 30/42/74 29/39/75 61/40/76
f 61/40/77 29/39/78 36/45/79 57/44/80
f 56/47/81 35/46/82 34/49/83 59/48/84
f 58/51/85 33/50/86 32/38/87 60/41/88
f 47/69/89 37/21/90 44/22/91 46/65/92
f 49/7/93 43/4/94 42/1/95 48/66/96
f 51/3/97 41/8/98 40/36/99 50/37/100
f 53/68/101 39/5/102 38/19/103 52/67/104
f 46/65/105 44/22/106 43/4/107 49/7/108
f 48/66/109 42/1/110 41/8/111 51/3/112
f 50/37/113 40/36/114 39/5/115 53/68/116
f 52/67/117 38/19/118 37/21/119 47/69/120
f 40/36/121 45/52/122 39/5/123
f 38/19/124 45/52/125 37/21/126
f 37/21/127 45/52/128 44/22/129
f 43/4/130 45/52/131 42/1/132
f 41/8/133 45/52/134 40/36/135
f 39/5/136 45/52/137 38/19/138
f 44/22/139 45/52/140 43/4/141
f 42/1/142 45/52/143 41/8/144
f 30/42/145 52/67/146 47/69/147 29/39/148
f 32/38/149 50/37/150 53/68/151 31/64/152
f 34/49/153 48/66/154 51/3/155 33/50/156
f 36/45/157 46/65/158 49/7/159 35/46/160
f 31/64/161 53/68/162 52/67/163 30/42/164
f 33/50/165 51/3/166 50/37/167 32/38/168
f 35/46/169 49/7/170 48/66/171 34/49/172
f 29/39/173 47/69/174 46/65/175 36/45/176
f 25/17/177 58/51/178 60/41/179 24/57/180
f 27/55/181 56/47/182 59/48/183 26/18/184
f 21/11/185 61/40/186 57/44/187 28/12/188
f 22/61/189 54/43/190 61/40/191 21/11/192
f 24/57/193 60/41/194 55/63/195 23/60/196
f 26/18/197 59/48/198 58/51/199 25/17/200
f 28/12/201 57/44/202 56/47/203 27/55/204
f 23/60/205 55/63/206 54/43/207 22/61/208
f 14/20/209 68/62/210 63/10/211 13/2/212
f 16/23/213 66/58/214 69/59/215 15/53/216
f 18/6/217 64/15/218 67/16/219 17/54/220
f 20/24/221 62/13/222 65/14/223 19/25/224
f 15/53/225 69/59/226 68/62/227 14/20/228
f 17/54/229 67/16/230 66/58/231 16/23/232
f 19/25/233 65/14/234 64/15/235 18/6/236
f 13/2/237 63/10/238 62/13/239 20/24/240
