# This file uses centimeters as units for non-parametric coordinates.

mtllib diamond.mtl
g default
v 0.125999 -0.000000 -0.218236
v -0.125999 -0.000000 -0.218236
v -0.251997 0.000000 -0.000000
v -0.125999 0.000000 0.218236
v 0.125999 0.000000 0.218236
v 0.251997 -0.000000 0.000000
v -0.017788 1.157721 -0.160238
v -0.147665 1.157721 -0.160238
v -0.212602 1.157721 -0.047763
v -0.147665 1.157721 0.064714
v -0.017788 1.157721 0.064714
v 0.047150 1.157721 -0.047763
v 0.020384 1.019740 -0.229020
v -0.137851 1.019740 -0.249853
v -0.264472 1.019740 -0.152693
v -0.285303 1.019740 0.005543
v -0.188145 1.019740 0.132163
v -0.029909 1.019740 0.152995
v 0.096711 1.019740 0.055836
v 0.117543 1.019740 -0.102399
v 0.528944 2.553203 -1.109863
v -0.401101 2.194274 -1.232311
v -1.145315 2.553203 -0.661250
v -1.267755 2.194274 0.268791
v -0.696702 2.553203 1.013008
v 0.233341 2.194274 1.135448
v 0.977556 2.553203 0.564392
v 1.100004 2.194274 -0.365649
v 0.419244 3.781284 -0.919862
v -0.344315 3.486796 -1.020388
v -0.955314 3.781284 -0.551551
v -1.055840 3.486796 0.212007
v -0.587003 3.781284 0.823007
v 0.176555 3.486796 0.923526
v 0.787555 3.781284 0.454692
v 0.888081 3.486796 -0.308863
v 0.269785 4.363111 -0.660997
v -0.268409 4.644822 -0.737106
v -0.704149 4.363111 -0.400029
v -0.772558 4.644822 0.136101
v -0.443184 4.363111 0.573905
v 0.100650 4.644822 0.640244
v 0.533572 4.378094 0.308055
v 0.604796 4.644822 -0.232959
v -0.083879 5.361368 -0.048429
v 0.559489 4.474092 -0.220445
v 0.246725 4.243881 -0.621055
v 0.088324 4.474092 0.595637
v 0.492922 4.256122 0.285176
v -0.727761 4.474092 0.124471
v -0.419602 4.243881 0.533062
v -0.256594 4.474092 -0.691609
v -0.663499 4.243881 -0.377161
v -0.314936 3.385674 -0.910740
v -0.857007 3.623540 -0.494795
v 0.689249 3.623540 0.397936
v 0.778433 3.385674 -0.279486
v -0.530247 3.623540 0.724701
v 0.147176 3.385674 0.813886
v -0.946192 3.385674 0.182627
v 0.362488 3.623540 -0.821555
v 0.823246 2.067790 -0.291491
v 0.385683 2.323572 -0.861736
v 0.159184 2.067790 0.858698
v 0.729429 2.323572 0.421135
v -0.991004 2.067790 0.194634
v -0.553442 2.323572 0.764881
v -0.326943 2.067790 -0.955552
v -0.897188 2.323572 -0.517990
vt 0.482971 0.806762
vt 0.397169 0.232573
vt 0.405713 0.671757
vt 0.512522 0.806421
vt 0.287100 0.806462
vt 0.444679 0.233002
vt 0.535703 0.671161
vt 0.404706 0.806915
vt 0.858705 0.036145
vt 0.395363 0.291063
vt 0.393557 0.349554
vt 0.497204 0.349712
vt 0.469074 0.291176
vt 0.502211 0.291475
vt 0.475364 0.291785
vt 0.404259 0.291924
vt 0.406065 0.350764
vt 0.506049 0.350568
vt 0.316651 0.806121
vt 0.354942 0.232656
vt 0.394915 0.805968
vt 0.476048 0.806092
vt 0.358678 0.233017
vt 0.440944 0.232640
vt 0.460623 0.232818
vt 0.862165 0.036479
vt 0.846226 0.219592
vt 0.895800 0.036390
vt 0.827999 0.219552
vt 0.863561 0.219546
vt 0.826800 0.036402
vt 0.827107 0.219466
vt 0.825070 0.036235
vt 0.894070 0.036222
vt 0.862669 0.219460
vt 0.323574 0.806791
vt 0.307894 0.671607
vt 0.292215 0.536424
vt 0.392902 0.535263
vt 0.393229 0.442408
vt 0.297316 0.443515
vt 0.282443 0.535479
vt 0.288008 0.442614
vt 0.502305 0.442575
vt 0.507407 0.535438
vt 0.558884 0.535902
vt 0.551342 0.443017
vt 0.511613 0.443475
vt 0.517178 0.536383
vt 0.406720 0.536599
vt 0.406393 0.443681
vt 0.399811 1.011769
vt 0.338998 0.232840
vt 0.402452 0.233084
vt 0.543799 0.350132
vt 0.844442 0.219420
vt 0.302418 0.350605
vt 0.330548 0.291811
vt 0.297410 0.291512
vt 0.255822 0.350185
vt 0.293573 0.349750
vt 0.324258 0.291203
vt 0.248280 0.443072
vt 0.240738 0.535960
vt 0.491727 0.670765
vt 0.500075 0.671572
vt 0.299547 0.670800
vt 0.263919 0.671211
vt 0.393908 0.670615
vn 0.502468 0.174692 0.846763
vn 0.480354 0.173663 0.859710
vn -0.520765 0.102640 0.847508
vn -0.475600 0.106884 0.873144
vn -0.999320 0.034537 0.012902
vn -0.999351 0.033456 -0.013319
vn -0.511210 0.033456 -0.858804
vn -0.488486 0.034536 -0.871888
vn 0.984553 0.174692 0.011769
vn 0.984708 0.173662 -0.013856
vn 0.480354 0.173663 0.859710
vn 0.502468 0.174692 0.846763
vn -0.475600 0.106884 0.873144
vn -0.520765 0.102640 0.847508
vn -0.999351 0.033456 -0.013319
vn -0.999320 0.034537 0.012902
vn -0.488486 0.034536 -0.871888
vn -0.511210 0.033456 -0.858804
vn 0.473581 0.102639 -0.874749
vn 0.518365 0.106884 -0.848454
vn 0.518365 0.106884 -0.848454
vn 0.473581 0.102639 -0.874749
vn 0.984708 0.173662 -0.013856
vn 0.984553 0.174692 0.011769
vn 0.353041 -0.708131 -0.611484
vn 0.493408 -0.161854 -0.854606
vn 0.857251 -0.460824 -0.229699
vn 0.626446 -0.761177 -0.167856
vn 0.611484 -0.708131 0.353041
vn 0.854606 -0.161854 0.493408
vn 0.229700 -0.460824 0.857251
vn 0.167855 -0.761176 0.626446
vn -0.353041 -0.708131 0.611484
vn -0.493408 -0.161854 0.854607
vn -0.857251 -0.460823 0.229699
vn -0.626446 -0.761176 0.167856
vn -0.611484 -0.708131 -0.353041
vn -0.854606 -0.161854 -0.493408
vn -0.229700 -0.460824 -0.857251
vn -0.167856 -0.761177 -0.626446
vn 0.626446 -0.761177 -0.167856
vn 0.857251 -0.460824 -0.229699
vn 0.854606 -0.161854 0.493408
vn 0.611484 -0.708131 0.353041
vn 0.167855 -0.761176 0.626446
vn 0.229700 -0.460824 0.857251
vn -0.493408 -0.161854 0.854607
vn -0.353041 -0.708131 0.611484
vn -0.626446 -0.761176 0.167856
vn -0.857251 -0.460823 0.229699
vn -0.854606 -0.161854 -0.493408
vn -0.611484 -0.708131 -0.353041
vn -0.167856 -0.761177 -0.626446
vn -0.229700 -0.460824 -0.857251
vn 0.493408 -0.161854 -0.854606
vn 0.353041 -0.708131 -0.611484
vn -0.822883 -0.311693 -0.475092
vn -0.865877 0.005084 -0.500231
vn -0.249550 -0.259597 -0.932917
vn -0.255302 -0.164283 -0.952802
vn 0.952802 -0.164282 -0.255302
vn 0.932216 -0.260369 -0.251359
vn 0.866073 0.004067 0.499901
vn 0.822882 -0.311692 0.475092
vn 0.255302 -0.164282 0.952802
vn 0.249689 -0.261570 0.932329
vn -0.499997 0.003657 0.866019
vn -0.475092 -0.311692 0.822883
vn -0.952802 -0.164282 0.255302
vn -0.932499 -0.261200 0.249440
vn -0.865877 0.005084 -0.500231
vn -0.822883 -0.311693 -0.475092
vn -0.255302 -0.164283 -0.952802
vn -0.249550 -0.259597 -0.932917
vn 0.499990 0.006506 -0.866007
vn 0.475092 -0.311693 -0.822882
vn 0.475092 -0.311693 -0.822882
vn 0.499990 0.006506 -0.866007
vn 0.932216 -0.260369 -0.251359
vn 0.952802 -0.164282 -0.255302
vn 0.822882 -0.311692 0.475092
vn 0.866073 0.004067 0.499901
vn 0.249689 -0.261570 0.932329
vn 0.255302 -0.164282 0.952802
vn -0.475092 -0.311692 0.822883
vn -0.499997 0.003657 0.866019
vn -0.932499 -0.261200 0.249440
vn -0.952802 -0.164282 0.255302
vn 0.493024 0.166462 -0.853943
vn 0.499968 0.011378 -0.865969
vn 0.909047 0.332076 -0.251714
vn 0.965444 -0.022196 -0.259662
vn 0.854686 0.159531 0.494026
vn 0.866324 0.022780 0.498963
vn 0.244269 0.333335 0.910616
vn 0.264422 -0.022009 0.964156
vn -0.493365 0.162373 0.854532
vn -0.499952 0.013879 0.865942
vn -0.910592 0.336015 0.240656
vn -0.965921 -0.025276 0.257598
vn -0.856042 0.164424 -0.490058
vn -0.868228 0.012621 -0.496004
vn -0.240820 0.333938 -0.911313
vn -0.257554 -0.023424 -0.965980
vn 0.965444 -0.022196 -0.259662
vn 0.909047 0.332076 -0.251714
vn 0.866324 0.022780 0.498963
vn 0.854686 0.159531 0.494026
vn 0.264422 -0.022009 0.964156
vn 0.244269 0.333335 0.910616
vn -0.499952 0.013879 0.865942
vn -0.493365 0.162373 0.854532
vn -0.965921 -0.025276 0.257598
vn -0.910592 0.336015 0.240656
vn -0.868228 0.012621 -0.496004
vn -0.856042 0.164424 -0.490058
vn -0.257554 -0.023424 -0.965980
vn -0.240820 0.333938 -0.911313
vn 0.499968 0.011378 -0.865969
vn 0.493024 0.166462 -0.853943
vn -0.910592 0.336015 0.240656
vn -0.000618 0.999997 -0.002510
vn -0.868228 0.012621 -0.496004
vn -0.240820 0.333938 -0.911313
vn -0.000618 0.999997 -0.002510
vn 0.499968 0.011378 -0.865969
vn 0.499968 0.011378 -0.865969
vn -0.000618 0.999997 -0.002510
vn 0.909047 0.332076 -0.251714
vn 0.866324 0.022780 0.498963
vn -0.000618 0.999997 -0.002510
vn 0.244269 0.333335 0.910616
vn -0.499952 0.013879 0.865942
vn -0.000618 0.999997 -0.002510
vn -0.910592 0.336015 0.240656
vn -0.868228 0.012621 -0.496004
vn -0.000618 0.999997 -0.002510
vn -0.240820 0.333938 -0.911313
vn 0.909047 0.332076 -0.251714
vn -0.000618 0.999997 -0.002510
vn 0.866324 0.022780 0.498963
vn 0.244269 0.333335 0.910616
vn -0.000618 0.999997 -0.002510
vn -0.499952 0.013879 0.865942
vn -0.249550 -0.259597 -0.932917
vn -0.257554 -0.023424 -0.965980
vn 0.493024 0.166462 -0.853943
vn 0.499990 0.006506 -0.866007
vn -0.932499 -0.261200 0.249440
vn -0.965921 -0.025276 0.257598
vn -0.856042 0.164424 -0.490058
vn -0.865877 0.005084 -0.500231
vn 0.249689 -0.261570 0.932329
vn 0.264422 -0.022009 0.964156
vn -0.493365 0.162373 0.854532
vn -0.499997 0.003657 0.866019
vn 0.932216 -0.260369 -0.251359
vn 0.965444 -0.022196 -0.259662
vn 0.854686 0.159531 0.494026
vn 0.866073 0.004067 0.499901
vn -0.865877 0.005084 -0.500231
vn -0.856042 0.164424 -0.490058
vn -0.257554 -0.023424 -0.965980
vn -0.249550 -0.259597 -0.932917
vn -0.499997 0.003657 0.866019
vn -0.493365 0.162373 0.854532
vn -0.965921 -0.025276 0.257598
vn -0.932499 -0.261200 0.249440
vn 0.866073 0.004067 0.499901
vn 0.854686 0.159531 0.494026
vn 0.264422 -0.022009 0.964156
vn 0.249689 -0.261570 0.932329
vn 0.499990 0.006506 -0.866007
vn 0.493024 0.166462 -0.853943
vn 0.965444 -0.022196 -0.259662
vn 0.932216 -0.260369 -0.251359
vn -0.493408 -0.161854 0.854607
vn -0.475092 -0.311692 0.822883
vn -0.952802 -0.164282 0.255302
vn -0.857251 -0.460823 0.229699
vn 0.854606 -0.161854 0.493408
vn 0.822882 -0.311692 0.475092
vn 0.255302 -0.164282 0.952802
vn 0.229700 -0.460824 0.857251
vn 0.493408 -0.161854 -0.854606
vn 0.475092 -0.311693 -0.822882
vn 0.952802 -0.164282 -0.255302
vn 0.857251 -0.460824 -0.229699
vn -0.229700 -0.460824 -0.857251
vn -0.255302 -0.164283 -0.952802
vn 0.475092 -0.311693 -0.822882
vn 0.493408 -0.161854 -0.854606
vn -0.857251 -0.460823 0.229699
vn -0.952802 -0.164282 0.255302
vn -0.822883 -0.311693 -0.475092
vn -0.854606 -0.161854 -0.493408
vn 0.229700 -0.460824 0.857251
vn 0.255302 -0.164282 0.952802
vn -0.475092 -0.311692 0.822883
vn -0.493408 -0.161854 0.854607
vn 0.857251 -0.460824 -0.229699
vn 0.952802 -0.164282 -0.255302
vn 0.822882 -0.311692 0.475092
vn 0.854606 -0.161854 0.493408
vn -0.854606 -0.161854 -0.493408
vn -0.822883 -0.311693 -0.475092
vn -0.255302 -0.164283 -0.952802
vn -0.229700 -0.460824 -0.857251
vn -0.215268 -0.555179 -0.803391
vn -0.167856 -0.761177 -0.626446
vn 0.353041 -0.708131 -0.611484
vn 0.432317 -0.502403 -0.748795
vn -0.803391 -0.555179 0.215268
vn -0.626446 -0.761176 0.167856
vn -0.611484 -0.708131 -0.353041
vn -0.748795 -0.502402 -0.432317
vn 0.215268 -0.555179 0.803391
vn 0.167855 -0.761176 0.626446
vn -0.353041 -0.708131 0.611484
vn -0.432317 -0.502402 0.748795
vn 0.803390 -0.555179 -0.215268
vn 0.626446 -0.761177 -0.167856
vn 0.611484 -0.708131 0.353041
vn 0.748795 -0.502403 0.432317
vn -0.748795 -0.502402 -0.432317
vn -0.611484 -0.708131 -0.353041
vn -0.167856 -0.761177 -0.626446
vn -0.215268 -0.555179 -0.803391
vn -0.432317 -0.502402 0.748795
vn -0.353041 -0.708131 0.611484
vn -0.626446 -0.761176 0.167856
vn -0.803391 -0.555179 0.215268
vn 0.748795 -0.502403 0.432317
vn 0.611484 -0.708131 0.353041
vn 0.167855 -0.761176 0.626446
vn 0.215268 -0.555179 0.803391
vn 0.432317 -0.502403 -0.748795
vn 0.353041 -0.708131 -0.611484
vn 0.626446 -0.761177 -0.167856
vn 0.803390 -0.555179 -0.215268
g TreeDiamondA
usemtl pasted__phong3SG1
f 5/28/1 11/30/2 10/27/3 4/26/4
f 3/31/5 9/29/6 8/32/7 2/33/8
f 6/34/9 12/35/10 11/30/11 5/28/12
f 4/26/13 10/27/14 9/29/15 3/31/16
f 2/33/17 8/32/18 7/56/19 1/9/20
f 1/9/21 7/56/22 12/35/23 6/34/24
usemtl pasted__pasted__lilypad1SG
f 63/10/25 21/11/26 28/12/27 62/13/28
f 65/14/29 27/55/30 26/18/31 64/15/32
f 67/16/33 25/17/34 24/57/35 66/58/36
f 69/59/37 23/60/38 22/61/39 68/62/40
f 62/13/41 28/12/42 27/55/43 65/14/44
f 64/15/45 26/18/46 25/17/47 67/16/48
f 66/58/49 24/57/50 23/60/51 69/59/52
f 68/62/53 22/61/54 21/11/55 63/10/56
f 55/63/57 31/64/58 30/42/59 54/43/60
f 57/44/61 36/45/62 35/46/63 56/47/64
f 59/48/65 34/49/66 33/50/67 58/51/68
f 60/41/69 32/38/70 31/64/71 55/63/72
f 54/43/73 30/42/74 29/39/75 61/40/76
f 61/40/77 29/39/78 36/45/79 57/44/80
f 56/47/81 35/46/82 34/49/83 59/48/84
f 58/51/85 33/50/86 32/38/87 60/41/88
f 47/69/89 37/21/90 44/22/91 46/65/92
f 49/7/93 43/4/94 42/1/95 48/66/96
f 51/3/97 41/8/98 40/36/99 50/37/100
f 53/68/101 39/5/102 38/19/103 52/67/104
f 46/65/105 44/22/106 43/4/107 49/7/108
f 48/66/109 42/1/110 41/8/111 51/3/112
f 50/37/113 40/36/114 39/5/115 53/68/116
f 52/67/117 38/19/118 37/21/119 47/69/120
f 40/36/121 45/52/122 39/5/123
f 38/19/124 45/52/125 37/21/126
f 37/21/127 45/52/128 44/22/129
f 43/4/130 45/52/131 42/1/132
f 41/8/133 45/52/134 40/36/135
f 39/5/136 45/52/137 38/19/138
f 44/22/139 45/52/140 43/4/141
f 42/1/142 45/52/143 41/8/144
f 30/42/145 52/67/146 47/69/147 29/39/148
f 32/38/149 50/37/150 53/68/151 31/64/152
f 34/49/153 48/66/154 51/3/155 33/50/156
f 36/45/157 46/65/158 49/7/159 35/46/160
f 31/64/161 53/68/162 52/67/163 30/42/164
f 33/50/165 51/3/166 50/37/167 32/38/168
f 35/46/169 49/7/170 48/66/171 34/49/172
f 29/39/173 47/69/174 46/65/175 36/45/176
f 25/17/177 58/51/178 60/41/179 24/57/180
f 27/55/181 56/47/182 59/48/183 26/18/184
f 21/11/185 61/40/186 57/44/187 28/12/188
f 22/61/189 54/43/190 61/40/191 21/11/192
f 24/57/193 60/41/194 55/63/195 23/60/196
f 26/18/197 59/48/198 58/51/199 25/17/200
f 28/12/201 57/44/202 56/47/203 27/55/204
f 23/60/205 55/63/206 54/43/207 22/61/208
f 14/20/209 68/62/210 63/10/211 13/2/212
f 16/23/213 66/58/214 69/59/215 15/53/216
f 18/6/217 64/15/218 67/16/219 17/54/220
f 20/24/221 62/13/222 65/14/223 19/25/224
f 15/53/225 69/59/226 68/62/227 14/20/228
f 17/54/229 67/16/230 66/58/231 16/23/232
f 19/25/233 65/14/234 64/15/235 18/6/236
f 13/2/237 63/10/238 62/13/239 20/24/240
