# This file uses centimeters as units for non-parametric coordinates.

mtllib spruce.mtl
v 0.206757 -0.751519 -0.273199
v -0.133219 -0.751519 -0.315656
v -0.339976 -0.751519 -0.042457
v -0.206757 -0.751519 0.273199
v 0.133219 -0.751519 0.315656
v 0.339976 -0.751519 0.042457
v 0.155955 -0.406999 -0.206072
v -0.100486 -0.406999 -0.238096
v -0.256441 -0.406999 -0.032025
v -0.155955 -0.406999 0.206072
v 0.100486 -0.406999 0.238096
v 0.256441 -0.406999 0.032025
v 0.126843 0.502115 -0.167605
v -0.081729 0.502115 -0.193652
v -0.208572 0.502115 -0.026047
v -0.126843 0.502115 0.167605
v 0.081729 0.502115 0.193652
v 0.208572 0.502115 0.026047
v 0.033843 5.553302 -0.041985
v -0.020957 5.553302 -0.051938
v -0.056977 5.553302 -0.009457
v -0.038197 5.553302 0.042978
v 0.016603 5.553302 0.052931
v 0.052623 5.553302 0.010450
v -0.000000 -0.751519 0.000000
v -0.002177 5.553302 0.000497
v 0.119147 2.340443 -0.134658
v -0.055826 2.359913 -0.166439
v -0.170952 2.369648 -0.030158
v -0.111104 2.359913 0.137903
v 0.063868 2.340443 0.169683
v 0.178994 2.330708 0.033403
v 0.080720 4.955782 -0.096366
v 0.124113 4.966264 0.024271
v 0.041068 4.976746 0.121942
v -0.085368 4.976746 0.098977
v -0.128761 4.966264 -0.021659
v -0.045717 4.955782 -0.119331
v 0.850287 0.910961 -1.316675
v -0.702467 0.873581 -1.485664
v -1.738333 0.609449 -0.196735
v -1.099170 0.662938 1.411546
v 0.816709 0.647424 1.566917
v 1.634755 0.873581 0.142196
v -0.063662 7.300213 -0.038015
v 0.431550 2.951477 1.204030
v 1.261627 2.940121 0.229075
v 0.879624 2.690135 -0.988153
v -0.406844 2.655632 -1.195599
v -1.273207 2.893327 -0.231333
v -0.762449 3.045232 0.925334
v -0.481476 5.265157 0.053673
v -0.199216 5.279567 0.440355
v 0.268755 5.321366 0.383743
v 0.532230 5.116496 -0.011109
v 0.196010 5.086383 -0.494304
v -0.290753 5.221063 -0.393975
v 0.945670 1.171803 -1.400857
v -0.842023 1.035805 -1.746174
v -2.019106 0.888286 -0.185997
v -1.238714 0.823420 1.610274
v 0.979418 0.943769 1.799411
v 1.948115 1.141419 0.116530
v 0.598593 2.596642 -0.962400
v 1.139614 2.763317 0.014466
v 0.569616 2.744333 0.998856
v -0.567114 2.792101 0.931706
v -1.157243 2.697099 -0.026467
v -0.533354 2.554670 -0.991499
v 0.192172 5.184233 0.365168
v 0.463872 5.039506 0.041561
v 0.239653 5.000504 -0.405814
v -0.197334 5.092650 -0.387554
v -0.425061 5.140596 -0.022553
v -0.221902 5.161564 0.349422
vt 0.578125 0.020934
vt 0.421875 0.020934
vt 0.343750 0.156250
vt 0.421875 0.291566
vt 0.578125 0.291566
vt 0.656250 0.156250
vt 0.375000 0.312500
vt 0.416667 0.312500
vt 0.458333 0.312500
vt 0.500000 0.312500
vt 0.541667 0.312500
vt 0.583333 0.312500
vt 0.625000 0.312500
vt 0.375000 0.437813
vt 0.416667 0.437813
vt 0.458333 0.437813
vt 0.500000 0.437813
vt 0.541667 0.437813
vt 0.583333 0.437813
vt 0.625000 0.437813
vt 0.375000 0.563127
vt 0.416667 0.563127
vt 0.458333 0.563127
vt 0.500000 0.563127
vt 0.541667 0.563127
vt 0.583333 0.563127
vt 0.625000 0.563127
vt 0.375000 0.688440
vt 0.416667 0.688440
vt 0.458333 0.688440
vt 0.500000 0.688440
vt 0.541667 0.688440
vt 0.583333 0.688440
vt 0.625000 0.688440
vt 0.578125 0.708434
vt 0.421875 0.708434
vt 0.343750 0.843750
vt 0.421875 0.979066
vt 0.578125 0.979066
vt 0.656250 0.843750
vt 0.500000 0.150000
vt 0.500000 0.837500
vt 0.625000 0.610329
vt 0.375000 0.610329
vt 0.416667 0.610329
vt 0.458333 0.610329
vt 0.500000 0.610329
vt 0.541667 0.610329
vt 0.583333 0.610329
vt 0.625000 0.676934
vt 0.375000 0.676934
vt 0.583333 0.676934
vt 0.541667 0.676934
vt 0.500000 0.676934
vt 0.458333 0.676934
vt 0.416667 0.676934
vt 0.625000 0.466506
vt 0.375000 0.466506
vt 0.750000 0.250000
vt 0.625000 0.033494
vt 0.250000 0.250000
vt 0.375000 0.033494
vt 0.362344 0.724687
vt 0.406522 0.719566
vt 0.500000 1.000000
vt 0.454370 0.726219
vt 0.500000 0.728394
vt 0.544217 0.734701
vt 0.590261 0.729218
vt 0.637656 0.724687
vt 0.577484 0.535097
vt 0.655073 0.534780
vt 0.567905 0.592571
vt 0.636088 0.591735
vt 0.732161 0.535678
vt 0.702948 0.594104
vt 0.345340 0.536019
vt 0.365002 0.595005
vt 0.267839 0.535678
vt 0.297052 0.594104
vt 0.422246 0.533473
vt 0.431381 0.588289
vt 0.500000 0.533398
vt 0.500000 0.588091
vt 0.452460 0.714759
vt 0.500000 0.716718
vt 0.546182 0.722908
vt 0.594056 0.717833
vt 0.643027 0.713946
vt 0.356973 0.713946
vt 0.403125 0.709375
vt 0.250000 0.500000
vt 0.333333 0.500000
vt 0.416667 0.500000
vt 0.500000 0.500000
vt 0.583333 0.500000
vt 0.666667 0.500000
vt 0.750000 0.500000
vt 0.632552 0.602343
vt 0.697507 0.604986
vt 0.566121 0.603276
vt 0.500000 0.598279
vt 0.433083 0.598499
vt 0.368664 0.605991
vt 0.302493 0.604986
vn 0.121235 0.207031 -0.970794
vn 0.121235 0.207031 -0.970794
vn 0.123262 0.102920 -0.987023
vn 0.123262 0.102920 -0.987023
vn -0.780115 0.207031 -0.590389
vn -0.780115 0.207031 -0.590389
vn -0.793156 0.102920 -0.600259
vn -0.793156 0.102920 -0.600259
vn -0.901349 0.207031 0.380405
vn -0.901349 0.207031 0.380405
vn -0.916418 0.102920 0.386764
vn -0.916418 0.102920 0.386764
vn -0.121234 0.207031 0.970794
vn -0.121234 0.207031 0.970794
vn -0.123261 0.102920 0.987023
vn -0.123261 0.102920 0.987023
vn 0.780115 0.207031 0.590389
vn 0.780115 0.207031 0.590389
vn 0.793156 0.102920 0.600259
vn 0.793156 0.102920 0.600259
vn 0.901349 0.207031 -0.380405
vn 0.901349 0.207031 -0.380405
vn 0.916417 0.102920 -0.386764
vn 0.916418 0.102920 -0.386764
vn 0.139983 0.026943 -0.989787
vn 0.140037 0.026880 -0.989781
vn -0.787562 0.028018 -0.615598
vn -0.787539 0.027973 -0.615630
vn -0.927109 0.027666 0.373770
vn -0.927118 0.027641 0.373750
vn -0.139084 0.026256 0.989932
vn -0.139102 0.026233 0.989931
vn 0.787960 0.025488 0.615199
vn 0.787942 0.025446 0.615224
vn 0.927289 0.025821 -0.373455
vn 0.927309 0.025761 -0.373410
vn 0.164506 0.016208 -0.986243
vn 0.166529 0.016326 -0.985901
vn 0.179587 0.027171 -0.983367
vn 0.179587 0.027144 -0.983368
vn -0.772139 0.015893 -0.635255
vn -0.771488 0.015807 -0.636048
vn -0.761631 0.026141 -0.647484
vn -0.761759 0.024186 -0.647409
vn -0.936756 0.015344 0.349648
vn -0.936373 0.015431 0.350667
vn -0.941495 0.025985 0.336022
vn -0.941509 0.024008 0.336132
vn -0.164829 0.015431 0.986202
vn -0.162748 0.015285 0.986549
vn -0.177737 0.026812 0.983713
vn -0.177738 0.026840 0.983712
vn 0.772271 0.015828 0.635096
vn 0.772957 0.015635 0.634266
vn 0.763770 0.027474 0.644903
vn 0.763777 0.029378 0.644811
vn 0.936556 0.016093 -0.350149
vn 0.936888 0.016261 -0.349253
vn 0.940967 0.027675 -0.337364
vn 0.940866 0.029501 -0.337493
vn 0.000000 -1.000000 -0.000000
vn 0.000000 -1.000000 -0.000000
vn 0.000000 -1.000000 -0.000000
vn 0.000000 -1.000000 0.000000
vn 0.000000 -1.000000 0.000000
vn 0.000000 -1.000000 -0.000000
vn 0.000000 -1.000000 0.000000
vn 0.000000 1.000000 0.000006
vn 0.000000 1.000000 0.000008
vn 0.000000 1.000000 0.000004
vn 0.000000 1.000000 0.000003
vn 0.000000 1.000000 0.000000
vn 0.000000 1.000000 0.000003
vn 0.000000 1.000000 0.000003
vn 0.933873 0.105023 -0.341835
vn 0.933873 0.105023 -0.341835
vn 0.761616 0.108289 0.638916
vn 0.761616 0.108289 0.638916
vn -0.177633 0.109523 0.977983
vn -0.177633 0.109523 0.977983
vn -0.937653 0.108289 0.330274
vn -0.937653 0.108289 0.330274
vn -0.754012 0.105023 -0.648410
vn -0.754012 0.105023 -0.648410
vn 0.177758 0.103016 -0.978667
vn 0.177758 0.103016 -0.978667
vn 0.004508 -0.988022 -0.154248
vn 0.076483 -0.995951 -0.047235
vn 0.042996 -0.996423 -0.072748
vn 0.067563 -0.996161 -0.055662
vn 0.102853 -0.994246 -0.029938
vn 0.042000 -0.984880 -0.168071
vn -0.158260 0.119386 -0.980153
vn -0.152126 0.174846 -0.972773
vn -0.149727 0.182713 -0.971698
vn -0.906241 0.116922 -0.406272
vn -0.902991 0.156510 -0.400140
vn -0.901032 0.166952 -0.400335
vn -0.805685 0.140119 0.575534
vn -0.798614 0.172766 0.576513
vn -0.796434 0.189389 0.574303
vn 0.094415 0.171009 0.980735
vn 0.099339 0.206243 0.973445
vn 0.097408 0.223085 0.969920
vn 0.859954 0.205866 0.467011
vn 0.858540 0.212564 0.466611
vn 0.860387 0.240320 0.449423
vn 0.806058 0.173549 -0.565819
vn 0.797873 0.202487 -0.567801
vn 0.796288 0.210303 -0.567185
vn 0.830140 0.242287 0.502160
vn 0.824110 0.269920 0.497982
vn 0.790175 0.373213 0.486144
vn 0.810941 0.316845 0.491919
vn 0.821556 0.185716 -0.539032
vn 0.822522 0.226265 -0.521788
vn 0.798885 0.322992 -0.507404
vn 0.843325 0.220820 -0.489941
vn 0.160350 0.288800 -0.943866
vn 0.103311 0.320416 -0.941627
vn 0.114476 0.293000 -0.949235
vn 0.029953 0.184012 -0.982468
vn -0.771447 0.290513 -0.566102
vn -0.782150 0.248843 -0.571243
vn -0.755276 0.379986 -0.534012
vn -0.778708 0.290711 -0.555969
vn -0.886030 0.239952 0.396704
vn -0.870921 0.272629 0.408864
vn -0.830090 0.364846 0.421708
vn -0.822632 0.331932 0.461625
vn -0.099926 0.257290 0.961154
vn -0.085002 0.242440 0.966436
vn -0.078907 0.334682 0.939022
vn -0.055091 0.314412 0.947687
vn -0.869913 0.294500 0.395627
vn -0.844407 0.284127 0.454147
vn -0.049875 0.237092 0.970206
vn -0.122775 0.279464 0.952274
vn 0.759626 0.295289 0.579460
vn 0.796041 0.238775 0.556152
vn 0.858155 0.244529 -0.451415
vn 0.869643 0.288790 -0.400400
vn 0.080730 0.282143 -0.955970
vn 0.005969 0.272264 -0.962204
vn -0.733657 0.293811 -0.612718
vn -0.796264 0.300652 -0.524950
vn 0.109811 -0.341418 -0.933475
vn 0.170975 -0.770145 -0.614527
vn -0.273070 -0.875415 -0.398850
vn -0.594539 -0.618280 -0.514056
vn -0.669074 -0.684839 0.288680
vn -0.592778 -0.771051 0.232584
vn -0.055381 -0.795455 0.603477
vn -0.035896 -0.613557 0.788834
vn 0.711104 -0.632049 0.307971
vn 0.644682 -0.709346 0.284979
vn 0.790584 -0.429848 -0.436128
vn 0.593320 -0.698567 -0.399970
vn 0.884849 0.307207 -0.350236
vn 0.932410 0.157951 -0.325058
vn 0.735960 0.298835 0.607504
vn 0.750351 0.177427 0.636783
vn -0.182456 0.291781 0.938922
vn -0.211263 0.170467 0.962449
vn -0.890631 0.273372 0.363380
vn -0.905840 0.188065 0.379585
vn -0.687456 0.259551 -0.678261
vn -0.717243 0.167700 -0.676343
vn 0.141763 0.168983 -0.975371
vn 0.146258 0.269480 -0.951835
usemtl pasted__phong2SG2
f 1/7/1 2/8/2 8/15/3 7/14/4
f 2/8/5 3/9/6 9/16/7 8/15/8
f 3/9/9 4/10/10 10/17/11 9/16/12
f 4/10/13 5/11/14 11/18/15 10/17/16
f 5/11/17 6/12/18 12/19/19 11/18/20
f 6/12/21 1/13/22 7/20/23 12/19/24
f 7/14/4 8/15/3 14/22/25 13/21/26
f 8/15/8 9/16/7 15/23/27 14/22/28
f 9/16/12 10/17/11 16/24/29 15/23/30
f 10/17/16 11/18/15 17/25/31 16/24/32
f 11/18/20 12/19/19 18/26/33 17/25/34
f 12/19/24 7/20/23 13/27/35 18/26/36
f 27/44/37 28/45/38 38/56/39 33/51/40
f 28/45/41 29/46/42 37/55/43 38/56/44
f 29/46/45 30/47/46 36/54/47 37/55/48
f 30/47/49 31/48/50 35/53/51 36/54/52
f 31/48/53 32/49/54 34/52/55 35/53/56
f 32/49/57 27/43/58 33/50/59 34/52/60
f 2/2/61 1/1/62 25/41/63
f 3/3/64 2/2/61 25/41/63
f 4/4/65 3/3/64 25/41/63
f 5/5/66 4/4/65 25/41/63
f 6/6/67 5/5/66 25/41/63
f 1/1/62 6/6/67 25/41/63
f 19/39/68 20/38/69 26/42/70
f 20/38/69 21/37/71 26/42/70
f 21/37/71 22/36/72 26/42/70
f 22/36/72 23/35/73 26/42/70
f 23/35/73 24/40/74 26/42/70
f 24/40/74 19/39/68 26/42/70
f 13/21/26 14/22/25 28/45/38 27/44/37
f 14/22/28 15/23/27 29/46/42 28/45/41
f 15/23/30 16/24/29 30/47/46 29/46/45
f 16/24/32 17/25/31 31/48/50 30/47/49
f 17/25/34 18/26/33 32/49/54 31/48/53
f 18/26/36 13/27/35 27/43/58 32/49/57
f 34/52/60 33/50/59 19/34/75 24/33/76
f 35/53/56 34/52/55 24/33/77 23/32/78
f 36/54/52 35/53/51 23/32/79 22/31/80
f 37/55/48 36/54/47 22/31/81 21/30/82
f 38/56/44 37/55/43 21/30/83 20/29/84
f 33/51/40 38/56/39 20/29/85 19/28/86
usemtl pasted__phong1SG
f 43/57/87 42/58/88 44/59/89
f 44/59/89 42/58/88 39/60/90
f 42/58/88 41/61/91 39/60/90
f 39/60/90 41/61/91 40/62/92
usemtl phong24SG
f 56/63/93 57/64/94 45/65/95
f 57/64/96 52/66/97 45/65/98
f 52/66/99 53/67/100 45/65/101
f 53/67/102 54/68/103 45/65/104
f 54/68/105 55/69/106 45/65/107
f 55/69/108 56/70/109 45/65/110
f 62/71/111 63/72/112 66/73/113
f 66/73/113 63/72/112 65/74/114
f 63/72/115 58/75/116 65/74/117
f 65/74/117 58/75/116 64/76/118
f 59/77/119 69/78/120 58/79/121
f 58/79/121 69/78/120 64/80/122
f 59/77/123 60/81/124 69/78/125
f 69/78/125 60/81/124 68/82/126
f 60/81/127 61/83/128 68/82/129
f 68/82/129 61/83/128 67/84/130
f 61/83/131 62/71/132 67/84/133
f 67/84/133 62/71/132 66/73/134
usemtl pasted__phong1SG
f 74/85/135 75/86/136 52/66/99
f 52/66/99 75/86/136 53/67/100
f 75/86/137 70/87/138 53/67/102
f 53/67/102 70/87/138 54/68/103
f 71/88/139 55/69/106 70/87/140
f 70/87/140 55/69/106 54/68/105
f 71/88/141 72/89/142 55/69/108
f 55/69/108 72/89/142 56/70/109
f 72/90/143 73/91/144 56/63/93
f 56/63/93 73/91/144 57/64/94
f 73/91/145 74/85/146 57/64/96
f 57/64/96 74/85/146 52/66/97
f 39/92/147 40/93/148 58/79/121
f 58/79/121 40/93/148 59/77/119
f 40/93/149 41/94/150 59/77/123
f 59/77/123 41/94/150 60/81/124
f 41/94/151 42/95/152 60/81/127
f 60/81/127 42/95/152 61/83/128
f 42/95/153 43/96/154 61/83/131
f 61/83/131 43/96/154 62/71/132
f 43/96/155 44/97/156 62/71/111
f 62/71/111 44/97/156 63/72/112
f 39/98/157 58/75/116 44/97/158
f 44/97/158 58/75/116 63/72/115
f 65/74/117 64/76/118 47/99/159
f 47/99/159 64/76/118 48/100/160
f 66/73/113 65/74/114 46/101/161
f 46/101/161 65/74/114 47/99/162
f 67/84/133 66/73/134 51/102/163
f 51/102/163 66/73/134 46/101/164
f 68/82/129 67/84/130 50/103/165
f 50/103/165 67/84/130 51/102/166
f 69/78/125 68/82/126 49/104/167
f 49/104/167 68/82/126 50/103/168
f 69/78/120 49/104/169 64/80/122
f 64/80/122 49/104/169 48/105/170
usemtl phong24SG
f 47/99/162 71/88/139 46/101/161
f 46/101/161 71/88/139 70/87/140
f 48/100/160 72/89/142 47/99/159
f 47/99/159 72/89/142 71/88/141
f 48/105/170 49/104/169 72/90/143
f 72/90/143 49/104/169 73/91/144
f 49/104/167 50/103/168 73/91/145
f 73/91/145 50/103/168 74/85/146
f 50/103/165 51/102/166 74/85/135
f 74/85/135 51/102/166 75/86/136
f 46/101/164 70/87/138 51/102/163
f 51/102/163 70/87/138 75/86/137
