<?xml version="1.0" encoding="utf-8"?>
<!-- Generator: Adobe Illustrator 16.0.0, SVG Export Plug-In . SVG Version: 6.00 Build 0)  -->
<!DOCTYPE svg PUBLIC "-//W3C//DTD SVG 1.1//EN" "http://www.w3.org/Graphics/SVG/1.1/DTD/svg11.dtd">
<svg version="1.1" id="Layer_1" xmlns="http://www.w3.org/2000/svg" xmlns:xlink="http://www.w3.org/1999/xlink" x="0px" y="0px"
	 width="120px" height="120px" viewBox="0 0 120 120" enable-background="new 0 0 120 120" xml:space="preserve">
<g>
	<g>
		<path fill="#FFFFFF" d="M65.846,53.018c-4.161-0.542-8.881,2.239-12.05,4.649c-2.917,2.219-5.317,5.115-7.471,8.057
			c-2.48,3.386-4.752,7.087-6.572,10.888c-0.103-0.308-0.386-0.527-0.43-0.826c0.063,0.34-0.499-0.444-0.499-0.444
			c-0.215-0.128-0.47-0.206-0.757-0.225c-0.012,0-0.019-0.009-0.019-0.009c-0.393-0.022-0.718,0.064-0.988,0.226l-0.497,0.444
			c-0.185,0.237-0.328,0.517-0.43,0.823c-1.82-3.798-4.095-7.501-6.574-10.889c-2.153-2.936-4.552-5.837-7.472-8.054
			c-3.169-2.409-7.885-5.191-12.048-4.65c-5.692,0.743-1.624,9.368-1.039,12.251c0.529,2.596,0.659,5.092,0.663,7.729
			c0.002,1.269,0.002,2.625,0.392,3.852c0.686,2.144,2.143,3.373,4.081,4.009c-1.278,0.413-2.625,1.049-3.151,2.267
			c-0.358,0.836-0.182,1.778-0.101,2.642c0.12,1.321,0.08,2.673,0.293,3.984c0.429,2.689,2.134,4.763,3.187,7.208
			c0.966,2.24,0.695,4.982,1.954,7.051c1.035,1.699,3.713,2.002,5.476,1.757c2.455-0.343,4.708-1.671,6.562-3.288
			c3.488-3.05,5.911-7.364,7.09-11.853c0.361,1.059,1.266,1.995,2.31,2.186c0.018,0.027,0.049,0.046,0.093,0.046
			c0.049-0.003,0.094-0.01,0.141-0.018c0.017,0.004,0.035,0.008,0.049,0.008c0.034,0.002,0.058-0.009,0.073-0.021
			c1.052-0.181,1.965-1.123,2.329-2.191c1.179,4.485,3.603,8.802,7.094,11.853c1.85,1.618,4.104,2.948,6.562,3.291
			c1.758,0.241,4.438-0.062,5.47-1.758c1.264-2.068,0.99-4.813,1.955-7.05c1.055-2.45,2.759-4.521,3.192-7.209
			c0.208-1.313,0.167-2.662,0.292-3.983c0.079-0.868,0.256-1.812-0.103-2.644c-0.528-1.22-1.874-1.854-3.151-2.267
			c1.939-0.639,3.395-1.863,4.077-4.011c0.391-1.225,0.391-2.584,0.395-3.854c0.003-2.635,0.133-5.13,0.663-7.729
			C67.471,62.384,71.538,53.758,65.846,53.018z"/>
		<path fill="#2E3B49" d="M55.195,106.842L55.195,106.842c-0.424,0-0.84-0.028-1.236-0.082c-2.375-0.332-4.824-1.553-7.084-3.529
			c-2.996-2.618-5.361-6.234-6.787-10.332c-0.51,0.45-1.107,0.766-1.73,0.889c-0.12,0.037-0.247,0.056-0.352,0.051
			c-0.032,0.003-0.064,0.006-0.099,0.008c-0.208-0.017-0.366-0.033-0.518-0.1c-0.572-0.141-1.119-0.442-1.592-0.858
			c-1.425,4.099-3.789,7.715-6.784,10.334c-2.265,1.976-4.713,3.194-7.081,3.525c-0.402,0.056-0.823,0.085-1.252,0.085
			c-1.145,0-3.945-0.226-5.217-2.313c-0.798-1.311-1.046-2.787-1.286-4.214c-0.18-1.065-0.349-2.073-0.731-2.96
			c-0.346-0.804-0.765-1.561-1.207-2.363c-0.856-1.551-1.741-3.154-2.049-5.084c-0.14-0.857-0.177-1.719-0.213-2.551
			c-0.022-0.502-0.044-1.004-0.089-1.5L9.852,85.49c-0.092-0.849-0.196-1.812,0.215-2.77c0.368-0.853,1.008-1.463,1.714-1.91
			c-1.278-0.871-2.176-2.098-2.677-3.666c-0.436-1.369-0.438-2.838-0.439-4.135c-0.003-2.201-0.082-4.801-0.643-7.551
			c-0.101-0.492-0.325-1.211-0.585-2.043c-0.939-3.001-2.225-7.109-0.646-9.578c0.654-1.023,1.705-1.637,3.12-1.822
			c0.392-0.051,0.798-0.076,1.208-0.076c4.215,0,8.621,2.678,11.575,4.923c3.23,2.452,5.797,5.702,7.673,8.259
			c2.289,3.127,4.278,6.334,5.929,9.555l0.1-0.088c0.047-0.043,0.1-0.081,0.154-0.114c0.46-0.273,0.975-0.399,1.558-0.364
			c0.061,0.003,0.12,0.012,0.179,0.026c0.407,0.05,0.746,0.165,1.051,0.346c0.095,0.057,0.18,0.128,0.251,0.212
			c1.653-3.229,3.644-6.438,5.932-9.561c1.866-2.549,4.424-5.791,7.672-8.262c2.952-2.246,7.357-4.922,11.575-4.922
			c0.411,0,0.817,0.025,1.209,0.076c1.416,0.185,2.466,0.797,3.121,1.821c1.579,2.468,0.293,6.578-0.646,9.579
			c-0.26,0.831-0.484,1.549-0.585,2.039c-0.562,2.756-0.641,5.354-0.643,7.53c-0.004,1.334-0.009,2.798-0.441,4.156
			c-0.499,1.568-1.396,2.796-2.676,3.669c0.706,0.447,1.346,1.057,1.715,1.907c0.41,0.952,0.308,1.913,0.218,2.761L66,85.859
			c-0.049,0.516-0.071,1.031-0.094,1.549c-0.036,0.814-0.073,1.656-0.207,2.5c-0.311,1.929-1.194,3.529-2.05,5.076
			c-0.444,0.805-0.864,1.564-1.211,2.372c-0.382,0.886-0.551,1.89-0.729,2.954c-0.24,1.43-0.489,2.908-1.291,4.222
			C59.149,106.616,56.344,106.842,55.195,106.842z M40.439,89.625c0.012,0,0.023,0,0.036,0c0.44,0.017,0.819,0.319,0.931,0.746
			c1.193,4.541,3.604,8.573,6.785,11.354c1.967,1.721,4.056,2.776,6.041,3.054c0.306,0.042,0.63,0.063,0.963,0.063
			c1.302,0,2.909-0.355,3.515-1.352c0.602-0.984,0.808-2.211,1.026-3.512c0.19-1.134,0.388-2.307,0.865-3.414
			c0.386-0.896,0.85-1.735,1.298-2.547c0.808-1.463,1.57-2.844,1.825-4.425c0.115-0.729,0.148-1.479,0.184-2.272
			c0.024-0.551,0.049-1.101,0.101-1.646l0.04-0.396c0.07-0.662,0.137-1.287-0.065-1.757c-0.306-0.704-1.113-1.249-2.541-1.71
			c-0.412-0.134-0.691-0.517-0.692-0.949c-0.001-0.434,0.276-0.817,0.688-0.953c1.804-0.594,2.896-1.662,3.437-3.363
			c0.34-1.066,0.344-2.311,0.348-3.514c0.003-2.314,0.086-5.037,0.684-7.965c0.12-0.591,0.358-1.354,0.635-2.238
			c0.775-2.477,1.947-6.221,0.871-7.904c-0.326-0.51-0.881-0.809-1.694-0.914c-0.307-0.041-0.626-0.061-0.951-0.061
			c-3.854,0-8.147,2.828-10.364,4.514c-3.043,2.314-5.483,5.412-7.27,7.852c-2.565,3.502-4.744,7.111-6.477,10.729
			c-0.176,0.368-0.541,0.594-0.965,0.566c-0.406-0.025-0.757-0.295-0.886-0.682c-0.02-0.039-0.055-0.082-0.087-0.129
			c-0.041-0.06-0.089-0.13-0.138-0.211c-0.145-0.121-0.277-0.275-0.408-0.447c-0.052-0.014-0.107-0.022-0.169-0.026
			c-0.025-0.002-0.051-0.005-0.075-0.008c-0.128,0.003-0.216,0.021-0.291,0.053l-0.33,0.296c-0.091,0.13-0.165,0.285-0.224,0.46
			c-0.128,0.388-0.479,0.657-0.886,0.684c-0.421,0.03-0.789-0.198-0.965-0.565c-1.73-3.609-3.91-7.221-6.479-10.73
			c-1.795-2.447-4.244-5.551-7.27-7.848c-2.71-2.061-6.707-4.516-10.365-4.516c-0.324,0-0.644,0.021-0.949,0.061
			c-0.813,0.105-1.368,0.405-1.694,0.916c-1.075,1.682,0.096,5.426,0.87,7.902c0.277,0.885,0.517,1.649,0.637,2.242
			c0.596,2.922,0.68,5.646,0.683,7.926c0.002,1.229,0.004,2.478,0.345,3.551c0.544,1.701,1.638,2.77,3.439,3.361
			c0.411,0.135,0.689,0.52,0.688,0.952s-0.28,0.816-0.692,0.95c-1.429,0.461-2.235,1.005-2.541,1.711
			c-0.203,0.473-0.135,1.1-0.063,1.764l0.041,0.389c0.048,0.531,0.071,1.063,0.095,1.597c0.035,0.811,0.068,1.575,0.189,2.32
			c0.253,1.587,1.017,2.97,1.825,4.435c0.446,0.809,0.908,1.646,1.293,2.538c0.478,1.108,0.676,2.284,0.866,3.42
			c0.219,1.298,0.426,2.524,1.023,3.507c0.606,0.996,2.21,1.352,3.508,1.352c0.337,0,0.665-0.022,0.976-0.065
			c1.981-0.276,4.071-1.332,6.042-3.052c3.179-2.779,5.587-6.812,6.78-11.353c0.111-0.427,0.49-0.729,0.931-0.745
			c0.437-0.012,0.84,0.259,0.982,0.676c0.263,0.769,0.911,1.41,1.543,1.525c0.012,0.002,0.024,0.004,0.036,0.007
			c0.625-0.124,1.262-0.759,1.522-1.522C39.632,89.896,40.013,89.625,40.439,89.625z"/>
	</g>
	<g>
		<path fill="#2E3B49" d="M110.092,40.661c-2.5-0.327-5.334,1.348-7.243,2.797c-1.756,1.334-3.196,3.074-4.489,4.843
			c-1.492,2.033-2.859,4.262-3.955,6.546c-0.062-0.187-0.234-0.316-0.256-0.497c0.039,0.206-0.299-0.265-0.299-0.265
			c-0.13-0.077-0.285-0.124-0.459-0.136c-0.005-0.002-0.01-0.006-0.01-0.006c-0.235-0.015-0.432,0.037-0.594,0.136l-0.297,0.266
			c-0.112,0.143-0.195,0.313-0.266,0.495c-1.088-2.282-2.457-4.512-3.947-6.547c-1.296-1.77-2.737-3.51-4.489-4.844
			c-1.909-1.446-4.746-3.12-7.25-2.796c-3.422,0.446-0.976,5.638-0.625,7.365c0.317,1.565,0.397,3.065,0.397,4.648
			c0.004,0.763,0.004,1.58,0.236,2.317c0.414,1.29,1.291,2.028,2.456,2.412c-0.771,0.248-1.582,0.629-1.894,1.361
			c-0.217,0.502-0.11,1.07-0.063,1.589c0.074,0.797,0.05,1.604,0.174,2.396c0.258,1.618,1.283,2.862,1.922,4.336
			c0.579,1.344,0.417,2.994,1.174,4.237c0.618,1.022,2.229,1.202,3.287,1.058c1.476-0.208,2.832-1.006,3.949-1.979
			c2.099-1.835,3.555-4.43,4.261-7.128c0.219,0.637,0.762,1.203,1.39,1.314c0.014,0.02,0.032,0.027,0.057,0.027
			c0.029-0.003,0.056-0.007,0.088-0.007c0,0,0.018,0,0.025,0c0.018,0.004,0.035-0.001,0.044-0.012
			c0.634-0.107,1.185-0.672,1.402-1.316c0.706,2.695,2.166,5.293,4.263,7.125c1.116,0.975,2.472,1.772,3.949,1.979
			c1.055,0.146,2.668-0.036,3.287-1.056c0.757-1.246,0.594-2.894,1.173-4.24c0.636-1.47,1.662-2.719,1.919-4.336
			c0.13-0.784,0.103-1.599,0.182-2.394c0.042-0.521,0.148-1.088-0.067-1.588c-0.314-0.733-1.126-1.116-1.896-1.363
			c1.17-0.384,2.042-1.123,2.458-2.413c0.232-0.733,0.232-1.553,0.235-2.316c0.002-1.584,0.076-3.086,0.396-4.647
			C111.074,46.293,113.519,41.104,110.092,40.661z"/>
		<path fill="#2E3B49" d="M103.695,72.922L103.695,72.922c-0.259,0-0.508-0.018-0.732-0.049c-1.408-0.197-2.863-0.923-4.21-2.098
			c-1.824-1.595-3.257-3.809-4.101-6.314c-0.313,0.313-0.696,0.531-1.099,0.611c-0.063,0.022-0.123,0.031-0.19,0.03
			c-0.151,0.009-0.231-0.006-0.317-0.043c-0.389-0.085-0.759-0.302-1.065-0.606c-0.843,2.508-2.274,4.723-4.099,6.318
			c-1.349,1.174-2.804,1.898-4.209,2.097c-0.227,0.031-0.475,0.049-0.733,0.049c-0.673,0-2.318-0.131-3.051-1.343
			c-0.469-0.771-0.617-1.648-0.76-2.498c-0.108-0.646-0.212-1.258-0.445-1.801c-0.211-0.484-0.475-0.963-0.73-1.424
			c-0.513-0.926-1.044-1.885-1.227-3.031c-0.079-0.504-0.101-1.008-0.122-1.494c-0.014-0.312-0.026-0.623-0.056-0.934l-0.022-0.22
			c-0.053-0.498-0.113-1.063,0.124-1.613c0.231-0.544,0.661-0.917,1.126-1.185c-0.821-0.516-1.394-1.266-1.706-2.238
			c-0.251-0.799-0.256-1.664-0.26-2.427c0-1.892-0.116-3.253-0.388-4.593c-0.061-0.298-0.196-0.731-0.353-1.232
			c-0.56-1.787-1.324-4.232-0.4-5.678c0.377-0.59,0.983-0.942,1.804-1.049c2.693-0.353,5.678,1.424,7.616,2.893
			c1.939,1.477,3.473,3.42,4.591,4.947c1.406,1.92,2.62,3.885,3.615,5.854l0.158-0.145c0.304-0.195,0.564-0.266,0.849-0.266
			c0.011,0,0.099,0.002,0.109,0.003c0.028,0.002,0.056,0.006,0.083,0.013c0.224,0.023,0.429,0.09,0.609,0.198
			c0.06,0.035,0.111,0.082,0.151,0.138c0.002,0.003,0.028,0.041,0.063,0.086c0.002,0.001,0.003,0.002,0.005,0.002
			c1.01-1.99,2.229-3.963,3.633-5.876c1.116-1.526,2.647-3.469,4.59-4.944c1.938-1.471,4.932-3.246,7.61-2.895
			c0.821,0.105,1.43,0.459,1.808,1.049c0.926,1.445,0.158,3.895-0.402,5.684c-0.157,0.498-0.292,0.929-0.353,1.227
			c-0.338,1.645-0.385,3.223-0.387,4.547c-0.003,0.801-0.006,1.671-0.259,2.467c-0.314,0.977-0.887,1.727-1.707,2.242
			c0.464,0.266,0.894,0.641,1.128,1.187c0.231,0.538,0.177,1.093,0.128,1.583l-0.022,0.242c-0.031,0.321-0.046,0.637-0.06,0.951
			c-0.021,0.485-0.045,0.986-0.127,1.484c-0.182,1.143-0.712,2.102-1.225,3.029c-0.255,0.461-0.519,0.938-0.729,1.424
			c-0.233,0.543-0.336,1.153-0.444,1.8c-0.143,0.849-0.29,1.728-0.76,2.501C106.011,72.791,104.368,72.922,103.695,72.922z
			 M94.819,62.773c0.006,0,0.012,0,0.018,0c0.221,0.008,0.41,0.16,0.466,0.373c0.72,2.748,2.179,5.189,4.108,6.875
			c1.199,1.048,2.476,1.691,3.689,1.861c0.183,0.025,0.385,0.039,0.595,0.039l0,0c0.393,0,1.711-0.062,2.195-0.859
			c0.37-0.609,0.496-1.355,0.629-2.146c0.113-0.678,0.23-1.377,0.513-2.031c0.229-0.531,0.505-1.029,0.771-1.512
			c0.493-0.891,0.958-1.732,1.112-2.705c0.073-0.441,0.094-0.893,0.115-1.369c0.015-0.333,0.03-0.666,0.063-0.996l0.022-0.252
			c0.04-0.404,0.078-0.786-0.052-1.088c-0.195-0.455-0.7-0.8-1.59-1.086c-0.206-0.066-0.346-0.258-0.347-0.475
			s0.139-0.408,0.344-0.477c1.117-0.365,1.796-1.03,2.139-2.091c0.205-0.648,0.208-1.403,0.211-2.134
			c0.002-1.405,0.052-3.045,0.406-4.777c0.072-0.348,0.214-0.801,0.378-1.325c0.474-1.51,1.189-3.792,0.515-4.845
			c-0.213-0.334-0.571-0.529-1.094-0.597c-2.372-0.31-5.086,1.34-6.876,2.699c-1.84,1.397-3.312,3.267-4.389,4.739
			c-1.543,2.104-2.857,4.279-3.907,6.467c-0.088,0.185-0.281,0.297-0.483,0.283c-0.203-0.014-0.379-0.148-0.442-0.342
			c-0.007-0.018-0.04-0.066-0.063-0.099c-0.028-0.042-0.062-0.089-0.093-0.143c-0.083-0.069-0.165-0.163-0.255-0.282
			c-0.048-0.018-0.103-0.028-0.162-0.032c-0.017-0.001-0.032-0.003-0.048-0.006c-0.122,0.003-0.197,0.024-0.263,0.063l-0.224,0.211
			c-0.008,0.023-0.068,0.14-0.133,0.304c-0.071,0.187-0.247,0.312-0.447,0.319c-0.188,0.004-0.384-0.105-0.47-0.285
			c-1.034-2.17-2.347-4.346-3.899-6.467c-1.079-1.473-2.553-3.343-4.389-4.74c-1.792-1.357-4.51-3.005-6.883-2.698
			c-0.521,0.067-0.877,0.263-1.09,0.597c-0.673,1.052,0.04,3.332,0.512,4.84c0.165,0.527,0.308,0.984,0.379,1.333
			c0.285,1.409,0.407,2.829,0.407,4.748c0.004,0.765,0.008,1.515,0.213,2.167c0.334,1.041,1.033,1.725,2.136,2.088
			c0.206,0.067,0.345,0.26,0.344,0.477s-0.141,0.408-0.347,0.475c-0.891,0.286-1.395,0.63-1.587,1.08
			c-0.135,0.313-0.093,0.701-0.049,1.113l0.024,0.234c0.03,0.326,0.045,0.654,0.059,0.982c0.021,0.48,0.041,0.934,0.111,1.381
			c0.154,0.973,0.62,1.813,1.113,2.703c0.267,0.482,0.543,0.981,0.773,1.512c0.282,0.655,0.399,1.354,0.514,2.031
			c0.133,0.791,0.259,1.538,0.628,2.146c0.483,0.8,1.804,0.861,2.196,0.861c0.211,0,0.413-0.015,0.597-0.04
			c1.21-0.17,2.486-0.813,3.688-1.859c1.928-1.686,3.386-4.129,4.105-6.877c0.056-0.214,0.244-0.365,0.465-0.373
			c0.236-0.012,0.42,0.129,0.491,0.336c0.171,0.498,0.594,0.912,1.004,0.985c0.014,0.003,0.027,0.005,0.04,0.009
			c0.001,0,0.002,0,0.003-0.001c0.418-0.071,0.844-0.484,1.013-0.983C94.414,62.91,94.605,62.773,94.819,62.773z"/>
	</g>
	<g>
		<path fill="#2E3B49" d="M61.549,19.264c-2.067-0.27-4.41,1.113-5.988,2.313c-1.45,1.103-2.646,2.541-3.713,4.003
			c-1.233,1.684-2.365,3.524-3.27,5.414c-0.049-0.153-0.192-0.263-0.213-0.411c0.031,0.17-0.245-0.219-0.245-0.219
			c-0.11-0.063-0.236-0.103-0.38-0.11c-0.006-0.005-0.009-0.007-0.009-0.007c-0.194-0.012-0.358,0.03-0.492,0.111l-0.244,0.219
			c-0.094,0.121-0.165,0.262-0.218,0.412c-0.901-1.89-2.035-3.729-3.267-5.414c-1.071-1.462-2.263-2.901-3.714-4.004
			c-1.576-1.199-3.923-2.581-5.991-2.311c-2.831,0.367-0.806,4.656-0.517,6.089c0.264,1.292,0.328,2.53,0.328,3.842
			c0.004,0.633,0.004,1.307,0.197,1.919c0.339,1.065,1.064,1.675,2.03,1.989c-0.637,0.206-1.31,0.522-1.569,1.13
			c-0.178,0.414-0.088,0.881-0.051,1.31c0.061,0.658,0.042,1.33,0.145,1.984c0.216,1.336,1.063,2.366,1.588,3.583
			c0.479,1.112,0.346,2.478,0.971,3.506c0.514,0.844,1.846,0.995,2.722,0.874c1.219-0.173,2.341-0.831,3.261-1.635
			c1.737-1.519,2.939-3.666,3.525-5.895c0.182,0.526,0.63,0.991,1.148,1.087c0.01,0.015,0.025,0.025,0.049,0.025
			c0.023-0.004,0.045-0.008,0.071-0.011c0.004,0.003,0.016,0.003,0.022,0.003c0.014,0,0.027-0.003,0.036-0.01
			c0.524-0.09,0.977-0.561,1.158-1.09c0.585,2.229,1.791,4.377,3.525,5.891c0.923,0.807,2.04,1.468,3.264,1.639
			c0.873,0.12,2.206-0.033,2.718-0.875c0.629-1.028,0.495-2.392,0.971-3.502c0.526-1.221,1.373-2.251,1.588-3.588
			c0.104-0.65,0.084-1.323,0.146-1.98c0.04-0.43,0.127-0.898-0.049-1.312c-0.264-0.609-0.936-0.924-1.57-1.129
			c0.965-0.315,1.688-0.929,2.029-1.992c0.192-0.607,0.192-1.286,0.196-1.918c0.001-1.308,0.065-2.55,0.33-3.845
			C62.36,23.921,64.385,19.631,61.549,19.264z"/>
		<path fill="#2E3B49" d="M56.254,46.026L56.254,46.026c-0.216,0-0.424-0.015-0.612-0.041c-1.195-0.167-2.381-0.759-3.524-1.757
			c-1.488-1.3-2.664-3.096-3.373-5.133c-0.257,0.227-0.559,0.385-0.872,0.443c-0.055,0.016-0.113,0.021-0.16,0.021
			c-0.031,0.004-0.068,0.008-0.079,0.008c-0.068,0-0.143-0.018-0.214-0.049c-0.289-0.068-0.567-0.221-0.807-0.431
			c-0.709,2.039-1.885,3.837-3.373,5.138c-1.121,0.98-2.338,1.586-3.52,1.754c-0.192,0.026-0.402,0.041-0.62,0.041
			c-0.571,0-1.967-0.111-2.599-1.15c-0.396-0.652-0.521-1.387-0.64-2.097c-0.09-0.53-0.174-1.03-0.363-1.472
			c-0.176-0.406-0.39-0.791-0.602-1.174c-0.426-0.771-0.866-1.568-1.021-2.527c-0.067-0.425-0.086-0.848-0.104-1.256
			c-0.012-0.255-0.022-0.51-0.046-0.762l-0.02-0.198c-0.043-0.415-0.093-0.886,0.109-1.354c0.181-0.424,0.498-0.727,0.85-0.95
			c-0.636-0.433-1.08-1.042-1.328-1.82c-0.212-0.673-0.217-1.392-0.221-2.027c0-1.573-0.095-2.692-0.318-3.784
			c-0.052-0.26-0.164-0.613-0.291-1.021c-0.467-1.491-1.105-3.533-0.32-4.759c0.326-0.51,0.849-0.814,1.554-0.906
			c2.254-0.295,4.75,1.184,6.358,2.408c1.61,1.225,2.885,2.838,3.814,4.107c1.146,1.566,2.134,3.16,2.946,4.748l0.045-0.043
			c0.278-0.178,0.51-0.24,0.763-0.24c0.033,0,0.074,0.004,0.117,0.011c0.21,0.014,0.406,0.073,0.584,0.175
			c0.048,0.027,0.091,0.063,0.127,0.104c0.818-1.6,1.809-3.193,2.948-4.75c0.919-1.26,2.185-2.866,3.813-4.105
			c1.611-1.225,4.104-2.705,6.355-2.41c0.707,0.092,1.23,0.396,1.558,0.908c0.786,1.229,0.146,3.271-0.322,4.764
			c-0.126,0.404-0.237,0.755-0.289,1.01c-0.281,1.373-0.319,2.664-0.32,3.746c-0.004,0.68-0.009,1.401-0.22,2.068
			c-0.251,0.779-0.695,1.389-1.329,1.822c0.352,0.223,0.669,0.525,0.853,0.949c0.203,0.477,0.151,0.955,0.106,1.377l-0.019,0.18
			c-0.024,0.255-0.036,0.512-0.047,0.77c-0.019,0.405-0.037,0.824-0.104,1.242c-0.154,0.961-0.595,1.758-1.021,2.529
			c-0.221,0.4-0.43,0.777-0.603,1.178c-0.187,0.437-0.271,0.934-0.358,1.46c-0.12,0.713-0.244,1.45-0.645,2.105
			C58.224,45.914,56.825,46.026,56.254,46.026z M48.921,37.461c0.006,0,0.013,0,0.019,0c0.22,0.008,0.409,0.16,0.465,0.373
			c0.593,2.258,1.79,4.262,3.371,5.641c0.98,0.857,2.019,1.383,3.004,1.521c0.707,0.099,1.844-0.017,2.221-0.64
			c0.301-0.491,0.403-1.104,0.513-1.751c0.095-0.562,0.191-1.142,0.426-1.688c0.193-0.446,0.423-0.863,0.646-1.267
			c0.402-0.729,0.782-1.416,0.908-2.203c0.058-0.362,0.074-0.735,0.093-1.13c0.012-0.273,0.024-0.547,0.05-0.818l0.02-0.192
			c0.036-0.33,0.069-0.642-0.03-0.876c-0.151-0.35-0.553-0.619-1.264-0.85c-0.206-0.066-0.347-0.258-0.347-0.475
			s0.139-0.408,0.345-0.477c0.894-0.291,1.437-0.822,1.709-1.67c0.164-0.52,0.168-1.134,0.172-1.727
			c0.001-1.17,0.042-2.523,0.34-3.982c0.058-0.28,0.177-0.666,0.315-1.109c0.386-1.23,0.969-3.09,0.434-3.926
			c-0.162-0.254-0.438-0.402-0.844-0.455c-1.945-0.25-4.155,1.102-5.621,2.215c-1.526,1.16-2.731,2.693-3.611,3.898
			c-1.281,1.749-2.365,3.544-3.223,5.336c-0.089,0.186-0.278,0.293-0.485,0.283c-0.205-0.014-0.38-0.152-0.442-0.348
			c-0.037-0.053-0.073-0.105-0.105-0.158c-0.071-0.061-0.137-0.137-0.201-0.221c-0.025-0.008-0.053-0.012-0.082-0.014
			c-0.019-0.001-0.038-0.003-0.057-0.006c-0.074,0.002-0.12,0.016-0.158,0.039l-0.169,0.164c0.006,0.006-0.042,0.097-0.08,0.205
			c-0.066,0.19-0.242,0.322-0.444,0.334c-0.226,0.012-0.393-0.103-0.479-0.285c-0.848-1.777-1.931-3.572-3.219-5.334
			c-0.89-1.214-2.104-2.755-3.613-3.9c-1.192-0.908-3.589-2.482-5.624-2.213c-0.404,0.053-0.679,0.2-0.84,0.453
			c-0.534,0.833,0.047,2.691,0.432,3.922c0.14,0.447,0.26,0.836,0.317,1.119c0.298,1.459,0.338,2.811,0.338,3.94
			c0.004,0.629,0.008,1.241,0.174,1.769c0.269,0.843,0.812,1.372,1.709,1.664c0.205,0.067,0.345,0.26,0.345,0.477
			s-0.14,0.408-0.346,0.475c-0.713,0.23-1.114,0.501-1.264,0.852c-0.099,0.229-0.067,0.533-0.033,0.855l0.021,0.214
			c0.024,0.265,0.037,0.536,0.049,0.806c0.018,0.399,0.034,0.776,0.092,1.145c0.127,0.784,0.507,1.472,0.909,2.199
			c0.222,0.402,0.452,0.818,0.644,1.263c0.238,0.552,0.336,1.136,0.432,1.701c0.108,0.646,0.211,1.255,0.508,1.743
			c0.38,0.623,1.512,0.736,2.226,0.639c1.248-0.178,2.32-0.922,3-1.516c1.58-1.381,2.776-3.387,3.371-5.646
			c0.056-0.214,0.244-0.364,0.465-0.372c0.224-0.021,0.421,0.129,0.491,0.336c0.132,0.382,0.454,0.701,0.767,0.758
			c0.006,0.002,0.013,0.003,0.019,0.004c0.309-0.061,0.624-0.376,0.755-0.756C48.518,37.596,48.708,37.461,48.921,37.461z"/>
	</g>
	<path fill="#6A849B" d="M23.688,99.854c-0.93,0-1.808-0.301-2.541-0.883c-2.623-2.084-2.742-6.871-2.728-15.151
		c0.002-1.015,0.004-2.039-0.003-3.052c-0.021-3.097-0.396-6.094-0.697-8.503c-0.226-1.81-0.39-3.116-0.352-4.048
		c0.056-1.381,1.249-2.451,2.6-2.396c1.38,0.057,2.453,1.221,2.396,2.6c-0.021,0.519,0.15,1.895,0.317,3.225
		c0.301,2.404,0.713,5.699,0.735,9.089c0.007,1.027,0.005,2.167,0.003,3.196C23.413,87.675,23.403,93,24.143,95
		c0.004,0,0.008,0,0.012,0c1.138,0,2.169,0.678,2.438,1.832c0.312,1.343-0.518,2.634-1.859,2.949
		C24.38,99.863,24.03,99.854,23.688,99.854z"/>
</g>
</svg>
