<?xml version="1.0" encoding="utf-8"?>
<!-- Generator: Adobe Illustrator 16.0.0, SVG Export Plug-In . SVG Version: 6.00 Build 0)  -->
<!DOCTYPE svg PUBLIC "-//W3C//DTD SVG 1.1//EN" "http://www.w3.org/Graphics/SVG/1.1/DTD/svg11.dtd">
<svg version="1.1" id="Layer_1" xmlns="http://www.w3.org/2000/svg" xmlns:xlink="http://www.w3.org/1999/xlink" x="0px" y="0px"
	 width="120px" height="120px" viewBox="0 0 120 120" enable-background="new 0 0 120 120" xml:space="preserve">
<g>
	<g>
		<g>
			<path fill="#FFFFFF" d="M90.088,26.161c0.065-3.204-0.049-5.231-0.049-5.231l-31.31-0.018h-0.33L27.092,20.93
				c0,0-0.114,2.027-0.05,5.231H6.297v3.433c0,0.774,0.132,19.192,11.504,29.281c4.737,4.208,10.646,6.317,17.626,6.317
				c1.057,0,2.146-0.064,3.235-0.146c3.961,5.411,8.534,9.225,13.681,11.107v15.035H37.241v9.408h-5.002v5.263h52.652v-5.263h-5
				v-9.408H64.787V76.154c5.133-1.883,9.723-5.696,13.685-11.107c1.104,0.081,2.176,0.146,3.231,0.146
				c6.979,0,12.892-2.109,17.626-6.317c11.373-10.089,11.504-28.507,11.504-29.281v-3.433H90.088z M22.356,53.774
				c-6.49-5.744-8.417-15.583-8.979-20.765h14.061c0.596,6.45,1.983,14.508,5.218,21.573c0.593,1.303,1.219,2.538,1.847,3.746
				C29.668,58.132,25.59,56.628,22.356,53.774L22.356,53.774z M94.775,53.774c-3.232,2.854-7.313,4.357-12.146,4.555
				c0.64-1.208,1.252-2.443,1.848-3.746c3.235-7.065,4.636-15.123,5.215-21.573h14.06C103.19,38.191,101.263,48.03,94.775,53.774
				L94.775,53.774z M94.775,53.774"/>
			<path fill="#2E3B49" d="M84.892,106.86H32.239c-0.553,0-1-0.447-1-1v-5.263c0-0.553,0.447-1,1-1h4.002v-8.408
				c0-0.553,0.447-1,1-1h14.102V76.842c-4.825-1.931-9.246-5.546-13.157-10.758c-0.855,0.058-1.809,0.108-2.759,0.108
				c-7.229,0-13.383-2.21-18.29-6.569C5.432,49.238,5.297,30.391,5.297,29.594v-3.433c0-0.553,0.447-1,1-1h19.729
				c-0.025-2.608,0.063-4.213,0.067-4.288c0.029-0.529,0.467-0.943,0.997-0.943l31.639-0.018L90.04,19.93
				c0.53,0,0.968,0.414,0.997,0.943c0.005,0.075,0.093,1.68,0.066,4.288h19.729c0.553,0,1,0.447,1,1v3.433
				c0,0.797-0.135,19.646-11.84,30.029c-4.904,4.359-11.059,6.569-18.29,6.569c-0.935,0-1.867-0.049-2.755-0.109
				c-3.907,5.206-8.33,8.821-13.161,10.759v13.348h14.104c0.553,0,1,0.447,1,1v8.408h4c0.553,0,1,0.447,1,1v5.263
				C85.892,106.413,85.444,106.86,84.892,106.86z M33.239,104.86h50.652v-3.263h-4c-0.553,0-1-0.447-1-1v-8.408H64.787
				c-0.553,0-1-0.447-1-1V76.154c0-0.42,0.262-0.794,0.655-0.938c4.849-1.779,9.297-5.398,13.223-10.76
				c0.204-0.277,0.541-0.428,0.88-0.406c1.011,0.074,2.093,0.143,3.158,0.143c6.728,0,12.434-2.04,16.962-6.064
				c11.041-9.795,11.168-27.773,11.168-28.534v-2.433H90.088c-0.269,0-0.526-0.108-0.714-0.3c-0.188-0.192-0.291-0.452-0.286-0.721
				c0.038-1.859,0.015-3.325-0.011-4.212l-30.678-0.017l-30.346,0.017c-0.025,0.887-0.05,2.353-0.012,4.212
				c0.005,0.27-0.098,0.528-0.286,0.721c-0.188,0.191-0.445,0.3-0.714,0.3H7.297v2.433c0,0.761,0.127,18.738,11.168,28.533
				c4.53,4.024,10.237,6.065,16.962,6.065c1.095,0,2.212-0.072,3.161-0.143c0.353-0.021,0.678,0.129,0.881,0.406
				c3.93,5.368,8.377,8.988,13.218,10.759c0.395,0.145,0.656,0.52,0.656,0.939v15.035c0,0.553-0.447,1-1,1H38.241v8.408
				c0,0.553-0.447,1-1,1h-4.002V104.86z M82.63,59.329c-0.343,0-0.662-0.176-0.846-0.467c-0.191-0.303-0.206-0.685-0.038-1.001
				c0.655-1.237,1.251-2.446,1.822-3.694c2.621-5.724,4.394-13.07,5.128-21.247c0.046-0.516,0.479-0.91,0.996-0.91h14.06
				c0.284,0,0.555,0.121,0.744,0.332s0.28,0.493,0.25,0.775c-0.589,5.438-2.582,15.451-9.308,21.406
				c-3.377,2.98-7.672,4.597-12.768,4.805C82.657,59.329,82.644,59.329,82.63,59.329z M90.603,34.01
				c-0.808,8.135-2.562,15.193-5.216,20.989c-0.339,0.741-0.687,1.469-1.049,2.195c3.86-0.446,7.143-1.845,9.775-4.17
				c5.798-5.133,7.813-13.703,8.512-19.015H90.603z M34.502,59.329c-0.014,0-0.027,0-0.041-0.001
				c-5.095-0.208-9.39-1.824-12.767-4.804c-6.727-5.954-8.721-15.968-9.312-21.406c-0.03-0.283,0.061-0.564,0.25-0.776
				c0.189-0.211,0.46-0.332,0.744-0.332h14.061c0.517,0,0.948,0.394,0.996,0.908c0.771,8.346,2.497,15.495,5.131,21.249
				c0.614,1.349,1.267,2.628,1.825,3.701c0.164,0.316,0.147,0.696-0.044,0.997C35.162,59.155,34.843,59.329,34.502,59.329z
				 M14.504,34.01c0.7,5.313,2.717,13.884,8.516,19.016c2.634,2.325,5.918,3.724,9.779,4.17c-0.348-0.693-0.706-1.434-1.054-2.198
				c-2.63-5.746-4.384-12.804-5.216-20.987H14.504z"/>
		</g>
	</g>
	<g>
		<g>
			<path fill="#6A849B" d="M37.241,100.678h-5.002v5.263h52.652v-5.263h-5H37.241z"/>
			<path fill="#2E3B49" d="M84.892,106.94H32.239c-0.553,0-1-0.447-1-1v-5.263c0-0.553,0.447-1,1-1h52.652c0.553,0,1,0.447,1,1
				v5.263C85.892,106.493,85.444,106.94,84.892,106.94z M33.239,104.94h50.652v-3.263H33.239V104.94z"/>
		</g>
	</g>
	<g>
		<g>
			<path fill="#6A849B" d="M78.501,65.097c1.107,0.081,2.176,0.147,3.233,0.147c6.979,0,12.892-2.111,17.626-6.32
				c11.371-10.086,11.504-28.506,11.504-29.28v-3.432H90.118l-0.396,6.847h14.064c-0.563,5.184-2.49,15.022-8.979,20.764l0,0
				c-3.234,2.856-7.315,4.359-12.147,4.558L78.501,65.097z M82.66,58.38 M94.808,53.822"/>
			<path fill="#2E3B49" d="M81.734,66.244c-1.042,0-2.075-0.06-3.307-0.15c-0.349-0.025-0.658-0.231-0.817-0.543
				s-0.144-0.684,0.04-0.98l4.159-6.717c0.175-0.282,0.479-0.459,0.81-0.473c4.627-0.19,8.505-1.64,11.526-4.309
				c5.796-5.127,7.813-13.699,8.514-19.014H89.723c-0.275,0-0.538-0.113-0.728-0.313c-0.188-0.2-0.287-0.47-0.271-0.744l0.396-6.847
				c0.03-0.529,0.468-0.942,0.998-0.942h20.746c0.553,0,1,0.447,1,1v3.432c0,0.797-0.135,19.646-11.841,30.028
				C95.119,64.032,88.965,66.244,81.734,66.244z M80.229,64.204c0.52,0.025,1.014,0.04,1.505,0.04
				c6.727,0,12.433-2.041,16.962-6.067c11.041-9.794,11.168-27.772,11.168-28.533v-2.432H91.063l-0.28,4.847h13.005
				c0.284,0,0.555,0.121,0.744,0.332c0.189,0.212,0.28,0.494,0.25,0.776c-0.592,5.44-2.588,15.456-9.311,21.404
				c-3.258,2.877-7.372,4.483-12.236,4.78L80.229,64.204z"/>
		</g>
	</g>
	<g>
		<g>
			<path fill="#6A849B" d="M34.474,58.38c-4.832-0.198-8.913-1.701-12.146-4.558l0,0c-6.487-5.741-8.415-15.58-8.977-20.764h14.063
				l-0.397-6.847H6.271v3.432c0,0.774,0.131,19.194,11.504,29.28c4.736,4.209,10.646,6.32,17.625,6.32
				c1.057,0,2.128-0.066,3.234-0.147L34.474,58.38z M34.474,58.38 M22.328,53.822"/>
			<path fill="#2E3B49" d="M35.4,66.244c-7.229,0-13.382-2.211-18.289-6.573C5.406,49.291,5.271,30.44,5.271,29.644v-3.432
				c0-0.553,0.447-1,1-1h20.745c0.529,0,0.968,0.413,0.998,0.942l0.386,6.647c0.022,0.082,0.033,0.168,0.033,0.257
				c0,0.553-0.447,1-1,1c-0.004,0.001-0.012,0.001-0.02,0H14.479c0.699,5.313,2.714,13.883,8.513,19.015
				c3.019,2.668,6.896,4.117,11.523,4.308c0.331,0.014,0.635,0.19,0.809,0.473l4.161,6.717c0.185,0.297,0.2,0.669,0.041,0.98
				c-0.158,0.312-0.469,0.518-0.817,0.543C37.478,66.185,36.444,66.244,35.4,66.244z M7.271,27.212v2.432
				c0,0.761,0.127,18.741,11.167,28.532c4.532,4.026,10.238,6.068,16.962,6.068c0.492,0,0.986-0.015,1.505-0.04l-3.006-4.853
				c-4.865-0.297-8.979-1.903-12.233-4.78c-6.727-5.953-8.72-15.966-9.309-21.405c-0.03-0.282,0.061-0.564,0.25-0.775
				s0.46-0.332,0.744-0.332h13.003l-0.281-4.847H7.271z"/>
		</g>
	</g>
	<path fill="#6A849B" d="M64.505,70.389c-0.826,0-1.635-0.409-2.111-1.158c-0.741-1.164-0.397-2.71,0.768-3.451
		c0.123-0.079,12.719-8.282,15.92-22.031c0.313-1.344,1.651-2.186,3.002-1.867c1.345,0.313,2.181,1.657,1.867,3.002
		C80.277,60.66,66.433,69.624,65.845,69.998C65.429,70.263,64.965,70.389,64.505,70.389z"/>
	<g>
		<path fill="#2E3B49" d="M33.202,37.207c1.106-0.162,2.081-0.554,2.922-1.174h1.971v14.456h-2.612V39.155
			c-0.753,0.369-1.513,0.553-2.28,0.553V37.207z"/>
		<path fill="#2E3B49" d="M47.171,35.834c0.886,0,1.693,0.152,2.424,0.454c0.73,0.303,1.354,0.764,1.871,1.384
			c1.121,1.313,1.683,3.195,1.683,5.645c0,2.45-0.562,4.332-1.683,5.646c-1.033,1.225-2.457,1.837-4.272,1.837
			c-1.83,0-3.27-0.612-4.316-1.837c-1.107-1.284-1.661-3.166-1.661-5.646c0-2.479,0.554-4.36,1.661-5.645
			C43.924,36.447,45.355,35.834,47.171,35.834z M49.595,39.521c-0.568-0.878-1.372-1.317-2.412-1.317
			c-1.041,0-1.846,0.439-2.413,1.317c-0.568,0.878-0.853,2.144-0.853,3.796c0,1.653,0.284,2.911,0.853,3.774
			c0.567,0.863,1.372,1.295,2.413,1.295c1.04,0,1.844-0.432,2.412-1.295s0.853-2.121,0.853-3.774
			C50.447,41.664,50.163,40.398,49.595,39.521z"/>
		<path fill="#2E3B49" d="M61.184,35.834c0.886,0,1.693,0.152,2.424,0.454c0.73,0.303,1.354,0.764,1.871,1.384
			c1.121,1.313,1.683,3.195,1.683,5.645c0,2.45-0.562,4.332-1.683,5.646c-1.033,1.225-2.457,1.837-4.272,1.837
			c-1.83,0-3.27-0.612-4.316-1.837c-1.107-1.284-1.661-3.166-1.661-5.646c0-2.479,0.554-4.36,1.661-5.645
			C57.937,36.447,59.368,35.834,61.184,35.834z M63.607,39.521c-0.568-0.878-1.372-1.317-2.412-1.317
			c-1.041,0-1.846,0.439-2.413,1.317c-0.568,0.878-0.853,2.144-0.853,3.796c0,1.653,0.284,2.911,0.853,3.774
			c0.567,0.863,1.372,1.295,2.413,1.295c1.04,0,1.844-0.432,2.412-1.295s0.853-2.121,0.853-3.774
			C64.46,41.664,64.176,40.398,63.607,39.521z"/>
		<path fill="#2E3B49" d="M72.584,35.834c0.398,0,0.782,0.07,1.151,0.211s0.693,0.351,0.975,0.631
			c0.604,0.575,0.907,1.409,0.907,2.501c0,1.078-0.303,1.919-0.907,2.524c-0.562,0.561-1.277,0.841-2.147,0.841
			c-0.842,0-1.543-0.28-2.104-0.841c-0.605-0.605-0.907-1.446-0.907-2.524c0-1.092,0.302-1.926,0.907-2.501
			C71.035,36.115,71.743,35.834,72.584,35.834z M80.288,36.122h2.635l-9.719,14.367h-2.656L80.288,36.122z M73.646,39.177
			c0-1.121-0.361-1.682-1.084-1.682c-0.709,0-1.063,0.561-1.063,1.682c0,1.137,0.354,1.705,1.063,1.705
			C73.285,40.882,73.646,40.313,73.646,39.177z M80.886,44.069c0.841,0,1.55,0.28,2.125,0.842c0.605,0.575,0.908,1.409,0.908,2.501
			c0,1.093-0.303,1.94-0.908,2.546c-0.561,0.561-1.27,0.841-2.125,0.841c-0.856,0-1.564-0.28-2.125-0.841
			c-0.605-0.605-0.908-1.453-0.908-2.546c0-1.092,0.303-1.926,0.908-2.501C79.336,44.35,80.045,44.069,80.886,44.069z
			 M80.886,45.729c-0.708,0-1.063,0.564-1.063,1.693c0,1.13,0.354,1.694,1.063,1.694c0.31,0,0.568-0.13,0.774-0.388
			c0.207-0.258,0.311-0.693,0.311-1.307c0-0.612-0.104-1.047-0.311-1.306C81.454,45.859,81.195,45.729,80.886,45.729z"/>
	</g>
</g>
</svg>
