<?xml version="1.0" encoding="utf-8"?>
<!-- Generator: Adobe Illustrator 16.0.0, SVG Export Plug-In . SVG Version: 6.00 Build 0)  -->
<!DOCTYPE svg PUBLIC "-//W3C//DTD SVG 1.1//EN" "http://www.w3.org/Graphics/SVG/1.1/DTD/svg11.dtd">
<svg version="1.1" id="Layer_1" xmlns="http://www.w3.org/2000/svg" xmlns:xlink="http://www.w3.org/1999/xlink" x="0px" y="0px"
	 width="120px" height="120px" viewBox="0 0 120 120" enable-background="new 0 0 120 120" xml:space="preserve">
<g>
	<path fill="#2E3B49" d="M90.799,78.645c-2.398,3.251-6.33,5.382-10.793,5.382c-4.256,0-8.034-1.937-10.455-4.935
		c-2.418,2.998-6.196,4.935-10.453,4.935c-4.066,0-7.692-1.771-10.117-4.543c-2.426,2.772-6.051,4.543-10.117,4.543
		c-4.257,0-8.035-1.937-10.455-4.935c-2.128,2.638-5.311,4.453-8.944,4.851C29.083,94.979,43.529,102,59.687,102
		c16.167,0,30.62-7.03,40.24-18.074C96.158,83.469,92.891,81.485,90.799,78.645z"/>
	<path fill="#6A849B" d="M90.799,61.156c-2.398,3.251-6.33,5.381-10.793,5.381c-4.256,0-8.034-1.935-10.455-4.936
		c-2.418,3.001-6.196,4.936-10.453,4.936c-4.066,0-7.692-1.77-10.117-4.54c-2.426,2.771-6.051,4.54-10.117,4.54
		c-4.257,0-8.035-1.935-10.455-4.936c-2.418,3.001-6.199,4.936-10.453,4.936c-3.688,0-7.017-1.456-9.414-3.795
		c1.861,7.939,5.665,15.169,10.923,21.2c3.634-0.397,6.816-2.213,8.944-4.851c2.42,2.998,6.198,4.935,10.455,4.935
		c4.066,0,7.691-1.771,10.117-4.543c2.425,2.772,6.051,4.543,10.117,4.543c4.257,0,8.035-1.937,10.453-4.935
		c2.421,2.998,6.199,4.935,10.455,4.935c4.463,0,8.395-2.131,10.793-5.382c2.092,2.841,5.359,4.824,9.128,5.281
		c5.203-5.975,8.981-13.127,10.857-20.977c-2.38,2.217-5.616,3.588-9.194,3.588C97.127,66.537,93.195,64.407,90.799,61.156z"/>
	<path fill="#FFFFFF" d="M101.59,49.696c-4.463,0-8.395-2.13-10.791-5.38c-2.398,3.25-6.33,5.38-10.793,5.38
		c-4.256,0-8.034-1.934-10.455-4.935c-2.418,3.001-6.196,4.935-10.453,4.935c-4.066,0-7.692-1.77-10.117-4.542
		c-2.426,2.772-6.051,4.542-10.117,4.542c-4.257,0-8.035-1.934-10.455-4.935c-2.418,3.001-6.199,4.935-10.453,4.935
		c-4.137,0-7.817-1.831-10.242-4.687c-0.297,2.172-0.466,4.382-0.466,6.63c0,3.816,0.457,7.529,1.294,11.103
		c2.397,2.339,5.726,3.795,9.414,3.795c4.254,0,8.035-1.935,10.453-4.936c2.42,3.001,6.198,4.936,10.455,4.936
		c4.066,0,7.691-1.77,10.117-4.54c2.425,2.771,6.051,4.54,10.117,4.54c4.257,0,8.035-1.935,10.453-4.936
		c2.421,3.001,6.199,4.936,10.455,4.936c4.463,0,8.395-2.13,10.793-5.381c2.396,3.251,6.328,5.381,10.791,5.381
		c3.578,0,6.814-1.371,9.194-3.588c0.87-3.638,1.344-7.419,1.344-11.31c0-2.189-0.162-4.341-0.444-6.458
		C109.258,47.939,105.644,49.696,101.59,49.696z"/>
	<path fill="#2E3B49" d="M59.687,103C30.22,103,6.247,79.96,6.247,51.64c0-2.265,0.155-4.547,0.461-6.783
		c0.055-0.398,0.344-0.726,0.732-0.83c0.384-0.104,0.802,0.034,1.049,0.353c2.324,2.738,5.78,4.317,9.466,4.317
		c3.813,0,7.339-1.663,9.675-4.562c0.379-0.471,1.178-0.472,1.557-0.001c2.338,2.899,5.865,4.563,9.677,4.563
		c3.615,0,7.029-1.531,9.364-4.2c0.19-0.217,0.465-0.342,0.753-0.342l0,0c0.288,0,0.563,0.125,0.753,0.342
		c2.334,2.67,5.748,4.2,9.364,4.2c3.813,0,7.339-1.663,9.675-4.562c0.378-0.471,1.177-0.473,1.557-0.001
		c2.339,2.899,5.866,4.563,9.677,4.563c3.956,0,7.69-1.859,9.988-4.974c0.188-0.256,0.487-0.406,0.805-0.406l0,0
		c0.317,0,0.616,0.15,0.805,0.406c2.297,3.114,6.029,4.974,9.986,4.974c3.604,0,7.009-1.522,9.343-4.175
		c0.26-0.294,0.666-0.408,1.041-0.297c0.375,0.113,0.649,0.436,0.701,0.824c0.305,2.28,0.453,4.436,0.453,6.591
		C113.128,79.96,89.154,103,59.687,103z M8.454,47.178c-0.138,1.482-0.207,2.977-0.207,4.462c0,27.218,23.075,49.36,51.439,49.36
		c28.365,0,51.441-22.143,51.441-49.36c0-1.425-0.067-2.851-0.206-4.318c-2.574,2.165-5.876,3.375-9.332,3.375
		c-4.153,0-8.099-1.772-10.791-4.795c-2.694,3.022-6.641,4.795-10.793,4.795c-4.015,0-7.763-1.597-10.455-4.419
		c-2.689,2.822-6.437,4.419-10.453,4.419c-3.821,0-7.449-1.478-10.117-4.088c-2.669,2.61-6.297,4.088-10.117,4.088
		c-4.016,0-7.764-1.597-10.455-4.419c-2.689,2.822-6.437,4.419-10.453,4.419C14.412,50.696,11.05,49.434,8.454,47.178z"/>
</g>
<g>
	<g>
		<g>
			<path fill="#2E3B49" d="M91.497,51.357c0.856-2.821-0.738-5.803-3.558-6.658c-2.821-0.856-5.802,0.735-6.657,3.557
				c-0.856,2.819,0.734,5.801,3.559,6.656C87.659,55.77,90.641,54.179,91.497,51.357z"/>
			<path fill="#2E3B49" d="M86.395,55.645L86.395,55.645c-0.574,0-1.146-0.086-1.699-0.254c-1.493-0.452-2.72-1.459-3.455-2.834
				c-0.734-1.375-0.89-2.954-0.437-4.446c0.752-2.478,2.995-4.143,5.583-4.143c0.573,0,1.145,0.085,1.698,0.253
				c1.491,0.453,2.718,1.459,3.453,2.835s0.891,2.955,0.438,4.446C91.224,53.98,88.98,55.645,86.395,55.645z M86.387,44.968
				c-2.145,0-4.003,1.38-4.626,3.433c-0.376,1.236-0.247,2.545,0.361,3.685c0.609,1.14,1.626,1.974,2.863,2.349
				c0.46,0.14,0.934,0.211,1.409,0.211c2.143,0,4.001-1.379,4.624-3.432c0.375-1.237,0.246-2.546-0.363-3.686
				c-0.608-1.141-1.625-1.975-2.861-2.35C87.335,45.038,86.861,44.968,86.387,44.968z"/>
		</g>
		<g>
			<path fill="#2E3B49" d="M80.791,45.104c-1.129,1.685-3.537,2.05-5.382,0.818L59.832,35.495c-1.846-1.237-2.427-3.603-1.298-5.288
				l0,0c1.128-1.686,3.536-2.05,5.379-0.815l15.58,10.426C81.341,41.05,81.917,43.418,80.791,45.104L80.791,45.104z"/>
			<path fill="#2E3B49" d="M77.772,47.15c-0.931,0-1.844-0.281-2.641-0.813L59.554,35.91c-2.07-1.388-2.715-4.071-1.435-5.981
				c0.741-1.107,2.023-1.769,3.43-1.769c0.932,0,1.846,0.282,2.643,0.816l15.58,10.426c0.996,0.664,1.697,1.648,1.972,2.77
				c0.277,1.136,0.088,2.275-0.536,3.209C80.464,46.49,79.181,47.15,77.772,47.15z M61.549,29.16c-1.088,0-2.035,0.482-2.599,1.324
				c-0.974,1.453-0.452,3.514,1.16,4.596l15.577,10.426c0.631,0.422,1.353,0.645,2.085,0.645c1.09,0,2.038-0.482,2.604-1.325
				c0.466-0.697,0.606-1.556,0.396-2.415c-0.215-0.878-0.768-1.65-1.556-2.177L63.635,29.807
				C63.003,29.384,62.281,29.16,61.549,29.16z"/>
		</g>
		<g>
			<path fill="#2E3B49" d="M90.309,65.925c0.695-1.027,0.425-2.424-0.602-3.119l-9.801-6.627c-1.028-0.693-2.423-0.423-3.115,0.604
				l-0.229,0.337c-0.694,1.027-0.424,2.425,0.603,3.117l9.801,6.627c1.024,0.695,2.42,0.423,3.116-0.602L90.309,65.925z"/>
			<path fill="#2E3B49" d="M88.217,67.748L88.217,67.748c-0.548,0-1.078-0.162-1.533-0.471l-9.8-6.627
				c-0.606-0.409-1.018-1.031-1.157-1.752s0.01-1.451,0.421-2.059l0.23-0.339c0.813-1.207,2.59-1.556,3.808-0.737l9.802,6.628
				c1.254,0.85,1.584,2.56,0.735,3.813l-0.228,0.336C89.981,67.298,89.13,67.748,88.217,67.748z M78.651,56.295
				c-0.581,0-1.122,0.286-1.446,0.768l-0.23,0.338c-0.26,0.385-0.354,0.85-0.267,1.309c0.089,0.457,0.35,0.853,0.735,1.113
				l9.802,6.627c0.774,0.523,1.9,0.299,2.423-0.469l0.227-0.336c0.539-0.797,0.329-1.885-0.468-2.425l-9.801-6.627
				C79.337,56.398,79,56.295,78.651,56.295z"/>
		</g>
		<g>
			<path fill="#2E3B49" d="M53.412,39.644c3.564-1.827,4.549-2.167,8.92,0.628c5.42,3.751,13.797,7.165,14.636,9.55
				c0.841,2.388-1.956,5.517-3.15,7.573c-3.531,5.837-0.762,8.038,2.875,11.06c2.559,2.378-0.533,6.155-3.506,3.654
				c-2.179-1.851-7.057-5.637-6.698-9.444c0.547-4.381,2.668-5.834,2.706-7.598c0.039-1.767-1.608-2.596-1.608-2.596
				s-9.539-5.541-10.67-6.464c-1.287-0.853-2.4-1.313-4.641-0.343c-4.004,1.955-9.667,0.742-12.574-1.847
				c-2.91-2.589-5.278-6.868-8.604-7.383c-3.329-0.513-14.358,0.945-15.279-1.548c-0.508-1.754,0.66-6.762,2.276-7.408
				c1.618-0.648,14.776,4.513,16.449,5.269c1.326,0.547,2.731,1.655,5.761,4.661C46.392,43.453,53.412,39.644,53.412,39.644z"/>
			<path fill="#2E3B49" d="M75.203,73.432c-0.799,0-1.607-0.326-2.339-0.94l-0.488-0.412c-2.357-1.978-6.743-5.657-6.386-9.462
				c0.334-2.676,1.243-4.326,1.906-5.529c0.438-0.797,0.785-1.425,0.798-2.032c0.031-1.419-1.279-2.11-1.335-2.14
				c-0.415-0.24-9.611-5.584-10.76-6.521c-1.229-0.809-2.276-1.072-4.125-0.271c-1.342,0.655-2.977,1.007-4.707,1.007
				c-3.145,0-6.363-1.126-8.398-2.938c-0.962-0.855-1.865-1.891-2.739-2.892c-1.818-2.083-3.535-4.05-5.609-4.371
				c-0.505-0.077-1.243-0.114-2.322-0.114c-0.813,0-1.725,0.021-2.679,0.041c-1.053,0.023-2.156,0.049-3.233,0.049
				c-4.799,0-6.954-0.535-7.438-1.844c-0.523-1.803,0.563-7.248,2.56-8.047c0.154-0.061,0.346-0.092,0.587-0.092
				c2.912,0,14.931,4.771,16.254,5.369c1.413,0.583,2.907,1.786,5.907,4.762c2.188,2.174,4.74,3.275,7.586,3.275
				c2.813,0,4.911-1.113,4.932-1.125c1.802-0.923,2.983-1.48,4.279-1.48c1.327,0,2.723,0.576,5.148,2.127
				c2.087,1.444,4.568,2.814,6.968,4.139c4.074,2.248,7.292,4.023,7.87,5.667c0.74,2.103-0.917,4.56-2.248,6.533
				c-0.353,0.523-0.686,1.016-0.941,1.457c-3.273,5.411-0.921,7.365,2.641,10.323l0.121,0.101c1.06,0.983,1.398,2.276,0.927,3.476
				C77.488,72.69,76.415,73.432,75.203,73.432L75.203,73.432z M54.487,44.619c1.029,0,1.825,0.389,2.705,0.971
				c0.91,0.74,7.357,4.539,10.645,6.449c0.053,0.025,1.902,0.98,1.857,3.039c-0.019,0.853-0.438,1.612-0.922,2.492
				c-0.659,1.195-1.479,2.686-1.788,5.156c-0.308,3.267,3.817,6.728,6.034,8.586l0.491,0.415c0.547,0.46,1.134,0.704,1.693,0.704
				c0.798,0,1.506-0.492,1.805-1.253c0.32-0.813,0.081-1.674-0.656-2.358l-0.1-0.082c-3.529-2.932-6.577-5.463-2.862-11.603
				c0.262-0.451,0.606-0.962,0.973-1.507c1.206-1.788,2.707-4.014,2.134-5.642c-0.452-1.284-3.989-3.236-7.41-5.124
				c-2.421-1.336-4.925-2.719-7.038-4.181c-2.231-1.427-3.48-1.96-4.595-1.96c-1.093,0-2.161,0.52-3.813,1.365
				c-0.084,0.046-2.319,1.24-5.398,1.24l0,0c-3.119,0-5.908-1.199-8.291-3.564c-2.894-2.873-4.307-4.021-5.599-4.555
				c-1.583-0.715-13.275-5.287-15.857-5.287c-0.159,0-0.214,0.02-0.216,0.021c-1.255,0.502-2.448,5.194-1.981,6.805
				c0.28,0.756,2.467,1.156,6.488,1.156c1.069,0,2.166-0.025,3.212-0.048c0.962-0.021,1.881-0.042,2.7-0.042
				c1.132,0,1.918,0.04,2.475,0.126c2.435,0.377,4.354,2.575,6.211,4.702c0.854,0.977,1.735,1.988,2.649,2.801
				c1.833,1.633,4.869,2.687,7.734,2.687c1.579,0,3.063-0.316,4.288-0.915C52.985,44.812,53.774,44.619,54.487,44.619z"/>
		</g>
		<g>
			<path fill="#2E3B49" d="M31.078,13.503c0.506,0.658,8.471,8.366,10.32,9.889c1.848,1.519,2.959,4.767,4.299,7.022
				c2.214,3.941,4.59,4.77,9.849,6.295c-1.863,2.276-8.761,3.878-12.738-0.581c-1.657-1.854-2.821-5.211-4.625-9.345
				c-1.802-2.841-11.078-5.029-13.215-6.678C23.06,18.535,29.43,11.358,31.078,13.503z"/>
			<path fill="#2E3B49" d="M49.424,39.459c-2.783,0-5.265-1.064-6.989-2.998c-1.352-1.512-2.349-3.889-3.612-6.897
				c-0.344-0.817-0.705-1.681-1.098-2.58c-0.985-1.543-4.957-3.054-8.147-4.269c-2.166-0.824-4.036-1.535-4.915-2.213
				c-0.419-0.346-0.805-1.023-0.329-2.349c0.832-2.319,3.963-5.547,5.906-5.547c0.511,0,0.938,0.204,1.235,0.592
				c0.415,0.54,8.334,8.237,10.241,9.808c1.355,1.113,2.302,3.025,3.216,4.874c0.405,0.819,0.788,1.593,1.195,2.278
				c2.129,3.789,4.333,4.555,9.559,6.07l0.727,0.211l-0.479,0.586C54.761,38.458,52.084,39.459,49.424,39.459z M30.239,13.606
				c-1.382,0-4.212,2.784-4.965,4.884c-0.126,0.353-0.292,0.979,0.011,1.229c0.749,0.578,2.643,1.299,4.647,2.062
				c3.503,1.333,7.473,2.844,8.672,4.735c0.431,0.972,0.795,1.838,1.14,2.661c1.228,2.923,2.196,5.231,3.437,6.618
				c1.964,2.201,4.479,2.664,6.243,2.664c2.174,0,4.07-0.697,5.146-1.514c-4.793-1.414-7.122-2.395-9.309-6.287
				c-0.421-0.707-0.813-1.498-1.227-2.335c-0.867-1.754-1.765-3.567-2.954-4.546c-1.783-1.467-9.842-9.244-10.399-9.97
				C30.574,13.668,30.438,13.606,30.239,13.606z"/>
		</g>
	</g>
</g>
</svg>
