<?xml version="1.0" encoding="utf-8"?>
<!-- Generator: Adobe Illustrator 16.0.0, SVG Export Plug-In . SVG Version: 6.00 Build 0)  -->
<!DOCTYPE svg PUBLIC "-//W3C//DTD SVG 1.1//EN" "http://www.w3.org/Graphics/SVG/1.1/DTD/svg11.dtd">
<svg version="1.1" id="Layer_1" xmlns="http://www.w3.org/2000/svg" xmlns:xlink="http://www.w3.org/1999/xlink" x="0px" y="0px"
	 width="120px" height="120px" viewBox="0 0 120 120" enable-background="new 0 0 120 120" xml:space="preserve">
<g>
	<g>
		<g>
			<path fill="#FFFFFF" d="M90.246,26.161c0.066-3.204-0.051-5.231-0.051-5.231l-31.308-0.018h-0.331L27.25,20.93
				c0,0-0.115,2.027-0.051,5.231H6.455v3.433c0,0.774,0.131,19.192,11.506,29.281c4.736,4.208,10.643,6.317,17.622,6.317
				c1.058,0,2.147-0.064,3.237-0.146c3.961,5.411,8.533,9.225,13.681,11.107v15.035H37.4v9.408h-5.002v5.263h52.649v-5.263h-4.999
				v-9.408H64.945V76.154c5.133-1.883,9.724-5.696,13.685-11.107c1.104,0.081,2.175,0.146,3.231,0.146
				c6.98,0,12.89-2.109,17.625-6.317c11.374-10.089,11.503-28.507,11.503-29.281v-3.433H90.246z M22.512,53.774
				c-6.488-5.744-8.414-15.583-8.978-20.765h14.062c0.597,6.45,1.983,14.508,5.217,21.573c0.593,1.303,1.219,2.538,1.846,3.746
				C29.824,58.132,25.747,56.628,22.512,53.774L22.512,53.774z M94.932,53.774c-3.229,2.854-7.31,4.357-12.143,4.555
				c0.641-1.208,1.251-2.443,1.846-3.746c3.235-7.065,4.637-15.123,5.215-21.573h14.063C103.349,38.191,101.42,48.03,94.932,53.774
				L94.932,53.774z M94.932,53.774"/>
			<path fill="#2E3B49" d="M85.048,106.86H32.398c-0.553,0-1-0.447-1-1v-5.263c0-0.553,0.447-1,1-1H36.4v-8.408c0-0.553,0.447-1,1-1
				h14.101V76.842c-4.824-1.93-9.246-5.546-13.157-10.758c-0.855,0.058-1.809,0.108-2.761,0.108c-7.228,0-13.38-2.21-18.286-6.569
				C5.59,49.239,5.455,30.391,5.455,29.594v-3.433c0-0.553,0.447-1,1-1h19.729c-0.026-2.608,0.063-4.213,0.067-4.288
				c0.029-0.529,0.468-0.943,0.997-0.943l31.639-0.018l31.309,0.018c0.529,0,0.967,0.413,0.997,0.942
				c0.005,0.075,0.095,1.68,0.068,4.289h19.728c0.553,0,1,0.447,1,1v3.433c0,0.797-0.135,19.647-11.839,30.029
				c-4.905,4.359-11.059,6.569-18.289,6.569c-0.936,0-1.867-0.049-2.755-0.109c-3.905,5.206-8.329,8.821-13.161,10.759v13.348
				h14.104c0.553,0,1,0.447,1,1v8.408h3.999c0.553,0,1,0.447,1,1v5.263C86.048,106.413,85.601,106.86,85.048,106.86z M33.398,104.86
				h50.649v-3.263h-3.999c-0.553,0-1-0.447-1-1v-8.408H64.945c-0.553,0-1-0.447-1-1V76.154c0-0.42,0.262-0.794,0.655-0.938
				c4.851-1.779,9.299-5.399,13.223-10.76c0.204-0.277,0.541-0.428,0.88-0.406c1.01,0.074,2.092,0.143,3.158,0.143
				c6.726,0,12.432-2.04,16.961-6.064c11.04-9.793,11.167-27.773,11.167-28.534v-2.433H90.246c-0.269,0-0.526-0.108-0.715-0.3
				c-0.188-0.192-0.29-0.452-0.285-0.721c0.039-1.859,0.015-3.326-0.012-4.212l-30.678-0.017l-30.345,0.017
				c-0.026,0.886-0.051,2.353-0.013,4.212c0.005,0.27-0.098,0.528-0.286,0.721c-0.188,0.191-0.445,0.3-0.714,0.3H7.455v2.433
				c0,0.761,0.127,18.739,11.169,28.533c4.531,4.024,10.236,6.065,16.959,6.065c1.096,0,2.214-0.072,3.163-0.143
				c0.353-0.021,0.678,0.129,0.881,0.406c3.93,5.369,8.377,8.988,13.218,10.759c0.394,0.145,0.656,0.52,0.656,0.939v15.035
				c0,0.553-0.447,1-1,1H38.4v8.408c0,0.553-0.447,1-1,1h-4.002V104.86z M34.658,59.329c-0.014,0-0.027,0-0.041-0.001
				c-5.093-0.208-9.389-1.824-12.767-4.804c-6.723-5.951-8.719-15.967-9.311-21.406c-0.03-0.282,0.061-0.564,0.25-0.776
				c0.189-0.211,0.46-0.332,0.744-0.332h14.062c0.517,0,0.948,0.394,0.996,0.908c0.771,8.349,2.498,15.498,5.13,21.249
				c0.608,1.338,1.264,2.622,1.824,3.701c0.164,0.316,0.147,0.696-0.044,0.997C35.318,59.155,34.999,59.329,34.658,59.329z
				 M14.662,34.01c0.701,5.313,2.718,13.886,8.513,19.016c2.636,2.325,5.92,3.724,9.781,4.17c-0.349-0.697-0.708-1.438-1.054-2.198
				c-2.628-5.743-4.382-12.801-5.214-20.987H14.662z M82.789,59.329c-0.343,0-0.663-0.176-0.847-0.467
				c-0.19-0.304-0.204-0.686-0.037-1.002c0.646-1.218,1.241-2.426,1.819-3.692c3.313-7.236,4.618-15.549,5.129-21.247
				c0.046-0.516,0.479-0.911,0.996-0.911h14.063c0.284,0,0.555,0.121,0.744,0.332c0.19,0.212,0.28,0.494,0.25,0.776
				c-0.593,5.439-2.591,15.454-9.313,21.405c-3.374,2.98-7.668,4.597-12.765,4.805C82.816,59.329,82.803,59.329,82.789,59.329z
				 M90.76,34.01c-0.807,8.132-2.56,15.189-5.216,20.989c-0.341,0.747-0.688,1.475-1.047,2.195c3.86-0.446,7.142-1.845,9.772-4.169
				c5.795-5.131,7.813-13.702,8.516-19.016H90.76z"/>
		</g>
	</g>
	<g>
		<g>
			<path fill="#6A849B" d="M37.4,100.678h-5.002v5.263h52.649v-5.263h-4.999H37.4z"/>
			<path fill="#2E3B49" d="M85.048,106.94H32.398c-0.553,0-1-0.447-1-1v-5.263c0-0.553,0.447-1,1-1h52.649c0.553,0,1,0.447,1,1
				v5.263C86.048,106.493,85.601,106.94,85.048,106.94z M33.398,104.94h50.649v-3.263H33.398V104.94z"/>
		</g>
	</g>
	<g>
		<g>
			<path fill="#6A849B" d="M78.658,65.097c1.107,0.081,2.18,0.147,3.234,0.147c6.979,0,12.89-2.111,17.624-6.32
				c11.376-10.086,11.506-28.506,11.506-29.28v-3.432H90.277l-0.396,6.847h14.062c-0.562,5.184-2.488,15.022-8.977,20.764l0,0
				c-3.231,2.856-7.314,4.359-12.147,4.558L78.658,65.097z M82.818,58.38 M94.966,53.822"/>
			<path fill="#2E3B49" d="M81.893,66.244c-1.043,0-2.076-0.06-3.308-0.15c-0.349-0.025-0.659-0.231-0.817-0.543
				c-0.159-0.312-0.144-0.684,0.04-0.98l4.16-6.717c0.175-0.282,0.479-0.459,0.81-0.473c4.63-0.19,8.508-1.64,11.526-4.308
				c5.798-5.131,7.813-13.702,8.512-19.015H89.881c-0.275,0-0.538-0.113-0.728-0.313c-0.188-0.2-0.287-0.47-0.271-0.744l0.396-6.847
				c0.03-0.529,0.468-0.942,0.998-0.942h20.745c0.553,0,1,0.447,1,1v3.432c0,0.798-0.135,19.648-11.843,30.028
				C95.275,64.032,89.122,66.244,81.893,66.244z M80.388,64.204c0.52,0.025,1.014,0.04,1.505,0.04c6.725,0,12.431-2.041,16.96-6.067
				c11.043-9.791,11.17-27.772,11.17-28.533v-2.432H91.221l-0.28,4.847h13.002c0.284,0,0.555,0.121,0.744,0.332
				s0.28,0.493,0.25,0.775c-0.589,5.439-2.582,15.453-9.308,21.405c-3.255,2.877-7.369,4.483-12.236,4.78L80.388,64.204z"/>
		</g>
	</g>
	<g>
		<g>
			<path fill="#6A849B" d="M34.633,58.38c-4.836-0.198-8.913-1.701-12.146-4.558l0,0c-6.488-5.741-8.415-15.58-8.977-20.764H27.57
				l-0.396-6.847H6.43v3.432c0,0.774,0.133,19.194,11.504,29.28c4.736,4.209,10.646,6.32,17.626,6.32
				c1.056,0,2.126-0.066,3.231-0.147L34.633,58.38z M34.633,58.38 M22.486,53.822"/>
			<path fill="#2E3B49" d="M35.56,66.244c-7.229,0-13.383-2.211-18.29-6.573C5.564,49.289,5.43,30.44,5.43,29.644v-3.432
				c0-0.553,0.447-1,1-1h20.745c0.53,0,0.968,0.413,0.998,0.942l0.385,6.648c0.021,0.081,0.032,0.167,0.032,0.256
				c0,0.553-0.447,1-1,1c-0.005,0.001-0.012,0.001-0.02,0H14.637c0.699,5.313,2.714,13.884,8.513,19.015
				c3.021,2.668,6.897,4.118,11.524,4.308c0.331,0.014,0.635,0.19,0.81,0.473l4.158,6.717c0.184,0.297,0.199,0.669,0.04,0.98
				c-0.158,0.312-0.469,0.518-0.817,0.543C37.635,66.185,36.603,66.244,35.56,66.244z M7.43,27.212v2.432
				c0,0.761,0.127,18.739,11.167,28.532c4.532,4.026,10.238,6.068,16.963,6.068c0.491,0,0.984-0.015,1.503-0.04l-3.004-4.853
				c-4.864-0.297-8.979-1.903-12.234-4.78c-6.727-5.952-8.72-15.966-9.309-21.405c-0.03-0.282,0.061-0.564,0.25-0.775
				s0.46-0.332,0.744-0.332h13.001l-0.28-4.847H7.43z"/>
		</g>
	</g>
	<path fill="#6A849B" d="M64.664,70.613c-0.9,0-1.781-0.446-2.301-1.262c-0.808-1.27-0.434-2.953,0.835-3.761
		c0.123-0.079,12.642-8.237,15.822-21.894c0.342-1.464,1.805-2.373,3.271-2.035c1.465,0.342,2.376,1.807,2.035,3.271
		c-3.696,15.865-17.613,24.877-18.203,25.253C65.67,70.476,65.164,70.613,64.664,70.613z"/>
	<g>
		<path fill="#2E3B49" d="M41.443,41.745c0.797-0.133,1.558-0.199,2.28-0.199c1.49,0,2.679,0.358,3.564,1.073
			c0.886,0.717,1.328,1.746,1.328,3.089c0,1.461-0.495,2.664-1.483,3.608c-1.048,0.988-2.368,1.482-3.962,1.482
			c-1.58,0-2.842-0.398-3.786-1.195c-0.988-0.826-1.498-1.962-1.527-3.409h2.679c0,0.753,0.251,1.307,0.753,1.66
			c0.501,0.354,1.144,0.531,1.926,0.531s1.428-0.254,1.937-0.764c0.51-0.509,0.764-1.146,0.764-1.914
			c0-1.462-0.988-2.192-2.966-2.192h-4.384l0.665-7.394h8.611v2.391h-6.088L41.443,41.745z"/>
		<path fill="#2E3B49" d="M56.475,35.834c0.886,0,1.693,0.152,2.424,0.454c0.73,0.303,1.354,0.764,1.871,1.384
			c1.121,1.313,1.683,3.195,1.683,5.645c0,2.45-0.562,4.332-1.683,5.646c-1.033,1.225-2.457,1.837-4.272,1.837
			c-1.83,0-3.27-0.612-4.316-1.837c-1.107-1.284-1.661-3.166-1.661-5.646c0-2.479,0.554-4.36,1.661-5.645
			C53.228,36.447,54.659,35.834,56.475,35.834z M58.898,39.521c-0.568-0.878-1.372-1.317-2.412-1.317
			c-1.041,0-1.846,0.439-2.413,1.317c-0.568,0.878-0.853,2.144-0.853,3.796c0,1.653,0.284,2.911,0.853,3.774
			c0.567,0.863,1.372,1.295,2.413,1.295c1.04,0,1.844-0.432,2.412-1.295s0.853-2.121,0.853-3.774
			C59.751,41.664,59.467,40.398,58.898,39.521z"/>
		<path fill="#2E3B49" d="M67.875,35.834c0.398,0,0.782,0.07,1.151,0.211s0.693,0.351,0.975,0.631
			c0.604,0.575,0.907,1.409,0.907,2.501c0,1.078-0.303,1.919-0.907,2.524c-0.562,0.561-1.277,0.841-2.147,0.841
			c-0.842,0-1.543-0.28-2.104-0.841c-0.605-0.605-0.907-1.446-0.907-2.524c0-1.092,0.302-1.926,0.907-2.501
			C66.326,36.115,67.034,35.834,67.875,35.834z M75.579,36.122h2.635l-9.719,14.367h-2.656L75.579,36.122z M68.938,39.177
			c0-1.121-0.361-1.682-1.084-1.682c-0.709,0-1.063,0.561-1.063,1.682c0,1.137,0.354,1.705,1.063,1.705
			C68.576,40.882,68.938,40.313,68.938,39.177z M76.177,44.069c0.841,0,1.55,0.28,2.125,0.842c0.605,0.575,0.908,1.409,0.908,2.501
			c0,1.093-0.303,1.94-0.908,2.546c-0.561,0.561-1.27,0.841-2.125,0.841c-0.856,0-1.564-0.28-2.125-0.841
			c-0.605-0.605-0.908-1.453-0.908-2.546c0-1.092,0.303-1.926,0.908-2.501C74.627,44.35,75.336,44.069,76.177,44.069z
			 M76.177,45.729c-0.708,0-1.063,0.564-1.063,1.693c0,1.13,0.354,1.694,1.063,1.694c0.31,0,0.568-0.13,0.774-0.388
			c0.207-0.258,0.311-0.693,0.311-1.307c0-0.612-0.104-1.047-0.311-1.306C76.745,45.859,76.486,45.729,76.177,45.729z"/>
	</g>
</g>
</svg>
