<?xml version="1.0" encoding="utf-8"?>
<!-- Generator: Adobe Illustrator 16.0.0, SVG Export Plug-In . SVG Version: 6.00 Build 0)  -->
<!DOCTYPE svg PUBLIC "-//W3C//DTD SVG 1.1//EN" "http://www.w3.org/Graphics/SVG/1.1/DTD/svg11.dtd">
<svg version="1.1" id="Layer_1" xmlns="http://www.w3.org/2000/svg" xmlns:xlink="http://www.w3.org/1999/xlink" x="0px" y="0px"
	 width="120px" height="120px" viewBox="0 0 120 120" enable-background="new 0 0 120 120" xml:space="preserve">
<g>
	<g>
		<g>
			<path fill="#FFFFFF" d="M90.011,26.161c0.064-3.204-0.049-5.231-0.049-5.231l-31.31-0.018h-0.33L27.015,20.93
				c0,0-0.114,2.027-0.052,5.231H6.22v3.433c0,0.774,0.131,19.192,11.504,29.281c4.736,4.208,10.646,6.317,17.624,6.317
				c1.057,0,2.146-0.064,3.235-0.146c3.961,5.411,8.536,9.225,13.681,11.107v15.035H37.162v9.408h-4.999v5.263h52.651v-5.263h-5.003
				v-9.408H64.71V76.154c5.132-1.883,9.723-5.696,13.683-11.107c1.105,0.081,2.178,0.146,3.233,0.146
				c6.979,0,12.892-2.109,17.627-6.317c11.372-10.089,11.503-28.507,11.503-29.281v-3.433H90.011z M22.277,53.774
				c-6.49-5.744-8.417-15.583-8.979-20.765H27.36c0.596,6.45,1.98,14.508,5.217,21.573c0.594,1.303,1.22,2.538,1.848,3.746
				C29.59,58.132,25.513,56.628,22.277,53.774L22.277,53.774z M94.698,53.774c-3.233,2.854-7.313,4.357-12.146,4.555
				c0.641-1.208,1.253-2.443,1.846-3.746c3.235-7.065,4.635-15.123,5.218-21.573h14.059C103.111,38.191,101.185,48.03,94.698,53.774
				L94.698,53.774z M94.698,53.774"/>
			<path fill="#2E3B49" d="M84.814,106.86H32.163c-0.553,0-1-0.447-1-1v-5.263c0-0.553,0.447-1,1-1h3.999v-8.408
				c0-0.553,0.447-1,1-1h14.102V76.842c-4.826-1.932-9.247-5.547-13.157-10.758c-0.854,0.058-1.808,0.108-2.759,0.108
				c-7.229,0-13.382-2.21-18.288-6.569C5.354,49.239,5.22,30.391,5.22,29.594v-3.433c0-0.553,0.447-1,1-1h19.729
				c-0.024-2.608,0.063-4.213,0.068-4.288c0.029-0.529,0.467-0.943,0.997-0.943l31.639-0.018l31.311,0.018
				c0.53,0,0.968,0.415,0.997,0.944c0.005,0.075,0.092,1.679,0.066,4.287h19.729c0.553,0,1,0.447,1,1v3.433
				c0,0.797-0.135,19.646-11.839,30.029c-4.905,4.359-11.06,6.569-18.291,6.569c-0.935,0-1.868-0.049-2.757-0.109
				c-3.904,5.206-8.327,8.82-13.159,10.759v13.348h14.102c0.553,0,1,0.447,1,1v8.408h4.003c0.553,0,1,0.447,1,1v5.263
				C85.814,106.413,85.367,106.86,84.814,106.86z M33.163,104.86h50.651v-3.263h-4.003c-0.553,0-1-0.447-1-1v-8.408H64.71
				c-0.553,0-1-0.447-1-1V76.154c0-0.42,0.262-0.794,0.655-0.938c4.85-1.779,9.298-5.399,13.221-10.76
				c0.204-0.277,0.542-0.428,0.88-0.406c1.012,0.074,2.095,0.143,3.16,0.143c6.727,0,12.434-2.04,16.963-6.064
				c11.04-9.795,11.167-27.773,11.167-28.534v-2.433H90.011c-0.269,0-0.526-0.108-0.714-0.3c-0.188-0.192-0.291-0.451-0.286-0.721
				c0.038-1.859,0.014-3.325-0.012-4.212l-30.677-0.017l-30.346,0.017c-0.025,0.887-0.05,2.353-0.014,4.213
				c0.005,0.269-0.098,0.528-0.286,0.72c-0.188,0.191-0.445,0.3-0.714,0.3H7.22v2.433c0,0.761,0.127,18.739,11.168,28.533
				c4.53,4.024,10.236,6.065,16.96,6.065c1.096,0,2.213-0.072,3.161-0.143c0.34-0.021,0.678,0.129,0.881,0.406
				c3.929,5.367,8.376,8.987,13.218,10.759c0.395,0.145,0.656,0.52,0.656,0.939v15.035c0,0.553-0.447,1-1,1H38.162v8.408
				c0,0.553-0.447,1-1,1h-3.999V104.86z M82.553,59.329c-0.343,0-0.663-0.176-0.847-0.467c-0.19-0.304-0.204-0.686-0.037-1.002
				c0.66-1.243,1.255-2.451,1.819-3.691c2.655-5.799,4.382-12.947,5.132-21.249c0.047-0.516,0.479-0.91,0.996-0.91h14.059
				c0.284,0,0.555,0.121,0.744,0.332c0.189,0.212,0.28,0.494,0.25,0.776c-0.592,5.439-2.587,15.453-9.308,21.405
				c-3.378,2.98-7.673,4.597-12.768,4.805C82.58,59.329,82.566,59.329,82.553,59.329z M90.525,34.01
				c-0.813,8.143-2.567,15.201-5.218,20.989c-0.336,0.738-0.683,1.466-1.046,2.195c3.859-0.446,7.141-1.846,9.774-4.17
				c5.793-5.13,7.811-13.701,8.511-19.015H90.525z M34.425,59.329c-0.014,0-0.027,0-0.041-0.001
				c-5.094-0.208-9.39-1.824-12.768-4.804c-6.729-5.955-8.723-15.968-9.312-21.407c-0.03-0.282,0.061-0.564,0.25-0.775
				s0.46-0.332,0.744-0.332H27.36c0.517,0,0.948,0.394,0.996,0.908c0.771,8.352,2.497,15.501,5.13,21.249
				c0.616,1.351,1.269,2.629,1.826,3.701c0.164,0.316,0.147,0.696-0.044,0.997C35.085,59.155,34.766,59.329,34.425,59.329z
				 M14.426,34.01c0.699,5.313,2.714,13.883,8.515,19.016c2.636,2.325,5.92,3.724,9.781,4.17c-0.347-0.693-0.706-1.433-1.055-2.197
				c-2.629-5.741-4.383-12.799-5.215-20.988H14.426z"/>
		</g>
	</g>
	<g>
		<g>
			<path fill="#6A849B" d="M37.162,100.678h-4.999v5.263h52.651v-5.263h-5.003H37.162z"/>
			<path fill="#2E3B49" d="M84.814,106.94H32.163c-0.553,0-1-0.447-1-1v-5.263c0-0.553,0.447-1,1-1h52.651c0.553,0,1,0.447,1,1
				v5.263C85.814,106.493,85.367,106.94,84.814,106.94z M33.163,104.94h50.651v-3.263H33.163V104.94z"/>
		</g>
	</g>
	<g>
		<g>
			<path fill="#6A849B" d="M78.423,65.097c1.106,0.081,2.177,0.147,3.234,0.147c6.979,0,12.891-2.111,17.626-6.32
				c11.371-10.086,11.504-28.506,11.504-29.28v-3.432H90.041l-0.397,6.847h14.063c-0.561,5.184-2.489,15.022-8.978,20.764l0,0
				c-3.232,2.856-7.314,4.359-12.145,4.558L78.423,65.097z M82.585,58.38 M94.729,53.822"/>
			<path fill="#2E3B49" d="M81.657,66.244c-1.044,0-2.077-0.06-3.308-0.15c-0.349-0.025-0.659-0.231-0.817-0.543
				c-0.159-0.312-0.144-0.684,0.041-0.98l4.162-6.717c0.174-0.282,0.478-0.459,0.809-0.473c4.627-0.19,8.504-1.64,11.523-4.308
				c5.802-5.134,7.814-13.703,8.513-19.015H89.644c-0.275,0-0.538-0.113-0.728-0.313c-0.188-0.2-0.287-0.47-0.271-0.744l0.397-6.847
				c0.03-0.529,0.469-0.942,0.998-0.942h20.746c0.553,0,1,0.447,1,1v3.432c0,0.797-0.135,19.646-11.841,30.028
				C95.041,64.032,88.887,66.244,81.657,66.244z M80.152,64.204c0.52,0.025,1.013,0.04,1.505,0.04
				c6.726,0,12.432-2.041,16.962-6.067c11.041-9.794,11.168-27.772,11.168-28.533v-2.432H90.984l-0.281,4.847h13.004
				c0.284,0,0.555,0.121,0.744,0.332s0.28,0.493,0.25,0.775c-0.588,5.438-2.579,15.45-9.309,21.405
				c-3.256,2.877-7.369,4.483-12.233,4.78L80.152,64.204z"/>
		</g>
	</g>
	<g>
		<g>
			<path fill="#6A849B" d="M34.397,58.38c-4.834-0.198-8.913-1.701-12.146-4.558l0,0c-6.49-5.741-8.416-15.58-8.978-20.764h14.061
				l-0.396-6.847H6.194v3.432c0,0.774,0.131,19.194,11.503,29.28c4.735,4.209,10.646,6.32,17.625,6.32
				c1.059,0,2.128-0.066,3.235-0.147L34.397,58.38z M34.397,58.38 M22.252,53.822"/>
			<path fill="#2E3B49" d="M35.322,66.244c-7.229,0-13.383-2.212-18.289-6.573C5.329,49.291,5.194,30.44,5.194,29.644v-3.432
				c0-0.553,0.447-1,1-1h20.745c0.53,0,0.968,0.413,0.998,0.942l0.385,6.648c0.021,0.081,0.032,0.167,0.032,0.256
				c0,0.553-0.447,1-1,1c-0.004,0.001-0.012,0.001-0.02,0H14.401c0.699,5.313,2.714,13.885,8.513,19.015
				c3.021,2.668,6.897,4.118,11.524,4.308c0.331,0.014,0.635,0.19,0.81,0.473l4.16,6.717c0.184,0.297,0.199,0.669,0.04,0.98
				c-0.158,0.312-0.469,0.518-0.817,0.543C37.399,66.185,36.365,66.244,35.322,66.244z M7.194,27.212v2.432
				c0,0.761,0.127,18.741,11.166,28.532c4.531,4.027,10.237,6.068,16.962,6.068c0.492,0,0.986-0.015,1.506-0.04l-3.005-4.853
				c-4.865-0.297-8.979-1.903-12.233-4.78c-6.728-5.95-8.721-15.965-9.31-21.405c-0.03-0.282,0.061-0.564,0.25-0.775
				s0.46-0.332,0.744-0.332h13.001l-0.28-4.847H7.194z"/>
		</g>
	</g>
	<path fill="#6A849B" d="M64.427,70.389c-0.826,0-1.635-0.409-2.111-1.158c-0.741-1.164-0.397-2.71,0.768-3.451
		C63.206,65.7,75.801,57.497,79,43.749c0.313-1.345,1.659-2.187,3.001-1.868c1.345,0.313,2.182,1.656,1.868,3.001
		c-3.67,15.778-17.515,24.742-18.103,25.116C65.351,70.263,64.887,70.389,64.427,70.389z"/>
</g>
</svg>
