<?xml version="1.0" encoding="utf-8"?>
<!-- Generator: Adobe Illustrator 16.0.0, SVG Export Plug-In . SVG Version: 6.00 Build 0)  -->
<!DOCTYPE svg PUBLIC "-//W3C//DTD SVG 1.1//EN" "http://www.w3.org/Graphics/SVG/1.1/DTD/svg11.dtd">
<svg version="1.1" id="Layer_1" xmlns="http://www.w3.org/2000/svg" xmlns:xlink="http://www.w3.org/1999/xlink" x="0px" y="0px"
	 width="120px" height="120px" viewBox="0 0 120 120" enable-background="new 0 0 120 120" xml:space="preserve">
<g>
	<g>
		<path fill="#FFFFFF" d="M77.962,62.864c-4.64-4.268-9.999-4.888-17.33-4.755c-7.334-0.133-12.604,0.487-17.247,4.755
			c-7.041,6.476-14.478,21.729-11.201,34.933c1.737,7.004,4.89,10.014,7.74,11.713C44.61,112.088,52,112.708,57,112.844v-0.009
			c8-0.136,15.668-0.749,20.352-3.325c2.851-1.699,9.059-4.709,10.795-11.713C91.421,84.594,85.004,69.34,77.962,62.864z"/>
		<path fill="#2E3B49" d="M56.999,114c-0.009,0-0.018,0-0.026,0c-7.85,0-13.748-1.455-17.531-3.536
			c-2.619-1.561-6.286-4.558-8.229-12.388c-3.492-14.072,4.795-29.766,11.495-35.928c4.934-4.537,10.408-5.169,17.942-5.029
			c0.533-0.01,1.09-0.021,1.637-0.021c6.529,0,11.809,0.854,16.352,5.033c7.591,6.98,13.756,22.693,10.479,35.908
			c-1.688,6.807-7.388,10.096-10.45,11.862c-0.29,0.167-0.56,0.322-0.804,0.468c-5.117,2.816-13.329,3.412-20.718,3.541
			C57.098,113.918,57.048,114,56.999,114z M58.977,59.094c-6.181,0-10.832,0.754-14.915,4.507
			c-6.348,5.838-14.205,20.667-10.907,33.956c1.762,7.104,5,9.734,7.281,11.094c3.401,1.871,9.101,2.979,16.459,3.189
			c0.029-0.002,0.059-0.004,0.089-0.005c6.757-0.114,15.124-0.582,19.886-3.201c0.223-0.134,0.5-0.294,0.798-0.466
			c3.002-1.731,8.026-4.631,9.509-10.611c3.102-12.504-2.72-27.361-9.891-33.956c-4.431-4.075-9.587-4.627-16.635-4.491
			C60.057,59.1,59.511,59.094,58.977,59.094z"/>
	</g>
	<circle fill="#2E3B49" cx="56.354" cy="71.825" r="2.716"/>
	<circle fill="#2E3B49" cx="56.354" cy="83.233" r="2.716"/>
	<circle fill="#2E3B49" cx="56.354" cy="94.64" r="2.716"/>
	<path fill="#2E3B49" d="M8.582,55.514c-0.65,0-1.25-0.426-1.439-1.083c-0.23-0.796,0.228-1.628,1.023-1.858l6.696-1.938
		l-1.761-7.158c-0.197-0.805,0.294-1.617,1.099-1.814c0.806-0.202,1.617,0.294,1.815,1.098l2.104,8.557
		c0.191,0.781-0.267,1.576-1.04,1.799L9,55.455C8.86,55.494,8.721,55.514,8.582,55.514z"/>
	<path fill="#2E3B49" d="M40.061,66.791c-0.258,0-0.519-0.066-0.757-0.205L15.757,52.805c-0.715-0.419-0.955-1.338-0.537-2.053
		c0.419-0.715,1.34-0.953,2.053-0.537l23.547,13.781c0.715,0.419,0.955,1.338,0.537,2.053
		C41.077,66.525,40.575,66.791,40.061,66.791z"/>
	<path fill="#2E3B49" d="M109.94,56.387c-0.139,0-0.279-0.02-0.419-0.061l-8.08-2.342c-0.772-0.224-1.23-1.018-1.039-1.799
		l2.104-8.555c0.199-0.805,1.012-1.299,1.815-1.1c0.804,0.198,1.296,1.011,1.099,1.814l-1.76,7.158l6.697,1.941
		c0.795,0.23,1.253,1.063,1.022,1.857C111.19,55.959,110.591,56.387,109.94,56.387z"/>
	<path fill="#2E3B49" d="M74.822,69.796c-0.515,0-1.016-0.265-1.295-0.741c-0.419-0.715-0.18-1.634,0.535-2.053l27.242-15.973
		c0.714-0.419,1.633-0.18,2.053,0.535c0.419,0.715,0.18,1.634-0.535,2.053L75.58,69.59C75.342,69.729,75.08,69.796,74.822,69.796z"
		/>
	<g>
		<circle fill="#FFFFFF" cx="60.242" cy="47.74" r="18.282"/>
		<path fill="#2E3B49" d="M60.24,67.02c-10.631,0-19.28-8.648-19.28-19.279c0-10.633,8.649-19.282,19.28-19.282
			c10.633,0,19.283,8.649,19.283,19.282C79.523,58.371,70.873,67.02,60.24,67.02z M60.24,30.458c-9.528,0-17.28,7.753-17.28,17.282
			c0,9.527,7.752,17.279,17.28,17.279c9.53,0,17.283-7.752,17.283-17.279C77.523,38.211,69.771,30.458,60.24,30.458z"/>
	</g>
	<circle fill="#2E3B49" cx="64.5" cy="41.681" r="2.715"/>
	<circle fill="#2E3B49" cx="53.095" cy="41.681" r="2.718"/>
	<g>
		<path fill="#6A849B" d="M37.633,50.693c0-0.814,0.457-1.426,1.475-1.631c1.019-0.202,17.808-2.218,19.351-1.449
			c2.877,0.84,2.292,4.914,0.561,5.729c-1.731,0.814-17.949-0.676-20.037-1.135C38.001,52.068,37.633,51.51,37.633,50.693z"/>
		<path fill="#2E3B49" d="M56.315,54.582c-5.097,0-15.754-1.003-17.549-1.397c-1.329-0.187-2.134-1.099-2.134-2.491
			c0-1.348,0.852-2.324,2.277-2.611c0.861-0.171,12.918-1.643,17.782-1.643c1.307,0,1.816,0.108,2.118,0.236
			c1.524,0.475,2.51,1.75,2.642,3.426c0.14,1.789-0.704,3.532-2.008,4.146C59.093,54.413,58.446,54.582,56.315,54.582z
			 M56.692,48.439c-4.576,0-16.492,1.426-17.391,1.604c-0.669,0.135-0.669,0.434-0.669,0.65c0,0.363,0.048,0.462,0.489,0.524
			c1.57,0.343,12.051,1.364,17.193,1.364c1.839,0,2.25-0.135,2.291-0.15c0.459-0.217,0.931-1.166,0.852-2.174
			c-0.048-0.611-0.309-1.4-1.28-1.685c-0.057-0.017-0.112-0.038-0.166-0.065C58.028,48.517,57.752,48.439,56.692,48.439z"/>
	</g>
	<g>
		<polygon fill="#6A849B" points="75.55,30.723 77.325,12.886 51.381,10.305 49.605,28.141 43.12,27.495 42.476,33.982 
			81.391,37.855 82.036,31.368 		"/>
		<path fill="#2E3B49" d="M81.391,38.855c-0.033,0-0.066-0.002-0.099-0.005l-38.915-3.873c-0.55-0.055-0.951-0.544-0.896-1.094
			l0.645-6.487c0.026-0.264,0.156-0.507,0.361-0.675c0.206-0.168,0.481-0.245,0.732-0.222l5.49,0.547l1.677-16.842
			c0.055-0.549,0.56-0.949,1.094-0.896l25.944,2.581c0.265,0.026,0.507,0.156,0.675,0.361s0.248,0.469,0.222,0.732l-1.677,16.842
			l5.491,0.547c0.55,0.055,0.951,0.545,0.896,1.094l-0.646,6.488c-0.026,0.264-0.156,0.506-0.361,0.674
			C81.845,38.775,81.621,38.855,81.391,38.855z M43.569,33.086l36.925,3.676l0.448-4.498l-5.491-0.546
			c-0.265-0.026-0.507-0.156-0.675-0.361c-0.168-0.206-0.248-0.469-0.222-0.733l1.677-16.842l-23.954-2.383L50.601,28.24
			c-0.055,0.549-0.547,0.954-1.094,0.896l-5.49-0.546L43.569,33.086z"/>
	</g>
	<path fill="#6A849B" d="M69.148,108.344c-1.249,0-2.329-0.935-2.479-2.205c-0.163-1.371,0.817-2.615,2.188-2.777
		c0.065-0.008,6.728-0.93,10.253-6.08c2.397-3.502,2.85-8.24,1.344-14.086c-0.345-1.338,0.46-2.701,1.797-3.045
		c1.333-0.344,2.701,0.459,3.045,1.797c1.882,7.305,1.188,13.414-2.06,18.158c-4.852,7.086-13.428,8.178-13.791,8.221
		C69.346,108.338,69.246,108.344,69.148,108.344z"/>
</g>
</svg>
