<?xml version="1.0" encoding="utf-8"?>
<!-- Generator: Adobe Illustrator 16.0.0, SVG Export Plug-In . SVG Version: 6.00 Build 0)  -->
<!DOCTYPE svg PUBLIC "-//W3C//DTD SVG 1.1//EN" "http://www.w3.org/Graphics/SVG/1.1/DTD/svg11.dtd">
<svg version="1.1" id="Layer_1" xmlns="http://www.w3.org/2000/svg" xmlns:xlink="http://www.w3.org/1999/xlink" x="0px" y="0px"
	 width="120px" height="120px" viewBox="0 0 120 120" enable-background="new 0 0 120 120" xml:space="preserve">
<g>
	<g>
		<ellipse fill="#FFFFFF" cx="59.293" cy="95.009" rx="51.627" ry="16.827"/>
		<path fill="#2E3B49" d="M59.293,112.833c-29.511,0-52.627-7.829-52.627-17.824c0-9.996,23.116-17.827,52.627-17.827
			s52.628,7.831,52.628,17.827C111.921,105.004,88.804,112.833,59.293,112.833z M59.293,79.182
			c-27.442,0-50.627,7.248-50.627,15.827c0,8.577,23.185,15.824,50.627,15.824c27.443,0,50.628-7.247,50.628-15.824
			C109.921,86.43,86.736,79.182,59.293,79.182z"/>
	</g>
	<g>
		<path fill="#6A849B" d="M35.723,70.188c0,0,0.375,4.272,2.316,8.357c1.946,4.083,4.385,20.649-3.768,21.634
			c-8.152,0.986-10.123-11.729-9.316-20.67c0.805-8.938-1.331-13.411-1.331-13.411L35.723,70.188z"/>
		<path fill="#2E3B49" d="M33.396,101.233c-2.089,0-3.901-0.824-5.387-2.45c-3.895-4.261-4.615-13.094-4.05-19.363
			c0.766-8.499-1.219-12.851-1.239-12.894c-0.17-0.363-0.107-0.794,0.159-1.093c0.267-0.298,0.687-0.409,1.065-0.282l12.099,4.09
			c0.375,0.127,0.641,0.464,0.676,0.859c0.004,0.041,0.388,4.152,2.224,8.016c1.501,3.149,3.49,13.91,0.372,19.579
			c-1.127,2.049-2.783,3.219-4.923,3.478C34.051,101.214,33.718,101.233,33.396,101.233z M25.216,67.692
			c0.586,2.191,1.253,6.157,0.735,11.907c-0.571,6.328,0.3,14.297,3.534,17.835c1.283,1.404,2.793,1.986,4.666,1.752
			c1.485-0.179,2.601-0.982,3.411-2.455c2.635-4.79,0.979-14.809-0.426-17.755c-1.564-3.291-2.146-6.653-2.334-8.043L25.216,67.692z
			"/>
	</g>
	<g>
		<path fill="#6A849B" d="M48.988,37.473c0,0-0.906,18.377-3.465,35.241c-2.554,16.861,9.222,24.128,14.73,20.161
			c5.508-3.967,5.585-23.22,2.85-34.331c-2.735-11.108-4.35-22.254-4.35-22.254L48.988,37.473z"/>
		<path fill="#2E3B49" d="M56.814,94.935L56.814,94.935c-2.908,0-5.913-1.557-8.246-4.27c-2.151-2.502-5.536-8.181-4.033-18.101
			c2.521-16.619,3.445-34.958,3.454-35.141c0.024-0.487,0.396-0.886,0.879-0.944l9.766-1.183c0.539-0.065,1.032,0.313,1.109,0.85
			c0.017,0.111,1.64,11.228,4.331,22.158c2.752,11.177,2.864,30.988-3.236,35.382C59.704,94.503,58.313,94.935,56.814,94.935z
			 M49.941,38.364c-0.214,3.805-1.201,19.813-3.43,34.5c-1.383,9.13,1.646,14.255,3.573,16.497c1.924,2.237,4.439,3.573,6.729,3.573
			h0.001c1.076,0,2.063-0.301,2.855-0.871c4.789-3.449,5.366-21.484,2.463-33.28c-2.254-9.151-3.764-18.427-4.222-21.384
			L49.941,38.364z"/>
	</g>
	<g>
		<path fill="#FFFFFF" d="M50.705,13.919c0,0,19.738-4.772,25.129,22.933c0,0,0.957,4.579-2.398,5.126
			c-3.361,0.547-42.367,6.204-41.282-6.028C33.242,23.719,41.932,16.417,50.705,13.919z"/>
		<path fill="#2E3B49" d="M51.57,44.757c-9.861,0-16.225-1.49-18.913-4.428c-1.147-1.253-1.651-2.757-1.5-4.468
			c1.173-13.175,10.726-20.47,19.274-22.904c0.096-0.024,1.475-0.352,3.588-0.352c5.447,0,18.571,2.344,22.796,24.055
			c0.059,0.282,0.563,2.921-0.691,4.75c-0.578,0.842-1.452,1.379-2.527,1.555C73.486,42.982,62.455,44.757,51.57,44.757z
			 M54.02,14.605c-1.856,0-3.069,0.283-3.081,0.286c-7.869,2.241-16.706,8.981-17.789,21.146c-0.102,1.145,0.22,2.107,0.982,2.94
			c1.578,1.724,5.884,3.778,17.438,3.778c8.9,0,18.686-1.275,21.705-1.767c0.544-0.089,0.925-0.313,1.197-0.708
			c0.658-0.955,0.499-2.654,0.382-3.229C71.054,17.521,60.17,14.605,54.02,14.605z"/>
	</g>
	<g>
		<path fill="#6A849B" d="M77.166,58.873c0,0-3.434,10.691-7.581,20.23c-4.149,9.544,1.538,15.666,5.364,14.188
			c3.823-1.479,6.912-12.814,7.08-19.793c0.169-6.977,0.992-13.8,0.992-13.8L77.166,58.873z"/>
		<path fill="#2E3B49" d="M73.758,94.512L73.758,94.512c-1.858,0-3.723-1.15-4.985-3.077c-1.02-1.555-3.07-5.908-0.104-12.729
			c4.08-9.385,7.512-20.031,7.546-20.138c0.148-0.464,0.618-0.756,1.092-0.685l5.855,0.826c0.539,0.076,0.918,0.569,0.854,1.11
			c-0.009,0.067-0.82,6.858-0.985,13.704c-0.172,7.118-3.338,19.006-7.719,20.701C74.817,94.415,74.295,94.512,73.758,94.512z
			 M77.855,59.98c-0.883,2.671-3.886,11.545-7.354,19.521c-2.577,5.928-0.898,9.553-0.057,10.837c0.892,1.36,2.13,2.173,3.313,2.173
			l0,0c0.29,0,0.569-0.052,0.831-0.152c3.112-1.204,6.267-11.66,6.44-18.885c0.131-5.406,0.659-10.776,0.89-12.921L77.855,59.98z"/>
	</g>
	<g>
		<path fill="#FFFFFF" d="M81.885,45.256c0,0,12.215,0.269,10.963,17.443c0,0-0.168,2.85-2.203,2.646
			c-2.037-0.2-25.575-2.96-23.009-10C70.197,48.306,76.396,45.356,81.885,45.256z"/>
		<path fill="#2E3B49" d="M90.848,66.356c-0.098,0-0.198-0.005-0.303-0.016c-0.806-0.079-19.816-2.01-23.458-7.798
			c-0.696-1.106-0.831-2.331-0.391-3.54c2.827-7.771,9.69-10.646,15.17-10.747c0.229,0.005,4.713,0.146,8.184,3.963
			c2.983,3.279,4.26,8.176,3.795,14.553C93.772,64.003,93.052,66.356,90.848,66.356z M81.862,46.256
			c-4.775,0.088-10.806,2.612-13.287,9.432c-0.23,0.634-0.166,1.202,0.204,1.79c2.581,4.103,17.086,6.394,21.963,6.873
			c0.037,0.004,0.072,0.006,0.105,0.006c0.848,0,1.001-1.699,1.002-1.716c0.424-5.823-0.68-10.218-3.279-13.076
			C85.671,46.375,81.9,46.257,81.862,46.256z"/>
	</g>
	<g>
		<path fill="#FFFFFF" d="M28.469,54.208c0,0,15.795,0.146,19.18,14.543c0,0,1.094,5.419-1.879,5.777
			c-2.969,0.359-29.539,3.569-29.539,3.569s-3.877,1.017-4.037-3.967C12.027,69.147,15.035,55.486,28.469,54.208z"/>
		<path fill="#2E3B49" d="M15.438,79.183c-0.958,0-4.095-0.361-4.244-5.02c-0.21-6.281,3.714-19.669,17.18-20.95
			c0.034-0.004,0.072-0.004,0.104-0.005c0.166,0.002,16.621,0.326,20.145,15.314c0.085,0.418,0.73,3.87-0.646,5.774
			c-0.504,0.697-1.226,1.12-2.087,1.225l-29.486,3.563C16.248,79.118,15.892,79.183,15.438,79.183z M28.509,55.209
			C15.315,56.503,13.07,70.433,13.192,74.098c0.067,2.076,0.802,3.085,2.246,3.085c0.318,0,0.544-0.054,0.547-0.055
			c0.038-0.009,0.086-0.019,0.125-0.023l29.539-3.569c0.31-0.037,0.527-0.163,0.705-0.408c0.655-0.904,0.54-3.044,0.313-4.18
			C43.574,55.791,29.621,55.232,28.509,55.209z"/>
	</g>
	<path fill="#6A849B" d="M69.839,106.005c-1.264,0-2.348-0.954-2.483-2.238c-0.145-1.373,0.852-2.604,2.225-2.748
		c12.89-1.357,24.101-4.161,27.15-6.104c-0.783-0.44-2.377-1.132-5.527-1.933c-1.338-0.34-2.147-1.7-1.808-3.038
		c0.34-1.339,1.705-2.148,3.038-1.808c5.023,1.275,10.121,3.104,9.842,6.987c-0.229,3.187-3.946,5.382-12.828,7.577
		c-6.517,1.61-14.266,2.756-19.344,3.291C70.015,106,69.926,106.005,69.839,106.005z"/>
</g>
</svg>
