<?xml version="1.0" encoding="utf-8"?>
<!-- Generator: Adobe Illustrator 16.0.0, SVG Export Plug-In . SVG Version: 6.00 Build 0)  -->
<!DOCTYPE svg PUBLIC "-//W3C//DTD SVG 1.1//EN" "http://www.w3.org/Graphics/SVG/1.1/DTD/svg11.dtd">
<svg version="1.1" id="Layer_1" xmlns="http://www.w3.org/2000/svg" xmlns:xlink="http://www.w3.org/1999/xlink" x="0px" y="0px"
	 width="120px" height="120px" viewBox="0 0 120 120" enable-background="new 0 0 120 120" xml:space="preserve">
<g>
	<g>
		<g>
			<path fill="#FFFFFF" d="M56.628,19.637c1.681-0.971,2.46-3.067,1.741-4.975c-0.794-2.121-3.133-3.206-5.218-2.421
				c-0.681,0.254-1.246,0.678-1.677,1.204c0.086-0.652,0.016-1.337-0.233-2.001c-0.798-2.12-3.133-3.205-5.221-2.421
				c-1.876,0.704-2.907,2.683-2.514,4.616c-0.978-1.716-3.056-2.524-4.932-1.821c-2.087,0.783-3.133,3.141-2.335,5.26
				c0.235,0.631,0.61,1.167,1.073,1.595c-0.617-0.078-1.262-0.014-1.879,0.219c-2.089,0.785-3.134,3.139-2.339,5.261
				c0.796,2.121,3.133,3.205,5.221,2.421c-2.088,0.784-3.133,3.138-2.338,5.261c0.796,2.121,3.135,3.202,5.222,2.422
				c0.618-0.232,1.147-0.609,1.562-1.073c-0.068,0.625,0.004,1.275,0.239,1.907c0.796,2.12,3.134,3.204,5.221,2.421
				c1.876-0.704,2.906-2.679,2.515-4.614c0.979,1.714,3.055,2.522,4.93,1.819c2.087-0.781,3.134-3.137,2.338-5.258
				c-0.276-0.736-0.738-1.343-1.313-1.796c0.71,0.145,1.463,0.101,2.184-0.172c2.089-0.781,3.134-3.135,2.339-5.257
				C60.497,20.324,58.531,19.261,56.628,19.637z"/>
			<path fill="#2E3B49" d="M46.823,38.766c-2.1,0-4.012-1.336-4.759-3.324c-0.05-0.136-0.095-0.272-0.134-0.41
				c-0.124,0.059-0.25,0.112-0.379,0.16c-0.563,0.211-1.151,0.318-1.748,0.318c-2.103,0-4.016-1.336-4.762-3.324
				c-0.589-1.572-0.359-3.253,0.474-4.56c-1.513-0.443-2.781-1.589-3.356-3.122c-0.986-2.635,0.325-5.571,2.924-6.549
				c0.128-0.048,0.258-0.091,0.389-0.128c-0.062-0.13-0.117-0.264-0.168-0.399c-0.483-1.284-0.439-2.679,0.125-3.924
				c0.555-1.223,1.547-2.153,2.795-2.622c1.46-0.547,3.128-0.351,4.412,0.451c0.438-1.46,1.524-2.68,3.033-3.246
				c0.563-0.211,1.152-0.318,1.75-0.318c2.098,0,4.01,1.336,4.758,3.323c0.053,0.14,0.099,0.281,0.139,0.425
				c0.158-0.079,0.32-0.15,0.486-0.212c0.561-0.212,1.149-0.319,1.748-0.319c2.101,0,4.012,1.337,4.756,3.326
				c0.578,1.534,0.387,3.18-0.415,4.48c1.47,0.463,2.696,1.591,3.26,3.09c0.478,1.274,0.438,2.655-0.11,3.889
				c-0.552,1.24-1.552,2.184-2.814,2.656c-0.169,0.063-0.34,0.118-0.513,0.162c0.085,0.168,0.161,0.341,0.228,0.518
				c0.478,1.273,0.438,2.654-0.11,3.889c-0.552,1.241-1.551,2.185-2.813,2.657c-1.458,0.548-3.127,0.351-4.41-0.452
				c-0.439,1.461-1.525,2.681-3.033,3.247C48.01,38.658,47.422,38.766,46.823,38.766z M42.762,32.183
				c0.138,0,0.275,0.028,0.406,0.087c0.397,0.177,0.635,0.59,0.588,1.021c-0.054,0.493,0.008,0.98,0.183,1.45
				c0.454,1.21,1.613,2.024,2.885,2.024c0.357,0,0.71-0.064,1.047-0.191c1.395-0.523,2.188-1.986,1.886-3.479
				c-0.097-0.481,0.169-0.962,0.629-1.135c0.458-0.172,0.976,0.014,1.22,0.44c0.732,1.281,2.344,1.893,3.71,1.379
				c0.757-0.283,1.356-0.85,1.688-1.596c0.335-0.753,0.357-1.596,0.065-2.374c-0.201-0.536-0.545-1.007-0.995-1.362
				c-0.364-0.287-0.482-0.786-0.288-1.206s0.652-0.651,1.106-0.559c0.198,0.04,0.4,0.061,0.601,0.061l0,0
				c0.354,0,0.7-0.063,1.03-0.188c0.76-0.284,1.359-0.851,1.69-1.597c0.334-0.751,0.357-1.595,0.065-2.374
				c-0.523-1.393-2.024-2.259-3.456-1.966c-0.477,0.092-0.957-0.172-1.13-0.63c-0.172-0.458,0.013-0.973,0.437-1.218
				c1.295-0.748,1.844-2.327,1.306-3.756c-0.582-1.556-2.39-2.415-3.93-1.838c-0.495,0.186-0.917,0.488-1.255,0.901
				c-0.284,0.348-0.761,0.464-1.172,0.285c-0.41-0.178-0.652-0.605-0.594-1.049c0.067-0.513,0.007-1.023-0.179-1.519
				c-0.584-1.553-2.388-2.415-3.933-1.836c-1.396,0.523-2.189,1.987-1.886,3.48c0.099,0.481-0.168,0.963-0.628,1.136
				c-0.462,0.171-0.978-0.014-1.221-0.441c-0.731-1.283-2.339-1.895-3.712-1.38c-0.747,0.28-1.342,0.84-1.676,1.575
				c-0.344,0.758-0.37,1.609-0.074,2.396c0.174,0.466,0.448,0.872,0.816,1.213c0.319,0.295,0.411,0.763,0.228,1.156
				c-0.182,0.394-0.583,0.622-1.032,0.57c-0.468-0.06-0.955-0.005-1.4,0.162c-1.568,0.59-2.355,2.372-1.755,3.975
				c0.583,1.553,2.395,2.414,3.933,1.835c0.518-0.19,1.093,0.067,1.288,0.585c0.043,0.115,0.063,0.234,0.063,0.351
				c0.001,0.405-0.247,0.786-0.648,0.938c-1.566,0.588-2.354,2.371-1.753,3.974c0.454,1.212,1.615,2.026,2.889,2.026
				c0.356,0,0.709-0.064,1.046-0.19c0.442-0.166,0.846-0.444,1.166-0.803C42.21,32.299,42.483,32.183,42.762,32.183z"/>
		</g>
		<path fill="#2E3B49" d="M50.723,22.304c0.729,1.939-0.227,4.09-2.135,4.809c-1.905,0.714-4.043-0.277-4.769-2.216
			c-0.728-1.937,0.228-4.089,2.136-4.805C47.861,19.374,49.994,20.367,50.723,22.304z"/>
	</g>
	<g>
		<path fill="#6A849B" d="M93.076,56.052c-0.092-1.902-37.258,0-37.258,0s-37.207-1.902-37.298,0
			C18.112,60.248,52.567,96.97,52.567,96.97l-4.085,10.66c2.216,1.477,5.291,1.477,7.385,1.477c1.771,0,5.044,0,7.258-1.477
			L59.01,96.97C59.01,96.97,93.486,60.248,93.076,56.052z"/>
		<path fill="#2E3B49" d="M55.867,110.106c-2.179,0-5.472,0-7.939-1.645c-0.389-0.259-0.547-0.753-0.379-1.189l3.86-10.075
			c-8.617-9.198-34.296-37.003-33.884-41.242c0.053-1.133,0.555-1.749,10.705-1.749c10.646,0,26.56,0.793,27.588,0.845
			c1.026-0.052,16.923-0.845,27.558-0.845c10.14,0,10.642,0.616,10.699,1.798c0.411,4.19-25.283,31.994-33.906,41.191l3.889,10.074
			c0.169,0.438,0.012,0.933-0.378,1.192C61.214,110.106,57.735,110.106,55.867,110.106z M49.724,107.187
			c1.914,0.92,4.421,0.92,6.144,0.92c1.474,0,4.076,0,6.015-0.921l-3.805-9.855c-0.139-0.358-0.06-0.765,0.203-1.045
			c15.605-16.621,32.19-35.618,33.69-39.692c-0.814-0.161-2.961-0.387-8.595-0.387c-10.887,0-27.342,0.836-27.507,0.845
			c-0.033,0.002-0.068,0.002-0.102,0c-0.165-0.009-16.639-0.845-27.537-0.845c-5.616,0-7.771,0.224-8.594,0.385
			c1.55,4.146,18.093,23.104,33.66,39.694c0.262,0.28,0.342,0.685,0.204,1.042L49.724,107.187z"/>
	</g>
	<g>
		<g>
			<polygon fill="#FFFFFF" points="45.259,113.895 44.28,110.012 40.3,110.001 53.448,93.263 58.405,97.159 			"/>
			<path fill="#2E3B49" d="M45.259,114.895c-0.069,0-0.139-0.007-0.208-0.021c-0.373-0.08-0.669-0.364-0.762-0.734l-0.788-3.129
				l-3.204-0.009c-0.382-0.001-0.73-0.22-0.897-0.564c-0.166-0.344-0.122-0.753,0.114-1.054l13.148-16.738
				c0.164-0.208,0.403-0.343,0.667-0.375c0.259-0.032,0.527,0.042,0.737,0.207l4.957,3.896c0.434,0.341,0.51,0.97,0.168,1.404
				l-13.146,16.735C45.854,114.757,45.562,114.895,45.259,114.895z M42.353,109.007l1.931,0.005
				c0.457,0.001,0.855,0.313,0.967,0.756l0.48,1.907l11.271-14.348l-3.385-2.66L42.353,109.007z"/>
		</g>
	</g>
	<g>
		<g>
			<polygon fill="#FFFFFF" points="69.734,113.537 70.173,109.556 74.113,109 58.792,94.225 54.414,98.764 			"/>
			<path fill="#2E3B49" d="M69.734,114.537c-0.255,0-0.505-0.098-0.694-0.28L53.72,99.483c-0.19-0.184-0.301-0.437-0.306-0.701
				c-0.005-0.266,0.096-0.521,0.28-0.713l4.378-4.539c0.385-0.396,1.017-0.408,1.414-0.025l15.321,14.775
				c0.275,0.266,0.375,0.664,0.257,1.028c-0.118,0.363-0.433,0.628-0.812,0.682l-3.171,0.447l-0.354,3.209
				c-0.042,0.379-0.296,0.701-0.654,0.831C69.964,114.518,69.849,114.537,69.734,114.537z M55.828,98.738l13.135,12.666l0.216-1.958
				c0.05-0.454,0.402-0.817,0.854-0.881l1.91-0.27L58.817,95.639L55.828,98.738z"/>
		</g>
	</g>
	<g>
		<polygon fill="#FFFFFF" points="62.567,97.865 49.831,97.865 46.881,91.335 64.7,91.335 		"/>
		<path fill="#2E3B49" d="M62.567,98.865H49.831c-0.393,0-0.75-0.23-0.911-0.588l-2.95-6.53c-0.14-0.31-0.113-0.669,0.071-0.954
			c0.184-0.286,0.5-0.458,0.84-0.458H64.7c0.32,0,0.621,0.153,0.81,0.413c0.188,0.259,0.24,0.593,0.141,0.897l-2.133,6.53
			C63.384,98.587,63,98.865,62.567,98.865z M50.477,96.865h11.365l1.479-4.53H48.43L50.477,96.865z"/>
	</g>
	<g>
		<g>
			<path fill="#FFFFFF" d="M66.864,49.117c1.686-0.969,2.463-3.065,1.745-4.971c-0.797-2.122-3.132-3.208-5.221-2.424
				c-0.678,0.256-1.245,0.68-1.679,1.205c0.088-0.653,0.019-1.337-0.229-2.002c-0.797-2.121-3.135-3.204-5.221-2.421
				c-1.877,0.706-2.906,2.683-2.514,4.616c-0.98-1.715-3.057-2.523-4.932-1.818c-2.089,0.781-3.133,3.137-2.336,5.258
				c0.236,0.633,0.611,1.166,1.072,1.594c-0.618-0.076-1.257-0.011-1.882,0.221c-2.083,0.783-3.13,3.137-2.335,5.259
				c0.798,2.122,3.136,3.205,5.222,2.42c-2.086,0.785-3.133,3.139-2.339,5.261c0.799,2.122,3.135,3.204,5.222,2.424
				c0.62-0.233,1.146-0.61,1.563-1.072c-0.069,0.623,0.001,1.276,0.238,1.907c0.794,2.119,3.133,3.205,5.221,2.421
				c1.875-0.705,2.906-2.681,2.514-4.615c0.979,1.715,3.056,2.524,4.931,1.819c2.088-0.78,3.133-3.137,2.339-5.259
				c-0.277-0.736-0.741-1.343-1.313-1.795c0.708,0.144,1.461,0.102,2.185-0.17c2.086-0.784,3.133-3.139,2.337-5.26
				C70.736,49.809,68.771,48.742,66.864,49.117z"/>
			<path fill="#2E3B49" d="M57.063,68.249c-2.102,0-4.014-1.336-4.759-3.325c-0.051-0.135-0.096-0.271-0.135-0.41
				c-0.123,0.059-0.249,0.112-0.378,0.16c-0.564,0.211-1.151,0.317-1.748,0.317c-2.1,0-4.014-1.336-4.762-3.324
				c-0.589-1.572-0.358-3.252,0.475-4.56c-1.513-0.443-2.781-1.589-3.357-3.122c-0.987-2.634,0.322-5.57,2.919-6.546
				c0.13-0.049,0.261-0.092,0.394-0.129c-0.062-0.13-0.118-0.264-0.169-0.4c-0.484-1.287-0.439-2.684,0.127-3.929
				c0.555-1.22,1.548-2.148,2.795-2.615c1.457-0.549,3.127-0.352,4.412,0.45c0.438-1.46,1.523-2.681,3.031-3.247
				c0.564-0.212,1.152-0.319,1.751-0.319c2.1,0,4.012,1.336,4.759,3.324c0.052,0.14,0.098,0.281,0.138,0.425
				c0.156-0.079,0.316-0.15,0.48-0.212c0.565-0.212,1.154-0.319,1.752-0.319c2.099,0,4.011,1.337,4.759,3.327
				c0.578,1.536,0.387,3.18-0.416,4.479c1.47,0.464,2.696,1.591,3.259,3.089c0.987,2.634-0.322,5.57-2.922,6.548
				c-0.169,0.063-0.34,0.117-0.514,0.161c0.085,0.167,0.16,0.339,0.227,0.515c0.478,1.275,0.438,2.657-0.11,3.892
				c-0.552,1.241-1.551,2.185-2.814,2.656c-1.455,0.548-3.126,0.352-4.41-0.451c-0.438,1.46-1.524,2.68-3.032,3.246
				C58.249,68.142,57.66,68.249,57.063,68.249z M53.002,61.666c0.139,0,0.278,0.028,0.411,0.088
				c0.396,0.179,0.631,0.592,0.583,1.022c-0.055,0.487,0.008,0.987,0.18,1.444c0.583,1.555,2.393,2.417,3.934,1.837
				c1.395-0.524,2.188-1.988,1.885-3.479c-0.098-0.481,0.169-0.963,0.629-1.136s0.977,0.015,1.22,0.44
				c0.732,1.284,2.339,1.894,3.711,1.38c0.757-0.283,1.356-0.851,1.688-1.597c0.335-0.753,0.358-1.597,0.066-2.376
				c-0.201-0.533-0.546-1.005-0.997-1.361c-0.363-0.286-0.481-0.785-0.287-1.205s0.651-0.646,1.105-0.56
				c0.555,0.114,1.117,0.068,1.635-0.126c1.566-0.589,2.354-2.371,1.752-3.972c-0.522-1.393-2.021-2.252-3.458-1.968
				c-0.483,0.092-0.958-0.172-1.13-0.631s0.014-0.974,0.438-1.218c1.296-0.745,1.846-2.322,1.308-3.751
				c-0.585-1.557-2.389-2.419-3.934-1.84c-0.485,0.183-0.922,0.496-1.259,0.905c-0.284,0.344-0.764,0.459-1.172,0.279
				c-0.409-0.179-0.65-0.606-0.591-1.05c0.069-0.511,0.01-1.022-0.175-1.519c-0.455-1.211-1.615-2.025-2.886-2.025
				c-0.357,0-0.71,0.064-1.047,0.191c-1.396,0.524-2.188,1.988-1.885,3.48c0.098,0.481-0.169,0.962-0.628,1.135
				c-0.465,0.174-0.977-0.014-1.221-0.439c-0.734-1.282-2.339-1.893-3.712-1.379c-0.748,0.28-1.343,0.838-1.677,1.571
				c-0.345,0.759-0.371,1.61-0.074,2.399c0.172,0.462,0.446,0.87,0.816,1.212c0.317,0.296,0.409,0.762,0.226,1.155
				c-0.182,0.392-0.597,0.631-1.028,0.57c-0.47-0.056-0.955-0.002-1.412,0.166c-1.561,0.587-2.346,2.369-1.746,3.971
				c0.583,1.554,2.394,2.413,3.933,1.835c0.518-0.195,1.095,0.066,1.288,0.583c0.044,0.116,0.064,0.235,0.064,0.353
				c0,0.404-0.247,0.785-0.647,0.936c-1.567,0.59-2.354,2.373-1.755,3.975c0.456,1.212,1.618,2.027,2.89,2.027
				c0.356,0,0.708-0.063,1.045-0.189c0.444-0.167,0.84-0.439,1.173-0.807C52.454,61.78,52.726,61.666,53.002,61.666z"/>
		</g>
		
			<ellipse transform="matrix(0.9363 -0.3513 0.3513 0.9363 -14.9822 23.5854)" fill="#2E3B49" cx="57.51" cy="53.083" rx="3.688" ry="3.749"/>
	</g>
	<g>
		<g>
			<path fill="#FFFFFF" d="M79.284,24.529c1.579-1.132,2.147-3.292,1.248-5.122c-1.001-2.029-3.433-2.882-5.433-1.896
				c-0.653,0.318-1.176,0.799-1.552,1.364c0.021-0.658-0.112-1.333-0.426-1.97c-1.001-2.031-3.433-2.882-5.433-1.897
				c-1.799,0.886-2.631,2.952-2.051,4.841c-1.142-1.611-3.288-2.214-5.087-1.328c-1.998,0.983-2.81,3.429-1.81,5.463
				c0.299,0.604,0.726,1.102,1.228,1.479c-0.623-0.014-1.255,0.114-1.849,0.405c-2.001,0.984-2.813,3.432-1.813,5.462
				c1.003,2.034,3.435,2.883,5.437,1.899c-2.002,0.983-2.813,3.43-1.812,5.464c1,2.031,3.434,2.882,5.434,1.897
				c0.593-0.294,1.08-0.72,1.448-1.221c-0.007,0.629,0.126,1.271,0.425,1.873c1.002,2.033,3.433,2.883,5.433,1.899
				c1.799-0.885,2.631-2.952,2.051-4.839c1.141,1.609,3.286,2.211,5.085,1.325c2.001-0.983,2.81-3.427,1.81-5.46
				c-0.346-0.705-0.868-1.265-1.482-1.66c0.722,0.075,1.465-0.043,2.16-0.382c1.996-0.986,2.809-3.431,1.81-5.465
				C83.202,24.836,81.145,23.969,79.284,24.529z"/>
			<path fill="#2E3B49" d="M70.916,44.553c-1.949,0-3.702-1.099-4.574-2.866c-0.063-0.13-0.122-0.262-0.175-0.395
				c-0.116,0.07-0.235,0.136-0.356,0.195c-0.693,0.342-1.434,0.515-2.201,0.515c-1.922,0-3.717-1.125-4.574-2.866
				c-0.601-1.221-0.697-2.6-0.272-3.882c0.081-0.242,0.178-0.476,0.291-0.699c-1.564-0.29-2.913-1.301-3.643-2.781
				c-0.601-1.22-0.696-2.598-0.271-3.881c0.428-1.288,1.329-2.325,2.539-2.921c0.123-0.061,0.247-0.115,0.373-0.165
				c-0.073-0.122-0.143-0.249-0.207-0.379c-1.242-2.526-0.226-5.578,2.265-6.804c1.397-0.688,3.075-0.66,4.437,0.017
				c0.294-1.497,1.256-2.817,2.701-3.529c0.69-0.34,1.43-0.513,2.197-0.513c1.921,0,3.716,1.125,4.574,2.865
				c0.065,0.134,0.125,0.27,0.179,0.407c0.149-0.095,0.304-0.181,0.463-0.259c0.688-0.338,1.427-0.511,2.195-0.511
				c1.92,0,3.715,1.124,4.572,2.863c0.724,1.472,0.694,3.126,0.026,4.499c1.522,0.311,2.831,1.309,3.546,2.757
				c1.239,2.523,0.224,5.575-2.263,6.804c-0.165,0.08-0.331,0.15-0.5,0.212c0.101,0.159,0.193,0.323,0.276,0.493
				c0.6,1.22,0.697,2.598,0.272,3.879c-0.427,1.287-1.328,2.324-2.538,2.919c-1.397,0.688-3.074,0.66-4.435-0.015
				c-0.294,1.497-1.255,2.817-2.701,3.528C72.423,44.381,71.684,44.553,70.916,44.553z M66.814,38.371
				c0.105,0,0.213,0.017,0.316,0.052c0.412,0.138,0.688,0.525,0.684,0.959c-0.006,0.501,0.103,0.978,0.32,1.418
				c0.733,1.486,2.633,2.166,4.096,1.446c1.338-0.658,1.983-2.192,1.536-3.647c-0.145-0.47,0.074-0.975,0.515-1.191
				c0.439-0.218,0.974-0.081,1.257,0.319c0.851,1.2,2.517,1.653,3.828,1.006c0.726-0.356,1.266-0.979,1.522-1.753
				c0.259-0.78,0.198-1.621-0.169-2.368c-0.251-0.513-0.641-0.948-1.126-1.261c-0.39-0.251-0.556-0.735-0.402-1.173
				c0.154-0.437,0.592-0.708,1.047-0.662c0.559,0.057,1.112-0.04,1.618-0.287c1.496-0.738,2.104-2.59,1.351-4.125
				c-0.662-1.339-2.227-2.038-3.635-1.617c-0.47,0.144-0.97-0.076-1.186-0.516c-0.216-0.438-0.083-0.97,0.314-1.254
				c1.215-0.871,1.607-2.498,0.934-3.868c-0.729-1.479-2.627-2.161-4.093-1.44c-0.469,0.229-0.868,0.581-1.161,1.021
				c-0.248,0.372-0.714,0.531-1.137,0.399c-0.426-0.137-0.71-0.538-0.696-0.984c0.017-0.524-0.092-1.027-0.323-1.497
				c-0.729-1.479-2.626-2.164-4.094-1.441c-1.337,0.658-1.983,2.193-1.536,3.649c0.145,0.47-0.074,0.975-0.515,1.191
				c-0.444,0.216-0.975,0.08-1.258-0.319c-0.851-1.201-2.518-1.654-3.829-1.009c-1.501,0.738-2.108,2.589-1.354,4.124
				c0.22,0.444,0.533,0.822,0.932,1.122c0.347,0.261,0.485,0.716,0.344,1.126c-0.143,0.41-0.522,0.661-0.967,0.673
				c-0.511-0.042-0.976,0.103-1.387,0.303c-0.725,0.356-1.266,0.98-1.523,1.756c-0.259,0.781-0.2,1.622,0.167,2.367
				c0.532,1.079,1.598,1.75,2.781,1.75c0.459,0,0.902-0.104,1.317-0.307c0.497-0.242,1.096-0.039,1.338,0.457
				c0.069,0.142,0.103,0.292,0.103,0.439c0,0.369-0.205,0.725-0.56,0.898c-0.725,0.356-1.266,0.979-1.523,1.755
				c-0.259,0.781-0.199,1.623,0.169,2.37c0.729,1.481,2.632,2.164,4.095,1.441c0.428-0.212,0.794-0.521,1.084-0.915
				C66.201,38.518,66.503,38.371,66.814,38.371z"/>
		</g>
		
			<ellipse transform="matrix(0.8973 -0.4414 0.4414 0.8973 -5.7487 34.0744)" fill="#2E3B49" cx="70.362" cy="29.393" rx="3.687" ry="3.747"/>
	</g>
	<g>
		<g>
			<path fill="#FFFFFF" d="M98.257,46.195c1.682-0.971,2.461-3.064,1.745-4.975c-0.796-2.119-3.133-3.205-5.22-2.421
				c-0.681,0.253-1.247,0.679-1.678,1.205c0.087-0.651,0.016-1.338-0.233-2.001c-0.795-2.119-3.131-3.203-5.218-2.421
				c-1.879,0.704-2.908,2.682-2.515,4.615c-0.98-1.714-3.056-2.524-4.935-1.818c-2.086,0.782-3.132,3.137-2.334,5.259
				c0.235,0.631,0.612,1.166,1.074,1.592c-0.618-0.075-1.259-0.013-1.882,0.221c-2.085,0.783-3.132,3.138-2.336,5.261
				c0.797,2.12,3.133,3.203,5.221,2.421c-2.088,0.782-3.132,3.138-2.336,5.26c0.796,2.12,3.133,3.204,5.219,2.42
				c0.621-0.23,1.148-0.606,1.563-1.071c-0.068,0.626,0.002,1.278,0.238,1.909c0.798,2.12,3.133,3.205,5.22,2.421
				c1.879-0.704,2.908-2.683,2.517-4.615c0.978,1.714,3.055,2.523,4.932,1.819c2.087-0.782,3.133-3.138,2.336-5.261
				c-0.275-0.732-0.739-1.341-1.313-1.792c0.71,0.142,1.462,0.101,2.188-0.173c2.085-0.782,3.13-3.136,2.335-5.259
				C102.128,46.885,100.163,45.82,98.257,46.195z"/>
			<path fill="#2E3B49" d="M88.452,65.326c-2.098,0-4.009-1.336-4.757-3.323c-0.052-0.137-0.097-0.274-0.136-0.413
				c-0.125,0.059-0.252,0.112-0.382,0.16c-0.559,0.21-1.148,0.317-1.746,0.317c-2.099,0-4.01-1.335-4.757-3.323
				c-0.478-1.274-0.438-2.655,0.109-3.89c0.104-0.234,0.224-0.459,0.359-0.671c-1.511-0.445-2.777-1.589-3.354-3.12
				c-0.987-2.635,0.322-5.572,2.921-6.549c0.129-0.048,0.259-0.091,0.391-0.128c-0.062-0.13-0.118-0.263-0.168-0.398
				c-0.479-1.271-0.44-2.652,0.108-3.887c0.551-1.241,1.549-2.185,2.811-2.658c1.463-0.549,3.13-0.352,4.415,0.45
				c0.438-1.461,1.524-2.681,3.035-3.247c0.563-0.211,1.15-0.317,1.747-0.317c2.1,0,4.012,1.336,4.758,3.323
				c0.052,0.14,0.098,0.28,0.138,0.423c0.159-0.08,0.322-0.15,0.488-0.213c0.56-0.21,1.148-0.317,1.747-0.317
				c2.099,0,4.011,1.336,4.758,3.324c0.575,1.536,0.383,3.182-0.419,4.482c1.471,0.463,2.698,1.59,3.261,3.088
				c0.986,2.636-0.323,5.572-2.92,6.547c-0.17,0.063-0.342,0.118-0.516,0.162c0.084,0.167,0.16,0.339,0.226,0.515
				c0.479,1.274,0.44,2.655-0.108,3.891c-0.551,1.241-1.55,2.185-2.813,2.658c-1.46,0.548-3.128,0.351-4.412-0.451
				c-0.439,1.461-1.526,2.682-3.036,3.247C89.639,65.219,89.05,65.326,88.452,65.326z M84.393,58.741
				c0.137,0,0.275,0.028,0.406,0.086c0.397,0.177,0.635,0.59,0.588,1.022c-0.055,0.497,0.007,0.985,0.181,1.45
				c0.584,1.554,2.393,2.413,3.932,1.835c1.396-0.523,2.19-1.986,1.888-3.48c-0.097-0.48,0.169-0.962,0.629-1.135
				c0.458-0.172,0.978,0.014,1.22,0.441c0.731,1.28,2.342,1.892,3.712,1.378c0.757-0.283,1.355-0.851,1.687-1.597
				c0.335-0.753,0.357-1.597,0.064-2.376c-0.2-0.534-0.545-1.004-0.995-1.357c-0.363-0.286-0.483-0.784-0.29-1.204
				c0.192-0.42,0.648-0.656,1.104-0.563c0.557,0.11,1.12,0.067,1.64-0.128c1.566-0.588,2.352-2.37,1.751-3.973
				c-0.522-1.391-2.021-2.247-3.457-1.965c-0.483,0.093-0.958-0.172-1.13-0.63s0.013-0.974,0.437-1.218
				c1.294-0.747,1.845-2.327,1.309-3.758c-0.583-1.553-2.392-2.412-3.932-1.835c-0.487,0.181-0.92,0.492-1.255,0.901
				c-0.284,0.348-0.763,0.466-1.172,0.284c-0.41-0.178-0.653-0.606-0.594-1.049c0.067-0.504,0.006-1.028-0.179-1.518
				c-0.582-1.552-2.387-2.414-3.931-1.836c-1.396,0.523-2.189,1.986-1.886,3.479c0.099,0.48-0.168,0.962-0.627,1.135
				c-0.456,0.174-0.977-0.013-1.221-0.439c-0.733-1.282-2.342-1.895-3.715-1.378c-0.756,0.283-1.354,0.851-1.686,1.596
				c-0.334,0.753-0.356,1.596-0.064,2.375c0.173,0.462,0.447,0.868,0.816,1.208c0.319,0.294,0.412,0.761,0.23,1.155
				c-0.182,0.394-0.598,0.622-1.029,0.573c-0.469-0.059-0.96-0.003-1.41,0.164c-1.565,0.588-2.351,2.37-1.75,3.974
				c0.455,1.211,1.615,2.025,2.886,2.025c0.357,0,0.71-0.063,1.048-0.19c0.518-0.192,1.094,0.068,1.287,0.586
				c0.043,0.115,0.063,0.234,0.063,0.351c0,0.405-0.248,0.786-0.649,0.937c-0.756,0.283-1.354,0.851-1.686,1.597
				c-0.334,0.752-0.357,1.596-0.064,2.375c0.583,1.553,2.39,2.413,3.931,1.836c0.452-0.168,0.843-0.438,1.167-0.801
				C83.84,58.858,84.113,58.741,84.393,58.741z"/>
		</g>
		<path fill="#2E3B49" d="M92.354,48.865c0.727,1.936-0.229,4.089-2.134,4.805c-1.908,0.715-4.044-0.274-4.772-2.213
			c-0.726-1.939,0.23-4.092,2.136-4.807C89.491,45.936,91.627,46.925,92.354,48.865z"/>
	</g>
	<g>
		<g>
			<path fill="#FFFFFF" d="M39.021,42.458c1.683-0.972,2.461-3.065,1.744-4.975c-0.796-2.121-3.132-3.205-5.221-2.419
				c-0.68,0.253-1.244,0.678-1.678,1.204c0.088-0.653,0.019-1.339-0.229-2.002c-0.796-2.12-3.135-3.206-5.22-2.423
				c-1.877,0.705-2.907,2.682-2.517,4.615c-0.979-1.713-3.054-2.524-4.931-1.818c-2.086,0.782-3.133,3.137-2.338,5.26
				c0.239,0.629,0.615,1.166,1.076,1.592c-0.619-0.076-1.259-0.012-1.882,0.222c-2.085,0.784-3.131,3.137-2.336,5.259
				c0.797,2.124,3.135,3.205,5.222,2.422c-2.087,0.783-3.133,3.137-2.337,5.26c0.797,2.121,3.131,3.204,5.221,2.421
				c0.62-0.233,1.146-0.605,1.562-1.07c-0.069,0.626,0.002,1.275,0.239,1.906c0.797,2.122,3.133,3.206,5.22,2.422
				c1.877-0.705,2.906-2.682,2.515-4.615c0.979,1.714,3.054,2.522,4.931,1.82c2.088-0.784,3.135-3.138,2.338-5.26
				c-0.277-0.735-0.741-1.343-1.313-1.795c0.711,0.145,1.462,0.101,2.187-0.17c2.086-0.784,3.132-3.138,2.335-5.259
				C42.892,43.146,40.93,42.082,39.021,42.458z"/>
			<path fill="#2E3B49" d="M29.218,61.588c-2.098,0-4.01-1.336-4.757-3.325c-0.051-0.136-0.096-0.272-0.135-0.411
				c-0.123,0.058-0.249,0.111-0.377,0.159c-0.565,0.212-1.154,0.319-1.752,0.319c-2.099,0-4.011-1.336-4.758-3.324
				c-0.589-1.572-0.36-3.252,0.473-4.559c-1.514-0.444-2.782-1.59-3.357-3.123c-0.986-2.634,0.324-5.569,2.921-6.546
				c0.129-0.049,0.26-0.092,0.392-0.129c-0.062-0.129-0.118-0.26-0.169-0.394c-0.988-2.641,0.322-5.577,2.921-6.552
				c1.458-0.549,3.127-0.354,4.413,0.451c0.439-1.461,1.526-2.681,3.034-3.248c0.563-0.211,1.15-0.318,1.748-0.318
				c2.1,0,4.013,1.337,4.76,3.326c0.052,0.14,0.098,0.28,0.138,0.423c0.157-0.079,0.319-0.149,0.484-0.211
				c0.562-0.211,1.151-0.318,1.751-0.318c2.098,0,4.009,1.335,4.755,3.323c0.576,1.536,0.384,3.181-0.418,4.481
				c1.471,0.463,2.697,1.591,3.261,3.09c0.988,2.633-0.321,5.569-2.92,6.547c-0.17,0.063-0.342,0.117-0.516,0.161
				c0.085,0.167,0.16,0.339,0.227,0.515c0.989,2.635-0.321,5.571-2.922,6.549c-1.465,0.548-3.128,0.349-4.412-0.452
				c-0.438,1.46-1.525,2.681-3.033,3.247C30.405,61.48,29.816,61.588,29.218,61.588z M25.158,55.005
				c0.138,0,0.276,0.028,0.407,0.087c0.397,0.177,0.635,0.591,0.587,1.023c-0.055,0.493,0.006,0.979,0.181,1.443
				c0.585,1.556,2.395,2.416,3.933,1.838c1.396-0.523,2.188-1.987,1.886-3.48c-0.097-0.48,0.169-0.962,0.629-1.135
				c0.458-0.172,0.976,0.014,1.22,0.44c0.732,1.281,2.343,1.893,3.712,1.38c1.567-0.589,2.354-2.37,1.752-3.972
				c-0.201-0.534-0.546-1.006-0.997-1.362c-0.363-0.286-0.481-0.785-0.287-1.205s0.65-0.653,1.106-0.559
				c0.199,0.04,0.401,0.061,0.603,0.061l0,0c0.353,0,0.701-0.063,1.035-0.188c1.564-0.589,2.35-2.37,1.748-3.971
				c-0.522-1.394-2.028-2.251-3.457-1.967c-0.474,0.095-0.956-0.172-1.13-0.63c-0.172-0.458,0.013-0.973,0.437-1.218
				c1.295-0.747,1.845-2.327,1.308-3.757c-0.583-1.554-2.394-2.411-3.932-1.835c-0.493,0.184-0.915,0.487-1.259,0.904
				c-0.283,0.345-0.764,0.457-1.171,0.281c-0.41-0.179-0.651-0.607-0.592-1.051c0.068-0.505,0.008-1.03-0.175-1.518
				c-0.583-1.553-2.393-2.416-3.932-1.837c-1.396,0.523-2.189,1.988-1.888,3.48c0.097,0.481-0.17,0.962-0.629,1.135
				c-0.46,0.17-0.977-0.014-1.22-0.44c-0.733-1.284-2.346-1.891-3.71-1.379c-1.568,0.588-2.354,2.37-1.754,3.974
				c0.176,0.461,0.451,0.869,0.818,1.208c0.318,0.294,0.411,0.761,0.229,1.155c-0.183,0.394-0.598,0.633-1.029,0.571
				c-0.474-0.055-0.958-0.002-1.409,0.166c-1.564,0.588-2.35,2.37-1.75,3.972c0.455,1.212,1.614,2.027,2.886,2.027
				c0.357,0,0.71-0.064,1.048-0.191c0.517-0.19,1.093,0.067,1.288,0.585c0.043,0.116,0.063,0.234,0.063,0.351
				c0,0.405-0.247,0.786-0.648,0.938c-1.567,0.588-2.353,2.37-1.752,3.973c0.584,1.553,2.39,2.414,3.934,1.835
				c0.451-0.17,0.844-0.439,1.166-0.8C24.606,55.121,24.88,55.005,25.158,55.005z"/>
		</g>
		<path fill="#2E3B49" d="M33.119,45.125c0.729,1.938-0.228,4.091-2.134,4.809c-1.907,0.713-4.043-0.278-4.771-2.215
			c-0.727-1.938,0.228-4.09,2.137-4.806C30.255,42.197,32.391,43.189,33.119,45.125z"/>
	</g>
	<path fill="#FFFFFF" d="M61.389,87.083c-0.59,0-1.182-0.207-1.658-0.63c-1.032-0.916-1.127-2.496-0.211-3.529l15.245-17.189
		c0.917-1.032,2.494-1.129,3.529-0.211c1.032,0.916,1.127,2.496,0.211,3.529L63.26,86.242
		C62.766,86.799,62.079,87.083,61.389,87.083z"/>
</g>
</svg>
