<?xml version="1.0" encoding="utf-8"?>
<!-- Generator: Adobe Illustrator 16.0.0, SVG Export Plug-In . SVG Version: 6.00 Build 0)  -->
<!DOCTYPE svg PUBLIC "-//W3C//DTD SVG 1.1//EN" "http://www.w3.org/Graphics/SVG/1.1/DTD/svg11.dtd">
<svg version="1.1" id="Layer_1" xmlns="http://www.w3.org/2000/svg" xmlns:xlink="http://www.w3.org/1999/xlink" x="0px" y="0px"
	 width="120px" height="120px" viewBox="0 0 120 120" enable-background="new 0 0 120 120" xml:space="preserve">
<g>
	<rect x="30" y="49" fill="#6A849B" width="79" height="55"/>
	<path fill="#2E3B49" d="M109,105H30c-0.553,0-1-0.447-1-1V49c0-0.553,0.447-1,1-1h79c0.553,0,1,0.447,1,1v55
		C110,104.553,109.553,105,109,105z M31,103h77V50H31V103z"/>
</g>
<g>
	<rect x="30" y="93" fill="#FFFFFF" width="79" height="11"/>
	<path fill="#2E3B49" d="M109,105H30c-0.553,0-1-0.447-1-1V93c0-0.553,0.447-1,1-1h79c0.553,0,1,0.447,1,1v11
		C110,104.553,109.553,105,109,105z M31,103h77v-9H31V103z"/>
</g>
<g>
	<rect x="30" y="49" fill="#FFFFFF" width="79" height="11"/>
	<path fill="#2E3B49" d="M109,61H30c-0.553,0-1-0.447-1-1V49c0-0.553,0.447-1,1-1h79c0.553,0,1,0.447,1,1v11
		C110,60.553,109.553,61,109,61z M31,59h77v-9H31V59z"/>
</g>
<g>
	<polygon fill="#6A849B" points="30,49 30,104 8,92.3 8.122,36.739 	"/>
	<path fill="#2E3B49" d="M30,105c-0.161,0-0.322-0.039-0.47-0.117l-22-11.7C7.203,93.009,6.999,92.668,7,92.297l0.122-55.56
		c0.001-0.354,0.189-0.683,0.495-0.861c0.307-0.179,0.684-0.183,0.994-0.009l21.878,12.26C30.805,48.305,31,48.639,31,49v55
		c0,0.352-0.184,0.676-0.485,0.857C30.356,104.952,30.179,105,30,105z M9.001,91.699L29,102.336v-52.75L9.118,38.443L9.001,91.699z"
		/>
</g>
<g>
	<polygon fill="#FFFFFF" points="30,93 30,104.003 8,92.3 8.122,80.875 	"/>
	<path fill="#2E3B49" d="M30,105.003c-0.161,0-0.322-0.039-0.47-0.117l-22-11.703C7.2,93.008,6.996,92.662,7,92.289l0.122-11.425
		c0.004-0.353,0.192-0.677,0.497-0.854c0.304-0.178,0.68-0.183,0.987-0.011l21.878,12.125C30.803,92.302,31,92.637,31,93v11.003
		c0,0.351-0.185,0.677-0.485,0.857C30.356,104.955,30.179,105.003,30,105.003z M9.007,91.703L29,102.338v-8.749L9.104,82.563
		L9.007,91.703z"/>
</g>
<g>
	<polygon fill="#FFFFFF" points="30,49 30,60 8.003,47.688 8.122,36.739 	"/>
	<path fill="#2E3B49" d="M30,61c-0.168,0-0.337-0.043-0.488-0.127L7.515,48.561c-0.319-0.18-0.516-0.518-0.512-0.884l0.119-10.948
		c0.004-0.354,0.193-0.678,0.499-0.855c0.306-0.176,0.681-0.18,0.99-0.006l21.878,12.26C30.805,48.305,31,48.639,31,49v11
		c0,0.355-0.188,0.684-0.494,0.863C30.35,60.954,30.175,61,30,61z M9.01,47.105L29,58.295v-8.709L9.104,38.436L9.01,47.105z"/>
</g>
<g>
	<path fill="#6A849B" d="M8.122,36.739c-0.095-10.925,6.271-13.1,12.164-13.79l75.109,0.376C108.557,24.452,109,41.009,109,49H30
		L8.122,36.739z"/>
	<path fill="#2E3B49" d="M109.02,50c-0.005,0-0.013,0-0.02,0H30c-0.171,0-0.34-0.044-0.489-0.127L7.633,37.611
		c-0.313-0.176-0.508-0.505-0.511-0.863c-0.102-11.744,6.92-14.074,13.048-14.792c0.039-0.005,0.067-0.011,0.121-0.007L95.4,22.325
		c14.462,1.235,14.599,19.372,14.6,26.475c0.013,0.065,0.02,0.132,0.02,0.2C110.02,49.553,109.572,50,109.02,50z M30.261,48h77.734
		c-0.092-9.998-1.682-22.736-12.685-23.678l-74.968-0.373c-5.772,0.686-11.097,2.67-11.22,12.205L30.261,48z"/>
</g>
<path fill="#2E3B49" d="M30.001,50c-0.011,0-0.021,0-0.03,0c-0.553-0.017-0.986-0.478-0.971-1.029
	c0.439-14.833-0.256-21.195-2.563-23.545C25.208,24.176,23.361,24,20.762,24c-0.004,0-0.008,0-0.012,0c-0.547,0-0.993-0.465-1-1.014
	c-0.007-0.553,0.436-1.018,0.988-1.024c3.013-0.038,5.402,0.292,7.125,2.044c2.813,2.863,3.605,9.177,3.137,25.027
	C30.983,49.574,30.539,50,30.001,50z"/>
<g>
	<path fill="#FFFFFF" d="M60,47.928c0-7.991-0.119-23.518-13.281-24.646l18,0.063C77.881,24.471,78,39.937,78,47.928v0.752V79H60
		V48.68V47.928z"/>
	<path fill="#2E3B49" d="M78,80H60c-0.553,0-1-0.447-1-1V47.928c0-7.332,0-22.59-12.367-23.65c-0.534-0.045-0.937-0.646-0.913-1.182
		C45.743,22.562,46.184,22,46.719,22c0,0,0.002,0,0.004,0l18,0.203C79,23.422,79,40.02,79,47.928V79C79,79.553,78.553,80,78,80z
		 M61,78h16V47.928c0-7.873,0-22.529-12.366-23.588l-11.438-0.037C61,29.188,61,41.434,61,47.928V78z"/>
</g>
<path fill="#FFFFFF" d="M101.5,86.5c-1.381,0-2.5-1.119-2.5-2.5V65c0-1.381,1.119-2.5,2.5-2.5s2.5,1.119,2.5,2.5v19
	C104,85.381,102.881,86.5,101.5,86.5z"/>
<path fill="#FFFFFF" d="M101.044,42.588c-1.297,0-2.389-1.008-2.476-2.32c-0.005-0.063-0.605-7.258-6.48-10.45
	c-1.205-0.655-1.651-2.163-0.996-3.368c0.655-1.207,2.165-1.651,3.369-0.997c8.314,4.519,9.038,14.083,9.064,14.487
	c0.091,1.369-0.946,2.553-2.314,2.643C101.155,42.586,101.1,42.588,101.044,42.588z"/>
<path fill="#2E3B49" d="M72.677,62.109c0-1.441-1.106-2.608-2.546-2.608s-2.708,1.167-2.708,2.608c0,1.111,0.577,2.053,1.577,2.43
	V69h2v-4.51C72,64.085,72.677,63.174,72.677,62.109z"/>
</svg>
