<?xml version="1.0" encoding="utf-8"?>
<!-- Generator: Adobe Illustrator 16.0.0, SVG Export Plug-In . SVG Version: 6.00 Build 0)  -->
<!DOCTYPE svg PUBLIC "-//W3C//DTD SVG 1.1//EN" "http://www.w3.org/Graphics/SVG/1.1/DTD/svg11.dtd">
<svg version="1.1" id="Layer_1" xmlns="http://www.w3.org/2000/svg" xmlns:xlink="http://www.w3.org/1999/xlink" x="0px" y="0px"
	 width="120px" height="120px" viewBox="0 0 120 120" enable-background="new 0 0 120 120" xml:space="preserve">
<g>
	<g>
		<g>
			<path fill="#FFFFFF" d="M90.826,26.161c0.063-3.204-0.05-5.231-0.05-5.231l-31.309-0.018h-0.33L27.829,20.93
				c0,0-0.116,2.027-0.049,5.231H7.035v3.433c0,0.774,0.131,19.192,11.503,29.281c4.736,4.208,10.646,6.317,17.626,6.317
				c1.056,0,2.145-0.064,3.233-0.146c3.96,5.411,8.536,9.225,13.683,11.107v15.035H37.978v9.408h-5v5.263h52.65v-5.263h-4.999
				v-9.408H65.523V76.154c5.134-1.883,9.724-5.696,13.685-11.107c1.107,0.081,2.176,0.146,3.231,0.146
				c6.98,0,12.892-2.109,17.628-6.317c11.371-10.089,11.503-28.507,11.503-29.281v-3.433H90.826z M23.094,53.774
				c-6.49-5.744-8.418-15.583-8.979-20.765h14.061c0.597,6.45,1.983,14.508,5.218,21.573c0.593,1.303,1.219,2.538,1.848,3.746
				C30.406,58.132,26.327,56.628,23.094,53.774L23.094,53.774z M95.512,53.774c-3.232,2.854-7.312,4.357-12.146,4.555
				c0.642-1.208,1.252-2.443,1.847-3.746c3.235-7.065,4.638-15.123,5.218-21.573h14.06C103.926,38.191,102,48.03,95.512,53.774
				L95.512,53.774z M95.512,53.774"/>
			<path fill="#2E3B49" d="M85.628,106.86h-52.65c-0.553,0-1-0.447-1-1v-5.263c0-0.553,0.447-1,1-1h4v-8.408c0-0.553,0.447-1,1-1
				H52.08V76.842c-4.828-1.932-9.25-5.547-13.159-10.758c-0.854,0.058-1.807,0.108-2.757,0.108c-7.229,0-13.384-2.21-18.29-6.569
				C6.17,49.239,6.035,30.391,6.035,29.594v-3.433c0-0.553,0.447-1,1-1h19.729c-0.028-2.609,0.062-4.214,0.066-4.289
				c0.03-0.528,0.468-0.942,0.997-0.942l31.64-0.018l31.31,0.018c0.53,0,0.968,0.415,0.997,0.944
				c0.005,0.075,0.092,1.679,0.066,4.287h19.729c0.553,0,1,0.447,1,1v3.433c0,0.797-0.135,19.645-11.839,30.029
				c-4.906,4.359-11.061,6.569-18.292,6.569c-0.932,0-1.864-0.049-2.755-0.109c-3.906,5.206-8.329,8.821-13.161,10.759v13.348
				h14.105c0.553,0,1,0.447,1,1v8.408h3.999c0.553,0,1,0.447,1,1v5.263C86.628,106.413,86.181,106.86,85.628,106.86z M33.978,104.86
				h50.65v-3.263h-3.999c-0.553,0-1-0.447-1-1v-8.408H65.523c-0.553,0-1-0.447-1-1V76.154c0-0.42,0.262-0.794,0.655-0.938
				c4.85-1.779,9.298-5.398,13.223-10.76c0.204-0.277,0.541-0.428,0.88-0.406c1.014,0.074,2.098,0.143,3.158,0.143
				c6.727,0,12.434-2.041,16.964-6.065c11.04-9.795,11.167-27.772,11.167-28.533v-2.433H90.826c-0.269,0-0.526-0.108-0.714-0.3
				c-0.188-0.192-0.291-0.451-0.286-0.72c0.037-1.86,0.014-3.326-0.013-4.213l-30.676-0.017l-30.347,0.017
				c-0.026,0.886-0.05,2.352-0.011,4.211c0.006,0.27-0.098,0.529-0.285,0.721c-0.188,0.192-0.446,0.301-0.715,0.301H8.035v2.433
				c0,0.761,0.127,18.739,11.167,28.533c4.53,4.024,10.236,6.065,16.962,6.065c1.094,0,2.211-0.072,3.159-0.143
				c0.34-0.021,0.678,0.129,0.881,0.406c3.928,5.367,8.376,8.987,13.22,10.759c0.395,0.145,0.656,0.52,0.656,0.939v15.035
				c0,0.553-0.447,1-1,1H38.978v8.408c0,0.553-0.447,1-1,1h-4V104.86z M83.366,59.329c-0.343,0-0.663-0.176-0.847-0.468
				c-0.19-0.303-0.204-0.685-0.036-1.001c0.645-1.214,1.239-2.422,1.819-3.692c2.622-5.727,4.396-13.073,5.132-21.248
				c0.047-0.516,0.479-0.91,0.996-0.91h14.06c0.284,0,0.555,0.121,0.744,0.332c0.19,0.212,0.28,0.494,0.25,0.776
				c-0.593,5.44-2.59,15.456-9.31,21.405c-3.377,2.98-7.672,4.597-12.768,4.805C83.394,59.329,83.38,59.329,83.366,59.329z
				 M91.341,34.01c-0.81,8.133-2.563,15.191-5.219,20.989c-0.342,0.749-0.688,1.476-1.047,2.195c3.859-0.446,7.142-1.845,9.774-4.17
				c5.793-5.128,7.811-13.7,8.513-19.015H91.341z M35.24,59.329c-0.014,0-0.027,0-0.041-0.001
				c-5.095-0.208-9.391-1.824-12.768-4.804c-6.729-5.956-8.723-15.969-9.312-21.407c-0.03-0.282,0.061-0.564,0.25-0.775
				s0.46-0.332,0.744-0.332h14.061c0.517,0,0.948,0.394,0.996,0.908c0.772,8.349,2.498,15.498,5.131,21.249
				c0.618,1.359,1.27,2.633,1.825,3.7c0.165,0.316,0.148,0.697-0.043,0.998C35.9,59.155,35.582,59.329,35.24,59.329z M15.241,34.01
				c0.699,5.312,2.715,13.882,8.516,19.016c2.634,2.324,5.918,3.724,9.779,4.17c-0.346-0.691-0.704-1.431-1.054-2.198
				c-2.629-5.743-4.383-12.8-5.215-20.987H15.241z"/>
		</g>
	</g>
	<g>
		<g>
			<path fill="#6A849B" d="M37.978,100.678h-5v5.263h52.65v-5.263h-4.999H37.978z"/>
			<path fill="#2E3B49" d="M85.628,106.94h-52.65c-0.553,0-1-0.447-1-1v-5.263c0-0.553,0.447-1,1-1h52.65c0.553,0,1,0.447,1,1v5.263
				C86.628,106.493,86.181,106.94,85.628,106.94z M33.978,104.94h50.65v-3.263h-50.65V104.94z"/>
		</g>
	</g>
	<g>
		<g>
			<path fill="#6A849B" d="M79.238,65.097c1.107,0.081,2.177,0.147,3.233,0.147c6.979,0,12.891-2.111,17.627-6.32
				c11.37-10.086,11.503-28.506,11.503-29.28v-3.432H90.854l-0.395,6.847h14.062c-0.56,5.184-2.489,15.022-8.977,20.764l0,0
				c-3.234,2.856-7.315,4.359-12.147,4.558L79.238,65.097z M83.397,58.38 M95.545,53.822"/>
			<path fill="#2E3B49" d="M82.472,66.244c-1.042,0-2.075-0.06-3.307-0.15c-0.349-0.025-0.658-0.231-0.817-0.543
				s-0.144-0.684,0.04-0.98l4.159-6.717c0.175-0.282,0.479-0.459,0.81-0.473c4.627-0.19,8.505-1.64,11.526-4.309
				c5.803-5.135,7.815-13.703,8.512-19.014H90.46c-0.275,0-0.538-0.113-0.728-0.313c-0.188-0.2-0.287-0.47-0.271-0.744l0.395-6.847
				c0.03-0.529,0.468-0.942,0.998-0.942h20.747c0.553,0,1,0.447,1,1v3.432c0,0.797-0.135,19.646-11.839,30.028
				C95.855,64.033,89.701,66.244,82.472,66.244z M80.967,64.204c0.52,0.025,1.014,0.04,1.505,0.04
				c6.725,0,12.432-2.042,16.963-6.067c11.04-9.794,11.167-27.772,11.167-28.533v-2.432H91.799l-0.279,4.847h13.002
				c0.284,0,0.555,0.121,0.744,0.332s0.28,0.493,0.25,0.775c-0.587,5.438-2.576,15.448-9.308,21.405
				c-3.258,2.877-7.372,4.483-12.236,4.78L80.967,64.204z"/>
		</g>
	</g>
	<g>
		<g>
			<path fill="#6A849B" d="M35.211,58.38c-4.834-0.198-8.91-1.701-12.146-4.558l0,0c-6.487-5.741-8.414-15.58-8.978-20.764h14.061
				l-0.395-6.847H7.008v3.432c0,0.774,0.132,19.194,11.505,29.28c4.735,4.209,10.645,6.32,17.624,6.32
				c1.059,0,2.127-0.066,3.234-0.147L35.211,58.38z M35.211,58.38 M23.065,53.822"/>
			<path fill="#2E3B49" d="M36.137,66.244c-7.229,0-13.382-2.212-18.288-6.573C6.143,49.29,6.008,30.44,6.008,29.644v-3.432
				c0-0.553,0.447-1,1-1h20.746c0.53,0,0.968,0.413,0.998,0.942l0.384,6.648c0.021,0.081,0.032,0.167,0.032,0.256
				c0,0.553-0.447,1-1,1c-0.005,0.001-0.012,0.001-0.02,0H15.216c0.7,5.314,2.718,13.887,8.513,19.015
				c3.021,2.668,6.899,4.118,11.523,4.308c0.331,0.014,0.635,0.19,0.81,0.473l4.16,6.717c0.184,0.297,0.199,0.669,0.04,0.98
				c-0.158,0.312-0.469,0.518-0.817,0.543C38.213,66.185,37.18,66.244,36.137,66.244z M8.008,27.212v2.432
				c0,0.761,0.127,18.74,11.168,28.532c4.531,4.027,10.237,6.068,16.961,6.068c0.491,0,0.985-0.015,1.505-0.04l-3.005-4.853
				c-4.862-0.297-8.976-1.903-12.233-4.779c-6.723-5.95-8.718-15.965-9.31-21.405c-0.03-0.282,0.061-0.564,0.25-0.776
				c0.189-0.211,0.46-0.332,0.744-0.332h13.001l-0.279-4.847H8.008z"/>
		</g>
	</g>
	<path fill="#6A849B" d="M65.242,70.389c-0.826,0-1.635-0.409-2.111-1.158c-0.741-1.164-0.397-2.71,0.768-3.451
		c0.123-0.079,12.718-8.282,15.918-22.03c0.313-1.345,1.652-2.187,3.001-1.868c1.345,0.313,2.182,1.656,1.868,3.001
		C81.014,60.66,67.17,69.624,66.582,69.998C66.166,70.263,65.702,70.389,65.242,70.389z"/>
	<g>
		<path fill="#2E3B49" d="M41.426,48.099h8.213v2.391H38.813v-2.457c0-1.727,0.612-2.981,1.838-3.764
			c0.413-0.266,0.893-0.501,1.438-0.708l2.944-1.129c0.649-0.251,1.125-0.564,1.428-0.941c0.303-0.376,0.454-0.845,0.454-1.405
			s-0.199-1.029-0.598-1.406c-0.398-0.376-0.967-0.564-1.705-0.564s-1.347,0.178-1.826,0.531c-0.479,0.354-0.757,0.879-0.83,1.572
			h-2.9c0.03-1.402,0.568-2.502,1.616-3.299c0.959-0.723,2.251-1.085,3.874-1.085c1.49,0,2.723,0.399,3.697,1.196
			c0.988,0.826,1.483,1.837,1.483,3.032s-0.299,2.151-0.896,2.867s-1.524,1.316-2.778,1.804l-2.989,1.151
			c-0.575,0.222-0.992,0.469-1.25,0.741c-0.259,0.273-0.388,0.624-0.388,1.052V48.099z"/>
		<path fill="#2E3B49" d="M55.726,41.745c0.797-0.133,1.558-0.199,2.28-0.199c1.49,0,2.679,0.358,3.564,1.073
			c0.886,0.717,1.328,1.746,1.328,3.089c0,1.461-0.495,2.664-1.483,3.608c-1.048,0.988-2.368,1.482-3.962,1.482
			c-1.58,0-2.842-0.398-3.786-1.195c-0.988-0.826-1.498-1.962-1.527-3.409h2.679c0,0.753,0.251,1.307,0.753,1.66
			c0.501,0.354,1.144,0.531,1.926,0.531s1.428-0.254,1.937-0.764c0.51-0.509,0.764-1.146,0.764-1.914
			c0-1.462-0.988-2.192-2.966-2.192h-4.384l0.665-7.394h8.611v2.391h-6.088L55.726,41.745z"/>
		<path fill="#2E3B49" d="M68.145,35.834c0.398,0,0.782,0.07,1.151,0.211s0.693,0.351,0.975,0.631
			c0.604,0.575,0.907,1.409,0.907,2.501c0,1.078-0.303,1.919-0.907,2.524c-0.562,0.561-1.277,0.841-2.147,0.841
			c-0.842,0-1.543-0.28-2.104-0.841c-0.605-0.605-0.907-1.446-0.907-2.524c0-1.092,0.302-1.926,0.907-2.501
			C66.596,36.115,67.304,35.834,68.145,35.834z M75.849,36.122h2.635l-9.719,14.367h-2.656L75.849,36.122z M69.207,39.177
			c0-1.121-0.361-1.682-1.084-1.682c-0.709,0-1.063,0.561-1.063,1.682c0,1.137,0.354,1.705,1.063,1.705
			C68.846,40.882,69.207,40.313,69.207,39.177z M76.446,44.069c0.841,0,1.55,0.28,2.125,0.842c0.605,0.575,0.908,1.409,0.908,2.501
			c0,1.093-0.303,1.94-0.908,2.546c-0.561,0.561-1.27,0.841-2.125,0.841c-0.856,0-1.564-0.28-2.125-0.841
			c-0.605-0.605-0.908-1.453-0.908-2.546c0-1.092,0.303-1.926,0.908-2.501C74.896,44.35,75.605,44.069,76.446,44.069z
			 M76.446,45.729c-0.708,0-1.063,0.564-1.063,1.693c0,1.13,0.354,1.694,1.063,1.694c0.31,0,0.568-0.13,0.774-0.388
			c0.207-0.258,0.311-0.693,0.311-1.307c0-0.612-0.104-1.047-0.311-1.306C77.015,45.859,76.756,45.729,76.446,45.729z"/>
	</g>
</g>
</svg>
