<?xml version="1.0" encoding="utf-8"?>
<!-- Generator: Adobe Illustrator 16.0.0, SVG Export Plug-In . SVG Version: 6.00 Build 0)  -->
<!DOCTYPE svg PUBLIC "-//W3C//DTD SVG 1.1//EN" "http://www.w3.org/Graphics/SVG/1.1/DTD/svg11.dtd">
<svg version="1.1" id="Layer_1" xmlns="http://www.w3.org/2000/svg" xmlns:xlink="http://www.w3.org/1999/xlink" x="0px" y="0px"
	 width="120px" height="120px" viewBox="0 0 120 120" enable-background="new 0 0 120 120" xml:space="preserve">
<g>
	<g>
		<g>
			<path fill="#FFFFFF" d="M99.859,25.038L34.394,62.613c-11.303,6.483-16.873,19.725-13.603,32.343l4.602,17.768
				c0.303,1.187,1.38,2.02,2.604,2.02l0,0c1.488,0,2.694-1.209,2.694-2.698V98.647c0-10.114,6.57-19.057,16.225-22.085l27.406-8.585
				c10.654-3.343,18.981-11.707,22.272-22.376l5.729-18.596C102.775,25.537,101.191,24.271,99.859,25.038z"/>
			<path fill="#2E3B49" d="M27.997,115.743c-1.688,0-3.157-1.14-3.573-2.772l-4.601-17.764
				c-3.373-13.014,2.414-26.773,14.072-33.461l65.466-37.575c1.169-0.673,2.726-0.329,3.519,0.745
				c0.508,0.688,0.653,1.557,0.399,2.385l-5.729,18.596c-3.388,10.982-11.96,19.594-22.929,23.035l-27.407,8.585
				C37.93,80.43,31.691,88.921,31.691,98.647v13.397C31.691,114.084,30.034,115.743,27.997,115.743z M100.703,25.807
				c-0.116,0-0.231,0.033-0.345,0.098L34.892,63.48c-10.88,6.24-16.28,19.081-13.133,31.225l4.602,17.768
				c0.191,0.75,0.864,1.271,1.637,1.271c0.935,0,1.694-0.762,1.694-1.698V98.647c0-10.604,6.802-19.864,16.926-23.039l27.406-8.585
				c10.341-3.244,18.422-11.363,21.615-21.717l5.729-18.596c0.086-0.277-0.005-0.482-0.097-0.606
				C101.136,25.921,100.918,25.807,100.703,25.807z"/>
		</g>
		<g>
			<path fill="#FFFFFF" d="M47.933,79.799c-2.794,0.875-5.261,2.323-7.326,4.181l15.631,3.67
				c11.051,2.599,22.479-2.437,28.019-12.341l2.594-4.635c0.745-1.339-0.524-2.906-1.987-2.446L47.933,79.799z"/>
			<path fill="#2E3B49" d="M62.067,89.327C62.066,89.327,62.067,89.327,62.067,89.327c-2.033,0-4.072-0.237-6.059-0.704
				l-15.631-3.67c-0.362-0.086-0.647-0.365-0.74-0.726s0.023-0.743,0.3-0.991c2.243-2.018,4.833-3.495,7.696-4.392l36.93-11.571
				c1.185-0.375,2.504,0.143,3.133,1.213c0.487,0.828,0.498,1.828,0.027,2.674l-2.595,4.637
				C80.46,84.143,71.623,89.327,62.067,89.327z M42.819,83.473l13.646,3.203c1.838,0.432,3.722,0.651,5.601,0.651
				c8.833,0.001,17.001-4.792,21.316-12.507l2.594-4.635c0.169-0.303,0.069-0.561-0.005-0.686c-0.127-0.217-0.439-0.435-0.81-0.318
				L48.231,80.753C46.277,81.365,44.464,82.277,42.819,83.473z"/>
		</g>
		<g>
			<path fill="#FFFFFF" d="M36.827,88.592l7.264,8.222c6.272,7.097,17.133,7.684,24.135,1.307l4.294-3.915
				c1.01-0.921,0.574-2.595-0.754-2.902l-31.159-7.323C39.115,85.318,37.845,86.871,36.827,88.592z"/>
			<path fill="#2E3B49" d="M56.809,103.545C56.808,103.545,56.808,103.545,56.809,103.545c-5.151-0.001-10.059-2.213-13.467-6.069
				l-7.264-8.222c-0.287-0.325-0.332-0.798-0.111-1.171c1.071-1.813,2.408-3.443,3.972-4.848c0.243-0.218,0.58-0.302,0.896-0.229
				l31.159,7.323c0.974,0.226,1.738,0.969,1.992,1.938c0.254,0.973-0.05,1.998-0.793,2.676l-4.294,3.916
				C65.582,101.881,61.287,103.545,56.809,103.545z M38.067,88.486l6.772,7.665c3.029,3.427,7.391,5.393,11.967,5.394
				c0,0,0.001,0,0.002,0c3.98,0,7.795-1.479,10.743-4.164l4.294-3.914c0.281-0.258,0.237-0.57,0.205-0.692
				c-0.031-0.122-0.145-0.413-0.511-0.497l-30.646-7.203C39.819,86.095,38.872,87.238,38.067,88.486z"/>
		</g>
		<g>
			<path fill="#FFFFFF" d="M34.082,98.647v5.342c0,5.483,5.125,9.526,10.451,8.249l8.084-1.937c1.281-0.256,1.799-1.807,0.934-2.783
				L36.827,88.592C35.074,91.561,34.082,95.004,34.082,98.647z"/>
			<path fill="#2E3B49" d="M42.543,113.476L42.543,113.476c-5.217-0.001-9.461-4.256-9.461-9.486v-5.342
				c0-3.716,0.997-7.368,2.884-10.563c0.163-0.276,0.447-0.457,0.767-0.488c0.319-0.027,0.633,0.095,0.844,0.334L54.3,106.856
				c0.646,0.729,0.848,1.719,0.536,2.645c-0.311,0.925-1.067,1.591-2.022,1.781l-8.047,1.929
				C44.034,113.387,43.286,113.476,42.543,113.476z M37.024,90.326c-1.274,2.579-1.942,5.43-1.942,8.321v5.342
				c0,4.128,3.347,7.485,7.46,7.486h0.001c0.586,0,1.177-0.071,1.757-0.21l8.084-1.937c0.391-0.079,0.519-0.352,0.557-0.466
				s0.103-0.41-0.138-0.682L37.024,90.326z"/>
		</g>
	</g>
	<path fill="#2E3B49" d="M72.676,28.89c-3.294-3.766-1.9-10.959-1.9-10.959c-8.308,7.755-3.11,20.068-3.11,20.068
		c-5.055-4.701-2.135-9.993-2.621-14.417c-1.229-11.469-8.682-14.501-8.682-14.501c1.31,1.64,1.799,8.684-1.966,14.666
		c-3.77,5.978-2.705,11.959-2.705,11.959s-2.619-2.541-1.064-6.88c1.557-4.346-2.455-7.701-2.455-7.701
		c1.147,8.107-4.427,5.735-4.427,18.84c0,13.108,10.976,15.646,10.976,15.646s-5.325-1.309,5.044-22.525
		c10.358,21.217,5.029,22.525,5.029,22.525h0.495C79.789,51.924,78.707,35.771,72.676,28.89z"/>
	<path fill="#6A849B" d="M25.279,94c-0.021,0-0.044,0-0.065,0c-1.381,0-2.471-1.045-2.435-2.426
		c0.317-12.258,4.784-18.202,10.592-24.791c0.911-1.036,2.492-1.1,3.528-0.188c1.035,0.913,1.135,2.51,0.222,3.547
		c-5.298,6.01-9.069,10.953-9.344,21.553C27.742,93.053,26.63,94,25.279,94z"/>
</g>
</svg>
