<?xml version="1.0" encoding="utf-8"?>
<!-- Generator: Adobe Illustrator 16.0.0, SVG Export Plug-In . SVG Version: 6.00 Build 0)  -->
<!DOCTYPE svg PUBLIC "-//W3C//DTD SVG 1.1//EN" "http://www.w3.org/Graphics/SVG/1.1/DTD/svg11.dtd">
<svg version="1.1" id="Layer_1" xmlns="http://www.w3.org/2000/svg" xmlns:xlink="http://www.w3.org/1999/xlink" x="0px" y="0px"
	 width="120px" height="120px" viewBox="0 0 120 120" enable-background="new 0 0 120 120" xml:space="preserve">
<g>
	<g>
		<path fill="#FFFFFF" d="M98.295,48.957c-0.049,0-0.097,0.015-0.147,0.015c0.938-2.179,1.469-4.579,1.469-7.106
			c0-9.904-8.028-17.932-17.935-17.932c-3.502,0-6.753,1.014-9.514,2.752c-3.734-9.077-12.655-15.472-23.078-15.472
			c-13.779,0-24.952,11.172-24.952,24.953c0,1.043,0.084,2.062,0.209,3.069c-0.07,0-0.14-0.012-0.209-0.012
			c-9.243,0-16.731,7.491-16.731,16.736c0,9.235,7.488,16.729,16.731,16.729h74.157c6.555,0,11.866-5.313,11.866-11.869
			C110.161,54.27,104.85,48.957,98.295,48.957z"/>
		<path fill="#2E3B49" d="M98.295,73.689H24.138c-9.777,0-17.731-7.953-17.731-17.729c0-9.478,7.469-17.242,16.828-17.714
			c-0.065-0.736-0.097-1.414-0.097-2.08c0-14.311,11.643-25.953,25.952-25.953c10.176,0,19.295,5.865,23.543,15.039
			c2.775-1.521,5.881-2.319,9.049-2.319c10.44,0,18.935,8.493,18.935,18.932c0,2.108-0.346,4.173-1.029,6.156
			c6.49,0.649,11.574,6.142,11.574,12.799C111.161,67.916,105.39,73.689,98.295,73.689z M24.153,40.227
			c-8.692,0-15.747,7.059-15.747,15.734c0,8.673,7.057,15.729,15.731,15.729h74.157c5.991,0,10.866-4.876,10.866-10.869
			c0-5.99-4.875-10.863-10.866-10.863c0.003,0.007-0.071,0.015-0.147,0.015c-0.337,0-0.65-0.169-0.835-0.45
			c-0.186-0.281-0.217-0.637-0.083-0.945c0.92-2.137,1.387-4.395,1.387-6.711c0-9.336-7.597-16.932-16.935-16.932
			c-3.176,0-6.281,0.898-8.98,2.599c-0.252,0.157-0.557,0.196-0.838,0.105c-0.281-0.09-0.508-0.299-0.62-0.571
			c-3.712-9.022-12.407-14.853-22.153-14.853c-13.207,0-23.952,10.745-23.952,23.953c0,0.902,0.064,1.839,0.201,2.946
			c0.035,0.284-0.053,0.57-0.243,0.785c-0.231,0.263-0.589,0.36-0.938,0.328C24.156,40.227,24.154,40.227,24.153,40.227z"/>
	</g>
	<path fill="#6A849B" d="M90.678,67.344c-0.972,0-1.947-0.05-2.89-0.098c-0.898-0.046-1.748-0.083-2.509-0.085
		c-0.38,0.004-2.165-0.015-3.701-0.029c-1.093-0.011-2.057-0.02-2.266-0.02c-1.381,0-2.5-1.119-2.5-2.5s1.119-2.5,2.5-2.5
		c0.214,0,1.197,0.009,2.313,0.02c1.508,0.015,3.274,0.03,3.629,0.029c0.917,0.007,1.859,0.044,2.789,0.092
		c2.256,0.116,5.346,0.272,6.286-0.668c0.416-0.416,0.472-1.273,0.442-1.937c-0.497-0.871-4.082-2.701-8.534-3.107
		c-0.757-0.068-1.441-0.479-1.86-1.113c-0.657-0.998-0.395-1.829-0.117-2.708c3.005-9.517,3.111-11.818,3.072-12.297
		c-0.111-1.376,0.914-2.582,2.29-2.694c1.37-0.095,2.583,0.913,2.694,2.29c0.104,1.294-0.117,3.845-2.604,12.002
		c4.743,0.996,9.966,3.39,10.053,7.401c0.122,2.373-0.517,4.314-1.9,5.698C96.021,66.964,93.363,67.344,90.678,67.344z"/>
	<path fill="#2E3B49" d="M29.973,114.584c-0.358,0-0.718-0.127-1.005-0.386c-0.615-0.555-0.664-1.504-0.109-2.119l30.61-33.943
		c0.556-0.615,1.503-0.664,2.119-0.109c0.615,0.555,0.664,1.504,0.109,2.119l-30.61,33.943
		C30.79,114.417,30.382,114.584,29.973,114.584z"/>
	<path fill="#2E3B49" d="M54.728,101.882c-0.358,0-0.719-0.128-1.005-0.387c-0.615-0.556-0.664-1.504-0.108-2.118l19.183-21.241
		c0.554-0.615,1.504-0.663,2.118-0.108c0.615,0.556,0.664,1.504,0.108,2.118l-19.183,21.241
		C55.545,101.715,55.137,101.882,54.728,101.882z"/>
	<path fill="#2E3B49" d="M35.595,92.511c-0.361,0-0.724-0.13-1.011-0.392c-0.612-0.559-0.655-1.507-0.098-2.119l10.828-11.87
		c0.56-0.612,1.509-0.653,2.119-0.098c0.612,0.559,0.655,1.507,0.098,2.119l-10.828,11.87
		C36.407,92.346,36.001,92.511,35.595,92.511z"/>
	<path fill="#2E3B49" d="M23.805,91.649c-0.363,0-0.728-0.131-1.016-0.396c-0.609-0.562-0.649-1.51-0.089-2.12l10.123-11.009
		c0.563-0.609,1.512-0.647,2.12-0.089c0.609,0.562,0.649,1.51,0.089,2.12L24.909,91.165C24.613,91.486,24.209,91.649,23.805,91.649z
		"/>
</g>
</svg>
