<?xml version="1.0" encoding="utf-8"?>
<!-- Generator: Adobe Illustrator 16.0.0, SVG Export Plug-In . SVG Version: 6.00 Build 0)  -->
<!DOCTYPE svg PUBLIC "-//W3C//DTD SVG 1.1//EN" "http://www.w3.org/Graphics/SVG/1.1/DTD/svg11.dtd">
<svg version="1.1" id="Layer_1" xmlns="http://www.w3.org/2000/svg" xmlns:xlink="http://www.w3.org/1999/xlink" x="0px" y="0px"
	 width="120px" height="120px" viewBox="0 0 120 120" enable-background="new 0 0 120 120" xml:space="preserve">
<g>
	<g>
		<path fill-rule="evenodd" clip-rule="evenodd" fill="#6A849B" d="M101.419,90.329H78.873h-6.016v7.793l6.016,6.236v1.555H39.789
			v-1.555l6.011-6.236v-7.793h-6.011H17.244c-2.493,0-4.514-2.091-4.514-4.673V23.325c0-2.577,2.021-4.675,4.514-4.675h84.175
			c2.49,0,4.51,2.098,4.51,4.675v62.331C105.929,88.238,103.909,90.329,101.419,90.329 M99.915,24.886H18.744v52.979h81.171V24.886z
			"/>
		<path fill="#2E3B49" d="M78.873,106.913H39.789c-0.553,0-1-0.447-1-1v-1.555c0-0.259,0.101-0.508,0.28-0.694l5.73-5.945v-6.39
			H17.244c-3.04,0-5.514-2.545-5.514-5.673V23.325c0-3.129,2.474-5.675,5.514-5.675h84.175c3.038,0,5.51,2.546,5.51,5.675v62.331
			c0,3.128-2.472,5.673-5.51,5.673H73.857v6.39l5.735,5.945c0.18,0.187,0.28,0.436,0.28,0.694v1.555
			C79.873,106.466,79.426,106.913,78.873,106.913z M40.789,104.913h37.084v-0.151l-5.735-5.945c-0.18-0.187-0.28-0.436-0.28-0.694
			v-7.793c0-0.553,0.447-1,1-1h28.562c1.936,0,3.51-1.647,3.51-3.673V23.325c0-2.026-1.574-3.675-3.51-3.675H17.244
			c-1.938,0-3.514,1.648-3.514,3.675v62.331c0,2.025,1.576,3.673,3.514,3.673H45.8c0.553,0,1,0.447,1,1v7.793
			c0,0.259-0.101,0.508-0.28,0.694l-5.73,5.945V104.913z M99.915,78.864H18.744c-0.553,0-1-0.447-1-1V24.886c0-0.553,0.447-1,1-1
			h81.171c0.553,0,1,0.447,1,1v52.979C100.915,78.417,100.468,78.864,99.915,78.864z M19.744,76.864h79.171V25.886H19.744V76.864z"
			/>
	</g>
	<path fill="#6A849B" d="M91.5,71.5c-1.381,0-2.5-1.119-2.5-2.5V49c0-1.381,1.119-2.5,2.5-2.5S94,47.619,94,49v20
		C94,70.381,92.881,71.5,91.5,71.5z"/>
	<path fill="#6A849B" d="M91,72h-9c-1.381,0-2.5-1.119-2.5-2.5S80.619,67,82,67h9c1.381,0,2.5,1.119,2.5,2.5S92.381,72,91,72z"/>
	<g>
		<path fill="#2E3B49" d="M57.811,40.198h4.352v7.935h7.619v4.517h-7.619v7.935h-4.352v-7.935h-7.62v-4.517h7.62V40.198z"/>
	</g>
</g>
</svg>
