<?xml version="1.0" encoding="utf-8"?>
<!-- Generator: Adobe Illustrator 16.0.0, SVG Export Plug-In . SVG Version: 6.00 Build 0)  -->
<!DOCTYPE svg PUBLIC "-//W3C//DTD SVG 1.1//EN" "http://www.w3.org/Graphics/SVG/1.1/DTD/svg11.dtd">
<svg version="1.1" id="Layer_1" xmlns="http://www.w3.org/2000/svg" xmlns:xlink="http://www.w3.org/1999/xlink" x="0px" y="0px"
	 width="120px" height="120px" viewBox="0 0 120 120" enable-background="new 0 0 120 120" xml:space="preserve">
<g>
	<path fill="#2E3B49" d="M89.552,78.645c-2.396,3.251-6.33,5.382-10.793,5.382c-4.256,0-8.034-1.937-10.454-4.935
		c-2.42,2.998-6.197,4.935-10.453,4.935c-4.067,0-7.692-1.771-10.117-4.543c-2.426,2.772-6.053,4.543-10.118,4.543
		c-4.257,0-8.035-1.937-10.454-4.935c-2.13,2.638-5.312,4.453-8.945,4.851C27.836,94.979,42.283,102,58.44,102
		c16.166,0,30.618-7.03,40.239-18.074C94.91,83.469,91.645,81.485,89.552,78.645z"/>
	<path fill="#6A849B" d="M89.552,61.156c-2.396,3.251-6.33,5.381-10.793,5.381c-4.256,0-8.034-1.935-10.454-4.936
		c-2.42,3.001-6.197,4.936-10.453,4.936c-4.067,0-7.692-1.77-10.117-4.54c-2.426,2.771-6.053,4.54-10.118,4.54
		c-4.257,0-8.035-1.935-10.454-4.936c-2.42,3.001-6.198,4.936-10.455,4.936c-3.688,0-7.015-1.456-9.414-3.795
		c1.863,7.939,5.666,15.169,10.924,21.2c3.634-0.397,6.815-2.213,8.945-4.851c2.419,2.998,6.197,4.935,10.454,4.935
		c4.065,0,7.692-1.771,10.118-4.543c2.425,2.772,6.05,4.543,10.117,4.543c4.256,0,8.033-1.937,10.453-4.935
		c2.42,2.998,6.198,4.935,10.454,4.935c4.463,0,8.396-2.131,10.793-5.382c2.093,2.841,5.358,4.824,9.128,5.281
		c5.204-5.975,8.981-13.127,10.858-20.977c-2.38,2.217-5.617,3.588-9.195,3.588C95.88,66.537,91.947,64.407,89.552,61.156z"/>
	<path fill="#FFFFFF" d="M100.343,49.696c-4.463,0-8.396-2.13-10.791-5.38c-2.396,3.25-6.33,5.38-10.793,5.38
		c-4.256,0-8.034-1.934-10.454-4.935c-2.42,3.001-6.197,4.935-10.453,4.935c-4.067,0-7.692-1.77-10.117-4.542
		c-2.426,2.772-6.053,4.542-10.118,4.542c-4.257,0-8.035-1.934-10.454-4.935c-2.42,3.001-6.198,4.935-10.455,4.935
		c-4.136,0-7.815-1.831-10.242-4.687C6.17,47.182,6,49.392,6,51.64c0,3.816,0.457,7.529,1.293,11.103
		c2.399,2.339,5.727,3.795,9.414,3.795c4.257,0,8.035-1.935,10.455-4.936c2.419,3.001,6.197,4.936,10.454,4.936
		c4.065,0,7.692-1.77,10.118-4.54c2.425,2.771,6.05,4.54,10.117,4.54c4.256,0,8.033-1.935,10.453-4.936
		c2.42,3.001,6.198,4.936,10.454,4.936c4.463,0,8.396-2.13,10.793-5.381c2.396,3.251,6.328,5.381,10.791,5.381
		c3.578,0,6.815-1.371,9.195-3.588c0.868-3.638,1.344-7.419,1.344-11.31c0-2.189-0.163-4.341-0.445-6.458
		C108.012,47.939,104.396,49.696,100.343,49.696z"/>
	<path fill="#2E3B49" d="M58.44,103C28.974,103,5,79.96,5,51.64c0-2.265,0.155-4.547,0.461-6.783
		c0.056-0.405,0.353-0.735,0.749-0.835c0.397-0.098,0.814,0.055,1.053,0.385c2.305,2.711,5.761,4.29,9.444,4.29
		c3.812,0,7.339-1.663,9.677-4.563c0.189-0.235,0.476-0.372,0.778-0.372l0,0c0.303,0,0.589,0.137,0.778,0.373
		c2.337,2.898,5.864,4.562,9.676,4.562c3.616,0,7.03-1.531,9.365-4.2c0.19-0.217,0.465-0.342,0.753-0.342l0,0
		c0.288,0,0.563,0.125,0.753,0.342c2.334,2.67,5.748,4.2,9.364,4.2c3.811,0,7.337-1.663,9.675-4.563
		c0.379-0.471,1.178-0.471,1.557,0c2.338,2.899,5.865,4.563,9.676,4.563c3.958,0,7.691-1.859,9.988-4.974
		c0.188-0.256,0.487-0.406,0.805-0.406l0,0c0.317,0,0.616,0.15,0.805,0.406c2.296,3.114,6.028,4.974,9.986,4.974
		c3.604,0,7.01-1.521,9.343-4.175c0.26-0.295,0.667-0.408,1.041-0.297c0.375,0.113,0.649,0.436,0.701,0.824
		c0.306,2.277,0.454,4.434,0.454,6.591C111.882,79.96,87.908,103,58.44,103z M7.207,47.178C7.069,48.66,7,50.154,7,51.64
		C7,78.857,30.076,101,58.44,101c28.365,0,51.441-22.143,51.441-49.36c0-1.427-0.068-2.853-0.206-4.319
		c-2.573,2.166-5.876,3.376-9.333,3.376c-4.154,0-8.1-1.772-10.791-4.794c-2.692,3.021-6.639,4.794-10.793,4.794
		c-4.016,0-7.763-1.597-10.454-4.419c-2.691,2.822-6.438,4.419-10.453,4.419c-3.821,0-7.449-1.478-10.117-4.088
		c-2.669,2.61-6.298,4.088-10.118,4.088c-4.017,0-7.764-1.597-10.454-4.419c-2.691,2.822-6.439,4.419-10.455,4.419
		C13.166,50.696,9.804,49.434,7.207,47.178z"/>
</g>
<g>
	<g>
		<polygon fill="#FFFFFF" points="58.332,78.085 94.092,42.549 75.727,23.512 58.48,23.436 40.936,23.512 22.571,42.549 		"/>
		<path fill="#2E3B49" d="M58.332,79.085c-0.255,0-0.51-0.097-0.705-0.29L21.866,43.258c-0.388-0.385-0.395-1.01-0.015-1.403
			l18.364-19.037c0.188-0.194,0.445-0.305,0.716-0.306l17.545-0.076l17.255,0.076c0.27,0.001,0.527,0.111,0.715,0.306l18.365,19.037
			c0.38,0.394,0.373,1.019-0.015,1.403l-35.76,35.537C58.842,78.988,58.587,79.085,58.332,79.085z M23.975,42.534l34.357,34.142
			l34.356-34.142L75.3,24.51l-16.824-0.074L41.362,24.51L23.975,42.534z"/>
	</g>
	<path fill="#2E3B49" d="M93,44H23c-0.553,0-1-0.447-1-1s0.447-1,1-1h70c0.553,0,1,0.447,1,1S93.553,44,93,44z"/>
	<path fill="#2E3B49" d="M58.333,79.085c-0.335,0-0.661-0.167-0.851-0.473L35.435,43.076c-0.229-0.369-0.193-0.842,0.086-1.174
		l16.153-19.086c0.356-0.422,0.986-0.476,1.41-0.117c0.421,0.355,0.474,0.987,0.117,1.408L37.518,42.64l21.664,34.918
		c0.291,0.47,0.146,1.086-0.322,1.377C58.695,79.037,58.513,79.085,58.333,79.085z"/>
	<path fill="#2E3B49" d="M58.231,79.085c-0.18,0-0.362-0.048-0.526-0.15c-0.469-0.291-0.613-0.907-0.322-1.377L79.048,42.64
		L63.363,24.107c-0.356-0.421-0.304-1.053,0.117-1.408c0.424-0.358,1.053-0.305,1.41,0.117l16.154,19.086
		c0.279,0.332,0.314,0.805,0.086,1.174L59.082,78.612C58.893,78.918,58.566,79.085,58.231,79.085z"/>
	<path fill="#2E3B49" d="M58.218,78.602c-0.457,0-0.869-0.314-0.975-0.779l-7.95-35.053c-0.063-0.28-0.003-0.574,0.166-0.807
		l13.83-19.094c0.323-0.447,0.947-0.549,1.396-0.223c0.447,0.324,0.547,0.949,0.223,1.396L51.344,42.77l7.851,34.611
		c0.122,0.538-0.216,1.074-0.754,1.195C58.365,78.594,58.291,78.602,58.218,78.602z"/>
	<path fill="#2E3B49" d="M58.389,78.602c-0.073,0-0.147-0.008-0.222-0.025c-0.539-0.121-0.877-0.657-0.755-1.195l7.851-34.611
		L51.7,24.043c-0.324-0.447-0.225-1.072,0.223-1.396c0.448-0.325,1.073-0.225,1.396,0.223l13.828,19.094
		c0.169,0.232,0.229,0.527,0.166,0.807l-7.95,35.053C59.258,78.287,58.846,78.602,58.389,78.602z"/>
	<g>
		<line fill="#0C134C" x1="40.936" y1="23.512" x2="50.269" y2="42.549"/>
		<path fill="#2E3B49" d="M50.27,43.549c-0.37,0-0.726-0.205-0.898-0.56l-9.333-19.037c-0.243-0.496-0.039-1.095,0.457-1.339
			c0.497-0.243,1.096-0.037,1.338,0.458l9.333,19.037c0.243,0.496,0.039,1.095-0.457,1.339
			C50.567,43.516,50.417,43.549,50.27,43.549z"/>
	</g>
	<g>
		<line fill="#0C134C" x1="75.682" y1="23.512" x2="66.351" y2="42.549"/>
		<path fill="#2E3B49" d="M66.35,43.549c-0.147,0-0.298-0.033-0.439-0.102c-0.496-0.244-0.7-0.843-0.457-1.338l9.331-19.037
			c0.242-0.496,0.842-0.701,1.338-0.459c0.496,0.244,0.7,0.843,0.457,1.338l-9.331,19.037C67.075,43.344,66.72,43.549,66.35,43.549z
			"/>
	</g>
</g>
</svg>
