<?xml version="1.0" encoding="utf-8"?>
<!-- Generator: Adobe Illustrator 16.0.0, SVG Export Plug-In . SVG Version: 6.00 Build 0)  -->
<!DOCTYPE svg PUBLIC "-//W3C//DTD SVG 1.1//EN" "http://www.w3.org/Graphics/SVG/1.1/DTD/svg11.dtd">
<svg version="1.1" id="Layer_1" xmlns="http://www.w3.org/2000/svg" xmlns:xlink="http://www.w3.org/1999/xlink" x="0px" y="0px"
	 width="120px" height="120px" viewBox="0 0 120 120" enable-background="new 0 0 120 120" xml:space="preserve">
<g>
	<g>
		<path fill="#FFFFFF" d="M76.274,37.733c-7.058-11.031-18.991-18.377-33.062-18.377c-14.176,0-26.393,7.452-33.421,18.622
			c7.028,11.168,19.532,18.619,33.71,18.619c13.896,0,25.36-7.171,32.46-17.979L108,55.863V38.271V18.918L76.274,37.733z"/>
		<path fill="#2E3B49" d="M43.502,57.598c-14.117,0-27.035-7.135-34.557-19.086c-0.204-0.326-0.204-0.74,0-1.066
			c7.521-11.953,20.332-19.089,34.268-19.089c13.367,0,25.771,6.722,33.373,18.029l30.904-18.328
			c0.309-0.183,0.692-0.187,1.005-0.009S109,18.559,109,18.918v36.945c0,0.352-0.185,0.678-0.487,0.858
			c-0.302,0.181-0.678,0.189-0.986,0.022l-31.24-16.815C68.572,51.171,56.674,57.598,43.502,57.598z M10.979,37.979
			c7.198,11.045,19.309,17.619,32.522,17.619c12.78,0,24.307-6.389,31.624-17.528c0.029-0.044,0.061-0.085,0.096-0.123
			c-7.3-11.185-18.944-17.59-32.009-17.59C30.177,20.356,18.175,26.932,10.979,37.979z M77.375,38.243L107,54.189V20.674
			L77.375,38.243z"/>
	</g>
	<g>
		<path fill="#6A849B" d="M41.488,87.431c7.056-11.03,19.877-18.374,33.946-18.374c14.174,0,26.831,7.45,33.862,18.619
			c-7.031,11.172-19.312,18.621-33.489,18.621c-13.899,0-27.016-7.171-34.113-17.979L8,105.562V87.97V68.617L41.488,87.431z"/>
		<path fill="#2E3B49" d="M75.808,107.297c-13.781,0-26.894-6.754-34.447-17.685L8.456,106.451
			c-0.311,0.158-0.682,0.145-0.978-0.037C7.182,106.232,7,105.91,7,105.562V68.617c0-0.355,0.188-0.684,0.495-0.863
			C7.8,67.575,8.18,67.57,8.49,67.745l32.675,18.356c7.522-11.153,20.563-18.045,34.27-18.045c13.998,0,27.297,7.313,34.709,19.086
			c0.204,0.326,0.204,0.74,0,1.066C102.621,100.161,89.785,107.297,75.808,107.297z M42.493,87.717
			c0.013,0.018,0.025,0.035,0.037,0.053c6.992,10.647,20.055,17.527,33.277,17.527c13.076,0,25.104-6.574,32.302-17.621
			c-7.111-10.885-19.57-17.619-32.675-17.619C62.185,70.057,49.592,76.816,42.493,87.717z M9,70.326v33.6l31.299-16.017L9,70.326z"
			/>
	</g>
	<circle fill="#2E3B49" cx="31.356" cy="33.801" r="4.911"/>
	<path fill="#2E3B49" d="M83.259,83.498c0-2.709,2.201-4.91,4.912-4.91c2.713,0,4.913,2.201,4.913,4.91
		c0,2.712-2.2,4.911-4.913,4.911C85.46,88.409,83.259,86.21,83.259,83.498z"/>
	<path fill="#FFFFFF" d="M69.813,102.172c-0.185,0-0.372-0.018-0.56-0.052c-0.545-0.102-13.421-2.607-20.442-13.269
		c-0.924-1.402-0.535-3.287,0.867-4.211c1.4-0.923,3.288-0.536,4.211,0.867c5.573,8.461,16.377,10.615,16.485,10.635
		c1.646,0.316,2.73,1.904,2.419,3.552C72.519,101.153,71.246,102.172,69.813,102.172z"/>
	<path fill="#6A849B" d="M48.507,52.476c-1.436,0-2.713-1.022-2.985-2.484c-0.308-1.651,0.782-3.238,2.433-3.546
		c0.102-0.02,10.905-2.172,16.478-10.634c0.924-1.403,2.811-1.79,4.211-0.868c1.402,0.924,1.791,2.81,0.867,4.212
		c-7.02,10.662-19.897,13.167-20.442,13.269C48.879,52.459,48.691,52.476,48.507,52.476z"/>
</g>
</svg>
