<?xml version="1.0" encoding="utf-8"?>
<!-- Generator: Adobe Illustrator 16.0.0, SVG Export Plug-In . SVG Version: 6.00 Build 0)  -->
<!DOCTYPE svg PUBLIC "-//W3C//DTD SVG 1.1//EN" "http://www.w3.org/Graphics/SVG/1.1/DTD/svg11.dtd">
<svg version="1.1" id="Layer_1" xmlns="http://www.w3.org/2000/svg" xmlns:xlink="http://www.w3.org/1999/xlink" x="0px" y="0px"
	 width="120px" height="120px" viewBox="0 0 120 120" enable-background="new 0 0 120 120" xml:space="preserve">
<g>
	<g>
		<g>
			<path fill="#FFFFFF" d="M90.669,26.161c0.064-3.204-0.052-5.231-0.052-5.231l-31.307-0.018h-0.33l-31.31,0.018
				c0,0-0.115,2.027-0.051,5.231H6.877v3.433c0,0.774,0.131,19.192,11.503,29.281c4.736,4.208,10.647,6.317,17.625,6.317
				c1.056,0,2.146-0.064,3.235-0.146c3.96,5.411,8.535,9.225,13.682,11.107v15.035H37.82v9.408h-4.999v5.263h52.649v-5.263H80.47
				v-9.408H65.366V76.154c5.135-1.883,9.722-5.696,13.684-11.107c1.106,0.081,2.177,0.146,3.232,0.146
				c6.98,0,12.893-2.109,17.627-6.317c11.372-10.089,11.503-28.507,11.503-29.281v-3.433H90.669z M22.936,53.774
				c-6.49-5.744-8.417-15.583-8.979-20.765h14.062c0.597,6.45,1.979,14.508,5.214,21.573c0.596,1.303,1.222,2.538,1.849,3.746
				C30.247,58.132,26.169,56.628,22.936,53.774L22.936,53.774z M95.354,53.774c-3.232,2.854-7.311,4.357-12.145,4.555
				c0.643-1.208,1.254-2.443,1.846-3.746c3.234-7.065,4.637-15.123,5.217-21.573h14.063C103.769,38.191,101.842,48.03,95.354,53.774
				L95.354,53.774z M95.354,53.774"/>
			<path fill="#2E3B49" d="M85.471,106.86H32.821c-0.553,0-1-0.447-1-1v-5.263c0-0.553,0.447-1,1-1h3.999v-8.408
				c0-0.553,0.447-1,1-1h14.102V76.842c-4.827-1.932-9.249-5.546-13.158-10.758c-0.854,0.058-1.808,0.108-2.759,0.108
				c-7.229,0-13.383-2.21-18.289-6.569C6.012,49.239,5.877,30.391,5.877,29.594v-3.433c0-0.553,0.447-1,1-1h19.729
				c-0.026-2.608,0.063-4.213,0.067-4.288c0.029-0.529,0.468-0.943,0.997-0.943l31.641-0.018l31.308,0.018
				c0.529,0,0.967,0.414,0.997,0.942c0.005,0.075,0.095,1.68,0.068,4.289h19.729c0.553,0,1,0.447,1,1v3.433
				c0,0.797-0.135,19.646-11.839,30.029c-4.904,4.359-11.059,6.569-18.291,6.569c-0.934,0-1.866-0.049-2.756-0.109
				c-3.907,5.207-8.33,8.822-13.16,10.759v13.348H80.47c0.553,0,1,0.447,1,1v8.408h4.001c0.553,0,1,0.447,1,1v5.263
				C86.471,106.413,86.023,106.86,85.471,106.86z M33.821,104.86h50.649v-3.263H80.47c-0.553,0-1-0.447-1-1v-8.408H65.366
				c-0.553,0-1-0.447-1-1V76.154c0-0.42,0.262-0.795,0.655-0.938c4.848-1.777,9.296-5.397,13.222-10.76
				c0.204-0.277,0.541-0.428,0.88-0.406c1.013,0.074,2.096,0.143,3.159,0.143c6.728,0,12.435-2.04,16.963-6.064
				c11.04-9.795,11.167-27.773,11.167-28.534v-2.433H90.669c-0.269,0-0.526-0.108-0.714-0.3c-0.188-0.192-0.291-0.451-0.286-0.721
				c0.038-1.859,0.013-3.326-0.014-4.212L58.98,21.912l-30.348,0.017c-0.026,0.886-0.051,2.353-0.013,4.212
				c0.005,0.27-0.098,0.528-0.286,0.721c-0.188,0.191-0.445,0.3-0.714,0.3H7.877v2.433c0,0.761,0.127,18.739,11.167,28.533
				c4.53,4.024,10.236,6.065,16.961,6.065c1.096,0,2.213-0.072,3.161-0.143c0.353-0.021,0.678,0.129,0.881,0.406
				c3.928,5.367,8.375,8.987,13.219,10.759c0.395,0.145,0.656,0.52,0.656,0.939v15.035c0,0.553-0.447,1-1,1H38.82v8.408
				c0,0.553-0.447,1-1,1h-3.999V104.86z M83.209,59.329c-0.343,0-0.663-0.176-0.847-0.468c-0.19-0.304-0.204-0.686-0.036-1.002
				c0.653-1.229,1.248-2.436,1.818-3.69c2.622-5.728,4.396-13.074,5.131-21.249c0.047-0.516,0.479-0.91,0.996-0.91h14.063
				c0.284,0,0.555,0.121,0.744,0.332c0.19,0.212,0.281,0.494,0.25,0.776c-0.594,5.441-2.593,15.457-9.312,21.405
				c-3.377,2.98-7.672,4.597-12.767,4.805C83.236,59.329,83.223,59.329,83.209,59.329z M91.182,34.01
				c-0.81,8.133-2.563,15.19-5.218,20.989c-0.337,0.743-0.684,1.47-1.045,2.195c3.858-0.446,7.14-1.846,9.772-4.17
				c5.792-5.127,7.812-13.7,8.515-19.015H91.182z M35.081,59.329c-0.014,0-0.027,0-0.041-0.001
				c-5.095-0.208-9.39-1.824-12.767-4.804c-6.728-5.955-8.722-15.968-9.311-21.407c-0.03-0.282,0.061-0.564,0.25-0.775
				s0.46-0.332,0.744-0.332h14.062c0.517,0,0.948,0.394,0.996,0.908c0.772,8.358,2.498,15.508,5.127,21.249
				c0.615,1.345,1.269,2.626,1.827,3.701c0.164,0.316,0.147,0.696-0.044,0.997C35.741,59.155,35.422,59.329,35.081,59.329z
				 M15.084,34.01c0.699,5.313,2.714,13.883,8.515,19.016c2.634,2.325,5.918,3.724,9.78,4.17c-0.348-0.694-0.707-1.434-1.056-2.196
				c-2.627-5.735-4.379-12.794-5.212-20.989H15.084z"/>
		</g>
	</g>
	<g>
		<g>
			<path fill="#6A849B" d="M37.82,100.678h-4.999v5.263h52.649v-5.263H80.47H37.82z"/>
			<path fill="#2E3B49" d="M85.471,106.94H32.821c-0.553,0-1-0.447-1-1v-5.263c0-0.553,0.447-1,1-1h52.649c0.553,0,1,0.447,1,1
				v5.263C86.471,106.493,86.023,106.94,85.471,106.94z M33.821,104.94h50.649v-3.263H33.821V104.94z"/>
		</g>
	</g>
	<g>
		<g>
			<path fill="#6A849B" d="M79.08,65.097c1.105,0.081,2.178,0.147,3.234,0.147c6.979,0,12.89-2.111,17.625-6.32
				c11.371-10.086,11.504-28.506,11.504-29.28v-3.432H90.697l-0.396,6.847h14.064c-0.563,5.184-2.49,15.022-8.978,20.764l0,0
				c-3.234,2.856-7.313,4.359-12.146,4.558L79.08,65.097z M83.242,58.38 M95.388,53.822"/>
			<path fill="#2E3B49" d="M82.314,66.244c-1.107,0-2.244-0.072-3.308-0.15c-0.349-0.025-0.659-0.231-0.817-0.543
				c-0.159-0.312-0.144-0.684,0.041-0.98l4.162-6.717c0.174-0.282,0.478-0.459,0.809-0.473c4.625-0.189,8.503-1.64,11.524-4.309
				c5.797-5.13,7.813-13.7,8.513-19.014H90.301c-0.275,0-0.538-0.113-0.728-0.313c-0.188-0.2-0.287-0.47-0.271-0.744l0.396-6.847
				c0.03-0.529,0.468-0.942,0.998-0.942h20.746c0.553,0,1,0.447,1,1v3.432c0,0.797-0.135,19.646-11.841,30.028
				C95.697,64.032,89.544,66.244,82.314,66.244z M80.81,64.204c0.519,0.025,1.013,0.04,1.505,0.04
				c6.725,0,12.431-2.041,16.961-6.067c11.041-9.794,11.168-27.772,11.168-28.533v-2.432H91.641l-0.28,4.847h13.005
				c0.284,0,0.555,0.121,0.744,0.332c0.189,0.212,0.28,0.493,0.25,0.775c-0.59,5.44-2.585,15.454-9.309,21.405
				c-3.258,2.877-7.372,4.483-12.234,4.78L80.81,64.204z"/>
		</g>
	</g>
	<g>
		<g>
			<path fill="#6A849B" d="M35.054,58.38c-4.835-0.198-8.911-1.701-12.146-4.558l0,0c-6.488-5.741-8.415-15.58-8.978-20.764H27.99
				l-0.396-6.847H6.852v3.432c0,0.774,0.129,19.194,11.503,29.28c4.735,4.209,10.646,6.32,17.623,6.32
				c1.059,0,2.128-0.066,3.235-0.147L35.054,58.38z M35.054,58.38 M22.907,53.822"/>
			<path fill="#2E3B49" d="M35.978,66.244c-7.228,0-13.381-2.212-18.287-6.573C5.986,49.293,5.852,30.441,5.852,29.644v-3.432
				c0-0.553,0.447-1,1-1h20.742c0.53,0,0.968,0.413,0.998,0.942l0.386,6.647c0.021,0.082,0.032,0.168,0.032,0.257
				c0,0.553-0.447,1-1,1c-0.005,0.001-0.012,0.001-0.02,0H15.057c0.7,5.313,2.716,13.885,8.514,19.015
				c3.021,2.668,6.899,4.118,11.524,4.308c0.331,0.014,0.635,0.19,0.81,0.473l4.159,6.717c0.184,0.297,0.199,0.669,0.04,0.98
				s-0.469,0.518-0.817,0.543C38.055,66.185,37.021,66.244,35.978,66.244z M7.852,27.212v2.432c0,0.761,0.127,18.743,11.166,28.532
				c4.531,4.027,10.236,6.068,16.96,6.068c0.492,0,0.986-0.015,1.507-0.04l-3.005-4.853c-4.862-0.297-8.977-1.903-12.234-4.779
				c-6.725-5.951-8.72-15.966-9.31-21.406c-0.03-0.282,0.061-0.563,0.25-0.775c0.189-0.211,0.46-0.332,0.744-0.332h13.001
				l-0.28-4.847H7.852z"/>
		</g>
	</g>
	<path fill="#6A849B" d="M65.082,70.389c-0.826,0-1.635-0.409-2.111-1.158c-0.741-1.165-0.397-2.71,0.768-3.451
		c0.124-0.079,12.72-8.282,15.92-22.03c0.313-1.345,1.657-2.187,3.001-1.868c1.345,0.313,2.182,1.656,1.868,3.001
		C80.856,60.66,67.01,69.624,66.422,69.998C66.006,70.263,65.542,70.389,65.082,70.389z"/>
	<g>
		<path fill="#2E3B49" d="M49.138,36.122v2.502l-6.132,11.865h-3.521l6.575-11.844h-7.018v-2.523H49.138z"/>
		<path fill="#2E3B49" d="M54.384,41.745c0.797-0.133,1.558-0.199,2.28-0.199c1.49,0,2.679,0.358,3.564,1.073
			c0.886,0.717,1.328,1.746,1.328,3.089c0,1.461-0.495,2.664-1.483,3.608c-1.048,0.988-2.368,1.482-3.962,1.482
			c-1.58,0-2.842-0.398-3.786-1.195c-0.988-0.826-1.498-1.962-1.527-3.409h2.679c0,0.753,0.251,1.307,0.753,1.66
			c0.501,0.354,1.144,0.531,1.926,0.531s1.428-0.254,1.937-0.764c0.51-0.509,0.764-1.146,0.764-1.914
			c0-1.462-0.988-2.192-2.966-2.192h-4.384l0.665-7.394h8.611v2.391h-6.088L54.384,41.745z"/>
		<path fill="#2E3B49" d="M66.803,35.834c0.398,0,0.782,0.07,1.151,0.211s0.693,0.351,0.975,0.631
			c0.604,0.575,0.907,1.409,0.907,2.501c0,1.078-0.303,1.919-0.907,2.524c-0.562,0.561-1.277,0.841-2.147,0.841
			c-0.842,0-1.543-0.28-2.104-0.841c-0.605-0.605-0.907-1.446-0.907-2.524c0-1.092,0.302-1.926,0.907-2.501
			C65.254,36.115,65.962,35.834,66.803,35.834z M74.507,36.122h2.635l-9.719,14.367h-2.656L74.507,36.122z M67.865,39.177
			c0-1.121-0.361-1.682-1.084-1.682c-0.709,0-1.063,0.561-1.063,1.682c0,1.137,0.354,1.705,1.063,1.705
			C67.504,40.882,67.865,40.313,67.865,39.177z M75.104,44.069c0.841,0,1.55,0.28,2.125,0.842c0.605,0.575,0.908,1.409,0.908,2.501
			c0,1.093-0.303,1.94-0.908,2.546c-0.561,0.561-1.27,0.841-2.125,0.841c-0.856,0-1.564-0.28-2.125-0.841
			c-0.605-0.605-0.908-1.453-0.908-2.546c0-1.092,0.303-1.926,0.908-2.501C73.555,44.35,74.264,44.069,75.104,44.069z
			 M75.104,45.729c-0.708,0-1.063,0.564-1.063,1.693c0,1.13,0.354,1.694,1.063,1.694c0.31,0,0.568-0.13,0.774-0.388
			c0.207-0.258,0.311-0.693,0.311-1.307c0-0.612-0.104-1.047-0.311-1.306C75.673,45.859,75.414,45.729,75.104,45.729z"/>
	</g>
</g>
</svg>
