<?xml version="1.0" encoding="utf-8"?>
<!-- Generator: Adobe Illustrator 16.0.0, SVG Export Plug-In . SVG Version: 6.00 Build 0)  -->
<!DOCTYPE svg PUBLIC "-//W3C//DTD SVG 1.1//EN" "http://www.w3.org/Graphics/SVG/1.1/DTD/svg11.dtd">
<svg version="1.1" id="Layer_1" xmlns="http://www.w3.org/2000/svg" xmlns:xlink="http://www.w3.org/1999/xlink" x="0px" y="0px"
	 width="120px" height="120px" viewBox="0 0 120 120" enable-background="new 0 0 120 120" xml:space="preserve">
<g>
	<g>
		<polygon fill="#FFFFFF" points="110.054,81 13.875,81 7,99 103,99 		"/>
		<path fill="#2E3B49" d="M103,100H7c-0.329,0-0.637-0.162-0.823-0.434c-0.188-0.271-0.229-0.615-0.111-0.924l6.875-18
			C13.089,80.256,13.46,80,13.875,80h96.179c0.331,0,0.64,0.164,0.826,0.437s0.226,0.62,0.104,0.929l-7.054,18
			C103.781,99.748,103.411,100,103,100z M8.452,98h93.865l6.271-16H14.563L8.452,98z"/>
	</g>
	<g>
		<rect x="7" y="99" fill="#FFFFFF" width="96" height="14"/>
		<path fill="#2E3B49" d="M103,114H7c-0.553,0-1-0.447-1-1V99c0-0.553,0.447-1,1-1h96c0.553,0,1,0.447,1,1v14
			C104,113.553,103.553,114,103,114z M8,112h94v-12H8V112z"/>
	</g>
	<g>
		<polygon fill="#FFFFFF" points="103,113 110.25,94.25 110.054,81 103,99.375 		"/>
		<path fill="#2E3B49" d="M103.001,114c-0.062,0-0.123-0.006-0.185-0.018C102.343,113.895,102,113.481,102,113V99.375
			c0-0.123,0.022-0.244,0.066-0.358l7.054-18.375c0.171-0.448,0.641-0.712,1.108-0.626c0.472,0.084,0.818,0.49,0.825,0.97
			l0.196,13.25c0.002,0.128-0.021,0.255-0.067,0.376l-7.25,18.75C103.781,113.752,103.407,114,103.001,114z M104,99.561v8.08
			l5.247-13.57l-0.116-7.875L104,99.561z"/>
	</g>
	<g>
		<path fill="#6A849B" d="M89.119,91.049L60.28,20.937C56.882,12.489,54.564,14,52.35,14h0.308c-2.215,0-4.532-1.511-7.931,6.937
			L15.891,91.342L89.119,91.049z"/>
		<path fill="#2E3B49" d="M15.891,92c-0.332,0-0.644,0.006-0.829-0.27c-0.187-0.277-0.223-0.544-0.097-0.854l28.836-70.362
			c2.189-5.44,4.237-7.642,7.066-7.642c0.342,0,0.677,0.039,1.007,0.068c0.212,0.02,0.421,0.043,0.63,0.051
			c0.208-0.008,0.417-0.023,0.629-0.042c0.33-0.029,0.665-0.057,1.007-0.057c2.829,0,4.877,2.223,7.068,7.669l28.836,70.105
			c0.127,0.308,0.092,0.658-0.093,0.936s-0.495,0.273-0.828,0.274L15.895,92C15.894,92,15.892,92,15.891,92z M50.867,14.895
			c-0.92,0-2.632,0-5.213,6.415L17.383,90.336l70.246-0.281L59.355,21.316c-2.584-6.422-4.296-6.422-5.216-6.422
			c-0.282,0-0.559,0.026-0.831,0.051c-0.154,0.014-0.308,0.026-0.46,0.037C52.786,14.994,52.723,15,52.657,15H52.35
			c-0.065,0-0.129-0.006-0.191-0.018c-0.152-0.011-0.306-0.023-0.46-0.037C51.426,14.921,51.149,14.895,50.867,14.895z"/>
	</g>
	<g>
		<path fill="#FFFFFF" d="M34.478,45.067l9.067-7.521l5.328,6.644l3.554-6.722l5.021,6.722l3.783-7.263l8.644,6.322L60.28,20.187
			c-3.398-8.447-6.64-7.733-7.905-7.827c-1.078,0.188-4.25-0.62-7.648,7.827L34.459,45.393L34.478,45.067z"/>
		<path fill="#2E3B49" d="M34.459,46.393c-0.072,0-0.146-0.008-0.22-0.024c-0.478-0.108-0.807-0.544-0.778-1.032l0.019-0.326
			c0.015-0.268,0.138-0.518,0.338-0.693l9.983-24.508c2.876-7.148,5.704-8.263,8.092-8.408c0.12-0.008,0.225-0.012,0.312-0.026
			c0.081-0.014,0.159-0.019,0.245-0.012c0.09,0.007,0.191,0.008,0.305,0.01c1.653,0.03,5.095,0.091,8.454,8.441l9.519,22.882
			c0.105,0.159,0.167,0.225,0.167,0.43c0,0.553-0.447,0.875-1,0.875c-0.005,0-0.012,0-0.02,0c-0.207,0-0.414,0.061-0.591-0.068
			l-7.703-5.572l-3.246,6.262c-0.159,0.305-0.463,0.523-0.807,0.551c-0.342,0.037-0.675-0.115-0.881-0.391l-4.075-5.451
			l-2.814,5.326c-0.157,0.297-0.454,0.497-0.789,0.529c-0.331,0.029-0.664-0.107-0.875-0.37l-4.692-5.85l-7.919,6.568l-0.097,0.235
			C35.229,46.152,34.858,46.393,34.459,46.393z M43.545,36.547c0.033,0,0.067,0.002,0.101,0.005c0.268,0.027,0.512,0.16,0.68,0.37
			l4.375,5.455l2.843-5.375c0.16-0.304,0.465-0.504,0.807-0.53c0.338-0.028,0.674,0.124,0.878,0.398l4.068,5.446l3.048-5.851
			c0.135-0.259,0.375-0.445,0.659-0.512c0.283-0.065,0.582-0.005,0.818,0.167l5.755,4.209l-8.219-19.76
			c-2.869-7.131-5.416-7.177-6.64-7.199c-0.107-0.002-0.208-0.004-0.302-0.008c-0.118,0.015-0.253,0.023-0.402,0.033
			c-1.157,0.07-3.565,0.218-6.359,7.163l-8.575,21.05l5.827-4.832C43.087,36.628,43.313,36.547,43.545,36.547z"/>
	</g>
	<path fill="none" stroke="#2E3B49" stroke-width="2" stroke-linecap="round" stroke-linejoin="round" stroke-miterlimit="10" d="
		M94.751,61.907"/>
	<path fill="#FFFFFF" d="M75.288,82.547c-0.994,0-1.935-0.598-2.324-1.577L61.215,51.422c-0.51-1.283,0.116-2.736,1.399-3.247
		s2.736,0.117,3.247,1.399L77.61,79.122c0.51,1.283-0.116,2.737-1.399,3.247C75.908,82.489,75.595,82.547,75.288,82.547z"/>
	<g>
		<path fill="#6A849B" d="M102.109,91.055L81.182,39.886c-2.466-6.131-8.818-6.131-11.285,0L48.813,91.217L102.109,91.055z"/>
		<path fill="#2E3B49" d="M48.813,92c-0.333,0-0.644-0.057-0.83-0.334s-0.222-0.574-0.095-0.883l21.083-51.305
			c1.313-3.265,3.77-5.205,6.567-5.205c2.799,0,5.255,1.961,6.57,5.232l20.926,51.167c0.126,0.308,0.09,0.66-0.095,0.937
			s-0.495,0.335-0.828,0.336L48.816,92H48.813z M75.539,36.287c-1.951,0-3.714,1.485-4.715,3.972L50.308,90.213l50.314-0.154
			L80.256,40.264C79.254,37.771,77.491,36.287,75.539,36.287z"/>
	</g>
	<g>
		<path fill="#FFFFFF" d="M63.242,56.333l7.74-4.614l4.983,5.023l4.826-5.06l8.09,7.029l-7.7-18.826
			c-2.466-6.131-8.818-6.131-11.285,0L63.242,56.333z"/>
		<path fill="#2E3B49" d="M88.882,60c-0.234,0-0.469-0.227-0.656-0.389l-7.369-6.476l-4.167,4.333
			c-0.187,0.195-0.443,0.289-0.714,0.291c-0.272-0.021-0.53-0.113-0.72-0.305l-4.433-4.473l-7.069,4.212
			c-0.367,0.22-0.835,0.179-1.163-0.101c-0.325-0.28-0.437-0.737-0.275-1.135l6.654-16.447c1.315-3.271,3.771-5.225,6.569-5.225
			c2.799,0,5.255,1.953,6.57,5.226l7.628,18.649c0.104,0.158,0.164,0.49,0.164,0.693c0,0.553-0.447,1.145-1,1.145
			C88.896,60,88.892,60,88.882,60z M70.982,50.719c0.26,0,0.517,0.102,0.71,0.296l4.26,4.294l4.116-4.316
			c0.369-0.387,0.976-0.414,1.38-0.064l4.917,4.272l-6.109-14.937c-1.002-2.492-2.765-3.977-4.717-3.977
			c-1.951,0-3.714,1.485-4.715,3.972l-5.54,13.692l5.187-3.092C70.63,50.766,70.807,50.719,70.982,50.719z"/>
	</g>
	<path fill="#FFFFFF" d="M89.801,86.818c-1.002,0-1.947-0.605-2.332-1.596l-8.01-20.648c-0.499-1.287,0.14-2.736,1.427-3.234
		c1.29-0.504,2.736,0.141,3.235,1.426l8.01,20.648c0.499,1.287-0.14,2.736-1.427,3.234C90.407,86.765,90.101,86.818,89.801,86.818z"
		/>
</g>
</svg>
