<?xml version="1.0" encoding="utf-8"?>
<!-- Generator: Adobe Illustrator 16.0.0, SVG Export Plug-In . SVG Version: 6.00 Build 0)  -->
<!DOCTYPE svg PUBLIC "-//W3C//DTD SVG 1.1//EN" "http://www.w3.org/Graphics/SVG/1.1/DTD/svg11.dtd">
<svg version="1.1" id="Layer_1" xmlns="http://www.w3.org/2000/svg" xmlns:xlink="http://www.w3.org/1999/xlink" x="0px" y="0px"
	 width="120px" height="120px" viewBox="0 0 120 120" enable-background="new 0 0 120 120" xml:space="preserve">
<g>
	<rect x="17" y="35" fill="#2E3B49" width="85" height="7"/>
	<rect x="59" y="27" fill="#2E3B49" width="5" height="89"/>
	<g>
		<polygon fill="#6A849B" points="94,34 62.014,34 23,34 23,42.811 44.668,48.926 42.599,81 62.014,81 81.432,81 75.848,48.926 
			94,42.811 		"/>
		<path fill="#2E3B49" d="M81.432,82H42.599c-0.276,0-0.54-0.114-0.729-0.316c-0.189-0.201-0.286-0.473-0.269-0.748l2.018-31.268
			l-20.89-5.895C22.298,43.651,22,43.258,22,42.811V34c0-0.553,0.447-1,1-1h71c0.553,0,1,0.447,1,1v8.811
			c0,0.43-0.274,0.811-0.681,0.947L76.98,49.6l5.437,31.229c0.051,0.291-0.03,0.59-0.22,0.815C82.007,81.869,81.727,82,81.432,82z
			 M43.665,80h36.577l-5.38-30.902c-0.085-0.486,0.198-0.962,0.666-1.119L93,42.092V35H24v7.054l20.939,5.909
			c0.454,0.129,0.757,0.557,0.727,1.027L43.665,80z"/>
	</g>
	<g>
		<path fill="#FFFFFF" d="M72.072,18.89c0-5.923-4.798-10.721-10.72-10.721c-5.919,0-10.72,4.798-10.72,10.721
			c0,5.918,4.801,10.717,10.72,10.717C67.274,29.606,72.072,24.808,72.072,18.89z"/>
		<path fill="#2E3B49" d="M61.353,30.606c-6.462,0-11.72-5.257-11.72-11.717c0-6.463,5.258-11.721,11.72-11.721
			s11.72,5.258,11.72,11.721C73.072,25.35,67.814,30.606,61.353,30.606z M61.353,9.169c-5.359,0-9.72,4.36-9.72,9.721
			c0,5.358,4.36,9.717,9.72,9.717s9.72-4.358,9.72-9.717C71.072,13.529,66.712,9.169,61.353,9.169z"/>
	</g>
	<g>
		<path fill="#6A849B" d="M83,12H71.257c-1.2-5-5.188-7.583-9.938-7.583c-4.751,0-8.74,2.583-9.938,7.583H37v5h46V12z"/>
		<path fill="#2E3B49" d="M83,18H37c-0.553,0-1-0.447-1-1v-5c0-0.553,0.447-1,1-1h13.618c1.45-4.699,5.482-7.583,10.7-7.583
			c5.216,0,9.248,2.884,10.701,7.583H83c0.553,0,1,0.447,1,1v5C84,17.553,83.553,18,83,18z M38,16h44v-3H71.257
			c-0.462,0-0.864-0.316-0.973-0.767c-1.024-4.269-4.376-6.816-8.966-6.816c-4.592,0-7.943,2.548-8.965,6.815
			C52.246,12.683,51.844,13,51.381,13H38V16z"/>
	</g>
	<g>
		<path fill="#2E3B49" d="M52.181,110.222c2.259,2.021,3.305,6.101,3.305,6.101l10.145-0.034c1.854-4.314,4.044-6.638,4.044-6.638
			s-2.121,0.095-5.727,3.771c0.066-2.494,6.807-10.177,10.076-11.965c-6.235,1.348-12.066,9.572-11.797,8.968
			c0.27-0.608,1.65-5.934,3.708-9.305c-1.287,0.068-6.101,4.819-8.092,11.933C54.406,110.186,52.181,110.222,52.181,110.222z"/>
		<path fill="#2E3B49" d="M55.485,117c-0.229,0-0.428-0.244-0.484-0.465c-0.01-0.039-1.037-4.002-3.153-5.896
			c-0.153-0.137-0.207-0.377-0.136-0.569c0.072-0.193,0.255-0.333,0.461-0.337l0,0c0.249,0,2.298,0.068,5.402,2.469
			c2.169-6.951,6.846-11.498,8.333-11.578c0.174-0.006,0.36,0.084,0.456,0.242c0.095,0.16,0.094,0.357-0.003,0.516
			c-1.271,2.083-2.287,4.951-2.93,6.937c3.783-4.191,7.305-6.661,10.486-7.349c0.241-0.056,0.487,0.08,0.574,0.313
			s-0.011,0.494-0.229,0.613c-2.679,1.466-7.346,6.619-9.112,9.716c2.769-2.354,4.42-2.457,4.5-2.461
			c0.206-0.005,0.391,0.106,0.477,0.291c0.085,0.186,0.05,0.403-0.09,0.552c-0.021,0.022-2.156,2.321-3.949,6.492
			c-0.078,0.183-0.258,0.392-0.457,0.392L55.487,117C55.486,117,55.486,117,55.485,117z M53.591,111.049
			c1.281,1.733,2.014,3.905,2.272,4.771l9.438-0.031c1.013-2.287,2.099-3.993,2.885-5.08c-0.922,0.486-2.24,1.389-3.882,3.063
			c-0.145,0.146-0.363,0.189-0.553,0.111c-0.189-0.081-0.31-0.269-0.305-0.475c0.055-2.031,4.004-7.027,7.396-10.141
			c-2.427,1.395-5.048,3.774-7.829,7.071c-0.477,0.565-0.538,0.661-0.791,0.661h-0.003c-0.169,0-0.329-0.108-0.421-0.249
			c-0.093-0.143-0.099-0.364-0.03-0.519c0.056-0.126,0.16-0.474,0.313-0.963c0.471-1.509,1.355-4.344,2.55-6.793
			c-1.816,1.615-4.83,5.43-6.309,10.713c-0.046,0.163-0.171,0.291-0.333,0.342c-0.162,0.05-0.339,0.015-0.469-0.094
			C55.877,112.064,54.523,111.385,53.591,111.049z"/>
	</g>
	<path fill="#FFFFFF" d="M72.423,75.555c-1.221,0-2.288-0.895-2.471-2.137l-3.061-20.852c-0.2-1.366,0.744-2.637,2.11-2.837
		c1.369-0.204,2.636,0.745,2.837,2.11l3.061,20.852c0.2,1.366-0.744,2.637-2.11,2.837C72.666,75.547,72.543,75.555,72.423,75.555z"
		/>
</g>
</svg>
