<?xml version="1.0" encoding="utf-8"?>
<!-- Generator: Adobe Illustrator 16.0.0, SVG Export Plug-In . SVG Version: 6.00 Build 0)  -->
<!DOCTYPE svg PUBLIC "-//W3C//DTD SVG 1.1//EN" "http://www.w3.org/Graphics/SVG/1.1/DTD/svg11.dtd">
<svg version="1.1" id="Layer_1" xmlns="http://www.w3.org/2000/svg" xmlns:xlink="http://www.w3.org/1999/xlink" x="0px" y="0px"
	 width="120px" height="120px" viewBox="0 0 120 120" enable-background="new 0 0 120 120" xml:space="preserve">
<g>
	<g>
		<polygon fill="#FFFFFF" points="59.319,104.833 113.973,50.522 85.903,21.429 59.549,21.313 32.735,21.429 4.666,50.522 		"/>
		<path fill="#2E3B49" d="M59.319,105.833c-0.255,0-0.51-0.097-0.705-0.29L3.961,51.232c-0.388-0.386-0.395-1.011-0.015-1.404
			l28.069-29.094c0.188-0.194,0.445-0.305,0.716-0.306l26.813-0.116l26.363,0.116c0.27,0.001,0.527,0.111,0.715,0.306l28.069,29.094
			c0.38,0.394,0.373,1.019-0.015,1.404l-54.653,54.311C59.829,105.736,59.574,105.833,59.319,105.833z M6.07,50.508l53.249,52.916
			l53.249-52.916L85.477,22.427l-25.933-0.114l-26.382,0.114L6.07,50.508z"/>
	</g>
	<path fill="#2E3B49" d="M113.912,51.573L113.912,51.573L4.736,51.509c-0.552-0.001-0.999-0.448-0.999-1.001
		c0-0.552,0.448-0.999,1-0.999h0.001l109.175,0.064c0.552,0.001,0.999,0.448,0.999,1.001
		C114.912,51.126,114.464,51.573,113.912,51.573z"/>
	<path fill="#2E3B49" d="M59.32,105.833c-0.335,0-0.661-0.167-0.851-0.473L24.773,51.05c-0.229-0.368-0.193-0.843,0.086-1.173
		l24.69-29.172c0.357-0.421,0.985-0.475,1.41-0.117c0.421,0.357,0.474,0.988,0.117,1.41L26.856,50.613l33.313,53.692
		c0.291,0.47,0.146,1.086-0.322,1.377C59.683,105.785,59.5,105.833,59.32,105.833z"/>
	<path fill="#2E3B49" d="M59.167,105.833c-0.18,0-0.362-0.048-0.526-0.15c-0.469-0.291-0.613-0.907-0.322-1.377l33.313-53.692
		L67.414,21.998c-0.356-0.422-0.304-1.053,0.118-1.41s1.053-0.304,1.409,0.117l24.687,29.172c0.279,0.33,0.314,0.805,0.086,1.173
		L60.018,105.36C59.828,105.666,59.502,105.833,59.167,105.833z"/>
	<path fill="#2E3B49" d="M59.147,105.093c-0.457,0-0.869-0.314-0.975-0.778l-12.15-53.57c-0.063-0.281-0.003-0.575,0.166-0.809
		l21.135-29.18c0.323-0.448,0.947-0.549,1.396-0.225c0.447,0.324,0.547,0.949,0.223,1.396L48.073,50.742l12.051,53.129
		c0.122,0.539-0.216,1.074-0.754,1.197C59.295,105.085,59.221,105.093,59.147,105.093z"/>
	<path fill="#2E3B49" d="M59.407,105.093c-0.073,0-0.147-0.008-0.223-0.024c-0.538-0.123-0.876-0.658-0.754-1.197l12.053-53.129
		L49.61,21.928c-0.324-0.447-0.225-1.072,0.223-1.396c0.448-0.324,1.073-0.224,1.396,0.225l21.139,29.18
		c0.169,0.233,0.229,0.527,0.166,0.809l-12.152,53.57C60.276,104.778,59.864,105.093,59.407,105.093z"/>
	<path fill="#2E3B49" d="M46.999,51.522c-0.37,0-0.726-0.206-0.898-0.56L31.838,21.869c-0.243-0.496-0.039-1.096,0.457-1.338
		c0.498-0.244,1.097-0.038,1.338,0.457l14.263,29.094c0.243,0.496,0.039,1.096-0.457,1.338
		C47.297,51.49,47.146,51.522,46.999,51.522z"/>
	<path fill="#2E3B49" d="M71.573,51.522c-0.147,0-0.298-0.032-0.439-0.103c-0.496-0.242-0.7-0.842-0.457-1.338l14.261-29.094
		c0.241-0.494,0.841-0.699,1.338-0.457c0.496,0.242,0.7,0.842,0.457,1.338L72.472,50.963C72.299,51.316,71.943,51.522,71.573,51.522
		z"/>
	<g>
		<g>
			<polygon fill="#6A849B" points="59.296,104.726 4.666,50.522 25.521,50.365 			"/>
			<path fill="#2E3B49" d="M59.296,106c-0.256,0-0.511-0.234-0.704-0.428L3.962,51.301c-0.287-0.284-0.374-0.748-0.222-1.121
				c0.152-0.375,0.515-0.637,0.918-0.641l20.855-0.165c0.313,0.022,0.673,0.171,0.857,0.468l33.683,54.211
				c0.163,0.178,0.262,0.551,0.262,0.811c0,0.553-0.447,1.137-1,1.137C59.308,106,59.302,106,59.296,106z M7.075,51.504
				l46.869,46.504L24.968,51.369L7.075,51.504z"/>
		</g>
		<g>
			<polygon fill="#6A849B" points="47.072,50.688 71.518,50.526 59.296,104.726 			"/>
			<path fill="#2E3B49" d="M59.296,105.726c-0.467,0-0.872-0.323-0.976-0.779L46.097,50.908c-0.066-0.295,0.004-0.605,0.192-0.842
				c0.188-0.238,0.474-0.141,0.776-0.143L71.511,50c0.003,0,0.005,0,0.007,0c0.303,0,0.589-0.1,0.779,0.137
				c0.191,0.236,0.264,0.431,0.196,0.728l-12.222,54.14C60.169,105.461,59.764,105.726,59.296,105.726L59.296,105.726z
				 M48.322,51.68l10.972,48.507l10.971-48.651L48.322,51.68z"/>
		</g>
		<g>
			<polygon fill="#6A849B" points="92.617,50.515 113.962,50.6 59.296,104.575 			"/>
			<path fill="#2E3B49" d="M59.296,105.575c-0.22,0-0.439-0.071-0.623-0.218c-0.396-0.314-0.494-0.876-0.229-1.307l33.321-53.818
				C91.948,49.938,92.271,50,92.617,50c0,0,0.003,0,0.004,0l21.345-0.158c0.405,0.002,0.769,0.126,0.922,0.501
				s0.064,0.745-0.224,1.028l-54.666,53.945C59.805,105.508,59.551,105.575,59.296,105.575z M93.174,51.518L64.51,98.021
				l47.025-46.432L93.174,51.518z"/>
		</g>
		<g>
			<polygon fill="#6A849B" points="39.031,34.282 25.556,50.509 47.072,50.688 			"/>
			<path fill="#2E3B49" d="M47.072,52c-0.003,0-0.006,0-0.009,0l-21.517-0.335c-0.386-0.003-0.735-0.307-0.898-0.657
				c-0.162-0.35-0.108-0.802,0.138-1.099l13.476-16.246c0.217-0.261,0.557-0.402,0.888-0.364c0.337,0.041,0.631,0.244,0.779,0.549
				L47.97,50.25c0.153,0.311,0.134,0.834-0.051,1.128C47.735,51.669,47.416,52,47.072,52z M27.672,49.526l17.79,0.147l-6.648-13.564
				L27.672,49.526z"/>
		</g>
		<g>
			<polygon fill="#6A849B" points="79.399,34.604 71.518,50.526 92.566,50.488 			"/>
			<path fill="#2E3B49" d="M71.518,52c-0.346,0-0.667-0.415-0.849-0.709c-0.184-0.293-0.201-0.779-0.048-1.09l7.882-15.981
				c0.15-0.304,0.444-0.54,0.78-0.579c0.342-0.041,0.671,0.08,0.886,0.34l13.167,15.877c0.247,0.299,0.3,0.709,0.136,1.059
				c-0.164,0.352-0.517,0.811-0.903,0.811L71.52,52C71.52,52,71.519,52,71.518,52z M79.612,36.428L73.13,49.523l17.312-0.031
				L79.612,36.428z"/>
		</g>
		<g>
			<polygon fill="#6A849B" points="59.135,33.531 47.007,50.636 71.518,50.526 			"/>
			<path fill="#2E3B49" d="M47.007,52c-0.373,0-0.715-0.39-0.888-0.721c-0.173-0.333-0.145-0.825,0.072-1.131l12.128-16.916
				C58.505,32.971,58.807,33,59.128,33c0.003,0,0.005,0,0.007,0c0.319,0,0.62-0.082,0.809,0.177l12.383,16.878
				c0.221,0.303,0.253,0.646,0.084,0.981c-0.17,0.335-0.513,0.7-0.888,0.702L47.012,52C47.01,52,47.009,52,47.007,52z
				 M59.146,35.244L48.948,49.627l20.609-0.092L59.146,35.244z"/>
		</g>
		<g>
			<polygon fill="#6A849B" points="39.031,34.282 32.759,21.522 50.342,21.417 			"/>
			<path fill="#2E3B49" d="M39.031,35.282c-0.044,0-0.088-0.003-0.132-0.009c-0.331-0.044-0.618-0.25-0.766-0.55l-6.272-12.761
				c-0.152-0.309-0.134-0.674,0.047-0.967c0.182-0.293,0.5-0.68,0.845-0.682L50.336,20c0.002,0,0.004,0,0.006,0
				c0.392,0,0.747,0.438,0.91,0.793c0.163,0.359,0.101,0.884-0.159,1.18L39.782,34.891C39.591,35.107,39.316,35.282,39.031,35.282z
				 M34.36,22.513l4.908,9.985l8.851-10.068L34.36,22.513z"/>
		</g>
		<g>
			<polygon fill="#6A849B" points="79.399,34.604 68.142,21.417 85.725,21.522 			"/>
			<path fill="#2E3B49" d="M79.399,35.604c-0.291,0-0.569-0.126-0.761-0.351L67.381,22.066c-0.254-0.298-0.311-0.717-0.146-1.07
				c0.165-0.355,0.499-0.627,0.913-0.579l17.583,0.105c0.344,0.002,0.661,0.18,0.843,0.472c0.182,0.291,0.201,0.654,0.052,0.963
				L80.3,35.039c-0.147,0.305-0.438,0.514-0.772,0.557C79.484,35.602,79.441,35.604,79.399,35.604z M70.321,22.43l8.845,10.361
				l4.969-10.277L70.321,22.43z"/>
		</g>
		<g>
			<polygon fill="#6A849B" points="59.135,33.698 50.42,21.608 68.058,21.532 			"/>
			<path fill="#2E3B49" d="M59.135,35c-0.001,0-0.003,0-0.003,0c-0.321,0-0.621-0.307-0.809-0.566l-8.715-12.165
				c-0.219-0.304-0.25-0.743-0.08-1.076c0.171-0.334,0.513-0.329,0.888-0.331L68.054,21c0.001,0,0.003,0,0.003,0
				c0.377,0,0.722-0.023,0.892,0.313c0.172,0.336,0.139,0.624-0.084,0.928l-8.923,12.259C59.753,34.756,59.453,35,59.135,35z
				 M52.367,22.6l6.774,9.398l6.937-9.457L52.367,22.6z"/>
		</g>
	</g>
</g>
</svg>
