<?xml version="1.0" encoding="utf-8"?>
<!-- Generator: Adobe Illustrator 16.0.0, SVG Export Plug-In . SVG Version: 6.00 Build 0)  -->
<!DOCTYPE svg PUBLIC "-//W3C//DTD SVG 1.1//EN" "http://www.w3.org/Graphics/SVG/1.1/DTD/svg11.dtd">
<svg version="1.1" id="Layer_1" xmlns="http://www.w3.org/2000/svg" xmlns:xlink="http://www.w3.org/1999/xlink" x="0px" y="0px"
	 width="120px" height="120px" viewBox="0 0 120 120" enable-background="new 0 0 120 120" xml:space="preserve">
<g>
	<g>
		<path fill="#6A849B" d="M97.11,106H9V29h96c0,0,0,64.056,0,64.105C105,96.11,106.166,106,97.11,106z"/>
		<path fill="#2E3B49" d="M97.11,107H9c-0.553,0-1-0.447-1-1V29c0-0.553,0.447-1,1-1h96c0.553,0,1,0.447,1,1v64.105
			c0,0.259,0.009,0.57,0.02,0.924c0.076,2.679,0.22,7.666-2.677,10.646C101.844,106.218,99.747,107,97.11,107z M10,105h87.11
			c2.105,0,3.675-0.563,4.799-1.719c2.307-2.373,2.179-6.811,2.111-9.195c-0.011-0.375-0.021-0.705-0.021-0.98V30H10V105z"/>
	</g>
	<g>
		<path fill="#FFFFFF" d="M97,5.392v75.359c4,0.338,7,1.157,8,12.15v-78.5C105,8.906,102,5.081,97,5.392z"/>
		<path fill="#2E3B49" d="M104.999,94c-0.514,0-0.948-0.441-0.995-0.959c-0.976-10.729-3.809-10.992-7.088-11.269
			C96.398,81.729,96,81.271,96,80.751V5.392c0-0.528,0.411-0.966,0.938-0.998C102.368,4.061,106,8.162,106,14.401v78.5
			c0,0.534-0.421,1.099-0.955,1.099C105.03,94,105.015,94,104.999,94z M98,79.848c2.486,0.304,4.548,1.068,6,4.041V14.401
			c0-4.767-2.286-7.794-6-8.015V79.848z"/>
	</g>
	<g>
		<path fill="#FFFFFF" d="M49.906,38.975c3.89,0,28.466-0.717,32.048,0c7.783,0.511,9.83,5.887,10.241,12.95
			c0.256,5.891,0.256,9.473-0.052,15.055c0,4.353-1.997,7.835-7.679,7.782c-3.687,0-11.11,0.053-12.443,0.869
			c-1.33,0.818-2.661,4.404,0.82,5.531c3.481,1.124,7.577-0.103,10.447,0.306c2.863,0.41,4.4,6.86-0.104,7.066
			c-4.507,0.205-58.061,3.582-58.265-4.813c-0.922-6.759,0.204-22.016,2.561-25.292c2.355-3.276,7.271-1.434,10.546-3.787
			c3.277-2.356,3.175-8.191,3.277-11.163C41.561,38.615,45.553,39.025,49.906,38.975z"/>
		<path fill="#2E3B49" d="M56.245,90.377c-28.628,0-32.206-3.732-32.322-6.572c-0.899-6.719,0.132-22.324,2.747-25.96
			c1.558-2.167,3.936-2.45,6.234-2.723c1.688-0.2,3.283-0.39,4.539-1.292c2.628-1.891,2.761-6.754,2.841-9.66l0.021-0.727
			c0.285-5.436,4.682-5.45,8.561-5.463l1.028-0.006c0.927,0,2.99-0.04,5.656-0.092c4.972-0.096,11.782-0.227,17.367-0.227
			c4.978,0,7.978,0.105,9.164,0.324c9.168,0.634,10.755,7.751,11.111,13.887c0.266,6.102,0.253,9.761-0.052,15.286
			C93.144,72.68,90.026,76,84.592,76h-0.137c-9.659,0-11.548,0.386-11.911,0.604c-0.434,0.266-1.019,1.224-0.908,2.146
			c0.087,0.721,0.582,1.189,1.514,1.49c0.929,0.3,1.98,0.425,3.31,0.425c0.942,0,1.901-0.078,2.829-0.146
			c1.544-0.114,3.028-0.195,4.142-0.037c2.252,0.323,3.699,3.064,3.59,5.325c-0.106,2.197-1.558,3.625-3.788,3.728l-1.308,0.067
			C77.925,89.813,67.302,90.377,56.245,90.377z M72.918,39.656c-5.565,0-12.364,0.131-17.329,0.227
			c-2.684,0.052-4.762,0.092-5.683,0.092l-1.033,0.006c-4.312,0.014-6.392,0.171-6.569,3.551l-0.021,0.693
			c-0.09,3.276-0.239,8.761-3.672,11.229c-1.676,1.204-3.692,1.443-5.471,1.654c-2.041,0.242-3.803,0.452-4.848,1.904
			c-2.127,2.958-3.308,17.783-2.381,24.574c0.005,0.036,0.008,0.073,0.009,0.11c0.026,1.099,2.292,4.681,30.324,4.681
			c11.004,0,21.589-0.563,25.573-0.773l1.321-0.068c1.193-0.055,1.826-0.67,1.882-1.827c0.071-1.467-0.875-3.106-1.874-3.251
			c-0.93-0.131-2.281-0.057-3.712,0.049c-0.964,0.07-1.961,0.145-2.977,0.145c-1.544,0-2.791-0.17-3.925-0.537
			c-2.266-0.732-2.779-2.311-2.884-3.186c-0.208-1.732,0.797-3.383,1.847-4.029C72.319,74.395,74.502,74,84.465,74h0.127
			c4.348,0,6.552-2.401,6.552-6.901c0.302-5.505,0.313-9.06,0.053-15.071c-0.473-8.113-3.169-11.622-9.308-12.025
			c-0.044-0.002-0.088-0.023-0.131-0.032C81.076,39.834,78.988,39.656,72.918,39.656z"/>
	</g>
	<g>
		<path fill="#FFFFFF" d="M89.737,87.459c-0.974-4.605,6.451-3.991,7.063-1.941c0.614,2.046,0.974,8.036-2.352,7.422
			C91.172,92.428,90.711,92.069,89.737,87.459z"/>
		<path fill="#2E3B49" d="M94.906,93.983c-0.201,0-0.414-0.019-0.639-0.061c-3.801-0.593-4.474-1.354-5.509-6.257
			c-0.332-1.572,0.158-2.594,0.629-3.174c0.797-0.983,2.164-1.525,3.849-1.525c1.853,0,4.058,0.709,4.522,2.265
			c0.509,1.694,0.864,5.661-0.568,7.588C96.624,93.581,95.834,93.983,94.906,93.983z M93.236,84.967
			c-1.039,0-1.897,0.294-2.295,0.785c-0.29,0.357-0.363,0.848-0.226,1.5c0.894,4.232,1.063,4.258,3.888,4.699
			c0.542,0.1,0.737,0.004,0.981-0.325c0.887-1.191,0.671-4.446,0.258-5.821C95.766,85.561,94.756,84.967,93.236,84.967z"/>
	</g>
	<g>
		<path fill="#2E3B49" d="M34.341,83.992c-0.17,0-0.343-0.029-0.512-0.09c-0.778-0.282-1.181-1.143-0.898-1.922
			c0.268-0.737,0.542-1.459,0.82-2.166c0.304-0.771,1.176-1.15,1.945-0.846c0.771,0.304,1.149,1.175,0.846,1.945
			c-0.269,0.682-0.533,1.378-0.791,2.09C35.53,83.613,34.954,83.992,34.341,83.992z"/>
		<path fill="#2E3B49" d="M37.604,76.321c-0.225,0-0.451-0.05-0.666-0.157c-0.742-0.367-1.045-1.268-0.677-2.01
			c0.748-1.508,1.546-2.975,2.37-4.359c0.426-0.713,1.345-0.944,2.057-0.521c0.712,0.424,0.945,1.345,0.521,2.057
			c-0.786,1.319-1.547,2.719-2.261,4.158C38.688,76.016,38.156,76.321,37.604,76.321z M43.294,67.03
			c-0.315,0-0.632-0.099-0.903-0.303c-0.661-0.499-0.792-1.44-0.293-2.101c1.016-1.346,2.092-2.637,3.199-3.836
			c0.563-0.609,1.512-0.646,2.12-0.086c0.608,0.563,0.646,1.512,0.085,2.12c-1.041,1.128-2.054,2.343-3.01,3.608
			C44.197,66.824,43.748,67.03,43.294,67.03z M50.797,59.143c-0.433,0-0.862-0.186-1.159-0.546c-0.526-0.64-0.435-1.585,0.204-2.111
			c1.3-1.071,2.666-2.067,4.059-2.962c0.695-0.446,1.624-0.246,2.073,0.452c0.447,0.697,0.245,1.626-0.452,2.073
			c-1.294,0.83-2.563,1.756-3.771,2.752C51.471,59.031,51.133,59.143,50.797,59.143z M60.048,53.42
			c-0.577,0-1.127-0.335-1.374-0.897c-0.333-0.759,0.012-1.644,0.77-1.977c1.55-0.681,3.145-1.261,4.743-1.724
			c0.79-0.227,1.627,0.229,1.857,1.023c0.23,0.797-0.228,1.629-1.023,1.859c-1.471,0.426-2.941,0.96-4.37,1.588
			C60.454,53.379,60.249,53.42,60.048,53.42z"/>
		<path fill="#2E3B49" d="M70.572,50.604c-0.765,0-1.419-0.583-1.491-1.36c-0.078-0.825,0.528-1.556,1.354-1.634
			c1.523-0.143,2.439-0.102,2.479-0.1c0.827,0.039,1.467,0.742,1.427,1.569c-0.039,0.827-0.731,1.466-1.569,1.427
			c-0.002,0-0.763-0.031-2.057,0.091C70.667,50.602,70.619,50.604,70.572,50.604z"/>
	</g>
	<path fill="#2E3B49" d="M81.545,54.298c-0.392,0-0.782-0.152-1.076-0.455l-6.961-7.17c-0.577-0.595-0.563-1.544,0.031-2.121
		c0.594-0.577,1.545-0.563,2.121,0.031l6.961,7.17c0.577,0.595,0.563,1.544-0.031,2.121C82.299,54.157,81.922,54.298,81.545,54.298z
		"/>
	<path fill="#2E3B49" d="M74.685,54.298c-0.353,0-0.707-0.124-0.992-0.376c-0.621-0.549-0.68-1.496-0.131-2.117l6.244-7.064
		c0.549-0.621,1.495-0.68,2.117-0.131c0.621,0.549,0.68,1.496,0.131,2.117l-6.244,7.064C75.513,54.127,75.1,54.298,74.685,54.298z"
		/>
</g>
</svg>
