<?xml version="1.0" encoding="utf-8"?>
<!-- Generator: Adobe Illustrator 16.0.0, SVG Export Plug-In . SVG Version: 6.00 Build 0)  -->
<!DOCTYPE svg PUBLIC "-//W3C//DTD SVG 1.1//EN" "http://www.w3.org/Graphics/SVG/1.1/DTD/svg11.dtd">
<svg version="1.1" id="Layer_1" xmlns="http://www.w3.org/2000/svg" xmlns:xlink="http://www.w3.org/1999/xlink" x="0px" y="0px"
	 width="120px" height="120px" viewBox="0 0 120 120" enable-background="new 0 0 120 120" xml:space="preserve">
<g>
	<g>
		<g>
			<path fill="#FFFFFF" d="M75.086,78.807c-18.746,0-33.938-15.193-33.938-33.938c0-11.27,5.497-21.25,13.954-27.424
				c-0.063,0-0.132-0.005-0.199-0.005c-26.297,0-47.616,21.317-47.616,47.619c0,26.296,21.319,47.615,47.616,47.615
				c26.298,0,47.619-21.319,47.619-47.615c0-0.074-0.006-0.145-0.006-0.216C96.343,73.303,86.36,78.807,75.086,78.807z"/>
			<path fill="#2E3B49" d="M54.903,113.674c-26.807,0-48.616-21.809-48.616-48.615c0-26.809,21.81-48.619,48.616-48.619l0.139,0.003
				c0.426,0.016,0.844,0.301,0.969,0.708c0.124,0.407,0.025,0.851-0.318,1.102c-8.48,6.191-13.544,16.141-13.544,26.616
				c0,18.162,14.775,32.938,32.938,32.938c10.478,0,20.43-5.066,26.623-13.554c0.255-0.35,0.708-0.494,1.117-0.361
				c0.412,0.135,0.69,0.519,0.69,0.951l0.006,0.216C103.522,91.865,81.712,113.674,54.903,113.674z M52.149,18.525
				C27.688,19.98,8.287,40.296,8.287,65.059c0,25.704,20.912,46.615,46.616,46.615c24.79,0,45.122-19.447,46.54-43.886
				c-6.604,7.575-16.251,12.019-26.357,12.019c-19.265,0-34.938-15.673-34.938-34.938C40.148,34.768,44.586,25.128,52.149,18.525z"
				/>
		</g>
	</g>
	<g>
		<polygon fill="#2E3B49" points="96.495,26.304 111.018,29.136 96.495,31.963 93.666,46.486 90.833,31.963 76.311,29.136 
			90.833,26.304 93.666,11.783 		"/>
		<path fill="#2E3B49" d="M93.666,47.486c-0.479,0-0.89-0.339-0.981-0.809L89.98,32.815l-13.861-2.698
			c-0.47-0.092-0.809-0.503-0.809-0.981s0.339-0.89,0.809-0.981l13.861-2.703l2.704-13.859c0.092-0.47,0.503-0.809,0.981-0.809l0,0
			c0.479,0,0.89,0.339,0.981,0.809l2.7,13.859l13.861,2.703c0.47,0.092,0.809,0.503,0.809,0.981s-0.339,0.89-0.809,0.981
			l-13.861,2.698l-2.7,13.862C94.556,47.147,94.145,47.486,93.666,47.486z M81.539,29.135l9.485,1.847
			c0.399,0.078,0.712,0.391,0.79,0.79l1.851,9.488l1.849-9.488c0.078-0.399,0.391-0.712,0.79-0.79l9.485-1.847l-9.485-1.85
			c-0.399-0.078-0.712-0.391-0.79-0.79l-1.849-9.486l-1.851,9.486c-0.078,0.399-0.391,0.712-0.79,0.79L81.539,29.135z"/>
	</g>
	<g>
		<polygon fill="#2E3B49" points="82.105,49.934 90.807,51.632 82.105,53.327 80.407,62.027 78.714,53.327 70.011,51.632 
			78.714,49.934 80.407,41.234 		"/>
		<path fill="#2E3B49" d="M80.407,63.027L80.407,63.027c-0.479,0-0.891-0.339-0.981-0.809l-1.564-8.039l-8.042-1.566
			c-0.47-0.092-0.809-0.503-0.809-0.981s0.339-0.89,0.809-0.981l8.042-1.569l1.564-8.038c0.091-0.47,0.503-0.809,0.981-0.809
			s0.89,0.339,0.981,0.809l1.569,8.038l8.04,1.569c0.47,0.092,0.809,0.503,0.809,0.981s-0.339,0.89-0.809,0.981l-8.04,1.566
			l-1.569,8.039C81.297,62.688,80.886,63.027,80.407,63.027z M75.236,51.631l3.669,0.715c0.399,0.078,0.712,0.391,0.79,0.79
			l0.713,3.665l0.716-3.665c0.078-0.399,0.391-0.712,0.79-0.79l3.668-0.715l-3.668-0.716c-0.399-0.078-0.712-0.391-0.79-0.79
			l-0.716-3.664l-0.713,3.664c-0.078,0.399-0.391,0.712-0.79,0.79L75.236,51.631z"/>
	</g>
	<path fill="#6A849B" d="M26.032,91.417c-0.712,0-1.42-0.303-1.915-0.892c-11.402-13.564-13.286-29.858-5.168-44.704
		c0.662-1.213,2.181-1.656,3.393-0.994s1.656,2.182,0.994,3.393c-7.18,13.13-5.543,27.012,4.609,39.089
		c0.888,1.057,0.752,2.634-0.306,3.522C27.171,91.225,26.601,91.417,26.032,91.417z"/>
</g>
</svg>
