<?xml version="1.0" encoding="utf-8"?>
<!-- Generator: Adobe Illustrator 16.0.0, SVG Export Plug-In . SVG Version: 6.00 Build 0)  -->
<!DOCTYPE svg PUBLIC "-//W3C//DTD SVG 1.1//EN" "http://www.w3.org/Graphics/SVG/1.1/DTD/svg11.dtd">
<svg version="1.1" id="Layer_1" xmlns="http://www.w3.org/2000/svg" xmlns:xlink="http://www.w3.org/1999/xlink" x="0px" y="0px"
	 width="120px" height="120px" viewBox="0 0 120 120" enable-background="new 0 0 120 120" xml:space="preserve">
<g>
	<path fill="#6A849B" d="M67.756,112.505c0,1.558-11.304,2.819-25.248,2.819c-13.945,0-25.25-1.262-25.25-2.819
		c0,0,3.769-19.788,2.65-25.569c-1.115-5.777-2.79-22.582-2.65-24.562h50.498c0,0,0.142,7.555-1.114,12.074l7.252-4.849l3.212,7.786
		c0,0-10.464,7.734-10.744,15.798C66.082,101.24,67.756,112.505,67.756,112.505z"/>
	<path fill="#2E3B49" d="M42.508,116.324c-6.781,0-13.161-0.295-17.966-0.832c-7.645-0.854-8.284-1.943-8.284-2.987
		c0-0.063,0.006-0.125,0.018-0.188c0.037-0.195,3.72-19.664,2.651-25.192c-1.079-5.587-2.827-22.544-2.666-24.821
		c0.036-0.523,0.472-0.93,0.997-0.93h50.498c0.545,0,0.989,0.437,1,0.981c0.005,0.263,0.092,5.493-0.625,9.895l5.207-3.481
		c0.249-0.168,0.56-0.212,0.847-0.126c0.286,0.088,0.52,0.299,0.634,0.576l3.212,7.786c0.175,0.423,0.038,0.912-0.33,1.185
		c-0.101,0.075-10.079,7.547-10.34,15.029c-0.272,7.874,1.368,19.027,1.385,19.139c0.007,0.049,0.011,0.099,0.011,0.147
		c0,1.044-0.64,2.134-8.284,2.987C55.668,116.029,49.288,116.324,42.508,116.324z M18.323,112.249
		c1.696,0.912,10.541,2.075,24.185,2.075c13.688,0,22.546-1.171,24.199-2.084c-0.302-2.132-1.598-11.809-1.345-19.091
		c0.256-7.365,8.199-14.229,10.528-16.087l-2.456-5.953l-6.237,4.17c-0.347,0.234-0.803,0.223-1.142-0.021
		c-0.339-0.245-0.489-0.676-0.378-1.078c0.94-3.383,1.07-8.642,1.081-10.807H18.264c0.17,4.055,1.617,18.143,2.626,23.372
		C21.95,92.228,18.889,109.207,18.323,112.249z"/>
</g>
<g>
	<path fill="#2E3B49" d="M77.109,72.767c0.935,2.24,1.047,4.324,0.25,4.657c-0.793,0.329-2.196-1.217-3.128-3.459
		c-0.935-2.236-1.044-4.319-0.25-4.651C74.778,68.98,76.181,70.53,77.109,72.767z"/>
	<path fill="#2E3B49" d="M77.13,78.468c-1.558,0-3.032-2.219-3.822-4.119c-1.033-2.473-1.345-5.274,0.288-5.958
		c0.194-0.081,0.402-0.122,0.618-0.122c1.556,0,2.993,2.125,3.819,4.114c1.032,2.477,1.345,5.281-0.288,5.964
		C77.55,78.428,77.344,78.468,77.13,78.468z M74.455,70.447c-0.042,0.564,0.101,1.7,0.699,3.132
		c0.596,1.436,1.302,2.338,1.732,2.707c0.042-0.565-0.102-1.7-0.7-3.135C75.591,71.717,74.885,70.815,74.455,70.447z"/>
</g>
<g>
	<ellipse fill="#2E3B49" cx="42.507" cy="62.374" rx="25.249" ry="2.816"/>
	<path fill="#2E3B49" d="M42.508,66.19c-6.779,0-13.16-0.295-17.966-0.831c-7.645-0.854-8.284-1.942-8.284-2.985
		c0-1.044,0.64-2.134,8.284-2.988c4.805-0.536,11.186-0.832,17.966-0.832s13.16,0.296,17.964,0.832
		c7.645,0.854,8.284,1.944,8.284,2.988c0,1.043-0.64,2.132-8.284,2.985C55.667,65.896,49.287,66.19,42.508,66.19z M18.969,62.373
		c2.715,0.858,11.148,1.817,23.539,1.817c12.39,0,20.822-0.959,23.537-1.817c-2.714-0.859-11.146-1.819-23.537-1.819
		C30.116,60.554,21.683,61.514,18.969,62.373z"/>
</g>
<g>
	<path fill="#FFFFFF" d="M44.053,43.375l-4.12-8.217c0,0,8.974-4.373,10.561-4.766c1.586-0.393,9.302-1.736,12.862-3.738
		c3.567-2,30.006-17.582,36.951-18.83c0,0,2.784,10.377-0.223,10.736c-3.004,0.359-6.5-0.744-10.188,1.324
		C86.208,21.957,60.127,38.33,44.053,43.375z"/>
	<path fill="#2E3B49" d="M44.053,44.375c-0.37,0-0.721-0.206-0.894-0.552l-4.12-8.217c-0.12-0.239-0.14-0.516-0.054-0.769
		s0.269-0.462,0.509-0.579c0.929-0.452,9.116-4.431,10.759-4.837c0.292-0.072,0.785-0.176,1.421-0.31
		c2.728-0.572,8.404-1.763,11.191-3.33c0.43-0.24,1.189-0.678,2.207-1.263c12.354-7.105,29.43-16.668,35.058-17.68
		c0.509-0.092,1.007,0.224,1.143,0.726c0.377,1.404,2.173,8.537,0.505,11.002c-0.384,0.568-0.929,0.909-1.574,0.986
		c-0.854,0.102-1.948,0.093-3.106,0.056c-0.486-0.015-0.981-0.03-1.484-0.03c-1.546,0-3.376,0.14-5.227,1.178
		c-0.533,0.3-1.539,0.901-2.917,1.726c-8.007,4.787-29.273,17.502-43.116,21.847C44.253,44.36,44.152,44.375,44.053,44.375z
		 M41.28,35.616l3.282,6.544c13.631-4.505,34.084-16.734,41.88-21.395c1.4-0.837,2.422-1.448,2.964-1.753
		c2.253-1.264,4.401-1.434,6.206-1.434c0.524,0,1.04,0.016,1.547,0.031c1.053,0.033,2.065,0.047,2.806-0.043
		c0.038-0.004,0.081-0.01,0.156-0.12c0.773-1.145,0.195-5.323-0.543-8.425c-6.955,1.96-26.787,13.365-33.509,17.231
		c-1.026,0.59-1.793,1.03-2.225,1.272c-3.056,1.718-8.718,2.905-11.761,3.544c-0.604,0.126-1.073,0.225-1.351,0.293
		C49.743,31.608,44.75,33.94,41.28,35.616z"/>
</g>
<g>
	<path fill="#FFFFFF" d="M31.333,36.048c0,0,7.437,13.4,8.064,16.278c0.631,2.879,1.067,11.422,1.067,11.422
		s10.913-2.227,18.943-10.631L45.52,45.365l-6.51-12.629L31.333,36.048z"/>
	<path fill="#2E3B49" d="M40.465,64.748c-0.22,0-0.436-0.072-0.612-0.21c-0.23-0.178-0.371-0.448-0.387-0.739
		c-0.004-0.084-0.439-8.493-1.045-11.259c-0.49-2.243-5.914-12.315-7.962-16.007c-0.138-0.247-0.164-0.541-0.072-0.808
		c0.091-0.268,0.291-0.484,0.55-0.596l7.677-3.312c0.481-0.208,1.044-0.008,1.285,0.46l6.372,12.36l13.625,7.605
		c0.271,0.15,0.455,0.418,0.502,0.724c0.046,0.307-0.053,0.616-0.267,0.84c-8.152,8.533-19.008,10.827-19.466,10.92
		C40.599,64.741,40.531,64.748,40.465,64.748z M32.741,36.529c1.806,3.288,7.071,13.009,7.633,15.584
		c0.503,2.291,0.875,7.884,1.021,10.369c2.806-0.778,10.29-3.281,16.372-9.136l-12.735-7.108c-0.172-0.096-0.312-0.24-0.401-0.415
		l-6.082-11.799L32.741,36.529z"/>
</g>
<g>
	<line fill="#FFFFFF" x1="39.853" y1="55.54" x2="51.93" y2="48.943"/>
	<path fill="#2E3B49" d="M39.854,56.54c-0.354,0-0.697-0.188-0.879-0.521c-0.265-0.484-0.086-1.093,0.398-1.357l12.077-6.597
		c0.486-0.265,1.093-0.085,1.357,0.398c0.265,0.484,0.086,1.093-0.398,1.357l-12.077,6.597C40.18,56.501,40.016,56.54,39.854,56.54z
		"/>
</g>
<path fill="#FFFFFF" d="M56.5,109.5c-1.381,0-2.5-1.119-2.5-2.5V89c0-1.381,1.119-2.5,2.5-2.5S59,87.619,59,89v18
	C59,108.381,57.881,109.5,56.5,109.5z"/>
<path fill="#FFFFFF" d="M56.5,78.5c-1.381,0-2.5-1.119-2.5-2.5v-5c0-1.381,1.119-2.5,2.5-2.5S59,69.619,59,71v5
	C59,77.381,57.881,78.5,56.5,78.5z"/>
<g>
	<line fill="#FFFFFF" x1="84.209" y1="15.166" x2="87.172" y2="21.494"/>
	<path fill="#2E3B49" d="M87.173,22.494c-0.376,0-0.736-0.213-0.906-0.576l-2.963-6.328c-0.234-0.5-0.019-1.096,0.481-1.329
		c0.5-0.235,1.096-0.019,1.329,0.481l2.963,6.328c0.234,0.5,0.019,1.096-0.481,1.329C87.459,22.464,87.314,22.494,87.173,22.494z"/>
</g>
</svg>
