<?xml version="1.0" encoding="utf-8"?>
<!-- Generator: Adobe Illustrator 16.0.0, SVG Export Plug-In . SVG Version: 6.00 Build 0)  -->
<!DOCTYPE svg PUBLIC "-//W3C//DTD SVG 1.1//EN" "http://www.w3.org/Graphics/SVG/1.1/DTD/svg11.dtd">
<svg version="1.1" id="Layer_1" xmlns="http://www.w3.org/2000/svg" xmlns:xlink="http://www.w3.org/1999/xlink" x="0px" y="0px"
	 width="120px" height="120px" viewBox="0 0 120 120" enable-background="new 0 0 120 120" xml:space="preserve">
<g>
	<g>
		<path fill="#6A849B" d="M57.814,27.086c-1.528,0.205-3.048,0.515-4.52,0.991c-0.73,0.231-1.47,0.474-2.207,0.711
			c-0.744,0.241-1.471,0.574-2.201,0.857c-1.519,0.595-3.025,1.28-4.478,2.029c-0.571,0.294-1.161,0.568-1.715,0.899
			c-0.732,0.442-1.469,0.885-2.203,1.326c-0.568,0.344-1.095,0.774-1.635,1.157c-0.752,0.532-1.493,1.062-2.197,1.654l-1.979,1.656
			c-0.563,0.466-1.074,1.001-1.606,1.501c-0.982,0.929-1.961,1.896-2.843,2.929c-2.099,2.465-4.098,4.992-6.046,7.58
			c-1.687,2.24-3.189,4.625-4.653,7.019c-1.525,2.504-3.056,5.009-4.605,7.498c-1.521,2.438-3.009,4.885-4.459,7.361
			c-1.421,2.423-2.586,4.975-3.718,7.541c-0.64,1.456-1.12,2.979-1.855,4.389c-0.816,2.002-0.535,5.09-0.514,5.934
			c0.032,1.159,0.404,2.178,0.937,3.189c0.377,0.716,1.343,1.63,2.039,2.018c0.618,0.34,1.269,0.631,1.925,0.881
			c0.393,0.144,0.788,0.29,1.196,0.394c1.225,0.308,2.484,0.442,3.736,0.595c1.49,0.21,2.977,0.438,4.475,0.596
			c0.945,0.104,1.91,0.097,2.867,0.092c0.381-0.003,0.755-0.006,1.136-0.003c2.84,0.031,5.678,0.148,8.52,0.153
			c2.901,0.005,5.808-0.302,8.691-0.557c2.835-0.249,5.668-0.368,8.518-0.438c5.493-0.144,11.011-0.464,16.502-0.074
			c3.038,0.215,6.068,0.49,9.11,0.655c2.921,0.16,5.853,0.135,8.773,0.143c2.792,0.008,5.576-0.046,8.364-0.106
			c1.333-0.026,2.666-0.097,3.997-0.148c0.687-0.028,1.368-0.084,2.053-0.124c0.694-0.046,1.391-0.063,2.081-0.131
			c2.526-0.25,5.141-0.373,7.548-1.205c0.635-0.217,1.251-0.505,1.842-0.814c0.112-0.078,0.226-0.161,0.337-0.241
			c0.416-0.286,0.809-0.603,1.175-0.944c0.899-0.801,1.373-1.956,1.764-3.064c0.181-0.521,0.217-1.267,0.283-1.766
			c0.057-0.414,0.099-0.824,0.132-1.242c0.096-1.186-0.044-2.365-0.241-3.532c-0.189-1.132-0.69-2.218-1.061-3.302
			c-0.56-1.63-1.141-3.244-1.912-4.79c-1.062-2.126-2.591-3.983-4.052-5.842c-0.266-0.342-0.532-0.682-0.802-1.026
			c0.123,0.16,0.246,0.325,0.367,0.483c-1.17-1.521-2.311-3.054-3.47-4.58c-1.288-1.694-2.718-3.271-4.051-4.929
			c-0.898-1.248-1.641-2.566-2.271-3.965c-0.651-1.639-1.267-3.296-2.019-4.895c-0.316-0.68-0.638-1.355-0.956-2.037
			c-0.319-0.68-0.732-1.323-1.092-1.98c-0.699-1.265-1.542-2.466-2.342-3.67c-0.754-1.124-1.543-2.23-2.348-3.32
			c-1.256-1.71-2.521-3.432-3.923-5.024c-1.258-1.431-2.799-2.57-4.339-3.673c-1.551-1.107-3.24-1.935-4.986-2.679
			c-1.685-0.713-3.425-1.39-5.237-1.711c-1.236-0.223-2.464-0.422-3.712-0.578c-0.752-0.095-1.511-0.133-2.266-0.133
			C60.384,26.792,59.096,26.911,57.814,27.086"/>
		<path fill="#2E3B49" d="M31.279,99.033h-0.07c-1.617-0.003-3.233-0.041-4.85-0.08c-1.227-0.03-2.452-0.06-3.679-0.073
			l-0.322-0.001l-1.455,0.006c-0.732,0-1.521-0.012-2.323-0.1c-1.208-0.127-2.424-0.302-3.6-0.471l-1.241-0.17
			c-1.148-0.137-2.335-0.28-3.505-0.574c-0.445-0.113-0.855-0.263-1.252-0.408c-0.797-0.303-1.487-0.619-2.107-0.959
			c-0.812-0.453-1.944-1.482-2.442-2.429c-0.694-1.319-1.019-2.438-1.052-3.628l-0.017-0.4c-0.063-1.294-0.192-3.984,0.604-5.938
			c0.468-0.908,0.806-1.771,1.162-2.686c0.227-0.579,0.453-1.158,0.703-1.729c1.094-2.479,2.285-5.111,3.771-7.645
			c1.381-2.359,2.845-4.775,4.473-7.385c1.548-2.486,3.076-4.988,4.601-7.488c1.654-2.706,3.088-4.947,4.708-7.101
			c2.108-2.801,4.099-5.296,6.083-7.627c0.972-1.138,2.02-2.158,2.918-3.007c0.166-0.156,0.329-0.314,0.491-0.473
			c0.379-0.369,0.76-0.736,1.164-1.072l1.975-1.652c0.711-0.599,1.444-1.126,2.261-1.704c0.172-0.121,0.342-0.247,0.512-0.374
			c0.375-0.279,0.762-0.566,1.184-0.822l2.204-1.326c0.425-0.254,0.864-0.477,1.304-0.695l0.47-0.238
			c1.504-0.775,3.041-1.472,4.571-2.07c0.246-0.096,0.488-0.195,0.731-0.297c0.505-0.207,1.012-0.414,1.525-0.581l2.214-0.713
			c1.417-0.459,2.952-0.796,4.688-1.029c2.59-0.353,4.573-0.39,6.38-0.162c1.141,0.143,2.337,0.329,3.764,0.586
			c1.796,0.318,3.478,0.939,5.45,1.774c1.476,0.629,3.395,1.513,5.178,2.785c1.628,1.166,3.197,2.336,4.509,3.827
			c1.438,1.634,2.729,3.392,3.978,5.093c0.895,1.211,1.671,2.309,2.372,3.355l0.471,0.701c0.654,0.977,1.332,1.984,1.916,3.041
			c0.124,0.227,0.252,0.448,0.381,0.67c0.253,0.437,0.515,0.889,0.741,1.369l0.957,2.041c0.604,1.283,1.125,2.613,1.629,3.898
			l0.413,1.049c0.61,1.354,1.32,2.594,2.152,3.75c0.506,0.627,1.06,1.283,1.613,1.938c0.808,0.957,1.644,1.945,2.422,2.971
			l1.314,1.739c0.591,0.783,1.181,1.567,1.777,2.348l0.003-0.001l1.204,1.537c1.351,1.709,2.746,3.478,3.756,5.5
			c0.818,1.641,1.419,3.326,1.964,4.912c0.102,0.299,0.214,0.598,0.326,0.896c0.306,0.814,0.623,1.658,0.774,2.564
			c0.187,1.102,0.362,2.412,0.252,3.777c-0.035,0.436-0.079,0.865-0.138,1.298c-0.016,0.112-0.029,0.244-0.044,0.383
			c-0.05,0.479-0.112,1.075-0.286,1.575c-0.414,1.176-0.946,2.506-2.043,3.483c-0.387,0.361-0.821,0.71-1.273,1.021l-0.439,0.304
			c-0.739,0.388-1.369,0.665-1.982,0.875c-2.143,0.741-4.403,0.945-6.59,1.144l-1.183,0.11c-0.457,0.046-0.917,0.069-1.377,0.093
			c-0.246,0.012-0.491,0.024-0.736,0.041l-0.745,0.047c-0.444,0.03-0.888,0.061-1.333,0.078l-1.181,0.049
			c-0.945,0.041-1.892,0.082-2.838,0.101c-2.501,0.054-5.168,0.107-7.836,0.107l-1.88-0.003c-2.454-0.002-4.992-0.005-7.496-0.143
			c-1.975-0.106-3.971-0.262-5.902-0.412c-1.074-0.084-2.148-0.168-3.224-0.244c-1.743-0.123-3.617-0.184-5.729-0.184
			c-2.458,0-4.966,0.082-7.391,0.16c-1.096,0.036-2.191,0.072-3.285,0.1c-3.325,0.082-6.012,0.221-8.456,0.436l-1.191,0.107
			C36.343,98.803,33.804,99.033,31.279,99.033z M22.358,96.879l0.341,0.001c1.238,0.014,2.474,0.044,3.708,0.073
			c1.602,0.039,3.203,0.077,4.806,0.08l0.066,1v-1c2.434,0,4.928-0.227,7.339-0.445l1.196-0.107
			c2.487-0.219,5.214-0.359,8.581-0.441c1.088-0.029,2.179-0.064,3.271-0.1c2.441-0.08,4.966-0.162,7.456-0.162
			c2.16,0,4.081,0.063,5.87,0.189c1.08,0.076,2.159,0.16,3.238,0.244c1.92,0.149,3.904,0.304,5.855,0.41
			c2.451,0.134,4.962,0.137,7.39,0.139l1.878,0.003c2.647,0,5.303-0.054,7.795-0.107c0.933-0.019,1.863-0.058,2.793-0.099
			l1.187-0.049c0.426-0.018,0.853-0.047,1.279-0.075l0.754-0.048c0.248-0.017,0.504-0.029,0.76-0.043
			c0.428-0.021,0.855-0.043,1.281-0.085l1.199-0.112c2.067-0.188,4.205-0.381,6.12-1.043c0.501-0.171,1.024-0.401,1.646-0.724
			l0.276-0.198c0.388-0.268,0.744-0.554,1.076-0.863c0.76-0.677,1.173-1.73,1.503-2.666c0.097-0.277,0.146-0.746,0.186-1.124
			c0.017-0.158,0.032-0.308,0.05-0.441c0.055-0.399,0.095-0.79,0.126-1.189c0.093-1.147-0.064-2.306-0.23-3.286
			c-0.12-0.717-0.389-1.435-0.674-2.193c-0.12-0.318-0.238-0.635-0.347-0.952c-0.522-1.521-1.097-3.136-1.86-4.667
			c-0.918-1.838-2.249-3.523-3.536-5.154l-0.842-1.072l-0.007,0.006c-0.729-0.947-1.446-1.9-2.163-2.852l-1.31-1.734
			c-0.748-0.982-1.566-1.951-2.357-2.889c-0.564-0.668-1.129-1.336-1.677-2.018c-0.943-1.309-1.719-2.662-2.403-4.182l-0.434-1.098
			c-0.492-1.256-1.001-2.555-1.578-3.781l-0.957-2.039c-0.194-0.415-0.429-0.816-0.66-1.217c-0.137-0.235-0.273-0.471-0.402-0.707
			c-0.541-0.978-1.193-1.949-1.825-2.891l-0.473-0.707c-0.683-1.017-1.441-2.091-2.319-3.279c-1.225-1.668-2.49-3.391-3.869-4.957
			c-1.172-1.334-2.641-2.426-4.17-3.521c-1.625-1.16-3.417-1.983-4.796-2.571c-1.846-0.78-3.407-1.36-5.021-1.646
			c-1.394-0.252-2.557-0.434-3.661-0.571c-1.636-0.206-3.452-0.169-5.863,0.159c-1.617,0.218-3.039,0.529-4.347,0.952l-2.208,0.712
			c-0.464,0.15-0.922,0.34-1.379,0.527c-0.256,0.105-0.512,0.211-0.768,0.311c-1.463,0.572-2.938,1.241-4.381,1.985l-0.49,0.248
			c-0.395,0.197-0.791,0.396-1.17,0.621l-2.2,1.325c-0.353,0.213-0.688,0.464-1.022,0.713c-0.183,0.137-0.365,0.272-0.55,0.402
			c-0.779,0.553-1.478,1.054-2.131,1.604l-1.981,1.658c-0.367,0.305-0.708,0.638-1.049,0.969c-0.171,0.166-0.342,0.332-0.515,0.494
			c-0.856,0.811-1.857,1.784-2.767,2.85c-1.958,2.3-3.924,4.764-6.008,7.532c-1.572,2.089-2.976,4.284-4.599,6.938
			c-1.526,2.506-3.059,5.014-4.61,7.505c-1.619,2.595-3.072,4.995-4.444,7.339c-1.433,2.441-2.597,5.014-3.666,7.438
			c-0.238,0.543-0.455,1.097-0.671,1.65c-0.36,0.924-0.733,1.88-1.213,2.798c-0.59,1.459-0.471,3.941-0.42,5.001
			c0.009,0.181,0.017,0.331,0.02,0.444c0.023,0.866,0.277,1.715,0.821,2.75c0.267,0.506,1.064,1.287,1.641,1.609
			c0.535,0.293,1.141,0.57,1.795,0.819c0.378,0.138,0.726,0.268,1.086,0.358c1.045,0.264,2.118,0.393,3.254,0.529l1.287,0.175
			c1.157,0.166,2.354,0.337,3.529,0.462c0.711,0.078,1.434,0.088,2.109,0.088L22.358,96.879z"/>
	</g>
	<g>
		<path fill="#2E3B49" d="M79.993,47.572c0.485-3.438,2.511-5.91-0.264-5.861c-2.775,0.042-1.533,3.821-5.422,3.073
			c-3.892-0.749-19.168-4.702-20.063-6.862c-0.892-2.155-0.903-6.412-3.492-4.073c-2.583,2.341,0.967,5.728-0.35,7.192
			c-1.323,1.465-3.309,1.58-3.147,3.079s4.575,0.809,6.54-0.1c1.959-0.917,19.602,3.153,20.347,4.804
			C74.882,50.473,78.634,57.146,79.993,47.572z"/>
		<path fill="#2E3B49" d="M77.569,53.124L77.569,53.124c-1.989,0-3.695-3.677-3.883-4.095c-0.744-1.125-14.188-4.642-18.876-4.642
			c-0.59,0-0.772,0.071-0.803,0.085c-1.263,0.584-3.313,1.023-4.773,1.023c-1.929,0-2.411-0.719-2.476-1.322
			c-0.132-1.227,0.789-1.766,1.68-2.287c0.551-0.322,1.12-0.656,1.594-1.181c0.363-0.403,0.096-1.224-0.213-2.174
			c-0.479-1.472-1.133-3.485,0.598-5.054c0.604-0.547,1.139-0.812,1.633-0.812c1.306,0,1.722,1.658,2.123,3.263
			c0.16,0.638,0.326,1.297,0.534,1.801c0.694,1.676,14.495,5.563,19.695,6.563c0.307,0.059,0.589,0.09,0.837,0.09
			c1.131,0,1.486-0.611,1.938-1.383c0.46-0.787,1.032-1.766,2.545-1.789c0.002,0,0.004,0,0.005,0c0.857,0,1.376,0.195,1.672,0.598
			c0.506,0.686,0.189,1.711-0.212,3.01c-0.259,0.836-0.552,1.785-0.698,2.824C79.965,51.33,79.01,53.124,77.569,53.124z
			 M54.811,43.388c3.711,0,18.903,3.272,19.788,5.231c0.634,1.414,2.017,3.505,2.971,3.505c0.383,0,1.337-0.45,1.929-4.622
			c0.158-1.117,0.464-2.106,0.733-2.979c0.279-0.905,0.568-1.842,0.362-2.12c-0.09-0.122-0.376-0.191-0.785-0.191
			c-0.977,0.014-1.291,0.477-1.768,1.293c-0.489,0.837-1.098,1.879-2.802,1.879c-0.312,0-0.657-0.037-1.026-0.107
			c-1.848-0.355-19.313-4.463-20.43-7.162c-0.236-0.572-0.411-1.268-0.58-1.94c-0.265-1.058-0.628-2.506-1.153-2.506
			c-0.131,0-0.43,0.071-0.962,0.553c-1.251,1.134-0.776,2.593-0.317,4.003c0.371,1.141,0.754,2.318,0.005,3.152
			c-0.578,0.64-1.244,1.029-1.832,1.375c-0.909,0.532-1.248,0.784-1.19,1.316c0.023,0.215,0.49,0.43,1.481,0.43
			c1.334,0,3.205-0.399,4.352-0.93C53.847,43.445,54.236,43.388,54.811,43.388z"/>
	</g>
	<g>
		<path fill="#2E3B49" d="M20.616,85.841c3.003,0.3,5.226,1.676,5.081-0.254c-0.146-1.925-3.377-1.016-2.874-3.728
			c0.5-2.711,3.358-13.368,5.196-14.017c1.841-0.647,5.538-0.702,3.408-2.472c-2.129-1.767-4.938,0.74-6.263-0.16
			c-1.319-0.898-1.496-2.281-2.791-2.148c-1.293,0.129-0.532,3.188,0.335,4.541c0.864,1.35-1.998,13.653-3.405,14.187
			C17.901,82.325,12.249,85.008,20.616,85.841z"/>
		<path fill="#2E3B49" d="M24.855,87.096L24.855,87.096c-0.488,0-1.102-0.141-1.812-0.305c-0.735-0.17-1.569-0.361-2.478-0.453
			c-3.262-0.324-4.779-0.943-4.922-2.008c-0.202-1.521,2.864-2.771,3.48-3.008c1.166-0.74,3.869-12.188,3.162-13.451
			c-0.731-1.141-1.451-3.514-0.911-4.629c0.191-0.395,0.528-0.635,0.948-0.678c1.051-0.108,1.567,0.541,2.061,1.162
			c0.295,0.373,0.601,0.758,1.062,1.071c0.338,0.229,1.082,0.052,1.899-0.174c0.678-0.188,1.445-0.4,2.221-0.4
			c0.849,0,1.562,0.249,2.181,0.763c0.24,0.199,0.972,0.808,0.796,1.528c-0.207,0.843-1.411,1.104-2.806,1.405
			c-0.551,0.119-1.12,0.242-1.552,0.395c-1.375,0.484-4.227,10.145-4.87,13.636c-0.208,1.121,0.309,1.35,1.165,1.728
			c0.726,0.32,1.628,0.72,1.716,1.871c0.038,0.52-0.064,0.902-0.313,1.171C25.647,86.973,25.312,87.096,24.855,87.096z
			 M22.543,63.554c-0.038,0-0.077,0.002-0.118,0.007c-0.057,0.005-0.1,0.017-0.148,0.117c-0.3,0.619,0.155,2.566,0.854,3.656
			c0.816,1.274-0.745,8.283-1.867,11.675c-0.857,2.593-1.382,3.097-1.782,3.249c-1.517,0.579-2.9,1.521-2.845,1.939
			c0.005,0.031,0.146,0.76,4.03,1.146c0.971,0.097,1.838,0.297,2.604,0.473c0.649,0.15,1.212,0.279,1.586,0.279l0,0
			c0.234,0,0.288-0.051,0.294-0.057c0.027-0.029,0.069-0.15,0.049-0.415c-0.04-0.529-0.412-0.718-1.122-1.031
			c-0.885-0.391-2.097-0.927-1.744-2.825c0.238-1.295,3.163-13.564,5.521-14.396c0.491-0.172,1.092-0.303,1.672-0.428
			c0.668-0.145,1.908-0.413,2.048-0.674l0,0c-0.007,0-0.047-0.166-0.465-0.514c-0.438-0.363-0.928-0.532-1.542-0.532
			c-0.64,0-1.308,0.185-1.953,0.364c-1.073,0.297-2.074,0.48-2.729,0.037c-0.587-0.4-0.973-0.887-1.282-1.276
			C23.175,63.812,22.952,63.554,22.543,63.554z"/>
	</g>
	<path fill="#FFFFFF" d="M102.91,90.62c-1.278,0-2.368-0.976-2.486-2.272c-0.451-4.941-3.103-8.609-6.771-13.686
		c-1.397-1.935-2.982-4.127-4.606-6.625c-1.332-2.068-3.647-6.616-5.338-9.938c-0.806-1.582-1.565-3.075-1.82-3.508
		c-0.7-1.189-0.304-2.723,0.886-3.423c1.19-0.698,2.723-0.304,3.423,0.886c0.317,0.539,0.924,1.726,1.968,3.777
		c1.642,3.225,3.89,7.643,5.079,9.488c1.552,2.386,3.031,4.434,4.462,6.412c3.979,5.506,7.122,9.855,7.697,16.16
		c0.126,1.375-0.887,2.592-2.262,2.717C103.063,90.617,102.986,90.62,102.91,90.62z"/>
	<g>
		<g>
			<path fill="#FFFFFF" d="M41.034,48.316c-0.113,0.026-0.228,0.081-0.331,0.125c-0.163,0.07-0.315,0.146-0.464,0.241
				c-0.465,0.299-0.863,0.717-1.217,1.14c-0.219,0.263-0.421,0.543-0.626,0.815c-0.267,0.356-0.503,0.739-0.747,1.113
				c-0.215,0.327-0.422,0.663-0.614,1.007c-0.211,0.374-0.426,0.748-0.6,1.14c-0.188,0.419-0.384,0.84-0.494,1.285
				c-0.116,0.457-0.19,0.92-0.207,1.393c-0.037,1.075,0.234,2.18,0.791,3.097c0.951,1.575,2.366,2.786,3.834,3.867
				c0.198,0.146,0.402,0.294,0.604,0.437c0.247,0.172,0.509,0.313,0.781,0.438c0.302,0.142,0.62,0.258,0.929,0.386
				c0.139,0.057,0.276,0.112,0.415,0.167c0.362,0.143,0.744,0.215,1.133,0.231c0.229,0.015,0.477-0.044,0.698-0.099
				c0.217-0.054,0.428-0.162,0.623-0.274c0.377-0.216,0.685-0.584,0.902-0.96c0.196-0.346,0.307-0.723,0.379-1.107
				c0.05-0.242,0.071-0.489,0.07-0.736c-0.003-0.292-0.073-0.599-0.148-0.877c-0.058-0.218-0.144-0.434-0.243-0.64
				c0.319,0.013,0.643,0.009,0.963,0.014c0.401,0.006,0.735-0.338,0.735-0.732c0-0.405-0.334-0.728-0.735-0.735
				c-0.446-0.006-0.897-0.003-1.345-0.055c-0.287-0.042-0.566-0.102-0.839-0.198c-0.259-0.128-0.49-0.285-0.726-0.446
				c-0.386-0.309-0.746-0.635-1.063-1.014c-0.137-0.189-0.257-0.385-0.363-0.595c-0.087-0.243-0.146-0.491-0.188-0.749
				c-0.034-0.321-0.063-0.645-0.115-0.964c-0.052-0.338-0.124-0.672-0.181-1.011c-0.056-0.562-0.014-1.121,0.046-1.682
				c0.051-0.439,0.106-0.877,0.163-1.316c0.073-0.582,0.121-1.175-0.059-1.745c-0.033-0.115-0.09-0.222-0.139-0.328
				c-0.044-0.087-0.136-0.213-0.201-0.277c-0.19-0.181-0.396-0.281-0.644-0.36c-0.106-0.035-0.222-0.047-0.334-0.047
				C41.331,48.264,41.181,48.286,41.034,48.316"/>
			<path fill="#2E3B49" d="M44.295,66.201L44.295,66.201l-0.138-0.005c-0.495-0.021-0.984-0.122-1.435-0.299l-0.725-0.292
				c-0.229-0.091-0.457-0.183-0.678-0.286c-0.345-0.158-0.651-0.331-0.928-0.522c-0.213-0.15-0.424-0.303-0.628-0.453
				c-1.412-1.041-3.005-2.35-4.096-4.154c-0.646-1.066-0.979-2.361-0.934-3.648c0.018-0.525,0.096-1.049,0.237-1.605
				c0.124-0.5,0.324-0.945,0.519-1.375c0.205-0.462,0.416-0.84,0.628-1.215c0.247-0.44,0.467-0.797,0.694-1.144l0.157-0.243
				c0.201-0.313,0.403-0.625,0.625-0.92l0.139-0.186c0.169-0.227,0.339-0.455,0.52-0.672c0.32-0.383,0.817-0.938,1.444-1.34
				c0.194-0.125,0.395-0.227,0.609-0.318c0.195-0.086,0.35-0.146,0.5-0.182c0.584-0.121,0.955-0.102,1.319,0.02
				c0.256,0.082,0.649,0.234,1.019,0.584c0.155,0.153,0.313,0.37,0.405,0.552l0.044,0.093c0.063,0.132,0.122,0.268,0.163,0.41
				c0.237,0.75,0.171,1.502,0.09,2.146c-0.057,0.438-0.111,0.871-0.162,1.307c-0.059,0.551-0.089,1.016-0.044,1.468l0.068,0.356
				c0.037,0.2,0.075,0.4,0.105,0.602c0.044,0.266,0.073,0.545,0.102,0.824l0.02,0.186c0.025,0.143,0.064,0.307,0.115,0.459
				c0.075,0.143,0.158,0.275,0.252,0.405c0.194,0.228,0.487,0.505,0.878,0.817c0.125,0.083,0.297,0.203,0.491,0.305
				c0.17,0.055,0.36,0.098,0.593,0.132c0.32,0.036,0.674,0.038,1.024,0.042l0.188,0.002c0.953,0.019,1.723,0.797,1.723,1.735
				c0,0.828-0.581,1.522-1.355,1.692c0.028,0.17,0.047,0.35,0.049,0.533c0.001,0.332-0.029,0.648-0.091,0.947
				c-0.102,0.544-0.259,0.994-0.489,1.4c-0.24,0.416-0.653,0.979-1.274,1.334c-0.226,0.129-0.532,0.291-0.88,0.377
				C44.949,66.122,44.633,66.201,44.295,66.201z M41.509,49.263c-0.089,0.001-0.168,0.011-0.272,0.033
				c-0.004,0.004-0.042,0.022-0.078,0.038c-0.171,0.074-0.275,0.123-0.377,0.189c-0.397,0.256-0.756,0.658-0.991,0.94
				c-0.156,0.188-0.305,0.387-0.452,0.585l-0.143,0.19c-0.191,0.257-0.367,0.53-0.544,0.804l-0.164,0.254
				c-0.204,0.311-0.398,0.626-0.579,0.949c-0.228,0.402-0.41,0.723-0.559,1.057c-0.2,0.444-0.355,0.789-0.438,1.121
				c-0.107,0.421-0.165,0.807-0.179,1.187c-0.03,0.901,0.199,1.805,0.646,2.542c0.911,1.508,2.317,2.656,3.572,3.582
				c0.194,0.143,0.392,0.285,0.588,0.424c0.173,0.121,0.378,0.234,0.622,0.348c0.192,0.09,0.385,0.166,0.576,0.242l0.718,0.289
				c0.242,0.095,0.514,0.149,0.809,0.162l0.03,1.002v-1c0.095,0,0.27-0.044,0.386-0.072c0.119-0.029,0.297-0.132,0.364-0.17
				c0.182-0.105,0.377-0.321,0.535-0.595c0.113-0.2,0.198-0.454,0.262-0.791c0.037-0.181,0.054-0.36,0.053-0.548
				c-0.002-0.182-0.062-0.428-0.114-0.62c-0.042-0.161-0.105-0.317-0.178-0.466l-0.565-1.168c-0.029-0.01-0.06-0.021-0.089-0.031
				l-0.109-0.046c-0.328-0.163-0.604-0.351-0.847-0.518c-0.557-0.441-0.939-0.808-1.266-1.196c-0.212-0.289-0.358-0.528-0.488-0.785
				l-0.05-0.115c-0.102-0.285-0.178-0.587-0.233-0.926l-0.027-0.248c-0.024-0.238-0.048-0.477-0.087-0.713
				c-0.029-0.19-0.063-0.367-0.097-0.545l-0.084-0.464c-0.074-0.725-0.025-1.362,0.038-1.952c0.052-0.453,0.108-0.895,0.165-1.339
				c0.058-0.451,0.103-0.927-0.021-1.317c-0.019-0.058-0.038-0.093-0.055-0.129C41.718,49.349,41.659,49.311,41.509,49.263z"/>
		</g>
		<g>
			<path fill="#FFFFFF" d="M54.342,57.387c-0.817,0.115-1.604,0.35-2.351,0.701c-0.46,0.223-0.901,0.477-1.361,0.694
				c-0.185,0.062-0.367,0.105-0.56,0.136c-0.104,0.009-0.207,0.009-0.31,0.004c-0.064-0.013-0.128-0.034-0.189-0.056
				c-0.166-0.097-0.326-0.2-0.486-0.301c-0.203-0.121-0.432-0.204-0.646-0.288c-0.221-0.091-0.446-0.128-0.684-0.157
				c-0.433-0.056-0.841,0.025-1.24,0.206c-0.708,0.322-1.257,0.878-1.786,1.435c-0.289,0.302-0.578,0.601-0.87,0.893
				c-0.26,0.266-0.508,0.541-0.759,0.816c-0.288,0.315-0.591,0.603-0.909,0.89c-0.289,0.26-0.524,0.588-0.723,0.924
				c-0.183,0.315-0.308,0.676-0.36,1.034c-0.036,0.269-0.068,0.532-0.09,0.801c-0.012,0.153-0.015,0.31-0.02,0.463
				c-0.009,0.038-0.021,0.074-0.031,0.115c-0.019,0.028-0.034,0.058-0.054,0.086c-0.108,0.124-0.223,0.245-0.348,0.359
				c-0.275,0.189-0.563,0.358-0.863,0.509c-0.345,0.17-0.688,0.358-1.02,0.549c-0.357,0.207-0.738,0.397-1.068,0.645
				c-0.139,0.106-0.278,0.206-0.413,0.319c-0.241,0.209-0.415,0.46-0.522,0.759c-0.092,0.261-0.117,0.536-0.153,0.812
				c-0.02,0.124-0.033,0.25-0.044,0.378c-0.054,0.58,0.029,1.158,0.107,1.73c0.063,0.439,0.144,0.869,0.272,1.294
				c0.131,0.426,0.268,0.847,0.431,1.259c0.147,0.369,0.253,0.74,0.326,1.131c0.022,0.252,0.036,0.502,0.013,0.755
				c-0.042,0.219-0.105,0.432-0.182,0.638c-0.256,0.537-0.6,1.019-0.949,1.493c-0.491,0.62-1.021,1.201-1.545,1.794
				c-0.563,0.64-1.149,1.256-1.737,1.879c-0.284,0.304-0.563,0.616-0.852,0.915c-0.292,0.304-0.599,0.593-0.886,0.896
				c-0.354,0.372-0.687,0.754-0.992,1.163c-0.156,0.21-0.286,0.458-0.363,0.708c-0.061,0.186-0.074,0.381-0.093,0.569
				c-0.037,0.174-0.094,0.34-0.142,0.51c-0.118,0.427-0.193,0.862-0.195,1.306c-0.003,0.487,0.119,0.966,0.251,1.428
				c0.072,0.245,0.151,0.485,0.24,0.725c0.201,0.521,0.44,1.002,0.754,1.463c0.303,0.448,0.636,0.888,0.992,1.29
				c0.148,0.167,0.313,0.316,0.473,0.467c0.304,0.289,0.629,0.555,1.002,0.74c0.547,0.27,1.111,0.401,1.709,0.479
				c0.108,0.012,0.218,0.021,0.325,0.022c0.328,0.019,0.64-0.059,0.938-0.192c0.481-0.219,0.818-0.671,1.03-1.144
				c0.229-0.506,0.427-1.016,0.576-1.55c0.012-0.04,0.021-0.079,0.032-0.117c0.067-0.133,0.139-0.255,0.224-0.376
				c0.039-0.044,0.083-0.086,0.126-0.124c0.005-0.003,0.01-0.008,0.014-0.013c0.072,0.14,0.133,0.285,0.194,0.433
				c0.1,0.229,0.248,0.43,0.424,0.607c0.196,0.196,0.466,0.304,0.726,0.376c0.353,0.101,0.767,0.012,1.095-0.123
				c0.271-0.11,0.499-0.258,0.708-0.461c0.196-0.19,0.35-0.442,0.467-0.686c0.144-0.288,0.227-0.595,0.255-0.912
				c0.024-0.305-0.022-0.601-0.07-0.902c-0.019-0.164-0.038-0.326-0.034-0.492c0.003-0.012,0.009-0.021,0.011-0.036
				c0.03-0.059,0.063-0.117,0.099-0.179c0.047-0.047,0.093-0.096,0.144-0.14c0.007-0.004,0.012-0.006,0.016-0.009
				c0.015,0.011,0.026,0.023,0.037,0.037c0.201,0.299,0.384,0.61,0.642,0.866c0.227,0.23,0.554,0.366,0.873,0.384
				c0.341,0.021,0.656-0.061,0.966-0.198c0.234-0.101,0.436-0.233,0.612-0.416c0.236-0.239,0.358-0.575,0.451-0.894
				c0.075-0.256,0.099-0.529,0.132-0.789c0.018-0.132,0.036-0.261,0.051-0.39c0.008-0.063,0.018-0.125,0.027-0.188
				c0.027-0.181,0.07-0.349,0.132-0.519c0.011-0.023,0.023-0.043,0.034-0.063c0.106-0.122,0.216-0.236,0.34-0.342l0.005-0.003
				c0.015,0.011,0.031,0.021,0.044,0.03c0.243,0.21,0.481,0.438,0.692,0.682c0.192,0.218,0.384,0.426,0.619,0.599
				c0.196,0.146,0.402,0.231,0.63,0.323c0.132,0.031,0.268,0.054,0.403,0.066c0.117,0.019,0.238,0.019,0.355,0.008
				c0.173-0.008,0.361-0.046,0.532-0.079c0.211-0.043,0.409-0.158,0.581-0.278c0.358-0.248,0.621-0.609,0.881-0.953
				c0.162-0.211,0.313-0.422,0.47-0.631c0.133-0.155,0.274-0.297,0.431-0.434c0.069-0.045,0.136-0.091,0.208-0.131h0.012
				c0.027,0.006,0.053,0.014,0.081,0.023c0.133,0.068,0.254,0.149,0.376,0.239c0.355,0.302,0.69,0.642,1.097,0.874
				c0.457,0.266,0.956,0.479,1.473,0.607c0.238,0.064,0.477,0.107,0.724,0.143c0.338,0.047,0.658,0.078,0.999,0.052
				c0.337-0.024,0.669-0.095,0.99-0.194c0.648-0.201,1.244-0.536,1.838-0.865c0.434-0.241,0.854-0.505,1.264-0.782
				c0.438-0.294,0.83-0.646,1.217-1.002c0.338-0.319,0.654-0.675,0.943-1.043c0.175-0.218,0.349-0.437,0.506-0.671
				c0.108-0.167,0.22-0.328,0.336-0.488c0.063-0.074,0.126-0.145,0.194-0.212c0.024-0.007,0.049-0.011,0.072-0.015
				c0.397-0.047,0.793-0.084,1.188-0.165c0.404-0.084,0.809-0.217,1.201-0.352c1.135-0.393,2.111-1.118,2.936-1.978
				c0.479-0.5,0.923-1.023,1.334-1.584c0.285-0.385,0.531-0.797,0.758-1.218c0.14-0.257,0.257-0.52,0.374-0.788
				c0.239-0.538,0.445-1.091,0.642-1.642c0.101-0.287,0.187-0.571,0.251-0.862c-0.521-0.019-1.041-0.057-1.559-0.13
				c0-0.002-0.001-0.002-0.004-0.002c-0.019-0.001-0.038-0.004-0.055-0.009c-0.005,0-0.008-0.002-0.01-0.002
				c-0.031-0.005-0.059-0.009-0.089-0.015c-0.009,0-0.019,0-0.028-0.002c-0.01-0.003-0.024-0.005-0.036-0.007
				c-0.011-0.002-0.026-0.006-0.038-0.006c-0.007-0.002-0.018-0.006-0.028-0.006c-0.025-0.003-0.046-0.008-0.071-0.013
				c-0.926-0.17-1.849-0.372-2.77-0.563c-0.864-0.174-1.744-0.261-2.595-0.485c-0.124-0.036-0.245-0.076-0.368-0.116
				c-0.23-0.08-0.493-0.176-0.69-0.324c-0.139-0.108-0.293-0.205-0.414-0.332c-0.137-0.141-0.252-0.284-0.37-0.438
				c-0.139-0.184-0.271-0.373-0.372-0.581c-0.155-0.311-0.302-0.635-0.362-0.978c-0.029-0.153-0.054-0.308-0.077-0.464
				c-0.044-0.321-0.094-0.648-0.107-0.978c-0.002-0.05-0.002-0.098-0.002-0.146c0-0.473,0.081-0.938,0.172-1.399
				c0.043-0.213,0.091-0.438,0.166-0.645c0.131-0.357,0.276-0.715,0.508-1.023c0.13-0.174,0.265-0.35,0.404-0.519
				c0.207-0.253,0.451-0.503,0.738-0.671c0.286-0.17,0.6-0.315,0.913-0.419c0.157-0.128,0.352-0.196,0.551-0.196
				c0.113,0,0.212,0.021,0.308,0.058c0.011,0.002,0.028,0.002,0.04,0.003c0.455,0.029,0.87,0.216,1.284,0.382
				c0.495,0.202,0.994,0.399,1.487,0.606c0.132,0.057,0.24,0.176,0.313,0.312c0.283,0.08,0.569,0.159,0.854,0.238
				c0.234,0.064,0.468,0.134,0.703,0.198c0.125,0.04,0.25,0.074,0.377,0.11c-0.104-0.233-0.209-0.467-0.314-0.699
				c-0.102-0.229-0.208-0.457-0.329-0.678c-0.181-0.332-0.412-0.628-0.647-0.923c-0.173-0.218-0.356-0.429-0.541-0.636
				c-0.178-0.199-0.359-0.396-0.536-0.592c-0.17-0.185-0.353-0.353-0.531-0.523c-0.464-0.451-1.015-0.803-1.582-1.111
				c-0.255-0.138-0.506-0.277-0.756-0.419c-0.194-0.11-0.386-0.224-0.577-0.333c-0.355-0.202-0.742-0.354-1.118-0.505
				c-0.315-0.122-0.645-0.221-0.974-0.289c-0.499-0.104-0.998-0.201-1.497-0.302c-0.597-0.12-1.2-0.219-1.812-0.28
				c-0.518-0.055-1.04-0.108-1.559-0.172c-0.558-0.068-1.112-0.086-1.671-0.075c-0.235-0.028-0.472-0.054-0.706-0.078
				c-0.261-0.025-0.526-0.03-0.787-0.046c-0.116-0.003-0.229-0.006-0.343-0.006C55.351,57.266,54.846,57.317,54.342,57.387"/>
			<path fill="#2E3B49" d="M35.538,95.767c-0.019,0-0.135-0.003-0.153-0.005c-0.099,0-0.238-0.012-0.376-0.026
				c-0.815-0.104-1.458-0.287-2.044-0.575c-0.545-0.271-0.974-0.651-1.249-0.914l-0.073-0.068c-0.156-0.146-0.313-0.295-0.457-0.457
				c-0.368-0.416-0.729-0.885-1.074-1.396c-0.336-0.495-0.617-1.04-0.857-1.663c-0.102-0.271-0.188-0.533-0.267-0.801
				c-0.145-0.506-0.296-1.09-0.292-1.717c0.002-0.499,0.078-1.012,0.231-1.566l0.053-0.18c0.022-0.074,0.045-0.147,0.063-0.223
				c0.023-0.237,0.05-0.471,0.132-0.721c0.104-0.338,0.282-0.688,0.512-0.994c0.308-0.413,0.658-0.824,1.07-1.256
				c0.157-0.166,0.322-0.33,0.488-0.495c0.134-0.134,0.269-0.267,0.4-0.403c0.175-0.182,0.345-0.367,0.516-0.553l0.491-0.527
				c0.525-0.557,1.048-1.11,1.553-1.683l0.301-0.339c0.412-0.465,0.824-0.928,1.21-1.415c0.304-0.413,0.614-0.847,0.831-1.302
				c0.021-0.072,0.07-0.232,0.102-0.396c0.004-0.088-0.01-0.289-0.026-0.478c-0.05-0.239-0.139-0.548-0.259-0.849
				c-0.174-0.439-0.319-0.885-0.458-1.336c-0.129-0.426-0.223-0.871-0.306-1.445c-0.087-0.634-0.177-1.288-0.114-1.965
				c0.013-0.145,0.029-0.294,0.052-0.441l0.011-0.082c0.034-0.271,0.073-0.58,0.188-0.906c0.167-0.465,0.439-0.86,0.812-1.183
				c0.119-0.101,0.229-0.185,0.34-0.267l0.118-0.09c0.309-0.23,0.614-0.401,0.909-0.566l0.268-0.15
				c0.354-0.203,0.715-0.401,1.078-0.58c0.233-0.117,0.462-0.25,0.68-0.396c0.022-0.022,0.045-0.045,0.067-0.067
				c0.004-0.093,0.008-0.172,0.014-0.249c0.023-0.29,0.058-0.571,0.096-0.858c0.073-0.497,0.24-0.978,0.486-1.401
				c0.289-0.489,0.588-0.868,0.92-1.167c0.292-0.264,0.572-0.528,0.839-0.82l0.093-0.102c0.227-0.25,0.453-0.498,0.689-0.739
				c0.295-0.295,0.579-0.589,0.863-0.886c0.616-0.648,1.243-1.266,2.094-1.652c0.591-0.268,1.177-0.366,1.782-0.287
				c0.288,0.035,0.604,0.088,0.937,0.224c0.299,0.116,0.55,0.218,0.777,0.354l0.127,0.079c0.07,0.044,0.141,0.089,0.212,0.132
				c0.116-0.012,0.221-0.035,0.324-0.067c0.21-0.101,0.417-0.21,0.623-0.319c0.223-0.116,0.445-0.233,0.673-0.344
				c0.845-0.397,1.732-0.662,2.646-0.791c0.659-0.091,1.168-0.131,1.655-0.131l0.66,0.021c0.189,0.009,0.379,0.018,0.566,0.036
				c0.225,0.023,0.445,0.047,0.664,0.072l0.242-0.002c0.537,0,1.026,0.027,1.496,0.086c0.446,0.055,0.896,0.102,1.342,0.148
				l0.2,0.021c0.592,0.059,1.216,0.156,1.903,0.294l0.496,0.099c0.337,0.067,0.673,0.135,1.009,0.205
				c0.377,0.078,0.757,0.191,1.13,0.335c0.425,0.17,0.849,0.339,1.251,0.568l0.577,0.333c0.243,0.137,0.488,0.273,0.737,0.408
				c0.765,0.416,1.337,0.82,1.804,1.274l0.092,0.087c0.162,0.154,0.324,0.31,0.478,0.477l0.547,0.604
				c0.197,0.221,0.394,0.446,0.578,0.68c0.268,0.335,0.527,0.671,0.742,1.066c0.134,0.242,0.253,0.495,0.365,0.75l0.237,0.527
				c0.115,0.164,0.183,0.362,0.183,0.577c0,0.552-0.447,1-1,1c-0.005-0.001-0.013-0.001-0.02,0c-0.091,0-0.184-0.013-0.273-0.038
				c-0.185-0.053-0.297-0.084-0.408-0.12l-1.524-0.427c-0.229-0.064-0.428-0.209-0.56-0.406c-0.271-0.113-0.548-0.225-0.825-0.337
				l-0.647-0.263c-0.32-0.13-0.598-0.242-0.844-0.258c-0.038-0.002-0.117-0.01-0.155-0.018c-0.062-0.012-0.123-0.028-0.182-0.051
				c-0.095,0.076-0.068,0.117-0.184,0.156c-0.238,0.078-0.485,0.191-0.716,0.328c-0.144,0.084-0.302,0.232-0.476,0.445
				c-0.132,0.16-0.257,0.322-0.377,0.483c-0.159,0.212-0.274,0.509-0.369,0.769c-0.058,0.158-0.092,0.334-0.125,0.498
				c-0.077,0.39-0.152,0.807-0.152,1.202l0.001,0.106c0.011,0.254,0.048,0.51,0.083,0.762l0.017,0.119
				c0.02,0.131,0.041,0.271,0.068,0.412c0.041,0.231,0.156,0.48,0.274,0.718c0.077,0.159,0.176,0.293,0.275,0.426
				c0.09,0.117,0.181,0.231,0.289,0.344c0.052,0.054,0.108,0.089,0.161,0.128l0.152,0.113c0.068,0.052,0.294,0.13,0.402,0.168
				l0.319,0.101c0.451,0.118,0.946,0.198,1.47,0.282c0.349,0.057,0.697,0.113,1.043,0.183l0.716,0.149
				c0.678,0.143,1.356,0.285,2.037,0.41v0.002c0.03,0.004,0.062,0.009,0.092,0.015c0.013,0.002,0.024,0.004,0.035,0.006
				c0.028,0.003,0.057,0.007,0.084,0.013v0.002c0.031,0.002,0.063,0.008,0.094,0.014c0.001,0,0.001,0,0.001,0
				c0.021,0.002,0.04,0.006,0.061,0.01c0.425,0.059,0.885,0.096,1.406,0.113c0.297,0.012,0.574,0.153,0.756,0.389
				c0.182,0.234,0.25,0.537,0.186,0.828c-0.073,0.329-0.17,0.65-0.284,0.977c-0.184,0.518-0.406,1.121-0.671,1.717
				c-0.126,0.289-0.256,0.577-0.409,0.859c-0.283,0.526-0.549,0.952-0.833,1.336c-0.425,0.578-0.889,1.129-1.415,1.68
				c-1.028,1.071-2.148,1.822-3.331,2.23c-0.396,0.137-0.854,0.289-1.325,0.387c-0.317,0.064-0.634,0.105-0.951,0.142
				c-0.059,0.085-0.132,0.192-0.203,0.304c-0.182,0.271-0.372,0.512-0.564,0.752c-0.33,0.42-0.681,0.808-1.037,1.144
				c-0.411,0.38-0.845,0.769-1.346,1.105c-0.46,0.312-0.897,0.583-1.335,0.826c-0.665,0.368-1.3,0.72-2.028,0.946
				c-0.415,0.129-0.823,0.209-1.214,0.236c-0.397,0.031-0.798-0.001-1.209-0.059c-0.291-0.041-0.569-0.092-0.847-0.168
				c-0.57-0.142-1.153-0.381-1.715-0.707c-0.379-0.218-0.694-0.495-0.974-0.742l-0.115,0.158c-0.095,0.129-0.189,0.258-0.289,0.387
				c-0.316,0.42-0.633,0.84-1.104,1.166c-0.208,0.146-0.537,0.352-0.951,0.436c-0.245,0.049-0.475,0.089-0.687,0.099
				c-0.084,0.011-0.357,0.013-0.557-0.019c-0.119-0.01-0.301-0.039-0.478-0.082c-0.049-0.012-0.097-0.026-0.144-0.045
				c-0.242-0.098-0.544-0.22-0.852-0.447c-0.139-0.102-0.263-0.21-0.377-0.32c-0.028,0.237-0.063,0.502-0.145,0.779
				C46.831,89.21,46.65,89.7,46.256,90.1c-0.258,0.267-0.564,0.477-0.93,0.633c-0.481,0.214-0.954,0.307-1.423,0.277
				c-0.238-0.014-0.474-0.063-0.695-0.146c-0.059,0.345-0.165,0.671-0.317,0.977c-0.186,0.385-0.411,0.711-0.666,0.958
				c-0.3,0.291-0.636,0.511-1.027,0.669c-0.386,0.158-1.145,0.33-1.746,0.158c-0.342-0.094-0.631-0.225-0.872-0.391
				c-0.078,0.196-0.164,0.397-0.258,0.605c-0.349,0.777-0.877,1.346-1.527,1.643C36.37,95.672,35.949,95.767,35.538,95.767z
				 M47.486,59.104c-0.177,0-0.359,0.043-0.56,0.134c-0.522,0.237-0.977,0.69-1.474,1.212c-0.297,0.311-0.591,0.614-0.888,0.911
				c-0.211,0.216-0.421,0.447-0.633,0.68l-0.094,0.104c-0.311,0.34-0.636,0.649-0.979,0.958c-0.179,0.16-0.352,0.386-0.531,0.689
				c-0.114,0.197-0.198,0.438-0.232,0.672c-0.032,0.238-0.063,0.484-0.082,0.734c-0.009,0.106-0.011,0.217-0.015,0.327
				c-0.002,0.065-0.013,0.218-0.027,0.282l-0.031,0.116c-0.027,0.097-0.083,0.237-0.138,0.321l-0.067,0.105
				c-0.021,0.031-0.045,0.063-0.07,0.091c-0.133,0.151-0.272,0.3-0.426,0.439c-0.034,0.03-0.07,0.06-0.108,0.085
				c-0.31,0.215-0.641,0.409-0.982,0.58c-0.331,0.163-0.655,0.342-0.97,0.521l-0.291,0.165c-0.231,0.129-0.466,0.257-0.675,0.413
				l-0.126,0.095c-0.082,0.062-0.164,0.122-0.243,0.189c-0.102,0.087-0.177,0.196-0.225,0.331c-0.042,0.119-0.063,0.289-0.088,0.486
				l-0.016,0.117c-0.02,0.126-0.03,0.229-0.039,0.332c-0.042,0.457,0.024,0.945,0.096,1.461c0.073,0.514,0.147,0.867,0.245,1.189
				c0.122,0.396,0.25,0.793,0.403,1.181c0.168,0.421,0.293,0.852,0.379,1.315c0.038,0.364,0.058,0.687,0.026,1.031
				c-0.063,0.355-0.138,0.615-0.24,0.892c-0.327,0.698-0.697,1.218-1.082,1.739c-0.431,0.545-0.866,1.037-1.305,1.529l-0.295,0.334
				c-0.52,0.588-1.058,1.158-1.599,1.732l-0.474,0.508c-0.181,0.197-0.362,0.395-0.547,0.586c-0.141,0.146-0.286,0.291-0.432,0.436
				c-0.151,0.15-0.303,0.301-0.448,0.453c-0.358,0.377-0.657,0.727-0.917,1.074c-0.091,0.122-0.167,0.27-0.209,0.404
				c-0.024,0.076-0.036,0.195-0.047,0.311c-0.004,0.038-0.015,0.135-0.023,0.173c-0.03,0.146-0.072,0.288-0.114,0.429l-0.042,0.143
				c-0.104,0.378-0.157,0.719-0.158,1.039c-0.002,0.365,0.104,0.768,0.213,1.149c0.063,0.215,0.135,0.433,0.216,0.651
				c0.183,0.473,0.389,0.873,0.644,1.248c0.298,0.441,0.604,0.841,0.913,1.189c0.104,0.115,0.218,0.221,0.33,0.326l0.081,0.076
				c0.296,0.281,0.529,0.457,0.761,0.572c0.384,0.189,0.814,0.308,1.392,0.383c0.059,0.006,0.138,0.012,0.216,0.014l0.078,1.003v-1
				c0.13,0,0.271-0.036,0.434-0.108c0.188-0.086,0.383-0.32,0.526-0.64c0.235-0.521,0.401-0.968,0.525-1.41
				c0.018-0.063,0.073-0.241,0.104-0.3c0.089-0.176,0.184-0.338,0.297-0.498c0.021-0.031,0.046-0.062,0.071-0.09
				c0.063-0.07,0.132-0.139,0.201-0.2c0.209-0.198,0.499-0.296,0.784-0.268c0.337,0.034,0.634,0.235,0.789,0.536
				c0.084,0.162,0.156,0.33,0.228,0.502c0.039,0.09,0.11,0.189,0.214,0.294c0.002,0.001,0.058,0.054,0.282,0.116
				c0.162,0.006,0.307-0.027,0.447-0.085c0.156-0.063,0.275-0.142,0.391-0.253c0.049-0.047,0.147-0.162,0.264-0.402
				c0.09-0.182,0.142-0.368,0.159-0.567c0.015-0.177-0.021-0.399-0.062-0.657c-0.032-0.269-0.052-0.469-0.047-0.672
				c0.002-0.074,0.012-0.147,0.03-0.219c0.004-0.018,0.01-0.038,0.016-0.059c0.019-0.066,0.044-0.133,0.076-0.194
				c0.039-0.074,0.079-0.148,0.125-0.226c0.043-0.074,0.095-0.141,0.155-0.201c0.082-0.083,0.137-0.138,0.196-0.189
				c0.049-0.042,0.103-0.08,0.159-0.111l0,0c0.343-0.203,0.778-0.186,1.103,0.053c0.073,0.055,0.176,0.154,0.231,0.226l0.166,0.245
				c0.14,0.213,0.261,0.396,0.394,0.529c0.048,0.048,0.134,0.09,0.224,0.096c0.203,0.015,0.328-0.035,0.505-0.113
				c0.132-0.058,0.221-0.117,0.3-0.198c0.069-0.069,0.137-0.228,0.21-0.478c0.047-0.16,0.063-0.328,0.082-0.492l0.098-0.736
				c0.038-0.252,0.098-0.484,0.182-0.717c0.021-0.057,0.069-0.155,0.1-0.207c0.032-0.055,0.079-0.125,0.121-0.173
				c0.14-0.159,0.283-0.308,0.446-0.446c0.041-0.035,0.086-0.067,0.133-0.096c0.346-0.207,0.786-0.189,1.11,0.048
				c0.021,0.016,0.087,0.063,0.106,0.08c0.312,0.269,0.571,0.525,0.796,0.784c0.146,0.166,0.297,0.331,0.454,0.447
				c0.084,0.063,0.19,0.111,0.336,0.17c0.065,0.014,0.132,0.023,0.198,0.029l0.109,0.012c0.016-0.002,0.093-0.006,0.108-0.007
				c0.117-0.005,0.243-0.034,0.36-0.057c0.022-0.005,0.081-0.021,0.225-0.122c0.211-0.145,0.406-0.404,0.613-0.68l0.512-0.686
				c0.203-0.24,0.378-0.416,0.571-0.584c0.036-0.032,0.074-0.061,0.114-0.088c0.115-0.075,0.189-0.123,0.268-0.166
				c0.21-0.116,0.47-0.152,0.706-0.104c0.039,0.01,0.159,0.043,0.197,0.057c0.045,0.016,0.089,0.034,0.132,0.057
				c0.18,0.092,0.345,0.201,0.511,0.322l0.333,0.287c0.232,0.207,0.452,0.401,0.668,0.524c0.404,0.235,0.812,0.404,1.218,0.505
				c0.218,0.059,0.416,0.094,0.622,0.123c0.261,0.037,0.513,0.067,0.781,0.045c0.244-0.018,0.502-0.068,0.771-0.152
				c0.531-0.165,1.05-0.452,1.598-0.756c0.458-0.255,0.854-0.504,1.238-0.764c0.387-0.26,0.741-0.579,1.101-0.91
				c0.275-0.26,0.56-0.574,0.835-0.926c0.163-0.203,0.32-0.399,0.462-0.609c0.109-0.17,0.23-0.345,0.356-0.52
				c0.127-0.154,0.212-0.247,0.302-0.336c0.121-0.119,0.27-0.205,0.433-0.251c0.034-0.01,0.138-0.032,0.174-0.038l0.267-0.031
				c0.297-0.034,0.593-0.066,0.888-0.127c0.354-0.074,0.727-0.197,1.078-0.318c0.878-0.303,1.732-0.884,2.538-1.724
				c0.465-0.485,0.874-0.972,1.249-1.483c0.229-0.309,0.445-0.656,0.684-1.1c0.128-0.235,0.232-0.473,0.338-0.715
				c0.18-0.402,0.339-0.814,0.479-1.196c-0.125-0.015-0.248-0.03-0.368-0.047c-0.024-0.003-0.048-0.008-0.071-0.013
				c-0.001,0-0.002,0-0.003,0c-0.013-0.002-0.025-0.005-0.038-0.008l-0.026-0.004c-0.036-0.004-0.072-0.008-0.102-0.014
				c0.006,0,0.019,0.002,0.035,0.003l-0.002-0.001c-0.043-0.004-0.085-0.01-0.127-0.02c-0.026-0.004-0.052-0.009-0.065-0.012
				c-0.698-0.128-1.394-0.273-2.087-0.42l-0.705-0.146c-0.315-0.063-0.639-0.115-0.962-0.168c-0.549-0.088-1.116-0.18-1.686-0.33
				c-0.145-0.041-0.262-0.08-0.381-0.118c-0.365-0.126-0.717-0.259-1.024-0.49l-0.116-0.087c-0.148-0.109-0.295-0.223-0.42-0.354
				c-0.158-0.162-0.298-0.335-0.44-0.521c-0.147-0.195-0.331-0.451-0.477-0.75c-0.182-0.363-0.365-0.772-0.448-1.242
				c-0.029-0.152-0.057-0.32-0.082-0.489l-0.018-0.129c-0.044-0.315-0.086-0.634-0.1-0.956l-0.003-0.187
				c0-0.575,0.099-1.123,0.19-1.593c0.054-0.266,0.115-0.539,0.208-0.793c0.155-0.426,0.341-0.873,0.647-1.281
				c0.139-0.186,0.283-0.375,0.434-0.557c0.326-0.398,0.655-0.692,1.004-0.896c0.301-0.179,0.63-0.334,0.955-0.453
				c0.45-0.289,1.021-0.375,1.526-0.227c0.541,0.057,0.978,0.233,1.366,0.392l0.645,0.261c0.176,0.071,0.352,0.143,0.527,0.214
				c-0.087-0.103-0.176-0.202-0.264-0.302l-0.533-0.588c-0.115-0.125-0.246-0.248-0.376-0.371l-0.104-0.099
				c-0.338-0.329-0.771-0.63-1.368-0.956c-0.259-0.139-0.516-0.281-0.771-0.427l-0.58-0.335c-0.281-0.16-0.607-0.29-0.952-0.428
				c-0.301-0.117-0.576-0.199-0.847-0.256c-0.331-0.068-0.661-0.135-0.99-0.199l-0.501-0.101c-0.622-0.126-1.184-0.212-1.715-0.266
				l-0.203-0.021c-0.458-0.048-0.919-0.097-1.376-0.153c-0.389-0.047-0.798-0.07-1.253-0.07l-0.277,0.003
				c-0.046-0.001-0.093-0.002-0.139-0.007c-0.23-0.027-0.461-0.053-0.69-0.076c-0.146-0.015-0.303-0.021-0.457-0.028l-0.569-0.019
				c-0.393,0-0.817,0.035-1.379,0.111c-0.713,0.102-1.408,0.309-2.062,0.615c-0.197,0.096-0.4,0.203-0.603,0.31
				c-0.251,0.132-0.501,0.263-0.757,0.384c-0.036,0.018-0.073,0.033-0.111,0.045c-0.238,0.08-0.473,0.137-0.721,0.176
				c-0.159,0.016-0.247,0.02-0.333,0.02l-0.18-0.005c-0.049-0.003-0.098-0.009-0.146-0.019c-0.11-0.021-0.22-0.055-0.326-0.092
				c-0.06-0.021-0.118-0.048-0.173-0.08c-0.141-0.082-0.277-0.168-0.413-0.254l-0.103-0.064c-0.111-0.066-0.26-0.119-0.4-0.174
				c-0.007-0.002-0.088-0.033-0.095-0.036c-0.106-0.044-0.242-0.067-0.425-0.089C47.58,59.105,47.532,59.104,47.486,59.104z"/>
		</g>
		<g>
			<path fill="#2E3B49" d="M56.156,70.503c-0.64,0.03-1.272,0.083-1.898,0.219c-0.642,0.146-1.251,0.412-1.811,0.763
				c-0.569,0.359-1.092,0.822-1.564,1.302c-0.486,0.49-0.905,1.057-1.271,1.641c-0.278,0.445-0.509,0.915-0.727,1.396
				c-0.109,0.248-0.211,0.506-0.31,0.762c-0.036,0.09-0.07,0.185-0.104,0.277c-0.021,0.048-0.037,0.1-0.055,0.146
				c-0.049,0.144-0.067,0.272-0.088,0.427c-0.037,0.288,0.069,0.608,0.278,0.816c0.106,0.106,0.28,0.218,0.429,0.256
				c0.071,0.02,0.145,0.027,0.218,0.04c0.291,0.051,0.58,0.104,0.875,0.139c0.216,0.028,0.436,0.056,0.653,0.072
				c0.129,0.009,0.256,0.019,0.383,0.026c0.409,0.029,0.809-0.013,1.211-0.087c0.286-0.052,0.563-0.165,0.828-0.275
				c0.297-0.124,0.58-0.262,0.861-0.416c0.638-0.349,1.218-0.801,1.757-1.279c0.257-0.228,0.49-0.477,0.729-0.721
				c0.4-0.414,0.724-0.878,0.974-1.393c0.156-0.313,0.297-0.638,0.425-0.962c0.226-0.573,0.348-1.193,0.138-1.794
				c-0.09-0.262-0.24-0.489-0.441-0.678c-0.255-0.229-0.572-0.355-0.895-0.451c-0.048-0.014-0.099-0.027-0.148-0.043
				c-0.11-0.108-0.259-0.183-0.424-0.183C56.17,70.503,56.163,70.503,56.156,70.503"/>
			<path fill="#2E3B49" d="M51.432,79.793c-0.112,0-0.225-0.004-0.338-0.012l-0.38-0.025c-0.243-0.02-0.481-0.049-0.715-0.078
				c-0.27-0.033-0.545-0.08-0.821-0.129l0.013-1.012l-0.152,0.988c-0.09-0.014-0.179-0.03-0.267-0.055
				c-0.296-0.075-0.627-0.269-0.871-0.513c-0.424-0.421-0.64-1.055-0.563-1.651c0.03-0.228,0.063-0.413,0.134-0.621
				c0.04-0.113,0.06-0.168,0.082-0.219c0.015-0.047,0.054-0.154,0.095-0.256c0.099-0.258,0.207-0.529,0.322-0.792
				c0.196-0.433,0.459-0.987,0.794-1.522c0.452-0.721,0.913-1.314,1.409-1.814c0.604-0.613,1.174-1.086,1.74-1.443
				c0.681-0.426,1.394-0.726,2.122-0.893c0.753-0.162,1.47-0.213,2.074-0.242c0,0,0.003,0,0.005,0c0.368,0,0.688,0.097,0.954,0.275
				c0.375,0.114,0.838,0.291,1.245,0.656c0.34,0.318,0.577,0.683,0.72,1.098c0.26,0.744,0.211,1.559-0.153,2.484
				c-0.139,0.352-0.291,0.703-0.461,1.042c-0.291,0.601-0.68,1.155-1.149,1.642l-0.128,0.131c-0.213,0.221-0.426,0.439-0.656,0.643
				c-0.695,0.617-1.312,1.064-1.94,1.408c-0.311,0.172-0.626,0.324-0.955,0.462c-0.285,0.118-0.637,0.265-1.036,0.337
				C52.14,79.758,51.782,79.793,51.432,79.793z M49.425,77.562c0.339,0.06,0.578,0.103,0.822,0.131
				c0.21,0.028,0.411,0.054,0.611,0.068l0.368,0.025c0.337,0.023,0.589-0.003,0.968-0.072c0.19-0.034,0.422-0.13,0.626-0.216
				c0.263-0.109,0.514-0.232,0.764-0.369c0.494-0.27,0.994-0.635,1.574-1.15c0.193-0.17,0.37-0.354,0.547-0.537l0.13-0.134
				c0.324-0.335,0.584-0.706,0.79-1.132c0.147-0.297,0.276-0.594,0.394-0.892c0.184-0.466,0.224-0.814,0.124-1.097
				c-0.037-0.109-0.096-0.198-0.181-0.277c-0.082-0.074-0.24-0.146-0.496-0.223l-0.45-0.176c-0.465,0.025-1.012,0.071-1.546,0.188
				c-0.499,0.113-1.005,0.328-1.491,0.633c-0.433,0.273-0.887,0.652-1.384,1.156c-0.394,0.396-0.765,0.877-1.136,1.47
				c-0.271,0.435-0.497,0.911-0.663,1.276c-0.1,0.225-0.194,0.469-0.288,0.709l-0.095,0.255l-0.979-0.239l0.942,0.335
				c-0.04,0.115-0.045,0.187-0.057,0.272l0.01,0.002L49.425,77.562z"/>
		</g>
		<g>
			<path fill="#2E3B49" d="M39.57,68.646c-0.163,0.096-0.276,0.228-0.39,0.365c-0.123,0.146-0.213,0.318-0.297,0.483
				c-0.114,0.229-0.186,0.462-0.238,0.706c-0.083,0.401-0.114,0.816-0.144,1.225c-0.018,0.26,0.026,0.512,0.072,0.768
				c0.032,0.185,0.097,0.363,0.192,0.535c0.068,0.122,0.157,0.235,0.258,0.34c0.008,0.022,0.02,0.044,0.029,0.068
				c-0.004,0.322,0.24,0.627,0.611,0.714c0.44,0.104,0.911-0.123,1.032-0.505c0.213-0.669,0.392-1.35,0.485-2.039
				c0.026-0.207,0.053-0.412,0.063-0.621c0.017-0.371-0.054-0.751-0.202-1.102c-0.163-0.382-0.351-0.911-0.864-1.031
				c-0.056-0.014-0.118-0.021-0.18-0.021C39.848,68.532,39.694,68.572,39.57,68.646"/>
			<path fill="#2E3B49" d="M39.884,74.876c-0.152,0-0.303-0.018-0.449-0.052c-0.684-0.16-1.191-0.67-1.338-1.303
				c-0.077-0.099-0.145-0.201-0.202-0.305c-0.152-0.271-0.254-0.558-0.306-0.852c-0.049-0.273-0.111-0.619-0.085-1.007
				c0.028-0.396,0.063-0.883,0.162-1.36c0.08-0.367,0.182-0.667,0.323-0.95c0.114-0.225,0.238-0.456,0.426-0.679
				c0.117-0.143,0.323-0.395,0.649-0.585c0.389-0.233,0.912-0.312,1.354-0.202c0.964,0.225,1.321,1.075,1.513,1.532
				c0.24,0.567,0.338,1.099,0.314,1.616c-0.013,0.238-0.04,0.465-0.069,0.693c-0.094,0.688-0.26,1.391-0.525,2.225
				C41.421,74.371,40.694,74.876,39.884,74.876z M39.97,69.627c-0.007,0.008-0.013,0.015-0.017,0.02
				c-0.063,0.074-0.129,0.206-0.178,0.303c-0.063,0.124-0.11,0.27-0.152,0.463c-0.07,0.339-0.099,0.735-0.124,1.086
				c-0.009,0.137,0.024,0.322,0.06,0.519c0.014,0.079,0.04,0.151,0.082,0.226c0.014,0.025,0.045,0.07,0.104,0.133l0.152,0.16
				c0.143-0.504,0.237-0.945,0.294-1.363c0.023-0.18,0.047-0.357,0.056-0.537c0.01-0.215-0.033-0.445-0.124-0.661
				C40.069,69.848,40.017,69.72,39.97,69.627z"/>
		</g>
		<g>
			<path fill="#2E3B49" d="M34.606,85.95c-0.15,0.142-0.297,0.292-0.436,0.442c-0.09,0.095-0.173,0.19-0.257,0.285
				c-0.056-0.052-0.113-0.104-0.172-0.156c-0.128-0.112-0.259-0.221-0.381-0.34c-0.085-0.078-0.169-0.154-0.265-0.22
				c-0.08-0.055-0.163-0.087-0.252-0.122c-0.12-0.042-0.244-0.015-0.354,0.028c-0.182,0.077-0.315,0.179-0.374,0.376
				c-0.094,0.308-0.027,0.635,0.04,0.94c0.042,0.199,0.093,0.396,0.136,0.594c0.045,0.208,0.093,0.421,0.139,0.63
				c0.028,0.146,0.065,0.293,0.104,0.439c0.072,0.279,0.221,0.534,0.422,0.737c0.261,0.269,0.62,0.424,0.981,0.486
				c0.112,0.016,0.225,0.034,0.34,0.049c0.249,0.037,0.527,0.083,0.775,0.016c0.261-0.073,0.52-0.196,0.66-0.44
				c0.108-0.182,0.122-0.397,0.146-0.604c0.018-0.198,0.032-0.399,0.048-0.602c0.028-0.398,0.011-0.798,0.038-1.195
				c0.017-0.206,0.036-0.414,0.058-0.62c0.021-0.213,0.06-0.431,0.019-0.644c-0.045-0.252-0.2-0.486-0.459-0.561
				c-0.051-0.013-0.101-0.019-0.146-0.019C35.095,85.452,34.83,85.745,34.606,85.95"/>
			<path fill="#2E3B49" d="M34.768,91.17c-0.204,0-0.412-0.027-0.608-0.057l-0.358-0.052c-0.643-0.11-1.171-0.378-1.562-0.78
				c-0.321-0.324-0.557-0.736-0.672-1.184c-0.043-0.161-0.086-0.331-0.118-0.498l-0.271-1.209c-0.075-0.34-0.191-0.869-0.019-1.438
				c0.137-0.458,0.453-0.799,0.94-1.006c0.417-0.163,0.747-0.166,1.075-0.051c0.158,0.061,0.315,0.123,0.486,0.24
				c0.067,0.046,0.132,0.096,0.194,0.147c0.021-0.021,0.044-0.042,0.065-0.062l0.084-0.079c0.274-0.259,0.732-0.691,1.412-0.691
				c0.13,0,0.261,0.017,0.389,0.048c0.637,0.183,1.084,0.698,1.201,1.355c0.06,0.31,0.027,0.6,0.004,0.813l-0.012,0.103
				c-0.021,0.206-0.04,0.406-0.056,0.604c-0.012,0.166-0.014,0.346-0.016,0.523c-0.003,0.221-0.007,0.441-0.022,0.662l-0.049,0.619
				c-0.036,0.325-0.076,0.68-0.284,1.028c-0.243,0.423-0.666,0.728-1.248,0.891C35.144,91.147,34.965,91.17,34.768,91.17z
				 M33.233,87.41l0.174,0.783c0.029,0.147,0.061,0.272,0.094,0.396c0.029,0.11,0.087,0.211,0.167,0.291
				c0.098,0.102,0.256,0.173,0.441,0.205l0.295,0.042c0.151,0.022,0.258,0.042,0.363,0.042l0.033-0.002
				c0.019-0.005,0.034-0.01,0.048-0.015c0.004-0.035,0.007-0.071,0.011-0.106l0.052-0.634c0.013-0.176,0.015-0.358,0.017-0.54
				c0.003-0.216,0.006-0.432,0.021-0.646c0.007-0.075,0.013-0.148,0.02-0.223c-0.021,0.022-0.041,0.045-0.062,0.066l-0.873,0.983
				L33.233,87.41z"/>
		</g>
		<g>
			<path fill="#FFFFFF" d="M89.841,58.863c-0.243,0.117-0.434,0.406-0.579,0.616c-0.264,0.382-0.501,0.775-0.729,1.179
				c-0.203,0.362-0.405,0.723-0.645,1.066c-0.114,0.161-0.231,0.32-0.347,0.48c-0.206,0.243-0.411,0.498-0.647,0.713
				c-0.291,0.264-0.584,0.517-0.891,0.766c-0.209,0.16-0.425,0.313-0.656,0.452c-0.229,0.139-0.475,0.256-0.718,0.367
				c-0.582,0.24-1.175,0.483-1.784,0.657c-0.362,0.103-0.722,0.204-1.087,0.289c-0.31,0.072-0.615,0.125-0.927,0.176
				c-1.064,0.108-2.141,0.188-3.208,0.145c-0.542-0.025-1.078-0.082-1.614-0.148c-0.508-0.062-1.015-0.119-1.519-0.179
				c-0.207-0.028-0.414-0.057-0.621-0.102c-0.292-0.063-0.581-0.126-0.87-0.202c-0.532-0.138-1.062-0.297-1.593-0.445
				c-0.282-0.079-0.566-0.158-0.852-0.237c-0.072-0.134-0.182-0.258-0.312-0.311c-0.492-0.21-0.993-0.406-1.489-0.606
				c-0.413-0.17-0.828-0.354-1.281-0.385c-0.018,0-0.031,0-0.042,0c-0.095-0.039-0.195-0.059-0.308-0.059
				c-0.201,0-0.396,0.068-0.55,0.192c-0.315,0.108-0.628,0.252-0.914,0.422c-0.287,0.169-0.531,0.419-0.74,0.671
				c-0.138,0.169-0.271,0.344-0.402,0.52c-0.232,0.309-0.376,0.665-0.508,1.023c-0.075,0.207-0.124,0.431-0.167,0.644
				c-0.1,0.511-0.189,1.024-0.169,1.546c0.011,0.325,0.064,0.655,0.109,0.979c0.02,0.154,0.045,0.308,0.074,0.46
				c0.062,0.345,0.208,0.67,0.363,0.981c0.099,0.205,0.232,0.396,0.371,0.576c0.118,0.157,0.234,0.303,0.371,0.441
				c0.119,0.128,0.273,0.224,0.414,0.33c0.198,0.148,0.46,0.246,0.689,0.324c0.123,0.045,0.245,0.083,0.367,0.115
				c0.854,0.228,1.731,0.312,2.594,0.488c0.925,0.19,1.848,0.393,2.772,0.563c0.906,0.168,1.841,0.206,2.759,0.201
				c0.953-0.006,1.909-0.03,2.862-0.058c0.898-0.026,1.797-0.01,2.695-0.046c0.963-0.039,1.934-0.082,2.882-0.261
				c0.237-0.043,0.467-0.089,0.699-0.148c0.257-0.061,0.508-0.14,0.761-0.224c0.203-0.063,0.399-0.154,0.596-0.233
				c0.249-0.103,0.483-0.228,0.727-0.345c0.299-0.146,0.576-0.347,0.841-0.553c0.218-0.167,0.417-0.347,0.587-0.565
				c0.186-0.237,0.352-0.482,0.507-0.738c0.223-0.361,0.433-0.732,0.617-1.115c0.405-0.853,0.794-1.725,1.145-2.602
				c0.35-0.881,0.669-1.776,0.938-2.688c0.122-0.419,0.232-0.847,0.317-1.278c0.087-0.446,0.146-0.896,0.218-1.344
				c0.097-0.591,0.265-1.216,0.156-1.819c-0.048-0.281-0.176-0.559-0.433-0.708c-0.135-0.079-0.262-0.094-0.416-0.104
				c-0.01,0-0.021-0.002-0.031-0.002C90.087,58.74,89.963,58.805,89.841,58.863"/>
			<path fill="#2E3B49" d="M74.409,74.572c-1.102,0-1.989-0.068-2.793-0.218c-0.681-0.125-1.361-0.269-2.044-0.411l-0.748-0.155
				c-0.323-0.066-0.65-0.119-0.978-0.172c-0.543-0.088-1.104-0.179-1.671-0.329c-0.149-0.04-0.301-0.087-0.453-0.143
				c-0.302-0.103-0.642-0.235-0.946-0.463L64.68,72.61c-0.161-0.115-0.317-0.235-0.449-0.378c-0.149-0.15-0.294-0.328-0.439-0.522
				c-0.14-0.183-0.327-0.44-0.473-0.743c-0.179-0.359-0.362-0.77-0.446-1.239c-0.031-0.16-0.06-0.335-0.082-0.511l-0.02-0.135
				c-0.044-0.311-0.087-0.625-0.097-0.936c-0.025-0.623,0.078-1.217,0.187-1.771c0.054-0.267,0.116-0.54,0.209-0.794
				c0.147-0.4,0.33-0.859,0.648-1.283c0.137-0.184,0.279-0.369,0.426-0.55c0.342-0.412,0.661-0.696,1.009-0.901
				c0.299-0.178,0.621-0.33,0.956-0.455c0.441-0.283,1.013-0.369,1.51-0.23c0.548,0.052,1.013,0.244,1.425,0.414l0.462,0.188
				c0.378,0.15,0.757,0.303,1.131,0.462c0.185,0.075,0.359,0.198,0.512,0.357l1.069,0.302c0.344,0.098,0.688,0.196,1.032,0.285
				c0.272,0.072,0.541,0.131,0.812,0.189c0.202,0.043,0.384,0.067,0.565,0.092l1.503,0.178c0.514,0.063,1.024,0.117,1.541,0.142
				c1.046,0.044,2.218-0.055,3.06-0.14c0.229-0.04,0.514-0.088,0.801-0.155c0.351-0.081,0.695-0.179,1.042-0.278
				c0.564-0.16,1.129-0.394,1.675-0.619c0.174-0.08,0.386-0.18,0.582-0.299c0.2-0.12,0.386-0.252,0.565-0.39
				c0.271-0.22,0.55-0.462,0.827-0.713c0.169-0.153,0.317-0.334,0.466-0.511l0.385-0.52c0.215-0.311,0.4-0.643,0.588-0.978
				c0.245-0.433,0.498-0.852,0.778-1.258c0.214-0.309,0.5-0.723,0.968-0.948c0.188-0.09,0.461-0.223,0.819-0.223l0.109,0.006
				c0.168,0.011,0.495,0.033,0.844,0.238c0.481,0.279,0.807,0.778,0.912,1.402c0.118,0.658,0.004,1.277-0.097,1.824l-0.119,0.721
				c-0.049,0.326-0.099,0.652-0.162,0.978c-0.091,0.462-0.208,0.919-0.339,1.366c-0.262,0.887-0.578,1.794-0.969,2.778
				c-0.337,0.843-0.72,1.712-1.171,2.661c-0.188,0.389-0.405,0.783-0.669,1.211c-0.173,0.284-0.36,0.561-0.57,0.83
				c-0.203,0.262-0.447,0.498-0.767,0.742c-0.277,0.217-0.62,0.469-1.012,0.658l-0.203,0.101c-0.191,0.095-0.382,0.188-0.58,0.271
				l-0.158,0.065c-0.171,0.071-0.344,0.143-0.521,0.198c-0.264,0.088-0.544,0.174-0.829,0.242c-0.237,0.061-0.489,0.111-0.751,0.158
				c-1.037,0.196-2.09,0.238-3.019,0.276c-0.507,0.021-1.013,0.024-1.519,0.028c-0.396,0.004-0.792,0.006-1.188,0.018
				c-0.961,0.028-1.925,0.053-2.886,0.059H74.409z M67.05,64.078l-0.151,0.156c-0.253,0.086-0.505,0.203-0.729,0.336
				c-0.144,0.084-0.3,0.23-0.481,0.449c-0.123,0.15-0.248,0.314-0.37,0.479c-0.158,0.21-0.27,0.496-0.371,0.771
				c-0.057,0.156-0.092,0.33-0.125,0.496c-0.088,0.449-0.166,0.894-0.15,1.309c0.009,0.244,0.045,0.486,0.079,0.725l0.021,0.155
				c0.019,0.146,0.041,0.277,0.066,0.409c0.042,0.234,0.157,0.485,0.275,0.724c0.072,0.15,0.182,0.3,0.27,0.413
				c0.098,0.129,0.186,0.242,0.29,0.349c0.063,0.066,0.12,0.1,0.173,0.138l0.133,0.098c0.088,0.065,0.32,0.145,0.408,0.174
				c0.114,0.042,0.207,0.071,0.3,0.096c0.473,0.126,0.961,0.205,1.479,0.288c0.354,0.058,0.709,0.115,1.062,0.188l0.755,0.157
				c0.666,0.14,1.331,0.279,1.997,0.401c0.682,0.126,1.453,0.185,2.43,0.185h0.144c0.944-0.006,1.893-0.03,2.839-0.057
				c0.409-0.013,0.82-0.016,1.23-0.02c0.484-0.004,0.969-0.007,1.453-0.026c0.86-0.035,1.836-0.075,2.736-0.245
				c0.221-0.039,0.428-0.08,0.637-0.134c0.246-0.058,0.469-0.13,0.693-0.204c0.134-0.041,0.247-0.091,0.359-0.139l0.178-0.073
				c0.148-0.061,0.296-0.136,0.445-0.21l0.221-0.107c0.222-0.108,0.459-0.284,0.661-0.441c0.188-0.145,0.313-0.263,0.411-0.39
				c0.163-0.208,0.308-0.422,0.442-0.644c0.208-0.338,0.401-0.68,0.571-1.031c0.431-0.906,0.796-1.738,1.116-2.538
				c0.367-0.925,0.665-1.776,0.908-2.601c0.112-0.387,0.216-0.785,0.295-1.188c0.058-0.295,0.103-0.594,0.147-0.892l0.13-0.785
				c0.059-0.316,0.114-0.619,0.113-0.881c-0.012,0.017-0.022,0.033-0.032,0.047c-0.271,0.392-0.492,0.76-0.706,1.138
				c-0.217,0.386-0.436,0.774-0.694,1.145l-0.49,0.657c-0.205,0.244-0.416,0.49-0.651,0.705c-0.306,0.277-0.612,0.541-0.933,0.802
				c-0.261,0.2-0.507,0.373-0.771,0.532c-0.262,0.158-0.54,0.293-0.818,0.42c-0.604,0.25-1.25,0.518-1.926,0.709
				c-0.38,0.107-0.754,0.213-1.135,0.303c-0.331,0.076-0.658,0.134-0.992,0.188c-0.979,0.103-2.214,0.21-3.41,0.157
				c-0.573-0.026-1.135-0.085-1.696-0.155l-1.513-0.178c-0.251-0.034-0.483-0.066-0.716-0.117c-0.321-0.07-0.617-0.135-0.913-0.213
				c-0.357-0.092-0.718-0.195-1.078-0.299l-1.789-0.501l-0.16-0.298c-0.324-0.135-0.64-0.262-0.955-0.389l-0.483-0.195
				c-0.317-0.131-0.617-0.255-0.872-0.271L67.05,64.078z"/>
		</g>
	</g>
</g>
</svg>
