# This file uses centimeters as units for non-parametric coordinates.

mtllib red_mushroom.mtl
g default
v 0.067924 0.083650 -0.109424
v -0.016719 0.083650 -0.144484
v -0.101361 0.083650 -0.109424
v -0.136422 0.083650 -0.024781
v -0.101361 0.083650 0.059862
v -0.016719 0.083650 0.094922
v 0.067924 0.083650 0.059862
v 0.102984 0.083650 -0.024781
v 0.041898 0.414076 -0.084762
v -0.017626 0.417842 -0.108734
v -0.076619 0.406938 -0.083528
v -0.100522 0.405065 -0.023909
v -0.075335 0.409422 0.035200
v -0.015811 0.409556 0.059172
v 0.043181 0.413289 0.033966
v 0.067085 0.415161 -0.025653
v 0.248555 0.441453 -0.282647
v -0.011092 0.471636 -0.394953
v -0.274035 0.472535 -0.290417
v -0.386245 0.445956 -0.030275
v -0.281992 0.469614 0.233085
v -0.022345 0.453468 0.345391
v 0.240597 0.447135 0.240855
v 0.336351 0.433555 -0.019287
v -0.004227 0.689641 -0.023417
v 0.039009 -0.043797 -0.023774
v 0.018293 -0.043797 -0.073786
v 0.018293 -0.043797 0.026238
v -0.031719 -0.043797 0.046953
v -0.081730 -0.043797 0.026238
v -0.102446 -0.043797 -0.023774
v -0.081730 -0.043797 -0.073786
v -0.031719 -0.043797 -0.094501
v 0.242008 0.552121 -0.260303
v -0.011446 0.550790 -0.386397
v -0.253395 0.551774 -0.281575
v -0.366641 0.554250 -0.034391
v -0.281064 0.550714 0.210760
v -0.024812 0.557445 0.330624
v 0.222722 0.556498 0.229698
v 0.321235 0.554330 -0.011126
vt 0.968846 0.723330
vt 0.913246 0.773138
vt 0.818824 0.669413
vt 0.860177 0.629957
vt 0.985835 0.810401
vt 0.963566 0.830351
vt 0.858417 0.822827
vt 0.773829 0.704065
vt 0.942154 0.849763
vt 0.723526 0.893577
vt 0.652134 0.910655
vt 0.615551 0.765252
vt 0.671471 0.753404
vt 0.698598 0.977883
vt 0.669521 0.984842
vt 0.580512 0.928667
vt 0.560789 0.779728
vt 0.642782 0.991570
vt 0.354926 0.877167
vt 0.367310 0.907065
vt 0.779041 0.933878
vt 0.842408 0.892905
vt 0.871068 0.877877
vt 0.282746 0.907065
vt 0.441732 0.984421
vt 0.517828 0.991278
vt 0.791397 0.857865
vt 0.427856 0.928587
vt 0.505001 0.928588
vt 0.448731 0.390459
vt 0.619001 0.564049
vt 0.445033 0.639295
vt 0.268858 0.569255
vt 0.193675 0.394956
vt 0.263526 0.218500
vt 0.437493 0.143253
vt 0.613669 0.213294
vt 0.688852 0.387593
vt 0.619772 0.731597
vt 0.326603 0.757943
vt 0.101422 0.569398
vt 0.807720 0.505387
vt 0.074806 0.277162
vt 0.781105 0.213151
vt 0.262755 0.050951
vt 0.555924 0.024606
vt 0.503747 0.776081
vt 0.447219 0.786530
vt 0.723219 0.730379
vt 0.550189 0.991261
vt 0.325028 0.864783
vt 0.295130 0.877167
vt 0.295130 0.936963
vt 0.325028 0.949348
vt 0.354926 0.936963
vt 0.474093 0.984422
vt 0.964309 0.829686
vt 0.807702 0.918852
vt 0.671777 0.984277
vt 0.806939 0.269016
vt 0.613605 0.045858
vt 0.318553 0.025117
vt 0.095978 0.219350
vt 0.075588 0.513532
vt 0.268922 0.736691
vt 0.563973 0.757431
vt 0.786549 0.563199
vt 0.578815 0.522938
vt 0.445711 0.603809
vt 0.294266 0.544013
vt 0.251267 0.393576
vt 0.295726 0.247740
vt 0.440755 0.199461
vt 0.573866 0.256979
vt 0.624584 0.388693
vn 0.382522 -0.029036 -0.923490
vn 0.382203 -0.035053 -0.923414
vn 0.377925 0.099329 -0.920493
vn 0.377134 0.099524 -0.920796
vn -0.382674 -0.007085 -0.923856
vn -0.400950 0.097460 -0.910901
vn -0.384474 -0.007412 -0.923106
vn -0.406065 0.096112 -0.908776
vn -0.923791 0.013858 -0.382647
vn -0.923324 0.100986 -0.370506
vn -0.924222 0.008063 -0.381770
vn -0.924586 0.100205 -0.367558
vn -0.923785 0.014300 0.382644
vn -0.923767 0.008115 0.382870
vn -0.918104 0.102201 0.382935
vn -0.917827 0.102362 0.383557
vn -0.382680 -0.004605 0.923869
vn -0.382082 -0.004718 0.924117
vn -0.373849 0.101739 0.921893
vn -0.371819 0.102244 0.922657
vn 0.382525 -0.028892 0.923493
vn 0.382857 -0.028410 0.923371
vn 0.384470 0.100723 0.917626
vn 0.385494 0.100985 0.917168
vn 0.923048 -0.042421 0.382339
vn 0.922937 -0.050031 0.381687
vn 0.921692 0.100436 0.374695
vn 0.922344 0.100861 0.372973
vn 0.923104 -0.040977 -0.382362
vn 0.915842 0.098658 -0.389230
vn 0.922345 -0.051713 -0.382891
vn 0.914879 0.098041 -0.391644
vn 0.000000 -1.000000 0.000001
vn 0.000000 -1.000000 0.000000
vn 0.000000 -1.000000 0.000000
vn 0.000000 -1.000000 0.000000
vn 0.000000 -1.000000 0.000000
vn 0.000000 -1.000000 0.000000
vn 0.000000 -1.000000 0.000000
vn 0.000000 -1.000000 0.000000
vn -0.005251 -0.989793 -0.142419
vn -0.028774 -0.983683 -0.177592
vn -0.032861 -0.982437 -0.183678
vn -0.033991 -0.982083 -0.185359
vn 0.033071 -0.943188 -0.330610
vn -0.072373 -0.978631 -0.192465
vn -0.054163 -0.974674 -0.216974
vn -0.077241 -0.979534 -0.185867
vn -0.139240 -0.986446 -0.086806
vn -0.150696 -0.975284 -0.161590
vn -0.148920 -0.977457 -0.149672
vn -0.151169 -0.974676 -0.164788
vn -0.143317 -0.980653 0.133345
vn -0.145217 -0.978966 0.143311
vn -0.145552 -0.978656 0.145076
vn -0.145644 -0.978571 0.145558
vn -0.058217 -0.986957 0.150090
vn -0.127586 -0.978711 0.160769
vn -0.116462 -0.980368 0.159104
vn -0.130560 -0.978246 0.161211
vn 0.093931 -0.992913 0.072806
vn 0.039184 -0.988051 0.149064
vn 0.047916 -0.989408 0.137022
vn 0.036786 -0.987640 0.152363
vn 0.068247 -0.997661 -0.003967
vn 0.083022 -0.993412 0.078992
vn 0.080803 -0.994519 0.066351
vn 0.083659 -0.993063 0.082631
vn 0.068405 -0.997599 -0.010843
vn 0.076569 -0.995905 -0.048059
vn 0.077898 -0.995489 -0.054164
vn 0.078287 -0.995360 -0.055948
vn 0.408518 0.203805 -0.889706
vn 0.432897 0.130814 -0.891901
vn 0.261231 0.792742 -0.550744
vn 0.265620 0.797078 -0.542321
vn -0.367354 0.098333 -0.924868
vn -0.384591 0.180114 -0.905345
vn -0.223264 0.811708 -0.539707
vn -0.224805 0.819856 -0.526591
vn -0.913217 0.150933 -0.378489
vn -0.565612 0.784171 -0.255262
vn -0.886927 0.237027 -0.396458
vn -0.496547 0.835351 -0.235859
vn -0.927571 0.109000 0.357395
vn -0.574888 0.788216 0.219589
vn -0.928190 0.167986 0.332029
vn -0.566757 0.796847 0.209336
vn -0.387766 0.120581 0.913837
vn -0.266247 0.792694 0.548406
vn -0.409551 0.214491 0.886714
vn -0.254562 0.829178 0.497656
vn 0.368240 0.153727 0.916934
vn 0.242219 0.769410 0.591048
vn 0.372697 0.143044 0.916862
vn 0.240621 0.776118 0.582874
vn 0.935858 0.094187 0.339556
vn 0.636671 0.732471 0.241116
vn 0.918811 0.158516 0.361467
vn 0.602985 0.760855 0.239809
vn 0.943045 0.118547 -0.310827
vn 0.659407 0.719184 -0.218989
vn 0.943396 0.133406 -0.303655
vn 0.622767 0.755153 -0.204709
vn 0.837164 -0.422978 -0.346765
vn 0.837165 -0.422977 -0.346764
vn 0.839099 -0.418462 0.347566
vn 0.839099 -0.418462 0.347566
vn 0.356194 -0.365582 0.859928
vn 0.356193 -0.365583 0.859928
vn -0.366272 -0.289709 0.884259
vn -0.366271 -0.289708 0.884259
vn -0.897699 -0.236376 0.371838
vn -0.897699 -0.236376 0.371837
vn -0.896439 -0.241913 -0.371316
vn -0.896439 -0.241913 -0.371316
vn -0.364762 -0.302432 -0.880615
vn -0.364762 -0.302432 -0.880616
vn 0.354404 -0.377267 -0.855609
vn 0.354404 -0.377268 -0.855609
vn 0.171764 0.918970 -0.354953
vn -0.148204 0.924661 -0.350766
vn -0.340741 0.925497 -0.165380
vn -0.350325 0.926752 0.135658
vn -0.180888 0.924770 0.334784
vn 0.147660 0.923710 0.353491
vn 0.375144 0.915521 0.145216
vn 0.384810 0.913730 -0.130455
s 1
g pasted__mushroom3 group
usemtl phong3SG
f 1/16/1 2/29/2 9/17/3
f 9/17/3 2/29/2 10/47/4
s 2
f 3/28/5 11/48/6 2/29/7
f 2/29/7 11/48/6 10/47/8
s 3
f 4/2/9 12/3/10 3/1/11
f 3/1/11 12/3/10 11/4/12
s 4
f 4/2/13 5/7/14 12/3/15
f 12/3/15 5/7/14 13/8/16
s 5
f 5/7/17 6/27/18 13/8/19
f 13/8/19 6/27/18 14/49/20
s 6
f 6/27/21 7/10/22 14/49/23
f 14/49/23 7/10/22 15/13/24
s 7
f 7/10/25 8/11/26 15/13/27
f 15/13/27 8/11/26 16/12/28
s 8
f 1/16/29 9/17/30 8/11/31
f 8/11/31 9/17/30 16/12/32
s 9
f 27/19/33 26/20/34 33/51/35
f 26/20/34 28/55/36 33/51/35
f 28/55/36 29/54/37 33/51/35
f 29/54/37 30/53/38 33/51/35
f 30/53/38 31/24/39 33/51/35
f 31/24/39 32/52/40 33/51/35
s 10
f 9/39/41 10/66/42 17/31/43
f 17/31/43 10/66/42 18/32/44
s 11
f 11/65/45 19/33/46 10/40/47
f 10/40/47 19/33/46 18/32/48
s 12
f 12/64/49 20/34/50 11/41/51
f 11/41/51 20/34/50 19/33/52
s 13
f 12/43/53 13/63/54 20/34/55
f 20/34/55 13/63/54 21/35/56
s 14
f 14/62/57 22/36/58 13/45/59
f 13/45/59 22/36/58 21/35/60
s 15
f 15/61/61 23/37/62 14/46/63
f 14/46/63 23/37/62 22/36/64
s 16
f 16/60/65 24/38/66 15/44/67
f 15/44/67 24/38/66 23/37/68
s 17
f 16/42/69 9/67/70 24/38/71
f 24/38/71 9/67/70 17/31/72
s 18
usemtl phong2SG
f 17/31/73 18/32/74 34/68/75
f 34/68/75 18/32/74 35/69/76
s 19
f 18/32/77 19/33/78 35/69/79
f 35/69/79 19/33/78 36/70/80
s 20
f 20/34/81 37/71/82 19/33/83
f 19/33/83 37/71/82 36/70/84
s 21
f 21/35/85 38/72/86 20/34/87
f 20/34/87 38/72/86 37/71/88
s 22
f 22/36/89 39/73/90 21/35/91
f 21/35/91 39/73/90 38/72/92
s 23
f 23/37/93 40/74/94 22/36/95
f 22/36/95 40/74/94 39/73/96
s 24
f 24/38/97 41/75/98 23/37/99
f 23/37/99 41/75/98 40/74/100
s 25
f 17/31/101 34/68/102 24/38/103
f 24/38/103 34/68/102 41/75/104
s 8
usemtl phong3SG
f 8/11/31 26/59/105 1/16/29
f 1/16/29 26/59/105 27/18/106
s 7
f 8/11/26 7/10/25 26/15/107
f 26/15/107 7/10/25 28/14/108
s 6
f 7/10/22 6/27/21 28/21/109
f 28/21/109 6/27/21 29/58/110
s 5
f 6/27/18 5/7/17 29/22/111
f 29/22/111 5/7/17 30/23/112
s 4
f 5/7/14 4/2/13 30/9/113
f 30/9/113 4/2/13 31/57/114
s 3
f 3/1/11 32/5/115 4/2/9
f 4/2/9 32/5/115 31/6/116
s 2
f 2/29/7 33/56/117 3/28/5
f 3/28/5 33/56/117 32/25/118
s 1
f 1/16/1 27/50/119 2/29/2
f 2/29/2 27/50/119 33/26/120
s 18
usemtl phong2SG
f 34/68/75 35/69/76 25/30/121
s 19
f 35/69/79 36/70/80 25/30/122
s 20
f 36/70/84 37/71/82 25/30/123
s 21
f 37/71/88 38/72/86 25/30/124
s 22
f 38/72/92 39/73/90 25/30/125
s 23
f 39/73/96 40/74/94 25/30/126
s 24
f 40/74/100 41/75/98 25/30/127
s 25
f 41/75/104 34/68/102 25/30/128
