# This file uses centimeters as units for non-parametric coordinates.

mtllib cloud4.mtl
v 2.086842 -0.539765 4.401319
v 1.251078 0.573966 5.828282
v 1.202740 1.184216 3.930815
v 0.940449 -0.418739 2.774587
v 0.782269 -2.398056 3.960613
v 0.911752 -2.316977 5.852329
v -0.525612 -0.217613 6.266340
v -0.411845 1.383316 5.083461
v -0.603825 0.769791 3.196174
v -0.943151 -2.121152 3.220222
v -0.832316 -2.198955 5.113260
v -1.672005 -0.096587 4.639608
vt 1.000000 0.500000
vt 0.838104 0.676208
vt 0.088104 0.823792
vt 0.176208 0.500000
vt 0.088104 0.176208
vt 0.838104 0.323792
vt 0.676208 0.500000
vt 0.588104 0.823792
vt 0.338104 0.676208
vt 0.338104 0.323792
vt 0.588104 0.176208
vt 0.500000 0.500000
vt 1.088104 0.823792
vt 1.176208 0.500000
vt 1.088104 0.176208
vn 0.866819 0.480693 0.132515
vn 0.866819 0.480693 0.132515
vn 0.866819 0.480693 0.132515
vn 0.798102 0.261089 -0.543015
vn 0.798102 0.261089 -0.543015
vn 0.798102 0.261089 -0.543015
vn 0.739310 -0.388600 -0.549919
vn 0.739310 -0.388600 -0.549919
vn 0.739310 -0.388600 -0.549919
vn 0.821571 -0.569216 -0.031838
vn 0.821571 -0.569216 -0.031838
vn 0.821571 -0.569216 -0.031838
vn 0.826097 -0.092339 0.555911
vn 0.826097 -0.092339 0.555911
vn 0.826097 -0.092339 0.555911
vn 0.314066 0.906111 0.283416
vn 0.314066 0.906111 0.283416
vn 0.314066 0.906111 0.283416
vn 0.202880 0.550786 -0.809614
vn 0.202880 0.550786 -0.809614
vn 0.202880 0.550786 -0.809614
vn 0.268468 -0.510824 -0.816691
vn 0.268468 -0.510824 -0.816691
vn 0.268469 -0.510824 -0.816691
vn -0.087949 -0.994936 0.048663
vn -0.087949 -0.994936 0.048663
vn -0.087949 -0.994936 0.048663
vn 0.248178 -0.021074 0.968485
vn 0.248178 -0.021074 0.968485
vn 0.248178 -0.021074 0.968485
vn -0.068275 0.596003 0.800075
vn -0.068275 0.596003 0.800075
vn -0.068275 0.596003 0.800075
vn -0.096271 0.949431 -0.298851
vn -0.096271 0.949431 -0.298851
vn -0.096271 0.949431 -0.298851
vn -0.248178 0.021074 -0.968485
vn -0.248178 0.021074 -0.968485
vn -0.248178 0.021074 -0.968485
vn -0.144907 -0.988923 -0.032161
vn -0.144907 -0.988923 -0.032161
vn -0.144907 -0.988923 -0.032161
vn -0.377878 -0.421307 0.824444
vn -0.377878 -0.421307 0.824444
vn -0.377878 -0.421307 0.824444
vn -0.714912 0.447665 0.537120
vn -0.714912 0.447665 0.537120
vn -0.714912 0.447665 0.537120
vn -0.732214 0.666096 -0.142054
vn -0.732214 0.666096 -0.142054
vn -0.732214 0.666096 -0.142054
vn -0.826097 0.092339 -0.555910
vn -0.826097 0.092339 -0.555911
vn -0.826097 0.092339 -0.555911
vn -0.930981 -0.362915 0.039592
vn -0.930981 -0.362915 0.039592
vn -0.930981 -0.362915 0.039592
vn -0.808136 -0.197778 0.554797
vn -0.808136 -0.197778 0.554797
vn -0.808136 -0.197778 0.554797
usemtl phong21SG
f 1/1/1 3/13/2 2/2/3
f 1/1/4 4/14/5 3/13/6
f 1/1/7 5/15/8 4/14/9
f 1/1/10 6/6/11 5/15/12
f 1/1/13 2/2/14 6/6/15
f 2/2/16 3/13/17 8/8/18
f 3/3/19 4/4/20 9/9/21
f 4/4/22 5/5/23 10/10/24
f 5/15/25 6/6/26 11/11/27
f 6/6/28 2/2/29 7/7/30
f 2/2/31 8/8/32 7/7/33
f 3/3/34 9/9/35 8/8/36
f 4/4/37 10/10/38 9/9/39
f 5/5/40 11/11/41 10/10/42
f 6/6/43 7/7/44 11/11/45
f 7/7/46 8/8/47 12/12/48
f 8/8/49 9/9/50 12/12/51
f 9/9/52 10/10/53 12/12/54
f 10/10/55 11/11/56 12/12/57
f 11/11/58 7/7/59 12/12/60
v 3.949066 -0.467654 -0.496534
v 2.186026 1.881756 2.513637
v 2.084057 3.169076 -1.489059
v 1.530755 -0.212349 -3.928116
v 1.394495 -2.705756 -1.440191
v 1.667639 -2.534724 2.550374
v -1.561893 0.211924 3.437719
v -1.321903 3.589078 0.942442
v -1.726883 2.294849 -3.038780
v -2.245270 -2.121631 -3.002042
v -2.011465 -2.285754 0.991311
v -3.980204 0.467230 0.006137
vt 1.000000 0.500000
vt 0.838104 0.676208
vt 0.088104 0.823792
vt 0.176208 0.500000
vt 0.088104 0.176208
vt 0.838104 0.323792
vt 0.676208 0.500000
vt 0.588104 0.823792
vt 0.338104 0.676208
vt 0.338104 0.323792
vt 0.588104 0.176208
vt 0.500000 0.500000
vt 1.088104 0.823792
vt 1.176208 0.500000
vt 1.088104 0.176208
vn 0.866819 0.480693 0.132515
vn 0.866819 0.480693 0.132515
vn 0.866819 0.480693 0.132515
vn 0.798102 0.261089 -0.543015
vn 0.798102 0.261089 -0.543015
vn 0.798102 0.261089 -0.543015
vn 0.665740 -0.544967 -0.509706
vn 0.665740 -0.544967 -0.509706
vn 0.665740 -0.544967 -0.509706
vn 0.661669 -0.749681 -0.013159
vn 0.661669 -0.749681 -0.013159
vn 0.661669 -0.749681 -0.013159
vn 0.826097 -0.092339 0.555911
vn 0.826097 -0.092339 0.555911
vn 0.826097 -0.092339 0.555911
vn 0.314066 0.906111 0.283416
vn 0.314066 0.906111 0.283416
vn 0.314066 0.906111 0.283416
vn 0.202880 0.550786 -0.809614
vn 0.202880 0.550786 -0.809614
vn 0.202880 0.550786 -0.809614
vn 0.184173 -0.699271 -0.690725
vn 0.184173 -0.699271 -0.690725
vn 0.184173 -0.699271 -0.690725
vn -0.087950 -0.994936 0.048662
vn -0.087950 -0.994936 0.048662
vn -0.087950 -0.994936 0.048662
vn 0.248178 -0.021074 0.968485
vn 0.248178 -0.021074 0.968485
vn 0.248178 -0.021074 0.968485
vn -0.068275 0.596003 0.800075
vn -0.068275 0.596003 0.800075
vn -0.068275 0.596003 0.800075
vn -0.096271 0.949431 -0.298851
vn -0.096271 0.949431 -0.298851
vn -0.096271 0.949431 -0.298851
vn -0.248178 0.021074 -0.968485
vn -0.248178 0.021074 -0.968485
vn -0.248178 0.021074 -0.968485
vn -0.144907 -0.988923 -0.032160
vn -0.144907 -0.988923 -0.032160
vn -0.144907 -0.988923 -0.032160
vn -0.339750 -0.626192 0.701750
vn -0.339750 -0.626192 0.701750
vn -0.339750 -0.626192 0.701750
vn -0.714912 0.447665 0.537120
vn -0.714912 0.447665 0.537120
vn -0.714912 0.447665 0.537120
vn -0.732214 0.666096 -0.142054
vn -0.732214 0.666096 -0.142054
vn -0.732214 0.666096 -0.142054
vn -0.826097 0.092339 -0.555911
vn -0.826097 0.092339 -0.555911
vn -0.826097 0.092339 -0.555911
vn -0.817246 -0.575782 0.024184
vn -0.817246 -0.575782 0.024184
vn -0.817246 -0.575782 0.024184
vn -0.772850 -0.367569 0.517297
vn -0.772850 -0.367569 0.517297
vn -0.772850 -0.367569 0.517297
f 13/16/61 15/28/62 14/17/63
f 13/16/64 16/29/65 15/28/66
f 13/16/67 17/30/68 16/29/69
f 13/16/70 18/21/71 17/30/72
f 13/16/73 14/17/74 18/21/75
f 14/17/76 15/28/77 20/23/78
f 15/18/79 16/19/80 21/24/81
f 16/19/82 17/20/83 22/25/84
f 17/30/85 18/21/86 23/26/87
f 18/21/88 14/17/89 19/22/90
f 14/17/91 20/23/92 19/22/93
f 15/18/94 21/24/95 20/23/96
f 16/19/97 22/25/98 21/24/99
f 17/20/100 23/26/101 22/25/102
f 18/21/103 19/22/104 23/26/105
f 19/22/106 20/23/107 24/27/108
f 20/23/109 21/24/110 24/27/111
f 21/24/112 22/25/113 24/27/114
f 22/25/115 23/26/116 24/27/117
f 23/26/118 19/22/119 24/27/120
v 2.070732 -0.289999 -5.643734
v 0.994868 1.143687 -3.806830
v 0.932643 1.929252 -6.249406
v 0.595000 -0.134204 -7.737798
v 0.417752 -2.457443 -6.212916
v 0.584433 -2.353074 -3.777743
v -1.292235 0.124701 -3.242925
v -1.145785 2.185551 -4.765624
v -1.392917 1.395770 -7.195096
v -1.803351 -2.100991 -7.166009
v -1.660676 -2.201144 -4.729134
v -2.767967 0.280497 -5.336989
vt 1.000000 0.500000
vt 0.838104 0.676208
vt 0.088104 0.823792
vt 0.176208 0.500000
vt 0.088104 0.176208
vt 0.838104 0.323792
vt 0.676208 0.500000
vt 0.588104 0.823792
vt 0.338104 0.676208
vt 0.338104 0.323792
vt 0.588104 0.176208
vt 0.500000 0.500000
vt 1.088104 0.823792
vt 1.176208 0.500000
vt 1.088104 0.176208
vn 0.866819 0.480693 0.132515
vn 0.866819 0.480693 0.132515
vn 0.866819 0.480693 0.132515
vn 0.798102 0.261089 -0.543015
vn 0.798102 0.261089 -0.543015
vn 0.798102 0.261089 -0.543015
vn 0.729568 -0.413307 -0.544892
vn 0.729568 -0.413307 -0.544892
vn 0.729568 -0.413307 -0.544892
vn 0.798460 -0.601354 -0.028879
vn 0.798460 -0.601354 -0.028879
vn 0.798460 -0.601354 -0.028879
vn 0.826097 -0.092339 0.555911
vn 0.826097 -0.092339 0.555911
vn 0.826097 -0.092339 0.555911
vn 0.314066 0.906111 0.283416
vn 0.314066 0.906111 0.283416
vn 0.314066 0.906111 0.283416
vn 0.202880 0.550786 -0.809614
vn 0.202880 0.550786 -0.809614
vn 0.202880 0.550786 -0.809614
vn 0.255619 -0.544046 -0.799170
vn 0.255619 -0.544046 -0.799170
vn 0.255619 -0.544046 -0.799170
vn -0.087950 -0.994936 0.048662
vn -0.087950 -0.994936 0.048662
vn -0.087950 -0.994936 0.048662
vn 0.248178 -0.021074 0.968485
vn 0.248178 -0.021074 0.968485
vn 0.248178 -0.021074 0.968485
vn -0.068275 0.596003 0.800075
vn -0.068275 0.596003 0.800075
vn -0.068275 0.596003 0.800075
vn -0.096271 0.949431 -0.298851
vn -0.096271 0.949431 -0.298851
vn -0.096271 0.949431 -0.298851
vn -0.248178 0.021074 -0.968485
vn -0.248178 0.021074 -0.968485
vn -0.248178 0.021074 -0.968485
vn -0.144906 -0.988923 -0.032160
vn -0.144906 -0.988923 -0.032160
vn -0.144906 -0.988923 -0.032160
vn -0.373104 -0.456884 0.807496
vn -0.373104 -0.456884 0.807496
vn -0.373104 -0.456884 0.807496
vn -0.714912 0.447665 0.537120
vn -0.714912 0.447665 0.537120
vn -0.714912 0.447665 0.537120
vn -0.732214 0.666096 -0.142054
vn -0.732214 0.666096 -0.142054
vn -0.732214 0.666096 -0.142054
vn -0.826097 0.092339 -0.555911
vn -0.826097 0.092339 -0.555911
vn -0.826097 0.092339 -0.555911
vn -0.915945 -0.399575 0.037205
vn -0.915945 -0.399575 0.037205
vn -0.915945 -0.399575 0.037205
vn -0.804390 -0.224148 0.550195
vn -0.804390 -0.224148 0.550195
vn -0.804390 -0.224148 0.550195
f 25/31/121 27/43/122 26/32/123
f 25/31/124 28/44/125 27/43/126
f 25/31/127 29/45/128 28/44/129
f 25/31/130 30/36/131 29/45/132
f 25/31/133 26/32/134 30/36/135
f 26/32/136 27/43/137 32/38/138
f 27/33/139 28/34/140 33/39/141
f 28/34/142 29/35/143 34/40/144
f 29/45/145 30/36/146 35/41/147
f 30/36/148 26/32/149 31/37/150
f 26/32/151 32/38/152 31/37/153
f 27/33/154 33/39/155 32/38/156
f 28/34/157 34/40/158 33/39/159
f 29/35/160 35/41/161 34/40/162
f 30/36/163 31/37/164 35/41/165
f 31/37/166 32/38/167 36/42/168
f 32/38/169 33/39/170 36/42/171
f 33/39/172 34/40/173 36/42/174
f 34/40/175 35/41/176 36/42/177
f 35/41/178 31/37/179 36/42/180
