# This file uses centimeters as units for non-parametric coordinates.

mtllib cloud2.mtl
v -0.354353 -0.525324 -12.784776
v 4.057140 2.679813 -8.666454
v -2.039394 4.660697 -8.666454
v -5.807258 -0.525325 -8.666454
v -2.039394 -4.619376 -8.666454
v 4.057139 -3.926780 -8.666454
v 5.098552 -0.525324 -2.002868
v 1.330687 4.660697 -2.002868
v -4.765846 2.679813 -2.002868
v -4.765845 -3.926780 -2.002868
v 1.330688 -4.619376 -2.002868
v -0.354353 -0.525324 2.115454
vt 1.000000 0.500000
vt 1.088104 0.823792
vt 0.838104 0.676208
vt 1.176208 0.500000
vt 1.088104 0.176208
vt 0.838104 0.323792
vt 0.588104 0.823792
vt 0.088104 0.823792
vt 0.176208 0.500000
vt 0.338104 0.676208
vt 0.088104 0.176208
vt 0.338104 0.323792
vt 0.588104 0.176208
vt 0.676208 0.500000
vt 0.500000 0.500000
vn 0.210874 0.649001 -0.730978
vn 0.210874 0.649001 -0.730978
vn 0.210874 0.649001 -0.730978
vn -0.552074 0.401105 -0.730978
vn -0.552074 0.401105 -0.730978
vn -0.552074 0.401105 -0.730978
vn -0.527036 -0.485046 -0.697828
vn -0.527036 -0.485046 -0.697828
vn -0.527036 -0.485046 -0.697828
vn 0.082182 -0.723405 -0.685516
vn 0.082182 -0.723405 -0.685516
vn 0.082182 -0.723405 -0.685516
vn 0.682400 -0.000000 -0.730979
vn 0.682401 -0.000000 -0.730979
vn 0.682401 -0.000000 -0.730979
vn 0.305311 0.939650 -0.154410
vn 0.305311 0.939650 -0.154410
vn 0.305311 0.939650 -0.154410
vn -0.799314 0.580736 -0.154410
vn -0.799314 0.580736 -0.154410
vn -0.799314 0.580736 -0.154410
vn -0.716982 -0.659858 -0.224774
vn -0.716983 -0.659858 -0.224774
vn -0.716982 -0.659858 -0.224774
vn 0.112695 -0.991994 -0.056995
vn 0.112695 -0.991994 -0.056995
vn 0.112695 -0.991994 -0.056995
vn 0.988007 -0.000000 -0.154410
vn 0.988007 -0.000000 -0.154410
vn 0.988007 -0.000000 -0.154410
vn 0.799314 0.580736 0.154410
vn 0.799314 0.580736 0.154410
vn 0.799314 0.580736 0.154410
vn -0.305311 0.939650 0.154410
vn -0.305311 0.939650 0.154410
vn -0.305311 0.939650 0.154410
vn -0.988007 -0.000000 0.154410
vn -0.988007 -0.000000 0.154410
vn -0.988007 -0.000000 0.154410
vn -0.112695 -0.991994 0.056995
vn -0.112695 -0.991994 0.056995
vn -0.112695 -0.991994 0.056995
vn 0.716982 -0.659858 0.224774
vn 0.716982 -0.659858 0.224774
vn 0.716983 -0.659858 0.224774
vn 0.552074 0.401105 0.730979
vn 0.552074 0.401105 0.730979
vn 0.552074 0.401105 0.730979
vn -0.210873 0.649001 0.730978
vn -0.210873 0.649001 0.730978
vn -0.210873 0.649001 0.730978
vn -0.682401 -0.000000 0.730979
vn -0.682401 -0.000000 0.730978
vn -0.682401 -0.000000 0.730978
vn -0.082182 -0.723405 0.685516
vn -0.082182 -0.723405 0.685516
vn -0.082182 -0.723405 0.685516
vn 0.527036 -0.485046 0.697828
vn 0.527036 -0.485046 0.697828
vn 0.527036 -0.485046 0.697828
usemtl phong21SG
f 1/1/1 3/2/2 2/3/3
f 1/1/4 4/4/5 3/2/6
f 1/1/7 5/5/8 4/4/9
f 1/1/10 6/6/11 5/5/12
f 1/1/13 2/3/14 6/6/15
f 2/3/16 3/2/17 8/7/18
f 3/8/19 4/9/20 9/10/21
f 4/9/22 5/11/23 10/12/24
f 5/5/25 6/6/26 11/13/27
f 6/6/28 2/3/29 7/14/30
f 2/3/31 8/7/32 7/14/33
f 3/8/34 9/10/35 8/7/36
f 4/9/37 10/12/38 9/10/39
f 5/11/40 11/13/41 10/12/42
f 6/6/43 7/14/44 11/13/45
f 7/14/46 8/7/47 12/15/48
f 8/7/49 9/10/50 12/15/51
f 9/10/52 10/12/53 12/15/54
f 10/12/55 11/13/56 12/15/57
f 11/13/58 7/14/59 12/15/60
v -0.354353 -0.525324 0.379793
v 2.540074 1.577600 2.909941
v -1.459926 2.877279 2.909941
v -3.932062 -0.525324 2.909941
v -1.459926 -3.995822 2.909941
v 2.540074 -2.628249 2.909941
v 3.223356 -0.525324 7.003806
v 0.751220 2.877279 7.003806
v -3.248780 1.577600 7.003806
v -3.248780 -2.628249 7.003806
v 0.751220 -3.995822 7.003806
v -0.354353 -0.525324 9.533953
vt 1.000000 0.500000
vt 1.088104 0.823792
vt 0.838104 0.676208
vt 1.176208 0.500000
vt 1.088104 0.176208
vt 0.838104 0.323792
vt 0.588104 0.823792
vt 0.088104 0.823792
vt 0.176208 0.500000
vt 0.338104 0.676208
vt 0.088104 0.176208
vt 0.338104 0.323792
vt 0.588104 0.176208
vt 0.676208 0.500000
vt 0.500000 0.500000
vn 0.203376 0.625928 -0.752896
vn 0.203376 0.625928 -0.752896
vn 0.203376 0.625928 -0.752896
vn -0.532446 0.386845 -0.752896
vn -0.532446 0.386845 -0.752896
vn -0.532446 0.386845 -0.752896
vn -0.533996 -0.380381 -0.755088
vn -0.533996 -0.380381 -0.755088
vn -0.533996 -0.380381 -0.755088
vn 0.211593 -0.618887 -0.756444
vn 0.211593 -0.618887 -0.756444
vn 0.211593 -0.618887 -0.756444
vn 0.658140 -0.000000 -0.752896
vn 0.658140 -0.000000 -0.752896
vn 0.658140 -0.000000 -0.752896
vn 0.304801 0.938080 -0.164627
vn 0.304801 0.938080 -0.164627
vn 0.304801 0.938080 -0.164627
vn -0.797979 0.579765 -0.164627
vn -0.797979 0.579765 -0.164627
vn -0.797979 0.579765 -0.164627
vn -0.803994 -0.572708 -0.159997
vn -0.803994 -0.572708 -0.159997
vn -0.803994 -0.572708 -0.159997
vn 0.318680 -0.932103 -0.172123
vn 0.318680 -0.932103 -0.172123
vn 0.318680 -0.932104 -0.172123
vn 0.986356 0.000000 -0.164627
vn 0.986356 0.000000 -0.164627
vn 0.986356 0.000000 -0.164627
vn 0.797979 0.579766 0.164627
vn 0.797979 0.579766 0.164626
vn 0.797979 0.579766 0.164627
vn -0.304801 0.938080 0.164627
vn -0.304801 0.938080 0.164627
vn -0.304801 0.938080 0.164627
vn -0.986356 0.000000 0.164627
vn -0.986356 0.000000 0.164627
vn -0.986356 0.000000 0.164627
vn -0.318680 -0.932104 0.172123
vn -0.318680 -0.932104 0.172123
vn -0.318680 -0.932103 0.172123
vn 0.803994 -0.572708 0.159997
vn 0.803994 -0.572708 0.159997
vn 0.803994 -0.572708 0.159997
vn 0.532446 0.386845 0.752896
vn 0.532446 0.386845 0.752896
vn 0.532446 0.386845 0.752896
vn -0.203376 0.625928 0.752896
vn -0.203376 0.625928 0.752896
vn -0.203376 0.625928 0.752896
vn -0.658140 -0.000000 0.752896
vn -0.658140 -0.000000 0.752896
vn -0.658140 -0.000000 0.752896
vn -0.211593 -0.618887 0.756444
vn -0.211593 -0.618887 0.756444
vn -0.211593 -0.618887 0.756444
vn 0.533997 -0.380381 0.755088
vn 0.533997 -0.380381 0.755088
vn 0.533997 -0.380381 0.755088
f 13/16/61 15/17/62 14/18/63
f 13/16/64 16/19/65 15/17/66
f 13/16/67 17/20/68 16/19/69
f 13/16/70 18/21/71 17/20/72
f 13/16/73 14/18/74 18/21/75
f 14/18/76 15/17/77 20/22/78
f 15/23/79 16/24/80 21/25/81
f 16/24/82 17/26/83 22/27/84
f 17/20/85 18/21/86 23/28/87
f 18/21/88 14/18/89 19/29/90
f 14/18/91 20/22/92 19/29/93
f 15/23/94 21/25/95 20/22/96
f 16/24/97 22/27/98 21/25/99
f 17/26/100 23/28/101 22/27/102
f 18/21/103 19/29/104 23/28/105
f 19/29/106 20/22/107 24/30/108
f 20/22/109 21/25/110 24/30/111
f 21/25/112 22/27/113 24/30/114
f 22/27/115 23/28/116 24/30/117
f 23/28/118 19/29/119 24/30/120
v 4.762825 -0.301554 -2.962148
v 8.214640 2.206336 -0.325197
v 3.444349 3.756298 -0.325197
v 0.496148 -0.301554 -0.325197
v 3.444349 -4.146684 -0.325197
v 8.214640 -2.809444 -0.325197
v 9.029503 -0.301554 3.941481
v 6.081301 3.756298 3.941481
v 1.311011 2.206336 3.941481
v 1.311011 -2.809444 3.941481
v 6.081302 -4.146684 3.941481
v 4.762825 -0.301554 6.578433
vt 1.000000 0.500000
vt 1.088104 0.823792
vt 0.838104 0.676208
vt 1.176208 0.500000
vt 1.088104 0.176208
vt 0.838104 0.323792
vt 0.588104 0.823792
vt 0.088104 0.823792
vt 0.176208 0.500000
vt 0.338104 0.676208
vt 0.088104 0.176208
vt 0.338104 0.323792
vt 0.588104 0.176208
vt 0.676208 0.500000
vt 0.500000 0.500000
vn 0.187593 0.577350 -0.794655
vn 0.187593 0.577350 -0.794655
vn 0.187593 0.577350 -0.794655
vn -0.491124 0.356822 -0.794655
vn -0.491123 0.356822 -0.794654
vn -0.491123 0.356822 -0.794654
vn -0.487606 -0.373866 -0.788964
vn -0.487607 -0.373866 -0.788964
vn -0.487607 -0.373866 -0.788964
vn 0.167059 -0.595943 -0.785458
vn 0.167059 -0.595943 -0.785458
vn 0.167059 -0.595943 -0.785458
vn 0.607062 0.000000 -0.794655
vn 0.607062 0.000000 -0.794654
vn 0.607062 0.000000 -0.794654
vn 0.303531 0.934172 -0.187592
vn 0.303531 0.934172 -0.187592
vn 0.303531 0.934172 -0.187592
vn -0.794655 0.577350 -0.187593
vn -0.794655 0.577350 -0.187593
vn -0.794655 0.577350 -0.187593
vn -0.777246 -0.595943 -0.201845
vn -0.777246 -0.595943 -0.201845
vn -0.777246 -0.595943 -0.201845
vn 0.266242 -0.949758 -0.164547
vn 0.266242 -0.949758 -0.164547
vn 0.266242 -0.949758 -0.164547
vn 0.982247 0.000000 -0.187593
vn 0.982247 0.000000 -0.187593
vn 0.982247 0.000000 -0.187593
vn 0.794655 0.577350 0.187592
vn 0.794655 0.577350 0.187593
vn 0.794654 0.577350 0.187592
vn -0.303531 0.934172 0.187593
vn -0.303531 0.934172 0.187593
vn -0.303531 0.934172 0.187593
vn -0.982247 -0.000000 0.187593
vn -0.982247 -0.000000 0.187593
vn -0.982247 -0.000000 0.187593
vn -0.266242 -0.949758 0.164547
vn -0.266242 -0.949758 0.164547
vn -0.266242 -0.949758 0.164547
vn 0.777246 -0.595943 0.201846
vn 0.777246 -0.595943 0.201845
vn 0.777246 -0.595943 0.201846
vn 0.491123 0.356822 0.794655
vn 0.491123 0.356822 0.794654
vn 0.491123 0.356822 0.794655
vn -0.187592 0.577350 0.794655
vn -0.187592 0.577350 0.794655
vn -0.187593 0.577350 0.794655
vn -0.607062 -0.000000 0.794655
vn -0.607062 -0.000000 0.794655
vn -0.607062 -0.000000 0.794655
vn -0.167059 -0.595943 0.785458
vn -0.167059 -0.595943 0.785458
vn -0.167059 -0.595943 0.785458
vn 0.487607 -0.373866 0.788964
vn 0.487607 -0.373866 0.788964
vn 0.487607 -0.373866 0.788964
f 25/31/121 27/32/122 26/33/123
f 25/31/124 28/34/125 27/32/126
f 25/31/127 29/35/128 28/34/129
f 25/31/130 30/36/131 29/35/132
f 25/31/133 26/33/134 30/36/135
f 26/33/136 27/32/137 32/37/138
f 27/38/139 28/39/140 33/40/141
f 28/39/142 29/41/143 34/42/144
f 29/35/145 30/36/146 35/43/147
f 30/36/148 26/33/149 31/44/150
f 26/33/151 32/37/152 31/44/153
f 27/38/154 33/40/155 32/37/156
f 28/39/157 34/42/158 33/40/159
f 29/41/160 35/43/161 34/42/162
f 30/36/163 31/44/164 35/43/165
f 31/44/166 32/37/167 36/45/168
f 32/37/169 33/40/170 36/45/171
f 33/40/172 34/42/173 36/45/174
f 34/42/175 35/43/176 36/45/177
f 35/43/178 31/44/179 36/45/180
v -4.466311 -1.910470 -1.218201
v -2.355028 -0.492271 0.302185
v -5.272749 0.384225 0.302185
v -7.075999 -1.910470 0.302185
v -5.272749 -4.092755 0.302185
v -2.355029 -3.786297 0.302185
v -1.856622 -1.910470 2.762221
v -3.659873 0.384225 2.762221
v -6.577593 -0.492271 2.762221
v -6.577592 -3.786297 2.762221
v -3.659872 -4.092755 2.762221
v -4.466311 -1.910470 4.282607
vt 1.000000 0.500000
vt 1.088104 0.823792
vt 0.838104 0.676208
vt 1.176208 0.500000
vt 1.088104 0.176208
vt 0.838104 0.323792
vt 0.588104 0.823792
vt 0.088104 0.823792
vt 0.176208 0.500000
vt 0.338104 0.676208
vt 0.088104 0.176208
vt 0.338104 0.323792
vt 0.588104 0.176208
vt 0.676208 0.500000
vt 0.500000 0.500000
vn 0.176022 0.585949 -0.790999
vn 0.176022 0.585949 -0.790999
vn 0.176022 0.585949 -0.790999
vn -0.468099 0.367848 -0.803475
vn -0.468099 0.367848 -0.803475
vn -0.468099 0.367848 -0.803475
vn -0.464788 -0.384060 -0.797791
vn -0.464788 -0.384060 -0.797791
vn -0.464788 -0.384060 -0.797791
vn 0.061525 -0.585764 -0.808143
vn 0.061525 -0.585764 -0.808143
vn 0.061525 -0.585764 -0.808143
vn 0.584371 -0.000000 -0.811486
vn 0.584371 -0.000000 -0.811486
vn 0.584371 -0.000000 -0.811486
vn 0.282718 0.941123 -0.185358
vn 0.282718 0.941123 -0.185358
vn 0.282718 0.941123 -0.185358
vn -0.771459 0.606239 -0.193196
vn -0.771459 0.606239 -0.193196
vn -0.771459 0.606239 -0.193195
vn -0.732148 -0.604983 -0.312978
vn -0.732148 -0.604983 -0.312978
vn -0.732148 -0.604983 -0.312978
vn 0.104215 -0.992205 -0.068326
vn 0.104215 -0.992205 -0.068326
vn 0.104215 -0.992205 -0.068326
vn 0.980087 -0.000000 -0.198567
vn 0.980087 -0.000000 -0.198567
vn 0.980087 -0.000000 -0.198567
vn 0.771459 0.606240 0.193196
vn 0.771459 0.606239 0.193196
vn 0.771459 0.606239 0.193196
vn -0.282717 0.941123 0.185358
vn -0.282717 0.941123 0.185358
vn -0.282717 0.941123 0.185358
vn -0.980087 -0.000000 0.198567
vn -0.980087 -0.000000 0.198567
vn -0.980087 -0.000000 0.198567
vn -0.104215 -0.992205 0.068326
vn -0.104215 -0.992205 0.068326
vn -0.104215 -0.992205 0.068326
vn 0.732148 -0.604983 0.312978
vn 0.732148 -0.604983 0.312978
vn 0.732148 -0.604983 0.312978
vn 0.468099 0.367848 0.803475
vn 0.468099 0.367848 0.803475
vn 0.468099 0.367848 0.803475
vn -0.176022 0.585949 0.790999
vn -0.176022 0.585949 0.790999
vn -0.176022 0.585949 0.790999
vn -0.584371 0.000000 0.811486
vn -0.584371 0.000000 0.811486
vn -0.584371 0.000000 0.811486
vn -0.061525 -0.585764 0.808143
vn -0.061525 -0.585764 0.808143
vn -0.061525 -0.585764 0.808143
vn 0.464787 -0.384060 0.797791
vn 0.464787 -0.384060 0.797791
vn 0.464787 -0.384060 0.797791
f 37/46/181 39/47/182 38/48/183
f 37/46/184 40/49/185 39/47/186
f 37/46/187 41/50/188 40/49/189
f 37/46/190 42/51/191 41/50/192
f 37/46/193 38/48/194 42/51/195
f 38/48/196 39/47/197 44/52/198
f 39/53/199 40/54/200 45/55/201
f 40/54/202 41/56/203 46/57/204
f 41/50/205 42/51/206 47/58/207
f 42/51/208 38/48/209 43/59/210
f 38/48/211 44/52/212 43/59/213
f 39/53/214 45/55/215 44/52/216
f 40/54/217 46/57/218 45/55/219
f 41/56/220 47/58/221 46/57/222
f 42/51/223 43/59/224 47/58/225
f 43/59/226 44/52/227 48/60/228
f 44/52/229 45/55/230 48/60/231
f 45/55/232 46/57/233 48/60/234
f 46/57/235 47/58/236 48/60/237
f 47/58/238 43/59/239 48/60/240
v -0.213223 -1.402016 8.320262
v 0.965925 -0.450731 9.221051
v -0.663618 0.137196 9.221051
v -1.670731 -1.402016 9.221051
v -0.663618 -3.650833 9.221051
v 0.965925 -3.445270 9.221051
v 1.244285 -1.402016 10.678559
v 0.237171 0.137196 10.678559
v -1.392372 -0.450731 10.678559
v -1.392372 -3.445270 10.678559
v 0.237172 -3.650833 10.678559
v -0.213223 -1.402016 11.579348
vt 1.000000 0.500000
vt 1.088104 0.823792
vt 0.838104 0.676208
vt 1.176208 0.500000
vt 1.088104 0.176208
vt 0.838104 0.323792
vt 0.588104 0.823792
vt 0.088104 0.823792
vt 0.176208 0.500000
vt 0.338104 0.676208
vt 0.088104 0.176208
vt 0.338104 0.323792
vt 0.588104 0.176208
vt 0.676208 0.500000
vt 0.500000 0.500000
vn 0.193796 0.537138 -0.820930
vn 0.193796 0.537138 -0.820930
vn 0.193796 0.537138 -0.820930
vn -0.497141 0.325281 -0.804390
vn -0.497141 0.325281 -0.804390
vn -0.497141 0.325281 -0.804390
vn -0.511738 -0.229178 -0.828011
vn -0.511738 -0.229178 -0.828011
vn -0.511738 -0.229178 -0.828011
vn 0.047893 -0.379664 -0.923884
vn 0.047893 -0.379664 -0.923884
vn 0.047893 -0.379664 -0.923884
vn 0.607062 -0.000000 -0.794654
vn 0.607062 -0.000000 -0.794654
vn 0.607062 -0.000000 -0.794654
vn 0.332151 0.920617 -0.205281
vn 0.332152 0.920617 -0.205281
vn 0.332152 0.920617 -0.205281
vn -0.820930 0.537138 -0.193795
vn -0.820930 0.537138 -0.193795
vn -0.820930 0.537138 -0.193795
vn -0.847766 -0.379664 -0.370336
vn -0.847766 -0.379664 -0.370336
vn -0.847766 -0.379664 -0.370336
vn 0.124783 -0.989182 -0.077120
vn 0.124783 -0.989182 -0.077120
vn 0.124783 -0.989182 -0.077120
vn 0.982247 -0.000000 -0.187593
vn 0.982247 -0.000000 -0.187593
vn 0.982247 -0.000000 -0.187593
vn 0.820930 0.537138 0.193795
vn 0.820930 0.537138 0.193795
vn 0.820930 0.537138 0.193795
vn -0.332152 0.920617 0.205281
vn -0.332152 0.920617 0.205281
vn -0.332152 0.920617 0.205281
vn -0.982247 -0.000000 0.187593
vn -0.982247 -0.000000 0.187593
vn -0.982247 -0.000000 0.187593
vn -0.124783 -0.989182 0.077120
vn -0.124783 -0.989182 0.077120
vn -0.124783 -0.989182 0.077120
vn 0.847766 -0.379664 0.370336
vn 0.847766 -0.379664 0.370336
vn 0.847766 -0.379664 0.370336
vn 0.497140 0.325281 0.804390
vn 0.497140 0.325281 0.804390
vn 0.497140 0.325281 0.804390
vn -0.193795 0.537138 0.820930
vn -0.193795 0.537138 0.820930
vn -0.193795 0.537138 0.820930
vn -0.607062 -0.000000 0.794654
vn -0.607062 -0.000000 0.794654
vn -0.607062 -0.000000 0.794654
vn -0.047893 -0.379664 0.923884
vn -0.047893 -0.379664 0.923884
vn -0.047893 -0.379664 0.923884
vn 0.511738 -0.229178 0.828011
vn 0.511738 -0.229178 0.828011
vn 0.511738 -0.229178 0.828011
f 49/61/241 51/62/242 50/63/243
f 49/61/244 52/64/245 51/62/246
f 49/61/247 53/65/248 52/64/249
f 49/61/250 54/66/251 53/65/252
f 49/61/253 50/63/254 54/66/255
f 50/63/256 51/62/257 56/67/258
f 51/68/259 52/69/260 57/70/261
f 52/69/262 53/71/263 58/72/264
f 53/65/265 54/66/266 59/73/267
f 54/66/268 50/63/269 55/74/270
f 50/63/271 56/67/272 55/74/273
f 51/68/274 57/70/275 56/67/276
f 52/69/277 58/72/278 57/70/279
f 53/71/280 59/73/281 58/72/282
f 54/66/283 55/74/284 59/73/285
f 55/74/286 56/67/287 60/75/288
f 56/67/289 57/70/290 60/75/291
f 57/70/292 58/72/293 60/75/294
f 58/72/295 59/73/296 60/75/297
f 59/73/298 55/74/299 60/75/300
