# This file uses centimeters as units for non-parametric coordinates.

mtllib cloud1.mtl
v 0.539438 -1.011607 1.398263
v 4.790648 1.681893 2.918653
v -0.000020 3.300349 4.357205
v -2.920687 -0.955404 5.356002
v 0.064908 -4.934911 4.534741
v 4.830775 -4.429868 3.028376
v 6.943511 -0.845883 6.994785
v 3.957916 3.402772 7.816046
v -0.807951 1.772833 9.322411
v -0.767823 -4.401691 9.432133
v 4.022844 -4.903175 7.993581
v 3.483387 -0.789680 10.952524
v -2.367321 0.038663 -10.271845
v 4.459057 4.363749 -7.830478
v -3.233554 6.962584 -5.520525
v -7.923414 0.128911 -3.916708
v -3.129296 -5.396376 -5.235448
v 4.523492 -4.585407 -7.654291
v 7.916017 0.304774 -1.285234
v 3.121898 7.127049 0.033507
v -4.530890 4.509775 2.452350
v -4.466455 -4.540159 2.628537
v 3.226157 -5.345418 0.318583
v 2.359923 0.395023 5.069904
v -5.067755 -1.065010 0.890768
v -1.851668 0.972652 2.040960
v -5.475860 2.197032 3.129240
v -7.685377 -1.022492 3.884840
v -5.426741 -4.635154 3.263547
v -1.821311 -4.253084 2.123966
v -0.223003 -0.939638 5.124597
v -2.481639 2.274515 5.745891
v -6.087069 1.041448 6.885471
v -6.056711 -4.231769 6.968478
v -2.432520 -4.611146 5.880197
v -2.840625 -0.897120 8.118670
vt 1.000000 0.500000
vt 0.838104 0.676208
vt 0.088104 0.823792
vt 0.176208 0.500000
vt 0.088104 0.176208
vt 0.838104 0.323792
vt 0.676208 0.500000
vt 0.588104 0.823792
vt 0.338104 0.676208
vt 0.338104 0.323792
vt 0.588104 0.176208
vt 0.500000 0.500000
vt 1.088104 0.823792
vt 1.176208 0.500000
vt 1.088104 0.176208
vt 1.000000 0.500000
vt 1.088104 0.823792
vt 0.838104 0.676208
vt 1.176208 0.500000
vt 1.088104 0.176208
vt 0.838104 0.323792
vt 0.588104 0.823792
vt 0.088104 0.823792
vt 0.176208 0.500000
vt 0.338104 0.676208
vt 0.088104 0.176208
vt 0.338104 0.323792
vt 0.588104 0.176208
vt 0.676208 0.500000
vt 0.500000 0.500000
vt 1.000000 0.500000
vt 1.088104 0.823792
vt 0.838104 0.676208
vt 1.176208 0.500000
vt 1.088104 0.176208
vt 0.838104 0.323792
vt 0.588104 0.823792
vt 0.088104 0.823792
vt 0.176208 0.500000
vt 0.338104 0.676208
vt 0.088104 0.176208
vt 0.338104 0.323792
vt 0.588104 0.176208
vt 0.676208 0.500000
vt 0.500000 0.500000
vn -0.059076 0.559787 -0.826528
vn -0.059076 0.559787 -0.826528
vn -0.059076 0.559787 -0.826528
vn -0.706010 0.338534 -0.622049
vn -0.706010 0.338534 -0.622049
vn -0.706010 0.338534 -0.622049
vn -0.693905 -0.396562 -0.601028
vn -0.693905 -0.396562 -0.601028
vn -0.693905 -0.396562 -0.601028
vn -0.182475 -0.600389 -0.778612
vn -0.182475 -0.600389 -0.778612
vn -0.182475 -0.600389 -0.778612
vn 0.344893 -0.014585 -0.938529
vn 0.344893 -0.014585 -0.938529
vn 0.344893 -0.014585 -0.938529
vn 0.227714 0.930127 -0.288115
vn 0.227714 0.930127 -0.288115
vn 0.227714 0.930127 -0.288115
vn -0.819047 0.572132 0.042739
vn -0.819047 0.572132 0.042739
vn -0.819047 0.572132 0.042739
vn -0.804937 -0.588884 -0.072751
vn -0.804937 -0.588884 -0.072751
vn -0.804937 -0.588884 -0.072751
vn 0.079432 -0.993480 -0.081778
vn 0.079432 -0.993480 -0.081778
vn 0.079432 -0.993480 -0.081778
vn 0.883573 -0.002606 -0.468287
vn 0.883573 -0.002606 -0.468287
vn 0.883573 -0.002606 -0.468287
vn 0.810234 0.582283 -0.066838
vn 0.810234 0.582283 -0.066838
vn 0.810234 0.582283 -0.066838
vn -0.241974 0.937756 0.249121
vn -0.241974 0.937756 0.249121
vn -0.241974 0.937756 0.249121
vn -0.883335 0.002589 0.468734
vn -0.883335 0.002589 0.468734
vn -0.883335 0.002589 0.468734
vn -0.075297 -0.992600 0.095270
vn -0.075297 -0.992600 0.095270
vn -0.075297 -0.992600 0.095270
vn 0.818165 -0.569553 0.078838
vn 0.818165 -0.569553 0.078838
vn 0.818165 -0.569553 0.078838
vn 0.700562 0.374934 0.607155
vn 0.700563 0.374934 0.607155
vn 0.700562 0.374934 0.607155
vn 0.050262 0.594628 0.802428
vn 0.050262 0.594628 0.802428
vn 0.050262 0.594628 0.802428
vn -0.347541 0.014402 0.937554
vn -0.347541 0.014402 0.937554
vn -0.347541 0.014402 0.937554
vn 0.184582 -0.557843 0.809160
vn 0.184582 -0.557843 0.809160
vn 0.184582 -0.557843 0.809160
vn 0.701903 -0.352971 0.618663
vn 0.701903 -0.352971 0.618663
vn 0.701903 -0.352971 0.618663
vn -0.059076 0.559787 -0.826528
vn -0.059076 0.559787 -0.826528
vn -0.059076 0.559787 -0.826528
vn -0.706010 0.338534 -0.622049
vn -0.706010 0.338534 -0.622049
vn -0.706010 0.338534 -0.622049
vn -0.676470 -0.447313 -0.585064
vn -0.676470 -0.447313 -0.585064
vn -0.676470 -0.447312 -0.585064
vn -0.162553 -0.658298 -0.734997
vn -0.162553 -0.658298 -0.734997
vn -0.162553 -0.658298 -0.734997
vn 0.345669 -0.015982 -0.938221
vn 0.345669 -0.015982 -0.938221
vn 0.345669 -0.015982 -0.938221
vn 0.227714 0.930127 -0.288115
vn 0.227714 0.930127 -0.288115
vn 0.227714 0.930127 -0.288115
vn -0.819047 0.572132 0.042739
vn -0.819047 0.572132 0.042739
vn -0.819047 0.572132 0.042739
vn -0.760929 -0.646144 -0.059034
vn -0.760929 -0.646144 -0.059034
vn -0.760929 -0.646144 -0.059034
vn 0.079432 -0.993480 -0.081778
vn 0.079432 -0.993480 -0.081778
vn 0.079432 -0.993480 -0.081778
vn 0.883507 -0.002860 -0.468410
vn 0.883507 -0.002860 -0.468410
vn 0.883507 -0.002860 -0.468410
vn 0.810234 0.582284 -0.066838
vn 0.810234 0.582284 -0.066838
vn 0.810234 0.582284 -0.066838
vn -0.241974 0.937756 0.249121
vn -0.241974 0.937756 0.249121
vn -0.241974 0.937756 0.249121
vn -0.883404 0.002833 0.468603
vn -0.883404 0.002833 0.468603
vn -0.883404 0.002833 0.468603
vn -0.075297 -0.992600 0.095269
vn -0.075297 -0.992600 0.095269
vn -0.075297 -0.992600 0.095269
vn 0.776982 -0.625973 0.066759
vn 0.776982 -0.625973 0.066759
vn 0.776982 -0.625973 0.066759
vn 0.700562 0.374934 0.607155
vn 0.700562 0.374934 0.607155
vn 0.700562 0.374934 0.607155
vn 0.050262 0.594628 0.802429
vn 0.050262 0.594628 0.802429
vn 0.050262 0.594628 0.802429
vn -0.346808 0.015788 0.937803
vn -0.346808 0.015788 0.937803
vn -0.346808 0.015788 0.937803
vn 0.167520 -0.613482 0.771736
vn 0.167520 -0.613482 0.771736
vn 0.167520 -0.613482 0.771736
vn 0.687668 -0.398529 0.606866
vn 0.687668 -0.398529 0.606866
vn 0.687668 -0.398529 0.606866
vn -0.059075 0.559788 -0.826528
vn -0.059075 0.559788 -0.826528
vn -0.059075 0.559788 -0.826528
vn -0.706010 0.338534 -0.622049
vn -0.706010 0.338534 -0.622049
vn -0.706010 0.338534 -0.622049
vn -0.710821 -0.338357 -0.616643
vn -0.710821 -0.338357 -0.616643
vn -0.710821 -0.338357 -0.616643
vn -0.204730 -0.527432 -0.824561
vn -0.204730 -0.527432 -0.824561
vn -0.204730 -0.527432 -0.824561
vn 0.343966 -0.012915 -0.938893
vn 0.343966 -0.012915 -0.938893
vn 0.343966 -0.012915 -0.938893
vn 0.227714 0.930127 -0.288115
vn 0.227714 0.930127 -0.288115
vn 0.227714 0.930127 -0.288115
vn -0.819047 0.572132 0.042739
vn -0.819047 0.572132 0.042739
vn -0.819047 0.572132 0.042739
vn -0.851365 -0.517060 -0.088466
vn -0.851365 -0.517060 -0.088466
vn -0.851365 -0.517060 -0.088466
vn 0.079432 -0.993480 -0.081778
vn 0.079432 -0.993480 -0.081778
vn 0.079432 -0.993480 -0.081778
vn 0.883651 -0.002303 -0.468140
vn 0.883651 -0.002303 -0.468140
vn 0.883651 -0.002303 -0.468140
vn 0.810234 0.582284 -0.066838
vn 0.810234 0.582284 -0.066838
vn 0.810234 0.582284 -0.066838
vn -0.241974 0.937756 0.249122
vn -0.241974 0.937756 0.249122
vn -0.241974 0.937756 0.249122
vn -0.883253 0.002296 0.468892
vn -0.883253 0.002296 0.468892
vn -0.883253 0.002296 0.468892
vn -0.075297 -0.992600 0.095269
vn -0.075297 -0.992600 0.095269
vn -0.075297 -0.992600 0.095269
vn 0.861435 -0.499361 0.092570
vn 0.861435 -0.499361 0.092570
vn 0.861434 -0.499361 0.092570
vn 0.700562 0.374934 0.607155
vn 0.700562 0.374934 0.607155
vn 0.700562 0.374934 0.607155
vn 0.050262 0.594628 0.802428
vn 0.050262 0.594628 0.802428
vn 0.050262 0.594628 0.802428
vn -0.348415 0.012748 0.937254
vn -0.348415 0.012748 0.937254
vn -0.348415 0.012748 0.937254
vn 0.203543 -0.488891 0.848266
vn 0.203543 -0.488891 0.848266
vn 0.203543 -0.488891 0.848266
vn 0.715790 -0.301095 0.630068
vn 0.715790 -0.301095 0.630068
vn 0.715790 -0.301095 0.630068
usemtl phong21SG
f 1/1/1 3/13/2 2/2/3
f 1/1/4 4/14/5 3/13/6
f 1/1/7 5/15/8 4/14/9
f 1/1/10 6/6/11 5/15/12
f 1/1/13 2/2/14 6/6/15
f 2/2/16 3/13/17 8/8/18
f 3/3/19 4/4/20 9/9/21
f 4/4/22 5/5/23 10/10/24
f 5/15/25 6/6/26 11/11/27
f 6/6/28 2/2/29 7/7/30
f 2/2/31 8/8/32 7/7/33
f 3/3/34 9/9/35 8/8/36
f 4/4/37 10/10/38 9/9/39
f 5/5/40 11/11/41 10/10/42
f 6/6/43 7/7/44 11/11/45
f 7/7/46 8/8/47 12/12/48
f 8/8/49 9/9/50 12/12/51
f 9/9/52 10/10/53 12/12/54
f 10/10/55 11/11/56 12/12/57
f 11/11/58 7/7/59 12/12/60
f 13/16/61 15/17/62 14/18/63
f 13/16/64 16/19/65 15/17/66
f 13/16/67 17/20/68 16/19/69
f 13/16/70 18/21/71 17/20/72
f 13/16/73 14/18/74 18/21/75
f 14/18/76 15/17/77 20/22/78
f 15/23/79 16/24/80 21/25/81
f 16/24/82 17/26/83 22/27/84
f 17/20/85 18/21/86 23/28/87
f 18/21/88 14/18/89 19/29/90
f 14/18/91 20/22/92 19/29/93
f 15/23/94 21/25/95 20/22/96
f 16/24/97 22/27/98 21/25/99
f 17/26/100 23/28/101 22/27/102
f 18/21/103 19/29/104 23/28/105
f 19/29/106 20/22/107 24/30/108
f 20/22/109 21/25/110 24/30/111
f 21/25/112 22/27/113 24/30/114
f 22/27/115 23/28/116 24/30/117
f 23/28/118 19/29/119 24/30/120
f 25/31/121 27/32/122 26/33/123
f 25/31/124 28/34/125 27/32/126
f 25/31/127 29/35/128 28/34/129
f 25/31/130 30/36/131 29/35/132
f 25/31/133 26/33/134 30/36/135
f 26/33/136 27/32/137 32/37/138
f 27/38/139 28/39/140 33/40/141
f 28/39/142 29/41/143 34/42/144
f 29/35/145 30/36/146 35/43/147
f 30/36/148 26/33/149 31/44/150
f 26/33/151 32/37/152 31/44/153
f 27/38/154 33/40/155 32/37/156
f 28/39/157 34/42/158 33/40/159
f 29/41/160 35/43/161 34/42/162
f 30/36/163 31/44/164 35/43/165
f 31/44/166 32/37/167 36/45/168
f 32/37/169 33/40/170 36/45/171
f 33/40/172 34/42/173 36/45/174
f 34/42/175 35/43/176 36/45/177
f 35/43/178 31/44/179 36/45/180
