# This file uses centimeters as units for non-parametric coordinates.

mtllib cloud3.mtl
v 0.000000 0.000000 -4.000000
v 2.894427 2.102924 -1.788854
v -1.105573 3.402604 -1.788855
v -3.577709 -0.000000 -1.788855
v -1.105573 -2.867995 -1.788854
v 2.894427 -2.637533 -1.788854
v 3.577709 0.000000 1.788855
v 1.105573 3.402603 1.788854
v -2.894428 2.102924 1.788855
v -2.894427 -2.637533 1.788854
v 1.105573 -2.867995 1.788854
v 0.000000 0.000000 4.000000
vt 1.000000 0.500000
vt 0.838104 0.676208
vt 0.088104 0.823792
vt 0.176208 0.500000
vt 0.088104 0.176208
vt 0.838104 0.323792
vt 0.676208 0.500000
vt 0.588104 0.823792
vt 0.338104 0.676208
vt 0.338104 0.323792
vt 0.588104 0.176208
vt 0.500000 0.500000
vt 1.088104 0.823792
vt 1.176208 0.500000
vt 1.088104 0.176208
vn 0.187593 0.577350 -0.794654
vn 0.187593 0.577350 -0.794655
vn 0.187593 0.577350 -0.794654
vn -0.491124 0.356822 -0.794655
vn -0.491123 0.356822 -0.794654
vn -0.491124 0.356822 -0.794655
vn -0.478856 -0.412762 -0.774806
vn -0.478856 -0.412762 -0.774806
vn -0.478856 -0.412762 -0.774806
vn 0.035651 -0.618772 -0.784761
vn 0.035651 -0.618772 -0.784761
vn 0.035651 -0.618772 -0.784761
vn 0.607062 -0.000000 -0.794654
vn 0.607062 -0.000000 -0.794654
vn 0.607062 -0.000000 -0.794654
vn 0.303531 0.934172 -0.187593
vn 0.303531 0.934172 -0.187593
vn 0.303531 0.934172 -0.187593
vn -0.794655 0.577350 -0.187592
vn -0.794655 0.577350 -0.187592
vn -0.794655 0.577350 -0.187592
vn -0.717855 -0.618772 -0.319069
vn -0.717855 -0.618772 -0.319069
vn -0.717855 -0.618772 -0.319069
vn 0.057484 -0.997714 -0.035527
vn 0.057484 -0.997714 -0.035527
vn 0.057484 -0.997714 -0.035527
vn 0.982247 0.000000 -0.187593
vn 0.982247 0.000000 -0.187593
vn 0.982247 0.000000 -0.187593
vn 0.794655 0.577350 0.187592
vn 0.794654 0.577350 0.187592
vn 0.794655 0.577350 0.187592
vn -0.303531 0.934172 0.187593
vn -0.303531 0.934172 0.187593
vn -0.303531 0.934172 0.187593
vn -0.982247 0.000000 0.187593
vn -0.982247 0.000000 0.187593
vn -0.982247 0.000000 0.187593
vn -0.057484 -0.997714 0.035527
vn -0.057484 -0.997714 0.035527
vn -0.057484 -0.997714 0.035527
vn 0.717855 -0.618772 0.319069
vn 0.717855 -0.618772 0.319069
vn 0.717855 -0.618772 0.319069
vn 0.491123 0.356822 0.794654
vn 0.491123 0.356822 0.794654
vn 0.491123 0.356822 0.794655
vn -0.187592 0.577350 0.794654
vn -0.187593 0.577350 0.794654
vn -0.187593 0.577350 0.794654
vn -0.607062 -0.000000 0.794655
vn -0.607062 -0.000000 0.794654
vn -0.607062 -0.000000 0.794655
vn -0.035651 -0.618772 0.784761
vn -0.035651 -0.618772 0.784761
vn -0.035651 -0.618772 0.784761
vn 0.478856 -0.412762 0.774806
vn 0.478856 -0.412762 0.774806
vn 0.478856 -0.412762 0.774806
usemtl phong21SG
f 1/1/1 3/13/2 2/2/3
f 1/1/4 4/14/5 3/13/6
f 1/1/7 5/15/8 4/14/9
f 1/1/10 6/6/11 5/15/12
f 1/1/13 2/2/14 6/6/15
f 2/2/16 3/13/17 8/8/18
f 3/3/19 4/4/20 9/9/21
f 4/4/22 5/5/23 10/10/24
f 5/15/25 6/6/26 11/11/27
f 6/6/28 2/2/29 7/7/30
f 2/2/31 8/8/32 7/7/33
f 3/3/34 9/9/35 8/8/36
f 4/4/37 10/10/38 9/9/39
f 5/5/40 11/11/41 10/10/42
f 6/6/43 7/7/44 11/11/45
f 7/7/46 8/8/47 12/12/48
f 8/8/49 9/9/50 12/12/51
f 9/9/52 10/10/53 12/12/54
f 10/10/55 11/11/56 12/12/57
f 11/11/58 7/7/59 12/12/60
