# This file uses centimeters as units for non-parametric coordinates.

mtllib red_mushroom.mtl
v 0.214011 0.434160 -0.217032
v -0.003021 0.434160 -0.306929
v -0.220052 0.434160 -0.217032
v -0.309950 0.434160 0.000000
v -0.220052 0.434160 0.217032
v -0.003021 0.434160 0.306929
v 0.214011 0.434160 0.217032
v 0.303909 0.434160 0.000000
v 0.181100 0.655775 -0.171438
v 0.005948 0.646585 -0.251838
v -0.174458 0.633348 -0.184715
v -0.254439 0.623819 -0.009389
v -0.187142 0.623578 0.171438
v -0.011989 0.632768 0.251838
v 0.168417 0.646005 0.184715
v 0.248397 0.655535 0.009389
v -0.003021 0.395868 0.000000
v -0.003021 0.711680 0.000000
v -0.250977 0.532304 -0.247956
v -0.353683 0.536038 0.000000
v -0.250977 0.527523 0.247956
v -0.003021 0.519636 0.350663
v 0.244935 0.513054 0.247956
v 0.347642 0.515099 0.000000
v 0.244935 0.527371 -0.247956
v -0.003021 0.515032 -0.350663
v 0.035099 -0.022541 -0.066025
v -0.041141 -0.022541 -0.066026
v -0.079260 -0.022541 -0.000000
v -0.041141 -0.022541 0.066026
v 0.035099 -0.022541 0.066026
v 0.073219 -0.022541 -0.000000
v 0.059231 0.413913 -0.107823
v -0.065272 0.413913 -0.107823
v -0.127524 0.413913 -0.000000
v -0.065272 0.413913 0.107823
v 0.059231 0.413913 0.107823
v 0.121482 0.413913 0.000000
v -0.003021 -0.022541 -0.000000
v -0.003021 0.413913 0.000000
v -0.065272 0.114617 0.107823
v 0.059231 0.115291 0.107823
v 0.121482 0.110615 0.000000
v 0.059231 0.106188 -0.107823
v -0.065272 0.091628 -0.107823
v -0.127524 0.062525 -0.000000
v -0.071025 0.275181 0.117786
v -0.139029 0.262153 -0.000000
v -0.071025 0.269431 -0.117786
v 0.064983 0.273073 -0.117786
v 0.132987 0.274180 0.000000
v 0.064983 0.275349 0.117786
vt 0.610485 0.045765
vt 0.500000 0.000000
vt 0.389515 0.045765
vt 0.343750 0.156250
vt 0.389515 0.266735
vt 0.500000 0.312500
vt 0.610485 0.266735
vt 0.656250 0.156250
vt 0.375000 0.312500
vt 0.406250 0.312500
vt 0.437500 0.312500
vt 0.468750 0.312500
vt 0.500000 0.312500
vt 0.531250 0.312500
vt 0.562500 0.312500
vt 0.593750 0.312500
vt 0.625000 0.312500
vt 0.375000 0.688440
vt 0.406250 0.688440
vt 0.437500 0.688440
vt 0.468750 0.688440
vt 0.500000 0.688440
vt 0.531250 0.688440
vt 0.562500 0.688440
vt 0.593750 0.688440
vt 0.625000 0.688440
vt 0.610485 0.733265
vt 0.500000 0.687500
vt 0.389515 0.733265
vt 0.343750 0.843750
vt 0.389515 0.954235
vt 0.500000 1.000000
vt 0.610485 0.954235
vt 0.656250 0.843750
vt 0.500000 0.150000
vt 0.500000 0.837500
vt 0.437500 0.500261
vt 0.468750 0.505628
vt 0.500000 0.493390
vt 0.531250 0.482053
vt 0.562500 0.472594
vt 0.593750 0.475533
vt 0.625000 0.493171
vt 0.375000 0.493171
vt 0.406250 0.475437
vt 0.375000 0.493899
vt 0.416667 0.483388
vt 0.416667 0.641495
vt 0.375000 0.643902
vt 0.458333 0.462380
vt 0.458333 0.636686
vt 0.500000 0.499983
vt 0.500000 0.645295
vt 0.541667 0.500470
vt 0.541667 0.645406
vt 0.583333 0.497095
vt 0.583333 0.644633
vt 0.625000 0.493899
vt 0.625000 0.643902
vt 0.421875 0.020934
vt 0.578125 0.020934
vt 0.500000 0.150000
vt 0.343750 0.156250
vt 0.421875 0.291566
vt 0.578125 0.291566
vt 0.656250 0.156250
vt 0.578125 0.979066
vt 0.421875 0.979066
vt 0.500000 0.837500
vt 0.343750 0.843750
vt 0.421875 0.708434
vt 0.578125 0.708434
vt 0.656250 0.843750
vt 0.500000 0.312500
vt 0.541667 0.312500
vt 0.583333 0.312500
vt 0.625000 0.312500
vt 0.375000 0.312500
vt 0.416667 0.312500
vt 0.458333 0.312500
vt 0.500000 0.688440
vt 0.458333 0.688440
vt 0.416667 0.688440
vt 0.375000 0.688440
vt 0.625000 0.688440
vt 0.583333 0.688440
vt 0.541667 0.688440
vn 0.359960 0.206543 -0.909818
vn 0.297257 0.570990 -0.765250
vn 0.376175 0.191596 -0.906523
vn 0.309114 0.595533 -0.741477
vn -0.348329 0.248823 -0.903744
vn -0.380481 0.170707 -0.908897
vn -0.279685 0.603413 -0.746773
vn -0.304004 0.660122 -0.686892
vn -0.886091 0.274984 -0.373131
vn -0.914518 0.150380 -0.375557
vn -0.665790 0.690754 -0.282103
vn -0.653486 0.711083 -0.259457
vn -0.897115 0.218205 0.384151
vn -0.659745 0.694912 0.286065
vn -0.909130 0.196488 0.367254
vn -0.631206 0.738873 0.235893
vn -0.363602 0.218684 0.905522
vn -0.293201 0.639579 0.710614
vn -0.392720 0.199496 0.897760
vn -0.323555 0.711719 0.623513
vn 0.381596 0.215435 0.898873
vn 0.306204 0.577952 0.756446
vn 0.354633 0.196811 0.914057
vn 0.222147 0.651368 0.725514
vn 0.887544 0.273286 0.370918
vn 0.903874 0.167849 0.393495
vn 0.755527 0.563923 0.333422
vn 0.767692 0.517227 0.378319
vn 0.900831 0.250174 -0.354846
vn 0.914036 0.169246 -0.368639
vn 0.773253 0.563390 -0.290984
vn 0.777598 0.558589 -0.288652
vn 0.000000 -0.992308 -0.123797
vn 0.087538 -0.992308 -0.087538
vn -0.000000 -1.000000 0.000000
vn -0.087538 -0.992308 -0.087538
vn -0.123797 -0.992308 0.000000
vn -0.087538 -0.992308 0.087538
vn -0.000000 -0.992308 0.123797
vn 0.087538 -0.992308 0.087538
vn 0.123797 -0.992308 0.000000
vn 0.141790 0.975887 -0.165952
vn -0.053214 0.966348 -0.251676
vn -0.061344 0.997826 0.024103
vn -0.247763 0.953031 -0.174196
vn -0.330357 0.943740 0.014813
vn -0.258755 0.943509 0.206970
vn -0.072738 0.952459 0.295856
vn 0.124977 0.965754 0.227377
vn 0.216558 0.975635 0.035211
vn -0.854315 -0.380687 -0.353869
vn -0.859245 -0.371696 -0.351483
vn -0.847886 -0.397169 0.351206
vn -0.859896 -0.375430 0.345877
vn -0.345977 -0.427360 0.835262
vn -0.358977 -0.403950 0.841403
vn 0.340613 -0.455835 0.822312
vn 0.336730 -0.433485 0.835885
vn 0.822312 -0.455835 0.340613
vn 0.826744 -0.448675 0.339389
vn 0.826608 -0.446639 -0.342393
vn 0.837487 -0.408034 -0.363488
vn 0.342336 -0.446934 -0.826472
vn 0.363559 -0.408086 -0.837431
vn -0.342336 -0.446934 -0.826472
vn -0.370841 -0.394227 -0.840870
vn 0.009972 -0.138978 -0.990245
vn 0.011253 -0.156507 -0.987613
vn 0.001817 -0.001251 -0.999998
vn 0.001730 0.000973 -0.999998
vn -0.849800 -0.126857 -0.511613
vn -0.842056 -0.164938 -0.513553
vn -0.864280 -0.002217 -0.503006
vn -0.864441 0.001921 -0.502730
vn -0.827716 -0.180056 0.531475
vn -0.844628 -0.117371 0.522329
vn -0.863203 0.003721 0.504843
vn -0.862663 -0.003950 0.505764
vn 0.000497 -0.149396 0.988777
vn 0.000494 -0.148656 0.988889
vn 0.000086 -0.000066 1.000000
vn 0.000086 -0.000175 1.000000
vn 0.855019 -0.146272 0.497541
vn 0.854279 -0.151476 0.497255
vn 0.865725 -0.000499 0.500520
vn 0.865730 0.000251 0.500512
vn 0.858341 -0.145952 -0.491883
vn 0.857738 -0.151022 -0.491405
vn 0.866305 -0.000480 -0.499515
vn 0.866301 0.000219 -0.499522
vn 0.000000 -1.000000 0.000000
vn 0.000000 -1.000000 -0.000000
vn 0.000000 -1.000000 0.000000
vn 0.000000 -1.000000 0.000000
vn 0.000000 -1.000000 -0.000000
vn 0.000000 -1.000000 -0.000000
vn 0.000000 -1.000000 0.000000
vn 0.000000 1.000000 -0.000000
vn 0.000000 1.000000 0.000000
vn 0.000000 1.000000 -0.000000
vn 0.000000 1.000000 0.000000
vn 0.000000 1.000000 0.000000
vn 0.000000 1.000000 0.000000
vn 0.000000 1.000000 -0.000000
vn 0.000976 -0.290849 0.956768
vn 0.000976 -0.290849 0.956768
vn 0.824093 -0.294767 0.483718
vn 0.824093 -0.294767 0.483718
vn 0.828349 -0.304080 -0.470504
vn 0.828349 -0.304080 -0.470503
vn 0.023597 -0.325332 -0.945305
vn 0.023597 -0.325332 -0.945305
vn -0.769326 -0.386294 -0.508837
vn -0.769326 -0.386294 -0.508837
vn -0.761717 -0.350624 0.544839
vn -0.761717 -0.350624 0.544839
vn -0.865701 0.068436 0.495861
vn -0.865701 0.068436 0.495861
vn -0.865009 0.067114 -0.497248
vn -0.865009 0.067114 -0.497248
vn -0.000974 0.069671 -0.997570
vn -0.000974 0.069671 -0.997570
vn 0.863699 0.070844 -0.499004
vn 0.863699 0.070844 -0.499004
vn 0.863974 0.071421 0.498445
vn 0.863974 0.071421 0.498445
vn -0.000046 0.071677 0.997428
vn -0.000046 0.071677 0.997428
usemtl pasted__phong1SG1
f 26/45/1 10/19/2 25/44/3
f 25/44/3 10/19/2 9/18/4
f 26/45/5 19/37/6 10/19/7
f 10/19/7 19/37/6 11/20/8
f 19/37/9 20/38/10 11/20/11
f 11/20/11 20/38/10 12/21/12
f 21/39/13 13/22/14 20/38/15
f 20/38/15 13/22/14 12/21/16
f 22/40/17 14/23/18 21/39/19
f 21/39/19 14/23/18 13/22/20
f 23/41/21 15/24/22 22/40/23
f 22/40/23 15/24/22 14/23/24
f 23/41/25 24/42/26 15/24/27
f 15/24/27 24/42/26 16/25/28
f 24/42/29 25/43/30 16/25/31
f 16/25/31 25/43/30 9/26/32
f 2/2/33 1/1/34 17/35/35
f 3/3/36 2/2/33 17/35/35
f 4/4/37 3/3/36 17/35/35
f 5/5/38 4/4/37 17/35/35
f 6/6/39 5/5/38 17/35/35
f 7/7/40 6/6/39 17/35/35
f 8/8/41 7/7/40 17/35/35
f 1/1/34 8/8/41 17/35/35
f 9/33/42 10/32/43 18/36/44
f 10/32/43 11/31/45 18/36/44
f 11/31/45 12/30/46 18/36/44
f 12/30/46 13/29/47 18/36/44
f 13/29/47 14/28/48 18/36/44
f 14/28/48 15/27/49 18/36/44
f 15/27/49 16/34/50 18/36/44
f 16/34/50 9/33/42 18/36/44
f 3/11/51 4/12/52 19/37/9
f 19/37/9 4/12/52 20/38/10
f 5/13/53 21/39/13 4/12/54
f 4/12/54 21/39/13 20/38/15
f 6/14/55 22/40/17 5/13/56
f 5/13/56 22/40/17 21/39/19
f 7/15/57 23/41/21 6/14/58
f 6/14/58 23/41/21 22/40/23
f 7/15/59 8/16/60 23/41/25
f 23/41/25 8/16/60 24/42/26
f 8/16/61 1/17/62 24/42/29
f 24/42/29 1/17/62 25/43/30
f 2/10/63 26/45/1 1/9/64
f 1/9/64 26/45/1 25/44/3
f 2/10/65 3/11/66 26/45/5
f 26/45/5 3/11/66 19/37/6
usemtl pasted__phong2SG3
f 44/46/67 45/47/68 49/48/69 50/49/70
f 45/47/71 46/50/72 48/51/73 49/48/74
f 46/50/75 41/52/76 47/53/77 48/51/78
f 41/52/79 42/54/80 52/55/81 47/53/82
f 42/54/83 43/56/84 51/57/85 52/55/86
f 43/56/87 44/58/88 50/59/89 51/57/90
f 28/60/91 27/61/92 39/62/93
f 29/63/94 28/60/91 39/62/93
f 30/64/95 29/63/94 39/62/93
f 31/65/96 30/64/95 39/62/93
f 32/66/97 31/65/96 39/62/93
f 27/61/92 32/66/97 39/62/93
f 33/67/98 34/68/99 40/69/100
f 34/68/99 35/70/101 40/69/100
f 35/70/101 36/71/102 40/69/100
f 36/71/102 37/72/103 40/69/100
f 37/72/103 38/73/104 40/69/100
f 38/73/104 33/67/98 40/69/100
f 30/74/105 31/75/106 42/54/80 41/52/79
f 31/75/107 32/76/108 43/56/84 42/54/83
f 32/76/109 27/77/110 44/58/88 43/56/87
f 27/78/111 28/79/112 45/47/68 44/46/67
f 28/79/113 29/80/114 46/50/72 45/47/71
f 29/80/115 30/74/116 41/52/76 46/50/75
f 48/51/78 47/53/77 36/81/117 35/82/118
f 49/48/74 48/51/73 35/82/119 34/83/120
f 50/49/70 49/48/69 34/83/121 33/84/122
f 51/57/90 50/59/89 33/85/123 38/86/124
f 52/55/86 51/57/85 38/86/125 37/87/126
f 47/53/82 52/55/81 37/87/127 36/81/128
