# This file uses centimeters as units for non-parametric coordinates.

mtllib red_mushroom.mtl
v 0.035099 -0.022541 -0.066025
v -0.041141 -0.022541 -0.066026
v -0.079260 -0.022541 -0.000000
v -0.041141 -0.022541 0.066026
v 0.035099 -0.022541 0.066026
v 0.073219 -0.022541 -0.000000
v 0.059231 0.413913 -0.107823
v -0.065272 0.413913 -0.107823
v -0.127524 0.413913 -0.000000
v -0.065272 0.413913 0.107823
v 0.059231 0.413913 0.107823
v 0.121482 0.413913 0.000000
v -0.003021 -0.022541 -0.000000
v -0.003021 0.413913 0.000000
v -0.065272 0.114617 0.107823
v 0.059231 0.115291 0.107823
v 0.121482 0.110615 0.000000
v 0.059231 0.106188 -0.107823
v -0.065272 0.091628 -0.107823
v -0.127524 0.062525 -0.000000
v -0.071025 0.275181 0.117786
v -0.139029 0.262153 -0.000000
v -0.071025 0.269431 -0.117786
v 0.064983 0.273073 -0.117786
v 0.132987 0.274180 0.000000
v 0.064983 0.275349 0.117786
v 0.214011 0.434160 -0.217032
v -0.003021 0.434160 -0.306929
v -0.220052 0.434160 -0.217032
v -0.309950 0.434160 0.000000
v -0.220052 0.434160 0.217032
v -0.003021 0.434160 0.306929
v 0.214011 0.434160 0.217032
v 0.303909 0.434160 0.000000
v 0.181100 0.655775 -0.171438
v 0.005948 0.646585 -0.251838
v -0.174458 0.633348 -0.184715
v -0.254439 0.623819 -0.009389
v -0.187142 0.623578 0.171438
v -0.011989 0.632768 0.251838
v 0.168417 0.646005 0.184715
v 0.248397 0.655535 0.009389
v -0.003021 0.395868 0.000000
v -0.003021 0.711680 0.000000
v -0.250977 0.532304 -0.247956
v -0.353683 0.536038 0.000000
v -0.250977 0.527523 0.247956
v -0.003021 0.519636 0.350663
v 0.244935 0.513054 0.247956
v 0.347642 0.515099 0.000000
v 0.244935 0.527371 -0.247956
v -0.003021 0.515032 -0.350663
vt 0.578125 0.020934
vt 0.421875 0.020934
vt 0.343750 0.156250
vt 0.421875 0.291566
vt 0.578125 0.291566
vt 0.656250 0.156250
vt 0.375000 0.312500
vt 0.416667 0.312500
vt 0.458333 0.312500
vt 0.500000 0.312500
vt 0.541667 0.312500
vt 0.583333 0.312500
vt 0.625000 0.312500
vt 0.375000 0.688440
vt 0.416667 0.688440
vt 0.458333 0.688440
vt 0.500000 0.688440
vt 0.541667 0.688440
vt 0.583333 0.688440
vt 0.625000 0.688440
vt 0.578125 0.708434
vt 0.421875 0.708434
vt 0.343750 0.843750
vt 0.421875 0.979066
vt 0.578125 0.979066
vt 0.656250 0.843750
vt 0.500000 0.150000
vt 0.500000 0.837500
vt 0.500000 0.499983
vt 0.541667 0.500470
vt 0.583333 0.497095
vt 0.625000 0.493899
vt 0.375000 0.493899
vt 0.416667 0.483388
vt 0.458333 0.462380
vt 0.500000 0.645295
vt 0.458333 0.636686
vt 0.416667 0.641495
vt 0.625000 0.643902
vt 0.375000 0.643902
vt 0.583333 0.644633
vt 0.541667 0.645406
vt 0.406250 0.475437
vt 0.406250 0.688440
vt 0.375000 0.493171
vt 0.375000 0.688440
vt 0.437500 0.500261
vt 0.437500 0.688440
vt 0.468750 0.505628
vt 0.468750 0.688440
vt 0.500000 0.493390
vt 0.500000 0.688440
vt 0.531250 0.482053
vt 0.531250 0.688440
vt 0.562500 0.472594
vt 0.562500 0.688440
vt 0.593750 0.475533
vt 0.593750 0.688440
vt 0.625000 0.493171
vt 0.625000 0.688440
vt 0.500000 0.000000
vt 0.610485 0.045765
vt 0.500000 0.150000
vt 0.389515 0.045765
vt 0.343750 0.156250
vt 0.389515 0.266735
vt 0.500000 0.312500
vt 0.610485 0.266735
vt 0.656250 0.156250
vt 0.610485 0.954235
vt 0.500000 1.000000
vt 0.500000 0.837500
vt 0.389515 0.954235
vt 0.343750 0.843750
vt 0.389515 0.733265
vt 0.500000 0.687500
vt 0.610485 0.733265
vt 0.656250 0.843750
vt 0.437500 0.312500
vt 0.468750 0.312500
vt 0.500000 0.312500
vt 0.531250 0.312500
vt 0.562500 0.312500
vt 0.593750 0.312500
vt 0.625000 0.312500
vt 0.406250 0.312500
vt 0.375000 0.312500
vn 0.009972 -0.138978 -0.990245
vn 0.011253 -0.156507 -0.987613
vn 0.001817 -0.001251 -0.999998
vn 0.001730 0.000973 -0.999998
vn -0.849800 -0.126857 -0.511613
vn -0.842056 -0.164938 -0.513553
vn -0.864280 -0.002217 -0.503006
vn -0.864441 0.001921 -0.502730
vn -0.827716 -0.180056 0.531475
vn -0.844628 -0.117371 0.522329
vn -0.863203 0.003721 0.504843
vn -0.862663 -0.003950 0.505764
vn 0.000497 -0.149396 0.988777
vn 0.000494 -0.148656 0.988889
vn 0.000086 -0.000066 1.000000
vn 0.000086 -0.000175 1.000000
vn 0.855019 -0.146272 0.497541
vn 0.854279 -0.151476 0.497255
vn 0.865725 -0.000499 0.500520
vn 0.865730 0.000251 0.500512
vn 0.858341 -0.145952 -0.491883
vn 0.857738 -0.151022 -0.491405
vn 0.866305 -0.000480 -0.499515
vn 0.866301 0.000219 -0.499522
vn 0.000000 -1.000000 0.000000
vn 0.000000 -1.000000 -0.000000
vn 0.000000 -1.000000 0.000000
vn 0.000000 -1.000000 0.000000
vn 0.000000 -1.000000 -0.000000
vn 0.000000 -1.000000 -0.000000
vn 0.000000 -1.000000 0.000000
vn 0.000000 1.000000 -0.000000
vn 0.000000 1.000000 0.000000
vn 0.000000 1.000000 -0.000000
vn 0.000000 1.000000 0.000000
vn 0.000000 1.000000 0.000000
vn 0.000000 1.000000 0.000000
vn 0.000000 1.000000 -0.000000
vn 0.000976 -0.290849 0.956768
vn 0.000976 -0.290849 0.956768
vn 0.824093 -0.294767 0.483718
vn 0.824093 -0.294767 0.483718
vn 0.828349 -0.304080 -0.470504
vn 0.828349 -0.304080 -0.470503
vn 0.023597 -0.325332 -0.945305
vn 0.023597 -0.325332 -0.945305
vn -0.769326 -0.386294 -0.508837
vn -0.769326 -0.386294 -0.508837
vn -0.761717 -0.350624 0.544839
vn -0.761717 -0.350624 0.544839
vn -0.865701 0.068436 0.495861
vn -0.865701 0.068436 0.495861
vn -0.865009 0.067114 -0.497248
vn -0.865009 0.067114 -0.497248
vn -0.000974 0.069671 -0.997570
vn -0.000974 0.069671 -0.997570
vn 0.863699 0.070844 -0.499004
vn 0.863699 0.070844 -0.499004
vn 0.863974 0.071421 0.498445
vn 0.863974 0.071421 0.498445
vn -0.000046 0.071677 0.997428
vn -0.000046 0.071677 0.997428
vn 0.359960 0.206543 -0.909818
vn 0.297257 0.570990 -0.765250
vn 0.376175 0.191596 -0.906523
vn 0.309114 0.595533 -0.741477
vn -0.348329 0.248823 -0.903744
vn -0.380481 0.170707 -0.908897
vn -0.279685 0.603413 -0.746773
vn -0.304004 0.660122 -0.686892
vn -0.886091 0.274984 -0.373131
vn -0.914518 0.150380 -0.375557
vn -0.665790 0.690754 -0.282103
vn -0.653486 0.711083 -0.259457
vn -0.897115 0.218205 0.384151
vn -0.659745 0.694912 0.286065
vn -0.909130 0.196488 0.367254
vn -0.631206 0.738873 0.235893
vn -0.363602 0.218684 0.905522
vn -0.293201 0.639579 0.710614
vn -0.392720 0.199496 0.897760
vn -0.323555 0.711719 0.623513
vn 0.381596 0.215435 0.898873
vn 0.306204 0.577952 0.756446
vn 0.354633 0.196811 0.914057
vn 0.222147 0.651368 0.725514
vn 0.887544 0.273286 0.370918
vn 0.903874 0.167849 0.393495
vn 0.755527 0.563923 0.333422
vn 0.767692 0.517227 0.378319
vn 0.900831 0.250174 -0.354846
vn 0.914036 0.169246 -0.368639
vn 0.773253 0.563390 -0.290984
vn 0.777598 0.558589 -0.288652
vn 0.000000 -0.992308 -0.123797
vn 0.087538 -0.992308 -0.087538
vn -0.000000 -1.000000 0.000000
vn -0.087538 -0.992308 -0.087538
vn -0.123797 -0.992308 0.000000
vn -0.087538 -0.992308 0.087538
vn -0.000000 -0.992308 0.123797
vn 0.087538 -0.992308 0.087538
vn 0.123797 -0.992308 0.000000
vn 0.141790 0.975887 -0.165952
vn -0.053214 0.966348 -0.251676
vn -0.061344 0.997826 0.024103
vn -0.247763 0.953031 -0.174196
vn -0.330357 0.943740 0.014813
vn -0.258755 0.943509 0.206970
vn -0.072738 0.952459 0.295856
vn 0.124977 0.965754 0.227377
vn 0.216558 0.975635 0.035211
vn -0.854315 -0.380687 -0.353869
vn -0.859245 -0.371696 -0.351483
vn -0.847886 -0.397169 0.351206
vn -0.859896 -0.375430 0.345877
vn -0.345977 -0.427360 0.835262
vn -0.358977 -0.403950 0.841403
vn 0.340613 -0.455835 0.822312
vn 0.336730 -0.433485 0.835885
vn 0.822312 -0.455835 0.340613
vn 0.826744 -0.448675 0.339389
vn 0.826608 -0.446639 -0.342393
vn 0.837487 -0.408034 -0.363488
vn 0.342336 -0.446934 -0.826472
vn 0.363559 -0.408086 -0.837431
vn -0.342336 -0.446934 -0.826472
vn -0.370841 -0.394227 -0.840870
usemtl pasted__phong2SG3
f 18/33/1 19/34/2 23/38/3 24/40/4
f 19/34/5 20/35/6 22/37/7 23/38/8
f 20/35/9 15/29/10 21/36/11 22/37/12
f 15/29/13 16/30/14 26/42/15 21/36/16
f 16/30/17 17/31/18 25/41/19 26/42/20
f 17/31/21 18/32/22 24/39/23 25/41/24
f 2/2/25 1/1/26 13/27/27
f 3/3/28 2/2/25 13/27/27
f 4/4/29 3/3/28 13/27/27
f 5/5/30 4/4/29 13/27/27
f 6/6/31 5/5/30 13/27/27
f 1/1/26 6/6/31 13/27/27
f 7/25/32 8/24/33 14/28/34
f 8/24/33 9/23/35 14/28/34
f 9/23/35 10/22/36 14/28/34
f 10/22/36 11/21/37 14/28/34
f 11/21/37 12/26/38 14/28/34
f 12/26/38 7/25/32 14/28/34
f 4/10/39 5/11/40 16/30/14 15/29/13
f 5/11/41 6/12/42 17/31/18 16/30/17
f 6/12/43 1/13/44 18/32/22 17/31/21
f 1/7/45 2/8/46 19/34/2 18/33/1
f 2/8/47 3/9/48 20/35/6 19/34/5
f 3/9/49 4/10/50 15/29/10 20/35/9
f 22/37/12 21/36/11 10/17/51 9/16/52
f 23/38/8 22/37/7 9/16/53 8/15/54
f 24/40/4 23/38/3 8/15/55 7/14/56
f 25/41/24 24/39/23 7/20/57 12/19/58
f 26/42/20 25/41/19 12/19/59 11/18/60
f 21/36/16 26/42/15 11/18/61 10/17/62
usemtl pasted__phong1SG1
f 52/43/63 36/44/64 51/45/65
f 51/45/65 36/44/64 35/46/66
f 52/43/67 45/47/68 36/44/69
f 36/44/69 45/47/68 37/48/70
f 45/47/71 46/49/72 37/48/73
f 37/48/73 46/49/72 38/50/74
f 47/51/75 39/52/76 46/49/77
f 46/49/77 39/52/76 38/50/78
f 48/53/79 40/54/80 47/51/81
f 47/51/81 40/54/80 39/52/82
f 49/55/83 41/56/84 48/53/85
f 48/53/85 41/56/84 40/54/86
f 49/55/87 50/57/88 41/56/89
f 41/56/89 50/57/88 42/58/90
f 50/57/91 51/59/92 42/58/93
f 42/58/93 51/59/92 35/60/94
f 28/61/95 27/62/96 43/63/97
f 29/64/98 28/61/95 43/63/97
f 30/65/99 29/64/98 43/63/97
f 31/66/100 30/65/99 43/63/97
f 32/67/101 31/66/100 43/63/97
f 33/68/102 32/67/101 43/63/97
f 34/69/103 33/68/102 43/63/97
f 27/62/96 34/69/103 43/63/97
f 35/70/104 36/71/105 44/72/106
f 36/71/105 37/73/107 44/72/106
f 37/73/107 38/74/108 44/72/106
f 38/74/108 39/75/109 44/72/106
f 39/75/109 40/76/110 44/72/106
f 40/76/110 41/77/111 44/72/106
f 41/77/111 42/78/112 44/72/106
f 42/78/112 35/70/104 44/72/106
f 29/79/113 30/80/114 45/47/71
f 45/47/71 30/80/114 46/49/72
f 31/81/115 47/51/75 30/80/116
f 30/80/116 47/51/75 46/49/77
f 32/82/117 48/53/79 31/81/118
f 31/81/118 48/53/79 47/51/81
f 33/83/119 49/55/83 32/82/120
f 32/82/120 49/55/83 48/53/85
f 33/83/121 34/84/122 49/55/87
f 49/55/87 34/84/122 50/57/88
f 34/84/123 27/85/124 50/57/91
f 50/57/91 27/85/124 51/59/92
f 28/86/125 52/43/63 27/87/126
f 27/87/126 52/43/63 51/45/65
f 28/86/127 29/79/128 52/43/67
f 52/43/67 29/79/128 45/47/68
